<svg width="24" height="24" viewBox="0 0 24 24" fill="none" xmlns="http://www.w3.org/2000/svg">
<path fill-rule="evenodd" clip-rule="evenodd" d="M10.9939 6.60317C11.5284 6.48717 12.1962 6.3292 12.753 6.15586L17.8604 11.2582C17.6869 11.8144 17.5288 12.4815 17.4126 13.0155C17.201 13.9889 17.0799 15.5313 17.0354 16.1881L7.10619 18.3137L11.4846 13.9397C11.652 13.9851 11.8283 14.0093 12.0101 14.0093C13.1159 14.0093 14.0124 13.1138 14.0124 12.0091C14.0124 10.9044 13.1159 10.0088 12.0101 10.0088C10.9043 10.0088 10.0079 10.9044 10.0079 12.0091C10.0079 12.1857 10.0308 12.3571 10.0738 12.5202L5.69028 16.8994L7.818 6.98002C8.47539 6.93563 10.0195 6.81465 10.9939 6.60317ZM19.7202 10.2873C20.2398 10.7982 19.9091 11.4262 19.7308 12.0003C19.6413 12.2886 19.5419 12.637 19.456 13.0043C19.151 14.3092 19.018 16.5008 19.018 16.5008V16.9835C19.0194 17.06 19.012 17.1354 18.9964 17.2084C18.9602 17.3798 18.8801 17.535 18.7683 17.6618C18.6886 17.7524 18.5921 17.8291 18.4823 17.8866C18.3967 17.9316 18.3037 17.9646 18.2057 17.9833L4.23201 20.9746C4.15727 20.9924 4.07986 21.0016 4.00109 21.0016C3.88072 21.0017 3.76351 20.98 3.6542 20.9395C3.51537 20.8885 3.39317 20.8087 3.2931 20.7085C3.10875 20.524 2.99949 20.2705 2.99976 20.0012C2.99968 19.9225 3.00895 19.8452 3.02672 19.7705L6.02199 5.80661C6.03646 5.73263 6.0591 5.66158 6.08892 5.59441C6.25144 5.22683 6.62243 4.9905 7.02553 4.99943H7.50506C7.50506 4.99943 9.69893 4.8666 11.0051 4.56187C11.6635 4.40826 12.2611 4.21109 12.5616 4.10552C12.8328 3.96936 13.1617 3.97169 13.4169 4.08479C13.5291 4.13444 13.6352 4.20694 13.7249 4.29802L19.7202 10.2873Z" fill="black"/>
<path fill-rule="evenodd" clip-rule="evenodd" d="M16.9863 4.40292C16.4403 3.85704 15.555 3.85704 15.0089 4.40292L14.4134 4.99831L13.7127 4.2979C13.6231 4.20686 13.5172 4.1344 13.405 4.08477C13.2826 4.03045 13.1431 4.00169 13.0012 4.00157C12.8477 4.00143 12.6914 4.03477 12.5507 4.10548C12.5172 4.11726 12.48 4.13018 12.4395 4.14405L13.5947 2.98915C14.9218 1.66247 17.0735 1.66247 18.4005 2.98915L21.0045 5.5923C22.3316 6.91897 22.3316 9.06994 21.0045 10.3966L19.8662 11.5346C20.0051 11.0999 20.0834 10.6606 19.7013 10.2846L18.9947 9.57824L19.5903 8.98285C20.1363 8.43698 20.1363 7.55194 19.5903 7.00607L16.9863 4.40292Z" fill="black" fill-opacity="0.4"/>
</svg>
