<svg width="24" height="24" viewBox="0 0 24 24" fill="none" xmlns="http://www.w3.org/2000/svg">
<path d="M17.0076 9C16.7526 9 16.4866 9.08583 16.2914 9.28065C15.9029 9.6705 15.9029 10.3256 16.2914 10.7155L17.5675 11.9942L16.2914 13.2729C15.9029 13.6627 15.9029 14.3179 16.2914 14.7077C16.6809 15.0974 17.3344 15.0974 17.7239 14.7077L19 13.4289L20.2761 14.7077C20.6656 15.0974 21.3191 15.0974 21.7086 14.7077C22.0971 14.3179 22.0971 13.6627 21.7086 13.2729L20.4325 11.9942L21.7086 10.7155C22.0971 10.3256 22.0971 9.6705 21.7086 9.28065C21.5134 9.08583 21.2474 9 20.9924 9C20.7373 9 20.4714 9.08583 20.2761 9.28065L19 10.5595L17.7239 9.28065C17.5286 9.08583 17.2627 9 17.0076 9Z" fill="black"/>
<path d="M11 3.00001C10.459 3.00121 9.9725 3.14871 9.5312 3.40621C9.2523 3.56911 8.7288 4.02461 7.875 4.81251C7.84 4.84481 7.0351 5.61341 6.625 6.00001C6.3767 5.99981 5.1169 5.99931 5 6.00001C3.3753 6.01021 2.012 7.38181 2 9.00001V15C2.0178 16.6835 3.3211 18.0155 5 18C5.0757 17.9993 6.3404 17.9996 6.5938 18C6.9926 18.3783 7.8106 19.1567 7.8438 19.1875C8.683 19.9676 9.1988 20.3989 9.4688 20.5625C9.9224 20.8375 10.432 21.0065 11 21C12.666 20.9808 14.02 19.6494 14 18L13.969 12L14 6.00001C13.998 4.32911 12.645 2.99641 11 3.00001ZM11 5.00001C11.544 4.99881 11.999 5.44501 12 6.00001L11.969 12L12 18C12.006 18.5412 11.571 18.9934 11 19C10.824 19.002 10.647 18.9643 10.5 18.875C10.408 18.819 9.8933 18.3458 9.2188 17.7188C9.179 17.6818 7.7751 16.3658 7.6875 16.2812C7.5011 16.1015 7.2589 16 7 16C6.9117 16 5.1382 15.9987 5 16C4.4403 16.0052 4.0062 15.5846 4 15V9.00001C4.0039 8.48031 4.472 8.00331 5 8.00001C5.1798 7.99891 6.8307 7.99991 7 8.00001C7.2581 8.00001 7.5012 7.89751 7.6875 7.71881C7.7757 7.63411 9.1763 6.32041 9.2188 6.28121C9.8959 5.65631 10.443 5.17631 10.531 5.12501C10.681 5.03761 10.83 5.00041 11 5.00001Z" fill="black" fill-opacity="0.4"/>
</svg>
