<svg width="24" height="24" viewBox="0 0 24 24" fill="none" xmlns="http://www.w3.org/2000/svg">
<path d="M18.9123 5.15634C18.6573 5.13664 18.4033 5.19544 18.1943 5.37504C17.7743 5.73434 17.7403 6.39314 18.1003 6.81254C19.3333 8.25204 20.0063 10.0645 20.0063 12C20.0063 13.9319 19.3293 15.7491 18.1003 17.1875C17.7413 17.6074 17.7743 18.235 18.1943 18.5938C18.6133 18.9525 19.2413 18.9199 19.6003 18.5C21.1353 16.7028 22.0063 14.4128 22.0063 12C22.0063 9.58274 21.1413 7.29864 19.6003 5.50004C19.4203 5.29034 19.1673 5.17604 18.9123 5.15634ZM16.1313 8.00004C15.8783 7.96484 15.6323 8.02094 15.4123 8.18754C14.9723 8.52074 14.8603 9.15334 15.1943 9.59384C15.7123 10.2791 16.0063 11.1122 16.0063 12C16.0063 12.8782 15.7103 13.7187 15.1943 14.4063C14.8623 14.8479 14.9713 15.4809 15.4123 15.8125C15.8543 16.1441 16.4873 16.0354 16.8183 15.5938C17.5933 14.5629 18.0063 13.3153 18.0063 12C18.0063 10.6745 17.5983 9.43734 16.8183 8.40634C16.6523 8.18604 16.3843 8.03524 16.1313 8.00004Z" fill="black"/>
<path d="M10 3.00001C9.459 3.00121 8.97201 3.14871 8.53101 3.40631C8.25201 3.56911 7.729 4.02461 6.875 4.81251C6.84 4.84481 6.035 5.61341 5.625 6.00001C5.377 5.99981 5.117 5.99931 5 6.00001C3.375 6.01021 2.012 7.38181 2 9.00001V15C2.018 16.6835 3.321 18.0155 5 18C5.076 17.9993 5.33999 17.9996 5.59399 18C5.99299 18.3783 6.81099 19.1567 6.84399 19.1875C7.68299 19.9676 8.19899 20.3989 8.46899 20.5625C8.92199 20.8376 9.432 21.0065 10 21C11.666 20.9808 13.02 19.6494 13 18L12.969 12L13 6.00001C12.998 4.32911 11.645 2.99641 10 3.00001ZM10 5.00001C10.544 4.99881 10.999 5.44501 11 6.00001L10.969 12L11 18C11.006 18.5412 10.571 18.9934 10 19C9.824 19.002 9.647 18.9643 9.5 18.875C9.408 18.8191 8.89299 18.3458 8.21899 17.7188C8.17899 17.6818 6.77499 16.3658 6.68799 16.2813C6.50099 16.1015 6.259 16 6 16C5.912 16 5.138 15.9987 5 16C4.44 16.0052 4.006 15.5846 4 15V9.00001C4.004 8.48031 4.472 8.00331 5 8.00001C5.18 7.99891 5.831 7.99991 6 8.00001C6.258 8.00001 6.50099 7.89751 6.68799 7.71881C6.77599 7.63411 8.17599 6.32041 8.21899 6.28131C8.89599 5.65631 9.44301 5.17631 9.53101 5.12501C9.68101 5.03761 9.83 5.00041 10 5.00001Z" fill="black" fill-opacity="0.4"/>
</svg>
