<svg width="24" height="24" viewBox="0 0 24 24" fill="none" xmlns="http://www.w3.org/2000/svg">
<path fill-rule="evenodd" clip-rule="evenodd" d="M9.1035 3.47625C6.4629 4.37329 4.37329 6.46291 3.47625 9.1035C2.57541 8.37005 2 7.25222 2 6C2 3.79086 3.79086 2 6 2C7.25222 2 8.37005 2.57541 9.1035 3.47625ZM12 7C12.5523 7 13 7.44772 13 8V12C13 12.5523 12.5523 13 12 13H8C7.44772 13 7 12.5523 7 12C7 11.4477 7.44772 11 8 11H11V8C11 7.44772 11.4477 7 12 7ZM20.5238 9.1035C19.6267 6.46291 17.5371 4.37329 14.8965 3.47625C15.63 2.57541 16.7478 2 18 2C20.2091 2 22 3.79086 22 6C22 7.25222 21.4246 8.37005 20.5238 9.1035Z" fill="black"/>
<path fill-rule="evenodd" clip-rule="evenodd" d="M12 5C8.13401 5 5 8.13401 5 12C5 15.866 8.13401 19 12 19C15.866 19 19 15.866 19 12C19 8.13401 15.866 5 12 5ZM3 12C3 7.02944 7.02944 3 12 3C16.9706 3 21 7.02944 21 12C21 14.6747 19.8332 17.0769 17.9809 18.7253L18.8946 20.5528C19.1416 21.0467 18.9414 21.6474 18.4474 21.8944C17.9535 22.1414 17.3528 21.9412 17.1058 21.4472L16.3285 19.8927C15.0442 20.5985 13.569 21 12 21C10.4311 21 8.95605 20.5986 7.67182 19.8928L6.89465 21.4472C6.64766 21.9412 6.04698 22.1414 5.55301 21.8944C5.05903 21.6474 4.8588 21.0467 5.10579 20.5528L6.01937 18.7256C4.16688 17.0771 3 14.6748 3 12Z" fill="black" fill-opacity="0.4"/>
</svg>
