<svg width="24" height="24" viewBox="0 0 24 24" fill="none" xmlns="http://www.w3.org/2000/svg">
<path fill-rule="evenodd" clip-rule="evenodd" d="M21 20C20.4477 20 20 19.5523 20 19V5C20 4.44771 20.4477 4 21 4C21.5523 4 22 4.44771 22 5V19C22 19.5523 21.5523 20 21 20Z" fill="black" fill-opacity="0.4"/>
<path fill-rule="evenodd" clip-rule="evenodd" d="M2 14.5C2 15.3284 2.67157 16 3.5 16H16.5C17.3284 16 18 15.3284 18 14.5C18 13.6716 17.3284 13 16.5 13H3.5C2.67157 13 2 13.6716 2 14.5ZM8 9.5C8 10.3284 8.67157 11 9.5 11H16.5C17.3284 11 18 10.3284 18 9.5C18 8.67157 17.3284 8 16.5 8H9.5C8.67157 8 8 8.67157 8 9.5Z" fill="black"/>
</svg>
