<svg width="24" height="24" viewBox="0 0 24 24" fill="none" xmlns="http://www.w3.org/2000/svg">
<path fill-rule="evenodd" clip-rule="evenodd" d="M12 2C11.4477 2 11 2.44772 11 3V6C11 6.55228 11.4477 7 12 7C12.5523 7 13 6.55228 13 6V3C13 2.44772 12.5523 2 12 2ZM12 17C11.4477 17 11 17.4477 11 18V21C11 21.5523 11.4477 22 12 22C12.5523 22 13 21.5523 13 21V18C13 17.4477 12.5523 17 12 17Z" fill="black" fill-opacity="0.4"/>
<path fill-rule="evenodd" clip-rule="evenodd" d="M8 9C7.44772 9 7 9.44772 7 10C7 10.5523 7.44772 11 8 11H16C16.5523 11 17 10.5523 17 10C17 9.44772 16.5523 9 16 9H8ZM5 13C4.44772 13 4 13.4477 4 14C4 14.5523 4.44772 15 5 15H19C19.5523 15 20 14.5523 20 14C20 13.4477 19.5523 13 19 13H5Z" fill="black"/>
</svg>
