<svg width="24" height="24" viewBox="0 0 24 24" fill="none" xmlns="http://www.w3.org/2000/svg">
<path d="M4 21C4 20.4477 4.44772 20 5 20H19C19.5523 20 20 20.4477 20 21C20 21.5523 19.5523 22 19 22H5C4.44772 22 4 21.5523 4 21Z" fill="black" fill-opacity="0.4"/>
<path fill-rule="evenodd" clip-rule="evenodd" d="M8 2C6.34315 2 5 3.34315 5 5V15C5 16.6569 6.34315 18 8 18C9.65685 18 11 16.6569 11 15V5C11 3.34315 9.65685 2 8 2ZM7 5C7 4.44772 7.44772 4 8 4C8.55228 4 9 4.44772 9 5V15C9 15.5523 8.55228 16 8 16C7.44772 16 7 15.5523 7 15V5ZM16 7C14.3431 7 13 8.34315 13 10V15C13 16.6569 14.3431 18 16 18C17.6569 18 19 16.6569 19 15V10C19 8.34315 17.6569 7 16 7ZM15 10C15 9.44772 15.4477 9 16 9C16.5523 9 17 9.44772 17 10V15C17 15.5523 16.5523 16 16 16C15.4477 16 15 15.5523 15 15V10Z" fill="black"/>
</svg>
