<svg width="24" height="24" viewBox="0 0 24 24" fill="none" xmlns="http://www.w3.org/2000/svg">
<path fill-rule="evenodd" clip-rule="evenodd" d="M12 2C11.4477 2 11 2.44772 11 3V5H13V3C13 2.44772 12.5523 2 12 2ZM13 21V19H11V21C11 21.5523 11.4477 22 12 22C12.5523 22 13 21.5523 13 21Z" fill="black" fill-opacity="0.4"/>
<path fill-rule="evenodd" clip-rule="evenodd" d="M10 5C8.34315 5 7 6.34315 7 8C7 9.65685 8.34315 11 10 11H14C15.6569 11 17 9.65685 17 8C17 6.34315 15.6569 5 14 5H10ZM9 8C9 7.44772 9.44772 7 10 7H14C14.5523 7 15 7.44772 15 8C15 8.55228 14.5523 9 14 9H10C9.44772 9 9 8.55228 9 8ZM7 13C5.34315 13 4 14.3431 4 16C4 17.6569 5.34315 19 7 19H17C18.6569 19 20 17.6569 20 16C20 14.3431 18.6569 13 17 13H7ZM6 16C6 15.4477 6.44772 15 7 15H17C17.5523 15 18 15.4477 18 16C18 16.5523 17.5523 17 17 17H7C6.44772 17 6 16.5523 6 16Z" fill="black"/>
</svg>
