<svg width="24" height="24" viewBox="0 0 24 24" fill="none" xmlns="http://www.w3.org/2000/svg">
<path fill-rule="evenodd" clip-rule="evenodd" d="M4 21C4 20.4477 4.44772 20 5 20H19C19.5523 20 20 20.4477 20 21C20 21.5523 19.5523 22 19 22H5C4.44772 22 4 21.5523 4 21Z" fill="black" fill-opacity="0.4"/>
<path fill-rule="evenodd" clip-rule="evenodd" d="M9.5 2C8.67157 2 8 2.67157 8 3.5V16.5C8 17.3284 8.67157 18 9.5 18C10.3284 18 11 17.3284 11 16.5V3.5C11 2.67157 10.3284 2 9.5 2ZM14.5 8C13.6716 8 13 8.67157 13 9.5V16.5C13 17.3284 13.6716 18 14.5 18C15.3284 18 16 17.3284 16 16.5V9.5C16 8.67157 15.3284 8 14.5 8Z" fill="black"/>
</svg>
