<svg width="24" height="24" viewBox="0 0 24 24" fill="none" xmlns="http://www.w3.org/2000/svg">
<path d="M3 20C3.55228 20 4 19.5523 4 19L4 5C4 4.44771 3.55228 4 3 4C2.44772 4 2 4.44771 2 5L2 19C2 19.5523 2.44772 20 3 20Z" fill="black" fill-opacity="0.4"/>
<path fill-rule="evenodd" clip-rule="evenodd" d="M22 16C22 17.6569 20.6569 19 19 19H9C7.34315 19 6 17.6569 6 16C6 14.3431 7.34315 13 9 13H19C20.6569 13 22 14.3431 22 16ZM17 8C17 9.65685 15.6569 11 14 11H9C7.34315 11 6 9.65685 6 8C6 6.34315 7.34315 5 9 5H14C15.6569 5 17 6.34315 17 8Z" fill="black"/>
</svg>
