<svg width="24" height="24" viewBox="0 0 24 24" fill="none" xmlns="http://www.w3.org/2000/svg">
<path fill-rule="evenodd" clip-rule="evenodd" d="M4 21C3.44772 21 3 20.5523 3 20L3 4C3 3.44772 3.44772 3 4 3C4.55228 3 5 3.44772 5 4L5 20C5 20.5523 4.55228 21 4 21Z" fill="black" fill-opacity="0.4"/>
<path fill-rule="evenodd" clip-rule="evenodd" d="M8 11C7.44772 11 7 11.4477 7 12C7 12.5523 7.44772 13 8 13H17.5857L13.5858 16.9998L15 18.4141L20.6977 12.7164C20.7348 12.6802 20.7691 12.6412 20.8003 12.5998C20.8407 12.546 20.8749 12.4891 20.9031 12.43C20.9568 12.3174 20.9901 12.1931 20.9981 12.062C21.0014 12.0084 21.0004 11.9545 20.9952 11.901C20.9889 11.837 20.9765 11.7747 20.9587 11.7148C20.9129 11.5603 20.8291 11.4147 20.7071 11.2927L15 5.58564L13.5858 6.99985L17.586 11H8Z" fill="black"/>
</svg>
