<svg width="24" height="24" viewBox="0 0 24 24" fill="none" xmlns="http://www.w3.org/2000/svg">
<path fill-rule="evenodd" clip-rule="evenodd" d="M3 7.5C3 6.67157 3.67157 6 4.5 6H19.5C20.3284 6 21 6.67157 21 7.5V18C21 20.2091 19.2091 22 17 22H7C4.79086 22 3 20.2091 3 18V7.5ZM5 8V18C5 19.1046 5.89543 20 7 20H17C18.1046 20 19 19.1046 19 18V8H5Z" fill="black"/>
<path fill-rule="evenodd" clip-rule="evenodd" d="M8 6C8 3.79086 9.79086 2 12 2C14.2091 2 16 3.79086 16 6H14C14 4.89543 13.1046 4 12 4C10.8954 4 10 4.89543 10 6H8Z" fill="black" fill-opacity="0.4"/>
</svg>
