<svg width="24" height="24" viewBox="0 0 24 24" fill="none" xmlns="http://www.w3.org/2000/svg">
<path fill-rule="evenodd" clip-rule="evenodd" d="M21 13H3V17C3 19.2091 4.79086 21 7 21H17C19.2091 21 21 19.2091 21 17V13ZM9 16C9 15.4477 8.55228 15 8 15C7.44772 15 7 15.4477 7 16V17C7 17.5523 7.44772 18 8 18C8.55228 18 9 17.5523 9 17V16ZM12 15C12.5523 15 13 15.4477 13 16V17C13 17.5523 12.5523 18 12 18C11.4477 18 11 17.5523 11 17V16C11 15.4477 11.4477 15 12 15ZM17 16C17 15.4477 16.5523 15 16 15C15.4477 15 15 15.4477 15 16V17C15 17.5523 15.4477 18 16 18C16.5523 18 17 17.5523 17 17V16Z" fill="black" fill-opacity="0.4"/>
<path d="M6.688 3.06109C6.445 3.14209 6.21699 3.31508 6.09399 3.56108L4.375 6.99906H4C2.895 6.99906 2 7.89406 2 8.99906C2 10.1041 2 10.9991 2 10.9991H22C22 10.9991 22 10.1041 22 8.99906C22 7.89406 21.105 6.99906 20 6.99906H19.625L17.906 3.56108C17.783 3.31508 17.555 3.14209 17.312 3.06109C17.07 2.98109 16.809 2.96907 16.562 3.09307C16.069 3.34007 15.847 3.94306 16.094 4.43706L17.375 6.99906H6.625L7.90601 4.43706C8.15301 3.94306 7.931 3.33907 7.438 3.09307C7.191 2.96907 6.93 2.98009 6.688 3.06109Z" fill="black"/>
</svg>
