<svg width="24" height="24" viewBox="0 0 24 24" fill="none" xmlns="http://www.w3.org/2000/svg">
<path fill-rule="evenodd" clip-rule="evenodd" d="M2 8.99609C2 8.44409 2.448 7.99609 3 7.99609H21C21.552 7.99609 22 8.44409 22 8.99609V12.9961C22 13.1321 21.96 13.2781 21.906 13.4021L19.625 18.7151C19.074 20.0001 17.586 20.9961 16.188 20.9961H7.81199C6.41399 20.9961 4.926 20.0011 4.375 18.7151L2.09399 13.4021C2.03999 13.2781 2 13.1311 2 12.9961V8.99609ZM9 12.9999C9 12.4476 8.55228 11.9999 8 11.9999C7.44772 11.9999 7 12.4476 7 12.9999V14.9999C7 15.5522 7.44772 15.9999 8 15.9999C8.55228 15.9999 9 15.5522 9 14.9999V12.9999ZM13 12.9999C13 12.4476 12.5523 11.9999 12 11.9999C11.4477 11.9999 11 12.4476 11 12.9999V15.9999C11 16.5522 11.4477 16.9999 12 16.9999C12.5523 16.9999 13 16.5522 13 15.9999V12.9999ZM16 11.9999C16.5523 11.9999 17 12.4476 17 12.9999V14.9999C17 15.5522 16.5523 15.9999 16 15.9999C15.4477 15.9999 15 15.5522 15 14.9999V12.9999C15 12.4476 15.4477 11.9999 16 11.9999Z" fill="black"/>
<path fill-rule="evenodd" clip-rule="evenodd" d="M8.51438 3.14251C8.98796 3.42665 9.14152 4.04091 8.85738 4.51449L6.76842 7.99609H4.43604L7.14239 3.4855C7.42654 3.01192 8.0408 2.85836 8.51438 3.14251ZM19.5637 7.99609L16.8574 3.4855C16.5732 3.01192 15.959 2.85836 15.4854 3.14251C15.0118 3.42665 14.8582 4.04091 15.1424 4.51449L17.2313 7.99609H19.5637Z" fill="black" fill-opacity="0.4"/>
</svg>
