<svg width="25" height="24" viewBox="0 0 25 24" fill="none" xmlns="http://www.w3.org/2000/svg">
<path d="M4.125 5.9967C2.4084 5.9967 1 7.3247 1 8.99669V14.9967C1 16.6687 2.4084 17.9967 4.125 17.9967H7.0312C7.5835 17.9967 8.0312 17.5487 8.0312 16.9967C8.0312 16.4447 7.5835 15.9967 7.0312 15.9967H4.125C3.4852 15.9967 3 15.5337 3 14.9967V8.99669C3 8.45969 3.4852 7.99669 4.125 7.99669H7C7.5523 7.99669 8 7.5487 8 6.9967C8 6.4447 7.5523 5.9967 7 5.9967H4.125ZM15 5.9967C14.4477 5.9967 14 6.4447 14 6.9967C14 7.5487 14.4477 7.99669 15 7.99669H17.875C18.5148 7.99669 19 8.45969 19 8.99669V14.9967C19 15.5337 18.5148 15.9967 17.875 15.9967H15C14.4477 15.9967 14 16.4447 14 16.9967C14 17.5487 14.4477 17.9967 15 17.9967H17.875C19.5916 17.9967 21 16.6687 21 14.9967V8.99669C21 7.3247 19.5916 5.9967 17.875 5.9967H15ZM22 7.99669C22 8.99669 22 15.9967 22 15.9967C23.1046 15.9967 24 15.1017 24 13.9967V9.99668C24 8.89169 23.1046 7.99669 22 7.99669Z" fill="black" fill-opacity="0.4"/>
<path d="M12 11V5L6 13H10V19L16 11H12Z" fill="black"/>
</svg>
