<svg width="25" height="24" viewBox="0 0 25 24" fill="none" xmlns="http://www.w3.org/2000/svg">
<path d="M4 6.00378C2.343 6.00378 1 7.34678 1 9.00378V15.0038C1 16.6608 2.343 18.0038 4 18.0038H18C19.657 18.0038 21 16.6608 21 15.0038V9.00378C21 7.34678 19.657 6.00378 18 6.00378H4ZM4 8.00378H18C18.552 8.00378 19 8.45178 19 9.00378V15.0038C19 15.5558 18.552 16.0038 18 16.0038H4C3.448 16.0038 3 15.5558 3 15.0038V9.00378C3 8.45178 3.448 8.00378 4 8.00378ZM22 8.00378C22 9.00378 22 16.0038 22 16.0038C23.105 16.0038 24 15.1088 24 14.0038V10.0038C24 8.89878 23.105 8.00378 22 8.00378Z" fill="black" fill-opacity="0.4"/>
<path d="M4 9H18V15H4V9Z" fill="black"/>
</svg>
