<svg width="24" height="24" viewBox="0 0 24 24" fill="none" xmlns="http://www.w3.org/2000/svg">
<path fill-rule="evenodd" clip-rule="evenodd" d="M10 15C10 17.2091 8.20914 19 6 19C3.79086 19 2 17.2091 2 15C2 12.7909 3.79086 11 6 11C8.20914 11 10 12.7909 10 15ZM12 15C12 18.3137 9.31371 21 6 21C2.68629 21 0 18.3137 0 15C0 11.6863 2.68629 9 6 9C9.31371 9 12 11.6863 12 15ZM12 15C12 18.3137 14.6863 21 18 21C21.3137 21 24 18.3137 24 15C24 11.6863 21.3137 9 18 9C14.6863 9 12 11.6863 12 15ZM22 15C22 17.2091 20.2091 19 18 19C15.7909 19 14 17.2091 14 15C14 12.7909 15.7909 11 18 11C20.2091 11 22 12.7909 22 15Z" fill="black" fill-opacity="0.4"/>
<path fill-rule="evenodd" clip-rule="evenodd" d="M14.4911 6.47885C14.1276 5.81248 14.6099 5 15.369 5H17.4999C18.0522 5 18.4999 4.55228 18.4999 4C18.4999 3.44772 18.0522 3 17.4999 3H15.369C13.0918 3 11.6449 5.43743 12.7353 7.43655L13.5881 9H9.42925L8.80425 8H9C9.55228 8 10 7.55229 10 7C10 6.44772 9.55228 6 9 6H7.01542C7.00452 5.99982 6.9936 5.99982 6.98269 6H5C4.44772 6 4 6.44772 4 7C4 7.55229 4.44772 8 5 8H6.44575L10.1958 14H6C5.44772 14 5 14.4477 5 15C5 15.5523 5.44772 16 6 16H11.9846C12.1693 16.003 12.357 15.9549 12.5257 15.8507L12.538 15.843C12.679 15.753 12.7899 15.6335 12.8677 15.4975L15.1015 11.7745L17.122 15.4789C17.3865 15.9637 17.9939 16.1424 18.4788 15.8779C18.9636 15.6134 19.1423 15.006 18.8778 14.5211L14.4911 6.47885ZM13.2338 11L11.9826 13.0854L10.6792 11H13.2338Z" fill="black"/>
</svg>
