<svg width="24" height="24" viewBox="0 0 24 24" fill="none" xmlns="http://www.w3.org/2000/svg">
<path fill-rule="evenodd" clip-rule="evenodd" d="M2.81977 8.6221L2 16H2.02746C2.27619 13.75 4.18372 12 6.5 12C8.81628 12 10.7238 13.75 10.9725 16H11V12C11 11.4477 11.4477 11 12 11C12.5523 11 13 11.4477 13 12V16H13.0275C13.2762 13.75 15.1837 12 17.5 12C19.8163 12 21.7238 13.75 21.9725 16H22L21.1802 8.6221C21.0679 7.61069 20.4504 6.72521 19.5402 6.27011L19 6C19 4.34315 17.6569 3 16 3C14.3431 3 13 4.34315 13 6H11C11 4.34315 9.65685 3 8 3C6.34315 3 5 4.34315 5 6L4.45978 6.27011C3.54958 6.72521 2.93215 7.61069 2.81977 8.6221Z" fill="black" fill-opacity="0.4"/>
<path fill-rule="evenodd" clip-rule="evenodd" d="M9 16.5C9 17.8807 7.88071 19 6.5 19C5.11929 19 4 17.8807 4 16.5C4 15.1193 5.11929 14 6.5 14C7.88071 14 9 15.1193 9 16.5ZM11 16.5C11 18.9853 8.98528 21 6.5 21C4.01472 21 2 18.9853 2 16.5C2 14.0147 4.01472 12 6.5 12C8.98528 12 11 14.0147 11 16.5ZM20 16.5C20 17.8807 18.8807 19 17.5 19C16.1193 19 15 17.8807 15 16.5C15 15.1193 16.1193 14 17.5 14C18.8807 14 20 15.1193 20 16.5ZM22 16.5C22 18.9853 19.9853 21 17.5 21C15.0147 21 13 18.9853 13 16.5C13 14.0147 15.0147 12 17.5 12C19.9853 12 22 14.0147 22 16.5Z" fill="black"/>
</svg>
