<svg width="24" height="24" viewBox="0 0 24 24" fill="none" xmlns="http://www.w3.org/2000/svg">
<path fill-rule="evenodd" clip-rule="evenodd" d="M6.99999 6C6.99999 5.44772 7.4477 5 7.99999 5C8.55227 5 8.99999 5.44772 8.99999 6V7C8.99999 7.55228 9.4477 8 9.99999 8H14C14.5523 8 15 7.55228 15 7V6C15 5.44772 15.4477 5 16 5C16.5523 5 17 5.44772 17 6V7C17 7.55228 17.4477 8 18 8H18.2099C18.7195 8 19.1475 8.38314 19.2038 8.88957L19.6075 12.523C20.8609 13.1886 21.7622 14.4294 21.9595 15.8934L21.9939 15.8896L21.1916 8.66871C21.0529 7.42054 20.1614 6.42202 19 6.10538V6C19 4.34315 17.6568 3 16 3C14.3431 3 13 4.34315 13 6H11C11 4.34315 9.65684 3 7.99999 3C6.34313 3 4.99999 4.34315 4.99999 6V6.10538C3.8386 6.42202 2.94711 7.42054 2.80842 8.6687L2.0061 15.8896L2.04054 15.8934C2.23781 14.4294 3.13909 13.1886 4.39247 12.523L4.79619 8.88957C4.85246 8.38314 5.28052 8 5.79007 8H5.99999C6.55227 8 6.99999 7.55228 6.99999 7V6ZM10.9725 16C10.8236 14.6525 10.0796 13.4842 9.00914 12.7639C9.12953 11.2174 10.4226 10 12 10C13.5774 10 14.8705 11.2174 14.9908 12.7639C13.9204 13.4843 13.1764 14.6525 13.0275 16H13V13C13 12.4477 12.5523 12 12 12C11.4477 12 11 12.4477 11 13V16H10.9725Z" fill="black" fill-opacity="0.4"/>
<path fill-rule="evenodd" clip-rule="evenodd" d="M4 16.5C4 15.1193 5.11929 14 6.5 14C7.88071 14 9 15.1193 9 16.5C9 17.8807 7.88071 19 6.5 19C5.11929 19 4 17.8807 4 16.5ZM6.5 12C4.01472 12 2 14.0147 2 16.5C2 18.9853 4.01472 21 6.5 21C8.98528 21 11 18.9853 11 16.5C11 14.0147 8.98528 12 6.5 12ZM15 16.5C15 15.1193 16.1193 14 17.5 14C18.8807 14 20 15.1193 20 16.5C20 17.8807 18.8807 19 17.5 19C16.1193 19 15 17.8807 15 16.5ZM17.5 12C15.0147 12 13 14.0147 13 16.5C13 18.9853 15.0147 21 17.5 21C19.9853 21 22 18.9853 22 16.5C22 14.0147 19.9853 12 17.5 12Z" fill="black"/>
</svg>
