<svg width="24" height="24" viewBox="0 0 24 24" fill="none" xmlns="http://www.w3.org/2000/svg">
<path fill-rule="evenodd" clip-rule="evenodd" d="M21 5C21.5523 5 22 5.44772 22 6C22 6.55228 21.5523 7 21 7H3C2.44772 7 2 6.55228 2 6C2 5.44772 2.44772 5 3 5H21ZM21 17C21.5523 17 22 17.4477 22 18C22 18.5523 21.5523 19 21 19H3C2.44772 19 2 18.5523 2 18C2 17.4477 2.44772 17 3 17H21ZM12 10C12 9.44772 11.5523 9 11 9H3C2.44772 9 2 9.44772 2 10C2 10.5523 2.44772 11 3 11H11C11.5523 11 12 10.5523 12 10ZM11 13C11.5523 13 12 13.4477 12 14C12 14.5523 11.5523 15 11 15H3C2.44772 15 2 14.5523 2 14C2 13.4477 2.44772 13 3 13H11Z" fill="black" fill-opacity="0.4"/>
<path d="M18.844 9.0987C20.191 10.1321 21 11.7376 21 13.4669C21 13.4769 21 13.4878 21 13.4978C21 14.3255 20.329 14.9955 19.5 14.9955C18.671 14.9955 18 14.3255 18 13.4978C18 12.6701 18.671 12.0002 19.5 12.0002C19.571 12.0002 19.681 11.9912 19.75 12.0002C19.47 11.1525 18.966 10.4276 18.25 9.87849C18.031 9.71075 17.988 9.4112 18.156 9.19255C18.325 8.97289 18.625 8.92996 18.844 9.0987ZM14.844 9.0987C16.191 10.1321 17 11.7376 17 13.4669C17 13.4769 17 13.4878 17 13.4978C17 14.3255 16.329 14.9955 15.5 14.9955C14.671 14.9955 14 14.3255 14 13.4978C14 12.6701 14.671 12.0002 15.5 12.0002C15.571 12.0002 15.681 12.0221 15.75 12.0311C15.47 11.1835 14.966 10.4276 14.25 9.87849C14.031 9.71075 13.988 9.4112 14.156 9.19255C14.325 8.97289 14.625 8.92996 14.844 9.0987Z" fill="black"/>
</svg>
