<svg width="24" height="24" viewBox="0 0 24 24" fill="none" xmlns="http://www.w3.org/2000/svg">
<path fill-rule="evenodd" clip-rule="evenodd" d="M4 6C4 3.79086 5.79086 2 8 2H16C18.2091 2 20 3.79086 20 6V21C20 21.3361 19.8311 21.6498 19.5505 21.8348C19.2699 22.0199 18.915 22.0516 18.6061 21.9191L12 19.088L5.39392 21.9191C5.08496 22.0516 4.73014 22.0199 4.44951 21.8348C4.16888 21.6498 4 21.3361 4 21V6ZM8 4C6.89543 4 6 4.89543 6 6V19.4835L11.6061 17.0809C11.8576 16.973 12.1424 16.973 12.3939 17.0809L18 19.4835V6C18 4.89543 17.1046 4 16 4H8Z" fill="black" fill-opacity="0.4"/>
<path fill-rule="evenodd" clip-rule="evenodd" d="M8 11C8 10.4477 8.44772 10 9 10H15C15.5523 10 16 10.4477 16 11C16 11.5523 15.5523 12 15 12H9C8.44772 12 8 11.5523 8 11Z" fill="black"/>
</svg>
