<svg width="24" height="24" viewBox="0 0 24 24" fill="none" xmlns="http://www.w3.org/2000/svg">
<path d="M6.01416 3.9978C3.80516 3.9978 2.01416 5.7888 2.01416 7.9978V15.9978C2.01416 18.2068 3.80516 19.9978 6.01416 19.9978L9.02317 20.0078C9.44917 20.0078 9.89516 20.2038 10.4062 20.6748C10.6052 20.8588 10.8432 21.0888 11.0052 21.3038C11.1852 21.5438 11.4202 22.0008 12.0142 21.9978C12.6082 21.9948 12.8012 21.5908 13.0142 21.3098C13.1752 21.1118 13.3682 20.9228 13.5672 20.7388C14.0792 20.2678 14.5882 19.9978 15.0142 19.9978H18.0142C20.2232 19.9978 22.0142 18.2068 22.0142 15.9978V7.9978C22.0142 5.7888 20.2232 3.9978 18.0142 3.9978H15.0142C13.8032 3.9978 12.7482 4.55381 12.0142 5.40381C11.2802 4.55381 10.2252 3.9978 9.01416 3.9978H6.01416ZM6.01416 5.9978H9.01416C10.1192 5.9978 11.0142 6.8928 11.0142 7.9978L11.0202 18.6468C10.3962 18.2418 9.72617 17.9978 9.01416 17.9978H6.01416C4.90916 17.9978 4.01416 17.1028 4.01416 15.9978V7.9978C4.01416 6.8928 4.90916 5.9978 6.01416 5.9978ZM15.0142 5.9978H18.0142C19.1192 5.9978 20.0142 6.8928 20.0142 7.9978V15.9978C20.0142 17.1028 19.1192 17.9978 18.0142 17.9978H15.0142C14.3022 17.9978 13.6342 18.2548 13.0102 18.6598L13.0142 7.9978C13.0142 6.8928 13.9092 5.9978 15.0142 5.9978Z" fill="black" fill-opacity="0.4"/>
<path d="M4 8C4 6.89543 4.89543 6 6 6H9C10.1046 6 11 6.89543 11 8V18.6406C11 18.6406 10.1596 18 9 18C8.40869 18 7.12035 18 5.99958 18C4.89501 18 4 17.1046 4 16V8Z" fill="black"/>
</svg>
