<svg width="24" height="24" viewBox="0 0 24 24" fill="none" xmlns="http://www.w3.org/2000/svg">
<path fill-rule="evenodd" clip-rule="evenodd" d="M2 7.5C2 5.567 3.567 4 5.5 4H6.5C7.47934 4 8.36474 4.40223 9 5.05051C9.63526 4.40223 10.5207 4 11.5 4H12.5C13.4793 4 14.3647 4.40223 15 5.05051C15.6353 4.40223 16.5207 4 17.5 4H18.5C20.433 4 22 5.567 22 7.5V17H20V7.5C20 6.67157 19.3284 6 18.5 6H17.5C16.6716 6 16 6.67157 16 7.5V17H14V7.5C14 6.67157 13.3284 6 12.5 6H11.5C10.6716 6 10 6.67157 10 7.5V17H8V7.5C8 6.67157 7.32843 6 6.5 6H5.5C4.67157 6 4 6.67157 4 7.5V17H2V7.5Z" fill="black" fill-opacity="0.4"/>
<path fill-rule="evenodd" clip-rule="evenodd" d="M8 8H4V10H8V8ZM2 17C1.44772 17 1 17.4477 1 18C1 18.5523 1.44772 19 2 19H4V20C4 20.5523 4.44772 21 5 21C5.55228 21 6 20.5523 6 20V19H18V20C18 20.5523 18.4477 21 19 21C19.5523 21 20 20.5523 20 20V19H22C22.5523 19 23 18.5523 23 18C23 17.4477 22.5523 17 22 17H2ZM10 8H14V10H10V8ZM20 8H16V10H20V8Z" fill="black"/>
</svg>
