<svg width="24" height="24" viewBox="0 0 24 24" fill="none" xmlns="http://www.w3.org/2000/svg">
<path d="M7.00586 2.99072C4.79676 2.99072 3.00586 4.78162 3.00586 6.99072V16.9907C3.00586 19.1997 4.79676 20.9907 7.00586 20.9907H17.0059C19.2149 20.9907 21.0059 19.1997 21.0059 16.9907V6.99072C21.0059 4.78162 19.2149 2.99072 17.0059 2.99072H7.00586ZM7.00586 4.99072H11.0059V10.9907H5.00586V6.99072C5.00586 5.88612 5.90126 4.99072 7.00586 4.99072ZM13.0059 4.99072H17.0059C18.1109 4.99072 19.0059 5.88612 19.0059 6.99072V10.9907H13.0059V4.99072ZM5.00586 12.9907H11.0059V18.9907H7.00586C5.90126 18.9907 5.00586 18.0957 5.00586 16.9907V12.9907ZM13.0059 12.9907H19.0059V16.9907C19.0059 18.0957 18.1109 18.9907 17.0059 18.9907H13.0059V12.9907Z" fill="black"/>
</svg>
