<svg width="24" height="24" viewBox="0 0 24 24" fill="none" xmlns="http://www.w3.org/2000/svg">
<path fill-rule="evenodd" clip-rule="evenodd" d="M3 6C3 5.44772 3.44772 5 4 5H20C20.5523 5 21 5.44772 21 6C21 6.55228 20.5523 7 20 7H4C3.44772 7 3 6.55228 3 6ZM3 18C3 17.4477 3.44772 17 4 17H6V19H4C3.44772 19 3 18.5523 3 18ZM20 17C20.5523 17 21 17.4477 21 18C21 18.5523 20.5523 19 20 19H18V17H20ZM8 17H11V19H8V17ZM16 17H13V19H16V17Z" fill="black" fill-opacity="0.4"/>
<path fill-rule="evenodd" clip-rule="evenodd" d="M4 11C3.44772 11 3 11.4477 3 12C3 12.5523 3.44772 13 4 13H11V11H4ZM20 11C20.5523 11 21 11.4477 21 12C21 12.5523 20.5523 13 20 13H13V11H20Z" fill="black"/>
</svg>
