<svg width="24" height="24" viewBox="0 0 24 24" fill="none" xmlns="http://www.w3.org/2000/svg">
<path fill-rule="evenodd" clip-rule="evenodd" d="M5 15V17C5 18.1046 5.89543 19 7 19H17C18.1046 19 19 18.1046 19 17V15H21V17C21 19.2091 19.2091 21 17 21H7C4.79086 21 3 19.2091 3 17V15H5Z" fill="black"/>
<path fill-rule="evenodd" clip-rule="evenodd" d="M3 7C3 4.79086 4.79086 3 7 3H17C19.2091 3 21 4.79086 21 7V15H19V13H13V19H11V13H5V15H3V7ZM13 11H19V7C19 5.89543 18.1046 5 17 5H13V11ZM11 5H7C5.89543 5 5 5.89543 5 7V11H11V5Z" fill="black" fill-opacity="0.4"/>
</svg>
