<svg width="24" height="24" viewBox="0 0 24 24" fill="none" xmlns="http://www.w3.org/2000/svg">
<path fill-rule="evenodd" clip-rule="evenodd" d="M7.82929 6C7.93985 5.68722 8 5.35064 8 5C8 4.64936 7.93985 4.31278 7.82929 4H16.1707C16.0602 4.31278 16 4.64936 16 5C16 5.35064 16.0602 5.68722 16.1707 6H7.82929ZM4 7.82929C4.31278 7.93985 4.64936 8 5 8C5.35064 8 5.68722 7.93985 6 7.82929V16.1707C5.68722 16.0602 5.35064 16 5 16C4.64936 16 4.31278 16.0602 4 16.1707V7.82929ZM7.82929 20H16.1707C16.0602 19.6872 16 19.3506 16 19C16 18.6494 16.0602 18.3128 16.1707 18H7.82929C7.93985 18.3128 8 18.6494 8 19C8 19.3506 7.93985 19.6872 7.82929 20ZM20 16.1707C19.6872 16.0602 19.3506 16 19 16C18.6494 16 18.3128 16.0602 18 16.1707V7.82929C18.3128 7.93985 18.6494 8 19 8C19.3506 8 19.6872 7.93985 20 7.82929V16.1707Z" fill="black" fill-opacity="0.4"/>
<path fill-rule="evenodd" clip-rule="evenodd" d="M4 5C4 4.44772 4.44772 4 5 4C5.55228 4 6 4.44772 6 5C6 5.55228 5.55228 6 5 6C4.44772 6 4 5.55228 4 5ZM5 2C3.34315 2 2 3.34315 2 5C2 6.65685 3.34315 8 5 8C6.65685 8 8 6.65685 8 5C8 3.34315 6.65685 2 5 2ZM18 5C18 4.44772 18.4477 4 19 4C19.5523 4 20 4.44772 20 5C20 5.55228 19.5523 6 19 6C18.4477 6 18 5.55228 18 5ZM19 2C17.3431 2 16 3.34315 16 5C16 6.65685 17.3431 8 19 8C20.6569 8 22 6.65685 22 5C22 3.34315 20.6569 2 19 2ZM19 18C18.4477 18 18 18.4477 18 19C18 19.5523 18.4477 20 19 20C19.5523 20 20 19.5523 20 19C20 18.4477 19.5523 18 19 18ZM16 19C16 17.3431 17.3431 16 19 16C20.6569 16 22 17.3431 22 19C22 20.6569 20.6569 22 19 22C17.3431 22 16 20.6569 16 19ZM4 19C4 18.4477 4.44772 18 5 18C5.55228 18 6 18.4477 6 19C6 19.5523 5.55228 20 5 20C4.44772 20 4 19.5523 4 19ZM5 16C3.34315 16 2 17.3431 2 19C2 20.6569 3.34315 22 5 22C6.65685 22 8 20.6569 8 19C8 17.3431 6.65685 16 5 16Z" fill="black"/>
</svg>
