<svg width="24" height="24" viewBox="0 0 24 24" fill="none" xmlns="http://www.w3.org/2000/svg">
<path fill-rule="evenodd" clip-rule="evenodd" d="M15 5H9V7H15V5ZM15 17H9V19H15V17ZM7 9V15H5V9H7ZM19 15V9H17V15H19Z" fill="black" fill-opacity="0.4"/>
<path fill-rule="evenodd" clip-rule="evenodd" d="M4.5 3C3.67157 3 3 3.67157 3 4.5V7.5C3 8.32843 3.67157 9 4.5 9H7.5C8.32843 9 9 8.32843 9 7.5V4.5C9 3.67157 8.32843 3 7.5 3H4.5ZM5 7V5H7V7H5ZM16.5 3C15.6716 3 15 3.67157 15 4.5V7.5C15 8.32843 15.6716 9 16.5 9H19.5C20.3284 9 21 8.32843 21 7.5V4.5C21 3.67157 20.3284 3 19.5 3H16.5ZM17 7V5H19V7H17ZM15 16.5C15 15.6716 15.6716 15 16.5 15H19.5C20.3284 15 21 15.6716 21 16.5V19.5C21 20.3284 20.3284 21 19.5 21H16.5C15.6716 21 15 20.3284 15 19.5V16.5ZM17 17V19H19V17H17ZM4.5 15C3.67157 15 3 15.6716 3 16.5V19.5C3 20.3284 3.67157 21 4.5 21H7.5C8.32843 21 9 20.3284 9 19.5V16.5C9 15.6716 8.32843 15 7.5 15H4.5ZM5 19V17H7V19H5Z" fill="black"/>
</svg>
