<svg width="24" height="24" viewBox="0 0 24 24" fill="none" xmlns="http://www.w3.org/2000/svg">
<path fill-rule="evenodd" clip-rule="evenodd" d="M5 4C3.89543 4 3 4.89543 3 6C3 7.10457 3.89543 8 5 8H8V4H5ZM19 4H16V8H19C20.1046 8 21 7.10457 21 6C21 4.89543 20.1046 4 19 4ZM16 10H13V14H16C17.1046 14 18 13.1046 18 12C18 10.8954 17.1046 10 16 10ZM16 16H19C20.1046 16 21 16.8954 21 18C21 19.1046 20.1046 20 19 20H16V16ZM6 12C6 10.8954 6.89543 10 8 10H11V14H8C6.89543 14 6 13.1046 6 12ZM5 16C3.89543 16 3 16.8954 3 18C3 19.1046 3.89543 20 5 20H8V16H5Z" fill="black"/>
<path fill-rule="evenodd" clip-rule="evenodd" d="M14 4H10V8H14V4ZM14 16H10V20H14V16Z" fill="black" fill-opacity="0.4"/>
</svg>
