<svg width="24" height="24" viewBox="0 0 24 24" fill="none" xmlns="http://www.w3.org/2000/svg">
<path fill-rule="evenodd" clip-rule="evenodd" d="M3 7C3 5.34315 4.34315 4 6 4H18C19.6569 4 21 5.34315 21 7V8C21 9.38347 20.0635 10.5482 18.7899 10.8949C18.9255 11.2369 19 11.6098 19 12V13C19 13.3902 18.9255 13.7631 18.7899 14.1051C20.0635 14.4518 21 15.6165 21 17V18C21 19.6569 19.6569 21 18 21H6C4.34315 21 3 19.6569 3 18V17C3 15.6165 3.93647 14.4518 5.21009 14.1051C5.07452 13.7631 5 13.3902 5 13V12C5 11.6098 5.07451 11.2369 5.21009 10.8949C3.93647 10.5482 3 9.38347 3 8V7ZM8 9H16H18C18.5523 9 19 8.55228 19 8V7C19 6.44772 18.5523 6 18 6H6C5.44772 6 5 6.44772 5 7V8C5 8.55228 5.44772 9 6 9H8ZM8 11C7.44772 11 7 11.4477 7 12V13C7 13.5523 7.44772 14 8 14H16C16.5523 14 17 13.5523 17 13V12C17 11.4477 16.5523 11 16 11H8ZM8 16H6C5.44772 16 5 16.4477 5 17V18C5 18.5523 5.44772 19 6 19H18C18.5523 19 19 18.5523 19 18V17C19 16.4477 18.5523 16 18 16H16H8Z" fill="black" fill-opacity="0.4"/>
<path fill-rule="evenodd" clip-rule="evenodd" d="M8 6H10V9H8V6ZM14 6H16V9H14V6ZM13 11H11V14H13V11ZM8 16H10V19H8V16ZM16 16H14V19H16V16Z" fill="black"/>
</svg>
