<svg width="24" height="24" viewBox="0 0 24 24" fill="none" xmlns="http://www.w3.org/2000/svg">
<path fill-rule="evenodd" clip-rule="evenodd" d="M8.34276 12.9997C8.24572 11.865 8.63137 10.6968 9.4997 9.82843L15.1566 4.17157C16.7186 2.60948 19.2513 2.60948 20.8134 4.17157C22.3755 5.73367 22.3755 8.26633 20.8134 9.82843L15.1566 15.4853C14.2883 16.3536 13.1202 16.7392 11.9855 16.6422C11.8211 14.7066 10.2784 13.164 8.34276 12.9997ZM10.9139 14.0711C10.1448 13.3019 10.133 12.0622 10.8788 11.2787L13.7063 14.1062C12.9228 14.8519 11.6831 14.8402 10.9139 14.0711ZM19.3992 8.41421L15.121 12.6925L12.2925 9.86402L16.5708 5.58579C17.3518 4.80474 18.6181 4.80474 19.3992 5.58579C20.1802 6.36683 20.1802 7.63316 19.3992 8.41421Z" fill="black" fill-opacity="0.4"/>
<path fill-rule="evenodd" clip-rule="evenodd" d="M2.5528 19.8944C2.26529 19.7507 2.06441 19.4775 2.01292 19.1602C1.96144 18.8429 2.06561 18.5202 2.29291 18.2929C2.70568 17.8801 3.03035 17.4009 3.33936 16.8711C3.44482 16.6903 3.56388 16.4742 3.68823 16.2484C3.88219 15.8963 4.089 15.5208 4.27701 15.22C4.61978 14.6716 5.05018 14.1019 5.66665 13.6768C6.30326 13.2378 7.06828 13 8.00001 13C10.2092 13 12 14.7909 12 17C12 19.2091 10.2092 21 8.00001 21C6.3898 21 5.04632 20.7318 4.10029 20.4615C3.6267 20.3262 3.25063 20.1898 2.988 20.0847C2.84199 20.0263 2.69626 19.9655 2.55527 19.8957L2.55394 19.895C2.55394 19.895 2.68471 19.9569 2.5528 19.8944ZM4.65513 18.54C4.80528 18.3165 4.94121 18.0944 5.06692 17.8789C5.23704 17.5872 5.37169 17.3406 5.49614 17.1126C5.65426 16.8229 5.79593 16.5633 5.97301 16.28C6.25524 15.8284 6.51234 15.5231 6.80212 15.3232C7.07177 15.1372 7.43174 15 8.00001 15C9.10458 15 10 15.8954 10 17C10 18.1046 9.10458 19 8.00001 19C6.61333 19 5.45888 18.7692 4.65513 18.54Z" fill="black"/>
</svg>
