<svg width="24" height="24" viewBox="0 0 24 24" fill="none" xmlns="http://www.w3.org/2000/svg">
<path fill-rule="evenodd" clip-rule="evenodd" d="M15.9228 8.00645C13.7296 8.00025 10.9335 7.9937 8.07812 8.00069C8.02705 8.31996 8 8.65331 8 8.99882C8 9.55046 7.55228 9.99764 7 9.99764C6.44772 9.99764 6 9.55046 6 8.99882C6 8.66475 6.02076 8.33376 6.0611 8.00805C5.70467 8.00981 5.3493 8.01184 4.99607 8.01415C4.34707 8.01415 3.87207 8.63342 4.02707 9.26268C4.18208 9.89149 4.7219 12.0899 5.26169 14.2882C5.80141 16.4862 6.3411 18.6841 6.49609 19.3129C6.91009 20.8341 8.44309 21.9977 9.9961 21.9977H13.9961C15.5481 21.9977 17.0871 20.841 17.4961 19.3448L19.9641 9.26268C20.1201 8.63342 19.6451 8.01415 18.9961 8.01415C18.6904 8.01386 18.3359 8.01313 17.9394 8.01213C17.9794 8.33653 18 8.66615 18 8.99882C18 9.55046 17.5523 9.99764 17 9.99764C16.4477 9.99764 16 9.55046 16 8.99882C16 8.65538 15.9733 8.32396 15.9228 8.00645Z" fill="black" fill-opacity="0.4"/>
<path fill-rule="evenodd" clip-rule="evenodd" d="M12 4C9.95383 4 8 6.06012 8 9C8 9.55228 7.55228 10 7 10C6.44772 10 6 9.55228 6 9C6 5.31247 8.52332 2 12 2C15.4767 2 18 5.31247 18 9C18 9.55228 17.5523 10 17 10C16.4477 10 16 9.55228 16 9C16 6.06012 14.0462 4 12 4Z" fill="black"/>
</svg>
