<svg width="24" height="24" viewBox="0 0 24 24" fill="none" xmlns="http://www.w3.org/2000/svg">
<path fill-rule="evenodd" clip-rule="evenodd" d="M7.55301 2.10555C8.04698 1.85856 8.64766 2.05878 8.89465 2.55276L9.41113 3.58572C8.79518 3.88077 8.23742 4.27783 7.75971 4.75501L7.10579 3.44719C6.8588 2.95321 7.05903 2.35254 7.55301 2.10555ZM14.5892 3.58589C15.2052 3.88098 15.7629 4.27808 16.2406 4.75531L16.8946 3.44719C17.1416 2.95321 16.9414 2.35254 16.4474 2.10555C15.9535 1.85856 15.3528 2.05878 15.1058 2.55276L14.5892 3.58589ZM3 13C3 12.4477 3.44772 12 4 12H6V14H4C3.44772 14 3 13.5523 3 13ZM21 13C21 12.4477 20.5523 12 20 12H18V14H20C20.5523 14 21 13.5523 21 13ZM6.08296 8.00001C6.0284 8.32521 6 8.65929 6 9V10C4.34315 10 3 8.65687 3 7.00001C3 6.44772 3.44772 6 4 6C4.55228 6 5 6.44772 5 7C5 7.55229 5.44773 8.00002 6.00002 8.00001L6.08296 8.00001ZM20.9999 7.00001C20.9999 8.65687 19.6568 10 17.9999 10V9C17.9999 8.65929 17.9716 8.32521 17.917 8.00001L17.9999 8.00001C18.5522 8.00002 18.9999 7.55229 18.9999 7C18.9999 6.44772 19.4477 6 19.9999 6C20.5522 6 20.9999 6.44772 20.9999 7.00001ZM17.2202 17.9603C17.309 17.9862 17.403 18 17.5002 18L17.9102 18H18.0001C18.5524 18 19.0001 18.4477 19.0001 19C19.0001 19.5523 19.4479 20 20.0001 20C20.5524 20 21.0001 19.5523 21.0001 19C21.0001 17.3431 19.657 16 18.0001 16L17.9172 16C17.7994 16.7023 17.5595 17.3633 17.2202 17.9603ZM6.00005 16L6.08296 16C6.20078 16.7023 6.44062 17.3633 6.77993 17.9603C6.69109 17.9862 6.59716 18 6.49998 18L6.08993 18H6.00002C5.44773 18 5 18.4477 5 19C5 19.5523 4.55228 20 4 20C3.44772 20 3 19.5523 3 19C3 17.3431 4.34318 16 6.00005 16Z" fill="black" fill-opacity="0.4"/>
<path fill-rule="evenodd" clip-rule="evenodd" d="M6 9C6 5.68629 8.68629 3 12 3C15.3137 3 18 5.68629 18 9V15C18 18.3137 15.3137 21 12 21C8.68629 21 6 18.3137 6 15V9ZM12 5C10.1362 5 8.57006 6.27477 8.12602 8H15.874C15.4299 6.27477 13.8638 5 12 5ZM8 15V10H16V15C16 17.2091 14.2091 19 12 19C9.79086 19 8 17.2091 8 15ZM13 13C13 12.4477 12.5523 12 12 12C11.4477 12 11 12.4477 11 13V16C11 16.5523 11.4477 17 12 17C12.5523 17 13 16.5523 13 16V13Z" fill="black"/>
</svg>
