<svg width="24" height="24" viewBox="0 0 24 24" fill="none" xmlns="http://www.w3.org/2000/svg">
<path fill-rule="evenodd" clip-rule="evenodd" d="M6.99855 7.00822C6.99882 6.33881 6.99898 5.66941 6.99898 5C8 5.00939 19.999 5 20.999 5V19.9912C20.999 20.5429 20.551 20.9906 19.999 20.9906H15.999L15.9996 18.0022C15.9998 16.8981 15.1043 16.0029 13.9996 16.0029C12.8952 16.0029 11.9998 16.8976 11.9996 18.0014L11.999 20.9906L7 20.9999L4 21C3.44772 21 3 20.5525 3 20.0006L3 9.00705C2.44772 9.00705 2 8.55959 2 8.00763C2 7.45567 2.44772 7.00822 3 7.00822H6.99855ZM6.99753 9.00705H5L5 19.0012H6.99665C6.99262 15.6698 6.99553 12.3384 6.99753 9.00705ZM12 10.0063C12.5523 10.0063 13 9.55888 13 9.00692C13 8.45496 12.5523 8.00751 12 8.00751C11.4477 8.00751 11 8.45496 11 9.00692C11 9.55888 11.4477 10.0063 12 10.0063ZM17 9.00692C17 9.55888 16.5523 10.0063 16 10.0063C15.4477 10.0063 15 9.55888 15 9.00692C15 8.45496 15.4477 8.00751 16 8.00751C16.5523 8.00751 17 8.45496 17 9.00692ZM12 14.004C12.5523 14.004 13 13.5565 13 13.0046C13 12.4526 12.5523 12.0052 12 12.0052C11.4477 12.0052 11 12.4526 11 13.0046C11 13.5565 11.4477 14.004 12 14.004ZM17 13.0046C17 13.5565 16.5523 14.004 16 14.004C15.4477 14.004 15 13.5565 15 13.0046C15 12.4526 15.4477 12.0052 16 12.0052C16.5523 12.0052 17 12.4526 17 13.0046Z" fill="black" fill-opacity="0.4"/>
<path fill-rule="evenodd" clip-rule="evenodd" d="M7 3C6.44772 3 6 3.44772 6 4C6 4.55228 6.44772 5 7 5L21 5C21.5523 5 22 4.55228 22 4C22 3.44772 21.5523 3 21 3L7 3ZM12 10C12.5523 10 13 9.55229 13 9C13 8.44771 12.5523 8 12 8C11.4477 8 11 8.44771 11 9C11 9.55229 11.4477 10 12 10ZM14 16C12.8954 16 12 16.8954 12 18V21H16V18C16 16.8954 15.1046 16 14 16ZM13 13C13 13.5523 12.5523 14 12 14C11.4477 14 11 13.5523 11 13C11 12.4477 11.4477 12 12 12C12.5523 12 13 12.4477 13 13ZM16 14C16.5523 14 17 13.5523 17 13C17 12.4477 16.5523 12 16 12C15.4477 12 15 12.4477 15 13C15 13.5523 15.4477 14 16 14ZM17 9C17 9.55229 16.5523 10 16 10C15.4477 10 15 9.55229 15 9C15 8.44771 15.4477 8 16 8C16.5523 8 17 8.44771 17 9Z" fill="black"/>
</svg>
