<svg width="24" height="24" viewBox="0 0 24 24" fill="none" xmlns="http://www.w3.org/2000/svg">
<path d="M17.999 2C17.447 2 16.999 2.448 16.999 3V5.56299L12.501 10.06C12.501 10.06 12.156 10 11.999 10C10.894 10 9.99902 10.895 9.99902 12C9.99902 13.105 10.894 14 11.999 14C13.104 14 13.999 13.105 13.999 12C13.999 11.843 13.935 11.501 13.935 11.501L18.437 7H20.999C21.551 7 21.999 6.552 21.999 6C21.999 5.448 21.551 5 20.999 5H18.999V3C18.999 2.448 18.551 2 17.999 2Z" fill="black"/>
<path d="M12 2C6.477 2 2 6.477 2 12C2 17.523 6.477 22 12 22C17.523 22 22 17.523 22 12C22 11.246 21.914 10.505 21.75 9.78101C21.628 9.24301 21.101 8.90901 20.562 9.03101C20.024 9.15301 19.69 9.67999 19.812 10.219C19.944 10.797 20 11.395 20 12C20 16.418 16.418 20 12 20C7.582 20 4 16.418 4 12C4 7.582 7.582 4 12 4C12.604 4 13.203 4.05599 13.781 4.18799C14.32 4.30999 14.847 3.97599 14.969 3.43799C15.091 2.89899 14.757 2.372 14.219 2.25C13.496 2.086 12.753 2 12 2ZM12 6C8.686 6 6 8.686 6 12C6 15.314 8.686 18 12 18C15.314 18 18 15.314 18 12C18 11.448 17.552 11 17 11C16.448 11 16 11.448 16 12C16 14.209 14.209 16 12 16C9.79099 16 8 14.209 8 12C8 9.791 9.79099 8 12 8C12.552 8 13 7.552 13 7C13 6.448 12.552 6 12 6Z" fill="black" fill-opacity="0.4"/>
</svg>
