<svg width="24" height="24" viewBox="0 0 24 24" fill="none" xmlns="http://www.w3.org/2000/svg">
<path d="M8.99756 6.01416C8.44556 6.01416 7.99756 6.46216 7.99756 7.01416V8.01416C7.99756 8.56616 8.44556 9.01416 8.99756 9.01416H14.9976C15.5496 9.01416 15.9976 8.56616 15.9976 8.01416V7.01416C15.9976 6.46216 15.5496 6.01416 14.9976 6.01416H8.99756ZM8.99756 10.0142C8.44556 10.0142 7.99756 10.4622 7.99756 11.0142C7.99756 11.5662 8.44556 12.0142 8.99756 12.0142C9.54956 12.0142 9.99756 11.5662 9.99756 11.0142C9.99756 10.4622 9.54956 10.0142 8.99756 10.0142ZM11.9976 10.0142C11.4456 10.0142 10.9976 10.4622 10.9976 11.0142C10.9976 11.5662 11.4456 12.0142 11.9976 12.0142C12.5496 12.0142 12.9976 11.5662 12.9976 11.0142C12.9976 10.4622 12.5496 10.0142 11.9976 10.0142ZM14.9976 10.0142C14.4456 10.0142 13.9976 10.4622 13.9976 11.0142C13.9976 11.5662 14.4456 12.0142 14.9976 12.0142C15.5496 12.0142 15.9976 11.5662 15.9976 11.0142C15.9976 10.4622 15.5496 10.0142 14.9976 10.0142ZM8.99756 13.0142C8.44556 13.0142 7.99756 13.4622 7.99756 14.0142C7.99756 14.5662 8.44556 15.0142 8.99756 15.0142C9.54956 15.0142 9.99756 14.5662 9.99756 14.0142C9.99756 13.4622 9.54956 13.0142 8.99756 13.0142ZM11.9976 13.0142C11.4456 13.0142 10.9976 13.4622 10.9976 14.0142C10.9976 14.5662 11.4456 15.0142 11.9976 15.0142C12.5496 15.0142 12.9976 14.5662 12.9976 14.0142C12.9976 13.4622 12.5496 13.0142 11.9976 13.0142ZM14.9976 13.0142C14.4456 13.0142 13.9976 13.4622 13.9976 14.0142V17.0142C13.9976 17.5662 14.4456 18.0142 14.9976 18.0142C15.5496 18.0142 15.9976 17.5662 15.9976 17.0142V14.0142C15.9976 13.4622 15.5496 13.0142 14.9976 13.0142ZM8.99756 16.0142C8.44556 16.0142 7.99756 16.4622 7.99756 17.0142C7.99756 17.5662 8.44556 18.0142 8.99756 18.0142C9.54956 18.0142 9.99756 17.5662 9.99756 17.0142C9.99756 16.4622 9.54956 16.0142 8.99756 16.0142ZM11.9976 16.0142C11.4456 16.0142 10.9976 16.4622 10.9976 17.0142C10.9976 17.5662 11.4456 18.0142 11.9976 18.0142C12.5496 18.0142 12.9976 17.5662 12.9976 17.0142C12.9976 16.4622 12.5496 16.0142 11.9976 16.0142Z" fill="black"/>
<path d="M8 2C5.791 2 4 3.791 4 6V18C4 20.209 5.791 22 8 22H16C18.209 22 20 20.209 20 18V6C20 3.791 18.209 2 16 2H8ZM8 4H16C17.105 4 18 4.895 18 6V18C18 19.105 17.105 20 16 20H8C6.895 20 6 19.105 6 18V6C6 4.895 6.895 4 8 4Z" fill="black" fill-opacity="0.4"/>
</svg>
