<svg width="24" height="24" viewBox="0 0 24 24" fill="none" xmlns="http://www.w3.org/2000/svg">
<path d="M7.99756 2.01416C5.78856 2.01416 3.99756 3.80516 3.99756 6.01416V18.0142C3.99756 20.2232 5.78856 22.0142 7.99756 22.0142H15.9976C18.2066 22.0142 19.9976 20.2232 19.9976 18.0142V6.01416C19.9976 3.80516 18.2066 2.01416 15.9976 2.01416H7.99756ZM7.99756 5.01416H15.9976C16.5496 5.01416 16.9976 5.46216 16.9976 6.01416V8.01416C16.9976 8.56616 16.5496 9.01416 15.9976 9.01416H7.99756C7.44556 9.01416 6.99756 8.56616 6.99756 8.01416V6.01416C6.99756 5.46216 7.44556 5.01416 7.99756 5.01416ZM7.99756 11.0142C8.54956 11.0142 8.99756 11.4622 8.99756 12.0142C8.99756 12.5662 8.54956 13.0142 7.99756 13.0142C7.44556 13.0142 6.99756 12.5662 6.99756 12.0142C6.99756 11.4622 7.44556 11.0142 7.99756 11.0142ZM11.9976 11.0142C12.5496 11.0142 12.9976 11.4622 12.9976 12.0142C12.9976 12.5662 12.5496 13.0142 11.9976 13.0142C11.4456 13.0142 10.9976 12.5662 10.9976 12.0142C10.9976 11.4622 11.4456 11.0142 11.9976 11.0142ZM15.9976 11.0142C16.5496 11.0142 16.9976 11.4622 16.9976 12.0142C16.9976 12.5662 16.5496 13.0142 15.9976 13.0142C15.4456 13.0142 14.9976 12.5662 14.9976 12.0142C14.9976 11.4622 15.4456 11.0142 15.9976 11.0142ZM7.99756 14.0142C8.54956 14.0142 8.99756 14.4622 8.99756 15.0142C8.99756 15.5662 8.54956 16.0142 7.99756 16.0142C7.44556 16.0142 6.99756 15.5662 6.99756 15.0142C6.99756 14.4622 7.44556 14.0142 7.99756 14.0142ZM11.9976 14.0142C12.5496 14.0142 12.9976 14.4622 12.9976 15.0142C12.9976 15.5662 12.5496 16.0142 11.9976 16.0142C11.4456 16.0142 10.9976 15.5662 10.9976 15.0142C10.9976 14.4622 11.4456 14.0142 11.9976 14.0142ZM15.9976 14.0142C16.5496 14.0142 16.9976 14.4622 16.9976 15.0142V18.0142C16.9976 18.5662 16.5496 19.0142 15.9976 19.0142C15.4456 19.0142 14.9976 18.5662 14.9976 18.0142V15.0142C14.9976 14.4622 15.4456 14.0142 15.9976 14.0142ZM7.99756 17.0142C8.54956 17.0142 8.99756 17.4622 8.99756 18.0142C8.99756 18.5662 8.54956 19.0142 7.99756 19.0142C7.44556 19.0142 6.99756 18.5662 6.99756 18.0142C6.99756 17.4622 7.44556 17.0142 7.99756 17.0142ZM11.9976 17.0142C12.5496 17.0142 12.9976 17.4622 12.9976 18.0142C12.9976 18.5662 12.5496 19.0142 11.9976 19.0142C11.4456 19.0142 10.9976 18.5662 10.9976 18.0142C10.9976 17.4622 11.4456 17.0142 11.9976 17.0142Z" fill="black" fill-opacity="0.4"/>
<path d="M7 6C7 5.44772 7.44772 5 8 5H16C16.5523 5 17 5.44772 17 6V8C17 8.55228 16.5523 9 16 9H8C7.44772 9 7 8.55228 7 8V6Z" fill="black"/>
</svg>
