<svg width="24" height="24" viewBox="0 0 24 24" fill="none" xmlns="http://www.w3.org/2000/svg">
<path d="M7.02407 3C4.81688 3 3 4.793 3 7V9L3.03095 17C3.03095 19.206 4.81887 21 7.02407 21H17.0069C19.2121 21 21 19.209 21 17L20.969 9V7C20.969 4.789 19.2101 3 17.0069 3C15.9718 3 8.00405 3.00002 7.02407 3ZM7.02407 5C7.98555 5 15.9718 4.98582 17.0069 5C18.102 5 18.9725 5.888 18.9725 7V8C17.0518 8 6.91725 8 4.99656 8V7C4.99656 5.903 5.91399 5 7.02407 5ZM4.99656 10C6.91725 10 17.0518 10 18.9725 10L19.0034 17C19.0034 18.101 18.11 19 17.0069 19H7.02407C5.92197 19 5.02751 18.105 5.02751 17L4.99656 10Z" fill="black" fill-opacity="0.4"/>
<path fill-rule="evenodd" clip-rule="evenodd" d="M9 3C9 2.44771 8.55229 2 8 2C7.44771 2 7 2.44771 7 3V5C7 5.55229 7.44771 6 8 6C8.55229 6 9 5.55229 9 5V3ZM17 3C17 2.44771 16.5523 2 16 2C15.4477 2 15 2.44771 15 3V5C15 5.55229 15.4477 6 16 6C16.5523 6 17 5.55229 17 5V3ZM9 16C9 16.5523 8.55229 17 8 17C7.44771 17 7 16.5523 7 16C7 15.4477 7.44771 15 8 15C8.55229 15 9 15.4477 9 16ZM13 14C13.5523 14 14 13.5523 14 13C14 12.4477 13.5523 12 13 12C12.4477 12 12 12.4477 12 13C12 13.5523 12.4477 14 13 14ZM12 16C12 16.5523 11.5523 17 11 17C10.4477 17 10 16.5523 10 16C10 15.4477 10.4477 15 11 15C11.5523 15 12 15.4477 12 16ZM16 14C16.5523 14 17 13.5523 17 13C17 12.4477 16.5523 12 16 12C15.4477 12 15 12.4477 15 13C15 13.5523 15.4477 14 16 14Z" fill="black"/>
</svg>
