<svg width="24" height="24" viewBox="0 0 24 24" fill="none" xmlns="http://www.w3.org/2000/svg">
<path fill-rule="evenodd" clip-rule="evenodd" d="M7 3C4.7909 3 3 4.791 3 7V17C3 19.209 4.7909 21 7 21H17C19.209 21 21 19.209 21 17V7C21 4.791 19.209 3 17 3H7Z" fill="black" fill-opacity="0.4"/>
<path fill-rule="evenodd" clip-rule="evenodd" d="M8.99858 3C8.99858 2.44772 8.55118 2 7.99929 2C7.4474 2 7 2.44772 7 3V5C7 5.55228 7.4474 6 7.99929 6C8.55118 6 8.99858 5.55228 8.99858 5V3ZM16.9929 3C16.9929 2.44772 16.5455 2 15.9936 2C15.4417 2 14.9943 2.44772 14.9943 3V5C14.9943 5.55228 15.4417 6 15.9936 6C16.5455 6 16.9929 5.55228 16.9929 5V3ZM7 13.719L8.37402 10H9.4043L10.7473 13.719H9.77903L9.56019 13.062H8.21813L7.99929 13.719H7ZM9.31037 12.344L8.87367 11.094L8.46795 12.344H9.31037ZM14.9323 11.219C15.0822 11.148 15.2222 11.125 15.4 11.125C15.6888 11.125 15.9526 11.245 16.1495 11.469V11.188H16.9929V13.562C16.9929 13.6114 16.9948 13.6583 16.9967 13.7032C17.0001 13.7876 17.0033 13.8649 16.9929 13.938C16.982 14.0134 16.9559 14.0764 16.9312 14.136C16.9196 14.1641 16.9082 14.1915 16.899 14.219L16.8952 14.2297C16.8585 14.3343 16.8213 14.4401 16.7431 14.531C16.6621 14.625 16.5452 14.712 16.4313 14.781C16.3164 14.85 16.2005 14.898 16.0556 14.938C15.9117 14.977 15.7558 15 15.5879 15C15.397 15 15.2152 14.987 15.0563 14.938C14.8984 14.888 14.7695 14.806 14.6506 14.719C14.5317 14.631 14.4147 14.523 14.3388 14.406C14.2628 14.289 14.2388 14.17 14.2139 14.031H15.1822C15.2421 14.199 15.375 14.281 15.5879 14.281C15.7688 14.281 15.8967 14.23 15.9936 14.125C16.0905 14.02 16.1495 13.875 16.1495 13.688V13.438C16.0865 13.5 16.0206 13.553 15.9626 13.594C15.914 13.6278 15.8593 13.6514 15.8074 13.6738C15.7964 13.6785 15.7855 13.6832 15.7748 13.688C15.7148 13.714 15.6538 13.738 15.5879 13.75C15.5729 13.7527 15.5577 13.7557 15.5421 13.7588C15.488 13.7695 15.4303 13.781 15.369 13.781C15.1942 13.781 15.0463 13.75 14.9004 13.688C14.7545 13.625 14.6326 13.518 14.5257 13.406C14.4197 13.294 14.3348 13.188 14.2758 13.031C14.2179 12.875 14.1829 12.691 14.1829 12.5C14.1829 12.306 14.2129 12.135 14.2758 11.969C14.3398 11.802 14.4167 11.655 14.5257 11.531C14.6356 11.408 14.7815 11.29 14.9323 11.219ZM11.0911 12.781V11.188H11.9655V12.625C11.9655 12.938 12.1104 13.094 12.4022 13.094C12.694 13.094 12.8398 12.938 12.8398 12.625V11.188H13.6832V12.781C13.6832 13.124 13.5873 13.391 13.3705 13.562C13.1536 13.734 12.8339 13.812 12.4022 13.812C11.9715 13.812 11.6207 13.734 11.4029 13.562C11.186 13.391 11.0911 13.124 11.0911 12.781ZM15.8377 11.906C15.7688 11.877 15.6918 11.875 15.6189 11.875C15.5429 11.875 15.467 11.875 15.4 11.906C15.3391 11.9356 15.3012 11.9737 15.2556 12.0195C15.2518 12.0233 15.248 12.0271 15.2441 12.031C15.1932 12.082 15.1492 12.15 15.1192 12.219C15.118 12.2219 15.1167 12.2248 15.1154 12.2277C15.0866 12.2939 15.0572 12.3614 15.0563 12.438C15.0563 12.52 15.0902 12.617 15.1192 12.688C15.1482 12.758 15.1952 12.822 15.2441 12.875C15.2858 12.9201 15.3202 12.9348 15.3714 12.9566C15.3804 12.9604 15.3899 12.9645 15.4 12.969C15.4055 12.9713 15.4111 12.9737 15.4166 12.976C15.4804 13.0031 15.5462 13.031 15.6189 13.031C15.6908 13.031 15.7609 13.0014 15.8266 12.9737C15.8304 12.9721 15.834 12.9705 15.8377 12.969C15.8571 12.9605 15.8766 12.9534 15.8957 12.9466C15.9438 12.9293 15.9896 12.9129 16.0246 12.875C16.0736 12.822 16.1195 12.758 16.1495 12.688C16.1795 12.617 16.1815 12.517 16.1815 12.438C16.1815 12.355 16.1795 12.288 16.1495 12.219C16.1195 12.15 16.0756 12.084 16.0246 12.031C15.9736 11.979 15.9057 11.936 15.8377 11.906Z" fill="black"/>
</svg>
