<svg width="24" height="24" viewBox="0 0 24 24" fill="none" xmlns="http://www.w3.org/2000/svg">
<path d="M7 3.00003C4.7909 3.00003 2.9999 4.79103 3 7.00003L3 8.00003H21V7.00003C21 4.79103 19.2091 3.00003 17 3.00003C16.1646 3.00004 10.4434 3.00004 8 3.00003C7.51869 3.00003 7.16456 3.00003 7 3.00003Z" fill="black" fill-opacity="0.4"/>
<path fill-rule="evenodd" clip-rule="evenodd" d="M8 2C8.55228 2 9 2.44772 9 3V5C9 5.55228 8.55228 6 8 6C7.44772 6 7 5.55228 7 5V3C7 2.44772 7.44772 2 8 2ZM16 2C16.5523 2 17 2.44772 17 3V5C17 5.55228 16.5523 6 16 6C15.4477 6 15 5.55228 15 5V3C15 2.44772 15.4477 2 16 2ZM3 17V10H21V17C21 19.209 19.209 21 17 21H7C4.791 21 3 19.209 3 17ZM13 13C13 12.448 12.552 12 12 12C11.448 12 11 12.448 11 13V14H10C9.448 14 9 14.448 9 15C9 15.552 9.448 16 10 16H11V17C11 17.552 11.448 18 12 18C12.552 18 13 17.552 13 17V16H14C14.552 16 15 15.552 15 15C15 14.448 14.552 14 14 14H13V13Z" fill="black"/>
</svg>
