<svg width="24" height="24" viewBox="0 0 24 24" fill="none" xmlns="http://www.w3.org/2000/svg">
<path d="M7 3.00003C4.7909 3.00003 2.9999 4.79103 3 7.00003L3 8.00003H21V7.00003C21 4.79103 19.2091 3.00003 17 3.00003C16.1646 3.00004 10.4434 3.00004 8 3.00003C7.51869 3.00003 7.16456 3.00003 7 3.00003Z" fill="black" fill-opacity="0.4"/>
<path fill-rule="evenodd" clip-rule="evenodd" d="M8 2C8.55228 2 9 2.44772 9 3V5C9 5.55228 8.55228 6 8 6C7.44772 6 7 5.55228 7 5V3C7 2.44772 7.44772 2 8 2ZM3 10V17C3 19.209 4.791 21 7 21H17C19.209 21 21 19.209 21 17V10H3ZM17 3C17 2.44772 16.5523 2 16 2C15.4477 2 15 2.44772 15 3V5C15 5.55228 15.4477 6 16 6C16.5523 6 17 5.55228 17 5V3Z" fill="black"/>
</svg>
