<svg width="24" height="24" viewBox="0 0 24 24" fill="none" xmlns="http://www.w3.org/2000/svg">
<path d="M3.99775 3C3.74191 3 3.47509 3.11701 3.27921 3.31201C2.88946 3.70301 2.92045 4.35999 3.3102 4.74999L4.09168 5.49999C2.85647 6.18099 1.99902 7.48998 1.99902 8.99997V14.9999C1.99902 17.2089 3.78888 18.9999 5.99647 18.9999H12.992C14.2242 18.9999 15.3415 18.4389 16.084 17.5309L18.2387 19.6879C18.6294 20.0779 19.316 20.1099 19.7067 19.7189C20.0965 19.3279 20.0965 18.6719 19.7067 18.2809L16.5517 15.1249C16.19 14.7719 6.79196 5.359 6.71501 5.281L4.71628 3.281C4.52041 3.08601 4.25358 3 3.99775 3Z" fill="black"/>
<path d="M11.6203 5C11.1832 5.003 10.775 5.338 10.683 5.75C10.607 6.087 10.662 6.43399 10.9951 6.74999C11.6363 7.35799 20.3424 16.1249 20.3424 16.1249C20.8685 16.6509 21.9899 16.2889 21.9989 15.4379V6.99999C21.9989 6.55499 21.7218 6.20701 21.3737 6.06201C21.0256 5.91801 20.5945 5.966 20.2793 6.281C19.8672 6.693 18.2076 8.37498 16.9972 9.59397V8.99998C16.9972 6.79099 15.2056 5 12.9958 5H11.6203Z" fill="black" fill-opacity="0.4"/>
</svg>
