<svg width="24" height="24" viewBox="0 0 24 24" fill="none" xmlns="http://www.w3.org/2000/svg">
<path fill-rule="evenodd" clip-rule="evenodd" d="M10.683 5.7505C10.775 5.33822 11.1832 5.003 11.6203 5H12.9958C15.2056 5 16.9972 6.79219 16.9972 9.00265V9.59704C17.5983 8.99124 18.3102 8.27118 18.9251 7.64927C19.5483 7.01891 20.0719 6.48938 20.2793 6.28185C20.5945 5.96665 21.0256 5.91862 21.3737 6.06272C21.7218 6.20781 21.9989 6.55603 21.9989 7.00132V15.4449C21.9899 16.2965 20.8685 16.6587 20.3424 16.1324C20.3424 16.1324 11.6363 7.35956 10.9951 6.75116C10.662 6.43495 10.607 6.08772 10.683 5.7505ZM1.99902 8.99338C1.99902 7.48238 2.85732 6.17251 4.09375 5.49106L16.0979 17.53C15.3547 18.4386 14.2363 19 13.0029 19H6.00042C3.79065 19 1.99902 17.2078 1.99902 14.9973V8.99338Z" fill="black" fill-opacity="0.4"/>
<path d="M3.99599 3C3.74011 3 3.47324 3.11701 3.27733 3.31201C2.88751 3.70301 2.9185 4.35999 3.30832 4.74999L18.2393 19.6879C18.6301 20.0779 19.3168 20.1099 19.7076 19.7189C20.0975 19.3279 20.0975 18.6719 19.7076 18.2809L16.5521 15.1249C16.1903 14.7719 6.79068 5.359 6.71371 5.281L4.71465 3.281C4.51874 3.08601 4.25187 3 3.99599 3Z" fill="black"/>
</svg>
