<svg width="24" height="24" viewBox="0 0 24 24" fill="none" xmlns="http://www.w3.org/2000/svg">
<path d="M5.99902 4C3.78992 4 1.99902 5.791 1.99902 8V16C1.99902 18.209 3.78992 20 5.99902 20H17.999C20.208 20 21.999 18.209 21.999 16V8C21.999 5.791 20.208 4 17.999 4H5.99902ZM5.99902 6H17.999C19.104 6 19.999 6.895 19.999 8V16C19.999 17.105 19.104 18 17.999 18H5.99902C4.89442 18 3.99902 17.105 3.99902 16V8C3.99902 6.895 4.89442 6 5.99902 6Z" fill="black" fill-opacity="0.4"/>
<path d="M9 8C8.7441 8 8.5078 8.08601 8.3125 8.28101L7.5938 9H7C6.4477 9 6 9.448 6 10C6 10.552 6.4477 11 7 11H8C8.2652 11 8.5312 10.906 8.7188 10.719L9.7188 9.71899C10.109 9.32799 10.109 8.67201 9.7188 8.28101C9.5235 8.08601 9.2559 8 9 8ZM13 9C12.448 9 12 9.448 12 10C12 10.552 12.448 11 13 11H17C17.552 11 18 10.552 18 10C18 9.448 17.552 9 17 9H13ZM9 12C8.7441 12 8.5078 12.086 8.3125 12.281L7.5938 13H7C6.4477 13 6 13.448 6 14C6 14.552 6.4477 15 7 15H8C8.2652 15 8.5312 14.906 8.7188 14.719L9.7188 13.719C10.109 13.328 10.109 12.672 9.7188 12.281C9.5235 12.086 9.2559 12 9 12ZM13 13C12.448 13 12 13.448 12 14C12 14.552 12.448 15 13 15H17C17.552 15 18 14.552 18 14C18 13.448 17.552 13 17 13H13Z" fill="black"/>
</svg>
