<svg width="24" height="24" viewBox="0 0 24 24" fill="none" xmlns="http://www.w3.org/2000/svg">
<path d="M6 4C3.7909 4 2 5.791 2 8V16C2 18.209 3.7909 20 6 20H18C20.2092 20 22 18.209 22 16V8C22 5.791 20.2092 4 18 4H6ZM13 9H17C17.5523 9 18 9.448 18 10C18 10.552 17.5523 11 17 11H13C12.4478 11 12 10.552 12 10C12 9.448 12.4477 9 13 9ZM13 13H17C17.5523 13 18 13.448 18 14C18 14.552 17.5523 15 17 15H13C12.4478 15 12 14.552 12 14C12 13.448 12.4477 13 13 13Z" fill="black" fill-opacity="0.4"/>
<path fill-rule="evenodd" clip-rule="evenodd" d="M9.70711 8.29289C9.31658 7.90237 8.68342 7.90237 8.29289 8.29289L7.58579 9H7C6.44772 9 6 9.44772 6 10C6 10.5523 6.44772 11 7 11H8C8.26522 11 8.51957 10.8946 8.70711 10.7071L9.70711 9.70711C10.0976 9.31658 10.0976 8.68342 9.70711 8.29289ZM9.70711 12.2929C9.31658 11.9024 8.68342 11.9024 8.29289 12.2929L7.58579 13H7C6.44772 13 6 13.4477 6 14C6 14.5523 6.44772 15 7 15H8C8.26522 15 8.51957 14.8946 8.70711 14.7071L9.70711 13.7071C10.0976 13.3166 10.0976 12.6834 9.70711 12.2929Z" fill="black"/>
</svg>
