<svg width="24" height="24" viewBox="0 0 24 24" fill="none" xmlns="http://www.w3.org/2000/svg">
<path d="M5.99902 4C3.79002 4 1.99902 5.791 1.99902 8V16C1.99902 18.209 3.79002 20 5.99902 20H17.999C20.208 20 21.999 18.209 21.999 16V8C21.999 5.791 20.208 4 17.999 4H5.99902ZM5.99902 6H17.999C19.104 6 19.999 6.895 19.999 8V16C19.999 17.105 19.104 18 17.999 18H5.99902C4.89402 18 3.99902 17.105 3.99902 16V8C3.99902 6.895 4.89402 6 5.99902 6Z" fill="black" fill-opacity="0.4"/>
<path d="M7.5 8C6.672 8 6 8.672 6 9.5C6 10.328 6.672 11 7.5 11H16.5C17.328 11 18 10.328 18 9.5C18 8.672 17.328 8 16.5 8H7.5ZM7 13C6.448 13 6 13.448 6 14C6 14.552 6.448 15 7 15H15C15.552 15 16 14.552 16 14C16 13.448 15.552 13 15 13H7Z" fill="black"/>
</svg>
