<svg width="24" height="24" viewBox="0 0 24 24" fill="none" xmlns="http://www.w3.org/2000/svg">
<path d="M2.00003 1.99893C1.44803 1.99443 1.00403 2.44663 1.00003 2.99893C0.996026 3.55123 1.44803 3.99443 2.00003 3.99893C2.73803 4.00493 3.28903 4.51853 3.78103 5.43643C4.26203 6.33333 4.32902 7.03673 4.34402 7.12393L5.53103 14.7801C5.89503 16.6034 7.62303 17.9989 9.43803 17.9989H16.562C18.377 17.9989 20.113 16.5905 20.469 14.8114C20.469 14.8114 22 5.37063 22 4.99893C22 4.44663 21.552 3.99893 21 3.99893C20.689 3.99893 6.54503 3.99433 5.25003 3.99893C4.47503 2.74203 3.38303 2.01013 2.00003 1.99893ZM13 7.99893C13.552 7.99893 14 8.44663 14 8.99893V9.99893H15C15.552 9.99893 16 10.4466 16 10.9989C16 11.5512 15.552 11.9989 15 11.9989H14V12.9989C14 13.5512 13.552 13.9989 13 13.9989C12.448 13.9989 12 13.5512 12 12.9989V11.9989H11C10.448 11.9989 10 11.5512 10 10.9989C10 10.4466 10.448 9.99893 11 9.99893H12V8.99893C12 8.44663 12.448 7.99893 13 7.99893Z" fill="black"/>
<path fill-rule="evenodd" clip-rule="evenodd" d="M8.5 22C9.32843 22 10 21.3284 10 20.5C10 19.6716 9.32843 19 8.5 19C7.67157 19 7 19.6716 7 20.5C7 21.3284 7.67157 22 8.5 22ZM17.5 22C18.3284 22 19 21.3284 19 20.5C19 19.6716 18.3284 19 17.5 19C16.6716 19 16 19.6716 16 20.5C16 21.3284 16.6716 22 17.5 22Z" fill="black" fill-opacity="0.4"/>
</svg>
