<svg width="24" height="24" viewBox="0 0 24 24" fill="none" xmlns="http://www.w3.org/2000/svg">
<path d="M2.01285 1.99893C1.45347 1.99443 1.00459 2.44663 1.00003 2.99893C0.995476 3.55123 1.45357 3.99443 2.01285 3.99893C2.75991 4.00493 3.35757 4.49883 3.81689 5.43643C4.24632 6.31293 4.37181 7.03423 4.3867 7.12393L5.58932 14.7801C5.95768 16.6034 7.70804 17.9989 9.5457 17.9989H16.762C18.5996 17.9989 20.3579 16.5905 20.7184 14.8114L21.9527 6.68643C22.2403 5.27263 21.183 3.99893 19.6739 3.99893H5.33612C4.57468 2.76003 3.41379 2.01013 2.01285 1.99893ZM6.22233 5.99893H19.6739C19.9047 5.99893 20.0041 6.11923 19.9588 6.34273L18.7244 14.4677C18.5617 15.2647 17.6341 15.9989 16.762 15.9989H9.5457C8.67366 15.9989 7.75432 15.2807 7.58336 14.4364L6.41234 6.81143C6.37699 6.59873 6.29526 6.26163 6.22233 5.99893ZM8.59618 18.9989C7.75716 18.9989 7.07695 19.6705 7.07695 20.4989C7.07695 21.3273 7.75716 21.9989 8.59618 21.9989C9.4352 21.9989 10.1154 21.3273 10.1154 20.4989C10.1154 19.6705 9.4352 18.9989 8.59618 18.9989ZM17.7116 18.9989C16.8725 18.9989 16.1923 19.6705 16.1923 20.4989C16.1923 21.3273 16.8725 21.9989 17.7116 21.9989C18.5506 21.9989 19.2308 21.3273 19.2308 20.4989C19.2308 19.6705 18.5506 18.9989 17.7116 18.9989Z" fill="black" fill-opacity="0.4"/>
<path fill-rule="evenodd" clip-rule="evenodd" d="M10 11C10 10.4477 10.4477 10 11 10H15C15.5523 10 16 10.4477 16 11C16 11.5523 15.5523 12 15 12H11C10.4477 12 10 11.5523 10 11Z" fill="black"/>
</svg>
