<svg width="24" height="24" viewBox="0 0 24 24" fill="none" xmlns="http://www.w3.org/2000/svg">
<path fill-rule="evenodd" clip-rule="evenodd" d="M0.976562 8.99731C0.976562 6.78821 2.76756 4.99731 4.97656 4.99731H18.9766C21.1856 4.99731 22.9766 6.78821 22.9766 8.99731V14.9973C22.9766 17.2063 21.1856 18.9973 18.9766 18.9973H4.97656C2.76756 18.9973 0.976562 17.2063 0.976562 14.9973V8.99731ZM18 6.99731H6C6 8.5 4.36556 9.44441 2.97656 9.80981V14.1853C4.36556 14.5503 5.42356 15.6083 5.78856 16.9973H18C18 15.2156 19.1768 14 20.9766 14V10C19.2279 10 18 8.75445 18 6.99731ZM11 12C11 11.4477 11.4477 11 12 11C12.5523 11 13 11.4477 13 12C13 12.5523 12.5523 13 12 13C11.4477 13 11 12.5523 11 12ZM12 9C10.3431 9 9 10.3431 9 12C9 13.6569 10.3431 15 12 15C13.6569 15 15 13.6569 15 12C15 10.3431 13.6569 9 12 9Z" fill="black"/>
<path fill-rule="evenodd" clip-rule="evenodd" d="M18.0234 7H6.02344C6.02344 8.50269 4.389 9.4471 3 9.8125V14.188C4.389 14.553 5.447 15.611 5.812 17H18.0234C18.0234 15.2183 19.2002 14.0027 21 14.0027V10.0027C19.2513 10.0027 18.0234 8.75713 18.0234 7ZM15 12C15 13.6569 13.6569 15 12 15C10.3431 15 9 13.6569 9 12C9 10.3431 10.3431 9 12 9C13.6569 9 15 10.3431 15 12Z" fill="black" fill-opacity="0.4"/>
</svg>
