<svg width="24" height="24" viewBox="0 0 24 24" fill="none" xmlns="http://www.w3.org/2000/svg">
<path fill-rule="evenodd" clip-rule="evenodd" d="M1 11.9973C1 9.78821 2.791 7.99731 5 7.99731H19C21.209 7.99731 23 9.78821 23 11.9973V15.9973C23 18.2063 21.209 19.9973 19 19.9973H5C2.791 19.9973 1 18.2063 1 15.9973V11.9973ZM18.0234 9.99731H6.02344C6.02344 11.5 4.389 12.4444 3 12.8098V15.1853C4.389 15.5503 5.447 16.6083 5.812 17.9973H18.0234C18.0234 16.2156 19.2002 15 21 15V13C19.2513 13 18.0234 11.7544 18.0234 9.99731ZM11.0234 14C11.0234 13.4477 11.4712 13 12.0234 13C12.5757 13 13.0234 13.4477 13.0234 14C13.0234 14.5523 12.5757 15 12.0234 15C11.4712 15 11.0234 14.5523 11.0234 14ZM12.0234 11C10.3666 11 9.02344 12.3431 9.02344 14C9.02344 15.6569 10.3666 17 12.0234 17C13.6803 17 15.0234 15.6569 15.0234 14C15.0234 12.3431 13.6803 11 12.0234 11Z" fill="black"/>
<path fill-rule="evenodd" clip-rule="evenodd" d="M4 4C3.44772 4 3 4.44772 3 5C3 5.55228 3.44772 6 4 6H20C20.5523 6 21 5.55228 21 5C21 4.44772 20.5523 4 20 4H4ZM18.0234 10H6.02344C6.02344 11.5027 4.389 12.4471 3 12.8125V15.188C4.389 15.553 5.447 16.611 5.812 18H18.0234C18.0234 16.2183 19.2002 15.0027 21 15.0027V13.0027C19.2513 13.0027 18.0234 11.7571 18.0234 10ZM15 14C15 15.6569 13.6569 17 12 17C10.3431 17 9 15.6569 9 14C9 12.3431 10.3431 11 12 11C13.6569 11 15 12.3431 15 14Z" fill="black" fill-opacity="0.4"/>
</svg>
