<svg width="24" height="24" viewBox="0 0 24 24" fill="none" xmlns="http://www.w3.org/2000/svg">
<path d="M5 7.99731C2.791 7.99731 1 9.78821 1 11.9973V15.9973C1 18.2063 2.791 19.9973 5 19.9973H19C21.209 19.9973 23 18.2063 23 15.9973V11.9973C23 9.78821 21.209 7.99731 19 7.99731H5ZM5.812 9.99731H18.188C18.553 11.3865 19.611 12.4444 21 12.8098V15.1853C19.611 15.5503 18.553 16.6083 18.188 17.9973H5.812C5.447 16.6083 4.389 15.5503 3 15.1853V12.8098C4.389 12.4444 5.447 11.3865 5.812 9.99731Z" fill="black"/>
<path fill-rule="evenodd" clip-rule="evenodd" d="M4 4C3.44772 4 3 4.44772 3 5C3 5.55228 3.44772 6 4 6H20C20.5523 6 21 5.55228 21 5C21 4.44772 20.5523 4 20 4H4ZM11 14C11 13.4477 11.4477 13 12 13C12.5523 13 13 13.4477 13 14C13 14.5523 12.5523 15 12 15C11.4477 15 11 14.5523 11 14ZM12 11C10.3431 11 9 12.3431 9 14C9 15.6569 10.3431 17 12 17C13.6569 17 15 15.6569 15 14C15 12.3431 13.6569 11 12 11Z" fill="black" fill-opacity="0.4"/>
</svg>
