<svg width="24" height="24" viewBox="0 0 24 24" fill="none" xmlns="http://www.w3.org/2000/svg">
<path d="M6 3.9978C3.791 3.9978 2 5.78756 2 7.99504V19.9867C2 20.8102 2.93399 21.2928 3.59399 20.7982L7.34399 17.9881H18C20.209 17.9881 22 16.1984 22 13.9909V7.99504C22 5.78756 20.209 3.9978 18 3.9978H6ZM6 5.99642H18C19.105 5.99642 20 6.8908 20 7.99504V13.9909C20 15.0951 19.105 15.9895 18 15.9895H7C6.784 15.9895 6.57901 16.0475 6.40601 16.1774L4 17.9881V7.99504C4 6.8908 4.895 5.99642 6 5.99642Z" fill="black" fill-opacity="0.4"/>
<path fill-rule="evenodd" clip-rule="evenodd" d="M9 11C9 11.5523 8.55228 12 8 12C7.44772 12 7 11.5523 7 11C7 10.4477 7.44772 10 8 10C8.55228 10 9 10.4477 9 11ZM13 11C13 11.5523 12.5523 12 12 12C11.4477 12 11 11.5523 11 11C11 10.4477 11.4477 10 12 10C12.5523 10 13 10.4477 13 11ZM16 12C16.5523 12 17 11.5523 17 11C17 10.4477 16.5523 10 16 10C15.4477 10 15 10.4477 15 11C15 11.5523 15.4477 12 16 12Z" fill="black"/>
</svg>
