<svg width="24" height="24" viewBox="0 0 24 24" fill="none" xmlns="http://www.w3.org/2000/svg">
<path d="M18 3.9978C20.209 3.9978 22 5.7902 22 8.00092V20.0103C22 20.8349 21.066 21.2873 20.406 20.7919L16.688 18.0087H6C3.791 18.0087 2 16.2163 2 14.0056V8.00092C2 5.7902 3.791 3.9978 6 3.9978H18ZM18 5.99936H6C4.895 5.99936 4 6.89506 4 8.00092V14.0056C4 15.1114 4.895 16.0071 6 16.0071H17C17.216 16.0071 17.421 16.0652 17.594 16.1953L20 18.0087V8.00092C20 6.89506 19.105 5.99936 18 5.99936Z" fill="black" fill-opacity="0.4"/>
<path d="M7 8C6.4477 8 6 8.448 6 9C6 9.552 6.4477 10 7 10H17C17.5523 10 18 9.552 18 9C18 8.448 17.5523 8 17 8H7ZM7 12C6.4477 12 6 12.448 6 13C6 13.552 6.4477 14 7 14H14C14.5523 14 15 13.552 15 13C15 12.448 14.5523 12 14 12H7Z" fill="black"/>
</svg>
