<svg width="24" height="24" viewBox="0 0 24 24" fill="none" xmlns="http://www.w3.org/2000/svg">
<path d="M6 3.9978C3.7909 3.9978 2 5.78755 2 7.99501V13.9908C2 16.1983 3.7909 17.988 6 17.988H8.5625L11.281 20.7051C11.671 21.0959 12.296 21.0949 12.688 20.7051L15.438 17.988H18C20.209 17.988 22 16.1983 22 13.9908V7.99501C22 5.78755 20.209 3.9978 18 3.9978H6Z" fill="black" fill-opacity="0.4"/>
<path d="M9.4984 9C8.67828 8.999 8 9.67177 8 10.5017C8 11.3317 8.67828 12.0035 9.4984 12.0035C9.63326 12.0035 9.80707 11.9874 9.99787 11.9094C9.875 12.4169 9.68221 12.7964 9.37354 13.1608C9.19572 13.371 9.22869 13.7004 9.43647 13.8806C9.64325 14.0608 9.92095 14.0348 10.0918 13.8176C10.8729 12.8224 11.1906 11.8453 10.9658 10.4396C10.815 9.49756 10.2226 9.001 9.4984 9ZM14.4311 9C13.611 8.999 12.9637 9.67177 12.9637 10.5017C12.9637 11.3317 13.611 12.0035 14.4311 12.0035C14.565 12.0035 14.7698 11.9874 14.9616 11.9094C14.8377 12.4169 14.6149 12.7964 14.3053 13.1608C14.1275 13.371 14.1604 13.7004 14.3682 13.8806C14.576 14.0608 14.8847 14.0348 15.0545 13.8176C15.8356 12.8224 16.1543 11.8453 15.9295 10.4396C15.7787 9.49756 15.1554 9.001 14.4311 9Z" fill="black"/>
</svg>
