<svg width="24" height="24" viewBox="0 0 24 24" fill="none" xmlns="http://www.w3.org/2000/svg">
<path d="M12 3C6.5017 3 2 6.99333 2 11.9827C2 13.5517 2.4419 15.0768 3.2812 16.4112C3.7322 17.1289 3.7742 18.1499 3.0938 19.5303C2.7849 20.1571 3.2096 20.8996 3.9062 20.9655C5.2631 21.0942 6.4092 20.8667 7.9688 20.2169C9.2112 20.7 10.6155 20.9655 12 20.9655C17.4983 20.9655 22 16.9712 22 11.9827C22 6.99333 17.4983 3 12 3Z" fill="black" fill-opacity="0.4"/>
<path d="M9.48659 10C8.6656 10 8 10.6728 8 11.5017C8 12.3316 8.6656 13.0034 9.48659 13.0034C9.62137 13.0034 9.82176 12.9874 10.0128 12.9103C9.88975 13.4169 9.67202 13.7963 9.36271 14.1617C9.18461 14.371 9.21682 14.7013 9.42465 14.8805C9.63247 15.0607 9.93574 15.0347 10.106 14.8185C10.8879 13.8243 11.1981 12.8442 10.9732 11.4396C10.8225 10.4986 10.212 10.001 9.48659 10ZM14.4419 10C13.6213 10 12.9553 10.6728 12.9553 11.5017C12.9553 12.3316 13.6213 13.0034 14.4419 13.0034C14.5767 13.0034 14.7769 12.9874 14.9681 12.9103C14.8452 13.4169 14.6272 13.7963 14.318 14.1617C14.1396 14.371 14.1723 14.7013 14.3804 14.8805C14.5876 15.0607 14.8908 15.0347 15.0613 14.8185C15.8432 13.8243 16.1534 12.8442 15.9285 11.4396C15.7778 10.4986 15.1673 10.001 14.4419 10Z" fill="black"/>
</svg>
