<svg width="24" height="24" viewBox="0 0 24 24" fill="none" xmlns="http://www.w3.org/2000/svg">
<path d="M7 2.99841C4.7909 2.99841 3 4.78941 3 6.99841V16.9984C3 19.2074 4.7909 20.9984 7 20.9984H17C19.209 20.9984 21 19.2074 21 16.9984V6.99841C21 4.78941 19.209 2.99841 17 2.99841H7ZM7 4.99841H17C18.105 4.99841 19 5.89341 19 6.99841V16.9984C19 18.1034 18.105 18.9984 17 18.9984H7C5.8954 18.9984 5 18.1034 5 16.9984V6.99841C5 5.89341 5.8954 4.99841 7 4.99841Z" fill="black" fill-opacity="0.4"/>
<path d="M15.9909 9C15.7359 9 15.4689 9.08601 15.2739 9.281L11.5639 13.031C11.3069 13.289 11.0489 13.241 10.8469 12.938L9.84995 11.438C9.54395 10.978 8.90494 10.85 8.44694 11.156C7.98894 11.463 7.86094 12.103 8.16594 12.562L9.16395 14.062C10.0639 15.416 11.82 15.588 12.967 14.438L16.7079 10.719C17.0969 10.328 17.0969 9.672 16.7079 9.281C16.5129 9.08601 16.2459 9 15.9909 9Z" fill="black"/>
</svg>
