<svg width="24" height="24" viewBox="0 0 24 24" fill="none" xmlns="http://www.w3.org/2000/svg">
<path d="M5.04079 21.1783C5.09065 21.428 5.2173 21.6808 5.4467 21.8336C5.90349 22.1393 6.5438 22.0114 6.849 21.5519L12.8332 12.5614C13.0556 12.2268 13.0556 11.7732 12.8332 11.4386L6.849 2.44811C6.5438 1.9886 5.90349 1.86073 5.4467 2.16641C4.9889 2.47209 4.86126 3.1124 5.16546 3.57092L10.7756 12L5.16546 20.4291C5.01386 20.6578 4.99092 20.9276 5.04079 21.1783Z" fill="black" fill-opacity="0.4"/>
<path d="M11.0408 21.1783C11.0907 21.428 11.2173 21.6808 11.4467 21.8336C11.9035 22.1393 12.5438 22.0114 12.849 21.5519L18.8332 12.5614C19.0556 12.2268 19.0556 11.7732 18.8332 11.4386L12.849 2.44811C12.5438 1.9886 11.9035 1.86073 11.4467 2.16641C10.9889 2.47209 10.8613 3.1124 11.1655 3.57092L16.7756 12L11.1655 20.4291C11.0139 20.6578 10.9909 20.9276 11.0408 21.1783Z" fill="black"/>
</svg>
