<svg width="24" height="24" viewBox="0 0 24 24" fill="none" xmlns="http://www.w3.org/2000/svg">
<path fill-rule="evenodd" clip-rule="evenodd" d="M7.17449 6H6C3.79086 6 2 7.79086 2 10V18C2 20.2091 3.79086 22 6 22H18C20.2091 22 22 20.2091 22 18V10C22 7.79086 20.2091 6 18 6H16.8378C16.943 6.31013 17 6.64601 17 7C17 8.7116 15.6671 10 14 10H10C8.33841 10 7 8.65191 7 7C7 6.6489 7.06181 6.31241 7.17449 6Z" fill="black" fill-opacity="0.4"/>
<path fill-rule="evenodd" clip-rule="evenodd" d="M11 5C11 4.45994 11.4399 4 12 4C12.5848 4 13 4.40889 13 5C13 5.55228 13.4477 6 14 6C14.5802 6 15 6.41061 15 7C15 7.58939 14.5802 8 14 8H10C9.44679 8 9 7.55116 9 7C9 6.4611 9.47243 6 10 6C10.5523 6 11 5.55228 11 5ZM12 2C10.6148 2 9.49696 2.92287 9.12902 4.13293C7.91888 4.50984 7 5.64628 7 7C7 8.65191 8.33841 10 10 10H14C15.6671 10 17 8.7116 17 7C17 5.60236 16.1112 4.48691 14.8775 4.12471C14.5132 2.8695 13.3758 2 12 2ZM10 14C9.44772 14 9 14.4477 9 15C9 15.5523 9.44772 16 10 16H14C14.5523 16 15 15.5523 15 15C15 14.4477 14.5523 14 14 14H10Z" fill="black"/>
</svg>
