<svg width="24" height="24" viewBox="0 0 24 24" fill="none" xmlns="http://www.w3.org/2000/svg">
<path d="M3.99907 13.4989C3.44758 13.4989 3 13.9469 3 14.4989C3 15.0509 3.44758 15.4989 3.99907 15.4989C4.23585 15.4989 4.31279 15.5309 4.56056 15.6549C5.0621 15.9059 5.40177 15.9989 5.99722 15.9989C6.59267 15.9989 6.93234 15.9059 7.43387 15.6549C7.68164 15.5309 7.75858 15.4989 7.99536 15.4989C8.23214 15.4989 8.30908 15.5309 8.55685 15.6549C9.05839 15.9059 9.39806 15.9989 9.99351 15.9989C10.589 15.9989 10.9286 15.9059 11.4302 15.6549C11.6779 15.5309 11.7549 15.4989 11.9917 15.4989C12.2284 15.4989 12.3054 15.5309 12.5531 15.6549C13.0477 15.9019 13.6501 15.7119 13.8959 15.2179C14.1427 14.7239 13.9528 14.1209 13.4593 13.8739C13.4473 13.8679 13.4403 13.8489 13.4283 13.8429C12.9268 13.5919 12.5871 13.4989 11.9917 13.4989C11.3962 13.4989 11.0565 13.5919 10.555 13.8429C10.3072 13.9669 10.2303 13.9989 9.99351 13.9989C9.75673 13.9989 9.67979 13.9669 9.43202 13.8429C8.93048 13.5919 8.59081 13.4989 7.99536 13.4989C7.39992 13.4989 7.06024 13.5919 6.55871 13.8429C6.31094 13.9669 6.234 13.9989 5.99722 13.9989C5.76044 13.9989 5.6835 13.9669 5.43573 13.8429C4.93419 13.5919 4.59452 13.4989 3.99907 13.4989ZM7.99536 17.4989C7.44387 17.4989 6.99629 17.9469 6.99629 18.4989C6.99629 19.0509 7.44387 19.4989 7.99536 19.4989C8.23214 19.4989 8.30908 19.5309 8.55685 19.6549C9.05839 19.9059 9.39806 19.9989 9.99351 19.9989C10.589 19.9989 10.9286 19.9059 11.4302 19.6549C11.6779 19.5309 11.7549 19.4989 11.9917 19.4989C12.2284 19.4989 12.3054 19.5309 12.5531 19.6549C13.0547 19.9059 13.3944 19.9989 13.9898 19.9989C14.5852 19.9989 14.9249 19.9059 15.4265 19.6549C15.6742 19.5309 15.7512 19.4989 15.9879 19.4989C16.2247 19.4989 16.3017 19.5309 16.5494 19.6549C17.044 19.9019 17.6464 19.7119 17.8922 19.2179C18.139 18.7239 17.9491 18.1209 17.4556 17.8739C17.4436 17.8679 17.4366 17.8489 17.4246 17.8429C16.9231 17.5919 16.5834 17.4989 15.9879 17.4989C15.3925 17.4989 15.0528 17.5919 14.5513 17.8429C14.3035 17.9669 14.2266 17.9989 13.9898 17.9989C13.753 17.9989 13.6761 17.9669 13.4283 17.8429C12.9268 17.5919 12.5871 17.4989 11.9917 17.4989C11.3962 17.4989 11.0565 17.5919 10.555 17.8429C10.3072 17.9669 10.2303 17.9989 9.99351 17.9989C9.75673 17.9989 9.67979 17.9669 9.43202 17.8429C8.93048 17.5919 8.59081 17.4989 7.99536 17.4989Z" fill="black" fill-opacity="0.4"/>
<path d="M12.5 2C9.969 2 7.937 3.69601 7.25 6.06201C4.889 6.20101 3 8.106 3 10.5C3 11.015 3.088 11.531 3.25 12C3.998 12.013 12.122 12.004 13 12C14.766 11.992 16.006 13.477 16 15C16.44 15 17.336 15 17.5 15C19.433 15 21 13.431 21 11.5C21 9.744 19.689 8.34299 18 8.09399C18 7.91099 18 7.639 18 7.5C18 4.465 15.538 2 12.5 2Z" fill="black"/>
</svg>
