<svg width="24" height="24" viewBox="0 0 24 24" fill="none" xmlns="http://www.w3.org/2000/svg">
<path fill-rule="evenodd" clip-rule="evenodd" d="M13.0083 7.20942C12.529 7.07302 12.023 7 11.5 7C8.9685 7 6.9369 8.69433 6.25 11.0621C3.8891 11.2003 2 13.1047 2 15.4995C2 17.9854 4.0147 20 6.5 20H16.5C18.433 20 20 18.4328 20 16.5003C20 14.7419 18.6886 13.3429 17 13.0937V12.5002C17 12.3171 16.991 12.1361 16.9736 11.9576C14.7363 11.6967 13 9.79355 13 7.48457C13 7.39218 13.0028 7.30043 13.0083 7.20942Z" fill="black" fill-opacity="0.4"/>
<path fill-rule="evenodd" clip-rule="evenodd" d="M17.9604 3.38311C18.171 3.65129 18.2307 4.00816 18.1189 4.33028C18.0478 4.53491 18.0088 4.75568 18.0088 4.98769C18.0088 6.0942 18.9058 6.99121 20.0123 6.99121C20.2443 6.99121 20.4651 6.95218 20.6697 6.88115C20.9918 6.76933 21.3487 6.82903 21.6169 7.03961C21.8851 7.25018 22.0277 7.58271 21.9955 7.92216C21.7783 10.2106 19.8527 12 17.5079 12C15.0183 12 13 9.98174 13 7.49209C13 5.14732 14.7894 3.22168 17.0778 3.00449C17.4173 2.97227 17.7498 3.11493 17.9604 3.38311ZM16.0337 5.46723C15.4094 5.92275 15.0035 6.66027 15.0035 7.49209C15.0035 8.87523 16.1248 9.99648 17.5079 9.99648C18.3397 9.99648 19.0772 9.59063 19.5328 8.96633C17.7031 8.74811 16.2519 7.29694 16.0337 5.46723Z" fill="black"/>
</svg>
