<svg width="24" height="24" viewBox="0 0 24 24" fill="none" xmlns="http://www.w3.org/2000/svg">
<path fill-rule="evenodd" clip-rule="evenodd" d="M12 6C11.043 6 10.2106 6.24985 9.5106 6.66552C9.03574 6.94752 8.42218 6.79117 8.14018 6.31631C7.85819 5.84144 8.01453 5.22789 8.4894 4.94589C9.49612 4.34805 10.681 4 12 4C15.841 4 19 7.13372 19 11V11.3681C20.7657 12.0576 22 13.6505 22 15.5C22 16.2134 21.8039 16.8915 21.4693 17.4888C21.1994 17.9706 20.5899 18.1424 20.1081 17.8724C19.6263 17.6025 19.4545 16.9931 19.7245 16.5112C19.9064 16.1864 20 15.8423 20 15.5C20 14.4641 19.1842 13.3917 17.785 13.0836C17.3265 12.9827 17 12.5764 17 12.107V11C17 8.2428 14.7409 6 12 6ZM7 10.3881C6.99459 10.416 6.98939 10.4439 6.98438 10.4719C6.91741 10.8464 6.64371 11.1505 6.27827 11.2564C4.8767 11.6624 4 12.9844 4 14.5C4 15.1767 4.31621 16.0741 4.94936 16.8019C5.56512 17.5097 6.42849 18 7.5 18H14.596L16.5955 20H7.5C5.75787 20 4.37124 19.1846 3.44041 18.1146C2.52697 17.0645 2 15.7119 2 14.5C2 12.4288 3.119 10.3998 5.1413 9.54151C5.20673 9.28629 5.28475 9.03427 5.375 8.78675L7 10.3881Z" fill="black" fill-opacity="0.4"/>
<path fill-rule="evenodd" clip-rule="evenodd" d="M4.29289 6.29289C4.68342 5.90237 5.31658 5.90237 5.70711 6.29289L18.7071 19.2929C19.0976 19.6834 19.0976 20.3166 18.7071 20.7071C18.3166 21.0976 17.6834 21.0976 17.2929 20.7071L4.29289 7.70711C3.90237 7.31658 3.90237 6.68342 4.29289 6.29289Z" fill="black"/>
</svg>
