<svg width="24" height="24" viewBox="0 0 24 24" fill="none" xmlns="http://www.w3.org/2000/svg">
<path d="M12 2.99801C8.834 3.02301 5.933 5.15102 5.173 8.53401C3.232 9.35001 2 11.192 2 13.373C2 16.383 4.37601 18.998 7.31201 18.998H8C8.552 18.998 9 18.551 9 17.998C9 17.446 8.552 16.998 8 16.998H7.31201C5.52601 16.998 4 15.319 4 13.373C4 11.88 4.93399 10.639 6.34399 10.217C6.71699 10.105 6.97601 9.79001 7.03101 9.40401C7.41701 6.69801 9.592 5.01701 12 4.99801C14.681 4.97701 17.021 7.28501 17 9.998C17 10.058 17 10.861 17 11.092C17 11.557 17.296 11.956 17.75 12.06C19.066 12.365 20 13.397 20 14.498C20 15.847 18.684 16.998 17 16.998H16C15.448 16.998 15 17.446 15 17.998C15 18.55 15.448 18.998 16 18.998H17C19.734 18.998 22 17.015 22 14.498C22 12.683 20.785 11.077 18.987 10.383C18.989 10.205 19 10.024 19 9.998C19.03 6.16201 15.791 2.96801 12 2.99801Z" fill="black" fill-opacity="0.4"/>
<path d="M12 9L9 12.013L11.004 12V20C11.004 20.552 11.4502 21 12 21C12.5498 21 12.996 20.552 12.996 20V12L15 12.009L12 9Z" fill="black"/>
</svg>
