<svg width="24" height="24" viewBox="0 0 24 24" fill="none" xmlns="http://www.w3.org/2000/svg">
<path d="M11.5 7C8.969 7 6.937 8.69401 6.25 11.062C3.889 11.201 2 13.104 2 15.5C2 17.985 4.015 20 6.5 20C8.308 20 15.492 20 16.5 20C18.433 20 20 18.433 20 16.5C20 14.742 18.689 13.343 17 13.094C17 12.911 17 12.639 17 12.5C17 9.462 14.537 7 11.5 7ZM11.5 9C13.433 9 15 10.567 15 12.5C15 12.852 15 13.328 15 14C15 14.552 15.448 15 16 15C16.008 15 16.187 15 16.5 15C17.328 15 18 15.672 18 16.5C18 17.328 17.328 18 16.5 18C15.492 18 8.308 18 6.5 18C5.119 18 4 16.881 4 15.5C4 14.119 5.119 13 6.5 13C6.579 13 6.916 13 7 13C7.498 13 7.93 12.649 8 12.156C8.261 10.329 9.7 9 11.5 9Z" fill="black" fill-opacity="0.4"/>
<path fill-rule="evenodd" clip-rule="evenodd" d="M16.0058 2H15.994C15.4418 2.00053 14.9945 2.44868 14.995 3.00096C14.9955 3.55325 15.4437 4.00053 15.996 4H16.0039C16.5562 4.00053 17.0043 3.55325 17.0049 3.00096C17.0054 2.44868 16.5581 2.00053 16.0058 2ZM13.1743 5.1688C13.5652 4.77865 13.5658 4.14549 13.1757 3.75458C12.7855 3.36368 12.1523 3.36306 11.7614 3.75321L11.7531 3.76151C11.363 4.15241 11.3636 4.78558 11.7545 5.17572C12.1454 5.56587 12.7786 5.56525 13.1687 5.17435L13.1743 5.1688ZM20.2384 3.75321C19.8475 3.36306 19.2144 3.36368 18.8242 3.75458C18.4341 4.14549 18.4347 4.77865 18.8256 5.1688L18.8311 5.17435C19.2213 5.56525 19.8544 5.56587 20.2453 5.17572C20.6362 4.78558 20.6369 4.15241 20.2467 3.76151L20.2384 3.75321ZM21.9999 7.99411C21.9994 7.44182 21.5513 6.99454 20.999 6.99507C20.4467 6.99561 19.9994 7.44375 19.9999 7.99604V8.00396C19.9994 8.55624 20.4467 9.00439 20.999 9.00492C21.5513 9.00545 21.9994 8.55817 21.9999 8.00589V7.99411ZM20.2467 12.2385C20.6369 11.8476 20.6362 11.2144 20.2453 10.8243C19.8544 10.4341 19.2213 10.4347 18.8311 10.8256L18.8256 10.8312C18.4347 11.2213 18.4341 11.8545 18.8242 12.2454C19.2144 12.6363 19.8475 12.6369 20.2384 12.2468L20.2467 12.2385ZM18.9999 8C18.9999 9.39276 18.0509 10.5639 16.7641 10.9018C16.2328 9.14934 14.8503 7.76713 13.0981 7.23583C13.4361 5.94911 14.6072 5 15.9999 5C17.6568 5 18.9999 6.34315 18.9999 8Z" fill="black"/>
</svg>
