<svg width="24" height="24" viewBox="0 0 24 24" fill="none" xmlns="http://www.w3.org/2000/svg">
<path d="M12.5073 16C12.3573 16 12.2243 16.051 12.1323 16.156C12.0553 16.244 10.1923 19.066 10.1013 19.188C10.0383 19.271 10.0073 19.387 10.0073 19.5C10.0073 19.776 10.2313 20 10.5073 20H11.5383C11.5383 20 11.0073 21.388 11.0073 21.5C11.0073 21.776 11.2313 22 11.5073 22C11.6503 22 11.7913 21.94 11.8823 21.844C11.9673 21.754 13.8223 18.928 13.9133 18.812C13.9813 18.727 14.0073 18.618 14.0073 18.5C14.0073 18.224 13.7833 18 13.5073 18H12.5383C12.5383 18 13.0073 16.655 13.0073 16.5C13.0073 16.224 12.7833 16 12.5073 16Z" fill="black"/>
<path fill-rule="evenodd" clip-rule="evenodd" d="M7.25 6.0606C7.937 3.69342 9.969 2 12.5 2C15.537 2 18 4.46114 18 7.49809V8.09187C19.689 8.34079 21 9.73931 21 11.4967C21 13.429 19.433 14.9955 17.5 14.9955H7.5C5.015 14.9955 3 12.9812 3 10.497C3 8.10288 4.889 6.19955 7.25 6.0606ZM6.08492 17.5555C6.20792 17.3086 6.43591 17.1367 6.67891 17.0557C6.92091 16.9757 7.18191 16.9637 7.42891 17.0877C7.92191 17.3346 8.14393 17.9374 7.89693 18.4312L6.89693 20.4305C6.64993 20.9243 6.04692 21.1453 5.55292 20.8984C5.05992 20.6514 4.83792 20.0487 5.08492 19.5548L6.08492 17.5555ZM17.0849 17.5555C17.2079 17.3086 17.4359 17.1367 17.6789 17.0557C17.9209 16.9757 18.1819 16.9637 18.4289 17.0877C18.9219 17.3346 19.1439 17.9374 18.8969 18.4312L17.8969 20.4305C17.6499 20.9243 17.0469 21.1453 16.5529 20.8984C16.0599 20.6514 15.8379 20.0487 16.0849 19.5548L17.0849 17.5555Z" fill="black" fill-opacity="0.4"/>
</svg>
