<svg width="24" height="24" viewBox="0 0 24 24" fill="none" xmlns="http://www.w3.org/2000/svg">
<path d="M6 11C4.343 11 3 12.343 3 14V18C3 19.657 4.343 21 6 21H18C19.657 21 21 19.657 21 18V14C21 12.343 19.657 11 18 11H6ZM11.438 14.094C11.688 14.219 13.187 14.969 13.438 15.094C14.175 15.462 14.175 16.538 13.438 16.906L11.438 17.906C10.773 18.239 10 17.743 10 17V15C10 14.257 10.773 13.761 11.438 14.094Z" fill="black"/>
<path fill-rule="evenodd" clip-rule="evenodd" d="M6 3C5.44772 3 5 3.44772 5 4C5 4.55228 5.44772 5 6 5H18C18.5523 5 19 4.55228 19 4C19 3.44772 18.5523 3 18 3H6ZM5 7C4.44772 7 4 7.44772 4 8C4 8.55228 4.44772 9 5 9H19C19.5523 9 20 8.55228 20 8C20 7.44772 19.5523 7 19 7H5Z" fill="black" fill-opacity="0.4"/>
</svg>
