<svg width="24" height="24" viewBox="0 0 24 24" fill="none" xmlns="http://www.w3.org/2000/svg">
<path d="M6 10.9984C4.343 10.9984 3 12.3414 3 13.9984V17.9984C3 19.6554 4.343 20.9984 6 20.9984H18C19.657 20.9984 21 19.6554 21 17.9984V13.9984C21 12.3414 19.657 10.9984 18 10.9984H6ZM6 12.9984H18C18.552 12.9984 19 13.4464 19 13.9984V17.9984C19 18.5504 18.552 18.9984 18 18.9984H6C5.448 18.9984 5 18.5504 5 17.9984V13.9984C5 13.4464 5.448 12.9984 6 12.9984ZM11.438 14.0924C10.773 13.7594 10 14.2554 10 14.9984V16.9984C10 17.7414 10.773 18.2374 11.438 17.9044L13.438 16.9044C14.175 16.5364 14.175 15.4604 13.438 15.0924C13.187 14.9674 11.688 14.2174 11.438 14.0924Z" fill="black"/>
<path fill-rule="evenodd" clip-rule="evenodd" d="M6 3C5.44772 3 5 3.44772 5 4C5 4.55228 5.44772 5 6 5H18C18.5523 5 19 4.55228 19 4C19 3.44772 18.5523 3 18 3H6ZM5 7C4.44772 7 4 7.44772 4 8C4 8.55228 4.44772 9 5 9H19C19.5523 9 20 8.55228 20 8C20 7.44772 19.5523 7 19 7H5Z" fill="black" fill-opacity="0.4"/>
</svg>
