<svg width="24" height="24" viewBox="0 0 24 24" fill="none" xmlns="http://www.w3.org/2000/svg">
<path d="M8.1875 3.9978C4.7784 3.9978 2 6.77579 2 10.1858V15.9978C2 18.2068 3.7908 19.9978 6 19.9978C7.414 19.9978 8.7486 19.2078 9.4688 17.9978C10.311 17.9958 13.536 18.0018 14.531 17.9978C15.196 19.1948 16.592 19.9978 18 19.9978C20.209 19.9978 22 18.2068 22 15.9978V10.1858C22 6.77579 19.222 3.9978 15.812 3.9978H8.1875ZM8.1875 5.9978H15.812C18.117 5.9978 20 7.88079 20 10.1858V15.9978C20 17.1028 19.105 17.9978 18 17.9978C17.143 17.9978 16.403 17.4498 16.125 16.6538C15.984 16.2498 15.585 15.9938 15.156 15.9978C14.653 16.0018 9.1196 15.9968 8.8125 15.9978C8.3906 15.9998 8.0162 16.2568 7.875 16.6538C7.5941 17.4448 6.8534 17.9978 6 17.9978C4.8954 17.9978 4 17.1028 4 15.9978V10.1858C4 7.88079 5.883 5.9978 8.1875 5.9978Z" fill="black" fill-opacity="0.4"/>
<path d="M8 8C7.4477 8 7 8.448 7 9V10H6C5.4477 10 5 10.448 5 11C5 11.552 5.4477 12 6 12H7V13C7 13.552 7.4477 14 8 14C8.5523 14 9 13.552 9 13V12H10C10.552 12 11 11.552 11 11C11 10.448 10.552 10 10 10H9V9C9 8.448 8.5523 8 8 8ZM16 8C15.448 8 15 8.448 15 9C15 9.552 15.448 10 16 10C16.552 10 17 9.552 17 9C17 8.448 16.552 8 16 8ZM14 10C13.448 10 13 10.448 13 11C13 11.552 13.448 12 14 12C14.552 12 15 11.552 15 11C15 10.448 14.552 10 14 10ZM18 10C17.448 10 17 10.448 17 11C17 11.552 17.448 12 18 12C18.552 12 19 11.552 19 11C19 10.448 18.552 10 18 10ZM16 12C15.448 12 15 12.448 15 13C15 13.552 15.448 14 16 14C16.552 14 17 13.552 17 13C17 12.448 16.552 12 16 12Z" fill="#231C24"/>
</svg>
