<svg width="24" height="24" viewBox="0 0 24 24" fill="none" xmlns="http://www.w3.org/2000/svg">
<path fill-rule="evenodd" clip-rule="evenodd" d="M2 17C2 18.6569 3.34315 20 5 20H19C20.6569 20 22 18.6569 22 17V7C22 5.34315 20.6569 4 19 4H5C3.34315 4 2 5.34315 2 7V17ZM5 18C4.44772 18 4 17.5523 4 17V7C4 6.44771 4.44772 6 5 6H19C19.5523 6 20 6.44771 20 7V17C20 17.5523 19.5523 18 19 18H5Z" fill="black" fill-opacity="0.4"/>
<path fill-rule="evenodd" clip-rule="evenodd" d="M20 16H4V14H20V16ZM15 10C14.4477 10 14 9.55228 14 9C14 8.44772 14.4477 8 15 8H17C17.5523 8 18 8.44772 18 9C18 9.55228 17.5523 10 17 10H15Z" fill="black"/>
</svg>
