<svg width="24" height="24" viewBox="0 0 24 24" fill="none" xmlns="http://www.w3.org/2000/svg">
<path fill-rule="evenodd" clip-rule="evenodd" d="M5 20C5 19.4477 5.44772 19 6 19H18C18.5523 19 19 19.4477 19 20C19 20.5523 18.5523 21 18 21H6C5.44772 21 5 20.5523 5 20Z" fill="black" fill-opacity="0.4"/>
<path fill-rule="evenodd" clip-rule="evenodd" d="M5 3C4.44772 3 4 3.44772 4 4V10C4 13.866 7.13401 17 11 17H13C16.5265 17 19.4439 14.3923 19.9291 11H20C22.2091 11 24 9.20914 24 7C24 4.79086 22.2091 3 20 3H5ZM20 5V9C21.1046 9 22 8.10457 22 7C22 5.89543 21.1046 5 20 5ZM6 10V5H18V10C18 12.7614 15.7614 15 13 15H11C8.23858 15 6 12.7614 6 10Z" fill="black"/>
</svg>
