<svg width="24" height="24" viewBox="0 0 24 24" fill="none" xmlns="http://www.w3.org/2000/svg">
<path fill-rule="evenodd" clip-rule="evenodd" d="M5 6C4.44772 6 4 6.44772 4 7V13C4 16.866 7.13401 20 11 20H13C16.5265 20 19.4439 17.3923 19.9291 14H20C22.2091 14 24 12.2091 24 10C24 7.79086 22.2091 6 20 6H5ZM20 8V12C21.1046 12 22 11.1046 22 10C22 8.89543 21.1046 8 20 8ZM6 13V8H18V13C18 15.7614 15.7614 18 13 18H11C8.23858 18 6 15.7614 6 13Z" fill="black"/>
<path fill-rule="evenodd" clip-rule="evenodd" d="M9 3C9 2.44772 8.55228 2 8 2C7.44772 2 7 2.44772 7 3V6H9V3ZM13 3C13 2.44772 12.5523 2 12 2C11.4477 2 11 2.44772 11 3V6H13V3ZM16 2C16.5523 2 17 2.44772 17 3V6H15V3C15 2.44772 15.4477 2 16 2ZM6 20C5.44772 20 5 20.4477 5 21C5 21.5523 5.44772 22 6 22H18C18.5523 22 19 21.5523 19 21C19 20.4477 18.5523 20 18 20H6Z" fill="black" fill-opacity="0.4"/>
</svg>
