<svg width="24" height="24" viewBox="0 0 24 24" fill="none" xmlns="http://www.w3.org/2000/svg">
<path fill-rule="evenodd" clip-rule="evenodd" d="M11 14.1707C11.3128 14.0602 11.6494 14 12 14C12.3506 14 12.6872 14.0602 13 14.1707V13.0001H18V14.1707C18.3128 14.0602 18.6494 14 19 14C19.3506 14 19.6872 14.0602 20 14.1707V12.0001C20 11.4478 19.5523 11.0001 19 11.0001H13V9.82935C12.6872 9.9399 12.3506 10.0001 12 10.0001C11.6494 10.0001 11.3128 9.9399 11 9.82935V11.0001H5C4.44772 11.0001 4 11.4478 4 12.0001V14.1707C4.31278 14.0602 4.64936 14 5 14C5.35064 14 5.68722 14.0602 6 14.1707V13.0001H11V14.1707Z" fill="black" fill-opacity="0.4"/>
<path fill-rule="evenodd" clip-rule="evenodd" d="M12 4C10.3431 4 9 5.34315 9 7C9 8.65685 10.3431 10 12 10C13.6569 10 15 8.65685 15 7C15 5.34315 13.6569 4 12 4ZM12 14C10.3431 14 9 15.3431 9 17C9 18.6569 10.3431 20 12 20C13.6569 20 15 18.6569 15 17C15 15.3431 13.6569 14 12 14ZM2 17C2 15.3431 3.34315 14 5 14C6.65685 14 8 15.3431 8 17C8 18.6569 6.65685 20 5 20C3.34315 20 2 18.6569 2 17ZM19 14C17.3431 14 16 15.3431 16 17C16 18.6569 17.3431 20 19 20C20.6569 20 22 18.6569 22 17C22 15.3431 20.6569 14 19 14Z" fill="black"/>
</svg>
