<svg width="24" height="24" viewBox="0 0 24 24" fill="none" xmlns="http://www.w3.org/2000/svg">
<path d="M12 1.9989C10.9446 1.9989 9.89537 2.4136 9.09017 3.2184L3.20787 9.097C1.59738 10.7066 1.59738 13.3036 3.20787 14.9131L9.09017 20.7918C9.89185 21.593 10.9384 21.9954 11.986 21.9989C12 20.5 12 3.2184 12 1.9989Z" fill="black"/>
<path d="M12 2C13.0554 2 14.1046 2.4147 14.9098 3.2195L20.7921 9.0981C22.4026 10.7077 22.4026 13.3047 20.7921 14.9142L14.9098 20.7929C14.1081 21.5941 13.0616 21.9964 12.014 22C12 20.5011 12 3.2195 12 2Z" fill="black" fill-opacity="0.4"/>
</svg>
