<svg width="24" height="24" viewBox="0 0 24 24" fill="none" xmlns="http://www.w3.org/2000/svg">
<path d="M6.99072 2.99829C4.78162 2.99829 2.99072 4.78919 2.99072 6.99829V16.9983C2.99072 19.2074 4.78162 20.9983 6.99072 20.9983H16.9907C19.1998 20.9983 20.9907 19.2074 20.9907 16.9983V6.99829C20.9907 4.78919 19.1998 2.99829 16.9907 2.99829H6.99072ZM6.99072 4.99829H16.9907C18.0953 4.99829 18.9907 5.89369 18.9907 6.99829V16.9983C18.9907 18.1029 18.0953 18.9983 16.9907 18.9983H6.99072C5.88612 18.9983 4.99072 18.1029 4.99072 16.9983V6.99829C4.99072 5.89369 5.88612 4.99829 6.99072 4.99829Z" fill="black" fill-opacity="0.4"/>
<path fill-rule="evenodd" clip-rule="evenodd" d="M10 9C10 9.55228 9.55228 10 9 10C8.44772 10 8 9.55228 8 9C8 8.44772 8.44772 8 9 8C9.55228 8 10 8.44772 10 9ZM16 15C16 15.5523 15.5523 16 15 16C14.4477 16 14 15.5523 14 15C14 14.4477 14.4477 14 15 14C15.5523 14 16 14.4477 16 15ZM15 10C15.5523 10 16 9.55228 16 9C16 8.44772 15.5523 8 15 8C14.4477 8 14 8.44772 14 9C14 9.55228 14.4477 10 15 10ZM10 15C10 15.5523 9.55228 16 9 16C8.44772 16 8 15.5523 8 15C8 14.4477 8.44772 14 9 14C9.55228 14 10 14.4477 10 15ZM12 13C12.5523 13 13 12.5523 13 12C13 11.4477 12.5523 11 12 11C11.4477 11 11 11.4477 11 12C11 12.5523 11.4477 13 12 13Z" fill="black"/>
</svg>
