<svg width="24" height="24" viewBox="0 0 24 24" fill="none" xmlns="http://www.w3.org/2000/svg">
<path d="M6.99072 2.99829C4.78162 2.99829 2.99072 4.78919 2.99072 6.99829V16.9983C2.99072 19.2074 4.78162 20.9983 6.99072 20.9983H16.9907C19.1998 20.9983 20.9907 19.2074 20.9907 16.9983V6.99829C20.9907 4.78919 19.1998 2.99829 16.9907 2.99829H6.99072ZM6.99072 4.99829H16.9907C18.0953 4.99829 18.9907 5.89369 18.9907 6.99829V16.9983C18.9907 18.1029 18.0953 18.9983 16.9907 18.9983H6.99072C5.88612 18.9983 4.99072 18.1029 4.99072 16.9983V6.99829C4.99072 5.89369 5.88612 4.99829 6.99072 4.99829Z" fill="black" fill-opacity="0.4"/>
<path fill-rule="evenodd" clip-rule="evenodd" d="M9 10C9.55228 10 10 9.55228 10 9C10 8.44772 9.55228 8 9 8C8.44772 8 8 8.44772 8 9C8 9.55228 8.44772 10 9 10ZM15 16C15.5523 16 16 15.5523 16 15C16 14.4477 15.5523 14 15 14C14.4477 14 14 14.4477 14 15C14 15.5523 14.4477 16 15 16ZM16 9C16 9.55228 15.5523 10 15 10C14.4477 10 14 9.55228 14 9C14 8.44772 14.4477 8 15 8C15.5523 8 16 8.44772 16 9ZM9 16C9.55228 16 10 15.5523 10 15C10 14.4477 9.55228 14 9 14C8.44772 14 8 14.4477 8 15C8 15.5523 8.44772 16 9 16Z" fill="black"/>
</svg>
