<svg width="24" height="24" viewBox="0 0 24 24" fill="none" xmlns="http://www.w3.org/2000/svg">
<path d="M7 2.99829C4.7909 2.99829 3 4.78919 3 6.99829V16.9983C3 19.2074 4.7909 20.9983 7 20.9983H17C19.2091 20.9983 21 19.2074 21 16.9983V6.99829C21 4.78919 19.2091 2.99829 17 2.99829H7ZM7 4.99829H17C18.1046 4.99829 19 5.89369 19 6.99829V16.9983C19 18.1029 18.1046 18.9983 17 18.9983H7C5.8954 18.9983 5 18.1029 5 16.9983V6.99829C5 5.89369 5.8954 4.99829 7 4.99829Z" fill="black" fill-opacity="0.4"/>
<circle cx="12" cy="12" r="1" fill="black"/>
</svg>
