<svg width="24" height="24" viewBox="0 0 24 24" fill="none" xmlns="http://www.w3.org/2000/svg">
<path fill-rule="evenodd" clip-rule="evenodd" d="M9 4C8.44772 4 8 4.44772 8 5V20H6V5C6 3.34315 7.34315 2 9 2H15C16.6569 2 18 3.34315 18 5V20H16V5C16 4.44772 15.5523 4 15 4H9Z" fill="black"/>
<path fill-rule="evenodd" clip-rule="evenodd" d="M14 13C14.5523 13 15 12.5523 15 12C15 11.4477 14.5523 11 14 11C13.4477 11 13 11.4477 13 12C13 12.5523 13.4477 13 14 13ZM5 20C4.44772 20 4 20.4477 4 21C4 21.5523 4.44772 22 5 22H19C19.5523 22 20 21.5523 20 21C20 20.4477 19.5523 20 19 20H5Z" fill="black" fill-opacity="0.4"/>
</svg>
