<svg width="24" height="24" viewBox="0 0 24 24" fill="none" xmlns="http://www.w3.org/2000/svg">
<path d="M12.0053 1.99897C8.69848 2.01497 6.74743 3.26697 4.78367 7.56097C4.65182 7.84997 4.48375 8.13298 4.18974 8.52998C4.10931 8.63898 3.78778 9.03397 3.72085 9.12397C2.58001 10.653 2.04191 11.953 2.00139 13.968C1.92356 17.836 5.1219 21.03 9.0041 21.03C9.48578 21.03 10.6241 21.154 11.7239 21.374C11.9438 21.418 12.1633 21.469 12.3804 21.53C12.5126 21.568 12.951 21.724 13.0369 21.749C13.6717 21.932 14.2136 21.999 14.9439 21.999C18.7569 21.999 21.0087 19.492 21.0087 15.561C21.0087 15.333 21.0043 15.184 20.9775 14.718C20.9356 13.99 20.9213 13.637 20.9775 13.187C20.9943 13.051 21.0299 12.908 21.1026 12.718C21.1605 12.566 21.1068 12.683 21.3839 12.061C21.7245 11.297 21.9156 10.736 21.9779 10.061C22.1661 8.02197 21.15 6.01398 19.008 5.27998C18.5848 5.13498 18.2596 4.99697 18.0076 4.87397C17.746 4.74597 17.5468 4.64497 17.3198 4.46797C17.2299 4.39797 16.6891 3.92297 16.632 3.87397C15.218 2.66297 13.7061 1.99097 12.0053 1.99897ZM12.0053 3.99897C13.1762 3.99297 14.2737 4.45197 15.3504 5.37397C15.4033 5.41897 16.0154 5.93898 16.1319 6.02998C16.465 6.28998 16.742 6.49598 17.1322 6.68698C17.4666 6.84998 17.8556 7.01698 18.3515 7.18698C19.5175 7.58598 20.0875 8.70898 19.9771 9.90498C19.9397 10.31 19.8293 10.638 19.5707 11.218C19.577 11.204 19.3044 11.878 19.2581 11.999C19.1321 12.328 19.0471 12.623 19.008 12.937C18.9326 13.541 18.9282 14.001 18.9768 14.843C19.0011 15.266 19.008 15.388 19.008 15.561C19.008 18.424 17.6111 19.999 14.9439 19.999C14.412 19.999 14.0637 19.945 13.5997 19.811C13.533 19.792 13.0666 19.668 12.9118 19.624C12.6475 19.549 12.404 19.491 12.1303 19.437C10.9126 19.192 9.64014 19.03 9.0041 19.03C6.23283 19.03 3.94704 16.736 4.00216 13.999C4.03318 12.456 4.40412 11.533 5.31517 10.311C5.37509 10.231 5.69532 9.83797 5.78405 9.71797C6.1541 9.21797 6.39579 8.81397 6.59697 8.37397C8.2381 4.78497 9.48048 4.01097 12.0053 3.99897Z" fill="black" fill-opacity="0.4"/>
<path d="M12 7C9.2386 7 7 9.239 7 12C7 14.761 9.2386 17 12 17C14.7614 17 17 14.761 17 12C17 9.239 14.7614 7 12 7ZM12 9C12.5523 9 13 9.448 13 10C13 10.552 12.5523 11 12 11C11.4477 11 11 11.448 11 12C11 12.552 10.5523 13 10 13C9.4477 13 9 12.552 9 12C9 10.343 10.3431 9 12 9Z" fill="black"/>
</svg>
