<svg width="24" height="24" viewBox="0 0 24 24" fill="none" xmlns="http://www.w3.org/2000/svg">
<path d="M12.0142 2.99829C11.0086 2.99829 9.44966 3.7283 7.26416 5.0293C6.92956 5.2283 6.58606 5.4343 6.23296 5.6543C5.34556 6.2093 4.44626 6.8113 3.57666 7.4043C3.42926 7.5053 3.25216 7.6193 3.01416 7.7793L9.17036 11.9043C10.3611 11.3503 11.4213 10.9983 12.0142 10.9983C12.5302 10.9983 13.6186 11.3673 14.7642 11.9673C15.392 11.5513 21.0142 7.7793 21.0142 7.7793C20.7762 7.6193 20.5991 7.5053 20.4517 7.4043C19.5821 6.8113 18.6828 6.2093 17.7954 5.6543C17.4423 5.4343 17.0988 5.2283 16.7642 5.0293C14.5787 3.7283 13.0198 2.99829 12.0142 2.99829Z" fill="black" fill-opacity="0.4"/>
<path d="M2 9.53101V16.281C3.6725 15.099 5.4891 13.883 7.125 12.969L2 9.53101ZM22 9.56201C22 9.56201 18.2571 12.016 16.75 13.031C18.485 13.992 20.3136 15.146 22 16.312V9.56201ZM12 13C10.7102 13 5.8142 15.905 2.3125 18.531C2.936 20.043 4.4087 21 6 21H18C19.5757 21 21.073 19.989 21.6875 18.562C18.1564 16.039 13.036 13 12 13Z" fill="black"/>
</svg>
