<svg width="24" height="24" viewBox="0 0 24 24" fill="none" xmlns="http://www.w3.org/2000/svg">
<path fill-rule="evenodd" clip-rule="evenodd" d="M3 12C3 9.79086 4.79086 8 7 8C9.20914 8 11 9.79086 11 12C11 14.2091 9.20914 16 7 16C4.79086 16 3 14.2091 3 12ZM6.99905 12.0441C6.97597 12.5759 6.53751 13 6 13C5.44772 13 5 12.5523 5 12C5 11.4248 5.27755 10.9332 5.60539 10.6054C5.93324 10.2775 6.42477 10 7 10C7.55228 10 8 10.4477 8 11C8 11.5375 7.57592 11.976 7.0441 11.999L7.0423 12.0003C7.03524 12.0053 7.02741 12.0118 7.01961 12.0196C7.01181 12.0274 7.0053 12.0352 7.0003 12.0423L6.99905 12.0441ZM13 12C13 9.79086 14.7909 8 17 8C19.2091 8 21 9.79086 21 12C21 14.2091 19.2091 16 17 16C14.7909 16 13 14.2091 13 12ZM16.999 12.0441C16.976 12.5759 16.5375 13 16 13C15.4477 13 15 12.5523 15 12C15 11.4248 15.2775 10.9332 15.6054 10.6054C15.9332 10.2775 16.4248 10 17 10C17.5523 10 18 10.4477 18 11C18 11.5375 17.5759 11.976 17.0441 11.999L17.0423 12.0003C17.0352 12.0053 17.0274 12.0118 17.0196 12.0196C17.0118 12.0274 17.0053 12.0352 17.0003 12.0423L16.999 12.0441Z" fill="black"/>
<path fill-rule="evenodd" clip-rule="evenodd" d="M15.0001 12H15L15.0001 11.9833L15.0001 12ZM13.8 9.59966C13.3002 10.2649 13.003 11.091 13 11.9864C12.9927 11.4404 12.5479 11 12.0001 11C11.4478 11 11.0001 11.4477 11.0001 12C11.0001 11.0994 10.7025 10.2683 10.2002 9.59972C10.7016 9.22314 11.3248 9 12.0001 9C12.6754 9 13.2986 9.22312 13.8 9.59966ZM3.12602 11C3.04375 11.3196 3 11.6547 3 12C3 12.3453 3.04375 12.6804 3.12602 13H2C1.44772 13 1 12.5523 1 12C1 11.4477 1.44772 11 2 11H3.12602ZM20.874 13H22C22.5523 13 23 12.5523 23 12C23 11.4477 22.5523 11 22 11H20.874C20.9563 11.3196 21 11.6547 21 12C21 12.3453 20.9563 12.6804 20.874 13Z" fill="black" fill-opacity="0.4"/>
</svg>
