<svg width="24" height="24" viewBox="0 0 24 24" fill="none" xmlns="http://www.w3.org/2000/svg">
<path fill-rule="evenodd" clip-rule="evenodd" d="M5 12C5 10.8954 5.89543 10 7 10C8.10457 10 9 10.8954 9 12C9 13.1046 8.10457 14 7 14C5.89543 14 5 13.1046 5 12ZM7 8C4.79086 8 3 9.79086 3 12C3 14.2091 4.79086 16 7 16C9.20914 16 11 14.2091 11 12C11 9.79086 9.20914 8 7 8ZM15 12C15 10.8954 15.8954 10 17 10C18.1046 10 19 10.8954 19 12C19 13.1046 18.1046 14 17 14C15.8954 14 15 13.1046 15 12ZM17 8C14.7909 8 13 9.79086 13 12C13 14.2091 14.7909 16 17 16C19.2091 16 21 14.2091 21 12C21 9.79086 19.2091 8 17 8Z" fill="black"/>
<path fill-rule="evenodd" clip-rule="evenodd" d="M15.0001 12H15L15.0001 11.9833L15.0001 12ZM13.8 9.59966C13.3002 10.2649 13.003 11.091 13 11.9864C12.9927 11.4404 12.5479 11 12.0001 11C11.4478 11 11.0001 11.4477 11.0001 12C11.0001 11.0994 10.7025 10.2683 10.2002 9.59972C10.7016 9.22314 11.3248 9 12.0001 9C12.6754 9 13.2986 9.22312 13.8 9.59966ZM3.12602 11C3.04375 11.3196 3 11.6547 3 12C3 12.3453 3.04375 12.6804 3.12602 13H2C1.44772 13 1 12.5523 1 12C1 11.4477 1.44772 11 2 11H3.12602ZM20.874 13H22C22.5523 13 23 12.5523 23 12C23 11.4477 22.5523 11 22 11H20.874C20.9563 11.3196 21 11.6547 21 12C21 12.3453 20.9563 12.6804 20.874 13Z" fill="black" fill-opacity="0.4"/>
</svg>
