<svg width="24" height="24" viewBox="0 0 24 24" fill="none" xmlns="http://www.w3.org/2000/svg">
<path d="M14 1.99896C11.239 1.99896 9.00001 4.23796 9.00001 6.99896V9.99896H8C7.448 9.99896 7 10.447 7 10.999V14.999C7 15.551 7.448 15.999 8 15.999H9.00001V20.999C9.00001 21.551 9.44801 21.999 10 21.999H14C14.552 21.999 15 21.551 15 20.999V15.999H16C16.457 15.996 16.858 15.692 16.969 15.249L17.969 11.249C18.127 10.618 17.651 9.99896 17 9.99896H15C15 9.10996 15 7.99896 15 7.99896H17C17.552 7.99896 18 7.55096 18 6.99896V2.99896C18 2.44696 17.552 1.99896 17 1.99896H14ZM14 3.99896H16V5.99896H15C13.895 5.99896 13 6.89396 13 7.99896V11.999H15.719L15.219 13.999H13V19.999H11V13.999H9.00001V11.999H11V6.99896C11 5.34196 12.343 3.99896 14 3.99896Z" fill="black"/>
</svg>
