<svg width="24" height="24" viewBox="0 0 24 24" fill="none" xmlns="http://www.w3.org/2000/svg">
<path d="M7.9978 2C5.7887 2 3.9978 3.7909 3.9978 6V18C3.9978 20.2091 5.7887 22 7.9978 22H15.9978C18.2068 22 19.9978 20.2091 19.9978 18V6C19.9978 3.7909 18.2068 2 15.9978 2H7.9978Z" fill="black" fill-opacity="0.4"/>
<path d="M10.0046 8.9989C9.74917 8.9989 9.48279 9.08474 9.28724 9.27937L7.29183 11.2755C6.90272 11.6658 6.90272 12.3205 7.29183 12.7108L9.28724 14.707C9.67734 15.0962 10.3318 15.0962 10.7219 14.707C11.111 14.3167 11.111 13.662 10.7219 13.2717L9.44388 11.9932L10.7219 10.7146C11.111 10.3244 11.111 9.66962 10.7219 9.27937C10.5264 9.08474 10.26 8.9989 10.0046 8.9989ZM13.9954 8.9989C13.74 8.9989 13.4736 9.08474 13.2781 9.27937C12.889 9.66962 12.889 10.3244 13.2781 10.7146L14.5561 11.9932L13.2781 13.2717C12.889 13.662 12.889 14.3167 13.2781 14.707C13.4736 14.9016 13.734 14.9874 13.9954 14.9874C14.2568 14.9874 14.5172 14.9016 14.7128 14.707L16.7082 12.7108C17.0973 12.3205 17.0973 11.6658 16.7082 11.2755L14.7128 9.27937C14.5172 9.08474 14.2508 8.9989 13.9954 8.9989Z" fill="black"/>
</svg>
