<svg width="24" height="24" viewBox="0 0 24 24" fill="none" xmlns="http://www.w3.org/2000/svg">
<path d="M8 22.0011C5.7909 22.0011 4 20.2101 4 18.0011V6.00107C4 3.79207 5.7909 2.00107 8 2.00107H16C18.209 2.00107 20 3.79207 20 6.00107V18.0011C20 20.2101 18.209 22.0011 16 22.0011H8ZM8 20.0011H16C17.105 20.0011 18 19.1061 18 18.0011V6.00107C18 4.89607 17.105 4.00107 16 4.00107H8C6.8954 4.00107 6 4.89607 6 6.00107V18.0011C6 19.1061 6.8954 20.0011 8 20.0011Z" fill="black" fill-opacity="0.4"/>
<path d="M16 11L12 7L8 11H11V16C11 16.5523 11.4477 17 12 17C12.5523 17 13 16.5523 13 16V11H16Z" fill="black"/>
</svg>
