<svg width="24" height="24" viewBox="0 0 24 24" fill="none" xmlns="http://www.w3.org/2000/svg">
<path d="M12.0249 4.97437C10.6359 4.97437 9.48394 5.91907 9.15994 7.06537C7.91694 6.78227 6.65494 7.27536 5.96194 8.47436C5.26994 9.67306 5.50294 11.1251 6.32794 11.9761C5.50494 12.8331 5.26994 14.2761 5.96194 15.4741C6.65494 16.6731 7.96194 17.1451 9.14694 16.8851C9.52694 18.0581 10.6359 18.9741 12.0249 18.9741C13.4139 18.9741 14.5159 18.0521 14.8539 16.8901C16.0469 17.1461 17.3659 16.6701 18.0559 15.4741C18.7509 14.2721 18.5029 12.8451 17.6839 11.9771C18.5199 11.1071 18.7509 9.67706 18.0559 8.47436C17.3659 7.27846 16.0079 6.76267 14.8509 7.05837C14.5229 5.90947 13.4139 4.97437 12.0249 4.97437ZM12.0249 6.97436C12.5769 6.97436 13.0249 7.42216 13.0249 7.97436C13.0249 8.05536 12.7719 8.57956 12.3999 9.28686C12.3689 9.33656 12.3699 9.32817 12.3369 9.38067H12.3689C12.3499 9.41647 12.3569 9.40597 12.3369 9.44317C11.7259 10.5831 13.3759 11.5431 14.0559 10.4431C14.5639 9.62147 14.8869 9.19237 14.9939 9.13067C15.4759 8.85217 16.0639 9.00006 16.3369 9.47436C16.6159 9.95666 16.4679 10.5441 15.9939 10.8181C15.8829 10.8821 15.3319 10.9471 14.3369 10.9741C13.0399 11.0091 13.0399 12.9391 14.3369 12.9741C15.3319 13.0011 15.8829 13.0661 15.9939 13.1311C16.4679 13.4041 16.6159 13.9921 16.3369 14.4741C16.0639 14.9491 15.4759 15.0971 14.9939 14.8181C14.8789 14.7521 14.5269 14.2951 14.0559 13.5371C13.3749 12.4391 11.6959 13.3981 12.3059 14.5371C12.3679 14.6511 12.4509 14.7961 12.4619 14.8181C12.8419 15.5221 13.0249 15.8981 13.0249 15.9741C13.0249 16.5271 12.5769 16.9741 12.0249 16.9741C11.4729 16.9741 11.0249 16.5271 11.0249 15.9741C11.0249 15.8981 11.1769 15.5221 11.5559 14.8181C11.5679 14.7961 11.6509 14.6511 11.7119 14.5371C12.3229 13.3981 10.6749 12.4391 9.99394 13.5371C9.96794 13.5791 9.95593 13.5591 9.93093 13.5991C9.91593 13.6271 9.91493 13.6331 9.89993 13.6621C9.49893 14.2921 9.15993 14.7581 9.05593 14.8181C8.57393 15.0971 7.95493 14.9491 7.68093 14.4741C7.40293 13.9921 7.58193 13.4041 8.05593 13.1311C8.16693 13.0661 8.71794 13.0011 9.71194 12.9741C11.0099 12.9391 11.0099 11.0091 9.71194 10.9741C8.71794 10.9471 8.16693 10.8821 8.05593 10.8181C7.58193 10.5441 7.40293 9.95666 7.68093 9.47436C7.95493 9.00006 8.57393 8.85217 9.05593 9.13067C9.16293 9.19237 9.45494 9.62157 9.96194 10.4431C10.6419 11.5431 12.3239 10.5831 11.7119 9.44317C11.2519 8.58507 11.0249 8.06676 11.0249 7.97436C11.0249 7.42566 11.4729 6.97436 12.0249 6.97436Z" fill="black"/>
</svg>
