<svg width="24" height="24" viewBox="0 0 24 24" fill="none" xmlns="http://www.w3.org/2000/svg">
<path fill-rule="evenodd" clip-rule="evenodd" d="M6 5C5.44772 5 5 5.44772 5 6V7H11.8694C11.5908 6.55923 11.3494 6.1027 11.1567 5.70772C10.938 5.25929 10.52 5 10.114 5H6ZM14.5158 7H20C20.5523 7 21 7.44772 21 8V17C21 19.2091 19.2091 21 17 21H7C4.79086 21 3 19.2091 3 17V7V6C3 4.34315 4.34315 3 6 3H10.114C11.3753 3 12.442 3.78071 12.9543 4.83086C13.2282 5.39246 13.5686 6.00122 13.9262 6.45495C14.1051 6.68184 14.2621 6.83611 14.3877 6.92656C14.4602 6.9788 14.5019 6.99541 14.5158 7Z" fill="black" fill-opacity="0.4"/>
<path fill-rule="evenodd" clip-rule="evenodd" d="M14.7071 12.7071C15.0976 12.3166 15.0976 11.6834 14.7071 11.2929C14.3166 10.9024 13.6834 10.9024 13.2929 11.2929L12 12.5858L10.7071 11.2929C10.3166 10.9024 9.68342 10.9024 9.29289 11.2929C8.90237 11.6834 8.90237 12.3166 9.29289 12.7071L10.5858 14L9.29289 15.2929C8.90237 15.6834 8.90237 16.3166 9.29289 16.7071C9.68342 17.0976 10.3166 17.0976 10.7071 16.7071L12 15.4142L13.2929 16.7071C13.6834 17.0976 14.3166 17.0976 14.7071 16.7071C15.0976 16.3166 15.0976 15.6834 14.7071 15.2929L13.4142 14L14.7071 12.7071Z" fill="black"/>
</svg>
