<svg width="24" height="24" viewBox="0 0 24 24" fill="none" xmlns="http://www.w3.org/2000/svg">
<path d="M5.99829 3C4.34129 3 2.99829 4.343 2.99829 6V17C2.99829 19.209 4.78929 21 6.99829 21H16.9983C19.2073 21 20.9983 19.209 20.9983 17V8C20.9983 7.448 20.5503 7 19.9983 7H14.9983C14.2433 7 14.0003 6.755 13.4043 5.562C12.5013 3.755 11.7433 3 9.99829 3H5.99829ZM5.99829 5H9.99829C10.7533 5 10.9963 5.245 11.5923 6.438C11.7223 6.699 11.7763 6.782 11.9043 7H7.96729C7.41429 7 6.96729 7.448 6.96729 8C6.96729 8.552 7.41429 9 7.96729 9H18.9983V17C18.9983 18.105 18.1033 19 16.9983 19H6.99829C5.89329 19 4.99829 18.105 4.99829 17V6C4.99829 5.448 5.44629 5 5.99829 5Z" fill="black" fill-opacity="0.4"/>
<path fill-rule="evenodd" clip-rule="evenodd" d="M11 16C11 16.5523 11.4477 17 12 17C12.5523 17 13 16.5523 13 16V15H14C14.5523 15 15 14.5523 15 14C15 13.4477 14.5523 13 14 13H13V12C13 11.4477 12.5523 11 12 11C11.4477 11 11 11.4477 11 12V13H10C9.44772 13 9 13.4477 9 14C9 14.5523 9.44772 15 10 15H11V16Z" fill="black"/>
</svg>
