<svg width="24" height="24" viewBox="0 0 24 24" fill="none" xmlns="http://www.w3.org/2000/svg">
<path fill-rule="evenodd" clip-rule="evenodd" d="M9.90749 2.76706C10.522 2.25537 11.1023 2.01515 11.999 2.01416C12.911 2.01316 13.493 2.27018 14.124 2.79517C13.924 2.62817 14.62 3.21117 14.78 3.32717C14.981 3.47217 15.204 3.59217 15.468 3.70217C15.909 3.88417 16.17 3.91217 16.78 3.95217C17.188 3.97817 17.382 4.00317 17.655 4.07717C18.166 4.21417 18.611 4.50017 19.061 4.95217C19.502 5.39317 19.793 5.82617 19.936 6.32717C20.0107 6.5848 20.0265 6.79851 20.0529 7.15465C20.0555 7.18972 20.0581 7.22616 20.061 7.26416C20.109 7.89116 20.159 8.13317 20.343 8.57717C20.448 8.83116 20.581 9.04116 20.718 9.23316C20.789 9.33416 20.866 9.42717 20.968 9.54517C20.983 9.56317 21.184 9.81116 21.249 9.88916C21.768 10.5102 22.003 11.1052 21.999 12.0142C21.9951 12.9002 21.7521 13.4859 21.2522 14.0977C21.2262 14.1284 20.7845 14.6596 20.686 14.7952C20.542 14.9962 20.421 15.1882 20.311 15.4522C20.128 15.8942 20.101 16.1812 20.061 16.7952C20.034 17.2132 19.982 17.4222 19.905 17.7022C19.767 18.2042 19.504 18.6342 19.061 19.0772C18.619 19.5182 18.189 19.7822 17.686 19.9202C17.407 19.9972 17.199 20.0492 16.78 20.0772C16.165 20.1162 15.879 20.1432 15.436 20.3272C15.172 20.4362 14.981 20.5562 14.78 20.7022C14.6683 20.7828 14.2785 21.1059 14.1362 21.2239C14.0773 21.2728 14.0608 21.2865 14.124 21.2332C13.495 21.7622 12.913 22.0152 11.999 22.0142C11.086 22.0132 10.504 21.7622 9.87403 21.2332C9.9276 21.2781 9.91925 21.2706 9.87403 21.2332C9.74706 21.128 9.33379 20.7862 9.21802 20.7022C9.01601 20.5542 8.79602 20.4372 8.53003 20.3272C8.08803 20.1432 7.83002 20.1152 7.21802 20.0772C6.80101 20.0502 6.59003 19.9962 6.31104 19.9202C5.80803 19.7832 5.37903 19.5202 4.93604 19.0772C4.49604 18.6352 4.23102 18.2032 4.09302 17.7022C4.01502 17.4212 3.96404 17.2162 3.93604 16.7952C3.89604 16.1792 3.87004 15.8942 3.68604 15.4522C3.57704 15.1872 3.45804 14.9962 3.31104 14.7952C3.22771 14.6807 2.89606 14.2801 2.78511 14.1461C2.74294 14.0951 2.73265 14.0827 2.78003 14.1392C2.25203 13.5112 1.99803 12.9242 1.99903 12.0142C2.00002 11.1179 2.23961 10.5345 2.75283 9.92139C2.66178 10.0307 3.20421 9.40942 3.31104 9.26416C3.45903 9.06317 3.57604 8.84317 3.68604 8.57717C3.86904 8.13517 3.93003 7.88117 3.96802 7.26416C3.99301 6.83917 4.01602 6.61017 4.09302 6.32717C4.23001 5.82317 4.49604 5.39317 4.93604 4.95217C5.37703 4.51017 5.81003 4.24616 6.31104 4.10816C6.59503 4.03016 6.82402 3.97817 7.24903 3.95217C7.86402 3.91417 8.12003 3.88417 8.56104 3.70217C8.82703 3.59217 9.04901 3.47317 9.24903 3.32717C9.39575 3.21968 10.0142 2.67891 9.90749 2.76706ZM12 19C15.866 19 19 15.866 19 12C19 8.13401 15.866 5 12 5C8.13401 5 5 8.13401 5 12C5 15.866 8.13401 19 12 19Z" fill="black" fill-opacity="0.4"/>
<path fill-rule="evenodd" clip-rule="evenodd" d="M5.48682 14.5701L9.04757 12.5354C9.01628 12.3617 8.99994 12.1827 8.99994 12C8.99994 10.6938 9.83475 9.58254 10.9999 9.17071V5.07089C11.3265 5.02417 11.6604 5 11.9999 5C12.3395 5 12.6733 5.02417 12.9999 5.07089V9.17071C14.1651 9.58254 14.9999 10.6938 14.9999 12C14.9999 12.1827 14.9836 12.3616 14.9523 12.5353L18.5131 14.5701C18.265 15.1982 17.9287 15.7819 17.5194 16.3058L13.9596 14.2716C13.4339 14.7255 12.749 15 11.9999 15C11.2509 15 10.566 14.7255 10.0403 14.2716L6.48048 16.3058C6.0712 15.7819 5.73489 15.1982 5.48682 14.5701ZM10.9999 12C10.9999 11.4477 11.4477 11 11.9999 11C12.5522 11 12.9999 11.4477 12.9999 12C12.9999 12.5523 12.5522 13 11.9999 13C11.4477 13 10.9999 12.5523 10.9999 12Z" fill="black"/>
</svg>
