<svg width="24" height="24" viewBox="0 0 24 24" fill="none" xmlns="http://www.w3.org/2000/svg">
<path fill-rule="evenodd" clip-rule="evenodd" d="M2.37213 10.7783L11.2435 21.6211C11.4267 21.852 11.7097 22 12.0273 22C12.2575 22 12.4695 21.9223 12.6385 21.7916C12.6981 21.7456 12.7528 21.6926 12.8014 21.6332L21.8008 10.6055C21.4994 10.9722 21.1562 11 21 11H18.9172L13.0273 18.1987V11H11.0273V18.1985L5.13763 11H3.00003C2.76758 11 2.54702 10.9194 2.37213 10.7783Z" fill="black" fill-opacity="0.4"/>
<path fill-rule="evenodd" clip-rule="evenodd" d="M6.15591 3.46336C6.3365 3.17947 6.6601 3.00072 6.99734 3L7 3H17L17.0027 3C17.3413 3.00072 17.6642 3.17931 17.8451 3.46484L21.8321 9.4453C22.0366 9.75216 22.0557 10.1467 21.8817 10.4719C21.7077 10.797 21.3688 11 21 11H12.0071C12.0047 11 12.0024 11 12 11C11.9977 11 11.9953 11 11.993 11H3C2.63121 11 2.29235 10.797 2.11833 10.4719C1.94431 10.1467 1.96338 9.75216 2.16795 9.4453L6.15591 3.46336ZM7.08916 5.66904L4.86852 9H9.86496L7.08916 5.66904ZM14.1351 9H19.1315L16.9109 5.66907L14.1351 9ZM14.865 5H9.13505L12 8.43798L14.865 5Z" fill="black"/>
</svg>
