<svg width="24" height="24" viewBox="0 0 24 24" fill="none" xmlns="http://www.w3.org/2000/svg">
<path d="M15.8718 15.2021C15.6168 15.2301 15.3878 15.3612 15.2158 15.5762C14.8708 16.0082 14.9408 16.6381 15.3718 16.9831C15.7948 17.3211 15.9968 17.6881 15.9968 18.0141C15.9968 18.9831 14.2778 20.0141 11.9968 20.0141C9.71582 20.0141 7.99682 18.9831 7.99682 18.0141C7.99682 17.6891 8.20282 17.3511 8.62182 17.0141C9.05182 16.6681 9.12383 16.0381 8.77783 15.6081C8.60483 15.3931 8.34482 15.2601 8.09082 15.2331C7.83582 15.2051 7.58682 15.2781 7.37182 15.4521C6.51283 16.1421 5.99683 17.0291 5.99683 18.0141C5.99683 20.3591 8.75482 22.0141 11.9968 22.0141C15.2388 22.0141 17.9968 20.3591 17.9968 18.0141C17.9968 17.0251 17.4868 16.1121 16.6218 15.4201C16.4058 15.2481 16.1268 15.1731 15.8718 15.2021Z" fill="black" fill-opacity="0.4"/>
<path d="M12 2C9.239 2 7 4.239 7 7C7 9.404 8.736 11.414 10.998 11.893L11 17C11 17.552 11.448 18 12 18C12.552 18 13 17.552 13 17L12.988 11.888C15.249 11.41 17 9.404 17 7C17 4.239 14.761 2 12 2ZM12 4C13.657 4 15 5.343 15 7C15 8.657 13.657 10 12 10C10.343 10 9 8.657 9 7C9 5.343 10.343 4 12 4ZM12 6C11.448 6 11 6.448 11 7C11 7.552 11.448 8 12 8C12.552 8 13 7.552 13 7C13 6.448 12.552 6 12 6Z" fill="black"/>
</svg>
