<svg width="24" height="24" viewBox="0 0 24 24" fill="none" xmlns="http://www.w3.org/2000/svg">
<path fill-rule="evenodd" clip-rule="evenodd" d="M4 3C4.55228 3 5 3.44772 5 4V17C5 18.1046 5.89543 19 7 19H20C20.5523 19 21 19.4477 21 20C21 20.5523 20.5523 21 20 21H7C4.79086 21 3 19.2091 3 17V4C3 3.44772 3.44772 3 4 3Z" fill="black" fill-opacity="0.4"/>
<path d="M14.0058 5V7H17.5649L14.7862 9.78101C14.6963 9.87201 14.4155 10 14.2866 10H12.7259C12.0675 10 11.2551 10.315 10.7895 10.781L7.29263 14.281C6.90246 14.672 6.90246 15.328 7.29263 15.719C7.48777 15.914 7.75515 16 8.01084 16C8.26652 16 8.5339 15.914 8.72904 15.719L12.2263 12.219C12.3162 12.128 12.597 12 12.7259 12H14.2866C14.945 12 15.7574 11.685 16.223 11.219L19.0017 8.43799V12H21V6C21 5.448 20.5524 5 20.0008 5H14.0058Z" fill="black"/>
</svg>
