<svg width="24" height="24" viewBox="0 0 24 24" fill="none" xmlns="http://www.w3.org/2000/svg">
<path fill-rule="evenodd" clip-rule="evenodd" d="M12 4C10.8954 4 10 4.89543 10 6V8C10 8.55228 9.55228 9 9 9C8.44772 9 8 8.55228 8 8V6C8 3.79086 9.79086 2 12 2C14.2091 2 16 3.79086 16 6V8C16 8.55228 15.5523 9 15 9C14.4477 9 14 8.55228 14 8V6C14 4.89543 13.1046 4 12 4Z" fill="black" fill-opacity="0.4"/>
<path fill-rule="evenodd" clip-rule="evenodd" d="M14 7H10V7.98584C10 8.53812 9.55228 8.98584 9 8.98584C8.44772 8.98584 8 8.53812 8 7.98584V7H7.99347H7.96248C6.27748 7 4.78648 8.08699 4.23848 9.68799C4.09648 10.102 3.94147 10.872 3.76947 12C3.68947 12.526 3.60547 13.129 3.51947 13.781C3.39947 14.684 3.04947 17.844 3.04947 17.844C2.69847 20.09 4.18948 22 6.39748 22H17.5995C19.8075 22 21.2985 20.09 20.9475 17.844C20.9505 17.848 20.9625 17.732 20.9475 17.562C20.9215 17.28 20.6495 14.686 20.5405 13.781C20.3165 11.918 20.1095 10.575 19.8835 9.875C19.8614 9.80606 19.8299 9.74204 19.8001 9.68145C19.7854 9.65152 19.771 9.62243 19.7585 9.59399C19.0695 8.02799 17.7535 7.027 16.0345 7H16.0035H16V7.98584C16 8.53812 15.5523 8.98584 15 8.98584C14.4477 8.98584 14 8.53812 14 7.98584V7Z" fill="black"/>
</svg>
