<svg width="24" height="24" viewBox="0 0 24 24" fill="none" xmlns="http://www.w3.org/2000/svg">
<path d="M4 21C4 20.4477 4.44772 20 5 20H17C17.5523 20 18 20.4477 18 21V21C18 21.5523 17.5523 22 17 22H5C4.44772 22 4 21.5523 4 21V21Z" fill="black" fill-opacity="0.4"/>
<path fill-rule="evenodd" clip-rule="evenodd" d="M10 4C9.44772 4 9 4.44772 9 5V10C9 10.5523 8.55228 11 8 11C7.44772 11 7 10.5523 7 10L7 6C5.89543 6 5 6.89543 5 8V12C5 13.8256 5.57811 15.9455 6.19174 17.6637C6.49441 18.5111 6.79738 19.2383 7.02429 19.7526C7.06361 19.8417 7.1006 19.9244 7.13485 20H5C4.98465 20 4.96938 20.0003 4.9542 20.001C4.75702 19.5304 4.53271 18.9648 4.30826 18.3363C3.67189 16.5545 3 14.1744 3 12V8C3 5.79086 4.79086 4 7 4H7.17071C7.58254 2.83481 8.69378 2 10 2C10.8885 2 11.6868 2.38625 12.2361 3H13C15.2091 3 17 4.79086 17 7V10.5484C17.5393 10.2331 18.2067 10 19 10C19.675 10 20.2477 10.1716 20.7109 10.4804C21.1679 10.7851 21.4601 11.1842 21.6444 11.5528C21.8268 11.9175 21.913 12.2701 21.9551 12.5231C22.01 12.8521 22.0374 13.2147 21.8575 13.5145C21.0714 14.8246 19.5337 16.8712 18.2269 18.5514C17.8187 19.0762 17.4288 19.5707 17.0847 20.0035C17.0568 20.0012 17.0285 20 17 20H14.5241C14.6379 19.8593 14.7809 19.6822 14.9468 19.4755C15.3898 18.9236 15.9959 18.1622 16.6481 17.3236C17.8658 15.758 19.2065 13.9716 19.9666 12.7704C19.9441 12.6673 19.9087 12.5535 19.8556 12.4472C19.7899 12.3158 19.7071 12.2149 19.6015 12.1446C19.5023 12.0784 19.325 12 19 12C18.3588 12 17.8481 12.3161 17.4571 12.7071C17.2643 12.8999 17.1174 13.0954 17.0196 13.2422C16.9712 13.3148 16.9363 13.3732 16.9151 13.4102L16.9046 13.4288L16.8941 13.4481L16.8932 13.4497L16.8919 13.4523C16.6832 13.8638 16.2198 14.0794 15.7702 13.9732C15.3189 13.8667 15 13.4638 15 13V7C15 5.89543 14.1046 5 13 5V10C13 10.5523 12.5523 11 12 11C11.4477 11 11 10.5523 11 10V5C11 4.44772 10.5523 4 10 4Z" fill="black"/>
</svg>
