<svg width="24" height="24" viewBox="0 0 24 24" fill="none" xmlns="http://www.w3.org/2000/svg">
<path d="M5 19H19V20C19 21.1046 18.1046 22 17 22H7C5.89543 22 5 21.1046 5 20V19Z" fill="black" fill-opacity="0.4"/>
<path d="M13.9615 2.01471C12.5215 1.98669 12.0035 3.03754 12.0035 4.03537C12.0035 4.03537 11.9925 6.09709 12.0035 7.73745C11.4415 7.33912 10.7705 7.05788 9.79551 7.05488C8.79452 7.05087 7.81353 7.5563 7.41753 8.05672C5.87753 7.69442 4.91354 8.19783 4.49954 8.46606C3.49854 9.11259 2.99854 10.3226 2.99854 11.0472V12.0083C2.99854 16.0117 5 19.0142 5 19.0142C7.00001 19.0142 19 19.0142 19 19.0142C20 18.0133 20.9985 16.0117 20.9985 14.0437C20.9985 12.5875 20.3015 11.6007 19.4605 10.9811C18.7575 10.4627 17.6685 10.5318 16.9965 10.9712C17.0035 11.6437 16.9965 13.0459 16.9965 13.0459C16.9965 14.0437 16.0055 14.0187 16.0055 14.0187V4.03537C16.0055 3.03754 15.4005 2.04173 13.9615 2.01471Z" fill="black"/>
</svg>
