<svg width="24" height="24" viewBox="0 0 24 24" fill="none" xmlns="http://www.w3.org/2000/svg">
<path d="M12 22C13.9891 22 14.9933 21 15 19C15.0067 17 13.9891 14.9777 13.9891 14.9777L17.6151 14.9757C18.6141 14.9757 19.9791 14.0757 19.9981 12.7677C20.0131 11.7197 19.5101 11.0507 19.0241 10.5137C19.8591 9.77068 19.9981 8.99767 19.9981 8.19367C19.9981 7.37667 19.5581 6.53367 18.9621 5.97367C18.9921 4.15767 18.0601 2.96566 16.4281 2.42166C15.3481 2.06066 14.5 2.00003 13 2.00003C11.0768 2.00003 7.00005 3.00001 7.00005 3.00001C7.00013 4.00001 6.9999 13.0785 7.00005 16C11 17.5 10.991 20.308 11 21C11.006 21.513 11.31 22.039 12 22Z" fill="black"/>
<path d="M7 3.00003V16H6C4.89543 16 4 15.1046 4 14V5.00003C4 3.89546 4.89543 3.00003 6 3.00003H7Z" fill="black" fill-opacity="0.4"/>
</svg>
