<svg width="24" height="24" viewBox="0 0 24 24" fill="none" xmlns="http://www.w3.org/2000/svg">
<path d="M5 19H18V20C18 21.1046 17.1046 22 16 22H7C5.89543 22 5 21.1046 5 20V19Z" fill="black" fill-opacity="0.4"/>
<path fill-rule="evenodd" clip-rule="evenodd" d="M13 5C13 4.44772 13.4477 4 14 4C14.5523 4 15 4.44772 15 5V13C15 13.5523 15.4477 14 16 14C16.3925 14 16.7322 13.7738 16.8959 13.4447C16.8998 13.4375 16.9062 13.4258 16.9151 13.4102C16.9363 13.3732 16.9712 13.3148 17.0196 13.2422C17.1175 13.0954 17.2643 12.8999 17.4571 12.7071C17.8481 12.3161 18.3588 12 19 12C19.325 12 19.5023 12.0784 19.6016 12.1446C19.7071 12.2149 19.7899 12.3158 19.8556 12.4472C19.9087 12.5535 19.9441 12.6673 19.9667 12.7704C19.2066 13.9716 17.8658 15.758 16.6482 17.3236C16.1671 17.9421 15.7112 18.5186 15.3273 19H17.8767C17.9915 18.8535 18.1084 18.7038 18.2269 18.5514C19.5338 16.8712 21.0714 14.8246 21.8575 13.5145C22.0375 13.2144 22.0104 12.8543 21.9552 12.5231C21.913 12.2701 21.8268 11.9175 21.6444 11.5528C21.4601 11.1842 21.168 10.7851 20.711 10.4804C20.2477 10.1716 19.675 10 19 10C18.2067 10 17.5393 10.2331 17 10.5484V5C17 3.34315 15.6569 2 14 2C12.3431 2 11 3.34315 11 5V7.17071C10.6872 7.06015 10.3506 7 10 7C9.1115 7 8.31321 7.38625 7.76389 8H7C4.79086 8 3 9.79086 3 12V13C3 15.0085 3.85023 16.941 4.63176 18.3086C4.77227 18.5545 4.91268 18.7858 5.04867 19H7.48194C7.43774 18.942 7.38923 18.8773 7.33713 18.8064C7.07303 18.4469 6.72023 17.9323 6.36824 17.3164C5.64977 16.059 5 14.4915 5 13V12C5 10.8954 5.89543 10 7 10V11C7 11.5523 7.44772 12 8 12C8.55228 12 9 11.5523 9 11V10C9 9.44772 9.44772 9 10 9C10.5523 9 11 9.44772 11 10V11C11 11.5523 11.4477 12 12 12C12.5523 12 13 11.5523 13 11V10V5Z" fill="black"/>
</svg>
