<svg width="24" height="24" viewBox="0 0 24 24" fill="none" xmlns="http://www.w3.org/2000/svg">
<path d="M5.99829 3C4.34129 3 2.99829 4.343 2.99829 6V8C2.99829 9.657 4.34129 11 5.99829 11H17.9983C19.6553 11 20.9983 9.657 20.9983 8V6C20.9983 4.343 19.6553 3 17.9983 3H5.99829ZM5.99829 5H17.9983C18.5503 5 18.9983 5.448 18.9983 6V8C18.9983 8.552 18.5503 9 17.9983 9H5.99829C5.44629 9 4.99829 8.552 4.99829 8V6C4.99829 5.448 5.44629 5 5.99829 5ZM6.99829 6C6.44629 6 5.99829 6.448 5.99829 7C5.99829 7.552 6.44629 8 6.99829 8C7.55029 8 7.99829 7.552 7.99829 7C7.99829 6.448 7.55029 6 6.99829 6ZM9.99829 6C9.44629 6 8.99829 6.448 8.99829 7C8.99829 7.552 9.44629 8 9.99829 8C10.5503 8 10.9983 7.552 10.9983 7C10.9983 6.448 10.5503 6 9.99829 6Z" fill="black"/>
<path d="M6 13C4.343 13 3 14.343 3 16V18C3 19.657 4.343 21 6 21H18C19.657 21 21 19.657 21 18V16C21 14.343 19.657 13 18 13H6ZM6 15H18C18.552 15 19 15.448 19 16V18C19 18.552 18.552 19 18 19H6C5.448 19 5 18.552 5 18V16C5 15.448 5.448 15 6 15ZM7 16C6.448 16 6 16.448 6 17C6 17.552 6.448 18 7 18C7.552 18 8 17.552 8 17C8 16.448 7.552 16 7 16ZM10 16C9.448 16 9 16.448 9 17C9 17.552 9.448 18 10 18C10.552 18 11 17.552 11 17C11 16.448 10.552 16 10 16Z" fill="black" fill-opacity="0.4"/>
</svg>
