<svg width="24" height="24" viewBox="0 0 24 24" fill="none" xmlns="http://www.w3.org/2000/svg">
<path d="M10.9075 2.24383L5.37645 4.96372C4.72645 5.28482 4.15945 6.03708 4.00145 6.74531L2.62645 12.9033C2.46945 13.6076 2.65244 14.5229 3.09544 15.0921L6.93945 19.9997C7.38745 20.5769 8.23844 21 8.97044 21H15.0954C15.8264 21 16.6775 20.5769 17.1265 19.9997L20.9395 15.0921C21.3815 14.5229 21.5955 13.6076 21.4395 12.9033L20.0634 6.74531C19.9064 6.03708 19.3395 5.28482 18.6895 4.96372L13.1575 2.24383C12.4995 1.91872 11.5655 1.91872 10.9075 2.24383ZM11.7825 4.02542C11.8825 3.97641 12.1825 3.97641 12.2825 4.02542L17.7825 6.74531C17.8905 6.79833 18.0694 7.03441 18.0954 7.15145L19.4704 13.3415C19.4974 13.4625 19.4535 13.7426 19.3765 13.8416L15.5325 18.7803C15.4625 18.8703 15.2094 18.9993 15.0954 18.9993H8.97044C8.85644 18.9993 8.60245 18.8703 8.53245 18.7803L4.68945 13.8416C4.61245 13.7426 4.53644 13.4625 4.56344 13.3415L5.93945 7.15145C5.96545 7.03441 6.14345 6.79833 6.25145 6.74531L11.7825 4.02542Z" fill="black"/>
<path d="M11.7824 4.03893C11.8824 3.98995 12.1824 3.98995 12.2824 4.03893L17.7824 6.75689C17.8904 6.80987 18.0694 7.04578 18.0954 7.16274L19.4704 13.3484C19.4974 13.4693 19.4534 13.7492 19.3764 13.8482L15.5324 18.7833C15.4624 18.8733 15.2094 19.0022 15.0954 19.0022H8.97042C8.85642 19.0022 8.60244 18.8733 8.53244 18.7833L4.68943 13.8482C4.61243 13.7492 4.53642 13.4693 4.56342 13.3484L5.93943 7.16274C5.96543 7.04578 6.14343 6.80987 6.25143 6.75689L11.7824 4.03893Z" fill="black" fill-opacity="0.4"/>
</svg>
