<svg width="24" height="24" viewBox="0 0 24 24" fill="none" xmlns="http://www.w3.org/2000/svg">
<path d="M8.02913 22C5.71833 22 4.00702 20.446 3.99782 18C3.99542 17.35 4.19222 16.675 4.56032 15.938C4.84852 15.36 5.22812 14.765 5.68532 14.156C6.03292 13.694 6.40873 13.254 6.77913 12.844C6.87773 12.734 6.91973 12.677 6.99783 12.594V11.406C6.91963 11.323 6.87773 11.266 6.77913 11.156C6.40873 10.746 6.03292 10.306 5.68532 9.84399C5.22812 9.23499 4.84852 8.64001 4.56032 8.06201C4.19232 7.32501 3.99542 6.65 3.99782 6C4.00702 3.554 5.71833 2 8.02913 2H16.0288C18.3368 2 20.0068 3.549 19.9978 6C19.9958 6.647 19.8038 7.32701 19.4358 8.06201C19.1478 8.63601 18.7638 9.23799 18.3108 9.84399C17.9628 10.308 17.5868 10.744 17.2168 11.156C17.1178 11.266 17.0758 11.323 16.9978 11.406V12.594C17.0758 12.677 17.1178 12.734 17.2168 12.844C17.5868 13.256 17.9628 13.692 18.3108 14.156C18.7638 14.762 19.1478 15.364 19.4358 15.938C19.8038 16.673 19.9958 17.353 19.9978 18C20.0068 20.451 18.3368 22 16.0288 22H8.02913ZM8.02913 20H16.0288C17.2628 20 18.0028 19.308 17.9978 18C17.9968 17.71 17.8648 17.296 17.6228 16.812C17.3948 16.357 17.0728 15.861 16.6858 15.344C16.3768 14.931 16.0498 14.527 15.7168 14.156C15.5178 13.935 15.3608 13.801 15.2788 13.719C15.0918 13.531 14.9978 13.265 14.9978 13V11C14.9978 10.735 15.0918 10.469 15.2788 10.281C15.3608 10.199 15.5178 10.065 15.7168 9.84399C16.0498 9.47299 16.3768 9.06901 16.6858 8.65601C17.0728 8.13901 17.3948 7.64299 17.6228 7.18799C17.8648 6.70399 17.9968 6.29 17.9978 6C18.0028 4.692 17.2628 4 16.0288 4H8.02913C6.78013 4 6.00272 4.7 5.99782 6C5.99672 6.288 6.13232 6.70599 6.37282 7.18799C6.60083 7.64399 6.92033 8.13701 7.31033 8.65601C7.61903 9.06701 7.94633 9.47499 8.27913 9.84399C8.47753 10.064 8.63463 10.2 8.71663 10.281C8.90463 10.469 8.99783 10.734 8.99783 11V13C8.99783 13.266 8.90473 13.531 8.71663 13.719C8.63463 13.8 8.47753 13.936 8.27913 14.156C7.94633 14.525 7.61903 14.933 7.31033 15.344C6.92033 15.863 6.60072 16.356 6.37282 16.812C6.13232 17.294 5.99682 17.712 5.99782 18C6.00272 19.3 6.78023 20 8.02913 20Z" fill="black"/>
<path d="M12 10C11 10 9 8 8 6H16C15 8 13 10 12 10Z" fill="black" fill-opacity="0.4"/>
</svg>
