<svg width="24" height="24" viewBox="0 0 24 24" fill="none" xmlns="http://www.w3.org/2000/svg">
<path d="M8.03122 2C5.72052 2 4.00922 3.554 4.00002 6C3.99762 6.65 4.19442 7.32501 4.56252 8.06201C4.85072 8.64001 5.23032 9.23499 5.68752 9.84399C6.03502 10.306 6.41092 10.746 6.78122 11.156C6.87992 11.266 6.92182 11.323 7.00002 11.406V12.594C6.92182 12.677 6.87992 12.734 6.78122 12.844C6.41092 13.254 6.03502 13.694 5.68752 14.156C5.23032 14.765 4.85072 15.36 4.56252 15.938C4.19442 16.675 3.99762 17.35 4.00002 18C4.00922 20.446 5.72052 22 8.03122 22H16.0312C18.3388 22 20.0092 20.451 20 18C19.9976 17.353 19.8056 16.673 19.4375 15.938C19.1502 15.364 18.7656 14.762 18.3125 14.156C17.9651 13.692 17.5889 13.256 17.2188 12.844C17.1202 12.734 17.0781 12.677 17 12.594V11.406C17.0781 11.323 17.1202 11.266 17.2188 11.156C17.5889 10.744 17.9651 10.308 18.3125 9.84399C18.7656 9.23799 19.1502 8.63601 19.4375 8.06201C19.8056 7.32701 19.9976 6.647 20 6C20.0092 3.549 18.3388 2 16.0312 2H8.03122ZM8.03122 4H16.0312C17.2646 4 18.0049 4.692 18 6C17.9989 6.29 17.8671 6.70399 17.625 7.18799C17.3972 7.64299 17.0746 8.13901 16.6875 8.65601C16.3787 9.06901 16.0517 9.47299 15.7188 9.84399C15.5202 10.065 15.3633 10.199 15.2812 10.281C15.0943 10.469 15 10.735 15 11V13C15 13.265 15.0943 13.531 15.2812 13.719C15.3633 13.801 15.5202 13.935 15.7188 14.156C16.0517 14.527 16.3787 14.931 16.6875 15.344C17.0746 15.861 17.3972 16.357 17.625 16.812C17.8671 17.296 17.9989 17.71 18 18C18.0049 19.308 17.2646 20 16.0312 20H8.03122C6.78232 20 6.00492 19.3 6.00002 18C5.99892 17.712 6.13452 17.294 6.37502 16.812C6.60292 16.356 6.92252 15.863 7.31252 15.344C7.62122 14.933 7.94852 14.525 8.28122 14.156C8.47972 13.936 8.63682 13.8 8.71882 13.719C8.90682 13.531 9.00002 13.266 9.00002 13V11C9.00002 10.734 8.90682 10.469 8.71882 10.281C8.63682 10.2 8.47972 10.064 8.28122 9.84399C7.94852 9.47499 7.62122 9.06701 7.31252 8.65601C6.92252 8.13701 6.60292 7.64399 6.37502 7.18799C6.13452 6.70599 5.99892 6.288 6.00002 6C6.00492 4.7 6.78232 4 8.03122 4Z" fill="black" fill-opacity="0.4"/>
<path fill-rule="evenodd" clip-rule="evenodd" d="M11 13C10.4477 13 10 13.4477 10 14C10 14.5523 10.4477 15 11 15H13C13.5523 15 14 14.5523 14 14C14 13.4477 13.5523 13 13 13H11ZM10 16C9.44772 16 9 16.4477 9 17C9 17.5523 9.44772 18 10 18H14C14.5523 18 15 17.5523 15 17C15 16.4477 14.5523 16 14 16H10Z" fill="black"/>
</svg>
