<svg width="24" height="24" viewBox="0 0 24 24" fill="none" xmlns="http://www.w3.org/2000/svg">
<path d="M8.02913 2C5.71833 2 4.00702 3.554 3.99782 6C3.99542 6.65 4.19222 7.32501 4.56032 8.06201C4.84852 8.64001 5.22812 9.23499 5.68532 9.84399C6.03292 10.306 6.40873 10.746 6.77913 11.156C6.87773 11.266 6.91973 11.323 6.99783 11.406V12.594C6.91963 12.677 6.87773 12.734 6.77913 12.844C6.40873 13.254 6.03292 13.694 5.68532 14.156C5.22812 14.765 4.84852 15.36 4.56032 15.938C4.19232 16.675 3.99542 17.35 3.99782 18C4.00702 20.446 5.71833 22 8.02913 22H16.0288C18.3368 22 20.0068 20.451 19.9978 18C19.9958 17.353 19.8038 16.673 19.4358 15.938C19.1478 15.364 18.7638 14.762 18.3108 14.156C17.9628 13.692 17.5868 13.256 17.2168 12.844C17.1178 12.734 17.0758 12.677 16.9978 12.594V11.406C17.0758 11.323 17.1178 11.266 17.2168 11.156C17.5868 10.744 17.9628 10.308 18.3108 9.84399C18.7638 9.23799 19.1478 8.63601 19.4358 8.06201C19.8038 7.32701 19.9958 6.647 19.9978 6C20.0068 3.549 18.3368 2 16.0288 2H8.02913ZM8.02913 4H16.0288C17.2628 4 18.0028 4.692 17.9978 6C17.9968 6.29 17.8648 6.70399 17.6228 7.18799C17.3948 7.64299 17.0728 8.13901 16.6858 8.65601C16.3768 9.06901 16.0498 9.47299 15.7168 9.84399C15.5178 10.065 15.3608 10.199 15.2788 10.281C15.0918 10.469 14.9978 10.735 14.9978 11V13C14.9978 13.265 15.0918 13.531 15.2788 13.719C15.3608 13.801 15.5178 13.935 15.7168 14.156C16.0498 14.527 16.3768 14.931 16.6858 15.344C17.0728 15.861 17.3948 16.357 17.6228 16.812C17.8648 17.296 17.9968 17.71 17.9978 18C18.0028 19.308 17.2628 20 16.0288 20H8.02913C6.78013 20 6.00272 19.3 5.99782 18C5.99672 17.712 6.13232 17.294 6.37282 16.812C6.60083 16.356 6.92033 15.863 7.31033 15.344C7.61903 14.933 7.94633 14.525 8.27913 14.156C8.47753 13.936 8.63463 13.8 8.71663 13.719C8.90463 13.531 8.99783 13.266 8.99783 13V11C8.99783 10.734 8.90473 10.469 8.71663 10.281C8.63463 10.2 8.47753 10.064 8.27913 9.84399C7.94633 9.47499 7.61903 9.06701 7.31033 8.65601C6.92033 8.13701 6.60072 7.64399 6.37282 7.18799C6.13232 6.70599 5.99682 6.288 5.99782 6C6.00272 4.7 6.78023 4 8.02913 4Z" fill="black"/>
<path d="M9.0918 8.01421C10.0238 9.17273 10.9978 9.60917 10.9978 11.0104C10.9978 13.0078 10.9978 12.4076 10.9978 13.0078C10.9978 15.0053 8.9978 15.0053 7.9978 18.0015H15.9978C14.9978 15.0053 12.9978 15.0053 12.9978 13.0078C12.9978 12.6303 12.9978 12.0091 12.9978 11.0104C12.9978 9.60818 13.9708 9.17473 14.9038 8.01421C13.9858 7.99823 10.0078 7.99623 9.0918 8.01421Z" fill="black" fill-opacity="0.4"/>
</svg>
