<svg width="24" height="24" viewBox="0 0 24 24" fill="none" xmlns="http://www.w3.org/2000/svg">
<path d="M10.9972 9.00488C10.4452 9.00488 9.99722 9.45248 9.99722 10.004C9.99722 10.5555 10.4452 11.0031 10.9972 11.0031H11.4032C10.6832 12.5167 9.50222 14.9935 9.30922 15.3741C8.57522 16.8258 9.19122 18.3254 10.4972 18.84C11.7112 19.3175 13.2102 18.7241 13.8722 17.4972C14.1342 17.0116 13.9522 16.3852 13.4662 16.1234C12.9802 15.8617 12.3842 16.0435 12.1222 16.5291C11.9292 16.8877 11.4932 17.0636 11.2472 16.9667C11.0122 16.8737 10.9002 16.656 11.0912 16.2793C11.3562 15.7558 12.3852 13.6327 12.4032 13.5947C12.7322 12.9043 13.8802 10.4905 13.9032 10.4416C14.2142 9.77817 13.7292 9.00488 12.9972 9.00488H10.9972Z" fill="black" fill-opacity="0.4"/>
<circle cx="12" cy="6" r="1" fill="black"/>
</svg>
