<svg width="24" height="24" viewBox="0 0 24 24" fill="none" xmlns="http://www.w3.org/2000/svg">
<path d="M6.99829 3C4.78929 3 2.99829 4.79101 2.99829 7.00001V17C2.99829 19.2091 4.78929 21.0001 6.99829 21.0001H16.9983C19.2073 21.0001 20.9983 19.2091 20.9983 17V7.00001C20.9983 4.79101 19.2073 3 16.9983 3H6.99829Z" fill="black" fill-opacity="0.4"/>
<path d="M12 7C11.448 7 11 7.448 11 8C11 8.55201 11.448 9.00001 12 9.00001C12.552 9.00001 13 8.55201 13 8C13 7.448 12.552 7 12 7ZM11 10C10.448 10 10 10.448 10 11C10 11.482 10.359 11.842 10.812 11.938L10.219 14.812C9.98699 15.973 10.817 17 12 17H13C13.552 17 14 16.552 14 16C14 15.448 13.552 15 13 15H12.219L12.969 11.188C13.093 10.569 12.631 10 12 10C11.874 10 11.162 10 11 10Z" fill="black"/>
</svg>
