<svg width="24" height="24" viewBox="0 0 24 24" fill="none" xmlns="http://www.w3.org/2000/svg">
<path fill-rule="evenodd" clip-rule="evenodd" d="M5 6C5 4.34315 6.34315 3 8 3H18C19.6569 3 21 4.34315 21 6V18C21 19.6569 19.6569 21 18 21H8C6.34315 21 5 19.6569 5 18V6Z" fill="black" fill-opacity="0.4"/>
<path fill-rule="evenodd" clip-rule="evenodd" d="M5 6C5 5.64936 5.06015 5.31278 5.17071 5H4C3.44772 5 3 5.44772 3 6C3 6.55228 3.44772 7 4 7H5V6ZM5 18V17H4C3.44772 17 3 17.4477 3 18C3 18.5523 3.44772 19 4 19H5.17071C5.06015 18.6872 5 18.3506 5 18ZM4 15H5V13H4C3.44772 13 3 13.4477 3 14C3 14.5523 3.44772 15 4 15ZM5 11V9H4C3.44772 9 3 9.44772 3 10C3 10.5523 3.44772 11 4 11H5ZM11.9983 6.94415C11.9983 6.39085 12.4463 5.94234 12.9983 5.94234C13.5503 5.94234 13.9983 6.39085 13.9983 6.94415C14.5503 6.94415 14.9983 7.39267 14.9983 7.94597C14.9983 8.49927 14.5503 8.94778 13.9983 8.94778C13.9983 9.50109 13.5503 9.9496 12.9983 9.9496C12.4463 9.9496 11.9983 9.50109 11.9983 8.94778C11.4463 8.94778 10.9983 8.49927 10.9983 7.94597C10.9983 7.39267 11.4463 6.94415 11.9983 6.94415ZM8.99829 12.9532C8.99829 12.3999 9.44629 11.9514 9.99829 11.9514H15.9983C16.5503 11.9514 16.9983 12.3999 16.9983 12.9532C16.9983 13.5065 16.5503 13.955 15.9983 13.955H9.99829C9.44629 13.955 8.99829 13.5065 8.99829 12.9532ZM8.99829 16.9587C8.99829 16.4054 9.44629 15.9569 9.99829 15.9569H15.9983C16.5503 15.9569 16.9983 16.4054 16.9983 16.9587C16.9983 17.512 16.5503 17.9605 15.9983 17.9605H9.99829C9.44629 17.9605 8.99829 17.512 8.99829 16.9587Z" fill="black"/>
</svg>
