<svg width="24" height="24" viewBox="0 0 24 24" fill="none" xmlns="http://www.w3.org/2000/svg">
<path d="M16.9997 9.00127C16.9999 7.34431 15.6567 6.0016 13.9997 6.0016L6.99902 6.0016C6.08452 5.9648 4.68092 6.5622 4.15532 8.0329L2.99902 8.0016C2.44672 8.0016 1.99892 8.4483 1.99902 9.0016C1.99902 9.5549 2.44672 10.0021 2.99902 10.0011H3.99902V11.0011H2.99902C2.44672 11.0011 1.99892 11.4481 1.99902 12.0011C1.99902 12.5551 2.44672 13.0011 2.99902 13.0011H3.99902V14.0011H2.99902C2.44672 14.0011 1.99892 14.4481 1.99902 15.0011C1.99902 15.5551 2.44672 16.0021 2.99902 16.0011H3.99902V17.0011H2.99902C2.44672 17.0011 1.99892 17.4481 1.99902 18.0011C1.99902 18.5551 2.44672 19.0021 2.99902 19.0011H3.99902C3.99902 20.6581 5.34212 22.0021 6.99902 22.0011H13.999C15.6559 22.0011 16.999 20.6581 16.999 19.0011C16.999 17.3728 16.9994 12.3071 16.9997 9.00127Z" fill="black"/>
<path fill-rule="evenodd" clip-rule="evenodd" d="M11 4C10.4477 4 10 4.44772 10 5V6H8V5C8 3.34315 9.34315 2 11 2H18C19.6569 2 21 3.34315 21 5V15C21 16.6569 19.6569 18 18 18H17V16H18C18.5523 16 19 15.5523 19 15V5C19 4.44772 18.5523 4 18 4H11Z" fill="black" fill-opacity="0.4"/>
</svg>
