<svg width="24" height="24" viewBox="0 0 24 24" fill="none" xmlns="http://www.w3.org/2000/svg">
<path fill-rule="evenodd" clip-rule="evenodd" d="M8 3C6.34315 3 5 4.34315 5 6V18C5 19.6569 6.34315 21 8 21H18C19.6569 21 21 19.6569 21 18V12.0042C20.999 12.3716 20.796 12.7088 20.4715 12.882C20.1461 13.0557 19.7514 13.0364 19.4446 12.8318L19 12.5353V18C19 18.5523 18.5523 19 18 19H8C7.44772 19 7 18.5523 7 18V6C7 5.44772 7.44772 5 8 5H13V3H8Z" fill="black" fill-opacity="0.4"/>
<path fill-rule="evenodd" clip-rule="evenodd" d="M18 3H13V12.0014C13 12.3699 13.2031 12.7083 13.5285 12.882C13.8539 13.0557 14.2486 13.0364 14.5554 12.8318L17 11.2015L19.4446 12.8318C19.7514 13.0364 20.1461 13.0557 20.4715 12.882C20.7969 12.7083 21 12.3699 21 12.0014V5.99927C21 4.3445 19.6586 3 18 3ZM15 10.1338V5.0223H17.9983C18.5506 5.0223 18.9983 5.47016 18.9983 6.02266V7.99208H19V10.1338L17.5554 9.17035C17.2192 8.94612 16.7808 8.94612 16.4446 9.17035L15 10.1338ZM5 6C5 5.64936 5.06015 5.31278 5.17071 5H4C3.44772 5 3 5.44772 3 6C3 6.55228 3.44772 7 4 7H5V6ZM5 18V17H4C3.44772 17 3 17.4477 3 18C3 18.5523 3.44772 19 4 19H5.17071C5.06015 18.6872 5 18.3506 5 18ZM4 15H5V13H4C3.44772 13 3 13.4477 3 14C3 14.5523 3.44772 15 4 15ZM5 11V9H4C3.44772 9 3 9.44772 3 10C3 10.5523 3.44772 11 4 11H5Z" fill="black"/>
</svg>
