<svg width="24" height="24" viewBox="0 0 24 24" fill="none" xmlns="http://www.w3.org/2000/svg">
<path fill-rule="evenodd" clip-rule="evenodd" d="M10 12.882L3.55279 16.1056C3.214 16.275 3 16.6212 3 17C3 17.3788 3.214 17.725 3.55279 17.8944L11.5528 21.8944C11.8343 22.0352 12.1657 22.0352 12.4472 21.8944L20.4472 17.8944C20.786 17.725 21 17.3788 21 17C21 16.6212 20.786 16.275 20.4472 16.1056L14 12.882V15C14 16.1046 13.1046 17 12 17C10.8954 17 10 16.1046 10 15V12.882Z" fill="black" fill-opacity="0.4"/>
<path fill-rule="evenodd" clip-rule="evenodd" d="M12 2C9.79086 2 8 3.79086 8 6C8 7.50637 8.83269 8.81827 10.0629 9.50049C10.0218 9.66015 10 9.82753 10 10V15C10 16.1046 10.8954 17 12 17C13.1046 17 14 16.1046 14 15V10C14 9.82753 13.9782 9.66015 13.9371 9.50049C15.1673 8.81827 16 7.50637 16 6C16 3.79086 14.2091 2 12 2Z" fill="black"/>
</svg>
