<svg width="24" height="24" viewBox="0 0 24 24" fill="none" xmlns="http://www.w3.org/2000/svg">
<path fill-rule="evenodd" clip-rule="evenodd" d="M13 9.97833C12.9997 9.99227 12.9997 10.0062 13 10.0201V9.97833ZM9.05776 11.5891L6.23607 13L12 15.882L17.7639 13L14.9422 11.5891C14.9801 11.3988 15 11.2019 15 11.0003V9.38196L20.4276 12.0958C20.5018 12.1309 20.571 12.1749 20.6338 12.2264C20.677 12.2618 20.7169 12.3006 20.7533 12.3423C20.9069 12.5181 21 12.7482 21 13V17C21 17.3788 20.786 17.725 20.4472 17.8944L12.4472 21.8944C12.1657 22.0352 11.8343 22.0352 11.5528 21.8944L3.55279 17.8944C3.214 17.725 3 17.3788 3 17V13V13C3 12.6882 3.14265 12.4098 3.36623 12.2264C3.42901 12.1749 3.49818 12.1309 3.57237 12.0958L9 9.38196V11.0003C9 11.2019 9.01987 11.3988 9.05776 11.5891ZM11 10.0201C11.0003 10.0062 11.0003 9.99227 11 9.97832V10.0201ZM12.4472 17.8944L19 14.618V16.382L12 19.882L5 16.382V14.618L11.5528 17.8944C11.8343 18.0352 12.1657 18.0352 12.4472 17.8944Z" fill="black" fill-opacity="0.4"/>
<path fill-rule="evenodd" clip-rule="evenodd" d="M12 4C10.8954 4 10 4.89543 10 6C10 6.59224 10.2562 7.12333 10.6669 7.49097L11 7.78909L11 11.0004C11 11.5524 11.4475 12 12 12C12.5525 12 13 11.5524 13 11.0004V7.78909L13.3331 7.49097C13.7439 7.12333 14 6.59224 14 6C14 4.89543 13.1046 4 12 4ZM8 6C8 3.79086 9.79086 2 12 2C14.2091 2 16 3.79086 16 6C16 7.01438 15.6215 7.94132 15 8.64575V11.0004C15 12.6574 13.6566 14 12 14C10.3434 14 9 12.6574 9 11.0004V8.64575C8.37852 7.94132 8 7.01438 8 6Z" fill="black"/>
</svg>
