<svg width="24" height="24" viewBox="0 0 24 24" fill="none" xmlns="http://www.w3.org/2000/svg">
<path d="M5 5C4.448 5 4 5.4477 4 6C4 6.5523 4.448 7 5 7H19C19.552 7 20 6.5523 20 6C20 5.4477 19.552 5 19 5H5ZM5 13C4.448 13 4 13.448 4 14C4 14.552 4.448 15 5 15H19C19.552 15 20 14.552 20 14C20 13.448 19.552 13 19 13H5Z" fill="black"/>
<path d="M5 9C4.448 9 4 9.4477 4 10C4 10.5523 4.448 11 5 11H19C19.552 11 20 10.5523 20 10C20 9.4477 19.552 9 19 9H5ZM5 17C4.448 17 4 17.448 4 18C4 18.552 4.448 19 5 19H19C19.552 19 20 18.552 20 18C20 17.448 19.552 17 19 17H5Z" fill="black" fill-opacity="0.4"/>
</svg>
