<svg width="24" height="24" viewBox="0 0 24 24" fill="none" xmlns="http://www.w3.org/2000/svg">
<path d="M19 9C19.552 9 20 9.4477 20 10C20 10.5523 19.552 11 19 11H5C4.448 11 4 10.5523 4 10C4 9.4477 4.448 9 5 9H19ZM19 17C19.552 17 20 17.448 20 18C20 18.552 19.552 19 19 19H9C8.448 19 8 18.552 8 18C8 17.448 8.448 17 9 17H19Z" fill="black" fill-opacity="0.4"/>
<path d="M19 5C19.552 5 20 5.4477 20 6C20 6.5523 19.552 7 19 7H5C4.448 7 4 6.5523 4 6C4 5.4477 4.448 5 5 5H19ZM19 13C19.552 13 20 13.448 20 14C20 14.552 19.552 15 19 15H5C4.448 15 4 14.552 4 14C4 13.448 4.448 13 5 13H19Z" fill="black"/>
</svg>
