<svg width="24" height="24" viewBox="0 0 24 24" fill="none" xmlns="http://www.w3.org/2000/svg">
<path fill-rule="evenodd" clip-rule="evenodd" d="M8 3H16V5H8V3ZM8 7H16V9H8V7ZM16 11H8V13H16V11ZM8 15H16V17H8V15ZM16 19H8V21H16V19Z" fill="black" fill-opacity="0.4"/>
<path fill-rule="evenodd" clip-rule="evenodd" d="M8 3C8 2.44772 7.55228 2 7 2C6.44772 2 6 2.44772 6 3V21C6 21.5523 6.44772 22 7 22C7.55228 22 8 21.5523 8 21V3ZM18 3C18 2.44772 17.5523 2 17 2C16.4477 2 16 2.44772 16 3V21C16 21.5523 16.4477 22 17 22C17.5523 22 18 21.5523 18 21V3Z" fill="black"/>
</svg>
