<svg width="24" height="24" viewBox="0 0 24 24" fill="none" xmlns="http://www.w3.org/2000/svg">
<path fill-rule="evenodd" clip-rule="evenodd" d="M10.3426 3.49367C11.3472 2.83544 12.6528 2.83544 13.6574 3.49367L21.548 8.66355C21.8301 8.84834 22 9.16282 22 9.5C22 9.83718 21.8301 10.1517 21.548 10.3365L13.6574 15.5063C12.6528 16.1646 11.3472 16.1646 10.3426 15.5063L2.45196 10.3365C2.16992 10.1517 2 9.83718 2 9.5C2 9.16282 2.16992 8.84834 2.45196 8.66355L10.3426 3.49367Z" fill="black"/>
<path fill-rule="evenodd" clip-rule="evenodd" d="M4.82469 14.5L6.81541 13.1957L4.99097 12L2.45196 13.6635C2.16992 13.8483 2 14.1628 2 14.5C2 14.8372 2.16992 15.1517 2.45196 15.3364L10.3426 20.5063C11.3472 21.1646 12.6528 21.1646 13.6574 20.5063L21.548 15.3364C21.8301 15.1517 22 14.8372 22 14.5C22 14.1628 21.8301 13.8483 21.548 13.6635L19 12L17.181 13.1933L19.1753 14.5L12.5614 18.8334C12.2224 19.0555 11.7776 19.0555 11.4386 18.8334L4.82469 14.5Z" fill="black" fill-opacity="0.4"/>
</svg>
