<svg width="24" height="24" viewBox="0 0 24 24" fill="none" xmlns="http://www.w3.org/2000/svg">
<path d="M17.8119 4C20.1059 4 21.9989 5.778 21.9989 8V16C21.9989 18.222 20.1059 20 17.8119 20H6.18689C3.89189 20 1.9989 18.222 1.9989 16V8C1.9989 5.778 3.89189 4 6.18689 4H17.8119ZM17.8119 6H6.18689C4.97189 6 3.9989 6.909 3.9989 8V16C3.9989 17.091 4.97189 18 6.18689 18H17.8119C19.0259 18 19.9989 17.091 19.9989 16V8C19.9989 6.909 19.0259 6 17.8119 6Z" fill="black" fill-opacity="0.4"/>
<path d="M6 9C6 8.44772 6.44772 8 7 8H9C9.55228 8 10 8.44772 10 9V15C10 15.5523 9.55228 16 9 16H7C6.44772 16 6 15.5523 6 15V9Z" fill="black"/>
</svg>
