<svg width="24" height="24" viewBox="0 0 24 24" fill="none" xmlns="http://www.w3.org/2000/svg">
<path d="M16.8125 3C19.1067 3 21 4.778 21 7V17C21 19.222 19.1067 21 16.8125 21H9V3H16.8125Z" fill="black" fill-opacity="0.4"/>
<path fill-rule="evenodd" clip-rule="evenodd" d="M3 17C3 19.222 4.7058 21 7 21V3C4.7058 3 3 4.778 3 7V17ZM17 7C17.5523 7 18 7.44772 18 8C18 8.55228 17.5523 9 17 9H13C12.4477 9 12 8.55228 12 8C12 7.44772 12.4477 7 13 7H17ZM18 16C18 15.4477 17.5523 15 17 15H13C12.4477 15 12 15.4477 12 16C12 16.5523 12.4477 17 13 17H17C17.5523 17 18 16.5523 18 16ZM17 11C17.5523 11 18 11.4477 18 12C18 12.5523 17.5523 13 17 13H13C12.4477 13 12 12.5523 12 12C12 11.4477 12.4477 11 13 11H17Z" fill="black"/>
</svg>
