<svg width="24" height="24" viewBox="0 0 24 24" fill="none" xmlns="http://www.w3.org/2000/svg">
<path fill-rule="evenodd" clip-rule="evenodd" d="M3 7C3 4.79086 4.79086 3 7 3H17C19.2091 3 21 4.79086 21 7V9V17C21 19.2091 19.2091 21 17 21H15V9H3V7ZM17 9V19C18.1046 19 19 18.1046 19 17V9H17ZM7 5C5.89543 5 5 5.89543 5 7H19C19 5.89543 18.1046 5 17 5H7Z" fill="black"/>
<path fill-rule="evenodd" clip-rule="evenodd" d="M3 17V9H5V17C5 18.1046 5.89543 19 8 19H15V21H8C4.79086 21 3 19.2091 3 17ZM13 16C13 16.5523 12.5523 17 12 17H8C7.44772 17 7 16.5523 7 16C7 15.4477 7.44772 15 8 15H12C12.5523 15 13 15.4477 13 16ZM13 12C13 12.5523 12.5523 13 12 13H8C7.44772 13 7 12.5523 7 12C7 11.4477 7.44772 11 8 11H12C12.5523 11 13 11.4477 13 12Z" fill="black" fill-opacity="0.4"/>
</svg>
