<svg width="24" height="24" viewBox="0 0 24 24" fill="none" xmlns="http://www.w3.org/2000/svg">
<path d="M7.1875 3C4.8933 3 3 4.778 3 7V17C3 19.222 4.8933 21 7.1875 21H15V3H7.1875Z" fill="black" fill-opacity="0.4"/>
<path fill-rule="evenodd" clip-rule="evenodd" d="M21 17C21 19.222 19.2942 21 17 21V3C19.2942 3 21 4.778 21 7V17ZM7 7C6.44772 7 6 7.44772 6 8C6 8.55228 6.44772 9 7 9H11C11.5523 9 12 8.55228 12 8C12 7.44772 11.5523 7 11 7H7ZM6 16C6 15.4477 6.44772 15 7 15H11C11.5523 15 12 15.4477 12 16C12 16.5523 11.5523 17 11 17H7C6.44772 17 6 16.5523 6 16ZM7 11C6.44772 11 6 11.4477 6 12C6 12.5523 6.44772 13 7 13H11C11.5523 13 12 12.5523 12 12C12 11.4477 11.5523 11 11 11H7Z" fill="black"/>
</svg>
