<svg width="24" height="24" viewBox="0 0 24 24" fill="none" xmlns="http://www.w3.org/2000/svg">
<path fill-rule="evenodd" clip-rule="evenodd" d="M8.00001 4H16V20H8.00001C7.99998 19.5 8.00001 5 8.00001 4ZM10 18H14V6H10V18Z" fill="black"/>
<path fill-rule="evenodd" clip-rule="evenodd" d="M5.99998 4H7.99998V6H5.99998C4.89542 6 3.99998 6.89543 3.99998 8V16C3.99998 17.1046 4.89542 18 5.99998 18H7.99998V20H5.99998C3.79085 20 1.99998 18.2091 1.99998 16V8C1.99998 5.79086 3.79085 4 5.99998 4ZM18 4H16V6H18C19.1046 6 20 6.89543 20 8V16C20 17.1046 19.1046 18 18 18H16V20H18C20.2091 20 22 18.2091 22 16V8C22 5.79086 20.2091 4 18 4Z" fill="black" fill-opacity="0.4"/>
</svg>
