<svg width="24" height="24" viewBox="0 0 24 24" fill="none" xmlns="http://www.w3.org/2000/svg">
<path d="M20 11C19.448 11 19 11.448 19 12C19 12.552 19.448 13 20 13C20.552 13 21 12.552 21 12C21 11.448 20.552 11 20 11ZM17 11.25C16.236 11.993 11.219 17 11.219 17H15C15 16 15.528 14.626 16 14C16.587 13.222 16.952 12.287 17 11.25ZM9 19C9 20.657 10.343 22 12 22C13.657 22 15 20.657 15 19H9Z" fill="black" fill-opacity="0.4"/>
<path d="M11.9935 2C11.4419 2 10.9943 2.4477 10.9943 2.99932C10.9943 3.55095 11.4419 3.99865 11.9935 3.99865C12.5451 3.99865 12.9928 3.55095 12.9928 2.99932C12.9928 2.4477 12.5451 2 11.9935 2ZM5.99785 4.99797C5.44624 4.99797 4.99856 5.44567 4.99856 5.9973C4.99856 6.54892 5.44624 6.99662 5.99785 6.99662C6.54945 6.99662 6.99713 6.54892 6.99713 5.9973C6.99713 5.44567 6.54945 4.99797 5.99785 4.99797ZM11.9935 4.99797C8.68192 4.99797 5.99785 7.68216 5.99785 10.9939C5.99785 12.302 6.41855 13.5582 7.185 14.5855C7.21797 14.6305 7.42182 14.8503 7.56772 15.0122L5.27937 17.2707C4.88965 17.6614 4.88965 18.317 5.27937 18.7077C5.67009 19.0974 6.32561 19.0974 6.71632 18.7077L18.7077 6.71581C19.0974 6.32507 19.0974 5.66953 18.7077 5.27879C18.5119 5.08392 18.245 4.99797 17.9892 4.99797C17.7334 4.99797 17.4836 5.09291 17.2877 5.28878L16.0176 6.53493C14.9394 5.56259 13.4975 4.99797 11.9935 4.99797ZM11.9935 6.99662C12.9638 6.99662 13.8982 7.35538 14.6077 7.96197L8.97371 13.5872C8.92274 13.5322 8.78085 13.3733 8.77686 13.3673C8.26622 12.6828 7.99641 11.8673 7.99641 10.9939C7.99641 8.78641 9.78613 6.99662 11.9935 6.99662ZM3.99928 10.9939C3.44768 10.9939 3 11.4416 3 11.9932C3 12.5449 3.44768 12.9926 3.99928 12.9926C4.55089 12.9926 4.99856 12.5449 4.99856 11.9932C4.99856 11.4416 4.55089 10.9939 3.99928 10.9939Z" fill="black"/>
</svg>
