<svg width="24" height="24" viewBox="0 0 24 24" fill="none" xmlns="http://www.w3.org/2000/svg">
<path d="M7 16C6.448 16 6 16.448 6 17C6 17.552 6.448 18 7 18H21C21.552 18 22 17.552 22 17C22 16.448 21.552 16 21 16H7Z" fill="black" fill-opacity="0.4"/>
<path d="M2.9989 6C2.4469 6 1.9989 6.45472 1.9989 7.01501C1.9989 7.5753 2.4469 8.03002 2.9989 8.03002H16.9989C17.5509 8.03002 17.9989 7.5753 17.9989 7.01501C17.9989 6.45472 17.5509 6 16.9989 6H2.9989ZM4.9989 10.97C4.4469 10.97 3.9989 11.4247 3.9989 11.985C3.9989 12.5453 4.4469 13 4.9989 13H18.9989C19.5509 13 19.9989 12.5453 19.9989 11.985C19.9989 11.4247 19.5509 10.97 18.9989 10.97H4.9989Z" fill="black"/>
</svg>
