<svg width="24" height="24" viewBox="0 0 24 24" fill="none" xmlns="http://www.w3.org/2000/svg">
<path d="M7 6C6.448 6 6 6.448 6 7C6 7.552 6.448 8 7 8H21C21.552 8 22 7.552 22 7C22 6.448 21.552 6 21 6H7ZM7 11C6.448 11 6 11.448 6 12C6 12.552 6.448 13 7 13H21C21.552 13 22 12.552 22 12C22 11.448 21.552 11 21 11H7ZM7 16C6.448 16 6 16.448 6 17C6 17.552 6.448 18 7 18H21C21.552 18 22 17.552 22 17C22 16.448 21.552 16 21 16H7Z" fill="black" fill-opacity="0.4"/>
<path d="M3 6C2.448 6 2 6.448 2 7C2 7.552 2.448 8 3 8C3.552 8 4 7.552 4 7C4 6.448 3.552 6 3 6ZM3 11C2.448 11 2 11.448 2 12C2 12.552 2.448 13 3 13C3.552 13 4 12.552 4 12C4 11.448 3.552 11 3 11ZM3 16C2.448 16 2 16.448 2 17C2 17.552 2.448 18 3 18C3.552 18 4 17.552 4 17C4 16.448 3.552 16 3 16Z" fill="black"/>
</svg>
