<svg width="24" height="24" viewBox="0 0 24 24" fill="none" xmlns="http://www.w3.org/2000/svg">
<path d="M7 9C5.343 9 4 10.343 4 12V19C4 20.657 5.343 22 7 22H17C18.657 22 20 20.657 20 19V12C20 10.343 18.657 9 17 9C16 9.00002 8 9.00003 7 9ZM7 11H17C17.552 11 18 11.448 18 12V19C18 19.552 17.552 20 17 20H7C6.448 20 6 19.552 6 19V12C6 11.448 6.448 11 7 11Z" fill="black" fill-opacity="0.4"/>
<path fill-rule="evenodd" clip-rule="evenodd" d="M9 7C9 5.34315 10.3431 4 12 4C13.6569 4 15 5.34315 15 7V9H17V7C17 4.23858 14.7614 2 12 2C9.23858 2 7 4.23858 7 7V9H9V7ZM9 15C9 13.343 10.343 12 12 12C13.657 12 15 13.343 15 15V16C15 17.657 13.657 19 12 19C10.343 19 9 17.657 9 16V15ZM13 15C13 14.448 12.552 14 12 14C11.448 14 11 14.448 11 15V16C11 16.552 11.448 17 12 17C12.552 17 13 16.552 13 16V15Z" fill="black"/>
</svg>
