<svg width="24" height="24" viewBox="0 0 24 24" fill="none" xmlns="http://www.w3.org/2000/svg">
<path d="M7 4C4.2386 4 2 6.239 2 9V18.969C2 19.521 2.4482 19.968 3 19.969L21 20C21.5528 20.001 22 19.553 22 19V9C22 6.239 19.7614 4 17 4H7ZM7 6C8.3834 6 10 7.319 10 9V18L4 17.937V9C4 7.319 5.6166 6 7 6ZM14 10H18C18.5523 10 19 10.448 19 11V13C19 13.891 17.9112 14.349 17.2813 13.719L15.5625 12H14C13.4477 12 13 11.552 13 11C13 10.448 13.4477 10 14 10Z" fill="black" fill-opacity="0.4"/>
<path d="M14 10H18C18.5523 10 19 10.4468 19 10.9973V12.9918C19 13.8803 17.9112 14.337 17.2813 13.7088L15.5625 11.9945H14C13.4477 11.9945 13 11.5477 13 10.9973C13 10.4468 13.4477 10 14 10Z" fill="black"/>
</svg>
