<svg width="24" height="24" viewBox="0 0 24 24" fill="none" xmlns="http://www.w3.org/2000/svg">
<path d="M15.9952 13.8284C17.174 13.3924 18 12.2754 18 11.0084C18 9.74142 17.2199 8.59544 16.0054 8.17044C16.0054 8.17044 15.9952 14.909 15.9952 13.8284ZM17.7812 4.85742C17.5335 4.92142 17.3274 5.08844 17.1875 5.32544C16.9078 5.80144 17.055 6.42043 17.5312 6.69943C19.0509 7.59143 20 9.21542 20 11.0084C20 12.8024 19.052 14.4254 17.5312 15.3174C17.0549 15.5964 16.8768 16.2144 17.1562 16.6904C17.4358 17.1664 18.0548 17.3134 18.5312 17.0344C20.6579 15.7874 21.9999 13.5184 22 11.0084C22 8.49942 20.6563 6.22942 18.5312 4.98242C18.2931 4.84242 18.0289 4.79342 17.7812 4.85742Z" fill="black"/>
<path d="M15.3739 3.07743C15.0259 2.93343 14.5949 2.98142 14.2799 3.29642C13.5809 3.99542 12.6959 4.57543 11.6849 5.00943C10.6569 5.44944 8.54689 6.01843 7.00589 6.00843C4.00889 5.98843 1.9989 7.68742 1.9989 10.9774C1.9989 13.8604 3.63591 15.5374 5.99091 15.9144L5.99591 18.9845C6.01291 20.1095 6.9169 21.0044 7.9989 21.0004C9.0809 20.9964 9.99389 20.0935 9.98889 18.9895C9.98789 18.7965 9.9959 16.6104 10.0069 16.4264C12.4929 17.1414 13.6609 18.0615 14.2989 18.7005C14.9289 19.3295 15.9989 18.8925 15.9989 18.0025C15.9989 12.5284 15.9989 9.17979 15.9989 4.01444C15.9989 3.56944 15.7219 3.22243 15.3739 3.07743ZM5.99689 8.10343C5.99689 9.63943 5.99591 12.3534 5.99591 13.8894C4.69491 13.5294 3.9989 12.6104 3.9989 10.9774C3.9989 9.36342 4.62589 8.40643 5.99689 8.10343Z" fill="black" fill-opacity="0.4"/>
</svg>
