<svg width="24" height="24" viewBox="0 0 24 24" fill="none" xmlns="http://www.w3.org/2000/svg">
<path d="M15.9952 13.8284C17.174 13.3924 18 12.2754 18 11.0084C18 9.74142 17.2199 8.59544 16.0054 8.17044C16.0054 8.17044 15.9952 14.909 15.9952 13.8284ZM17.7812 4.85742C17.5335 4.92142 17.3274 5.08844 17.1875 5.32544C16.9078 5.80144 17.055 6.42043 17.5312 6.69943C19.0509 7.59143 20 9.21542 20 11.0084C20 12.8024 19.052 14.4254 17.5312 15.3174C17.0549 15.5964 16.8768 16.2144 17.1562 16.6904C17.4358 17.1664 18.0548 17.3134 18.5312 17.0344C20.6579 15.7874 21.9999 13.5184 22 11.0084C22 8.49942 20.6563 6.22942 18.5312 4.98242C18.2931 4.84242 18.0289 4.79342 17.7812 4.85742Z" fill="black"/>
<path d="M15.375 3.07743C15.027 2.93343 14.5962 2.98142 14.2812 3.29642C13.5816 3.99542 12.6974 4.57543 11.6856 5.00943C10.6579 5.44943 8.548 6.01843 7.0073 6.00843C4.0102 5.98843 1.9999 7.68742 2 10.9774C2 13.8604 3.6366 15.5374 5.9923 15.9144L6 18.0004C6 19.6554 7.3431 20.9974 9 20.9974C10.5225 20.9974 11.7766 19.8194 11.9702 18.3464C11.9795 18.2754 12 18.0004 12 17.0004C12.8983 17.4194 13.6426 18.0824 14.2812 18.7204C14.9112 19.3494 16 18.8924 16 18.0024C16 12.6358 16 9.06853 16 4.01444C16 3.56944 15.7231 3.22243 15.375 3.07743ZM14.0046 6.03543C14.0046 9.33776 14.0032 12.6401 14.0032 15.9424C11.9779 14.7474 9.8898 14.2174 8.0021 14.0474C8.0021 12.5224 7.997 9.50643 7.997 7.93543C8.193 7.92643 8.421 7.90144 8.75 7.85544C10.0269 7.67244 11.2956 7.34044 12.5 6.82443C13.0734 6.57944 13.4996 6.35743 14.0046 6.03543ZM5.9985 8.10343C5.9985 9.63943 5.997 12.3534 5.997 13.8894C4.6957 13.5294 4 12.6104 4 10.9774C4 9.36342 4.627 8.40643 5.9985 8.10343ZM8 16.0664C8.3166 16.0774 9.4636 16.2814 9.9899 16.4144L10 18.0004C10 18.5524 9.5523 18.9994 9 18.9994C8.4477 18.9994 8 18.5524 8 18.0004V16.0664Z" fill="black" fill-opacity="0.4"/>
</svg>
