<svg width="24" height="24" viewBox="0 0 24 24" fill="none" xmlns="http://www.w3.org/2000/svg">
<path d="M7 3C4.791 3 3 4.791 3 7V9C3 11.209 4.791 13 7 13H17C19.209 13 21 11.209 21 9V7C21 4.791 19.209 3 17 3H7ZM7 5H17C18.105 5 19 5.895 19 7V9C19 10.105 18.105 11 17 11H7C5.895 11 5 10.105 5 9V7C5 5.895 5.895 5 7 5ZM8 7C7.448 7 7 7.448 7 8C7 8.552 7.448 9 8 9H12C12.552 9 13 8.552 13 8C13 7.448 12.552 7 12 7H8ZM14.5 7C14.042 7 13.871 7.26999 14.125 7.59399L15.031 8.75C15.285 9.074 15.715 9.074 15.969 8.75L16.875 7.59399C17.129 7.26999 16.958 7 16.5 7H14.5Z" fill="black" stroke="black" stroke-width="0.002" stroke-linecap="round" stroke-linejoin="round"/>
<path d="M6 15C4.343 15 3 16.343 3 18C3 19.657 4.343 21 6 21H18C19.657 21 21 19.657 21 18C21 16.343 19.657 15 18 15H6ZM6 17H18C18.552 17 19 17.448 19 18C19 18.552 18.552 19 18 19H6C5.448 19 5 18.552 5 18C5 17.448 5.448 17 6 17Z" fill="black" fill-opacity="0.4" stroke="black" stroke-width="0.002" stroke-linecap="round" stroke-linejoin="round"/>
</svg>
