<svg width="24" height="24" viewBox="0 0 24 24" fill="none" xmlns="http://www.w3.org/2000/svg">
<path fill-rule="evenodd" clip-rule="evenodd" d="M4.00001 7C3.69207 7 3.40131 7.14187 3.2118 7.38459C3.0223 7.6273 2.95518 7.94379 3.02987 8.24254L4.46177 13.9701C4.61088 14.5666 4.88953 15.1034 5.2632 15.5536C5.75334 15.205 6.35273 15 7 15C8.30622 15 9.41746 15.8348 9.82929 17H14.1707C14.5825 15.8348 15.6938 15 17 15C17.6473 15 18.2467 15.205 18.7368 15.5536C19.1105 15.1034 19.3891 14.5666 19.5382 13.9701L20.9702 8.24254C21.0448 7.94379 20.9777 7.6273 20.7882 7.38459C20.5987 7.14187 20.3079 7 20 7H4.00001Z" fill="black"/>
<path fill-rule="evenodd" clip-rule="evenodd" d="M10.7071 2.29289C11.0977 2.68342 11.0977 3.31658 10.7071 3.70711L7.41424 7H4.58582L9.29292 2.29289C9.68345 1.90237 10.3166 1.90237 10.7071 2.29289ZM13.2929 2.29289C12.9023 2.68342 12.9023 3.31658 13.2929 3.70711L16.5858 7H19.4142L14.7071 2.29289C14.3166 1.90237 13.6834 1.90237 13.2929 2.29289ZM7 17C6.44772 17 6 17.4477 6 18C6 18.5523 6.44772 19 7 19C7.55228 19 8 18.5523 8 18C8 17.4477 7.55228 17 7 17ZM4 18C4 16.3431 5.34315 15 7 15C8.65685 15 10 16.3431 10 18C10 19.6569 8.65685 21 7 21C5.34315 21 4 19.6569 4 18ZM17 17C16.4477 17 16 17.4477 16 18C16 18.5523 16.4477 19 17 19C17.5523 19 18 18.5523 18 18C18 17.4477 17.5523 17 17 17ZM14 18C14 16.3431 15.3431 15 17 15C18.6569 15 20 16.3431 20 18C20 19.6569 18.6569 21 17 21C15.3431 21 14 19.6569 14 18Z" fill="black" fill-opacity="0.4"/>
</svg>
