<svg width="24" height="24" viewBox="0 0 24 24" fill="none" xmlns="http://www.w3.org/2000/svg">
<path fill-rule="evenodd" clip-rule="evenodd" d="M2.22667 4.36601C2.41661 4.13432 2.70042 4 3.00001 4H21C21.2996 4 21.5834 4.13432 21.7734 4.36601C21.9633 4.5977 22.0393 4.90234 21.9806 5.19612L20.6237 11.9806C20.1563 14.3177 18.1042 16 15.7208 16H8.27922C5.89582 16 3.84375 14.3177 3.37632 11.9806L2.01943 5.19612C1.96067 4.90234 2.03673 4.5977 2.22667 4.36601ZM4.21981 6L5.33748 11.5883C5.61794 12.9906 6.84918 14 8.27922 14H15.7208C17.1508 14 18.3821 12.9906 18.6625 11.5883L19.7802 6H4.21981Z" fill="black" fill-opacity="0.4"/>
<path fill-rule="evenodd" clip-rule="evenodd" d="M6 17C6 16.4477 6.44772 16 7 16C7.55228 16 8 16.4477 8 17C8 17.5523 7.55228 18 7 18C6.44772 18 6 17.5523 6 17ZM7 14C5.34315 14 4 15.3431 4 17C4 18.6569 5.34315 20 7 20C8.65685 20 10 18.6569 10 17C10 15.3431 8.65685 14 7 14ZM16 17C16 16.4477 16.4477 16 17 16C17.5523 16 18 16.4477 18 17C18 17.5523 17.5523 18 17 18C16.4477 18 16 17.5523 16 17ZM17 14C15.3431 14 14 15.3431 14 17C14 18.6569 15.3431 20 17 20C18.6569 20 20 18.6569 20 17C20 15.3431 18.6569 14 17 14Z" fill="black"/>
</svg>
