<svg width="24" height="24" viewBox="0 0 24 24" fill="none" xmlns="http://www.w3.org/2000/svg">
<path fill-rule="evenodd" clip-rule="evenodd" d="M4 6C4 3.79086 5.79086 2 8 2H16C18.2091 2 20 3.79086 20 6V18C20 20.2091 18.2091 22 16 22H8C5.79086 22 4 20.2091 4 18V6ZM8 4C6.89543 4 6 4.89543 6 6V18C6 19.1046 6.89543 20 8 20H16C17.1046 20 18 19.1046 18 18V6C18 4.89543 17.1046 4 16 4H8Z" fill="black" fill-opacity="0.4"/>
<path d="M8.9978 6C8.4458 6 7.9978 6.448 7.9978 7V9C7.9978 9.552 8.4458 10 8.9978 10H14.9978C15.5498 10 15.9978 9.552 15.9978 9V7C15.9978 6.448 15.5498 6 14.9978 6H8.9978ZM11.9978 12C10.3408 12 8.9978 13.343 8.9978 15C8.9978 16.657 10.3408 18 11.9978 18C13.6548 18 14.9978 16.657 14.9978 15C14.9978 13.343 13.6548 12 11.9978 12ZM11.6228 13.562L13.3728 14.75C13.5768 14.887 13.5748 15.11 13.3728 15.25L11.6228 16.438C11.4208 16.577 11.2798 16.495 11.2788 16.25V13.781C11.2788 13.536 11.4188 13.425 11.6228 13.562Z" fill="black"/>
</svg>
