<svg width="24" height="24" viewBox="0 0 24 24" fill="none" xmlns="http://www.w3.org/2000/svg">
<path d="M11.9983 2.19727C11.5553 2.19727 11.1103 2.29727 10.7483 2.47827L4.34229 5.66626C3.56129 6.05626 2.99829 6.98027 2.99829 7.85327V16.0723C2.99829 16.9453 3.56129 17.8693 4.34229 18.2593L10.7483 21.4473C11.4713 21.8083 12.5253 21.8083 13.2483 21.4473L19.6543 18.2593C20.4353 17.8693 20.9983 16.9453 20.9983 16.0723V7.85327C20.9983 6.98027 20.4353 6.05626 19.6543 5.66626L13.2483 2.47827C12.8863 2.29727 12.4413 2.19727 11.9983 2.19727ZM11.9983 6.97827C14.7593 6.97827 16.9983 9.21727 16.9983 11.9783C16.9983 14.7393 14.7593 16.9783 11.9983 16.9783C9.23729 16.9783 6.99829 14.7393 6.99829 11.9783C6.99829 9.21727 9.23729 6.97827 11.9983 6.97827Z" fill="black" fill-opacity="0.4"/>
<path fill-rule="evenodd" clip-rule="evenodd" d="M12 15C13.6569 15 15 13.6569 15 12C15 10.3431 13.6569 9 12 9C10.3431 9 9 10.3431 9 12C9 13.6569 10.3431 15 12 15ZM12 17C14.7614 17 17 14.7614 17 12C17 9.23858 14.7614 7 12 7C9.23858 7 7 9.23858 7 12C7 14.7614 9.23858 17 12 17Z" fill="black"/>
</svg>
