<svg width="24" height="24" viewBox="0 0 24 24" fill="none" xmlns="http://www.w3.org/2000/svg">
<path d="M14.75 2.00002L9.15602 2.03102C8.37702 2.03502 7.42402 2.44702 6.87502 3.00002L2.93801 6.93801C2.38901 7.49101 1.99702 8.47103 2.00002 9.25003L2.03102 14.844C2.03502 15.623 2.44702 16.576 3.00002 17.125L6.938 21.0621C7.491 21.6111 8.47102 22.003 9.25002 22L14.844 21.969C15.623 21.965 16.576 21.553 17.125 21L21.062 17.062C21.611 16.509 22.003 15.529 22 14.75L21.969 9.15603C21.965 8.37703 21.553 7.42402 21 6.87502L17.062 2.93801C16.509 2.38901 15.529 1.99702 14.75 2.00002ZM14.75 4.00002C14.999 3.99902 15.48 4.20002 15.656 4.37502L19.594 8.28103C19.77 8.45603 19.968 8.93901 19.969 9.18801L20 14.75C20.001 14.999 19.8 15.48 19.625 15.656L15.719 19.594C15.544 19.77 15.061 19.968 14.812 19.969L9.25002 20C9.00102 20.001 8.55202 19.8 8.37502 19.625L4.40602 15.719C4.23002 15.544 4.03202 15.061 4.03102 14.812L4.00002 9.25003C3.99902 9.00103 4.20002 8.55203 4.37502 8.37503L8.28102 4.40603C8.45602 4.23003 8.939 4.03203 9.188 4.03103L14.75 4.00002Z" fill="black"/>
<path d="M14.75 4C14.999 3.999 15.48 4.2 15.656 4.375L19.594 8.28102C19.77 8.45602 19.968 8.939 19.969 9.188L20 14.75C20.001 14.999 19.8 15.48 19.625 15.656L15.719 19.594C15.544 19.77 15.061 19.968 14.812 19.969L9.25 20C9.001 20.001 8.552 19.8 8.375 19.625L4.40601 15.719C4.23001 15.544 4.03201 15.061 4.03101 14.812L4 9.25001C3.999 9.00101 4.2 8.55201 4.375 8.37501L8.28101 4.40601C8.45601 4.23001 8.93899 4.03201 9.18799 4.03101L14.75 4Z" fill="black" fill-opacity="0.4"/>
</svg>
