<svg width="24" height="24" viewBox="0 0 24 24" fill="none" xmlns="http://www.w3.org/2000/svg">
<path fill-rule="evenodd" clip-rule="evenodd" d="M17.0048 2C17.4462 2.00133 17.8917 2.05804 18.3236 2.14442C19.0073 2.28116 19.9971 2.58035 20.7096 3.29289C21.4221 4.00543 21.7213 4.99519 21.8581 5.67888C21.9444 6.11079 22.0011 6.5563 22.0025 6.99767L22.0025 6.99893C22.0025 6.99893 22.0025 6.99767 22.0025 7C22.0025 7.26521 21.8971 7.51957 21.7096 7.70711L10.4151 18.9993L9 17.5846L19.9784 6.60343C19.8738 5.97532 19.7532 5.15349 19.3154 4.71911C18.8777 4.28473 17.9546 4.11717 17.3962 4.02121L6.41379 14.9993L5 13.5859L16.2954 2.29289C16.4824 2.10592 16.7405 1.99973 17.0048 2Z" fill="black" fill-opacity="0.4"/>
<path fill-rule="evenodd" clip-rule="evenodd" d="M18.0017 8.58579L15.4159 6L14.0017 7.41421L16.5875 10L18.0017 8.58579ZM10.4159 19L5.00173 13.5858L3.29462 15.2929C3.15502 15.4325 3.05986 15.6103 3.02114 15.8039L2.02114 20.8039C1.95557 21.1318 2.05819 21.4707 2.29462 21.7071C2.53104 21.9436 2.86998 22.0462 3.19784 21.9806L8.19784 20.9806C8.39143 20.9419 8.56923 20.8467 8.70883 20.7071L10.4159 19ZM4.27648 19.7253L4.92293 16.493L5.00173 16.4142L7.58751 19L7.50871 19.0788L4.27648 19.7253Z" fill="black"/>
</svg>
