<svg width="24" height="24" viewBox="0 0 24 24" fill="none" xmlns="http://www.w3.org/2000/svg">
<path fill-rule="evenodd" clip-rule="evenodd" d="M21.7071 8.29289C22.0976 8.68342 22.0976 9.31658 21.7071 9.70711L17.7071 13.7071C17.3166 14.0976 16.6834 14.0976 16.2929 13.7071L14.2929 11.7071C13.9024 11.3166 13.9024 10.6834 14.2929 10.2929C14.6834 9.90237 15.3166 9.90237 15.7071 10.2929L17 11.5858L20.2929 8.29289C20.6834 7.90237 21.3166 7.90237 21.7071 8.29289Z" fill="black"/>
<path fill-rule="evenodd" clip-rule="evenodd" d="M4 7.5C4 5.015 6.015 3 8.5 3C10.985 3 13 5.015 13 7.5C13 9.985 10.985 12 8.5 12C6.015 12 4 9.985 4 7.5ZM11 7.5C11 6.119 9.881 5 8.5 5C7.119 5 6 6.119 6 7.5C6 8.881 7.119 10 8.5 10C9.881 10 11 8.881 11 7.5Z" fill="black" fill-opacity="0.4"/>
<path fill-rule="evenodd" clip-rule="evenodd" d="M2 18C2 15.956 3.22801 14.101 5.06201 13.344C5.31801 13.238 5.59199 13.26 5.84399 13.375C6.75999 13.792 7.625 14 8.5 14C9.378 14 10.24 13.803 11.125 13.406C11.381 13.292 11.68 13.295 11.938 13.406C13.765 14.194 15 16.004 15 18V20C15 20.552 14.552 21 14 21H3C2.448 21 2 20.552 2 20V18ZM8.5 16C7.531 16 6.39199 15.748 5.44699 15.39C4.65599 15.853 4 16.835 4 18V19H13V18C13 16.899 12.382 15.937 11.479 15.423C10.553 15.765 9.461 16 8.5 16Z" fill="black" fill-opacity="0.4"/>
</svg>
