<svg width="24" height="24" viewBox="0 0 24 24" fill="none" xmlns="http://www.w3.org/2000/svg">
<path fill-rule="evenodd" clip-rule="evenodd" d="M7 5H17C18.1046 5 19 5.89543 19 7V17C19 17.7979 18.5327 18.4867 17.8569 18.8076C17.9504 19.1897 18 19.5891 18 20V20.874C17.9999 20.874 17.9998 20.874 17.9997 20.8741C19.7251 20.4301 21 18.864 21 17V7C21 4.79086 19.2091 3 17 3H7C4.79086 3 3 4.79086 3 7V17C3 18.8638 4.27477 20.4299 6 20.874V20C6 19.5891 6.04957 19.1897 6.14306 18.8076C5.46725 18.4867 5 17.7979 5 17V7C5 5.89543 5.89543 5 7 5Z" fill="black" fill-opacity="0.4"/>
<path fill-rule="evenodd" clip-rule="evenodd" d="M15.5 10.5C15.5 12.433 13.933 14 12 14C10.067 14 8.5 12.433 8.5 10.5C8.5 8.567 10.067 7 12 7C13.933 7 15.5 8.567 15.5 10.5ZM17 21C17.3453 21 17.6804 20.9562 18 20.874V20C18 17.2386 15.7614 15 13 15H11C8.23858 15 6 17.2386 6 20V20.874C6.31962 20.9562 6.6547 21 7 21H17Z" fill="black"/>
</svg>
