<svg width="24" height="24" viewBox="0 0 24 24" fill="none" xmlns="http://www.w3.org/2000/svg">
<path fill-rule="evenodd" clip-rule="evenodd" d="M2.56201 8.68085C2.746 8.15948 3.323 7.87217 3.84399 8.0554C4.36499 8.23864 4.621 8.81613 4.43799 9.33762C4.14099 10.1824 4 11.0798 4 11.9957C4 12.919 4.168 13.8344 4.46899 14.6851C4.65298 15.2061 4.36398 15.7515 3.84399 15.936C3.323 16.1205 2.74701 15.8627 2.56201 15.3419C2.186 14.2772 2 13.1474 2 11.9957C2 10.8531 2.19101 9.73811 2.56201 8.68085ZM19.562 9.36883C19.382 8.84655 19.666 8.29868 20.188 8.11795C20.709 7.93722 21.257 8.18981 21.438 8.71218C21.798 9.75631 22 10.8692 22 11.9957C22 13.1533 21.818 14.2724 21.438 15.3419C21.252 15.8624 20.677 16.1527 20.156 15.9673C19.636 15.7818 19.346 15.2058 19.531 14.6851C19.835 13.8306 20 12.9237 20 11.9957C20 11.0926 19.851 10.2032 19.562 9.36883ZM12 18C12.5523 18 13 17.552 13 16.9993C13 16.4466 12.5523 15.9986 12 15.9986C11.4477 15.9986 11 16.4466 11 16.9993C11 17.552 11.4477 18 12 18Z" fill="black" fill-opacity="0.4"/>
<path fill-rule="evenodd" clip-rule="evenodd" d="M6 6.5C6 4.567 7.567 3 9.5 3H14.5C16.433 3 18 4.567 18 6.5V17.5C18 19.433 16.433 21 14.5 21H9.5C7.567 21 6 19.433 6 17.5V6.5ZM12 18C12.5523 18 13 17.5523 13 17C13 16.4477 12.5523 16 12 16C11.4477 16 11 16.4477 11 17C11 17.5523 11.4477 18 12 18Z" fill="black"/>
</svg>
