<svg width="24" height="24" viewBox="0 0 24 24" fill="none" xmlns="http://www.w3.org/2000/svg">
<path d="M8 2C6.343 2 5 3.3431 5 5V19C5 20.6569 6.343 22 8 22H16C17.657 22 19 20.6569 19 19V5C19 3.3431 17.657 2 16 2H8ZM12 17C12.552 17 13 17.4477 13 18C13 18.5523 12.552 19 12 19C11.448 19 11 18.5523 11 18C11 17.4477 11.448 17 12 17Z" fill="black"/>
<path d="M13 18C13 18.5523 12.5523 19 12 19C11.4477 19 11 18.5523 11 18C11 17.4477 11.4477 17 12 17C12.5523 17 13 17.4477 13 18Z" fill="black" fill-opacity="0.4"/>
</svg>
