<svg width="24" height="24" viewBox="0 0 24 24" fill="none" xmlns="http://www.w3.org/2000/svg">
<path fill-rule="evenodd" clip-rule="evenodd" d="M17 5H7C5.89543 5 5 5.89543 5 7V17C5 18.1046 5.89543 19 7 19H17C18.1046 19 19 18.1046 19 17V7C19 5.89543 18.1046 5 17 5ZM7 3C4.79086 3 3 4.79086 3 7V17C3 19.2091 4.79086 21 7 21H17C19.2091 21 21 19.2091 21 17V7C21 4.79086 19.2091 3 17 3H7Z" fill="black" fill-opacity="0.4"/>
<path d="M9.62645 8.15053C9.25659 8.34873 9 8.71983 9 9.24433V14.7443C9 15.7933 10.0464 16.2963 10.9104 15.8063L14.9828 13.4943C16.364 12.6393 16.3139 11.3193 14.9828 10.4943L10.9104 8.18183C10.4784 7.93693 9.9963 7.95243 9.62645 8.15053Z" fill="black"/>
</svg>
