<svg width="24" height="24" viewBox="0 0 24 24" fill="none" xmlns="http://www.w3.org/2000/svg">
<path d="M12 2C11.208 2 10.416 2.30201 9.812 2.90601L2.906 9.812C1.698 11.02 1.698 12.98 2.906 14.188L9.812 21.094C11.02 22.302 12.98 22.302 14.188 21.094L21.094 14.188C22.302 12.98 22.302 11.02 21.094 9.812L14.188 2.90601C13.584 2.30201 12.792 2 12 2ZM12 4C12.28 4 12.568 4.099 12.781 4.312L19.688 11.219C20.114 11.646 20.114 12.354 19.688 12.781L12.781 19.688C12.354 20.114 11.646 20.114 11.219 19.688L4.31199 12.781C3.88599 12.354 3.88599 11.646 4.31199 11.219L11.219 4.312C11.432 4.099 11.72 4 12 4Z" fill="black" fill-opacity="0.4"/>
<path d="M11.9691 7C10.585 7 9.38177 7.91199 9.03322 9.21899C8.89077 9.75299 9.22013 10.328 9.75861 10.469C10.2981 10.61 10.8477 10.284 10.9902 9.75C11.1063 9.316 11.5074 9 11.9691 9C12.5258 9 12.9774 9.444 12.9794 10C12.9814 10.478 12.7147 10.978 12.1904 11.5C12.055 11.634 11.8863 11.765 11.7165 11.906C11.6317 11.977 11.3842 12.18 11.3377 12.219C10.9114 12.575 10.8517 13.234 11.2114 13.656C11.5711 14.079 12.2055 14.106 12.6319 13.75C12.6622 13.725 12.942 13.522 13.042 13.438C13.2542 13.261 13.429 13.087 13.6108 12.906C14.4787 12.044 15.004 11.109 15 10C14.9939 8.344 13.6411 7 11.9691 7ZM11.9691 15C11.4114 15 10.9588 15.448 10.9588 16C10.9588 16.552 11.4114 17 11.9691 17C12.5268 17 12.9794 16.552 12.9794 16C12.9794 15.448 12.5268 15 11.9691 15Z" fill="black"/>
</svg>
