<svg width="24" height="24" viewBox="0 0 24 24" fill="none" xmlns="http://www.w3.org/2000/svg">
<path d="M9.5 3C8.778 3.001 7.885 3.363 7.375 3.875L3.875 7.40601C3.365 7.91801 2.999 8.80901 3 9.53101V14.5C3.001 15.222 3.363 16.115 3.875 16.625L7.40601 20.125C7.91801 20.635 8.80901 21.001 9.53101 21H14.5C15.222 20.999 16.115 20.637 16.625 20.125L20.125 16.594C20.635 16.082 21.001 15.191 21 14.469V9.5C20.999 8.778 20.637 7.885 20.125 7.375L16.594 3.875C16.082 3.365 15.191 2.999 14.469 3H9.5Z" fill="black" fill-opacity="0.4"/>
<path d="M11.9691 7C10.585 7 9.38177 7.91199 9.03322 9.21899C8.89077 9.75299 9.22013 10.328 9.75861 10.469C10.2981 10.61 10.8477 10.284 10.9902 9.75C11.1063 9.316 11.5074 9 11.9691 9C12.5258 9 12.9774 9.444 12.9794 10C12.9814 10.478 12.7147 10.978 12.1904 11.5C12.055 11.634 11.8863 11.765 11.7165 11.906C11.6317 11.977 11.3842 12.18 11.3377 12.219C10.9114 12.575 10.8517 13.234 11.2114 13.656C11.5711 14.079 12.2055 14.106 12.6319 13.75C12.6622 13.725 12.942 13.522 13.042 13.438C13.2542 13.261 13.429 13.087 13.6108 12.906C14.4787 12.044 15.004 11.109 15 10C14.9939 8.344 13.6411 7 11.9691 7ZM11.9691 15C11.4114 15 10.9588 15.448 10.9588 16C10.9588 16.552 11.4114 17 11.9691 17C12.5268 17 12.9794 16.552 12.9794 16C12.9794 15.448 12.5268 15 11.9691 15Z" fill="black"/>
</svg>
