<svg width="24" height="24" viewBox="0 0 24 24" fill="none" xmlns="http://www.w3.org/2000/svg">
<circle cx="12" cy="19" r="1" fill="black"/>
<path d="M12 4C9.791 4 8 5.791 8 8C8 8.552 8.448 9 9 9C9.552 9 10 8.552 10 8C10 6.895 10.895 6 12 6C13.105 6 14 6.895 14 8C14 8.969 13.69 9.56901 12.688 10.906C11.44 12.569 11 13.469 11 15C11 15.552 11.448 16 12 16C12.552 16 13 15.552 13 15C13 14.031 13.31 13.431 14.312 12.094C15.56 10.431 16 9.531 16 8C16 5.791 14.209 4 12 4Z" fill="black" fill-opacity="0.4"/>
</svg>
