<svg width="24" height="24" viewBox="0 0 24 24" fill="none" xmlns="http://www.w3.org/2000/svg">
<path fill-rule="evenodd" clip-rule="evenodd" d="M12 6C7.02944 6 3 10.0294 3 15H9C9 13.3431 10.3431 12 12 12C13.6569 12 15 13.3431 15 15H21C21 10.0294 16.9706 6 12 6ZM1 15C1 8.92487 5.92487 4 12 4C18.0751 4 23 8.92487 23 15V16C23 16.5523 22.5523 17 22 17H14C13.4477 17 13 16.5523 13 16V15C13 14.4477 12.5523 14 12 14C11.4477 14 11 14.4477 11 15V16C11 16.5523 10.5523 17 10 17H2C1.44772 17 1 16.5523 1 16V15Z" fill="black"/>
<path fill-rule="evenodd" clip-rule="evenodd" d="M12 10C9.23858 10 7 12.2386 7 15H5C5 11.134 8.13401 8 12 8C15.866 8 19 11.134 19 15H17C17 12.2386 14.7614 10 12 10Z" fill="black" fill-opacity="0.4"/>
</svg>
