<svg width="24" height="24" viewBox="0 0 24 24" fill="none" xmlns="http://www.w3.org/2000/svg">
<path d="M3.5 18C3.224 18 3 18.224 3 18.5V19.5C3 19.776 3.224 20 3.5 20H5.5C5.776 20 6 19.776 6 19.5V18.5C6 18.224 5.776 18 5.5 18H3.5ZM8.5 18C8.224 18 8 18.224 8 18.5V19.5C8 19.776 8.224 20 8.5 20H10.5C10.776 20 11 19.776 11 19.5V18.5C11 18.224 10.776 18 10.5 18H8.5ZM13.5 18C13.224 18 13 18.224 13 18.5V19.5C13 19.776 13.224 20 13.5 20H15.5C15.776 20 16 19.776 16 19.5V18.5C16 18.224 15.776 18 15.5 18H13.5ZM18.5 18C18.224 18 18 18.224 18 18.5V19.5C18 19.776 18.224 20 18.5 20H20.5C20.776 20 21 19.776 21 19.5V18.5C21 18.224 20.776 18 20.5 18H18.5Z" fill="black" fill-opacity="0.4"/>
</svg>
