<svg width="24" height="24" viewBox="0 0 24 24" fill="none" xmlns="http://www.w3.org/2000/svg">
<path d="M13.9133 5.02608C13.5307 5.08917 13.123 5.25239 12.7274 5.5578L8.01265 9.97066C6.63689 11.0271 6.65787 12.9817 8.10656 14.1012L12.6335 18.3879C14.291 19.6746 16.0054 18.8285 16.0054 16.8228V16.0097C18.643 16.0097 19.4963 16.248 20.0957 17.4496C20.5673 18.3939 22 18.0675 22 17.011C22 16.8438 22 13.3662 22 13.0057C22.002 10.225 19.806 8.00304 17.0045 7.99904C16.7268 7.99904 16.4121 7.99904 16.0054 7.99904C16.0064 7.64557 16.0054 7.28708 16.0054 7.18594C16.0054 5.67994 15.0623 4.83783 13.9133 5.02608ZM14.0072 7.09182V10.0017C14.0072 10.0017 16.45 10.0007 17.0045 10.0017C18.7 10.0047 20.0028 11.3265 20.0018 13.0057C20.0018 13.1499 20.0018 13.8749 20.0018 14.6018C19.0577 14.1532 17.8168 14.007 16.0054 14.007C15.5259 14.007 14.0072 14.007 14.0072 14.007L14.0382 16.9169L9.38641 12.5671C8.90185 12.1876 8.91285 11.8211 9.32348 11.5037L14.0072 7.09182Z" fill="black"/>
<path d="M7.98749 5C7.73149 5 7.4645 5.08594 7.2685 5.28078L3.0185 9.52729C1.6605 10.8822 1.6605 13.1063 3.0185 14.4612L7.2685 18.7077C7.6595 19.0974 8.31549 19.0974 8.70649 18.7077C9.09749 18.3181 9.09749 17.6606 8.70649 17.2709L4.45649 13.0244C3.87949 12.4499 3.87949 11.5386 4.45649 10.9641L8.70649 6.71758C9.09749 6.3279 9.09749 5.67046 8.70649 5.28078C8.51049 5.08594 8.24349 5 7.98749 5Z" fill="black" fill-opacity="0.4"/>
</svg>
