<svg width="24" height="24" viewBox="0 0 24 24" fill="none" xmlns="http://www.w3.org/2000/svg">
<path fill-rule="evenodd" clip-rule="evenodd" d="M5 22H10V20V18H8C7.44772 18 7 17.5523 7 17C7 16.4477 7.44772 16 8 16H10V14H8C7.44772 14 7 13.5523 7 13C7 12.4477 7.44772 12 8 12H10V10H8C7.44772 10 7 9.55228 7 9C7 8.44772 7.44772 8 8 8H10V6C10 5.44772 10.4477 5 11 5C11.5523 5 12 5.44772 12 6V8H14V6C14 5.44772 14.4477 5 15 5C15.5523 5 16 5.44772 16 6V8H18H20V3C20 2.44772 19.5523 2 19 2H8C5.79086 2 4 3.79086 4 6V21C4 21.5523 4.44772 22 5 22Z" fill="black" fill-opacity="0.4"/>
<path fill-rule="evenodd" clip-rule="evenodd" d="M12 6C12 5.44772 11.5523 5 11 5C10.4477 5 10 5.44772 10 6V8H8C7.44772 8 7 8.44772 7 9C7 9.55228 7.44772 10 8 10H10V12H8C7.44772 12 7 12.4477 7 13C7 13.5523 7.44772 14 8 14H10V16H8C7.44772 16 7 16.4477 7 17C7 17.5523 7.44772 18 8 18H10V22H12V10H20V8H16V6C16 5.44772 15.5523 5 15 5C14.4477 5 14 5.44772 14 6V8H12V6Z" fill="black"/>
</svg>
