<svg width="24" height="24" viewBox="0 0 24 24" fill="none" xmlns="http://www.w3.org/2000/svg">
<path fill-rule="evenodd" clip-rule="evenodd" d="M11 7C11.5523 7 12 7.44772 12 8V10H14V8C14 7.44772 14.4477 7 15 7C15.5523 7 16 7.44772 16 8V10H21V12H12V21H10V16H8C7.44772 16 7 15.5523 7 15C7 14.4477 7.44772 14 8 14H10V12H8C7.44772 12 7 11.5523 7 11C7 10.4477 7.44772 10 8 10H10V8C10 7.44772 10.4477 7 11 7Z" fill="black"/>
<path fill-rule="evenodd" clip-rule="evenodd" d="M7 5C5.89543 5 5 5.89543 5 7V19H10V21H4C3.44772 21 3 20.5523 3 20V7C3 4.79086 4.79086 3 7 3H20C20.5523 3 21 3.44772 21 4V10H19V5H7Z" fill="black" fill-opacity="0.4"/>
</svg>
