<svg width="24" height="24" viewBox="0 0 24 24" fill="none" xmlns="http://www.w3.org/2000/svg">
<path fill-rule="evenodd" clip-rule="evenodd" d="M14.1088 5.80322C14.2943 6.47241 14.7059 7.0476 15.2562 7.44136L9.8913 11.1968C9.7058 10.5276 9.2942 9.95239 8.74392 9.55862L14.1088 5.80322ZM8.7439 14.4414L14.1088 18.1968C14.2943 17.5276 14.7059 16.9524 15.2561 16.5586L9.89129 12.8032C9.70578 13.4724 9.29418 14.0476 8.7439 14.4414Z" fill="black" fill-opacity="0.4"/>
<path fill-rule="evenodd" clip-rule="evenodd" d="M20 5C20 6.65685 18.6569 8 17 8C15.3431 8 14 6.65685 14 5C14 3.34315 15.3431 2 17 2C18.6569 2 20 3.34315 20 5ZM7 15C8.65685 15 10 13.6569 10 12C10 10.3431 8.65685 9 7 9C5.34315 9 4 10.3431 4 12C4 13.6569 5.34315 15 7 15ZM17 22C18.6569 22 20 20.6569 20 19C20 17.3431 18.6569 16 17 16C15.3431 16 14 17.3431 14 19C14 20.6569 15.3431 22 17 22Z" fill="black"/>
</svg>
