<svg width="24" height="24" viewBox="0 0 24 24" fill="none" xmlns="http://www.w3.org/2000/svg">
<path d="M18.9408 10.005C18.3918 9.94981 17.8988 10.357 17.8488 10.8992C17.4768 14.9363 15.8278 17.5587 12.0128 19.8656C11.5238 19.5688 11.0468 19.2662 10.6288 18.9547C10.1888 18.6264 9.53699 18.6619 9.20469 19.0966C8.87229 19.5314 8.95178 20.1554 9.39188 20.4827C10.0308 20.9599 10.7378 21.4321 11.5138 21.8699C11.8208 22.0434 12.2058 22.0434 12.5128 21.8699C17.3218 19.1558 19.3478 15.864 19.8458 11.0835C19.9018 10.5423 19.4888 10.0612 18.9408 10.005Z" fill="black" fill-opacity="0.4"/>
<path d="M11.625 2.081C10.747 2.456 5.4812 4.70701 4.6038 5.08201C4.2359 5.23901 4.0109 5.58802 4.0109 5.98802C4.0109 11.534 4.3539 13.983 5.9013 16.674L4.2932 18.294C3.9032 18.685 3.9018 19.321 4.2918 19.711C4.6817 20.102 5.3372 20.102 5.72721 19.711L7.8803 17.523C8.2316 17.177 18.902 6.482 18.989 6.395L19.707 5.70701C20.097 5.31601 20.1 4.68602 19.71 4.29502C19.515 4.10002 19.262 3.99301 19.007 3.99201C18.751 3.99201 18.486 4.09499 18.291 4.29099L18.078 4.508L12.436 2.081C12.185 1.973 11.876 1.973 11.625 2.081ZM11.999 4.05L16.524 6.02C14.988 7.558 9.075 13.524 7.3723 15.201C6.3473 13.263 5.9881 10.818 5.9952 6.63502C7.3131 6.09802 10.848 4.543 11.999 4.05Z" fill="black"/>
</svg>
