<svg width="24" height="24" viewBox="0 0 24 24" fill="none" xmlns="http://www.w3.org/2000/svg">
<path d="M8 11.531C7.379 11.807 6.71 12 6 12C5.292 12 4.618 11.832 4 11.562C4 14.433 4 17.477 4 19H20V11.562C19.379 11.836 18.708 12 18 12C17.29 12 16.623 11.805 16 11.531C15.377 11.805 14.711 12 14 12C13.29 12 12.62 11.806 12 11.531C11.374 11.806 10.71 12 10 12C9.29 12 8.625 11.807 8 11.531ZM10 14C11.105 14 12 14.895 12 16V19H8V16C8 14.895 8.895 14 10 14ZM16 14C16.552 14 17 14.448 17 15C17 15.552 16.552 16 16 16C15.448 16 15 15.552 15 15C15 14.448 15.448 14 16 14Z" fill="black" fill-opacity="0.4"/>
<path fill-rule="evenodd" clip-rule="evenodd" d="M5.09399 3.56201C5.26299 3.22401 5.621 3 6 3H18C18.379 3 18.737 3.22401 18.906 3.56201L21 7C20.991 8.848 19.475 10 18 10C17.222 10 16.533 9.736 16 9.25C15.467 9.736 14.778 10 14 10C13.222 10 12.533 9.70499 12 9.21899C11.467 9.70499 10.778 10 10 10C9.222 10 8.533 9.70499 8 9.21899C7.467 9.70499 6.778 10 6 10C4.525 10 3.036 8.886 3 7L5.09399 3.56201ZM10 14C8.89543 14 8 14.8954 8 16V19H4C3.44772 19 3 19.4477 3 20C3 20.5523 3.44772 21 4 21H20C20.5523 21 21 20.5523 21 20C21 19.4477 20.5523 19 20 19H12V16C12 14.8954 11.1046 14 10 14ZM17 15C17 15.5523 16.5523 16 16 16C15.4477 16 15 15.5523 15 15C15 14.4477 15.4477 14 16 14C16.5523 14 17 14.4477 17 15Z" fill="black"/>
</svg>
