<svg width="24" height="24" viewBox="0 0 24 24" fill="none" xmlns="http://www.w3.org/2000/svg">
<path d="M12 2C10.895 2 10 2.895 10 4V5H14V4C14 2.895 13.105 2 12 2ZM10 15V20C10 21.105 10.895 22 12 22C13.105 22 14 21.105 14 20V15H10Z" fill="black" fill-opacity="0.4"/>
<path d="M18 7.00001L6 7.03101C4.895 7.03101 4 7.92701 4 9.03101V11C4 12.103 4.895 13 6 13H18C18.262 13 18.5 12.903 18.688 12.719L20.688 10.75C21.082 10.363 21.106 9.738 20.719 9.344L18.719 7.31202C18.53 7.12002 18.269 6.99901 18 7.00001Z" fill="black"/>
</svg>
