<svg width="24" height="24" viewBox="0 0 24 24" fill="none" xmlns="http://www.w3.org/2000/svg">
<path d="M7.1562 2C5.4069 2 4.0001 3.40701 4 5.15601V18.844C4 20.593 5.407 22 7.1562 22H16.8438C18.5931 22 19.9999 20.593 20 18.844V7C20 6.735 19.9063 6.46901 19.7188 6.28101L15.7188 2.28101C15.5312 2.09401 15.2651 2 15 2H7.1562ZM9 10H15C15.5523 10 16 10.448 16 11V17C16 17.552 15.5523 18 15 18H9C8.4477 18 8 17.552 8 17C8 16.25 8 11.75 8 11C8 10.448 8.4477 10 9 10Z" fill="black" fill-opacity="0.4"/>
<path d="M8 11C8 10.4477 8.44772 10 9 10H15C15.5523 10 16 10.4477 16 11V17C16 17.5523 15.5523 18 15 18H9C8.44772 18 8 17.5523 8 17V11Z" fill="black"/>
</svg>
