<svg width="24" height="24" viewBox="0 0 24 24" fill="none" xmlns="http://www.w3.org/2000/svg">
<path d="M3.99768 3.00024C4.54968 3.00024 4.99768 3.44824 4.99768 4.00024V20.0002C4.99768 20.5522 4.54968 21.0002 3.99768 21.0002C3.44568 21.0002 2.99768 20.5522 2.99768 20.0002V4.00024C2.99768 3.44824 3.44568 3.00024 3.99768 3.00024Z" fill="black" fill-opacity="0.4"/>
<path d="M17.9439 3.00027C19.6174 2.97827 20.9249 4.28228 20.9668 6.03128C20.9997 7.42627 21.0037 9.27628 20.9977 11.5623C20.9947 12.8803 20.9678 17.7942 20.9668 18.0002C20.9518 19.7102 19.6214 21.0002 17.9439 21.0002C17.4532 21.0002 16.9336 20.8973 16.3851 20.5623C15.7628 20.1833 14.3546 19.1562 12.3021 17.5942C12.2213 17.5322 8.31382 14.4953 8.15724 14.3753C7.27163 13.6973 6.95847 12.7522 7.00434 11.9382C7.0213 11.6312 7.05621 11.3593 7.15993 11.0313C7.32848 10.5003 7.60574 10.0293 8.0635 9.68825C8.57213 9.30925 12.1545 6.57327 12.2093 6.53127C14.3466 4.90128 15.7169 3.89926 16.416 3.43826C16.9266 3.10026 17.3515 2.99927 17.912 3.00027C17.9439 3.00027 17.9259 3.00027 17.9439 3.00027Z" fill="black"/>
</svg>
