<svg width="24" height="24" viewBox="0 0 24 24" fill="none" xmlns="http://www.w3.org/2000/svg">
<path d="M20.0023 3.00024C19.4503 3.00024 19.0023 3.44824 19.0023 4.00024V20.0002C19.0023 20.5522 19.4503 21.0002 20.0023 21.0002C20.5543 21.0002 21.0023 20.5522 21.0023 20.0002V4.00024C21.0023 3.44824 20.5543 3.00024 20.0023 3.00024Z" fill="black" fill-opacity="0.4"/>
<path d="M6.05611 3.00027C4.38262 2.97827 3.07513 4.28228 3.03325 6.03128C3.00033 7.42627 2.99634 9.27628 3.00232 11.5623C3.00531 12.8803 3.03225 17.7942 3.03325 18.0002C3.04821 19.7102 4.37863 21.0002 6.05611 21.0002C6.54679 21.0002 7.06638 20.8973 7.61491 20.5623C8.23723 20.1833 9.64543 19.1562 11.6979 17.5942C11.7787 17.5322 15.6862 14.4953 15.8428 14.3753C16.7284 13.6973 17.0415 12.7522 16.9957 11.9382C16.9787 11.6312 16.9438 11.3593 16.8401 11.0313C16.6715 10.5003 16.3943 10.0293 15.9365 9.68825C15.4279 9.30925 11.8455 6.57327 11.7907 6.53127C9.65343 4.90128 8.2831 3.89926 7.58398 3.43826C7.07336 3.10026 6.6485 2.99927 6.08801 3.00027C6.0561 3.00027 6.07407 3.00027 6.05611 3.00027Z" fill="black"/>
</svg>
