<svg width="24" height="24" viewBox="0 0 24 24" fill="none" xmlns="http://www.w3.org/2000/svg">
<path d="M21 4.00012C21.5523 4.00012 22 4.44812 22 5.00012V19.0001C22 19.5521 21.5523 20.0001 21 20.0001C20.4477 20.0001 20 19.5521 20 19.0001V5.00012C20 4.44812 20.4477 4.00012 21 4.00012Z" fill="black" fill-opacity="0.4"/>
<path d="M13 4.00009C13.429 3.99609 13.806 4.12708 14.125 4.34408C14.3128 4.47208 14.4386 4.60208 14.5312 4.71908L18.7188 10.9691L18.7812 11.0941C18.8142 11.1621 18.8696 11.2311 18.9062 11.3441C18.9722 11.5481 19.0021 11.7751 19 12.0001C18.9997 12.0211 19.0006 12.0101 19 12.0311C18.9928 12.2441 18.9635 12.4441 18.9062 12.6251C18.8638 12.7591 18.7953 12.8571 18.75 12.9381L14.6562 19.0941C14.5847 19.2111 14.4537 19.3971 14.25 19.5631C13.908 19.8401 13.49 19.9971 13 20.0001C11.913 20.0071 11.008 19.1151 11 18.0001C10.998 17.6751 11 6.26909 11 6.00009C10.988 4.90109 11.883 4.01109 13 4.00009ZM4.00003 4.00009C4.42903 3.99609 4.80603 4.12708 5.12503 4.34408C5.31303 4.47208 5.43903 4.60208 5.53103 4.71908L9.71903 10.9691L9.78103 11.0941C9.81403 11.1621 9.87003 11.2311 9.90603 11.3441C9.97203 11.5481 10.002 11.7751 10 12.0001C10 12.0211 10.001 12.0101 10 12.0311C9.99303 12.2441 9.96403 12.4441 9.90603 12.6251C9.86403 12.7591 9.79503 12.8571 9.75003 12.9381L5.65603 19.0941C5.58503 19.2111 5.45403 19.3981 5.25003 19.5631C4.90803 19.8401 4.49003 19.9971 4.00003 20.0001C2.91303 20.0071 2.00803 19.1151 2.00003 18.0001C1.99803 17.6751 2.00003 6.26909 2.00003 6.00009C1.98803 4.90109 2.88303 4.01109 4.00003 4.00009ZM13 6.03109C13 6.37009 12.998 17.6541 13 17.9691L17 12.0311C17 12.0311 16.999 12.0021 17 12.0001V11.9691L13 6.03109ZM4.00003 6.03109C4.00003 6.37009 3.99803 17.6541 4.00003 17.9691L8.00003 12.0311C8.00003 12.0311 7.99903 12.0021 8.00003 12.0001V11.9691L4.00003 6.03109Z" fill="black"/>
</svg>
