<svg width="24" height="24" viewBox="0 0 24 24" fill="none" xmlns="http://www.w3.org/2000/svg">
<path fill-rule="evenodd" clip-rule="evenodd" d="M12.1659 5.0137C12.0584 5.3226 12 5.65448 12 6C12 6.34552 12.0584 6.6774 12.1659 6.9863C12.1119 6.99531 12.0565 7 12 7H4C3.44772 7 3 6.55228 3 6C3 5.44772 3.44772 5 4 5H12C12.0565 5 12.1119 5.00469 12.1659 5.0137ZM18 6C18 6.34552 17.9416 6.6774 17.8341 6.9863C17.8881 6.99531 17.9435 7 18 7H20C20.5523 7 21 6.55228 21 6C21 5.44772 20.5523 5 20 5H18C17.9435 5 17.8881 5.00469 17.8341 5.0137C17.9416 5.3226 18 5.65448 18 6ZM6.1659 12.9863C6.11194 12.9953 6.05652 13 6 13H4C3.44772 13 3 12.5523 3 12C3 11.4477 3.44772 11 4 11H6C6.05652 11 6.11194 11.0047 6.1659 11.0137C6.05841 11.3226 6 11.6545 6 12C6 12.3455 6.05841 12.6774 6.1659 12.9863ZM12 12C12 12.3455 11.9416 12.6774 11.8341 12.9863C11.8881 12.9953 11.9435 13 12 13H20C20.5523 13 21 12.5523 21 12C21 11.4477 20.5523 11 20 11H12C11.9435 11 11.8881 11.0047 11.8341 11.0137C11.9416 11.3226 12 11.6545 12 12ZM17.8341 18.9863C17.9416 18.6774 18 18.3455 18 18C18 17.6545 17.9416 17.3226 17.8341 17.0137C17.8881 17.0047 17.9435 17 18 17H20C20.5523 17 21 17.4477 21 18C21 18.5523 20.5523 19 20 19H18C17.9435 19 17.8881 18.9953 17.8341 18.9863ZM12.1659 17.0137C12.0584 17.3226 12 17.6545 12 18C12 18.3455 12.0584 18.6774 12.1659 18.9863C12.1119 18.9953 12.0565 19 12 19H4C3.44772 19 3 18.5523 3 18C3 17.4477 3.44772 17 4 17H12C12.0565 17 12.1119 17.0047 12.1659 17.0137Z" fill="black" fill-opacity="0.4"/>
<path fill-rule="evenodd" clip-rule="evenodd" d="M15 7C15.5523 7 16 6.55228 16 6C16 5.44772 15.5523 5 15 5C14.4477 5 14 5.44772 14 6C14 6.55228 14.4477 7 15 7ZM15 9C16.6569 9 18 7.65685 18 6C18 4.34315 16.6569 3 15 3C13.3431 3 12 4.34315 12 6C12 7.65685 13.3431 9 15 9ZM9 13C9.55228 13 10 12.5523 10 12C10 11.4477 9.55228 11 9 11C8.44772 11 8 11.4477 8 12C8 12.5523 8.44772 13 9 13ZM9 15C10.6569 15 12 13.6569 12 12C12 10.3431 10.6569 9 9 9C7.34315 9 6 10.3431 6 12C6 13.6569 7.34315 15 9 15ZM16 18C16 18.5523 15.5523 19 15 19C14.4477 19 14 18.5523 14 18C14 17.4477 14.4477 17 15 17C15.5523 17 16 17.4477 16 18ZM18 18C18 19.6569 16.6569 21 15 21C13.3431 21 12 19.6569 12 18C12 16.3431 13.3431 15 15 15C16.6569 15 18 16.3431 18 18Z" fill="black"/>
</svg>
