<svg width="24" height="24" viewBox="0 0 24 24" fill="none" xmlns="http://www.w3.org/2000/svg">
<path fill-rule="evenodd" clip-rule="evenodd" d="M13 3C13 2.44772 12.5523 2 12 2C11.4477 2 11 2.44772 11 3V10.2679L4.70573 6.63392C4.22744 6.35777 3.61585 6.52165 3.33971 6.99994C3.06357 7.47823 3.22744 8.08982 3.70573 8.36597L10.0001 12L3.70578 15.634C3.22749 15.9102 3.06362 16.5218 3.33976 17.0001C3.6159 17.4784 4.22749 17.6422 4.70578 17.3661L11 13.7321V21C11 21.5523 11.4477 22 12 22C12.5523 22 13 21.5523 13 21V13.732L19.2942 17.366C19.7725 17.6421 20.3841 17.4782 20.6602 16.9999C20.9364 16.5216 20.7725 15.9101 20.2942 15.6339L14.0001 12L20.2942 8.36608C20.7725 8.08994 20.9364 7.47835 20.6603 7.00006C20.3841 6.52177 19.7725 6.35789 19.2942 6.63403L13 10.268V3Z" fill="black" fill-opacity="0.4"/>
<path fill-rule="evenodd" clip-rule="evenodd" d="M8.2929 3.29289C8.68342 2.90237 9.31659 2.90237 9.70711 3.29289L12 5.58579L14.2929 3.29289C14.6834 2.90237 15.3166 2.90237 15.7071 3.29289C16.0976 3.68342 16.0976 4.31658 15.7071 4.70711L12.7071 7.70711C12.3166 8.09763 11.6834 8.09763 11.2929 7.70711L8.2929 4.70711C7.90238 4.31658 7.90238 3.68342 8.2929 3.29289ZM12.7071 16.2929L15.7071 19.2929C16.0976 19.6834 16.0976 20.3166 15.7071 20.7071C15.3166 21.0976 14.6834 21.0976 14.2929 20.7071L12 18.4142L9.70711 20.7071C9.31659 21.0976 8.68342 21.0976 8.2929 20.7071C7.90238 20.3166 7.90238 19.6834 8.2929 19.2929L11.2929 16.2929C11.6834 15.9024 12.3166 15.9024 12.7071 16.2929ZM18.3942 5.66073C18.5371 5.12727 18.2205 4.57893 17.687 4.43599C17.1536 4.29305 16.6052 4.60963 16.4623 5.1431L15.3642 9.24117C15.2213 9.77464 15.5379 10.323 16.0713 10.4659L20.1694 11.564C20.7029 11.7069 21.2512 11.3904 21.3942 10.8569C21.5371 10.3234 21.2205 9.77508 20.687 9.63214L17.5549 8.79288L18.3942 5.66073ZM7.53775 18.8569L8.63583 14.7588C8.77877 14.2253 8.46219 13.677 7.92872 13.5341L3.83064 12.436C3.29718 12.293 2.74884 12.6096 2.6059 13.1431C2.46296 13.6766 2.77954 14.2249 3.31301 14.3678L6.44516 15.2071L5.6059 18.3392C5.46296 18.8727 5.77954 19.4211 6.31301 19.564C6.84647 19.7069 7.39481 19.3904 7.53775 18.8569ZM3.31296 9.63216C2.7795 9.7751 2.46291 10.3234 2.60586 10.8569C2.7488 11.3904 3.29713 11.707 3.8306 11.564L7.92868 10.4659C8.46214 10.323 8.77873 9.77466 8.63578 9.24119L7.53771 5.14311C7.39477 4.60965 6.84643 4.29307 6.31296 4.43601C5.7795 4.57895 5.46291 5.12729 5.60586 5.66075L6.44511 8.7929L3.31296 9.63216ZM20.1694 12.436L16.0713 13.5341C15.5378 13.677 15.2212 14.2254 15.3642 14.7588L16.4623 18.8569C16.6052 19.3904 17.1535 19.707 17.687 19.564C18.2205 19.4211 18.5371 18.8727 18.3941 18.3393L17.5549 15.2071L20.687 14.3679C21.2205 14.2249 21.5371 13.6766 21.3941 13.1431C21.2512 12.6096 20.7028 12.2931 20.1694 12.436Z" fill="black"/>
</svg>
