<svg width="24" height="24" viewBox="0 0 24 24" fill="none" xmlns="http://www.w3.org/2000/svg">
<path fill-rule="evenodd" clip-rule="evenodd" d="M9.29284 2.29288C9.68336 1.90235 10.3165 1.90235 10.7071 2.29288L11.9999 3.58577L13.2928 2.29288C13.6834 1.90235 14.3165 1.90235 14.7071 2.29288C15.0976 2.6834 15.0976 3.31657 14.7071 3.70709L12.9999 5.4142V10.2679L17.2034 7.841L17.8283 5.50905C17.9712 4.97558 18.5196 4.659 19.053 4.80194C19.5865 4.94488 19.9031 5.49322 19.7601 6.02668L19.2869 7.79281L21.053 8.26604C21.5865 8.40898 21.9031 8.95732 21.7601 9.49079C21.6172 10.0243 21.0688 10.3408 20.5354 10.1979L18.2034 9.57305L13.9998 12L18.2034 14.4269L20.5353 13.8021C21.0688 13.6591 21.6171 13.9757 21.7601 14.5092C21.903 15.0426 21.5864 15.591 21.053 15.7339L19.2868 16.2072L19.7601 17.9733C19.903 18.5068 19.5864 19.0551 19.053 19.198C18.5195 19.341 17.9712 19.0244 17.8282 18.4909L17.2034 16.159L12.9999 13.7321V18.5858L14.7071 20.2929C15.0976 20.6834 15.0976 21.3166 14.7071 21.7071C14.3165 22.0976 13.6834 22.0976 13.2928 21.7071L11.9999 20.4142L10.7071 21.7071C10.3165 22.0976 9.68336 22.0976 9.29284 21.7071C8.90231 21.3166 8.90231 20.6834 9.29284 20.2929L10.9999 18.5858V13.732L6.79651 16.1588L6.17167 18.4908C6.02872 19.0243 5.48039 19.3408 4.94692 19.1979C4.41346 19.055 4.09687 18.5066 4.23981 17.9731L4.71305 16.207L2.94692 15.7338C2.41346 15.5908 2.09687 15.0425 2.23981 14.509C2.38276 13.9756 2.93109 13.659 3.46456 13.8019L5.79651 14.4268L9.99983 12L5.79646 9.57319L3.46451 10.198C2.93105 10.341 2.38271 10.0244 2.23977 9.49092C2.09682 8.95746 2.41341 8.40912 2.94687 8.26618L4.713 7.79295L4.23977 6.02682C4.09683 5.49336 4.41341 4.94502 4.94687 4.80208C5.48034 4.65913 6.02868 4.97572 6.17162 5.50918L6.79646 7.84113L10.9999 10.268V5.4142L9.29284 3.70709C8.90231 3.31657 8.90231 2.6834 9.29284 2.29288Z" fill="black" fill-opacity="0.4"/>
<path fill-rule="evenodd" clip-rule="evenodd" d="M12 17C14.7614 17 17 14.7614 17 12C17 9.23856 14.7614 6.99998 12 6.99998C9.23858 6.99998 7 9.23856 7 12C7 14.7614 9.23858 17 12 17ZM12 19C15.866 19 19 15.866 19 12C19 8.13399 15.866 4.99998 12 4.99998C8.13401 4.99998 5 8.13399 5 12C5 15.866 8.13401 19 12 19Z" fill="black"/>
</svg>
