<svg width="24" height="24" viewBox="0 0 24 24" fill="none" xmlns="http://www.w3.org/2000/svg">
<path fill-rule="evenodd" clip-rule="evenodd" d="M14.9999 3.25003C14.5857 3.25003 14.2499 3.58582 14.2499 4.00003C14.2499 4.41424 14.5857 4.75003 14.9999 4.75003H17.5986L14.3759 9.58401C14.2225 9.81415 14.2082 10.1101 14.3387 10.3539C14.4692 10.5978 14.7233 10.75 14.9999 10.75H18.9999C19.4142 10.75 19.7499 10.4142 19.7499 10C19.7499 9.58582 19.4142 9.25003 18.9999 9.25003H16.4013L19.624 4.41606C19.7774 4.18591 19.7917 3.89001 19.6612 3.64614C19.5307 3.40227 19.2765 3.25003 18.9999 3.25003H14.9999ZM17 13.25C17.3228 13.25 17.6094 13.4566 17.7115 13.7629L19.7115 19.7629C19.8425 20.1558 19.6301 20.5806 19.2371 20.7115C18.8442 20.8425 18.4194 20.6302 18.2884 20.2372L18.1261 19.75H15.8739L15.7115 20.2372C15.5805 20.6302 15.1557 20.8425 14.7628 20.7115C14.3698 20.5806 14.1575 20.1558 14.2884 19.7629L16.2884 13.7629C16.3905 13.4566 16.6771 13.25 17 13.25ZM17 16.3717L17.6261 18.25H16.3739L17 16.3717Z" fill="black" fill-opacity="0.4"/>
<path fill-rule="evenodd" clip-rule="evenodd" d="M7.00003 5.41424L5.00003 7.41424L3.58582 6.00003L7.29292 2.29292C7.39769 2.18816 7.51992 2.1115 7.65024 2.06294C7.73687 2.03059 7.82919 2.00991 7.92528 2.00281C8.06914 1.99209 8.21487 2.01236 8.35164 2.06362C8.48128 2.11221 8.60286 2.18864 8.70714 2.29292L12.4142 6.00003L11 7.41424L9.00003 5.41425V21.0001C9.00003 21.5523 8.55232 22.0001 8.00003 22.0001C7.44775 22.0001 7.00003 21.5523 7.00003 21.0001V5.41424Z" fill="black"/>
</svg>
