<svg width="24" height="24" viewBox="0 0 24 24" fill="none" xmlns="http://www.w3.org/2000/svg">
<path d="M13 5C12.448 5 12 5.448 12 6C12 6.552 12.448 7 13 7H21C21.552 7 22 6.552 22 6C22 5.448 21.552 5 21 5H13ZM13 9.00001C12.448 9.00001 12 9.44801 12 10C12 10.552 12.448 11 13 11H19C19.552 11 20 10.552 20 10C20 9.44801 19.552 9.00001 19 9.00001H13ZM13 13C12.448 13 12 13.448 12 14C12 14.552 12.448 15 13 15H17C17.552 15 18 14.552 18 14C18 13.448 17.552 13 17 13H13ZM13 17C12.448 17 12 17.448 12 18C12 18.552 12.448 19 13 19H15C15.552 19 16 18.552 16 18C16 17.448 15.552 17 15 17H13Z" fill="black" fill-opacity="0.4"/>
<path d="M6.40601 20C5.85401 20 5.40601 19.5523 5.40601 19.0007V7.4473L3.40601 9.41386L2 8.0089L5.68701 4.29266C6.07801 3.90295 6.734 3.90195 7.125 4.29266L10.812 8.0089L9.40601 9.41386L7.40601 7.4473V19.0007C7.40601 19.5523 6.95801 20 6.40601 20Z" fill="black"/>
</svg>
