<svg width="24" height="24" viewBox="0 0 24 24" fill="none" xmlns="http://www.w3.org/2000/svg">
<path fill-rule="evenodd" clip-rule="evenodd" d="M17.5 4.75C17.0858 4.75 16.75 5.08579 16.75 5.5C16.75 5.91421 17.0858 6.25 17.5 6.25C17.9142 6.25 18.25 5.91421 18.25 5.5C18.25 5.08579 17.9142 4.75 17.5 4.75ZM15.25 5.5C15.25 4.25736 16.2574 3.25 17.5 3.25C18.7426 3.25 19.75 4.25736 19.75 5.5H19.75V8.5C19.75 9.74264 18.7426 10.75 17.5 10.75C16.5192 10.75 15.6867 10.1228 15.3782 9.24993C15.2402 8.8594 15.4449 8.43091 15.8354 8.29287C16.226 8.15483 16.6545 8.35953 16.7925 8.75007C16.8958 9.04237 17.1746 9.25 17.5 9.25C17.9142 9.25 18.25 8.91421 18.25 8.5V7.62197C18.0154 7.70488 17.763 7.75 17.5 7.75C16.2574 7.75 15.25 6.74264 15.25 5.5ZM18.287 13.3071C18.5673 13.4232 18.75 13.6967 18.75 14V20C18.75 20.4142 18.4142 20.75 18 20.75C17.5858 20.75 17.25 20.4142 17.25 20V15.8107L16.5303 16.5304C16.2374 16.8232 15.7626 16.8232 15.4697 16.5304C15.1768 16.2375 15.1768 15.7626 15.4697 15.4697L17.4697 13.4697C17.6842 13.2552 18.0068 13.191 18.287 13.3071Z" fill="black" fill-opacity="0.4"/>
<path fill-rule="evenodd" clip-rule="evenodd" d="M9.00003 3C9.00003 2.44772 8.55232 2 8.00003 2C7.44775 2 7.00003 2.44772 7.00003 3V18.5858L5.00003 16.5858L3.58582 18L7.29292 21.7071C7.68345 22.0977 8.31661 22.0977 8.70714 21.7071L12.4142 18L11 16.5858L9.00003 18.5858V3Z" fill="black"/>
</svg>
