<svg width="24" height="24" viewBox="0 0 24 24" fill="none" xmlns="http://www.w3.org/2000/svg">
<path d="M12 5C7.5817 5 4 8.582 4 13C4 17.418 7.5817 21 12 21C16.418 21 20 17.418 20 13C20 8.582 16.418 5 12 5Z" fill="black" fill-opacity="0.4"/>
<path d="M11.9798 2C11.2369 2 10.4831 2.1139 9.72414 2.31174C9.18859 2.45262 8.89445 2.99619 9.03491 3.52975C9.17536 4.06331 9.72113 4.38804 10.2565 4.24815C10.856 4.09128 11.4174 3.99836 11.9798 3.99836C12.5593 3.99836 13.1367 4.09128 13.7342 4.24815C14.2696 4.38804 14.815 4.06331 14.9563 3.52975C15.0967 2.99619 14.7708 2.45262 14.2355 2.31174C13.4776 2.1139 12.7377 2 11.9798 2ZM18.9975 4.99754C18.4441 4.99754 17.995 5.44517 17.995 5.99672C17.995 6.54827 18.4441 6.9959 18.9975 6.9959C19.5509 6.9959 20 6.54827 20 5.99672C20 5.44517 19.5509 4.99754 18.9975 4.99754ZM11.9798 8.99426C11.4264 8.99426 10.9773 9.44189 10.9773 9.99344V12.991C10.9773 13.2558 11.0715 13.5215 11.259 13.7094L13.264 15.7077C13.656 16.0974 14.3137 16.0974 14.7057 15.7077C15.0967 15.3171 15.0967 14.6616 14.7057 14.2709L12.9823 12.5533V9.99344C12.9823 9.44189 12.5332 8.99426 11.9798 8.99426Z" fill="black"/>
</svg>
