<svg width="24" height="24" viewBox="0 0 24 24" fill="none" xmlns="http://www.w3.org/2000/svg">
<path d="M12 2C6.477 2 2 6.477 2 12C2 17.523 6.477 22 12 22C17.523 22 22 17.523 22 12C22 6.477 17.523 2 12 2ZM10 8H14C15.105 8 16 8.895 16 10V14C16 15.105 15.105 16 14 16H10C8.895 16 8 15.105 8 14V10C8 8.895 8.895 8 10 8Z" fill="black" fill-opacity="0.4"/>
<path d="M8 10C8 8.89543 8.89543 8 10 8H14C15.1046 8 16 8.89543 16 10V14C16 15.1046 15.1046 16 14 16H10C8.89543 16 8 15.1046 8 14V10Z" fill="black"/>
</svg>
