<svg width="24" height="24" viewBox="0 0 24 24" fill="none" xmlns="http://www.w3.org/2000/svg">
<path d="M8.99999 5C6.791 5 5 6.7909 5 9V15C5 17.209 6.791 19 8.99999 19H15C17.209 19 19 17.209 19 15V9C19 6.7909 17.209 5 15 5H8.99999ZM8.99999 7H15C16.105 7 17 7.8954 17 9V15C17 16.105 16.105 17 15 17H8.99999C7.89499 17 7 16.105 7 15V9C7 7.8954 7.89499 7 8.99999 7Z" fill="black"/>
<path d="M9 7H15C16.105 7 17 7.8954 17 9V15C17 16.105 16.105 17 15 17H9C7.895 17 7 16.105 7 15V9C7 7.8954 7.895 7 9 7Z" fill="black" fill-opacity="0.4"/>
</svg>
