<svg width="24" height="24" viewBox="0 0 24 24" fill="none" xmlns="http://www.w3.org/2000/svg">
<path d="M12 3C11.7 3 11.388 3.14001 11.188 3.40601C10.489 4.33801 9.6668 5.12401 8.5 6.03101C8.08 6.35801 6.5477 7.48999 6.25 7.71899C4.0087 9.44299 3 10.859 3 13C3 15.759 5.2384 17.993 8 18C8.2689 18.001 8.4557 17.99 8.7 17.936C8.6417 18.162 8.6384 18.21 8.5625 18.438C8.4623 18.738 8.3567 19.001 8.25 19.25C8.1877 19.395 8.1166 19.517 8.0938 19.562C7.7613 20.227 8.2566 21 9 21H15C15.743 21 16.239 20.227 15.906 19.562C15.883 19.517 15.812 19.395 15.75 19.25C15.643 19.001 15.538 18.738 15.438 18.438C15.362 18.21 15.351 18.16 15.293 17.935C15.535 17.988 15.734 18 16 18C18.761 18.004 21 15.763 21 13C21 10.859 19.991 9.44299 17.75 7.71899C17.452 7.48999 15.92 6.35801 15.5 6.03101C14.333 5.12501 13.511 4.33801 12.812 3.40601C12.612 3.14001 12.3 3 12 3ZM12.009 5.562C12.628 6.241 13.323 6.88 14.281 7.625C14.728 7.972 16.226 9.07101 16.5 9.28101C18.297 10.664 19 11.634 19 13C19 14.658 17.655 16.002 16 16C15.636 16 15.341 15.875 15.094 15.688C14.95 15.579 14.865 15.502 14.844 15.469C14.304 14.629 13 15.002 13 16C13 16.977 13.204 17.998 13.536 19.009L10.46 19.002C10.792 17.991 11 16.977 11 16C11 15.006 9.6998 14.636 9.1562 15.469C9.1332 15.504 9.0525 15.577 8.9062 15.688C8.6567 15.876 8.3571 16.001 8 16C6.3397 15.996 5 14.655 5 13C5 11.634 5.703 10.664 7.5 9.28101C7.7737 9.07101 9.2723 7.972 9.7188 7.625C10.677 6.88 11.342 6.267 12.009 5.562Z" fill="black"/>
<path d="M12.009 5.56055C12.628 6.23955 13.323 6.88 14.281 7.625C14.728 7.972 16.226 9.0693 16.5 9.2793C18.297 10.6623 19 11.634 19 13C19 14.658 17.655 16.002 16 16C15.636 16 15.341 15.8745 15.094 15.6875C14.95 15.5785 14.865 15.5017 14.844 15.4688C14.304 14.6287 13 15.002 13 16C13 16.977 13.204 17.9968 13.536 19.0078L10.46 19.002C10.792 17.991 11 16.977 11 16C11 15.006 9.6998 14.6357 9.1562 15.4688C9.1332 15.5037 9.0525 15.5765 8.9062 15.6875C8.6567 15.8755 8.3571 16.001 8 16C6.3397 15.996 5 14.655 5 13C5 11.634 5.703 10.6623 7.5 9.2793C7.7737 9.0693 9.2723 7.972 9.7188 7.625C10.677 6.88 11.342 6.26555 12.009 5.56055Z" fill="black" fill-opacity="0.4"/>
</svg>
