<svg width="24" height="24" viewBox="0 0 24 24" fill="none" xmlns="http://www.w3.org/2000/svg">
<path fill-rule="evenodd" clip-rule="evenodd" d="M11 12C11 11.4477 11.4477 11 12 11C12.5523 11 13 11.4477 13 12C13 11.0994 13.2976 10.2683 13.7999 9.59972C13.2985 9.22314 12.6753 9 12 9C11.3247 9 10.7015 9.22314 10.2001 9.59972C10.7024 10.2683 11 11.0994 11 12ZM3.12602 11C3.04375 11.3196 3 11.6547 3 12C3 12.3453 3.04375 12.6804 3.12602 13H3C2.44772 13 2 12.5523 2 12C2 11.4477 2.44772 11 3 11H3.12602ZM21 12C21 12.3453 20.9562 12.6804 20.874 13H21C21.5523 13 22 12.5523 22 12C22 11.4477 21.5523 11 21 11H20.874C20.9562 11.3196 21 11.6547 21 12Z" fill="black" fill-opacity="0.4"/>
<path fill-rule="evenodd" clip-rule="evenodd" d="M9 12C9 13.1046 8.10457 14 7 14C5.89543 14 5 13.1046 5 12C5 10.8954 5.89543 10 7 10C8.10457 10 9 10.8954 9 12ZM11 12C11 14.2091 9.20914 16 7 16C4.79086 16 3 14.2091 3 12C3 9.79086 4.79086 8 7 8C9.20914 8 11 9.79086 11 12ZM19 12C19 13.1046 18.1046 14 17 14C15.8954 14 15 13.1046 15 12C15 10.8954 15.8954 10 17 10C18.1046 10 19 10.8954 19 12ZM21 12C21 14.2091 19.2091 16 17 16C14.7909 16 13 14.2091 13 12C13 9.79086 14.7909 8 17 8C19.2091 8 21 9.79086 21 12Z" fill="black"/>
</svg>
