<svg width="24" height="24" viewBox="0 0 24 24" fill="none" xmlns="http://www.w3.org/2000/svg">
<path d="M6.5 7C4.015 7 2 9.015 2 11.5C2 13.985 4.015 16 6.5 16C8.98499 16 11 13.985 11 11.5C11 11.378 11 11.06 11 11C11 10.448 11.448 10 12 10C12.552 10 13 10.448 13 11C13 11.06 13 11.378 13 11.5C13 13.985 15.015 16 17.5 16C19.985 16 22 13.985 22 11.5C22 9.015 19.985 7 17.5 7C16.04 7 14.728 7.70401 13.906 8.78101C13.383 8.31901 12.768 8 12 8C11.232 8 10.562 8.37301 10.094 8.78101C9.27199 7.70401 7.96 7 6.5 7Z" fill="black" fill-opacity="0.4"/>
<path fill-rule="evenodd" clip-rule="evenodd" d="M4.5 11.5C4.5 10.3954 5.39543 9.5 6.5 9.5C6.77614 9.5 7 9.27614 7 9C7 8.72386 6.77614 8.5 6.5 8.5C4.84315 8.5 3.5 9.84315 3.5 11.5C3.5 11.7761 3.72386 12 4 12C4.27614 12 4.5 11.7761 4.5 11.5ZM15.5 11.5C15.5 10.3954 16.3954 9.5 17.5 9.5C17.7761 9.5 18 9.27614 18 9C18 8.72386 17.7761 8.5 17.5 8.5C15.8431 8.5 14.5 9.84315 14.5 11.5C14.5 11.7761 14.7239 12 15 12C15.2761 12 15.5 11.7761 15.5 11.5Z" fill="black"/>
</svg>
