<svg width="24" height="24" viewBox="0 0 24 24" fill="none" xmlns="http://www.w3.org/2000/svg">
<path fill-rule="evenodd" clip-rule="evenodd" d="M6 16V18C6 19.1046 6.89543 20 8 20H11V16H6ZM6 14H11V10H13V14H18V10H20V18C20 20.2091 18.2091 22 16 22H8C5.79086 22 4 20.2091 4 18V10H6V14ZM18 16H13V20H16C17.1046 20 18 19.1046 18 18V16Z" fill="black" fill-opacity="0.4"/>
<path fill-rule="evenodd" clip-rule="evenodd" d="M6 8V6C6 4.89543 6.89543 4 8 4H11V8H6ZM20 10V6C20 3.79086 18.2091 2 16 2H8C5.79086 2 4 3.79086 4 6V10H20ZM18 8H13V4H16C17.1046 4 18 4.89543 18 6V8Z" fill="black"/>
</svg>
