<svg width="24" height="24" viewBox="0 0 24 24" fill="none" xmlns="http://www.w3.org/2000/svg">
<path d="M5.93799 4C4.24999 4 2 6.24999 2 7.93799C2 10.112 4.25 14.125 6.5 16.375C6.742 16.617 7.383 17.258 7.625 17.5C9.875 19.75 13.888 22 16.062 22C17.75 22 20 19.75 20 18.062C20 16.375 17.75 14.125 16.062 14.125C15.5 14.125 13.465 15.289 13.25 15.25C11.456 14.926 9.125 12.537 8.75 10.75C8.698 10.501 9.875 8.49999 9.875 7.93799C9.875 6.24999 7.62499 4 5.93799 4Z" fill="black" fill-opacity="0.4"/>
<path d="M15.3933 2.50169C14.8727 2.31501 14.2972 2.57555 14.1099 3.09466C13.9225 3.61376 14.2154 4.18677 14.736 4.37345C17.0039 5.18704 18.7945 7.00291 19.588 9.27099C19.7701 9.79209 20.3178 10.0456 20.8402 9.86396C21.3626 9.68227 21.6484 9.13721 21.4662 8.61611C20.4738 5.77902 18.2298 3.51893 15.3933 2.50169ZM13.6403 6.40193C13.4015 6.49477 13.219 6.67945 13.1081 6.93201C12.8863 7.43714 13.1021 8.02114 13.609 8.24176C14.5487 8.65205 15.308 9.38977 15.7063 10.3321C15.9211 10.8403 16.5113 11.0769 17.0211 10.8622C17.531 10.6486 17.7681 10.0916 17.5532 9.58344C16.9556 8.16988 15.8328 7.01586 14.4228 6.40193C14.1695 6.29112 13.879 6.30809 13.6403 6.40193Z" fill="black"/>
</svg>
