<svg width="24" height="24" viewBox="0 0 24 24" fill="none" xmlns="http://www.w3.org/2000/svg">
<path d="M21 5C21.552 5 22 5.448 22 6C22 6.552 21.552 7 21 7H3C2.448 7 2 6.552 2 6C2 5.448 2.448 5 3 5H21ZM15 9.00001C15.552 9.00001 16 9.44801 16 10C16 10.552 15.552 11 15 11H3C2.448 11 2 10.552 2 10C2 9.44801 2.448 9.00001 3 9.00001H15ZM15 13C15.552 13 16 13.448 16 14C16 14.552 15.552 15 15 15H3C2.448 15 2 14.552 2 14C2 13.448 2.448 13 3 13H15ZM21 17C21.552 17 22 17.448 22 18C22 18.552 21.552 19 21 19H3C2.448 19 2 18.552 2 18C2 17.448 2.448 17 3 17H21Z" fill="black" fill-opacity="0.4"/>
<path fill-rule="evenodd" clip-rule="evenodd" d="M21.7071 9.29289C21.3166 8.90237 20.6834 8.90237 20.2929 9.29289L18.2929 11.2929C17.9024 11.6834 17.9024 12.3166 18.2929 12.7071L20.2929 14.7071C20.6834 15.0976 21.3166 15.0976 21.7071 14.7071C22.0976 14.3166 22.0976 13.6834 21.7071 13.2929L20.4142 12L21.7071 10.7071C22.0976 10.3166 22.0976 9.68342 21.7071 9.29289Z" fill="black"/>
</svg>
