<svg width="24" height="24" viewBox="0 0 24 24" fill="none" xmlns="http://www.w3.org/2000/svg">
<path d="M3 13C2.448 13 2 13.448 2 14C2 14.552 2.448 15 3 15H21C21.552 15 22 14.552 22 14C22 13.448 21.552 13 21 13H3ZM7 17C6.448 17 6 17.448 6 18C6 18.552 6.448 19 7 19H17C17.552 19 18 18.552 18 18C18 17.448 17.552 17 17 17H7Z" fill="black" fill-opacity="0.4"/>
<path d="M3 5C2.448 5 2 5.448 2 6C2 6.552 2.448 7 3 7H21C21.552 7 22 6.552 22 6C22 5.448 21.552 5 21 5H3ZM7 9.00001C6.448 9.00001 6 9.44801 6 10C6 10.552 6.448 11 7 11H17C17.552 11 18 10.552 18 10C18 9.44801 17.552 9.00001 17 9.00001H7Z" fill="black"/>
</svg>
