<svg width="24" height="24" viewBox="0 0 24 24" fill="none" xmlns="http://www.w3.org/2000/svg">
<path d="M3 5C2.448 5 2 5.448 2 6C2 6.552 2.448 7 3 7H21C21.552 7 22 6.552 22 6C22 5.448 21.552 5 21 5H3ZM9 9.00001C8.448 9.00001 8 9.44801 8 10C8 10.552 8.448 11 9 11H21C21.552 11 22 10.552 22 10C22 9.44801 21.552 9.00001 21 9.00001H9ZM9 13C8.448 13 8 13.448 8 14C8 14.552 8.448 15 9 15H21C21.552 15 22 14.552 22 14C22 13.448 21.552 13 21 13H9ZM3 17C2.448 17 2 17.448 2 18C2 18.552 2.448 19 3 19H21C21.552 19 22 18.552 22 18C22 17.448 21.552 17 21 17H3Z" fill="black" fill-opacity="0.4"/>
<path fill-rule="evenodd" clip-rule="evenodd" d="M2.29289 9.29289C2.68342 8.90237 3.31658 8.90237 3.70711 9.29289L5.70711 11.2929C6.09763 11.6834 6.09763 12.3166 5.70711 12.7071L3.70711 14.7071C3.31658 15.0976 2.68342 15.0976 2.29289 14.7071C1.90237 14.3166 1.90237 13.6834 2.29289 13.2929L3.58579 12L2.29289 10.7071C1.90237 10.3166 1.90237 9.68342 2.29289 9.29289Z" fill="black"/>
</svg>
