<svg width="24" height="24" viewBox="0 0 24 24" fill="none" xmlns="http://www.w3.org/2000/svg">
<path d="M15 2C12.791 2 11 3.791 11 6V14.062C10.352 14.902 10 15.959 10 17C10 19.761 12.239 22 15 22C17.761 22 20 19.761 20 17C20 15.959 19.638 14.879 19 14.062V6C19 3.791 17.209 2 15 2ZM15 4C16.105 4 17 4.895 17 6V14.406C17 14.646 17.093 14.881 17.25 15.062C17.738 15.628 18 16.297 18 17C18 18.657 16.657 20 15 20C13.343 20 12 18.657 12 17C12 16.297 12.262 15.628 12.75 15.062C12.907 14.881 13 14.646 13 14.406V6C13 4.895 13.895 4 15 4Z" fill="black"/>
<path d="M5 5C4.448 5 4 5.448 4 6C4 6.552 4.448 7 5 7H7C7.552 7 8 6.552 8 6C8 5.448 7.552 5 7 5H5ZM5 9C4.448 9 4 9.448 4 10C4 10.552 4.448 11 5 11H7C7.552 11 8 10.552 8 10C8 9.448 7.552 9 7 9H5ZM5 13C4.448 13 4 13.448 4 14C4 14.552 4.448 15 5 15H7C7.552 15 8 14.552 8 14C8 13.448 7.552 13 7 13H5ZM15 5C14.4477 5 14 5.44691 14 5.99919C14 7.47281 14 15.0765 14 15.2674C13.4021 15.6131 13 16.2594 13 17C13 18.105 13.895 19 15 19C16.105 19 17 18.105 17 17C17 16.2594 16.5979 15.6131 16 15.2674C16 15.0765 16 7.47281 16 5.99919C16 5.44691 15.5523 5 15 5Z" fill="black" fill-opacity="0.4"/>
</svg>
