<svg width="24" height="25" viewBox="0 0 24 25" fill="none" xmlns="http://www.w3.org/2000/svg">
<path fill-rule="evenodd" clip-rule="evenodd" d="M9.80157 12.8312L6.99993 15.6328L6.99735 15.6302L6.66667 15.3121C6.44253 15.0891 6.16014 15.025 5.87369 15.0531C5.58624 15.0811 5.35506 15.2081 5.17917 15.4712L4.81989 16.0075L4.81832 16.0098C4.27936 16.8142 3.36027 18.1859 3.16902 18.4722C2.90268 18.8684 2.95595 19.4166 3.29466 19.7537L4.29973 20.754C4.63844 21.0911 5.15706 21.1432 5.55608 20.8791L8.5713 18.8784C9.09897 18.5283 9.12912 17.737 8.71905 17.3459L8.40849 17.0527L11.2173 14.2439C10.4215 13.4387 10.3457 13.3646 10.1294 13.153C10.0516 13.077 9.95565 12.9831 9.80157 12.8312ZM15.2016 12.248C14.0585 11.1202 12.9184 9.98884 11.7936 8.84267C12.0141 8.56973 12.2424 8.28757 12.4733 8.00282C13.8714 6.27867 15.4403 4.36402 15.8787 3.92555C17.0503 2.75398 18.9498 2.75398 20.1214 3.92555C21.293 5.09713 21.293 6.99662 20.1214 8.1682C19.9158 8.3738 19.3229 8.87394 18.6177 9.45814C17.8883 10.0624 16.9791 10.805 16.0924 11.5254C15.7904 11.7708 15.4909 12.0138 15.2016 12.248Z" fill="black" fill-opacity="0.4"/>
<path d="M7.0129 3.04688C5.99003 3.04688 4.95815 3.42664 4.17724 4.20713C2.61443 5.76811 2.60444 8.30545 4.16626 9.86643C5.16714 10.8658 6.54898 11.2325 7.90782 10.9477C11.7627 14.7965 8.59906 11.5914 13.0902 16.1403C12.9502 16.7519 12.9522 17.4615 13.1272 18.109C13.6841 20.1747 15.9159 21.4799 17.9876 20.9072L15.002 18.0381L15.5119 15.5697L18.0116 15.0391L20.8703 18.0471C21.0412 17.3975 21.0482 16.705 20.8613 16.0094C20.4333 14.4105 19.1185 13.2862 17.5747 13.0713C17.1097 13.0074 16.5828 13.0254 16.0998 13.1333C14.3528 11.4124 12.6055 9.69036 10.9014 7.92669C11.1824 6.64053 10.8195 5.20946 9.81857 4.20911C9.03766 3.42862 8.03678 3.04688 7.0129 3.04688ZM6.35701 4.63983L8.76172 5.2804L9.40562 7.68984L7.62886 9.46368L5.23312 8.8171L4.58122 6.42766L6.35701 4.63983Z" fill="black"/>
</svg>
