<svg width="24" height="25" viewBox="0 0 24 25" fill="none" xmlns="http://www.w3.org/2000/svg">
<path fill-rule="evenodd" clip-rule="evenodd" d="M12 8.04688C11.4477 8.04688 11 8.49459 11 9.04688C11 9.59916 11.4477 10.0469 12 10.0469H15C15.5523 10.0469 16 10.4946 16 11.0469C16 11.5992 15.5523 12.0469 15 12.0469C14.4477 12.0469 14 12.4946 14 13.0469C14 13.5992 14.4477 14.0469 15 14.0469H16C16.5523 14.0469 17 14.4946 17 15.0469C17 15.2307 16.9513 15.4001 16.8668 15.5461C16.5903 16.0242 16.7536 16.6359 17.2317 16.9125C17.7098 17.189 18.3215 17.0257 18.598 16.5476C18.8539 16.1053 19 15.5916 19 15.0469C19 13.9846 18.4479 13.0513 17.615 12.5182C17.8601 12.0835 18 11.5815 18 11.0469C18 9.39002 16.6569 8.04688 15 8.04688H12Z" fill="black" fill-opacity="0.4"/>
<path fill-rule="evenodd" clip-rule="evenodd" d="M4 6.04686C4 3.83787 5.7909 2.04688 8 2.04688H16C18.2091 2.04688 20 3.83787 20 6.04686C20 7.65897 19.0462 9.04845 17.6721 9.68164C17.1752 8.71115 16.1652 8.04688 15 8.04688H14.9939C14.9959 8.04686 14.998 8.04688 15 8.04688C15.0558 8.04688 16.1111 8.04457 16.1658 8.04009C17.1928 7.95587 18 7.09602 18 6.04686C18 4.94187 17.1046 4.04687 16 4.04687H8C6.8954 4.04687 6 4.94187 6 6.04686C6 7.15186 6.8954 8.04686 8 8.04686H8.0312C8.5835 8.04686 9.0312 8.49486 9.0312 9.04685C9.0313 9.59885 8.5835 10.0469 8.0312 10.0469H8C7.4477 10.0469 7 10.4948 7 11.0468C7 11.5988 7.4477 12.0468 8 12.0468H11C11.5523 12.0468 12 12.4948 12 13.0468C12 13.3228 11.8997 13.5848 11.7188 13.7658C11.5378 13.9468 11.2761 14.0468 11 14.0468C10.4477 14.0468 10 14.4948 10 15.0468C10 15.5988 10.4477 16.0468 11 16.0468H14C14.5523 16.0468 15 16.4948 15 17.0468C15 17.5988 14.5523 18.0468 14 18.0468C14 18.8178 14.5931 19.3468 15.7812 19.7028C16.2604 19.8468 16.7857 19.9628 17.3125 20.0158C17.6284 20.0468 17.875 20.0468 18 20.0468C18.5523 20.0468 19 20.4948 19 21.0468C19 21.5988 18.5523 22.0468 18 22.0468C17.8125 22.0468 17.5122 22.0228 17.125 21.9838C16.4799 21.9198 15.8334 21.8248 15.2188 21.6408C13.2819 21.0598 12 19.9008 12 18.0468H11C9.3431 18.0468 8.0074 16.7038 8 15.0468C7.9978 14.5588 8.1665 14.0468 8.1665 14.0468H8C6.3431 14.0468 5 12.7038 5 11.0468C5 10.3548 5.2382 9.69586 5.6054 9.24687C4.668 8.53387 4 7.39486 4 6.04686Z" fill="black"/>
</svg>
