<svg width="24" height="24" viewBox="0 0 24 24" fill="none" xmlns="http://www.w3.org/2000/svg">
<path fill-rule="evenodd" clip-rule="evenodd" d="M6 18C7.10457 18 8 17.1046 8 16C8 14.8954 7.10457 14 6 14C4.89543 14 4 14.8954 4 16C4 17.1046 4.89543 18 6 18ZM18 18C19.1046 18 20 17.1046 20 16C20 14.8954 19.1046 14 18 14C16.8954 14 16 14.8954 16 16C16 17.1046 16.8954 18 18 18Z" fill="black"/>
<path fill-rule="evenodd" clip-rule="evenodd" d="M17 6C16.4477 6 16 6.44769 16 7V12H3C2.44772 12 2 12.4477 2 13V15C2 15.5523 2.44772 16 3 16H4C4 14.8954 4.89542 14 6 14C7.10458 14 8 14.8954 8 16H16C16 14.8954 16.8954 14 18 14C19.1046 14 20 14.8954 20 16H21C21.5523 16 22 15.5523 22 15V12V10C22 7.79083 20.2092 6 18 6H17ZM20 12H18V8C19.1046 8 20 8.89545 20 10V12Z" fill="black" fill-opacity="0.4"/>
</svg>
