<svg width="24" height="24" viewBox="0 0 24 24" fill="none" xmlns="http://www.w3.org/2000/svg">
<path d="M11 19H13V21C13 21.5523 12.5523 22 12 22C11.4477 22 11 21.5523 11 21V19Z" fill="black" fill-opacity="0.4"/>
<path d="M12 2C11.203 2 10.36 2.83801 10.062 3.31201C9.933 3.52001 8.41299 5.99797 8.41299 5.99797C8.41299 5.99797 8.00399 6.56499 7.99999 6.99998C7.99399 7.58798 8.17698 7.95096 8.46398 8.29496C8.02198 8.84096 7.63199 9.35698 7.59399 9.40598C6.34399 11 6 11.463 6 12C6 12.503 6.18599 12.9539 6.47299 13.2979C6.03099 13.8439 5.63199 14.357 5.59399 14.406C4.34399 16 4 16.463 4 17C4 18.152 4.891 19.0169 6 18.9999C11.3337 18.9999 12.8926 18.9999 18 18.9999C19.122 19.0179 20.001 18.139 20 17C20 16.469 19.678 16.031 18.406 14.406C18.37 14.36 17.988 13.84 17.548 13.294C17.831 12.948 18 12.497 18 12C18 11.469 17.678 11.031 16.406 9.40598C16.37 9.35998 15.968 8.84298 15.528 8.29698C15.811 7.95098 16.005 7.47898 16 6.99998C15.995 6.52099 15.517 5.85997 15.517 5.85997C15.517 5.85997 14.028 3.416 13.937 3.281C13.605 2.786 12.774 2 12 2Z" fill="black"/>
</svg>
