<svg width="24" height="24" viewBox="0 0 24 24" fill="none" xmlns="http://www.w3.org/2000/svg">
<path d="M12.0018 3C10.7872 3 9.57879 3.75601 8.72049 5.28101L3.68929 14.219C1.97999 17.257 3.57829 20.0001 7.06429 20.0001H16.9393C20.4252 20.0001 22.0235 17.257 20.3143 14.219L15.283 5.28101C14.4248 3.75601 13.2163 3 12.0018 3ZM12.0018 5.00001C12.5359 5.00001 13.0571 5.43501 13.533 6.28102L18.5643 15.188C19.5234 16.892 18.8955 18.0001 16.9393 18.0001H7.06429C5.10789 18.0001 4.48009 16.892 5.43929 15.188L10.4705 6.28102C10.9464 5.43501 11.4676 5.00001 12.0018 5.00001Z" fill="black"/>
</svg>
