<svg width="24" height="24" viewBox="0 0 24 24" fill="none" xmlns="http://www.w3.org/2000/svg">
<path fill-rule="evenodd" clip-rule="evenodd" d="M3.00928 14V14.0705C3.00928 15.4445 4.00928 17.0705 6.00927 17.0705C7.00927 17.0705 7.80028 16.5605 8.19728 16.1645L8.22827 16.1335C8.65727 15.7035 9.36128 15.7035 9.79028 16.1335L9.82127 16.1645C11.0323 17.3745 12.9863 17.3755 14.1973 16.1645L14.2283 16.1335C14.6573 15.7035 15.3613 15.7035 15.7903 16.1335L15.8213 16.1645C16.2163 16.5585 17.0093 17.0705 18.0093 17.0705C19.5863 17.0705 20.8788 15.854 21 14.3082V18.0004C21 19.6574 19.657 21.0004 18 21.0004C17 21.0004 16.207 20.4884 15.812 20.0944L15.781 20.0634C15.352 19.6334 14.648 19.6334 14.219 20.0634L14.188 20.0944C12.977 21.3054 11.023 21.3044 9.81199 20.0944L9.781 20.0634C9.352 19.6334 8.64799 19.6334 8.21899 20.0634L8.188 20.0944C7.791 20.4904 7 21.0004 6 21.0004C4 21.0004 3 19.3744 3 18.0004V14.0004C3 14.0004 3.00313 14.0004 3.00928 14Z" fill="black" fill-opacity="0.4"/>
<path fill-rule="evenodd" clip-rule="evenodd" d="M21 14.3077V14H19.9995C17.9985 14 13.0052 12 13.0052 8C13.0052 7.50001 13.4868 7 13.9964 7C14.5059 7 14.8869 7.34738 15.2644 8C15.6103 8.5979 16.2569 8.99999 16.9979 8.99999C18.1035 8.99999 18.999 8.10499 18.999 6.99999C18.999 4.791 16.9979 3 13.9964 3C9.99433 3 7.29893 5.37299 6.30442 8.74999C6.29042 8.79899 5.60706 11.117 5.30391 11.656C4.0647 13.8688 3.10369 13.9926 3 13.9996V14.07C3 15.444 4.00052 17.07 6.00155 17.07C7.00206 17.07 7.79347 16.56 8.19068 16.164L8.22169 16.133C8.65091 15.703 9.35528 15.703 9.7845 16.133L9.81551 16.164C11.0271 17.374 12.9821 17.375 14.1938 16.164L14.2248 16.133C14.654 15.703 15.3584 15.703 15.7876 16.133L15.8186 16.164C16.2138 16.558 17.0072 17.07 18.0077 17.07C19.5855 17.07 20.8788 15.8536 21 14.3077Z" fill="black"/>
</svg>
