<svg width="24" height="24" viewBox="0 0 24 24" fill="none" xmlns="http://www.w3.org/2000/svg">
<path d="M11 19V17H13V19H14C14.5523 19 15 19.4477 15 20C15 20.5523 14.5523 21 14 21H10C9.44772 21 9 20.5523 9 20C9 19.4477 9.44772 19 10 19H11Z" fill="black" fill-opacity="0.4"/>
<path d="M5.156 4C3.406 4 2 5.40501 2 7.15601V13.844C2 15.594 3.406 17 5.156 17C11.3901 17 12.8536 17 18.844 17C20.594 17 22 15.595 22 13.844V7.15601C22 5.40601 20.594 4 18.844 4H5.156ZM5.156 6H18.844C19.49 6 20 6.51001 20 7.15601V13.844C20 14.49 19.49 15 18.844 15H5.156C4.51 15 4 14.49 4 13.844V7.15601C4 6.51001 4.51 6 5.156 6Z" fill="black"/>
</svg>
