<svg width="24" height="24" viewBox="0 0 24 24" fill="none" xmlns="http://www.w3.org/2000/svg">
<path d="M20.3762 4.07735C20.0289 3.93349 19.599 3.98144 19.2845 4.29614L15.2923 8.29228C14.9026 8.68291 14.9026 9.33827 15.2923 9.72889C15.6821 10.1185 16.3373 10.1185 16.7271 9.72889L19.0039 7.4491V19.001C19.0039 19.5524 19.4507 20 20.0019 20C20.5532 20 21 19.5524 21 19.001V5.01444C21 4.56987 20.7235 4.22221 20.3762 4.07735Z" fill="black" fill-opacity="0.4"/>
<path d="M4 4C3.4477 4 3 4.448 3 5V19C3 19.552 3.4477 20 4 20C4.5523 20 5 19.552 5 19V13H11V19C11 19.552 11.4477 20 12 20C12.5523 20 13 19.552 13 19V5C13 4.448 12.5523 4 12 4C11.4477 4 11 4.448 11 5V11H5V5C5 4.448 4.5523 4 4 4Z" fill="black"/>
</svg>
