<svg width="24" height="24" viewBox="0 0 24 24" fill="none" xmlns="http://www.w3.org/2000/svg">
<path d="M17.5616 8C16.0338 8 14.5709 9.16699 14.062 10.688C13.887 11.211 14.163 11.762 14.6869 11.938C15.2109 12.113 15.7618 11.836 15.9368 11.313C16.1828 10.578 16.9287 10 17.5616 10H18.4365C19.2674 10 19.9993 10.864 19.9993 12V13C19.1134 13 18.0176 13 17.5616 13C15.5958 13 14 14.561 14 16.5C14 18.44 15.5958 20.003 17.5616 20C17.6116 20 17.9316 20.001 18.0306 20C18.7975 19.992 19.4994 19.736 20.1243 19.344C20.2713 19.713 20.5773 20 20.9992 20C21.5512 20 21.9991 19.552 21.9991 19V16C22.0011 15.792 21.9991 14.077 21.9991 14V12C21.9991 9.822 20.4463 8 18.4365 8H17.5616ZM17.5616 15C18.0176 15 19.1164 15 19.9993 15C19.9993 15.454 20.0003 15.872 19.9993 15.969C19.9823 17.204 19.0624 17.989 17.9996 18C17.9306 18.001 17.6446 18 17.5616 18C16.6897 18.001 15.9998 17.323 15.9998 16.5C15.9998 15.678 16.6877 15 17.5616 15Z" fill="black" fill-opacity="0.4"/>
<path d="M7.4679 4C7.066 4.001 6.64504 4.22415 6.49771 4.68848L2.04974 18.6984C1.88236 19.2248 2.14896 19.7812 2.67614 19.9493C3.20333 20.1164 3.76158 19.8502 3.92895 19.3238L5.30705 15.0078H9.66082L11.07 19.3238C11.2414 19.8492 11.7966 20.1194 12.3228 19.9493C12.849 19.7782 13.1196 19.2238 12.9492 18.6984L8.408 4.68848C8.25767 4.22515 7.87081 3.999 7.4679 4ZM7.4679 8.28404L9.00333 13.0064H5.96453L7.4679 8.28404Z" fill="black"/>
</svg>
