<svg width="24" height="24" viewBox="0 0 24 24" fill="none" xmlns="http://www.w3.org/2000/svg">
<path d="M14 3C13.448 3 13 3.448 13 4V6C13 6.552 13.448 7 14 7H20C20.552 7 21 6.552 21 6V4C21 3.448 20.552 3 20 3H14ZM14 9C13.448 9 13 9.448 13 10C13 10.552 13.448 11 14 11H18C18.552 11 19 10.552 19 10C19 9.448 18.552 9 18 9H14ZM7.00001 13C4.791 13 3 14.791 3 17C3 19.209 4.791 21 7.00001 21C9.20901 21 11 19.209 11 17C11 14.791 9.20901 13 7.00001 13ZM14 13C13.448 13 13 13.448 13 14V16C13 16.552 13.448 17 14 17H20C20.552 17 21 16.552 21 16V14C21 13.448 20.552 13 20 13H14ZM7.00001 15C8.10501 15 9.00001 15.895 9.00001 17C9.00001 18.105 8.10501 19 7.00001 19C5.895 19 5 18.105 5 17C5 15.895 5.895 15 7.00001 15ZM14 19C13.448 19 13 19.448 13 20C13 20.552 13.448 21 14 21H18C18.552 21 19 20.552 19 20C19 19.448 18.552 19 18 19H14Z" fill="black" fill-opacity="0.4"/>
<circle cx="7" cy="7" r="4" fill="black"/>
</svg>
