<svg width="24" height="24" viewBox="0 0 24 24" fill="none" xmlns="http://www.w3.org/2000/svg">
<path d="M10.9927 12.1348L10.9939 19C10.9939 19.552 10.5469 20 9.99541 20C9.44395 20 8.99694 19.552 8.99694 19C8.99694 18.448 8.54992 18 7.99847 18C7.44701 18 7 18.448 7 19C7 20.657 8.34114 22 9.99541 22C11.6498 22 12.9908 20.657 12.9908 19L13 12.1543C12.7456 12.0771 12.3684 12.0024 11.9923 12.0001C11.617 11.9977 11.2427 12.0675 10.9927 12.1348Z" fill="black" fill-opacity="0.4"/>
<path d="M12 2C11.4477 2 11 2.448 11 3L10.9975 3.03302C5.24921 3.59702 1.99531 7.98898 2.00001 12C2.00101 12.835 2.72061 13.003 3.00001 13C3.27941 12.997 3.5004 12.882 3.5938 12.813C3.7096 12.726 3.97461 12.562 4.31251 12.406C4.86961 12.15 5.4352 12 6 12C6.56481 12 7.13051 12.15 7.6875 12.406C8.0254 12.562 8.29051 12.726 8.40631 12.813C8.47141 12.861 8.68671 13 9.00001 13C9.31331 13 9.52861 12.861 9.59381 12.813C9.70961 12.726 9.9746 12.562 10.3125 12.406C10.5388 12.302 10.7704 12.202 10.9988 12.136C10.9988 12.136 11.5 12 12 12C12.5 12 13.0092 12.155 13.0092 12.155C13.0092 12.155 13.4613 12.302 13.6875 12.406C14.0254 12.562 14.2905 12.726 14.4063 12.813C14.4714 12.861 14.6837 13.006 15 13C15.3164 12.994 15.5286 12.861 15.5938 12.813C15.7096 12.726 15.9746 12.562 16.3125 12.406C16.8696 12.15 17.4352 12 18 12C18.5648 12 19.1305 12.15 19.6875 12.406C20.0254 12.562 20.2905 12.726 20.4063 12.813C20.4996 12.882 20.6878 12.989 20.994 12.997C21.3003 13.005 21.565 12.895 21.8037 12.601C21.9933 12.367 21.9978 12.126 21.9976 11.859C21.9941 8.02199 18.8324 3.63802 12.9976 3.04602L13 3C13 2.448 12.5523 2 12 2ZM12 4.99999C12.7028 4.99999 13.6918 7.38701 13.9347 10.34C13.3537 10.146 12.6218 9.99998 12 9.99998C11.3782 9.99998 10.6994 10.108 10.0676 10.356C10.2994 7.316 11.2972 4.99999 12 4.99999ZM9.16681 5.45696C8.57741 6.76296 8.1929 8.44599 8.0609 10.39C7.3769 10.121 6.743 9.99998 6 9.99998C5.4324 9.99998 4.78781 10.123 4.254 10.287C4.87951 8.05497 6.73501 6.27296 9.16681 5.45696ZM14.8318 5.44097C17.2636 6.25697 19.1378 8.05601 19.7632 10.288C19.2294 10.124 18.5676 9.99998 18 9.99998C17.257 9.99998 16.6199 10.125 15.9358 10.394C15.8039 8.44996 15.4212 6.74796 14.8318 5.44097Z" fill="black"/>
</svg>
