<svg width="24" height="24" viewBox="0 0 24 24" fill="none" xmlns="http://www.w3.org/2000/svg">
<path d="M3 5C2.448 5 2 5.448 2 6V18C2 18.552 2.448 19 3 19C3.552 19 4 18.552 4 18V6C4 5.448 3.552 5 3 5ZM7 5C6.448 5 6 5.448 6 6V18C6 18.552 6.448 19 7 19C7.552 19 8 18.552 8 18V6C8 5.448 7.552 5 7 5ZM11 5C10.448 5 9.99999 5.448 9.99999 6V18C9.99999 18.552 10.448 19 11 19C11.552 19 12 18.552 12 18V6C12 5.448 11.552 5 11 5ZM21 5C20.448 5 20 5.448 20 6V18C20 18.552 20.448 19 21 19C21.552 19 22 18.552 22 18V6C22 5.448 21.552 5 21 5Z" fill="black" fill-opacity="0.4"/>
<path d="M15 5C14.448 5 14 5.448 14 6C14 7.5 14 16.5 14 18C14 18.552 14.448 19 15 19H17C17.552 19 18 18.552 18 18V6C18 5.448 17.552 5 17 5H15Z" fill="black"/>
</svg>
