<svg width="24" height="24" viewBox="0 0 24 24" fill="none" xmlns="http://www.w3.org/2000/svg">
<path d="M15.9312 18.2385C16.6246 18.0781 17.2786 17.7479 17.7302 17.1968C19.2334 15.3627 19.9417 13.0126 20 10.9876L12.9952 4C11.1176 4.04436 8.75754 4.90544 6.92661 6.2654C6.29619 6.73365 5.90952 7.44662 5.73237 8.21269L3 19.5887C4.12932 18.457 10.0633 12.513 10.0633 12.513C10.0213 12.3513 9.99891 12.1817 9.99891 12.0068C9.99891 10.9013 10.8932 10.0051 11.9964 10.0051C13.0995 10.0051 13.9938 10.9013 13.9938 12.0068C13.9938 13.1123 13.0995 14.0085 11.9964 14.0085C11.8118 14.0085 11.633 13.9834 11.4633 13.9364C11.4633 13.9364 5.52663 19.8845 4.41352 21L15.9312 18.2385Z" fill="black"/>
<path d="M14.2371 2.73514L13 3.97225L20.0277 11L21.2649 9.76288C22.245 8.7827 22.245 7.19352 21.2649 6.21334L17.7867 2.73514C16.8065 1.75495 15.2173 1.75496 14.2371 2.73514Z" fill="black" fill-opacity="0.4"/>
</svg>
