<svg width="24" height="24" viewBox="0 0 24 24" fill="none" xmlns="http://www.w3.org/2000/svg">
<path fill-rule="evenodd" clip-rule="evenodd" d="M10.2422 14C9.43496 15.206 8.06021 16 6.5 16H17.5C15.9398 16 14.565 15.206 13.7578 14H10.2422Z" fill="black" fill-opacity="0.4"/>
<path fill-rule="evenodd" clip-rule="evenodd" d="M9 11.5C9 12.8807 7.88071 14 6.5 14C5.11929 14 4 12.8807 4 11.5C4 10.1193 5.11929 9 6.5 9C7.88071 9 9 10.1193 9 11.5ZM11 11.5C11 13.9853 8.98528 16 6.5 16C4.01472 16 2 13.9853 2 11.5C2 9.01472 4.01472 7 6.5 7C8.98528 7 11 9.01472 11 11.5ZM20 11.5C20 12.8807 18.8807 14 17.5 14C16.1193 14 15 12.8807 15 11.5C15 10.1193 16.1193 9 17.5 9C18.8807 9 20 10.1193 20 11.5ZM22 11.5C22 13.9853 19.9853 16 17.5 16C15.0147 16 13 13.9853 13 11.5C13 9.01472 15.0147 7 17.5 7C19.9853 7 22 9.01472 22 11.5Z" fill="black"/>
</svg>
