<svg width="24" height="24" viewBox="0 0 24 24" fill="none" xmlns="http://www.w3.org/2000/svg">
<path d="M19.1289 8.01002C18.876 7.97489 18.6315 8.03088 18.4117 8.19715C17.9722 8.52968 17.8609 9.16102 18.1934 9.60064C18.7107 10.2846 19.0042 11.116 19.0042 12.002C19.0042 12.8785 18.7086 13.7173 18.1934 14.4034C17.8625 14.8442 17.971 15.476 18.4117 15.8069C18.8524 16.1379 19.4841 16.0294 19.815 15.5887C20.5875 14.5598 21 13.3147 21 12.002C21 10.6792 20.5933 9.44445 19.815 8.41541C19.6487 8.19565 19.3819 8.04515 19.1289 8.01002Z" fill="black"/>
<path d="M13 3.00001C12.4591 3.00121 11.9725 3.14871 11.5312 3.40621C11.2523 3.56911 10.7288 4.02461 9.875 4.81251C9.84 4.84481 9.0351 5.61341 8.625 6.00001C8.3767 5.99981 7.1169 5.99931 7 6.00001C5.3753 6.01021 4.012 7.38181 4 9.00001V15C4.0178 16.6835 5.3211 18.0155 7 18C7.0757 17.9993 8.3404 17.9996 8.5938 18C8.9926 18.3783 9.8106 19.1567 9.8438 19.1875C10.683 19.9676 11.1988 20.3989 11.4688 20.5625C11.9224 20.8375 12.4323 21.0065 13 21C14.6657 20.9808 16.0198 19.6494 16 18L15.9688 12L16 6.00001C15.9984 4.32911 14.6455 2.99641 13 3.00001ZM13 5.00001C13.5443 4.99881 13.9995 5.44501 14 6.00001L13.9688 12L14 18C14.0065 18.5412 13.5709 18.9934 13 19C12.8236 19.002 12.6473 18.9643 12.5 18.875C12.4077 18.819 11.8933 18.3458 11.2188 17.7188C11.179 17.6818 9.7751 16.3658 9.6875 16.2812C9.5011 16.1015 9.259 16 9 16C8.9117 16 7.1382 15.9987 7 16C6.4403 16.0052 6.0062 15.5846 6 15V9.00001C6.0039 8.48031 6.4721 8.00331 7 8.00001C7.1798 7.99891 8.8307 7.99991 9 8.00001C9.2581 8.00001 9.5013 7.89751 9.6875 7.71881C9.7757 7.63411 11.1763 6.32041 11.2188 6.28121C11.8959 5.65631 12.4433 5.17631 12.5312 5.12501C12.681 5.03761 12.8304 5.00041 13 5.00001Z" fill="black" fill-opacity="0.4"/>
</svg>
