<svg width="24" height="24" viewBox="0 0 24 24" fill="none" xmlns="http://www.w3.org/2000/svg">
<path d="M17.0076 9C16.7526 9 16.4856 9.08583 16.2914 9.28065C15.9029 9.6705 15.9029 10.3256 16.2914 10.7155L17.5675 11.9942L16.2914 13.2729C15.9029 13.6627 15.9029 14.3179 16.2914 14.7077C16.6809 15.0974 17.3344 15.0974 17.7239 14.7077L19 13.4289L20.2761 14.7077C20.6656 15.0974 21.3191 15.0974 21.7086 14.7077C22.0971 14.3179 22.0971 13.6627 21.7086 13.2729L20.4325 11.9942L21.7086 10.7155C22.0971 10.3256 22.0971 9.6705 21.7086 9.28065C21.5134 9.08583 21.2474 9 20.9924 9C20.7373 9 20.4704 9.08583 20.2761 9.28065L19 10.5595L17.7239 9.28065C17.5286 9.08583 17.2627 9 17.0076 9Z" fill="black"/>
<path d="M12.031 3C11.641 3.0009 11.227 3.13011 10.969 3.28121C10.511 3.54891 7 6.00001 7 6.00001C7 6.00001 4.326 5.99801 4 6.00001C2.919 6.00681 2.008 6.93271 2 8.00001V16C2.012 17.1138 2.867 18.0105 4 18C4.283 17.9974 7 18 7 18C7 18 10.579 20.4756 11.031 20.75C11.293 20.9091 11.591 21.0047 12 21C13.118 20.9871 14.013 20.06 14 18.9688V5.00001C13.999 3.87711 13.112 2.9976 12.031 3Z" fill="black" fill-opacity="0.4"/>
</svg>
