<svg width="24" height="24" viewBox="0 0 24 24" fill="none" xmlns="http://www.w3.org/2000/svg">
<path d="M12.0125 15C11.518 15 11.0174 15.1893 10.6388 15.5625C10.353 15.8441 8.97132 17.2067 8.57768 17.5938C7.3448 18.8085 8.207 21.0049 10.0144 21H14.0107C15.8091 21.0067 16.6503 18.7782 15.4154 17.5625C15.0258 17.1787 13.672 15.8436 13.3863 15.5625C13.0076 15.1893 12.5071 15 12.0125 15ZM12.0125 17.0312C12.3263 17.34 13.6271 18.6222 14.0107 19H10.0144C10.413 18.6072 11.7008 17.3382 12.0125 17.0312Z" fill="black" fill-opacity="0.4"/>
<path d="M12.0289 3C8.24892 3 4.68191 4.6118 2.24791 7.3438C1.88091 7.7561 1.92893 8.3827 2.34193 8.75C2.75393 9.1174 3.38091 9.0686 3.74791 8.6562C5.80291 6.3497 8.81992 5 12.0289 5C15.2289 5 18.1839 6.3354 20.2479 8.6562C20.6149 9.0689 21.2419 9.1171 21.6539 8.75C22.0669 8.383 22.1149 7.7564 21.7479 7.3438C19.3059 4.5985 15.8029 3 12.0289 3ZM12.0289 7C9.38892 7 6.94591 8.1399 5.24791 10.0938C4.88591 10.5106 4.92494 11.1377 5.34194 11.5C5.75894 11.8623 6.38591 11.8231 6.74791 11.4062C8.06991 9.8849 9.97392 9 12.0289 9C14.0479 9 15.9269 9.8689 17.2479 11.3438C17.6159 11.7552 18.2429 11.7747 18.6539 11.4062C19.0659 11.0378 19.1159 10.4115 18.7479 10C17.0519 8.1057 14.6219 7 12.0289 7ZM12.0289 11C10.5599 11 9.19092 11.6302 8.24791 12.7188C7.88591 13.1361 7.92394 13.7634 8.34194 14.125C8.75894 14.4867 9.38592 14.4486 9.74792 14.0312C10.3149 13.3766 11.1469 13 12.0289 13C12.8919 13 13.6819 13.3703 14.2479 14C14.6169 14.4107 15.2749 14.4318 15.6849 14.0625C16.0959 13.6932 16.1169 13.0669 15.7479 12.6562C14.8059 11.6091 13.4659 11 12.0289 11Z" fill="black"/>
</svg>
