<svg width="24" height="24" viewBox="0 0 24 24" fill="none" xmlns="http://www.w3.org/2000/svg">
<path d="M3 10V17.844C3 19.594 4.40601 21 6.15601 21H17.844C19.594 21 21 19.595 21 17.844V10H3ZM8 17C8.552 17 9 17.448 9 18C9 18.552 8.552 19 8 19C7.448 19 7 18.552 7 18C7 17.448 7.448 17 8 17ZM12 17C12.552 17 13 17.448 13 18C13 18.552 12.552 19 12 19C11.448 19 11 18.552 11 18C11 17.448 11.448 17 12 17ZM16 17C16.552 17 17 17.448 17 18C17 18.552 16.552 19 16 19C15.448 19 15 18.552 15 18C15 17.448 15.448 17 16 17Z" fill="black"/>
<path d="M6.15601 3C4.40601 3 3 4.4055 3 6.1562V8H21V6.1562C21 4.4055 19.594 3 17.844 3H6.15601Z" fill="black" fill-opacity="0.4"/>
</svg>
