<svg width="24" height="24" viewBox="0 0 24 24" fill="none" xmlns="http://www.w3.org/2000/svg">
<path d="M9.99509 2C5.5795 2 2.0001 5.57983 2 9.99516C2 14.4105 5.5795 17.9903 9.99509 17.9903C11.8307 17.9903 13.5533 17.3417 14.9029 16.3013L19.2706 20.7077C19.6609 21.0974 20.3169 21.0974 20.7073 20.7077C21.0976 20.3169 21.0976 19.6613 20.7073 19.2706L16.304 14.8972C17.3442 13.548 17.9902 11.8311 17.9902 9.99516C17.9902 5.57983 14.4107 2 9.99509 2ZM9.99509 3.99879C13.3068 3.99879 15.9913 6.68317 15.9914 9.99516C15.9914 13.3072 13.3068 15.9915 9.99509 15.9915C6.68342 15.9915 3.99887 13.3072 3.99877 9.99516C3.99877 6.68317 6.68342 3.99879 9.99509 3.99879Z" fill="black" fill-opacity="0.4"/>
<path d="M9.99498 6.99695C9.44302 6.99695 8.9956 7.44468 8.9956 7.99634V8.99574H7.99621C7.44425 8.99574 6.99683 9.44347 6.99683 9.99513C6.99683 10.5468 7.44425 10.9945 7.99621 10.9945H8.9956V11.9939C8.9956 12.5456 9.44302 12.9933 9.99498 12.9933C10.5469 12.9933 10.9944 12.5456 10.9944 11.9939V10.9945H11.9938C12.5457 10.9945 12.9931 10.5468 12.9931 9.99513C12.9931 9.44347 12.5457 8.99574 11.9938 8.99574H10.9944V7.99634C10.9944 7.44468 10.5469 6.99695 9.99498 6.99695Z" fill="black"/>
</svg>
