<svg width="24" height="24" viewBox="0 0 24 24" fill="none" xmlns="http://www.w3.org/2000/svg">
<path d="M9.99509 2C5.5795 2 2.0001 5.57983 2 9.99516C2 14.4105 5.5795 17.9903 9.99509 17.9903C11.8307 17.9903 13.5533 17.3417 14.9029 16.3013L19.2706 20.7077C19.6609 21.0974 20.3169 21.0974 20.7073 20.7077C21.0976 20.3169 21.0976 19.6613 20.7073 19.2706L16.304 14.8972C17.3442 13.548 17.9902 11.8311 17.9902 9.99516C17.9902 5.57983 14.4107 2 9.99509 2Z" fill="black" fill-opacity="0.4"/>
<path d="M6.99621 8.99574C6.44425 8.99574 5.99683 9.44347 5.99683 9.99513C5.99683 10.5468 6.44425 10.9945 6.99621 10.9945C10.7756 10.9945 9.82133 10.9945 12.9938 10.9945C13.5457 10.9945 13.9931 10.5468 13.9931 9.99513C13.9931 9.44347 13.5457 8.99574 12.9938 8.99574C9.82133 8.99574 10.7756 8.99574 6.99621 8.99574Z" fill="black"/>
</svg>
