<svg width="24" height="24" viewBox="0 0 24 24" fill="none" xmlns="http://www.w3.org/2000/svg">
<path d="M14.7489 2.00002L9.15492 2.03102C8.37592 2.03502 7.42292 2.44702 6.87392 3.00002L2.93691 6.93801C2.38791 7.49101 1.99592 8.47103 1.99892 9.25003L2.02992 14.844C2.03392 15.623 2.44592 16.576 2.99892 17.125L6.93691 21.0621C7.48991 21.6111 8.46992 22.003 9.24892 22L14.8429 21.969C15.6219 21.965 16.5749 21.553 17.1239 21L21.0609 17.062C21.6099 16.509 22.0019 15.529 21.9989 14.75L21.9679 9.15603C21.9639 8.37703 21.5519 7.42402 20.9989 6.87502L17.0609 2.93801C16.5079 2.38901 15.5279 1.99702 14.7489 2.00002ZM14.7489 4.00002C14.9979 3.99902 15.4789 4.20002 15.6549 4.37502L19.5929 8.28103C19.7689 8.45603 19.9669 8.93901 19.9679 9.18801L19.9989 14.75C19.9999 14.999 19.7989 15.48 19.6239 15.656L15.7179 19.594C15.5429 19.77 15.0599 19.968 14.8109 19.969L9.24892 20C8.99992 20.001 8.55092 19.8 8.37392 19.625L4.40492 15.719C4.22892 15.544 4.03092 15.061 4.02992 14.812L3.99892 9.25003C3.99792 9.00103 4.19892 8.55203 4.37392 8.37503L8.27992 4.40603C8.45492 4.23003 8.93791 4.03203 9.18691 4.03103L14.7489 4.00002Z" fill="black"/>
</svg>
