<svg width="24" height="24" viewBox="0 0 24 24" fill="none" xmlns="http://www.w3.org/2000/svg">
<path d="M5 4C4.4477 4 4 4.448 4 5C4 5.552 4.4477 6 5 6H8.3438L14.094 19.406C14.251 19.774 14.6 20 15 20H19C19.552 20 20 19.552 20 19C20 18.448 19.552 18 19 18H15.656L9.9063 4.59399C9.7487 4.22599 9.4001 4 9 4H5Z" fill="black"/>
<path fill-rule="evenodd" clip-rule="evenodd" d="M14 5C14 4.44772 14.4477 4 15 4H19C19.5523 4 20 4.44772 20 5C20 5.55228 19.5523 6 19 6H15C14.4477 6 14 5.55228 14 5Z" fill="black" fill-opacity="0.4"/>
</svg>
