<svg width="24" height="24" viewBox="0 0 24 24" fill="none" xmlns="http://www.w3.org/2000/svg">
<path d="M6.312 4.00133C6.087 4.00333 5.89399 4.07717 5.71899 4.21988C3.39299 6.10208 2 8.93735 2 11.9852C2 15.039 3.38399 17.8683 5.71899 19.7505C5.89799 19.8952 6.11299 19.97 6.34399 19.969C7.38299 19.963 16.281 19.988 17.625 20C17.856 20.002 18.101 19.8952 18.281 19.7505C20.625 17.8683 22 15.046 22 11.9852C22 8.93335 20.613 6.10208 18.281 4.21988C18.103 4.07518 17.886 4.00133 17.656 4.00133C17.481 4.00133 6.608 3.99834 6.312 4.00133ZM6.78101 5.99729C7.76901 5.9943 16.323 5.99729 17.219 5.99729C18.949 7.50125 20 9.64192 20 11.9852C20 14.3364 18.928 16.5001 17.188 18.004C15.39 17.993 8.28401 17.9681 6.78101 17.9731C5.04901 16.4691 4 14.3294 4 11.9852C4 9.64591 5.05501 7.50125 6.78101 5.99729Z" fill="black" fill-opacity="0.4"/>
<path d="M9 8C8.448 8 8 8.4471 8 8.99798V10.9939C8 11.5448 8.448 11.9919 9 11.9919C9.552 11.9919 10 11.5448 10 10.9939V8.99798C10 8.4471 9.552 8 9 8ZM15 8C14.448 8 14 8.4471 14 8.99798V10.9939C14 11.5448 14.448 11.9919 15 11.9919C15.552 11.9919 16 11.5448 16 10.9939V8.99798C16 8.4471 15.552 8 15 8ZM12 12.9899C10.895 12.9899 10 13.8831 10 14.9859V16H14V14.9859C14 13.8831 13.105 12.9899 12 12.9899Z" fill="black"/>
</svg>
