<svg width="24" height="24" viewBox="0 0 24 24" fill="none" xmlns="http://www.w3.org/2000/svg">
<path fill-rule="evenodd" clip-rule="evenodd" d="M5 6C5 4.34315 6.34315 3 8 3H18C19.6569 3 21 4.34315 21 6V18C21 19.6569 19.6569 21 18 21H8C6.34315 21 5 19.6569 5 18V6ZM8 5C7.44772 5 7 5.44772 7 6V18C7 18.5523 7.44772 19 8 19H18C18.5523 19 19 18.5523 19 18V6C19 5.44772 18.5523 5 18 5H8Z" fill="black" fill-opacity="0.4"/>
<path fill-rule="evenodd" clip-rule="evenodd" d="M5 6C5 5.64936 5.06015 5.31278 5.17071 5H4C3.44772 5 3 5.44772 3 6C3 6.55228 3.44772 7 4 7H5V6ZM5 18V17H4C3.44772 17 3 17.4477 3 18C3 18.5523 3.44772 19 4 19H5.17071C5.06015 18.6872 5 18.3506 5 18ZM4 15H5V13H4C3.44772 13 3 13.4477 3 14C3 14.5523 3.44772 15 4 15ZM5 11V9H4C3.44772 9 3 9.44772 3 10C3 10.5523 3.44772 11 4 11H5ZM8.99829 8.00508C8.99829 7.45209 9.44629 7.00329 9.99829 7.00329H15.9983C16.5503 7.00329 16.9983 7.45209 16.9983 8.00508V12.0123C16.9983 12.5653 16.5503 13.0141 15.9983 13.0141H9.99829C9.44629 13.0141 8.99829 12.5653 8.99829 12.0123V8.00508ZM14.9983 9.00688H10.9983V11.0105H14.9983V9.00688ZM8.99829 16.0195C8.99829 15.4665 9.44629 15.0177 9.99829 15.0177H15.9983C16.5503 15.0177 16.9983 15.4665 16.9983 16.0195C16.9983 16.5724 16.5503 17.0212 15.9983 17.0212H9.99829C9.44629 17.0212 8.99829 16.5724 8.99829 16.0195Z" fill="black"/>
</svg>
