<svg width="24" height="24" viewBox="0 0 24 24" fill="none" xmlns="http://www.w3.org/2000/svg">
<path fill-rule="evenodd" clip-rule="evenodd" d="M5 6C5 4.34315 6.34315 3 8 3H18C19.6569 3 21 4.34315 21 6V18C21 19.6569 19.6569 21 18 21H8C6.34315 21 5 19.6569 5 18V6ZM8 5C7.44772 5 7 5.44772 7 6V18C7 18.5523 7.44772 19 8 19H18C18.5523 19 19 18.5523 19 18V6C19 5.44772 18.5523 5 18 5H8Z" fill="black" fill-opacity="0.4"/>
<path fill-rule="evenodd" clip-rule="evenodd" d="M5 6C5 5.64936 5.06015 5.31278 5.17071 5H4C3.44772 5 3 5.44772 3 6C3 6.55228 3.44772 7 4 7H5V6ZM5 18V17H4C3.44772 17 3 17.4477 3 18C3 18.5523 3.44772 19 4 19H5.17071C5.06015 18.6872 5 18.3506 5 18ZM4 15H5V13H4C3.44772 13 3 13.4477 3 14C3 14.5523 3.44772 15 4 15ZM5 11V9H4C3.44772 9 3 9.44772 3 10C3 10.5523 3.44772 11 4 11H5ZM12.7071 14.7071L16.7071 10.7071C17.0976 10.3166 17.0976 9.68342 16.7071 9.29289C16.3166 8.90237 15.6834 8.90237 15.2929 9.29289L12 12.5858L10.7071 11.2929C10.3166 10.9024 9.68342 10.9024 9.29289 11.2929C8.90237 11.6834 8.90237 12.3166 9.29289 12.7071L11.2929 14.7071C11.6834 15.0976 12.3166 15.0976 12.7071 14.7071Z" fill="black"/>
</svg>
