<svg width="24" height="24" viewBox="0 0 24 24" fill="none" xmlns="http://www.w3.org/2000/svg">
<path fill-rule="evenodd" clip-rule="evenodd" d="M5 6C5 4.34315 6.34315 3 8 3H18C19.6569 3 21 4.34315 21 6V18C21 19.6569 19.6569 21 18 21H8C6.34315 21 5 19.6569 5 18V6ZM8 5C7.44772 5 7 5.44772 7 6V18C7 18.5523 7.44772 19 8 19H18C18.5523 19 19 18.5523 19 18V6C19 5.44772 18.5523 5 18 5H8Z" fill="black" fill-opacity="0.4"/>
<path fill-rule="evenodd" clip-rule="evenodd" d="M5.17071 5C5.06015 5.31278 5 5.64936 5 6V7H4C3.44772 7 3 6.55228 3 6C3 5.44772 3.44772 5 4 5H5.17071ZM5 17V18C5 18.3506 5.06015 18.6872 5.17071 19H4C3.44772 19 3 18.5523 3 18C3 17.4477 3.44772 17 4 17H5ZM5 13V15H4C3.44772 15 3 14.5523 3 14C3 13.4477 3.44772 13 4 13H5ZM5 9V11H4C3.44772 11 3 10.5523 3 10C3 9.44772 3.44772 9 4 9H5Z" fill="black"/>
</svg>
