<svg width="24" height="24" viewBox="0 0 24 24" fill="none" xmlns="http://www.w3.org/2000/svg">
<path fill-rule="evenodd" clip-rule="evenodd" d="M5 18C5 19.6569 6.34315 21 8 21H18C19.6569 21 21 19.6569 21 18V6C21 4.34315 19.6569 3 18 3H8C6.34315 3 5 4.34315 5 6V18ZM8 19C7.44772 19 7 18.5523 7 18V6C7 5.44771 7.44772 5 8 5H18C18.5523 5 19 5.44772 19 6V18C19 18.5523 18.5523 19 18 19H8Z" fill="black" fill-opacity="0.4"/>
<path fill-rule="evenodd" clip-rule="evenodd" d="M5 18C5 18.3506 5.06015 18.6872 5.17071 19H4C3.44772 19 3 18.5523 3 18C3 17.4477 3.44772 17 4 17H5V18ZM5 6V7H4C3.44772 7 3 6.55228 3 6C3 5.44772 3.44772 5 4 5H5.17071C5.06015 5.31278 5 5.64936 5 6ZM4 9H5V11H4C3.44772 11 3 10.5523 3 10C3 9.44772 3.44772 9 4 9ZM5 13V15H4C3.44772 15 3 14.5523 3 14C3 13.4477 3.44772 13 4 13H5ZM12 16C12 16.552 12.448 17 13 17C13.552 17 14 16.552 14 16V10H16L13 7L10 10H12V16Z" fill="black"/>
</svg>
