<svg width="24" height="24" viewBox="0 0 24 24" fill="none" xmlns="http://www.w3.org/2000/svg">
<path fill-rule="evenodd" clip-rule="evenodd" d="M20.1004 9.24264L18.9728 10.3703C18.8102 10.1924 18.6132 9.98857 18.4046 9.77282L18.4046 9.77278L18.3646 9.73142C18.1284 9.48711 17.868 9.21697 17.5939 8.92071L18.6862 7.82843C19.1045 7.41015 19.1045 6.73199 18.6862 6.31371C18.2679 5.89543 17.5897 5.89543 17.1715 6.31371L16.2049 7.28023C15.8049 6.75398 15.4192 6.18568 15.0776 5.57911L15.7573 4.89949C16.9566 3.70017 18.9011 3.70017 20.1004 4.8995C21.2997 6.09882 21.2997 8.04331 20.1004 9.24264ZM11.1716 12.3137C11.5899 11.8954 12.268 11.8954 12.6863 12.3137C13.1046 12.732 13.1046 13.4101 12.6863 13.8284L6.82843 19.6863C6.41015 20.1046 5.73199 20.1046 5.31371 19.6863C4.89543 19.268 4.89543 18.5899 5.31371 18.1716L11.1716 12.3137ZM14.1005 10.8995C12.9012 9.70017 10.9567 9.70017 9.75736 10.8995L3.89949 16.7574C2.70017 17.9567 2.70017 19.9012 3.89949 21.1005C5.09882 22.2998 7.04331 22.2998 8.24264 21.1005L14.1005 15.2426C15.2998 14.0433 15.2998 12.0988 14.1005 10.8995Z" fill="black" fill-opacity="0.4"/>
<path fill-rule="evenodd" clip-rule="evenodd" d="M13.9762 2.78309C13.897 2.4268 13.63 2.14195 13.2796 2.0399C12.9292 1.93786 12.551 2.03484 12.2929 2.29292L5.29292 9.29292C5.03484 9.551 4.93786 9.92919 5.0399 10.2796C5.14195 10.63 5.4268 10.897 5.78309 10.9762C6.78194 11.1982 7.7174 11.5925 8.57911 12.0777L9.75736 10.8995C9.85469 10.8022 9.95694 10.7127 10.0633 10.6312C9.39475 10.2202 8.66554 9.84077 7.8805 9.53376L12.5338 4.88048C13.2135 6.61851 14.2506 8.08935 15.2119 9.2418C15.8426 9.99787 16.4552 10.6336 16.9267 11.1214L16.9551 11.1508L16.9552 11.1509C17.1822 11.3858 17.3659 11.5758 17.5103 11.7346C17.5845 11.8162 17.6404 11.881 17.6812 11.9319C17.7155 11.9747 17.7301 11.9964 17.733 12.0008C17.7334 12.0014 17.7336 12.0017 17.7336 12.0017L17.7331 12.0008C17.9027 12.2939 18 12.6341 18 13C18 14.1046 17.1046 15 16 15C15.6341 15 15.2939 14.9027 15.0008 14.7331C15.0009 14.7331 15.0007 14.733 15.0003 14.7328L15.0003 14.7328C14.9955 14.7296 14.9513 14.7001 14.8529 14.6153C14.7997 14.5695 14.7399 14.5157 14.6724 14.4532C14.5289 14.7379 14.3383 15.0049 14.1005 15.2426L13.3701 15.9731C13.5789 16.1638 13.7988 16.3483 13.9993 16.4643C14.5887 16.8052 15.2731 17 16 17C18.2092 17 20 15.2092 20 13C20 12.2731 19.8052 11.5887 19.4643 10.9993C19.34 10.7844 19.1522 10.5675 18.9901 10.3892C18.8244 10.2069 18.6207 9.99625 18.4047 9.77279L18.4047 9.77278L18.3647 9.73142C17.8941 9.24453 17.3269 8.65507 16.7478 7.96072C15.5826 6.56388 14.4263 4.80844 13.9762 2.78309Z" fill="black"/>
</svg>
