<svg width="24" height="24" viewBox="0 0 24 24" fill="none" xmlns="http://www.w3.org/2000/svg">
<path d="M7 3L7 16H6C4.89543 16 4 15.1046 4 14L4 5C4 3.89543 4.89543 3 6 3H7Z" fill="black" fill-opacity="0.4"/>
<path fill-rule="evenodd" clip-rule="evenodd" d="M16.1952 4.58205C15.6461 4.21595 14.8516 4 13.9999 4C13.0418 4 9.68752 4.01276 7 5.14106V3.00297C9.91363 1.9995 13.1006 1.99989 13.9741 2L13.9999 2C15.1483 2 16.3538 2.28406 17.3046 2.91795C18.2851 3.57161 18.9999 4.6121 18.9999 6V6.50742C19.0907 6.59319 19.1861 6.69447 19.2808 6.81278C19.6624 7.28981 19.9999 8.00706 19.9999 8.99997C19.9999 9.87063 19.7404 10.5293 19.4192 11C19.7404 11.4706 19.9999 12.1293 19.9999 13C19.9999 14.1518 19.3955 14.9476 18.6549 15.4105C17.9581 15.846 17.1369 16 16.4999 16H14.9999V17C14.9999 18.4505 14.5609 19.7283 13.6446 20.6446C12.7283 21.561 11.4505 22 9.99993 22C9.44765 22 8.99993 21.5523 8.99993 21C8.99993 18.247 8.09508 16.912 7.34143 16.2526C7.22651 16.152 7.11185 16.0643 7 15.9879V13.7446C7.46204 13.9205 8.06174 14.2253 8.65845 14.7475C9.7569 15.7086 10.7379 17.3102 10.9553 19.8996C11.508 19.7727 11.9269 19.5339 12.2304 19.2304C12.689 18.7717 12.9999 18.0495 12.9999 17V15V15C12.9999 14.4477 13.4477 14 13.9999 14H16.4999C16.863 14 17.2918 13.9039 17.5949 13.7145C17.8544 13.5523 17.9999 13.3482 17.9999 13C17.9999 12.4929 17.8375 12.2101 17.7191 12.0622C17.6548 11.9818 17.5937 11.9297 17.5562 11.9015C17.5428 11.8915 17.533 11.8849 17.5278 11.8816C17.4311 11.8299 17.3423 11.7621 17.266 11.6796C17.2563 11.6691 17.2467 11.6583 17.2374 11.6472C17.1776 11.5768 17.1284 11.4988 17.0905 11.416C17.0265 11.2762 16.9974 11.1289 16.9998 10.984C17.0017 10.8603 17.0267 10.7354 17.0768 10.6154C17.1342 10.4776 17.2224 10.3521 17.3377 10.2504C17.396 10.1989 17.4598 10.1547 17.5275 10.1185C17.5326 10.1153 17.5426 10.1086 17.5562 10.0984C17.5937 10.0703 17.6548 10.0181 17.7191 9.93778C17.8374 9.78981 17.9999 9.50706 17.9999 8.99997C17.9999 8.49289 17.8374 8.21014 17.7191 8.06217C17.6548 7.98184 17.5937 7.92967 17.5562 7.90154C17.5419 7.89086 17.5317 7.88409 17.5268 7.88099C17.1855 7.69792 16.9919 7.34266 16.9999 6.97714V6C16.9999 5.38791 16.7148 4.9284 16.1952 4.58205Z" fill="black"/>
</svg>
