<svg width="24" height="24" viewBox="0 0 24 24" fill="none" xmlns="http://www.w3.org/2000/svg">
<path d="M7 21L7 8H6C4.89543 8 4 8.89543 4 10L4 19C4 20.1046 4.89543 21 6 21H7Z" fill="black" fill-opacity="0.4"/>
<path fill-rule="evenodd" clip-rule="evenodd" d="M16.1952 19.4179C15.6461 19.7841 14.8516 20 13.9999 20C13.0418 20 9.68752 19.9872 7 18.8589V20.997C9.91363 22.0005 13.1006 22.0001 13.9741 22L13.9999 22C15.1483 22 16.3538 21.7159 17.3046 21.082C18.2851 20.4284 18.9999 19.3879 18.9999 18V17.4926C19.0907 17.4068 19.1861 17.3055 19.2808 17.1872C19.6624 16.7102 19.9999 15.9929 19.9999 15C19.9999 14.1294 19.7404 13.4707 19.4192 13C19.7404 12.5294 19.9999 11.8707 19.9999 11C19.9999 9.84822 19.3955 9.05236 18.6549 8.58953C17.9581 8.15398 17.1369 8.00002 16.4999 8.00002H14.9999V6.99997C14.9999 5.54949 14.5609 4.27169 13.6446 3.35537C12.7283 2.43905 11.4505 1.99997 9.99993 1.99997C9.44765 1.99997 8.99993 2.44769 8.99993 2.99997C8.99993 5.75303 8.09508 7.08796 7.34143 7.7474C7.22651 7.84796 7.11185 7.93568 7 8.01214V10.2554C7.46204 10.0795 8.06174 9.77467 8.65845 9.25255C9.7569 8.29139 10.7379 6.68979 10.9553 4.10041C11.508 4.22726 11.9269 4.46607 12.2304 4.76957C12.689 5.22825 12.9999 5.95046 12.9999 6.99997V8.99997V9.00002C12.9999 9.55231 13.4477 10 13.9999 10H16.4999C16.863 10 17.2918 10.0961 17.5949 10.2855C17.8544 10.4477 17.9999 10.6518 17.9999 11C17.9999 11.5071 17.8375 11.7899 17.7191 11.9378C17.6548 12.0182 17.5937 12.0703 17.5562 12.0985C17.5428 12.1085 17.533 12.1151 17.5278 12.1184C17.4311 12.1701 17.3423 12.2379 17.266 12.3204C17.2563 12.3309 17.2467 12.3417 17.2374 12.3528C17.1776 12.4232 17.1284 12.5012 17.0905 12.584C17.0265 12.7238 16.9974 12.8711 16.9998 13.016C17.0017 13.1397 17.0267 13.2646 17.0768 13.3846C17.1342 13.5224 17.2224 13.6479 17.3377 13.7496C17.396 13.8011 17.4598 13.8453 17.5275 13.8815C17.5326 13.8847 17.5426 13.8914 17.5562 13.9016C17.5937 13.9297 17.6548 13.9819 17.7191 14.0622C17.8374 14.2102 17.9999 14.4929 17.9999 15C17.9999 15.5071 17.8374 15.7899 17.7191 15.9378C17.6548 16.0182 17.5937 16.0703 17.5562 16.0985C17.5419 16.1091 17.5317 16.1159 17.5268 16.119C17.1855 16.3021 16.9919 16.6573 16.9999 17.0229V18C16.9999 18.6121 16.7148 19.0716 16.1952 19.4179Z" fill="black"/>
</svg>
