<svg width="24" height="24" viewBox="0 0 24 24" fill="none" xmlns="http://www.w3.org/2000/svg">
<path fill-rule="evenodd" clip-rule="evenodd" d="M4.56958 7.03064C4.71013 7.01045 4.85383 7 4.99997 7C5.57564 7 6.11345 7.16215 6.5702 7.44327C7.5304 5.40763 9.60187 4 12.0001 4C14.3982 4 16.4697 5.40758 17.4299 7.44316C17.8866 7.16211 18.4244 7 19 7C19.1462 7 19.29 7.01046 19.4306 7.03068C18.2517 4.08334 15.3703 2 12.0001 2C8.62987 2 5.7485 4.08333 4.56958 7.03064ZM16.6208 15.8277C17.0346 16.3656 17.6267 16.7591 18.3087 16.92C17.4447 18.0265 16.2952 18.9004 14.9693 19.4306C14.9895 19.29 15 19.1462 15 19C15 18.4244 14.8378 17.8866 14.5567 17.4298C15.357 17.0523 16.0611 16.5025 16.6208 15.8277Z" fill="black" fill-opacity="0.4"/>
<path fill-rule="evenodd" clip-rule="evenodd" d="M2 10C2 8.34315 3.34315 7 5 7C6.65685 7 8 8.34315 8 10V14C8 15.6569 6.65685 17 5 17C3.34315 17 2 15.6569 2 14V10ZM16 10C16 8.34315 17.3431 7 19 7C20.6569 7 22 8.34315 22 10V14C22 15.6569 20.6569 17 19 17C17.3431 17 16 15.6569 16 14V10ZM12 16C10.3431 16 9 17.3431 9 19C9 20.6569 10.3431 22 12 22C13.6569 22 15 20.6569 15 19C15 17.3431 13.6569 16 12 16Z" fill="black"/>
</svg>
