<svg width="24" height="24" viewBox="0 0 24 24" fill="none" xmlns="http://www.w3.org/2000/svg">
<path d="M11.9983 2.38037C11.4033 2.38037 10.8193 2.51838 10.3423 2.78638L4.68629 5.97437C3.72129 6.51637 2.99829 7.74237 2.99829 8.84937V15.1614C2.99829 16.2684 3.72129 17.4944 4.68629 18.0364L10.3423 21.2244C11.2963 21.7614 12.7003 21.7614 13.6543 21.2244L19.3103 18.0364C20.2753 17.4944 20.9983 16.2684 20.9983 15.1614V8.84937C20.9983 7.74237 20.2753 6.51637 19.3103 5.97437L13.6543 2.78638C13.1773 2.51838 12.5933 2.38037 11.9983 2.38037ZM11.3103 4.53638C11.6563 4.34238 12.3403 4.34238 12.6863 4.53638L18.3423 7.72437C18.6773 7.91237 18.9983 8.46437 18.9983 8.84937V15.1614C18.9983 15.5464 18.6773 16.0984 18.3423 16.2864L12.6863 19.4744C12.3403 19.6684 11.6563 19.6684 11.3103 19.4744L5.6543 16.2864C5.3193 16.0984 4.99829 15.5464 4.99829 15.1614V8.84937C4.99829 8.46437 5.3193 7.91237 5.6543 7.72437L11.3103 4.53638Z" fill="black"/>
</svg>
