<svg width="24" height="24" viewBox="0 0 24 24" fill="none" xmlns="http://www.w3.org/2000/svg">
<path d="M4.9978 22C4.4458 22 3.9978 21.552 3.9978 21C3.9978 20.448 4.4458 20 4.9978 20C4.9978 17.283 6.59981 14.893 8.9948 13.747L9.0028 10.258C6.6078 9.112 4.9978 6.717 4.9978 4C4.4458 4 3.9978 3.552 3.9978 3C3.9978 2.448 4.4458 2 4.9978 2H18.9978C19.5498 2 19.9978 2.448 19.9978 3C19.9978 3.552 19.5498 4 18.9978 4C18.9978 6.717 17.4058 9.09802 15.0098 10.244L14.9918 13.745C17.3868 14.891 18.9978 17.283 18.9978 20C19.5498 20 19.9978 20.448 19.9978 21C19.9978 21.552 19.5498 22 18.9978 22H4.9978ZM6.9978 20H16.9978C16.9978 17.89 15.6498 16.056 13.6538 15.344C13.2558 15.202 12.9978 14.829 12.9978 14.406V9.59399C12.9978 9.17099 13.2558 8.79801 13.6538 8.65601C15.6498 7.94401 16.9978 6.11 16.9978 4H6.9978C6.9978 6.11 8.34579 7.94401 10.3418 8.65601C10.7398 8.79801 10.9978 9.17099 10.9978 9.59399V14.406C10.9978 14.829 10.7398 15.202 10.3418 15.344C8.34579 16.056 6.9978 17.89 6.9978 20Z" fill="black"/>
<path d="M13.656 8.65593C15.652 7.94394 17 6.10993 17 3.99993H7C7 6.10993 8.34799 7.94394 10.344 8.65593C11 8.9999 13 9 13.656 8.65593Z" fill="black" fill-opacity="0.4"/>
</svg>
