<svg width="24" height="24" viewBox="0 0 24 24" fill="none" xmlns="http://www.w3.org/2000/svg">
<path d="M8.02903 2C5.71832 2 4.00702 3.554 3.99782 6C3.99542 6.65 4.19222 7.32501 4.56032 8.06201C4.84852 8.64001 5.22812 9.23499 5.68532 9.84399C6.03282 10.306 6.40873 10.746 6.77903 11.156C6.87773 11.266 6.91962 11.323 6.99782 11.406V12.594C6.91962 12.677 6.87773 12.734 6.77903 12.844C6.40873 13.254 6.03282 13.694 5.68532 14.156C5.22812 14.765 4.84852 15.36 4.56032 15.938C4.19222 16.675 3.99542 17.35 3.99782 18C4.00702 20.446 5.71832 22 8.02903 22H16.029C18.3366 22 20.007 20.451 19.9978 18C19.9954 17.353 19.8034 16.673 19.4353 15.938C19.148 15.364 18.7634 14.762 18.3103 14.156C17.9629 13.692 17.5867 13.256 17.2166 12.844C17.118 12.734 17.0759 12.677 16.9978 12.594V11.406C17.0759 11.323 17.118 11.266 17.2166 11.156C17.5867 10.744 17.9629 10.308 18.3103 9.84399C18.7634 9.23799 19.148 8.63601 19.4353 8.06201C19.8034 7.32701 19.9954 6.647 19.9978 6C20.007 3.549 18.3366 2 16.029 2H8.02903ZM8.02903 4H16.029C17.2624 4 18.0027 4.692 17.9978 6C17.9967 6.29 17.8649 6.70399 17.6228 7.18799C17.395 7.64299 17.0724 8.13901 16.6853 8.65601C16.3765 9.06901 16.0495 9.47299 15.7166 9.84399C15.518 10.065 15.3611 10.199 15.279 10.281C15.0921 10.469 14.9978 10.735 14.9978 11V13C14.9978 13.265 15.0921 13.531 15.279 13.719C15.3611 13.801 15.518 13.935 15.7166 14.156C16.0495 14.527 16.3765 14.931 16.6853 15.344C17.0724 15.861 17.395 16.357 17.6228 16.812C17.8649 17.296 17.9967 17.71 17.9978 18C18.0027 19.308 17.2624 20 16.029 20H8.02903C6.78012 20 6.00272 19.3 5.99782 18C5.99672 17.712 6.13232 17.294 6.37282 16.812C6.60072 16.356 6.92032 15.863 7.31032 15.344C7.61902 14.933 7.94633 14.525 8.27903 14.156C8.47753 13.936 8.63462 13.8 8.71662 13.719C8.90462 13.531 8.99782 13.266 8.99782 13V11C8.99782 10.734 8.90462 10.469 8.71662 10.281C8.63462 10.2 8.47753 10.064 8.27903 9.84399C7.94633 9.47499 7.61902 9.06701 7.31032 8.65601C6.92032 8.13701 6.60072 7.64399 6.37282 7.18799C6.13232 6.70599 5.99672 6.288 5.99782 6C6.00272 4.7 6.78012 4 8.02903 4Z" fill="black"/>
</svg>
