<svg width="24" height="24" viewBox="0 0 24 24" fill="none" xmlns="http://www.w3.org/2000/svg">
<path fill-rule="evenodd" clip-rule="evenodd" d="M4 9C4.55228 9 5 9.44772 5 10V17.0005C5 18.1049 5.8952 19 7 19H9V15C9 13.3431 10.3431 12 12 12C13.6569 12 15 13.3431 15 15V19H17C18.1048 19 19 18.1049 19 17.0005V10C19 9.44772 19.4477 9 20 9C20.5523 9 21 9.44772 21 10V17.0005C21 19.2099 19.2089 21 17 21H14C13.4477 21 13 20.5523 13 20V15C13 14.4477 12.5523 14 12 14C11.4477 14 11 14.4477 11 15V20C11 20.5523 10.5523 21 10 21H7C4.79109 21 3 19.2099 3 17.0005V10C3 9.44772 3.44772 9 4 9Z" fill="black" fill-opacity="0.4"/>
<path fill-rule="evenodd" clip-rule="evenodd" d="M13.0591 4.44103C12.4737 3.85299 11.5263 3.85299 10.9409 4.44103L3.70868 11.7055C3.31902 12.0969 2.68586 12.0983 2.29447 11.7087C1.90308 11.319 1.90167 10.6859 2.29132 10.2945L9.52356 3.02997C10.8907 1.65668 13.1093 1.65668 14.4764 3.02997L21.7087 10.2945C22.0983 10.6859 22.0969 11.319 21.7055 11.7087C21.3141 12.0983 20.681 12.0969 20.2913 11.7055L13.0591 4.44103Z" fill="black"/>
</svg>
