<svg width="24" height="24" viewBox="0 0 24 24" fill="none" xmlns="http://www.w3.org/2000/svg">
<path fill-rule="evenodd" clip-rule="evenodd" d="M12 12C12 9.79086 13.7909 8 16 8C18.2091 8 20 9.79086 20 12C20 14.2091 18.2091 16 16 16C13.7909 16 12 14.2091 12 12ZM16 6C12.6863 6 10 8.68629 10 12C10 15.3137 12.6863 18 16 18C19.3137 18 22 15.3137 22 12C22 8.68629 19.3137 6 16 6ZM16 10C16.4734 10 16.8571 10.3838 16.8571 10.8571V11.1429H17.1429C17.6162 11.1429 18 11.5266 18 12C18 12.4734 17.6162 12.8571 17.1429 12.8571H16.8571V13.1429C16.8571 13.6162 16.4734 14 16 14C15.5266 14 15.1429 13.6162 15.1429 13.1429V12.8571H14.8571C14.3838 12.8571 14 12.4734 14 12C14 11.5266 14.3838 11.1429 14.8571 11.1429H15.1429V10.8571C15.1429 10.3838 15.5266 10 16 10Z" fill="black"/>
<path fill-rule="evenodd" clip-rule="evenodd" d="M10 11.0033C9.94636 11.3275 9.91844 11.6605 9.91844 12C9.91844 12.3395 9.94636 12.6725 10 12.9967C9.9731 12.9989 9.9459 13 9.91844 13H7.93883C7.88289 13 7.82803 12.9953 7.77462 12.9863C7.37084 14.1586 6.26738 15 4.96942 15C3.32945 15 2 13.6569 2 12C2 10.3431 3.32945 9 4.96942 9C6.26738 9 7.37084 9.84136 7.77462 11.0137C7.82803 11.0047 7.88289 11 7.93883 11H9.91844C9.9459 11 9.9731 11.0011 10 11.0033ZM4.96942 11C4.42276 11 3.97961 11.4477 3.97961 12C3.97961 12.5523 4.42276 13 4.96942 13C5.51607 13 5.95922 12.5523 5.95922 12C5.95922 11.4477 5.51607 11 4.96942 11Z" fill="black" fill-opacity="0.4"/>
</svg>
