<svg width="24" height="24" viewBox="0 0 24 24" fill="none" xmlns="http://www.w3.org/2000/svg">
<path fill-rule="evenodd" clip-rule="evenodd" d="M9.5375 3.02L3.02 9.5375C1.66 10.8975 1.66 13.1025 3.02 14.4625L5.57167 17.0142L10.5858 12L5.57166 6.98587L6.98587 5.57166L12 10.5858L17.0142 5.57167L14.4625 3.02C13.1025 1.66 10.8975 1.66 9.5375 3.02ZM18.4284 6.98588L13.4142 12L18.4284 17.0142L20.98 14.4625C22.34 13.1025 22.34 10.8975 20.98 9.5375L18.4284 6.98588ZM17.0142 18.4284L12 13.4142L6.98588 18.4284L9.5375 20.98C10.8975 22.34 13.1025 22.34 14.4625 20.98L17.0142 18.4284Z" fill="black" fill-opacity="0.4"/>
<path fill-rule="evenodd" clip-rule="evenodd" d="M6.986 18.4284L5.57179 17.0142L10.5859 12L5.57178 6.98587L6.98599 5.57166L12.0001 10.5858L17.0143 5.57167L18.4285 6.98588L13.4144 12L18.4285 17.0142L17.0143 18.4284L12.0001 13.4142L6.986 18.4284Z" fill="black"/>
</svg>
