<svg width="24" height="24" viewBox="0 0 24 24" fill="none" xmlns="http://www.w3.org/2000/svg">
<path fill-rule="evenodd" clip-rule="evenodd" d="M10.9517 4.43421L4.43421 10.9517C3.85526 11.5307 3.85526 12.4693 4.43421 13.0483L10.9517 19.5658C11.5307 20.1447 12.4693 20.1447 13.0483 19.5658L19.5658 13.0483C20.1447 12.4693 20.1447 11.5307 19.5658 10.9517L13.0483 4.43421C12.4693 3.85526 11.5307 3.85526 10.9517 4.43421ZM3.02 9.5375L9.5375 3.02C10.8975 1.66 13.1025 1.66 14.4625 3.02L20.98 9.5375C22.34 10.8975 22.34 13.1025 20.98 14.4625L14.4625 20.98C13.1025 22.34 10.8975 22.34 9.5375 20.98L3.02 14.4625C1.66 13.1025 1.66 10.8975 3.02 9.5375Z" fill="black" fill-opacity="0.4"/>
<path fill-rule="evenodd" clip-rule="evenodd" d="M15.6141 7.00003L12.0142 10.6L8.41421 7L7 8.41421L10.6 12.0142L7.00003 15.6141L8.41424 17.0283L12.0142 13.4284L15.6141 17.0283L17.0283 15.6141L13.4284 12.0142L17.0283 8.41424L15.6141 7.00003Z" fill="black"/>
</svg>
