<svg width="24" height="24" viewBox="0 0 24 24" fill="none" xmlns="http://www.w3.org/2000/svg">
<path d="M14.75 2.00002L9.15602 2.03102C8.37702 2.03502 7.42402 2.44702 6.87502 3.00002L2.93801 6.93802C2.38901 7.49102 1.99702 8.47102 2.00002 9.25002L2.03102 14.844C2.03502 15.623 2.44702 16.576 3.00002 17.125L6.938 21.062C7.491 21.611 8.47102 22.003 9.25002 22L14.844 21.969C15.623 21.965 16.576 21.553 17.125 21L21.062 17.062C21.611 16.509 22.003 15.529 22 14.75L21.969 9.15603C21.965 8.37703 21.553 7.42402 21 6.87502L17.062 2.93802C16.509 2.38902 15.529 1.99702 14.75 2.00002ZM14.75 4.00002C14.999 3.99902 15.48 4.20002 15.656 4.37502L19.594 8.28103C19.77 8.45603 19.968 8.93902 19.969 9.18802L20 14.75C20.001 14.999 19.8 15.48 19.625 15.656L15.719 19.594C15.544 19.77 15.061 19.968 14.812 19.969L9.25002 20C9.00102 20.001 8.55202 19.8 8.37502 19.625L4.40602 15.719C4.23002 15.544 4.03202 15.061 4.03102 14.812L4.00002 9.25002C3.99902 9.00102 4.20002 8.55202 4.37502 8.37502L8.28102 4.40602C8.45602 4.23002 8.939 4.03202 9.188 4.03102L14.75 4.00002Z" fill="black" fill-opacity="0.4"/>
<path d="M9.0086 8C8.75333 8 8.4871 8.08588 8.29166 8.2806C7.90278 8.67104 7.90278 9.32609 8.29166 9.71653L10.5661 11.9943L8.29166 14.272C7.90278 14.6624 7.90278 15.3175 8.29166 15.7079C8.68154 16.0974 9.33565 16.0974 9.72553 15.7079L12 13.4302L14.2745 15.7079C14.6644 16.0974 15.3185 16.0974 15.7083 15.7079C16.0972 15.3175 16.0972 14.6624 15.7083 14.272L13.4339 11.9943L15.7083 9.71653C16.0972 9.32609 16.0972 8.67104 15.7083 8.2806C15.5129 8.08588 15.2467 8 14.9914 8C14.7361 8 14.4699 8.08588 14.2745 8.2806L12 10.5583L9.72553 8.2806C9.53009 8.08588 9.26386 8 9.0086 8Z" fill="black"/>
</svg>
