<svg width="24" height="24" viewBox="0 0 24 24" fill="none" xmlns="http://www.w3.org/2000/svg">
<path fill-rule="evenodd" clip-rule="evenodd" d="M3 20C3.55228 20 4 19.5523 4 19L4 5C4 4.44771 3.55228 4 3 4C2.44772 4 2 4.44771 2 5L2 19C2 19.5523 2.44772 20 3 20Z" fill="black" fill-opacity="0.4"/>
<path fill-rule="evenodd" clip-rule="evenodd" d="M21 13C21.5523 13 22 13.4477 22 14C22 14.5523 21.5523 15 21 15L7 15C6.44771 15 6 14.5523 6 14C6 13.4477 6.44771 13 7 13H21ZM15 9C15.5523 9 16 9.44772 16 10C16 10.5523 15.5523 11 15 11H7C6.44771 11 6 10.5523 6 10C6 9.44772 6.44771 9 7 9H15Z" fill="black"/>
</svg>
