<svg width="24" height="24" viewBox="0 0 24 24" fill="none" xmlns="http://www.w3.org/2000/svg">
<path fill-rule="evenodd" clip-rule="evenodd" d="M4 21C4 20.4477 4.44772 20 5 20H19C19.5523 20 20 20.4477 20 21C20 21.5523 19.5523 22 19 22H5C4.44772 22 4 21.5523 4 21Z" fill="black" fill-opacity="0.4"/>
<path fill-rule="evenodd" clip-rule="evenodd" d="M11 3C11 2.44772 10.5523 2 10 2C9.44772 2 9 2.44772 9 3V17C9 17.5523 9.44772 18 10 18C10.5523 18 11 17.5523 11 17V3ZM15 9C15 8.44772 14.5523 8 14 8C13.4477 8 13 8.44772 13 9V17C13 17.5523 13.4477 18 14 18C14.5523 18 15 17.5523 15 17V9Z" fill="black"/>
</svg>
