<svg width="24" height="24" viewBox="0 0 24 24" fill="none" xmlns="http://www.w3.org/2000/svg">
<path fill-rule="evenodd" clip-rule="evenodd" d="M20 3C20 3.55228 19.5523 4 19 4H5C4.44771 4 4 3.55228 4 3C4 2.44772 4.44771 2 5 2H19C19.5523 2 20 2.44772 20 3Z" fill="black" fill-opacity="0.4"/>
<path fill-rule="evenodd" clip-rule="evenodd" d="M14.5 22C15.3284 22 16 21.3284 16 20.5V7.5C16 6.67157 15.3284 6 14.5 6C13.6716 6 13 6.67157 13 7.5V20.5C13 21.3284 13.6716 22 14.5 22ZM9.5 16C10.3284 16 11 15.3284 11 14.5V7.5C11 6.67157 10.3284 6 9.5 6C8.67157 6 8 6.67157 8 7.5V14.5C8 15.3284 8.67157 16 9.5 16Z" fill="black"/>
</svg>
