<svg width="24" height="24" viewBox="0 0 24 24" fill="none" xmlns="http://www.w3.org/2000/svg">
<path d="M20 3C20 3.55228 19.5523 4 19 4H5C4.44771 4 4 3.55228 4 3C4 2.44772 4.44771 2 5 2H19C19.5523 2 20 2.44772 20 3Z" fill="black" fill-opacity="0.4"/>
<path fill-rule="evenodd" clip-rule="evenodd" d="M16 22C17.6569 22 19 20.6569 19 19V9C19 7.34315 17.6569 6 16 6C14.3431 6 13 7.34315 13 9V19C13 20.6569 14.3431 22 16 22ZM17 19C17 19.5523 16.5523 20 16 20C15.4477 20 15 19.5523 15 19V9C15 8.44771 15.4477 8 16 8C16.5523 8 17 8.44772 17 9V19ZM8 17C9.65685 17 11 15.6569 11 14V9C11 7.34315 9.65685 6 8 6C6.34315 6 5 7.34315 5 9V14C5 15.6569 6.34315 17 8 17ZM9 14C9 14.5523 8.55229 15 8 15C7.44772 15 7 14.5523 7 14V9C7 8.44772 7.44772 8 8 8C8.55228 8 9 8.44772 9 9V14Z" fill="black"/>
</svg>
