<svg width="24" height="24" viewBox="0 0 24 24" fill="none" xmlns="http://www.w3.org/2000/svg">
<path fill-rule="evenodd" clip-rule="evenodd" d="M20 3C20 3.55228 19.5523 4 19 4H5C4.44771 4 4 3.55228 4 3C4 2.44772 4.44771 2 5 2H19C19.5523 2 20 2.44772 20 3Z" fill="black" fill-opacity="0.4"/>
<path fill-rule="evenodd" clip-rule="evenodd" d="M13 21C13 21.5523 13.4477 22 14 22C14.5523 22 15 21.5523 15 21V7C15 6.44771 14.5523 6 14 6C13.4477 6 13 6.44771 13 7V21ZM9 15C9 15.5523 9.44772 16 10 16C10.5523 16 11 15.5523 11 15V7C11 6.44771 10.5523 6 10 6C9.44772 6 9 6.44771 9 7V15Z" fill="black"/>
</svg>
