<svg width="24" height="24" viewBox="0 0 24 24" fill="none" xmlns="http://www.w3.org/2000/svg">
<path fill-rule="evenodd" clip-rule="evenodd" d="M12 3C9.79086 3 8 4.79086 8 7V17.5859C9 18.5898 9 18.5898 9 18.5898C9 18.5898 9 18.5898 10 17.5857V7C10 5.89543 10.8954 5 12 5H20C20.5523 5 21 4.55228 21 4C21 3.44772 20.5523 3 20 3H12Z" fill="black" fill-opacity="0.4"/>
<path fill-rule="evenodd" clip-rule="evenodd" d="M3.99991 13.5858L8.99991 18.5858L13.9999 13.5858L15.4141 15L9.70701 20.7071C9.31649 21.0977 8.68332 21.0977 8.2928 20.7071L2.58569 15L3.99991 13.5858Z" fill="black"/>
</svg>
