<svg width="24" height="24" viewBox="0 0 24 24" fill="none" xmlns="http://www.w3.org/2000/svg">
<path fill-rule="evenodd" clip-rule="evenodd" d="M3 17C3 19.2091 4.79086 21 7 21H17C19.2091 21 21 19.2091 21 17V7C21 4.79086 19.2091 3 17 3H7C4.79086 3 3 4.79086 3 7L3 17ZM7 19C5.89543 19 5 18.1046 5 17L5 7C5 5.89543 5.89543 5 7 5H17C18.1046 5 19 5.89543 19 7V17C19 18.1046 18.1046 19 17 19H7Z" fill="black" fill-opacity="0.4"/>
<path fill-rule="evenodd" clip-rule="evenodd" d="M8 13C7.44772 13 7 12.5523 7 12C7 11.4477 7.44772 11 8 11H13.5859L10.5858 7.99991L12 6.58569L16.7071 11.2928C16.8224 11.4081 16.9037 11.5446 16.9509 11.6897C16.9742 11.761 16.9896 11.8358 16.9963 11.9132C17.0007 11.9637 17.0012 12.0145 16.9979 12.065C16.9905 12.1812 16.9632 12.292 16.9194 12.394C16.8818 12.4818 16.831 12.5653 16.7671 12.6415C16.746 12.6667 16.7237 12.6908 16.7003 12.7138L12 17.4141L10.5858 15.9999L13.5857 13H8Z" fill="black"/>
</svg>
