<svg width="24" height="24" viewBox="0 0 24 24" fill="none" xmlns="http://www.w3.org/2000/svg">
<path fill-rule="evenodd" clip-rule="evenodd" d="M8 6L5 6C3.89543 6 3 6.89543 3 8V18C3 20.2091 4.79086 22 7 22H17C19.2091 22 21 20.2091 21 18V8C21 6.89543 20.1046 6 19 6H16V7C16 7.55228 15.5523 8 15 8C14.4477 8 14 7.55228 14 7V6L10 6V7C10 7.55228 9.55228 8 9 8C8.44771 8 8 7.55228 8 7V6Z" fill="black" fill-opacity="0.4"/>
<path fill-rule="evenodd" clip-rule="evenodd" d="M8 6C8 3.79086 9.79086 2 12 2C14.2091 2 16 3.79086 16 6V7C16 7.55228 15.5523 8 15 8C14.4477 8 14 7.55228 14 7V6C14 4.89543 13.1046 4 12 4C10.8954 4 10 4.89543 10 6V7C10 7.55228 9.55228 8 9 8C8.44772 8 8 7.55228 8 7V6Z" fill="black"/>
</svg>
