<svg width="24" height="24" viewBox="0 0 24 24" fill="none" xmlns="http://www.w3.org/2000/svg">
<path fill-rule="evenodd" clip-rule="evenodd" d="M4 7C2.89543 7 2 7.89543 2 9V11C2 11.8103 2.4819 12.5081 3.17474 12.8223L4.46169 17.9701C4.90685 19.7508 6.50679 21 8.34226 21H15.6576C17.4931 21 19.093 19.7508 19.5382 17.9701L20.8251 12.8224C21.518 12.5082 22 11.8104 22 11V9C22 7.89543 21.1046 7 20 7H4ZM18.7191 13H5.28071L6.40197 17.4851C6.62456 18.3754 7.42452 19 8.34226 19H15.6576C16.5753 19 17.3753 18.3754 17.5979 17.4851L18.7191 13ZM4 9H20V11H4V9Z" fill="black" fill-opacity="0.4"/>
<path fill-rule="evenodd" clip-rule="evenodd" d="M16.5529 3.10555C17.0468 2.85856 17.6475 3.05878 17.8945 3.55276L19.6181 7H17.3821L16.1056 4.44719C15.8587 3.95321 16.0589 3.35254 16.5529 3.10555ZM7.4471 3.10579C6.95312 2.8588 6.35244 3.05903 6.10546 3.55301L4.38184 7.00024H6.6179L7.89431 4.44743C8.1413 3.95345 7.94107 3.35278 7.4471 3.10579ZM11.0001 13V16C11.0001 16.5523 10.5524 17 10.0001 17C9.44782 17 9.0001 16.5523 9.0001 16V13H11.0001ZM15.0001 13V16C15.0001 16.5523 14.5524 17 14.0001 17C13.4478 17 13.0001 16.5523 13.0001 16V13H15.0001Z" fill="black"/>
</svg>
