<svg width="24" height="24" viewBox="0 0 24 24" fill="none" xmlns="http://www.w3.org/2000/svg">
<path d="M7.75 3.02719C7.502 3.08919 7.29801 3.25919 7.15601 3.49619L4.46899 7.99618H3C2.448 7.99618 2 8.44418 2 8.99618V12.9962C2 13.1312 2.03999 13.2782 2.09399 13.4022L4.375 18.7152C4.926 20.0012 6.414 20.9962 7.812 20.9962H16.188C17.586 20.9962 19.074 20.0012 19.625 18.7152L21.906 13.4022C21.96 13.2782 22 13.1322 22 12.9962C22 12.4962 22 9.49617 22 8.99618C22 8.44418 21.552 7.99618 21 7.99618H19.531L16.844 3.49619C16.702 3.25919 16.498 3.08919 16.25 3.02719C16.002 2.96519 15.737 3.01019 15.5 3.15219C15.026 3.43619 14.872 4.02218 15.156 4.49618L17.25 7.99618H6.75L8.84399 4.49618C9.12799 4.02218 8.974 3.43619 8.5 3.15219C8.263 3.01019 7.998 2.96519 7.75 3.02719ZM4 9.99617H20C20 11.0072 20 12.3002 20 12.8082L17.781 17.9341C17.545 18.4841 16.786 18.9962 16.188 18.9962H7.812C7.214 18.9962 6.45499 18.4841 6.21899 17.9341L4 12.8082V9.99617Z" fill="black" fill-opacity="0.4"/>
<path fill-rule="evenodd" clip-rule="evenodd" d="M8 12C8.55228 12 9 12.4477 9 13V15C9 15.5523 8.55228 16 8 16C7.44772 16 7 15.5523 7 15V13C7 12.4477 7.44772 12 8 12ZM12 12C12.5523 12 13 12.4477 13 13V16C13 16.5523 12.5523 17 12 17C11.4477 17 11 16.5523 11 16V13C11 12.4477 11.4477 12 12 12ZM16 12C16.5523 12 17 12.4477 17 13V15C17 15.5523 16.5523 16 16 16C15.4477 16 15 15.5523 15 15V13C15 12.4477 15.4477 12 16 12Z" fill="black"/>
</svg>
