<svg width="24" height="24" viewBox="0 0 24 24" fill="none" xmlns="http://www.w3.org/2000/svg">
<path fill-rule="evenodd" clip-rule="evenodd" d="M9 21C9 20.4477 9.44772 20 10 20H14C14.5523 20 15 20.4477 15 21C15 21.5523 14.5523 22 14 22H10C9.44772 22 9 21.5523 9 21Z" fill="black" fill-opacity="0.4"/>
<path d="M6 8C6 4.68629 8.68629 2 12 2C15.3137 2 18 4.68629 18 8V10.7574C18 11.553 18.3161 12.3161 18.8787 12.8787L20.4142 14.4142C20.7893 14.7893 21 15.298 21 15.8284V16C21 17.1046 20.1046 18 19 18H5C3.89543 18 3 17.1046 3 16V15.8284C3 15.298 3.21071 14.7893 3.58579 14.4142L5.12132 12.8787C5.68393 12.3161 6 11.553 6 10.7574V8Z" fill="black"/>
</svg>
