<svg width="24" height="24" viewBox="0 0 24 24" fill="none" xmlns="http://www.w3.org/2000/svg">
<path fill-rule="evenodd" clip-rule="evenodd" d="M9 21C9 20.4477 9.44772 20 10 20H14C14.5523 20 15 20.4477 15 21C15 21.5523 14.5523 22 14 22H10C9.44772 22 9 21.5523 9 21Z" fill="black" fill-opacity="0.4"/>
<path fill-rule="evenodd" clip-rule="evenodd" d="M6 8C6 4.68629 8.68629 2 12 2C15.3137 2 18 4.68629 18 8V9.75736C18 10.2878 18.2107 10.7965 18.5858 11.1716L20.1213 12.7071C20.6839 13.2697 21 14.0328 21 14.8284V15C21 16.6569 19.6569 18 18 18H6C4.34315 18 3 16.6569 3 15V14.8284C3 14.0328 3.31607 13.2697 3.87868 12.7071L5.41421 11.1716C5.78929 10.7965 6 10.2878 6 9.75736V8ZM12 4C9.79086 4 8 5.79086 8 8V9.75736C8 10.8182 7.57857 11.8356 6.82843 12.5858L5.29289 14.1213C5.10536 14.3089 5 14.5632 5 14.8284V15C5 15.5523 5.44772 16 6 16H18C18.5523 16 19 15.5523 19 15V14.8284C19 14.5632 18.8946 14.3089 18.7071 14.1213L17.1716 12.5858C16.4214 11.8356 16 10.8182 16 9.75736V8C16 5.79086 14.2091 4 12 4Z" fill="black"/>
</svg>
