<svg width="24" height="24" viewBox="0 0 24 24" fill="none" xmlns="http://www.w3.org/2000/svg">
<path fill-rule="evenodd" clip-rule="evenodd" d="M15 8C15 9.65685 13.6569 11 12 11C10.3431 11 9 9.65685 9 8C9 6.34315 10.3431 5 12 5C13.6569 5 15 6.34315 15 8ZM8 17C8 18.6569 6.65685 20 5 20C3.34315 20 2 18.6569 2 17C2 15.3431 3.34315 14 5 14C6.65685 14 8 15.3431 8 17ZM19 20C20.6569 20 22 18.6569 22 17C22 15.3431 20.6569 14 19 14C17.3431 14 16 15.3431 16 17C16 18.6569 17.3431 20 19 20Z" fill="black"/>
<path fill-rule="evenodd" clip-rule="evenodd" d="M14.5568 9.57014C14.8379 9.11341 15 8.57564 15 8C15 7.64936 14.9398 7.31278 14.8293 7H18.2676C18.6134 6.4022 19.2597 6 20 6C21.1046 6 22 6.89543 22 8C22 9.10457 21.1046 10 20 10C19.2597 10 18.6134 9.5978 18.2676 9H17.2914C18.754 10.2906 19.7412 12.1077 19.956 14.1555C19.6557 14.0547 19.3342 14 19 14C18.629 14 18.2738 14.0673 17.9458 14.1904C17.6695 12.1421 16.3594 10.4204 14.5568 9.57014ZM9.17071 7C9.06015 7.31278 9 7.64936 9 8C9 8.57564 9.16213 9.11341 9.44321 9.57014C7.64062 10.4204 6.33049 12.1421 6.05417 14.1904C5.72621 14.0673 5.37097 14 5 14C4.66576 14 4.34429 14.0547 4.04403 14.1555C4.25882 12.1077 5.24605 10.2906 6.70862 9H5.73244C5.38663 9.5978 4.74028 10 4 10C2.89543 10 2 9.10457 2 8C2 6.89543 2.89543 6 4 6C4.74028 6 5.38663 6.4022 5.73244 7H9.17071Z" fill="black" fill-opacity="0.4"/>
</svg>
