<svg width="24" height="24" viewBox="0 0 24 24" fill="none" xmlns="http://www.w3.org/2000/svg">
<path fill-rule="evenodd" clip-rule="evenodd" d="M6 21C9.31371 21 12 18.3137 12 15C12 18.3137 14.6863 21 18 21C21.3137 21 24 18.3137 24 15C24 11.6863 21.3137 9 18 9C14.6863 9 12 11.6863 12 15H6C6 15 8.5 11 9.11352 9.87004C8.20584 9.31796 7.14005 9 6 9C2.68629 9 0 11.6863 0 15C0 18.3137 2.68629 21 6 21Z" fill="black" fill-opacity="0.4"/>
<path fill-rule="evenodd" clip-rule="evenodd" d="M14.4911 6.47885C14.1276 5.81248 14.6099 5 15.369 5H17.4999C18.0522 5 18.4999 4.55228 18.4999 4C18.4999 3.44772 18.0522 3 17.4999 3H15.369C13.0918 3 11.6449 5.43743 12.7353 7.43655L13.5881 9H9.42911L8.80412 8H9.29975C9.85204 8 10.2998 7.55228 10.2998 7C10.2998 6.44772 9.85204 6 9.29975 6H7.01529C7.0044 5.99982 6.9935 5.99982 6.9826 6H5C4.44772 6 4 6.44772 4 7C4 7.55228 4.44772 8 5 8H6.44564L7.76612 10.1128L5.14251 14.4855C4.95715 14.7944 4.95229 15.1792 5.1298 15.4927C5.30731 15.8062 5.63973 16 6 16H11.9808C12.1533 16.0034 12.3284 15.9624 12.4884 15.8726C12.5238 15.8528 12.5579 15.8309 12.5907 15.8069C12.7052 15.7233 12.7971 15.619 12.8647 15.5025L15.1015 11.7745L17.122 15.4789C17.3865 15.9637 17.9939 16.1424 18.4788 15.8779C18.9636 15.6134 19.1423 15.006 18.8778 14.5211L14.4911 6.47885ZM8.9561 12.0168L7.76619 14H10.1956L8.9561 12.0168ZM11.9825 13.0855L10.6791 11H13.2338L11.9825 13.0855Z" fill="black"/>
</svg>
