<svg width="24" height="24" viewBox="0 0 24 24" fill="none" xmlns="http://www.w3.org/2000/svg">
<path fill-rule="evenodd" clip-rule="evenodd" d="M3 5C2.44772 5 2 5.44772 2 6C2 6.55228 2.44772 7 3 7H21C21.5523 7 22 6.55228 22 6C22 5.44772 21.5523 5 21 5H3ZM3 17C2.44772 17 2 17.4477 2 18C2 18.5523 2.44772 19 3 19H21C21.5523 19 22 18.5523 22 18C22 17.4477 21.5523 17 21 17H3ZM12 10C12 9.44772 12.4477 9 13 9H21C21.5523 9 22 9.44772 22 10C22 10.5523 21.5523 11 21 11H13C12.4477 11 12 10.5523 12 10ZM13 13C12.4477 13 12 13.4477 12 14C12 14.5523 12.4477 15 13 15H21C21.5523 15 22 14.5523 22 14C22 13.4477 21.5523 13 21 13H13Z" fill="black" fill-opacity="0.4"/>
<path d="M5.15601 9.0987C3.80901 10.1321 3 11.7376 3 13.4669C3 13.4769 3 13.4878 3 13.4978C3 14.3255 3.671 14.9955 4.5 14.9955C5.329 14.9955 6 14.3255 6 13.4978C6 12.6701 5.329 12.0002 4.5 12.0002C4.429 12.0002 4.319 11.9912 4.25 12.0002C4.53 11.1525 5.034 10.4276 5.75 9.87849C5.969 9.71075 6.01199 9.4112 5.84399 9.19255C5.67499 8.97289 5.37501 8.92996 5.15601 9.0987ZM9.15601 9.0987C7.80901 10.1321 7 11.7376 7 13.4669C7 13.4769 7 13.4878 7 13.4978C7 14.3255 7.671 14.9955 8.5 14.9955C9.329 14.9955 10 14.3255 10 13.4978C10 12.6701 9.329 12.0002 8.5 12.0002C8.429 12.0002 8.319 12.0221 8.25 12.0311C8.53 11.1835 9.034 10.4276 9.75 9.87849C9.969 9.71075 10.012 9.4112 9.84399 9.19255C9.67499 8.97289 9.37501 8.92996 9.15601 9.0987Z" fill="black"/>
</svg>
