<svg width="24" height="24" viewBox="0 0 24 24" fill="none" xmlns="http://www.w3.org/2000/svg">
<path fill-rule="evenodd" clip-rule="evenodd" d="M2 9H8V17H2V9ZM9 9H15V17H9V9ZM22 9H16V17H22V9Z" fill="black" fill-opacity="0.4"/>
<path fill-rule="evenodd" clip-rule="evenodd" d="M4 4C2.89543 4 2 4.89543 2 6V8H8V6C8 4.89543 7.10457 4 6 4H4ZM2 17C1.44772 17 1 17.4477 1 18C1 18.5523 1.44772 19 2 19H4V20C4 20.5523 4.44772 21 5 21C5.55228 21 6 20.5523 6 20V19H18V20C18 20.5523 18.4477 21 19 21C19.5523 21 20 20.5523 20 20V19H22C22.5523 19 23 18.5523 23 18C23 17.4477 22.5523 17 22 17H2ZM9 6C9 4.89543 9.89543 4 11 4H13C14.1046 4 15 4.89543 15 6V8H9V6ZM18 4C16.8954 4 16 4.89543 16 6V8H22V6C22 4.89543 21.1046 4 20 4H18Z" fill="black"/>
</svg>
