<svg width="24" height="24" viewBox="0 0 24 24" fill="none" xmlns="http://www.w3.org/2000/svg">
<path fill-rule="evenodd" clip-rule="evenodd" d="M15 19H17C18.1046 19 19 18.1046 19 17V7C19 5.89543 18.1046 5 17 5H15V3H17C19.2091 3 21 4.79086 21 7V17C21 19.2091 19.2091 21 17 21H15V19Z" fill="black"/>
<path fill-rule="evenodd" clip-rule="evenodd" d="M7 21C4.79086 21 3 19.2091 3 17L3 7C3 4.79086 4.79086 3 7 3H15V5H13L13 11L19 11V13H13V19H15V21H7ZM11 11L11 5H7C5.89543 5 5 5.89543 5 7L5 11H11ZM5 13V17C5 18.1046 5.89543 19 7 19H11V13H5Z" fill="black" fill-opacity="0.4"/>
</svg>
