<svg width="24" height="24" viewBox="0 0 24 24" fill="none" xmlns="http://www.w3.org/2000/svg">
<path fill-rule="evenodd" clip-rule="evenodd" d="M3 17C3 19.2091 4.79086 21 7 21H17C19.2091 21 21 19.2091 21 17V9H19V11H13V5H11V11H5V9H3V17ZM13 13H19V17C19 18.1046 18.1046 19 17 19H13V13ZM11 19H7C5.89543 19 5 18.1046 5 17V13H11V19Z" fill="black" fill-opacity="0.4"/>
<path fill-rule="evenodd" clip-rule="evenodd" d="M5 9V7C5 5.89543 5.89543 5 7 5H17C18.1046 5 19 5.89543 19 7V9H21V7C21 4.79086 19.2091 3 17 3H7C4.79086 3 3 4.79086 3 7V9H5Z" fill="black"/>
</svg>
