<svg width="24" height="24" viewBox="0 0 24 24" fill="none" xmlns="http://www.w3.org/2000/svg">
<path d="M5 3V5H7V3H5ZM5 5H3V7H5V5ZM8 3V5H10V3H8ZM11 3V5H13V3H11ZM14 3V5H16V3H14ZM17 3V5H19V3H17ZM19 5V7H21V5H19ZM11 6V8H13V6H11ZM3 8V10H5V8H3ZM19 8V10H21V8H19ZM11 9V11H13V9H11ZM13 11V13H15V11H13ZM13 13H11V15H13V13ZM11 13V11H9V13H11ZM3 11V13H5V11H3ZM6 11V13H8V11H6ZM16 11V13H18V11H16ZM19 11V13H21V11H19ZM3 14V16H5V14H3ZM19 14V16H21V14H19ZM11 16V18H13V16H11ZM3 17V19H5V17H3ZM5 19V21H7V19H5ZM19 17V19H21V17H19ZM19 19H17V21H19V19ZM8 19V21H10V19H8ZM11 19V21H13V19H11ZM14 19V21H16V19H14Z" fill="black" fill-opacity="0.4"/>
</svg>
