<svg width="24" height="24" viewBox="0 0 24 24" fill="none" xmlns="http://www.w3.org/2000/svg">
<path fill-rule="evenodd" clip-rule="evenodd" d="M15 5H9V7H15V5ZM15 17H9V19H15V17ZM7 9V15H5V9H7ZM19 15V9H17V15H19Z" fill="black" fill-opacity="0.4"/>
<path fill-rule="evenodd" clip-rule="evenodd" d="M5 3C3.89543 3 3 3.89543 3 5V7C3 8.10457 3.89543 9 5 9H7C8.10457 9 9 8.10457 9 7V5C9 3.89543 8.10457 3 7 3H5ZM5 15C3.89543 15 3 15.8954 3 17V19C3 20.1046 3.89543 21 5 21H7C8.10457 21 9 20.1046 9 19V17C9 15.8954 8.10457 15 7 15H5ZM15 5C15 3.89543 15.8954 3 17 3H19C20.1046 3 21 3.89543 21 5V7C21 8.10457 20.1046 9 19 9H17C15.8954 9 15 8.10457 15 7V5ZM17 15C15.8954 15 15 15.8954 15 17V19C15 20.1046 15.8954 21 17 21H19C20.1046 21 21 20.1046 21 19V17C21 15.8954 20.1046 15 19 15H17Z" fill="black"/>
</svg>
