<svg width="24" height="24" viewBox="0 0 24 24" fill="none" xmlns="http://www.w3.org/2000/svg">
<path fill-rule="evenodd" clip-rule="evenodd" d="M9.4997 15.4853C7.9376 13.9232 7.9376 11.3905 9.4997 9.82843L15.1566 4.17157C16.7186 2.60948 19.2513 2.60948 20.8134 4.17157C22.3755 5.73367 22.3755 8.26633 20.8134 9.82843L15.1566 15.4853C13.5945 17.0474 11.0618 17.0474 9.4997 15.4853ZM10.9139 11.2426C10.1329 12.0237 10.1329 13.29 10.9139 14.0711C11.695 14.8521 12.9613 14.8521 13.7423 14.0711L10.9139 11.2426Z" fill="black" fill-opacity="0.4"/>
<path fill-rule="evenodd" clip-rule="evenodd" d="M8.34287 13.0145C8.4204 13.9211 8.80605 14.8063 9.49981 15.5001C10.1936 16.1939 11.0789 16.5795 11.9855 16.657C11.9951 16.7701 12 16.8845 12 17C12 19.2091 10.2092 21 8.00001 21C6.3898 21 5.04632 20.7318 4.10029 20.4615C3.6267 20.3262 3.25063 20.1898 2.988 20.0847C2.84199 20.0263 2.69626 19.9655 2.55527 19.8957L2.55394 19.895C2.55394 19.895 2.68471 19.9569 2.5528 19.8944C2.26529 19.7507 2.06441 19.4775 2.01292 19.1602C1.96144 18.8429 2.06561 18.5202 2.29291 18.2929C2.70568 17.8801 3.03035 17.4009 3.33936 16.8711C3.44482 16.6903 3.56388 16.4742 3.68823 16.2484C3.88219 15.8963 4.089 15.5208 4.27701 15.22C4.61978 14.6716 5.05018 14.1019 5.66665 13.6768C6.30326 13.2378 7.06828 13 8.00001 13C8.11551 13 8.22986 13.0049 8.34287 13.0145Z" fill="black"/>
</svg>
