<svg width="24" height="24" viewBox="0 0 24 24" fill="none" xmlns="http://www.w3.org/2000/svg">
<path fill-rule="evenodd" clip-rule="evenodd" d="M8.34276 12.9997C10.2783 13.164 11.821 14.7067 11.9854 16.6422C13.1201 16.7392 14.2883 16.3536 15.1566 15.4853L20.8134 9.82843C22.3755 8.26633 22.3755 5.73367 20.8134 4.17157C19.2513 2.60948 16.7186 2.60948 15.1566 4.17157L9.4997 9.82843C8.63137 10.6968 8.24572 11.865 8.34276 12.9997ZM10.9139 14.0711C10.1329 13.29 10.1329 12.0237 10.9139 11.2426L13.7423 14.0711C12.9613 14.8521 11.695 14.8521 10.9139 14.0711Z" fill="black" fill-opacity="0.4"/>
<path fill-rule="evenodd" clip-rule="evenodd" d="M2.01292 19.1602C2.06441 19.4775 2.26529 19.7507 2.5528 19.8944C2.68471 19.9569 2.55394 19.895 2.55394 19.895L2.55527 19.8957C2.69626 19.9655 2.84199 20.0263 2.988 20.0847C3.25063 20.1898 3.6267 20.3262 4.10029 20.4615C5.04631 20.7318 6.38979 21 8 21C8 21 8.00001 21 8.00001 21H20C20.5523 21 21 20.5523 21 20C21 19.4477 20.5523 19 20 19H11.4649C11.8052 18.4117 12 17.7286 12 17C12 14.7909 10.2092 13 8.00001 13C7.06828 13 6.30326 13.2378 5.66665 13.6768C5.05018 14.1019 4.61978 14.6716 4.27701 15.22C4.089 15.5208 3.88219 15.8963 3.68823 16.2484C3.56388 16.4742 3.44482 16.6903 3.33936 16.8711C3.03035 17.4009 2.70568 17.8801 2.29291 18.2929C2.06561 18.5202 1.96144 18.8429 2.01292 19.1602ZM8.00001 19C9.10458 19 10 18.1046 10 17C10 15.8954 9.10458 15 8.00001 15C7.43174 15 7.07177 15.1372 6.80212 15.3232C6.51234 15.5231 6.25524 15.8284 5.97301 16.28C5.94539 16.3242 5.91864 16.3678 5.89255 16.411C6.80212 16.8752 7.5 18 7.39246 18.9852C7.58949 18.9948 7.79214 19 8 19C8 19 8.00001 19 8.00001 19Z" fill="black"/>
</svg>
