<svg width="24" height="24" viewBox="0 0 24 24" fill="none" xmlns="http://www.w3.org/2000/svg">
<path fill-rule="evenodd" clip-rule="evenodd" d="M7.00698 11.118L4.00279 12.618V19H7.00698V20C7.00698 20.5492 7.45108 20.9955 8 21H3.0014C2.44834 21 2 20.5523 2 20V12C2 11.6212 2.2143 11.275 2.55356 11.1056L7.00698 8.88196V11.118Z" fill="black" fill-opacity="0.4"/>
<path fill-rule="evenodd" clip-rule="evenodd" d="M16.5 2.125C16.649 2.042 16.83 2 17 2H20C20.552 2 21 2.448 21 3V20C21 20.552 20.552 21 20 21C19.9977 20.9945 15.9941 20.9858 15.9941 20.9858V19.9775C15.9941 19.4252 15.5464 18.9775 14.9941 18.9775H12.9941C12.4419 18.9775 11.9941 19.4252 11.9941 19.9775V20.9917L8 21C7.448 21 7 20.552 7 20V8C7 7.637 7.183 7.301 7.5 7.125L16.5 2.125ZM11.9941 15.9914C12.5464 15.9914 12.9941 15.5437 12.9941 14.9914C12.9941 14.4391 12.5464 13.9914 11.9941 13.9914C11.4419 13.9914 10.9941 14.4391 10.9941 14.9914C10.9941 15.5437 11.4419 15.9914 11.9941 15.9914ZM16.9941 14.9914C16.9941 15.5437 16.5464 15.9914 15.9941 15.9914C15.4419 15.9914 14.9941 15.5437 14.9941 14.9914C14.9941 14.4391 15.4419 13.9914 15.9941 13.9914C16.5464 13.9914 16.9941 14.4391 16.9941 14.9914ZM15.9941 11.9914C16.5464 11.9914 16.9941 11.5437 16.9941 10.9914C16.9941 10.4391 16.5464 9.99142 15.9941 9.99142C15.4419 9.99142 14.9941 10.4391 14.9941 10.9914C14.9941 11.5437 15.4419 11.9914 15.9941 11.9914ZM12.9941 10.9914C12.9941 11.5437 12.5464 11.9914 11.9941 11.9914C11.4419 11.9914 10.9941 11.5437 10.9941 10.9914C10.9941 10.4391 11.4419 9.99142 11.9941 9.99142C12.5464 9.99142 12.9941 10.4391 12.9941 10.9914ZM15.9941 7.99142C16.5464 7.99142 16.9941 7.54371 16.9941 6.99142C16.9941 6.43914 16.5464 5.99142 15.9941 5.99142C15.4419 5.99142 14.9941 6.43914 14.9941 6.99142C14.9941 7.54371 15.4419 7.99142 15.9941 7.99142Z" fill="black"/>
</svg>
