<svg width="24" height="24" viewBox="0 0 24 24" fill="none" xmlns="http://www.w3.org/2000/svg">
<path d="M7 3.00002C4.7909 3.00002 3 4.79101 3 7.00001V17C3 19.209 4.7909 21 7 21H17C19.209 21 21 19.209 21 17V7.00001C21 4.79101 19.209 3.00002 17 3.00002C16 3.00003 8.07371 3.00004 7 3.00002ZM7 5.00002H17C18.105 5.00002 19 5.89501 19 7.00001V17C19 18.105 18.105 19 17 19H7C5.8954 19 5 18.105 5 17V7.00001C5 5.89501 5.8954 5.00002 7 5.00002Z" fill="black" fill-opacity="0.4"/>
<path fill-rule="evenodd" clip-rule="evenodd" d="M8 2C8.55228 2 9 2.44772 9 3V4C9 4.55228 8.55228 5 8 5C7.44772 5 7 4.55228 7 4V3C7 2.44772 7.44772 2 8 2ZM16 2C16.5523 2 17 2.44772 17 3V4C17 4.55228 16.5523 5 16 5C15.4477 5 15 4.55228 15 4V3C15 2.44772 15.4477 2 16 2ZM8 7C7.44772 7 7 7.44772 7 8C7 8.55228 7.44772 9 8 9H16C16.5523 9 17 8.55228 17 8C17 7.44772 16.5523 7 16 7H8Z" fill="black"/>
</svg>
