<svg width="24" height="24" viewBox="0 0 24 24" fill="none" xmlns="http://www.w3.org/2000/svg">
<path fill-rule="evenodd" clip-rule="evenodd" d="M7 3C4.7909 3 3 4.791 3 7V17C3 19.209 4.7909 21 7 21H17C19.209 21 21 19.209 21 17V7C21 4.791 19.209 3 17 3H7ZM8 7C7.44772 7 7 7.44772 7 8C7 8.55228 7.44772 9 8 9H16C16.5523 9 17 8.55228 17 8C17 7.44772 16.5523 7 16 7H8Z" fill="black" fill-opacity="0.4"/>
<path fill-rule="evenodd" clip-rule="evenodd" d="M8 2C8.55228 2 9 2.44772 9 3V4C9 4.55228 8.55228 5 8 5C7.44772 5 7 4.55228 7 4V3C7 2.44772 7.44772 2 8 2ZM16 2C16.5523 2 17 2.44772 17 3V4C17 4.55228 16.5523 5 16 5C15.4477 5 15 4.55228 15 4V3C15 2.44772 15.4477 2 16 2ZM15.812 12.062C15.916 12.03 16.039 12 16.156 12C16.274 12 16.396 12.03 16.5 12.062C16.604 12.095 16.671 12.13 16.75 12.188C16.828 12.245 16.893 12.299 16.938 12.375C16.982 12.451 17 12.539 17 12.625C17 12.711 16.982 12.799 16.938 12.875C16.893 12.951 16.828 13.005 16.75 13.062C16.734 13.0739 16.7184 13.0862 16.7028 13.0984C16.6425 13.1457 16.5826 13.1928 16.5 13.219C16.4016 13.2502 16.2871 13.2501 16.1751 13.25C16.1687 13.25 16.1624 13.25 16.156 13.25C16.1497 13.25 16.1434 13.25 16.1371 13.25C16.0258 13.2501 15.9104 13.2502 15.812 13.219C15.7312 13.1931 15.672 13.1469 15.612 13.1002C15.5956 13.0874 15.579 13.0745 15.562 13.062C15.484 13.005 15.42 12.951 15.375 12.875C15.33 12.799 15.281 12.711 15.281 12.625C15.281 12.539 15.33 12.451 15.375 12.375C15.42 12.299 15.484 12.245 15.562 12.188C15.641 12.13 15.709 12.095 15.812 12.062ZM7 17V12.344H10.656V13.375H8.65601V14.156H10.469V15.188H8.65601V17H7ZM13.594 13.938C13.829 13.837 14.124 13.781 14.438 13.781H14.562C14.5776 13.781 14.593 13.7802 14.6089 13.7793C14.642 13.7775 14.6771 13.7756 14.719 13.781V14.844C14.517 14.77 14.298 14.75 14.062 14.75C13.709 14.75 13.458 14.815 13.281 14.969C13.105 15.123 13 15.361 13 15.656V17H11.5V13.844H13V14.344C13.163 14.155 13.358 14.038 13.594 13.938ZM15.406 17V13.844H16.906V17H15.406Z" fill="black"/>
</svg>
