<svg width="24" height="24" viewBox="0 0 24 24" fill="none" xmlns="http://www.w3.org/2000/svg">
<path d="M7.02407 3C4.81688 3 3 4.793 3 7V9L3.03095 17C3.03095 19.206 4.81887 21 7.02407 21H17.0069C19.2121 21 21 19.209 21 17L20.969 9V7C20.969 4.789 19.2101 3 17.0069 3C15.9718 3 8.00405 3.00002 7.02407 3ZM7.02407 5C7.98555 5 15.9718 4.98582 17.0069 5C18.102 5 18.9725 5.888 18.9725 7V8C17.0518 8 6.91725 8 4.99656 8V7C4.99656 5.903 5.91399 5 7.02407 5ZM4.99656 10C6.91725 10 17.0518 10 18.9725 10L19.0034 17C19.0034 18.101 18.11 19 17.0069 19H7.02407C5.92197 19 5.02751 18.105 5.02751 17L4.99656 10Z" fill="black" fill-opacity="0.4"/>
<path fill-rule="evenodd" clip-rule="evenodd" d="M8 2C8.55228 2 9 2.44772 9 3V5C9 5.55228 8.55228 6 8 6C7.44772 6 7 5.55228 7 5V3C7 2.44772 7.44772 2 8 2ZM16 2C16.5523 2 17 2.44772 17 3V5C17 5.55228 16.5523 6 16 6C15.4477 6 15 5.55228 15 5V3C15 2.44772 15.4477 2 16 2ZM15.0736 12.0575C15.1519 12.0273 15.2224 12 15.312 12C15.407 12 15.511 12.03 15.594 12.062C15.677 12.095 15.75 12.13 15.812 12.188C15.875 12.245 15.933 12.299 15.969 12.375C16.0011 12.4428 16.0006 12.52 16.0001 12.5969C16.0001 12.6063 16 12.6157 16 12.625C16 12.6343 16.0001 12.6437 16.0001 12.6531C16.0006 12.73 16.0011 12.8072 15.969 12.875C15.933 12.951 15.875 13.005 15.812 13.062C15.75 13.12 15.677 13.186 15.594 13.219C15.5155 13.2502 15.4181 13.2501 15.3274 13.25C15.3222 13.25 15.3171 13.25 15.312 13.25C15.3069 13.25 15.3018 13.25 15.2968 13.25C15.21 13.2501 15.1405 13.2502 15.062 13.219C14.98 13.186 14.907 13.12 14.844 13.062C14.781 13.005 14.723 12.951 14.688 12.875C14.652 12.799 14.625 12.711 14.625 12.625C14.625 12.539 14.652 12.451 14.688 12.375C14.723 12.299 14.781 12.245 14.844 12.188C14.907 12.13 14.979 12.095 15.062 12.062C15.0659 12.0605 15.0698 12.059 15.0736 12.0575ZM8 17V12.344H10.906V13.375H9.34399V14.156H10.781V15.188H9.34399V17H8ZM13.281 13.938C13.47 13.837 13.686 13.781 13.938 13.781H14.062C14.0747 13.781 14.0872 13.7802 14.0999 13.7793C14.1264 13.7775 14.1543 13.7756 14.188 13.781V14.844C14.026 14.77 13.845 14.75 13.656 14.75C13.374 14.75 13.173 14.815 13.031 14.969C12.89 15.123 12.813 15.361 12.812 15.656V17H11.594V13.844H12.812V14.344C12.943 14.155 13.093 14.038 13.281 13.938ZM14.719 17V13.844H15.938V17H14.719Z" fill="black"/>
</svg>
