<svg width="24" height="24" viewBox="0 0 24 24" fill="none" xmlns="http://www.w3.org/2000/svg">
<path fill-rule="evenodd" clip-rule="evenodd" d="M3 7C3 4.791 4.7909 3 7 3H17C19.209 3 21 4.791 21 7V17C21 19.209 19.209 21 17 21H7C4.7909 21 3 19.209 3 17V7ZM17 5H7C5.8954 5 5 5.895 5 7V17C5 18.105 5.8954 19 7 19H17C18.105 19 19 18.105 19 17V7C19 5.895 18.105 5 17 5Z" fill="black" fill-opacity="0.4"/>
<path d="M8.37402 10L7 13.719H7.99929L8.21813 13.062H9.56019L9.77903 13.719H10.7473L9.4043 10H8.37402ZM8.87367 11.094L9.31037 12.344H8.46795L8.87367 11.094ZM15.4 11.125C15.2222 11.125 15.0822 11.148 14.9323 11.219C14.7815 11.29 14.6356 11.408 14.5257 11.531C14.4167 11.655 14.3398 11.802 14.2758 11.969C14.2129 12.135 14.1829 12.306 14.1829 12.5C14.1829 12.691 14.2179 12.875 14.2758 13.031C14.3348 13.188 14.4197 13.294 14.5257 13.406C14.6326 13.518 14.7545 13.625 14.9004 13.688C15.0463 13.75 15.1942 13.781 15.369 13.781C15.448 13.781 15.5209 13.762 15.5879 13.75C15.6538 13.738 15.7148 13.714 15.7748 13.688C15.8357 13.661 15.9037 13.635 15.9626 13.594C16.0206 13.553 16.0865 13.5 16.1495 13.438V13.688C16.1495 13.875 16.0905 14.02 15.9936 14.125C15.8967 14.23 15.7688 14.281 15.5879 14.281C15.375 14.281 15.2421 14.199 15.1822 14.031H14.2139C14.2388 14.17 14.2628 14.289 14.3388 14.406C14.4147 14.523 14.5316 14.631 14.6506 14.719C14.7695 14.806 14.8984 14.888 15.0563 14.938C15.2152 14.987 15.397 15 15.5879 15C15.7558 15 15.9117 14.977 16.0556 14.938C16.2005 14.898 16.3164 14.85 16.4313 14.781C16.5452 14.712 16.6621 14.625 16.7431 14.531C16.824 14.437 16.861 14.327 16.899 14.219C16.9279 14.133 16.9769 14.049 16.9929 13.938C17.0089 13.826 16.9929 13.704 16.9929 13.562V11.188H16.1495V11.469C15.9526 11.245 15.6888 11.125 15.4 11.125ZM11.0911 11.188V12.781C11.0911 13.124 11.186 13.391 11.4029 13.562C11.6207 13.734 11.9715 13.812 12.4022 13.812C12.8339 13.812 13.1536 13.734 13.3705 13.562C13.5873 13.391 13.6832 13.124 13.6832 12.781V11.188H12.8398V12.625C12.8398 12.938 12.694 13.094 12.4022 13.094C12.1104 13.094 11.9655 12.938 11.9655 12.625V11.188H11.0911ZM15.6189 11.875C15.6918 11.875 15.7688 11.877 15.8377 11.906C15.9057 11.936 15.9736 11.979 16.0246 12.031C16.0756 12.084 16.1195 12.15 16.1495 12.219C16.1795 12.288 16.1815 12.355 16.1815 12.438C16.1815 12.517 16.1795 12.617 16.1495 12.688C16.1195 12.758 16.0736 12.822 16.0246 12.875C15.9756 12.928 15.9057 12.939 15.8377 12.969C15.7688 12.998 15.6948 13.031 15.6189 13.031C15.5399 13.031 15.469 12.998 15.4 12.969C15.3321 12.939 15.2931 12.928 15.2441 12.875C15.1952 12.822 15.1482 12.758 15.1192 12.688C15.0902 12.617 15.0563 12.52 15.0563 12.438C15.0573 12.358 15.0892 12.288 15.1192 12.219C15.1492 12.15 15.1932 12.082 15.2441 12.031C15.2951 11.98 15.3341 11.938 15.4 11.906C15.467 11.875 15.5429 11.875 15.6189 11.875Z" fill="black"/>
<path fill-rule="evenodd" clip-rule="evenodd" d="M7.99929 2C8.55118 2 8.99858 2.44772 8.99858 3V5C8.99858 5.55228 8.55118 6 7.99929 6C7.4474 6 7 5.55228 7 5V3C7 2.44772 7.4474 2 7.99929 2ZM15.9936 2C16.5455 2 16.9929 2.44772 16.9929 3V5C16.9929 5.55228 16.5455 6 15.9936 6C15.4417 6 14.9943 5.55228 14.9943 5V3C14.9943 2.44772 15.4417 2 15.9936 2Z" fill="black"/>
</svg>
