<svg width="24" height="24" viewBox="0 0 24 24" fill="none" xmlns="http://www.w3.org/2000/svg">
<path fill-rule="evenodd" clip-rule="evenodd" d="M7 3C4.7909 3 3 4.791 3 7V17C3 19.209 4.7909 21 7 21H17C19.209 21 21 19.209 21 17V7C21 4.791 19.209 3 17 3H7Z" fill="black" fill-opacity="0.4"/>
<path fill-rule="evenodd" clip-rule="evenodd" d="M9 2.99918C9 2.44735 8.55228 2 8 2C7.44772 2 7 2.44735 7 2.99918V4.99754C7 5.54937 7.44772 5.99672 8 5.99672C8.55228 5.99672 9 5.54937 9 4.99754V2.99918ZM17 2.99918C17 2.44735 16.5523 2 16 2C15.4477 2 15 2.44735 15 2.99918V4.99754C15 5.54937 15.4477 5.99672 16 5.99672C16.5523 5.99672 17 5.54937 17 4.99754V2.99918ZM9.2925 10.2742C9.4875 10.0794 9.75549 9.99344 10.0115 9.99344C10.2675 9.99344 10.5345 10.0794 10.7305 10.2742L12.0115 11.5542L13.2925 10.2742C13.4875 10.0794 13.7555 9.99344 14.0115 9.99344C14.2675 9.99344 14.5345 10.0794 14.7305 10.2742C15.1205 10.6649 15.1205 11.3203 14.7305 11.711L13.4495 12.991L14.7305 14.2709C15.1205 14.6616 15.1205 15.3171 14.7305 15.7077C14.3395 16.0974 13.6835 16.0974 13.2925 15.7077L12.0115 14.4278L10.7305 15.7077C10.3395 16.0974 9.6835 16.0974 9.2925 15.7077C8.9025 15.3171 8.9025 14.6616 9.2925 14.2709L10.5735 12.991L9.2925 11.711C8.9025 11.3203 8.9025 10.6649 9.2925 10.2742Z" fill="black"/>
</svg>
