<svg width="24" height="24" viewBox="0 0 24 24" fill="none" xmlns="http://www.w3.org/2000/svg">
<path fill-rule="evenodd" clip-rule="evenodd" d="M3 7C3 4.791 4.7909 3 7 3H17C19.209 3 21 4.791 21 7V17C21 19.209 19.209 21 17 21H7C4.7909 21 3 19.209 3 17V7ZM17 5H7C5.8954 5 5 5.895 5 7V17C5 18.105 5.8954 19 7 19H17C18.105 19 19 18.105 19 17V7C19 5.895 18.105 5 17 5ZM8 6.99998C7.44772 6.99998 7 7.4477 7 7.99998C7 8.55227 7.44772 8.99998 8 8.99998H16C16.5523 8.99998 17 8.55227 17 7.99998C17 7.4477 16.5523 6.99998 16 6.99998H8Z" fill="black" fill-opacity="0.4"/>
<path fill-rule="evenodd" clip-rule="evenodd" d="M8.99858 3C8.99858 2.44772 8.55118 2 7.99929 2C7.4474 2 7 2.44772 7 3V4C7 4.55228 7.4474 5 7.99929 5C8.55118 5 8.99858 4.55228 8.99858 4V3ZM16.9929 3C16.9929 2.44772 16.5455 2 15.9936 2C15.4417 2 14.9943 2.44772 14.9943 3V4C14.9943 4.55228 15.4417 5 15.9936 5C16.5455 5 16.9929 4.55228 16.9929 4V3ZM7 14.719L8.37402 11H9.4043L10.7473 14.719H9.77903L9.56019 14.062H8.21813L7.99929 14.719H7ZM9.31037 13.344L8.87367 12.094L8.46795 13.344H9.31037ZM14.9323 12.219C15.0822 12.148 15.2222 12.125 15.4 12.125C15.6888 12.125 15.9526 12.245 16.1495 12.469V12.188H16.9929V14.562C16.9929 14.6114 16.9948 14.6583 16.9967 14.7032C17.0001 14.7876 17.0033 14.8649 16.9929 14.938C16.982 15.0134 16.9559 15.0764 16.9312 15.136C16.9196 15.1641 16.9082 15.1915 16.899 15.219L16.8952 15.2297C16.8585 15.3343 16.8213 15.4401 16.7431 15.531C16.6621 15.625 16.5452 15.712 16.4313 15.781C16.3164 15.85 16.2005 15.898 16.0556 15.938C15.9117 15.977 15.7558 16 15.5879 16C15.397 16 15.2152 15.987 15.0563 15.938C14.8984 15.888 14.7695 15.806 14.6506 15.719C14.5317 15.631 14.4147 15.523 14.3388 15.406C14.2628 15.289 14.2388 15.17 14.2139 15.031H15.1822C15.2421 15.199 15.375 15.281 15.5879 15.281C15.7688 15.281 15.8967 15.23 15.9936 15.125C16.0905 15.02 16.1495 14.875 16.1495 14.688V14.438C16.0865 14.5 16.0206 14.553 15.9626 14.594C15.914 14.6278 15.8593 14.6514 15.8074 14.6738C15.7964 14.6785 15.7855 14.6832 15.7748 14.688C15.7148 14.714 15.6538 14.738 15.5879 14.75C15.5729 14.7527 15.5577 14.7557 15.5421 14.7588C15.488 14.7695 15.4303 14.781 15.369 14.781C15.1942 14.781 15.0463 14.75 14.9004 14.688C14.7545 14.625 14.6326 14.518 14.5257 14.406C14.4197 14.294 14.3348 14.188 14.2758 14.031C14.2179 13.875 14.1829 13.691 14.1829 13.5C14.1829 13.306 14.2129 13.135 14.2758 12.969C14.3398 12.802 14.4167 12.655 14.5257 12.531C14.6356 12.408 14.7815 12.29 14.9323 12.219ZM11.0911 13.781V12.188H11.9655V13.625C11.9655 13.938 12.1104 14.094 12.4022 14.094C12.694 14.094 12.8398 13.938 12.8398 13.625V12.188H13.6832V13.781C13.6832 14.124 13.5873 14.391 13.3705 14.562C13.1536 14.734 12.8339 14.812 12.4022 14.812C11.9715 14.812 11.6207 14.734 11.4029 14.562C11.186 14.391 11.0911 14.124 11.0911 13.781ZM15.8377 12.906C15.7688 12.877 15.6918 12.875 15.6189 12.875C15.5429 12.875 15.467 12.875 15.4 12.906C15.3391 12.9356 15.3012 12.9737 15.2556 13.0195C15.2518 13.0233 15.248 13.0271 15.2441 13.031C15.1932 13.082 15.1492 13.15 15.1192 13.219C15.118 13.2219 15.1167 13.2248 15.1154 13.2277C15.0866 13.2939 15.0572 13.3614 15.0563 13.438C15.0563 13.52 15.0902 13.617 15.1192 13.688C15.1482 13.758 15.1952 13.822 15.2441 13.875C15.2858 13.9201 15.3202 13.9348 15.3714 13.9566C15.3804 13.9604 15.3899 13.9645 15.4 13.969C15.4055 13.9713 15.4111 13.9737 15.4166 13.976C15.4804 14.0031 15.5462 14.031 15.6189 14.031C15.6908 14.031 15.7609 14.0014 15.8266 13.9737C15.8304 13.9721 15.834 13.9705 15.8377 13.969C15.8571 13.9605 15.8766 13.9534 15.8957 13.9466C15.9438 13.9293 15.9896 13.9129 16.0246 13.875C16.0736 13.822 16.1195 13.758 16.1495 13.688C16.1795 13.617 16.1815 13.517 16.1815 13.438C16.1815 13.355 16.1795 13.288 16.1495 13.219C16.1195 13.15 16.0756 13.084 16.0246 13.031C15.9736 12.979 15.9057 12.936 15.8377 12.906Z" fill="black"/>
</svg>
