<svg width="24" height="24" viewBox="0 0 24 24" fill="none" xmlns="http://www.w3.org/2000/svg">
<path d="M7 3.00003C4.7909 3.00003 2.9999 4.79103 3 7.00003L3 8.00003H21V7.00003C21 4.79103 19.2091 3.00003 17 3.00003C16.1646 3.00004 10.4434 3.00004 8 3.00003C7.51869 3.00003 7.16456 3.00003 7 3.00003Z" fill="black" fill-opacity="0.4"/>
<path fill-rule="evenodd" clip-rule="evenodd" d="M7.99414 2C8.54643 2 8.99414 2.44738 8.99414 2.99926V4.99777C8.99414 5.54964 8.54643 5.99702 7.99414 5.99702C7.44186 5.99702 6.99414 5.54964 6.99414 4.99777V2.99926C6.99414 2.44738 7.44186 2 7.99414 2ZM15.9941 2C16.5464 2 16.9941 2.44738 16.9941 2.99926V4.99777C16.9941 5.54964 16.5464 5.99702 15.9941 5.99702C15.4419 5.99702 14.9941 5.54964 14.9941 4.99777V2.99926C14.9941 2.44738 15.4419 2 15.9941 2ZM3 17.003V10.0082H21V17.003C21.0001 19.2103 19.2091 21 17 21H7C4.7909 21 3 19.2103 3 17.003ZM15 13.006C15 12.4544 14.5523 12.0067 14 12.0067C13.4477 12.0067 13 12.4544 13 13.006C13 13.5575 13.4477 14.0052 14 14.0052C14.5523 14.0052 15 13.5575 15 13.006ZM18 13.006C18 12.4544 17.5523 12.0067 17 12.0067C16.4477 12.0067 16 12.4544 16 13.006C16 13.5575 16.4477 14.0052 17 14.0052C17.5523 14.0052 18 13.5575 18 13.006ZM8 16.9888C8 16.4372 7.5523 15.9896 7 15.9896C6.4477 15.9896 6 16.4514 6 17.003C6 17.5546 6.4477 18.0022 7 18.0022C7.5523 18.0022 8 17.5404 8 16.9888ZM11 17.003C11 16.4514 10.5523 16.0037 10 16.0037C9.4477 16.0037 9 16.4514 9 17.003C9 17.5546 9.4477 18.0022 10 18.0022C10.5523 18.0022 11 17.5546 11 17.003Z" fill="black"/>
</svg>
