<svg width="24" height="24" viewBox="0 0 24 24" fill="none" xmlns="http://www.w3.org/2000/svg">
<path d="M5.99902 2C3.78992 2 1.99902 3.79101 1.99902 6.00001V16C1.99902 18.2091 3.78992 20.0001 5.99902 20.0001H17.999C20.2081 20.0001 21.999 18.2091 21.999 16V8.00002C21.999 5.79101 20.2082 4.00001 17.999 4.00001H9.40523C8.63423 2.87 7.38213 2 5.99902 2ZM5.99902 4.00001C6.84462 4.00001 7.80013 4.63401 8.09283 5.37501C8.24363 5.75701 8.58863 6.00001 8.99903 6.00001H17.999C19.1036 6.00001 19.999 6.89502 19.999 8.00002V16C19.999 17.1051 19.1036 18.0001 17.999 18.0001H5.99902C4.89442 18.0001 3.99902 17.1051 3.99902 16V6.00001C3.99902 4.89501 4.89442 4.00001 5.99902 4.00001Z" fill="black" fill-opacity="0.4"/>
<path d="M6 5C5.4477 5 5 5.448 5 6C5 6.55201 5.4477 7.00001 6 7.00001C6.5523 7.00001 7 6.55201 7 6C7 5.448 6.5523 5 6 5ZM12 7.00001C9.2386 7.00001 7 9.23901 7 12C7 14.761 9.2386 17 12 17C14.7614 17 17 14.761 17 12C17 9.23901 14.7614 7.00001 12 7.00001ZM12 9.00001C13.6569 9.00001 15 10.343 15 12C15 13.657 13.6569 15 12 15C10.3431 15 9 13.657 9 12C9 10.343 10.3431 9.00001 12 9.00001Z" fill="black"/>
</svg>
