<svg width="24" height="24" viewBox="0 0 24 24" fill="none" xmlns="http://www.w3.org/2000/svg">
<path d="M5.99902 2C3.78992 2 1.99902 3.79101 1.99902 6.00001V16C1.99902 18.2091 3.78982 20.0001 5.99902 20.0001H17.999C19.656 20.0001 21.079 18.998 21.687 17.563C21.889 17.084 21.999 16.552 21.999 16V8.00002C21.999 7.44802 21.889 6.916 21.687 6.438C21.079 5.002 19.656 4.00001 17.999 4.00001H9.40522C8.63422 2.87 7.38222 2 5.99902 2ZM5.99902 4.00001C6.84462 4.00001 7.80013 4.63401 8.09283 5.37501C8.24363 5.75701 8.58862 6.00001 8.99902 6.00001H17.999C19.104 6.00001 19.999 6.89502 19.999 8.00002V16C19.999 17.1051 19.104 18.0001 17.999 18.0001H5.99902C4.89442 18.0001 3.99902 17.1051 3.99902 16V6.00001C3.99902 5.44801 4.23083 4.956 4.59283 4.594C4.95473 4.232 5.44672 4.00001 5.99902 4.00001Z" fill="black" fill-opacity="0.4"/>
<path d="M6 5C5.4477 5 5 5.44728 5 5.99839C5 6.5495 5.4477 6.99678 6 6.99678C6.5523 6.99678 7 6.5495 7 5.99839C7 5.44728 6.5523 5 6 5ZM16.156 7.99517C15.903 7.95923 15.627 8.04808 15.406 8.21381C14.964 8.54428 14.887 9.14531 15.219 9.5866C15.734 10.2725 16 11.1131 16 11.9887C16 12.8503 15.75 13.68 15.25 14.3599C14.923 14.8042 14.992 15.4062 15.438 15.7327C15.883 16.0592 16.517 15.9903 16.844 15.546C17.593 14.5266 18 13.2797 18 11.9887C18 10.6768 17.585 9.42887 16.812 8.40052C16.647 8.17988 16.41 8.03111 16.156 7.99517ZM7.8438 8.02613C7.5905 8.06307 7.3526 8.17988 7.1875 8.40052C6.4211 9.42687 6 10.6818 6 11.9887C6 13.3156 6.4298 14.5736 7.2188 15.6079C7.5533 16.0462 8.1856 16.129 8.625 15.7956C9.0644 15.4611 9.1471 14.8302 8.8125 14.3909C8.2865 13.701 8 12.8753 8 11.9887C8 11.1161 8.3015 10.3015 8.8125 9.61756C9.1427 9.17527 9.0365 8.54328 8.5938 8.21381C8.3724 8.04908 8.097 7.98919 7.8438 8.02613ZM12 9.99195C11.448 9.99195 10.956 10.2236 10.594 10.585C10.232 10.9464 10 11.4376 10 11.9887C10 13.092 10.895 13.9855 12 13.9855C13.105 13.9855 14 13.092 14 11.9887C14 10.8855 13.105 9.99195 12 9.99195Z" fill="black"/>
</svg>
