<svg width="24" height="24" viewBox="0 0 24 24" fill="none" xmlns="http://www.w3.org/2000/svg">
<path d="M3.99775 3C3.74191 3 3.48708 3.10303 3.2922 3.29813C2.90145 3.68934 2.93143 4.3407 3.32118 4.73091L4.09269 5.49432C2.85748 6.17568 1.99902 7.49241 1.99902 9.00322V15.0064C1.99902 17.2166 3.78888 19.0086 5.99647 19.0086H12.992C14.2242 19.0086 15.3605 18.4403 16.104 17.5318L18.2577 19.685C18.6484 20.0752 19.316 20.1182 19.7067 19.728C20.0965 19.3367 20.0965 18.6804 19.7067 18.2892L16.5517 15.1315C16.19 14.7783 6.79196 5.36027 6.71501 5.28223L4.71628 3.28116C4.52041 3.08605 4.25358 3 3.99775 3ZM5.6387 7.04819L14.6789 16.085C14.3211 16.6393 13.6826 17.0075 12.992 17.0075H5.99647C4.89218 17.0075 3.99775 16.112 3.99775 15.0064V9.00322C3.99775 8.01969 4.70429 7.21628 5.6387 7.04819Z" fill="black"/>
<path d="M11 5C10.448 5 10 5.448 10 6C10 6.552 10.448 7 11 7H13C14.105 7 15 7.895 15 9V11C14.985 11.319 15.193 11.619 15.344 11.75L15.812 12.219C16.204 12.605 16.83 12.608 17.219 12.219L20 9.43799V16C20 16.552 20.448 17 21 17C21.552 17 22 16.552 22 16V7C22 6.555 21.723 6.20699 21.375 6.06299C21.027 5.91799 20.596 5.96601 20.281 6.28101L17 9.56299V9C17 6.791 15.209 5 13 5H11Z" fill="black" fill-opacity="0.4"/>
</svg>
