<svg width="24" height="24" viewBox="0 0 24 24" fill="none" xmlns="http://www.w3.org/2000/svg">
<path d="M3 1.9989C2.448 1.9983 2.001 2.4466 2 2.9989C1.999 3.5512 2.448 3.9983 3 3.9989C3.748 3.9997 4.214 4.3446 4.594 4.9677C4.774 5.2642 4.99399 5.9916 5.18799 6.9989C5.47999 8.5228 6.53101 13.8114 6.53101 13.8114C6.88701 15.5905 8.59301 16.9989 10.406 16.9989H16.562C18.376 16.9989 20.082 15.5905 20.438 13.8114C20.438 13.8114 22 6.381 22 5.9989C22 5.4466 21.552 4.9989 21 4.9989C20.689 4.9989 7.00801 5.0075 6.78101 4.9989C6.72801 4.8158 6.572 4.3669 6.344 3.9677C5.651 2.755 4.53 2.0006 3 1.9989Z" fill="black"/>
<path fill-rule="evenodd" clip-rule="evenodd" d="M9.5 22C10.3284 22 11 21.3284 11 20.5C11 19.6716 10.3284 19 9.5 19C8.67157 19 8 19.6716 8 20.5C8 21.3284 8.67157 22 9.5 22ZM17.5 22C18.3284 22 19 21.3284 19 20.5C19 19.6716 18.3284 19 17.5 19C16.6716 19 16 19.6716 16 20.5C16 21.3284 16.6716 22 17.5 22Z" fill="black" fill-opacity="0.4"/>
</svg>
