<svg width="24" height="24" viewBox="0 0 24 24" fill="none" xmlns="http://www.w3.org/2000/svg">
<path fill-rule="evenodd" clip-rule="evenodd" d="M3 2C2.44772 2 2 2.44772 2 3C2 3.55228 2.44772 4 3 4H4.11237C5.11278 4 5.95931 4.73919 6.09413 5.73048L7.1561 13.539C7.42573 15.5216 9.11879 17 11.1196 17H19C19.5523 17 20 16.5523 20 16C20 15.4477 19.5523 15 19 15H11.1196C10.1192 15 9.27267 14.2608 9.13786 13.2695L8.07588 5.46096C7.80625 3.47839 6.1132 2 4.11237 2H3ZM12 20.5C12 21.3284 11.3284 22 10.5 22C9.67157 22 9 21.3284 9 20.5C9 19.6716 9.67157 19 10.5 19C11.3284 19 12 19.6716 12 20.5ZM20 20.5C20 21.3284 19.3284 22 18.5 22C17.6716 22 17 21.3284 17 20.5C17 19.6716 17.6716 19 18.5 19C19.3284 19 20 19.6716 20 20.5Z" fill="black" fill-opacity="0.4"/>
<path d="M20.9785 4H7.02139C6.40021 4 5.92291 4.53855 6.01036 5.14078L6.65253 9.56312C6.93885 11.5349 8.66285 13 10.6967 13H17.1919C19.1887 13 20.8928 11.5863 21.2211 9.65759L21.9859 5.1644C22.0896 4.55487 21.6096 4 20.9785 4Z" fill="black"/>
</svg>
