<svg width="24" height="24" viewBox="0 0 24 24" fill="none" xmlns="http://www.w3.org/2000/svg">
<path fill-rule="evenodd" clip-rule="evenodd" d="M6.39085 13.5955C6.69723 12.7751 7.25304 12.1001 7.95249 11.6444C8.70004 12.4921 9.78757 13 10.9561 13H10.1205C9.2903 13 8.54718 13.5171 8.25568 14.2977L7.99344 15H19.0042C19.5542 15 20 15.4477 20 16C20 16.5523 19.5542 17 19.0042 17H7.99344C6.60287 17 5.64035 15.6053 6.12861 14.2978L6.39085 13.5955ZM9 20.5C9 21.3284 8.32843 22 7.5 22C6.67157 22 6 21.3284 6 20.5C6 19.6716 6.67157 19 7.5 19C8.32843 19 9 19.6716 9 20.5ZM20 20.5C20 21.3284 19.3284 22 18.5 22C17.6716 22 17 21.3284 17 20.5C17 19.6716 17.6716 19 18.5 19C19.3284 19 20 19.6716 20 20.5Z" fill="black" fill-opacity="0.4"/>
<path fill-rule="evenodd" clip-rule="evenodd" d="M2 3C2 2.44772 2.44804 2 3.00072 2H4.35182C5.14277 2 5.85952 2.46547 6.18076 3.18772L6.54203 4H19.9964C21.4333 4 22.402 5.4681 21.836 6.78784L20.2115 10.5757C19.5807 12.0464 18.1335 13 16.5323 13H10.9561C9.37417 13 7.94065 12.0691 7.29818 10.6246L4.35182 4H3.00072C2.44804 4 2 3.55228 2 3ZM7.43156 6L9.12712 9.81228C9.44836 10.5345 10.1651 11 10.9561 11H16.5323C17.3329 11 18.0565 10.5232 18.3719 9.78784L19.9964 6H7.43156Z" fill="black"/>
</svg>
