<svg width="24" height="24" viewBox="0 0 24 24" fill="none" xmlns="http://www.w3.org/2000/svg">
<path d="M2.01284 2.00003C1.45347 1.99553 1.00459 2.44773 1.00003 3.00003C0.995476 3.55233 1.45357 3.99553 2.01284 4.00003C2.75989 4.00603 3.35754 4.49993 3.81685 5.43753C4.24628 6.31403 4.37168 7.03533 4.38666 7.12503L5.58927 14.7812C5.95762 16.6045 7.70796 18 9.5456 18H16.7613C18.5996 18 20.3578 16.5916 20.7184 14.8125L21.953 6.68753C22.2396 5.27373 21.1823 4.00003 19.6742 4.00003H5.33606C4.57463 2.76113 3.41376 2.01123 2.01284 2.00003ZM6.22227 6.00003H19.6742C19.9041 6.00003 20.0034 6.12033 19.9588 6.34383L18.7242 14.4688C18.5611 15.2658 17.6344 16 16.7613 16H9.5456C8.67357 16 7.75425 15.2818 7.58329 14.4375L6.41228 6.81253C6.37693 6.59983 6.29519 6.26273 6.22227 6.00003Z" fill="black"/>
<path fill-rule="evenodd" clip-rule="evenodd" d="M8.5 22C9.32843 22 10 21.3284 10 20.5C10 19.6716 9.32843 19 8.5 19C7.67157 19 7 19.6716 7 20.5C7 21.3284 7.67157 22 8.5 22ZM17.5 22C18.3284 22 19 21.3284 19 20.5C19 19.6716 18.3284 19 17.5 19C16.6716 19 16 19.6716 16 20.5C16 21.3284 16.6716 22 17.5 22Z" fill="black" fill-opacity="0.4"/>
</svg>
