<svg width="24" height="24" viewBox="0 0 24 24" fill="none" xmlns="http://www.w3.org/2000/svg">
<path d="M5 11C4.4477 11 4 11.448 4 12V16C4 16.552 4.4477 17 5 17C5.5523 17 6 16.552 6 16V13H6.9688C7.521 13 7.9688 12.552 7.9688 12C7.9688 11.448 7.521 11 6.9688 11H5ZM19 11C18.4477 11 18 11.448 18 12V15H17C16.4477 15 16 15.448 16 16C16 16.552 16.4477 17 17 17H19C19.5523 17 20 16.552 20 16V12C20 11.448 19.5523 11 19 11ZM12 12C10.8954 12 10 12.895 10 14C10 15.105 10.8954 16 12 16C13.1046 16 14 15.105 14 14C14 12.895 13.1046 12 12 12Z" fill="black"/>
<path d="M3 4C2.4477 4 2 4.448 2 5C2 5.552 2.4477 6 3 6H21C21.5523 6 22 5.552 22 5C22 4.448 21.5523 4 21 4H3ZM4 8C2.3431 8 1 9.343 1 11V17C1 18.657 2.3431 20 4 20H20C21.6569 20 23 18.657 23 17V11C23 9.343 21.6569 8 20 8H4ZM4 9.99999H20C20.5523 9.99999 21 10.448 21 11V17C21 17.552 20.5523 18 20 18H4C3.4477 18 3 17.552 3 17V11C3 10.448 3.4477 9.99999 4 9.99999Z" fill="black" fill-opacity="0.4"/>
</svg>
