<svg width="24" height="24" viewBox="0 0 24 24" fill="none" xmlns="http://www.w3.org/2000/svg">
<path d="M18 3.9978C20.209 3.9978 22 5.78756 22 7.99504V19.9867C22 20.8102 21.066 21.2928 20.406 20.7982L16.656 17.9881H6C3.791 17.9881 2 16.1984 2 13.9909V7.99504C2 5.78756 3.791 3.9978 6 3.9978H18ZM18 5.99642H6C4.895 5.99642 4 6.8908 4 7.99504V13.9909C4 15.0951 4.895 15.9895 6 15.9895H17C17.216 15.9895 17.421 16.0475 17.594 16.1774L20 17.9881V7.99504C20 6.8908 19.105 5.99642 18 5.99642Z" fill="black" fill-opacity="0.4"/>
<path fill-rule="evenodd" clip-rule="evenodd" d="M15 11C15 11.5523 15.4477 12 16 12C16.5523 12 17 11.5523 17 11C17 10.4477 16.5523 10 16 10C15.4477 10 15 10.4477 15 11ZM11 11C11 11.5523 11.4477 12 12 12C12.5523 12 13 11.5523 13 11C13 10.4477 12.5523 10 12 10C11.4477 10 11 10.4477 11 11ZM8 12C7.44771 12 7 11.5523 7 11C7 10.4477 7.44771 10 8 10C8.55229 10 9 10.4477 9 11C9 11.5523 8.55229 12 8 12Z" fill="black"/>
</svg>
