<svg width="24" height="24" viewBox="0 0 24 24" fill="none" xmlns="http://www.w3.org/2000/svg">
<path d="M11.5643 14.0081C11.2744 13.5999 11.0445 13.2516 10.8425 12.9486L9.84556 11.4486C9.53956 10.9886 8.90055 10.8606 8.44255 11.1666C7.98455 11.4736 7.85654 12.1136 8.16154 12.5726L9.15956 14.0726C10.0596 15.4266 11.8156 15.5986 12.9626 14.4486C12.5 14.5081 12 14.6213 11.5643 14.0081Z" fill="black" fill-opacity="0.4"/>
<path d="M15.9912 9C15.7362 9 15.4692 9.08601 15.2742 9.281L11.5642 13.031C11.3072 13.289 11.0809 13.303 10.8789 13C10.8789 13 11.2759 13.5909 11.5642 14C12 14.6185 12.5 14.5 12.9672 14.438L16.7082 10.719C17.0972 10.328 17.0972 9.672 16.7082 9.281C16.5132 9.08601 16.2462 9 15.9912 9Z" fill="black"/>
</svg>
