<svg width="24" height="24" viewBox="0 0 24 24" fill="none" xmlns="http://www.w3.org/2000/svg">
<path d="M5.82601 6.0405C5.57638 6.09032 5.32375 6.21786 5.17097 6.44607C4.86542 6.90148 4.99421 7.54326 5.45254 7.8472L11.4437 11.8333C11.7782 12.0556 12.2316 12.0556 12.5661 11.8333L18.5572 7.8472C19.0156 7.54326 19.1443 6.90148 18.8388 6.44607C18.5332 5.98965 17.8922 5.86112 17.4349 6.16506L12.0049 9.77749L6.57491 6.16506C6.34624 6.01359 6.07664 5.99067 5.82601 6.0405Z" fill="black" fill-opacity="0.4"/>
<path d="M5.82113 12.0405C5.5715 12.0903 5.31886 12.2179 5.16609 12.4461C4.86054 12.9015 4.98933 13.5433 5.44766 13.8472L11.4388 17.8333C11.7733 18.0556 12.2267 18.0556 12.5612 17.8333L18.5523 13.8472C19.0107 13.5433 19.1395 12.9015 18.8339 12.4461C18.5284 11.9897 17.8873 11.8611 17.43 12.1651L12 15.7775L6.57002 12.1651C6.34136 12.0136 6.07176 11.9907 5.82113 12.0405Z" fill="black"/>
</svg>
