<svg width="24" height="24" viewBox="0 0 24 24" fill="none" xmlns="http://www.w3.org/2000/svg">
<path d="M16.9595 5.82787C16.9097 5.57767 16.7821 5.32447 16.5539 5.17135C16.0985 4.86511 15.4567 4.99419 15.1528 5.45355L11.1667 11.4263C10.9444 11.7625 10.9444 12.2169 11.1667 12.5522L15.1528 18.5569C15.4567 19.0163 16.0985 19.1444 16.5539 18.8381C17.0103 18.5329 17.1389 17.8904 16.8349 17.431L13.2225 11.9897L16.8349 6.57846C16.9864 6.34928 17.0093 6.07907 16.9595 5.82787Z" fill="black"/>
<path fill-rule="evenodd" clip-rule="evenodd" d="M8 5C8.55228 5 9 5.44772 9 6V18C9 18.5523 8.55228 19 8 19C7.44772 19 7 18.5523 7 18L7 6C7 5.44772 7.44772 5 8 5Z" fill="black" fill-opacity="0.4"/>
</svg>
