<svg width="24" height="24" viewBox="0 0 24 24" fill="none" xmlns="http://www.w3.org/2000/svg">
<path d="M2.82171 5.04079C2.57197 5.09065 2.31925 5.2173 2.16641 5.4467C1.86073 5.90349 1.9886 6.5438 2.44811 6.849L11.4386 12.8332C11.7732 13.0556 12.2268 13.0556 12.5614 12.8332L21.5519 6.849C22.0114 6.5438 22.1393 5.90349 21.8336 5.4467C21.5279 4.9889 20.8876 4.86126 20.4291 5.16546L12 10.7756L3.57091 5.16546C3.34216 5.01386 3.07244 4.99092 2.82171 5.04079Z" fill="black" fill-opacity="0.4"/>
<path d="M2.82171 11.0408C2.57197 11.0907 2.31925 11.2173 2.16641 11.4467C1.86073 11.9035 1.9886 12.5438 2.44811 12.849L11.4386 18.8332C11.7732 19.0556 12.2268 19.0556 12.5614 18.8332L21.5519 12.849C22.0114 12.5438 22.1393 11.9035 21.8336 11.4467C21.5279 10.9889 20.8876 10.8613 20.4291 11.1655L12 16.7756L3.57091 11.1655C3.34216 11.0139 3.07244 10.9909 2.82171 11.0408Z" fill="black"/>
</svg>
