<svg width="24" height="24" viewBox="0 0 24 24" fill="none" xmlns="http://www.w3.org/2000/svg">
<path d="M5.82601 17.9595C5.57638 17.9097 5.32375 17.7821 5.17097 17.5539C4.86542 17.0985 4.99421 16.4567 5.45254 16.1528L11.4437 12.1667C11.7782 11.9444 12.2316 11.9444 12.5661 12.1667L18.5572 16.1528C19.0156 16.4567 19.1443 17.0985 18.8388 17.5539C18.5332 18.0103 17.8922 18.1389 17.4349 17.8349L12.0049 14.2225L6.57491 17.8349C6.34624 17.9864 6.07664 18.0093 5.82601 17.9595Z" fill="black" fill-opacity="0.4"/>
<path d="M5.82113 11.9595C5.5715 11.9097 5.31886 11.7821 5.16609 11.5539C4.86054 11.0985 4.98933 10.4567 5.44766 10.1528L11.4388 6.16667C11.7733 5.94444 12.2267 5.94444 12.5612 6.16667L18.5523 10.1528C19.0107 10.4567 19.1395 11.0985 18.8339 11.5539C18.5284 12.0103 17.8873 12.1389 17.43 11.8349L12 8.22251L6.57002 11.8349C6.34136 11.9864 6.07176 12.0093 5.82113 11.9595Z" fill="black"/>
</svg>
