<svg width="24" height="24" viewBox="0 0 24 24" fill="none" xmlns="http://www.w3.org/2000/svg">
<path d="M15.9556 2.82163C15.9056 2.57163 15.7786 2.31963 15.5506 2.16663C15.0936 1.86063 14.4526 1.98864 14.1476 2.44764L8.16362 11.4376C7.94062 11.7736 7.94062 12.2266 8.16362 12.5616L14.1476 21.5527C14.4526 22.0117 15.0936 22.1397 15.5506 21.8337C16.0076 21.5277 16.1356 20.8877 15.8306 20.4287L10.2206 11.9997L15.8306 3.57164C15.9836 3.34163 16.0056 3.07263 15.9556 2.82163Z" fill="black" fill-opacity="0.4"/>
<path d="M10.2388 8.27344L8.16648 11.4382C7.94348 11.7742 7.94348 12.2272 8.16648 12.5622L10.2388 15.6158V8.27344Z" fill="black"/>
</svg>
