<svg width="24" height="24" viewBox="0 0 24 24" fill="none" xmlns="http://www.w3.org/2000/svg">
<path d="M2.82171 18.9592C2.57197 18.9093 2.31925 18.7827 2.16641 18.5533C1.86073 18.0965 1.9886 17.4562 2.44811 17.151L11.4386 11.1668C11.7732 10.9444 12.2268 10.9444 12.5614 11.1668L21.5519 17.151C22.0114 17.4562 22.1393 18.0965 21.8336 18.5533C21.5279 19.0111 20.8876 19.1387 20.4291 18.8345L12 13.2244L3.57091 18.8345C3.34216 18.9861 3.07244 19.0091 2.82171 18.9592Z" fill="black" fill-opacity="0.4"/>
<path d="M2.82171 12.9592C2.57197 12.9093 2.31925 12.7827 2.16641 12.5533C1.86073 12.0965 1.9886 11.4562 2.44811 11.151L11.4386 5.16681C11.7732 4.9444 12.2268 4.9444 12.5614 5.16681L21.5519 11.151C22.0114 11.4562 22.1393 12.0965 21.8336 12.5533C21.5279 13.0111 20.8876 13.1387 20.4291 12.8345L12 7.22436L3.57091 12.8345C3.34216 12.9861 3.07244 13.0091 2.82171 12.9592Z" fill="black"/>
</svg>
