<svg width="24" height="24" viewBox="0 0 24 24" fill="none" xmlns="http://www.w3.org/2000/svg">
<path fill-rule="evenodd" clip-rule="evenodd" d="M3 7C3 4.79086 4.79086 3 7 3H17C19.2091 3 21 4.79086 21 7V17C21 19.2091 19.2091 21 17 21H7C4.79086 21 3 19.2091 3 17V7Z" fill="black" fill-opacity="0.4"/>
<path fill-rule="evenodd" clip-rule="evenodd" d="M8 2C8.55228 2 9 2.44772 9 3V5C9 5.55228 9.44772 6 10 6H14C14.5523 6 15 5.55228 15 5V3C15 2.44772 15.4477 2 16 2C16.5523 2 17 2.44772 17 3V5C17 6.65685 15.6569 8 14 8H10C8.34315 8 7 6.65685 7 5V3C7 2.44772 7.44772 2 8 2Z" fill="black"/>
</svg>
