<svg width="24" height="24" viewBox="0 0 24 24" fill="none" xmlns="http://www.w3.org/2000/svg">
<path fill-rule="evenodd" clip-rule="evenodd" d="M7.17449 6H6C3.79086 6 2 7.79086 2 10V18C2 20.2091 3.79086 22 6 22H18C20.2091 22 22 20.2091 22 18V10C22 7.79086 20.2091 6 18 6H16.8378C16.943 6.31013 17 6.64601 17 7C17 8.7116 15.6671 10 14 10H10C8.33841 10 7 8.65191 7 7C7 6.6489 7.06181 6.31241 7.17449 6Z" fill="black" fill-opacity="0.4"/>
<path fill-rule="evenodd" clip-rule="evenodd" d="M12 4C11.4399 4 11 4.45994 11 5C11 5.55228 10.5523 6 10 6C9.47243 6 9 6.4611 9 7C9 7.55116 9.44679 8 10 8H14C14.5802 8 15 7.58939 15 7C15 6.41061 14.5802 6 14 6C13.4477 6 13 5.55228 13 5C13 4.40889 12.5848 4 12 4ZM9.12902 4.13293C9.49696 2.92287 10.6148 2 12 2C13.3758 2 14.5132 2.8695 14.8775 4.12471C16.1112 4.48691 17 5.60236 17 7C17 8.7116 15.6671 10 14 10H10C8.33841 10 7 8.65191 7 7C7 5.64628 7.91888 4.50984 9.12902 4.13293Z" fill="black"/>
</svg>
