<svg width="24" height="24" viewBox="0 0 24 24" fill="none" xmlns="http://www.w3.org/2000/svg">
<path fill-rule="evenodd" clip-rule="evenodd" d="M3 7C3 4.79086 4.79086 3 7 3H17C19.2091 3 21 4.79086 21 7V17C21 19.2091 19.2091 21 17 21H7C4.79086 21 3 19.2091 3 17V7ZM7 5C5.89543 5 5 5.89543 5 7V17C5 18.1046 5.89543 19 7 19H17C18.1046 19 19 18.1046 19 17V7C19 5.89543 18.1046 5 17 5H7Z" fill="black" fill-opacity="0.4"/>
<path fill-rule="evenodd" clip-rule="evenodd" d="M9 3C9 2.44772 8.55228 2 8 2C7.44772 2 7 2.44772 7 3V6C7 7.65685 8.34315 9 10 9H14C15.6569 9 17 7.65685 17 6V3C17 2.44772 16.5523 2 16 2C15.4477 2 15 2.44772 15 3V6C15 6.55228 14.5523 7 14 7H10C9.44772 7 9 6.55228 9 6V3ZM10 13C9.44772 13 9 13.4477 9 14C9 14.5523 9.44772 15 10 15H14C14.5523 15 15 14.5523 15 14C15 13.4477 14.5523 13 14 13H10Z" fill="black"/>
</svg>
