<svg width="24" height="24" viewBox="0 0 24 24" fill="none" xmlns="http://www.w3.org/2000/svg">
<path d="M11.9808 13.7799C11.3873 13.7799 11.0401 13.8739 10.5417 14.1239C10.0504 14.3709 9.827 14.9738 10.0724 15.4678C10.3186 15.9608 10.926 16.1519 11.4174 15.9049C11.6635 15.7819 11.7446 15.7489 11.9808 15.7489C12.2159 15.7489 12.296 15.7809 12.5432 15.9049C13.0355 16.1519 13.642 15.9608 13.8881 15.4678C14.1343 14.9738 13.9612 14.4019 13.4188 14.1239C12.9214 13.8689 12.5742 13.7799 11.9808 13.7799ZM5.69473 13.8109C5.45256 13.8899 5.22349 14.0649 5.10061 14.3109C4.85473 14.8049 5.07799 15.4079 5.56964 15.6549C6.0676 15.9049 6.41525 15.9989 7.00818 15.9989C7.6018 15.9989 7.94926 15.9099 8.44671 15.6549C8.9891 15.3779 9.13031 14.8049 8.88453 14.3109C8.63885 13.8179 8.06284 13.6269 7.57108 13.8739C7.324 13.9979 7.24395 14.0299 7.00818 14.0299C6.77271 14.0299 6.69085 13.9969 6.44527 13.8739C6.19939 13.7509 5.9369 13.7329 5.69473 13.8109ZM14.9829 17.7799C14.3895 17.7799 14.0422 17.8739 13.5439 18.1239C13.0525 18.3709 12.8294 18.9738 13.0745 19.4678C13.3207 19.9608 13.9282 20.1519 14.4195 19.9049C14.6657 19.7819 14.7468 19.7489 14.9829 19.7489C15.2181 19.7489 15.2982 19.7809 15.5453 19.9049C16.0377 20.1519 16.6441 19.9608 16.8903 19.4678C17.1365 18.9738 16.9634 18.4019 16.421 18.1239C15.9236 17.8689 15.5764 17.7799 14.9829 17.7799ZM8.69689 17.8109C8.45472 17.8899 8.22566 18.0649 8.10277 18.3109C7.85689 18.8049 8.08015 19.4079 8.5718 19.6549C9.06976 19.9049 9.41741 19.9989 10.0103 19.9989C10.6038 19.9989 10.951 19.9099 11.4494 19.6549C11.9918 19.3779 12.1329 18.8049 11.8867 18.3109C11.6405 17.8179 11.0651 17.6269 10.5727 17.8739C10.3266 17.9979 10.2465 18.0299 10.0103 18.0299C9.77487 18.0299 9.69301 17.9969 9.44743 17.8739C9.20156 17.7509 8.93907 17.7329 8.69689 17.8109Z" fill="black" fill-opacity="0.4"/>
<path d="M12.5 2C9.9685 2 7.8744 3.66301 7.1875 6.031C4.8266 6.169 3 8.104 3 10.5C3 10.711 3.0023 10.918 3.0312 11.125C3.1077 11.672 3.6406 12.045 4.1875 11.969C4.7345 11.892 5.1076 11.391 5.0312 10.844C5.0152 10.729 5 10.618 5 10.5C5 9.119 6.1193 8 7.5 8C7.5793 8 7.9163 8 8 8C8.4976 8 8.9296 7.649 9 7.156C9.2612 5.329 10.7 4 12.5 4C14.433 4 16 5.567 16 7.5C16 7.852 16 8.329 16 9C16 9.552 16.448 10 17 10C17.008 10 17.187 10 17.5 10C18.328 10 19 10.672 19 11.5C19 12.328 18.328 13 17.5 13H17C16.448 13 16 13.448 16 14C16 14.552 16.448 15 17 15H17.5C19.433 15 21 13.433 21 11.5C21 9.742 19.689 8.28 18 8.031C18 7.849 18 7.639 18 7.5C18 4.462 15.538 2 12.5 2Z" fill="black"/>
</svg>
