<svg width="24" height="24" viewBox="0 0 24 24" fill="none" xmlns="http://www.w3.org/2000/svg">
<path d="M7 15.9989C6.4477 15.9989 6 16.4469 6 16.9989C5.4477 16.9989 5 17.4469 5 17.9989C5 18.5509 5.4477 18.9989 6 18.9989C6 19.5509 6.4477 19.9989 7 19.9989C7.5523 19.9989 8 19.5509 8 18.9989C8.5523 18.9989 9 18.5509 9 17.9989C9 17.4469 8.5523 16.9989 8 16.9989C8 16.4469 7.5523 15.9989 7 15.9989ZM17 15.9989C16.448 15.9989 16 16.4469 16 16.9989C15.448 16.9989 15 17.4469 15 17.9989C15 18.5509 15.448 18.9989 16 18.9989C16 19.5509 16.448 19.9989 17 19.9989C17.552 19.9989 18 19.5509 18 18.9989C18.552 18.9989 19 18.5509 19 17.9989C19 17.4469 18.552 16.9989 18 16.9989C18 16.4469 17.552 15.9989 17 15.9989ZM12 17.9989C11.448 17.9989 11 18.4469 11 18.9989C10.448 18.9989 10 19.4469 10 19.9989C10 20.5509 10.448 20.9989 11 20.9989C11 21.5509 11.448 21.9989 12 21.9989C12.552 21.9989 13 21.5509 13 20.9989C13.552 20.9989 14 20.5509 14 19.9989C14 19.4469 13.552 18.9989 13 18.9989C13 18.4469 12.552 17.9989 12 17.9989Z" fill="black" fill-opacity="0.4"/>
<path d="M12.5 2C9.9685 2 7.9369 3.69401 7.25 6.06201C4.8891 6.20101 3 8.104 3 10.5C3 12.985 5.0147 15 7.5 15C9.3078 15 16.492 15 17.5 15C19.433 15 21 13.433 21 11.5C21 9.742 19.689 8.34299 18 8.09399C18 7.91099 18 7.639 18 7.5C18 4.462 15.538 2 12.5 2Z" fill="black"/>
</svg>
