<svg width="24" height="24" viewBox="0 0 24 24" fill="none" xmlns="http://www.w3.org/2000/svg">
<path fill-rule="evenodd" clip-rule="evenodd" d="M7.79089 5.49801C8.97807 4.56101 10.449 4.01001 12.007 3.99801C15.7953 3.96801 19.0321 7.16202 19.0021 10.998C19.0021 11.0027 19.0022 11.0143 19.0022 11.0311C19.0027 11.1068 19.0037 11.2895 19.0021 11.436C20.7499 12.149 22 13.683 22 15.498C22 16.632 21.5393 17.622 20.7819 18.404C20.6759 18.344 7.79089 5.49801 7.79089 5.49801ZM7.49618 20H16.5854C15.1229 18.5362 13.8698 17.2759 12.6906 16.09C10.3183 13.7043 8.2459 11.6201 5.37265 8.78674C5.28246 9.03426 5.2045 9.28629 5.13911 9.54151C3.11822 10.3998 2 12.4288 2 14.5C2 15.7119 2.5266 17.0645 3.43941 18.1146C4.36959 19.1846 5.75525 20 7.49618 20Z" fill="black" fill-opacity="0.4"/>
<path fill-rule="evenodd" clip-rule="evenodd" d="M4.29289 6.29289C4.68342 5.90237 5.31658 5.90237 5.70711 6.29289L18.7071 19.2929C19.0976 19.6834 19.0976 20.3166 18.7071 20.7071C18.3166 21.0976 17.6834 21.0976 17.2929 20.7071L4.29289 7.70711C3.90237 7.31658 3.90237 6.68342 4.29289 6.29289Z" fill="black"/>
</svg>
