<svg width="24" height="24" viewBox="0 0 24 24" fill="none" xmlns="http://www.w3.org/2000/svg">
<path d="M5.69429 17.0612C5.45154 17.1425 5.22377 17.3161 5.10089 17.563L4.60141 18.5666C4.35467 19.0624 4.57644 19.6676 5.06893 19.9155C5.56242 20.1634 6.1648 19.9415 6.41155 19.4457L6.91103 18.4421C7.15777 17.9463 6.936 17.3412 6.44351 17.0933C6.19677 16.9688 5.93604 16.9799 5.69429 17.0612ZM9.69014 17.0612C9.44739 17.1425 9.21962 17.3161 9.09675 17.563L7.5983 20.5738C7.35156 21.0696 7.57233 21.6437 8.06582 21.8916C8.55931 22.1395 9.16169 21.9488 9.40844 21.453L10.9069 18.4421C11.1536 17.9463 10.9319 17.3402 10.4394 17.0933C10.1926 16.9688 9.93189 16.9799 9.69014 17.0612ZM13.686 17.0612C13.4432 17.1425 13.2155 17.3161 13.0926 17.563L12.5931 18.5666C12.3464 19.0624 12.5681 19.6686 13.0606 19.9155C13.5541 20.1634 14.1565 19.9415 14.4033 19.4457L14.9027 18.4421C15.1495 17.9463 14.9277 17.3402 14.4352 17.0933C14.1885 16.9688 13.9277 16.9799 13.686 17.0612ZM17.6818 17.0612C17.4391 17.1425 17.2113 17.3161 17.0885 17.563L15.621 20.5427C15.3742 21.0385 15.564 21.6437 16.0575 21.8916C16.551 22.1395 17.1534 21.9488 17.4001 21.453L18.8986 18.4421C19.1453 17.9463 18.9236 17.3402 18.4311 17.0933C18.1843 16.9688 17.9236 16.9799 17.6818 17.0612Z" fill="black" fill-opacity="0.4"/>
<path d="M12.5 2C9.969 2 7.937 3.69401 7.25 6.06201C4.889 6.20101 3 8.104 3 10.5C3 12.985 5.015 15 7.5 15C9.308 15 16.492 15 17.5 15C19.433 15 21 13.433 21 11.5C21 9.742 19.689 8.34299 18 8.09399C18 7.91099 18 7.639 18 7.5C18 4.462 15.537 2 12.5 2Z" fill="black"/>
</svg>
