<svg width="24" height="24" viewBox="0 0 24 24" fill="none" xmlns="http://www.w3.org/2000/svg">
<path d="M6 10.9984C4.343 10.9984 3 12.3414 3 13.9984V17.9984C3 19.6554 4.343 20.9984 6 20.9984H18C19.657 20.9984 21 19.6554 21 17.9984V13.9984C21 12.3414 19.657 10.9984 18 10.9984H6Z" fill="black"/>
<path fill-rule="evenodd" clip-rule="evenodd" d="M6 3C5.44772 3 5 3.44772 5 4C5 4.55228 5.44772 5 6 5H18C18.5523 5 19 4.55228 19 4C19 3.44772 18.5523 3 18 3H6ZM5 7C4.44772 7 4 7.44772 4 8C4 8.55228 4.44772 9 5 9H19C19.5523 9 20 8.55228 20 8C20 7.44772 19.5523 7 19 7H5Z" fill="black" fill-opacity="0.4"/>
</svg>
