<svg width="24" height="24" viewBox="0 0 24 24" fill="none" xmlns="http://www.w3.org/2000/svg">
<path fill-rule="evenodd" clip-rule="evenodd" d="M4 21C4 20.4477 4.44772 20 5 20H19C19.5523 20 20 20.4477 20 21C20 21.5523 19.5523 22 19 22H5C4.44772 22 4 21.5523 4 21Z" fill="black" fill-opacity="0.4"/>
<path d="M12 2C11.4244 2 10.8477 2.48607 10.5949 3.43423L7.03406 16.7524C6.86516 17.3862 7.34586 18 8.00246 18C9.00184 18 14.9982 18 15.9975 18C16.6541 18 17.1348 17.3862 16.9659 16.7524L13.4051 3.43423C13.1523 2.48607 12.5756 2 12 2ZM12 5.9294L14.6863 16.0039C13.0933 16.0039 10.9067 16.0039 9.31366 16.0039L12 5.9294Z" fill="black"/>
</svg>
