<svg width="24" height="24" viewBox="0 0 24 24" fill="none" xmlns="http://www.w3.org/2000/svg">
<path fill-rule="evenodd" clip-rule="evenodd" d="M11.656 5.25275C11.703 5.10238 11.8422 5 11.9998 5C12.1573 5 12.2966 5.10238 12.3436 5.25276L16.6396 19H7.35997L11.656 5.25275ZM5.97706 21C5.99244 21.0004 6.00779 21.0004 6.02309 21H17.9765C17.9918 21.0004 18.0071 21.0004 18.0225 21H20C20.5523 21 21 20.5523 21 20C21 19.4477 20.5523 19 20 19H18.735L14.2525 4.65621C13.9446 3.67088 13.0321 3 11.9998 3C10.9675 3 10.0549 3.67088 9.74702 4.6562L5.26459 19H4C3.44772 19 3 19.4477 3 20C3 20.5523 3.44772 21 4 21H5.97706Z" fill="black" fill-opacity="0.4"/>
<path fill-rule="evenodd" clip-rule="evenodd" d="M10.1724 10L9.54736 12H14.452L13.827 10H10.1724ZM8.92236 14L8.29736 16H15.702L15.077 14H8.92236Z" fill="black"/>
</svg>
