<svg width="24" height="24" viewBox="0 0 24 24" fill="none" xmlns="http://www.w3.org/2000/svg">
<path d="M12 2C11.4249 2 10.8487 2.48657 10.5961 3.43572L9.28508 8.40024C9.64754 8.97572 10.5661 9.52423 11.969 9.52423C13.4298 9.52423 14.4014 8.93977 14.7149 8.33731L13.4039 3.43572C13.1513 2.48657 12.5751 2 12 2ZM16.3375 14.4578C15.0035 15.0872 13.5517 15.5188 11.969 15.5188C10.4114 15.5188 8.98054 15.0972 7.66252 14.4888L7.25712 15.9874L4.60509 17.1114C3.7983 17.4571 3.7983 18.5761 4.60509 18.9218C5.47878 19.2964 10.7209 21.5444 11.5946 21.9191C11.8452 22.027 12.1548 22.027 12.4054 21.9191L19.3949 18.9218C20.2017 18.5761 20.2017 17.4571 19.3949 17.1114L16.7429 15.9874L16.3375 14.4578Z" fill="black"/>
<path d="M15.3072 10.6172C14.4095 11.1807 13.2483 11.5224 11.9692 11.5224C10.7171 11.5224 9.58476 11.1907 8.6931 10.6482L8.19385 12.4905C9.31616 13.085 10.5533 13.5206 11.9692 13.5206C13.399 13.5206 14.6721 13.071 15.8064 12.4595L15.3072 10.6172Z" fill="black" fill-opacity="0.4"/>
</svg>
