<svg width="24" height="24" viewBox="0 0 24 24" fill="none" xmlns="http://www.w3.org/2000/svg">
<path d="M8.1875 3.9978C4.7784 3.9978 2 6.77579 2 10.1858V15.9978C2 18.2068 3.7908 19.9978 6 19.9978C7.414 19.9978 8.7486 19.2078 9.4688 17.9978C10.311 17.9958 13.536 18.0018 14.531 17.9978C15.196 19.1948 16.592 19.9978 18 19.9978C20.209 19.9978 22 18.2068 22 15.9978V10.1858C22 6.77579 19.222 3.9978 15.812 3.9978H8.1875Z" fill="black" fill-opacity="0.4"/>
<path d="M8 9C7.4477 9 7 9.448 7 10V11H6C5.4477 11 5 11.448 5 12C5 12.552 5.4477 13 6 13H7V14C7 14.552 7.4477 15 8 15C8.5523 15 9 14.552 9 14V13H10C10.552 13 11 12.552 11 12C11 11.448 10.552 11 10 11H9V10C9 9.448 8.5523 9 8 9ZM16 9C15.448 9 15 9.448 15 10C15 10.552 15.448 11 16 11C16.552 11 17 10.552 17 10C17 9.448 16.552 9 16 9ZM14 11C13.448 11 13 11.448 13 12C13 12.552 13.448 13 14 13C14.552 13 15 12.552 15 12C15 11.448 14.552 11 14 11ZM18 11C17.448 11 17 11.448 17 12C17 12.552 17.448 13 18 13C18.552 13 19 12.552 19 12C19 11.448 18.552 11 18 11ZM16 13C15.448 13 15 13.448 15 14C15 14.552 15.448 15 16 15C16.552 15 17 14.552 17 14C17 13.448 16.552 13 16 13Z" fill="#231C24"/>
</svg>
