<svg width="24" height="24" viewBox="0 0 24 24" fill="none" xmlns="http://www.w3.org/2000/svg">
<path d="M7.0312 3.9978C4.8836 3.9978 2.8968 5.54981 2.5312 7.55981L1.0312 15.8098L1 15.9978C1 18.2068 2.7909 19.9978 5 19.9978C6.404 19.9978 7.8359 19.2388 8.625 17.9978C9.1113 17.9938 14.6887 17.9948 15.375 17.9978C16.0357 19.1778 17.5691 19.9978 19 19.9978C21.2091 19.9978 23 18.2068 23 15.9978L22.9688 15.8098L21.4688 7.55981C21.1032 5.54981 19.1164 3.9978 16.9688 3.9978C15.7266 3.9978 8.2734 3.9978 7.0312 3.9978ZM7.0312 5.9978C8.2734 5.9978 15.7266 5.9978 16.9688 5.9978C18.1766 5.9978 19.3439 6.90479 19.5312 7.93579L21 15.9978C21 17.1028 20.1046 17.9978 19 17.9978C18.0947 17.9978 17.2003 17.3988 16.9375 16.6538C16.7963 16.2538 16.4243 15.9968 16 15.9978C15.8201 15.9978 8.5138 15.9738 7.9688 15.9978C7.5685 16.0158 7.2031 16.2788 7.0625 16.6538C6.7841 17.3968 5.8739 17.9978 5 17.9978C3.8954 17.9978 3 17.1028 3 15.9978L4.4688 7.93579C4.6561 6.90479 5.8234 5.9978 7.0312 5.9978Z" fill="black" fill-opacity="0.4"/>
<path d="M8 8C7.4477 8 7 8.448 7 9V10H6C5.4477 10 5 10.448 5 11C5 11.552 5.4477 12 6 12H7V13C7 13.552 7.4477 14 8 14C8.5523 14 9 13.552 9 13V12H10C10.5523 12 11 11.552 11 11C11 10.448 10.5523 10 10 10H9V9C9 8.448 8.5523 8 8 8ZM16 8C15.4477 8 15 8.448 15 9C15 9.552 15.4477 10 16 10C16.5523 10 17 9.552 17 9C17 8.448 16.5523 8 16 8ZM14 10C13.4477 10 13 10.448 13 11C13 11.552 13.4477 12 14 12C14.5523 12 15 11.552 15 11C15 10.448 14.5523 10 14 10ZM18 10C17.4477 10 17 10.448 17 11C17 11.552 17.4477 12 18 12C18.5523 12 19 11.552 19 11C19 10.448 18.5523 10 18 10ZM16 12C15.4477 12 15 12.448 15 13C15 13.552 15.4477 14 16 14C16.5523 14 17 13.552 17 13C17 12.448 16.5523 12 16 12Z" fill="black"/>
</svg>
