<svg width="24" height="24" viewBox="0 0 24 24" fill="none" xmlns="http://www.w3.org/2000/svg">
<path d="M5 3.9978C3.3431 3.9978 2 5.3408 2 6.9978V16.9978C2 18.6548 3.3431 19.9978 5 19.9978H19C20.657 19.9978 22 18.6548 22 16.9978V6.9978C22 5.3408 20.657 3.9978 19 3.9978H5ZM5 5.9978H19C19.552 5.9978 20 6.4458 20 6.9978V16.9978C20 17.5498 19.552 17.9978 19 17.9978H5C4.4477 17.9978 4 17.5498 4 16.9978V6.9978C4 6.4458 4.4477 5.9978 5 5.9978Z" fill="black" fill-opacity="0.4"/>
<path d="M7 8C6.4477 8 6 8.448 6 9C6 9.552 6.4477 10 7 10H9C9.5523 10 10 9.552 10 9C10 8.448 9.5523 8 9 8H7ZM7 11C6.4477 11 6 11.448 6 12C6 12.552 6.4477 13 7 13H12C12.552 13 13 12.552 13 12C13 11.448 12.552 11 12 11H7ZM7 14C6.4477 14 6 14.448 6 15C6 15.552 6.4477 16 7 16H8C8.5523 16 9 15.552 9 15C9 14.448 8.5523 14 8 14H7ZM11 14C10.448 14 10 14.448 10 15C10 15.552 10.448 16 11 16H12C12.552 16 13 15.552 13 15C13 14.448 12.552 14 12 14H11ZM15 14C14.448 14 14 14.448 14 15C14 15.552 14.448 16 15 16H16C16.552 16 17 15.552 17 15C17 14.448 16.552 14 16 14H15Z" fill="black"/>
</svg>
