<svg width="24" height="24" viewBox="0 0 24 24" fill="none" xmlns="http://www.w3.org/2000/svg">
<path fill-rule="evenodd" clip-rule="evenodd" d="M2 17.0022C2 18.6592 3.343 20.0022 5 20.0022H19C20.657 20.0022 22 18.6592 22 17.0022V10.0022H2V17.0022ZM6.98584 12C6.43356 12 5.98584 12.4477 5.98584 13V15C5.98584 15.5523 6.43356 16 6.98584 16H8.98584C9.53812 16 9.98584 15.5523 9.98584 15V13C9.98584 12.4477 9.53812 12 8.98584 12H6.98584Z" fill="black" fill-opacity="0.4"/>
<path d="M2 8V7C2 5.343 3.343 4 5 4H19C20.657 4 22 5.343 22 7V8H2Z" fill="black"/>
</svg>
