<svg width="24" height="24" viewBox="0 0 24 24" fill="none" xmlns="http://www.w3.org/2000/svg">
<path d="M14.3867 7.99731H15.9698L15.0669 19.0283C15.03 19.5643 14.5357 19.9973 14.0076 19.9973H9.80338C9.27559 19.9973 8.77959 19.5503 8.74451 19.0283L8.02827 7.99731H9.99033C10.5474 7.99731 10.9869 7.55031 10.9869 6.99731C10.9869 6.44431 10.5474 5.99731 9.99033 5.99731H7.8725C6.78793 5.99731 5.93485 6.89331 6.00392 7.96631L6.72026 19.1533C6.8262 20.7293 8.21274 21.9973 9.80338 21.9973H14.0076C15.5981 21.9973 16.9853 20.7263 17.091 19.1533L17.9939 7.96631C18.0816 6.88831 17.2165 5.99731 16.1253 5.99731H15.0508L14.3867 7.99731Z" fill="black" fill-opacity="0.4"/>
<path fill-rule="evenodd" clip-rule="evenodd" d="M18.9485 1.6838C19.1231 2.20774 18.84 2.77406 18.316 2.94871L15.7904 3.7906L13.9485 9.31625C13.7738 9.8402 13.2075 10.1234 12.6836 9.94871C12.1596 9.77406 11.8765 9.20774 12.0511 8.6838L14.2092 2.20946L17.6836 1.05134C18.2075 0.876696 18.7738 1.15986 18.9485 1.6838Z" fill="black"/>
</svg>
