<svg width="24" height="24" viewBox="0 0 24 24" fill="none" xmlns="http://www.w3.org/2000/svg">
<path d="M5 3.9978C3.343 3.9978 2 5.3409 2 6.9978V13.9978C2 15.6547 3.343 16.9978 5 16.9978C6.98584 16.9978 17.9858 16.9978 19 16.9978C20.657 16.9978 22 15.6547 22 13.9978V6.9978C22 5.3409 20.657 3.9978 19 3.9978H5ZM5 5.9978H19C19.552 5.9978 20 6.4455 20 6.9978V13.9978C20 14.5501 19.552 14.9978 19 14.9978H5C4.448 14.9978 4 14.5501 4 13.9978V6.9978C4 6.4455 4.448 5.9978 5 5.9978Z" fill="black"/>
<path fill-rule="evenodd" clip-rule="evenodd" d="M13 19V17H11V19H8C7.44772 19 7 19.4477 7 20C7 20.5523 7.44772 21 8 21H16C16.5523 21 17 20.5523 17 20C17 19.4477 16.5523 19 16 19H13Z" fill="black" fill-opacity="0.4"/>
</svg>
