<svg width="24" height="24" viewBox="0 0 24 24" fill="none" xmlns="http://www.w3.org/2000/svg">
<path d="M11.9907 1.9989C11.4387 1.9989 10.9907 2.44626 10.9907 2.99814V13.552L7.99072 10.5863L6.58472 11.9912L11.2717 16.7066C11.6627 17.0963 12.3187 17.0963 12.7097 16.7066L17.3967 11.9912L15.9907 10.5863L12.9907 13.552V2.99814C12.9907 2.44626 12.5427 1.9988 11.9907 1.9989Z" fill="black"/>
<path d="M4 14C3.448 14 3 14.448 3 15V17C3 19.209 4.791 21 7 21H17C19.209 21 21 19.209 21 17V15C21 14.448 20.552 14 20 14C19.448 14 19 14.448 19 15V17C19 18.105 18.105 19 17 19H7C5.895 19 5 18.105 5 17V15C5 14.448 4.552 14 4 14Z" fill="black" fill-opacity="0.4"/>
</svg>
