<svg width="24" height="24" viewBox="0 0 24 24" fill="none" xmlns="http://www.w3.org/2000/svg">
<path d="M12.0049 1.9989C7.80188 1.9989 5.00488 8.9919 5.00488 14.9989C5.00488 18.8649 8.13888 21.9989 12.0049 21.9989C15.8709 21.9989 19.0049 18.8649 19.0049 14.9989C19.0049 8.9919 16.2079 1.9989 12.0049 1.9989ZM12.0049 3.9989C14.6019 3.9989 17.0049 10.0059 17.0049 14.9989C17.0049 17.7599 14.7659 19.9989 12.0049 19.9989C9.24388 19.9989 7.00488 17.7599 7.00488 14.9989C7.00488 10.0059 9.40788 3.9989 12.0049 3.9989Z" fill="black"/>
<path d="M12 4C14.597 4 17 10.007 17 15C17 17.761 14.761 20 12 20C9.239 20 7 17.761 7 15C7 10.007 9.403 4 12 4Z" fill="black" fill-opacity="0.4"/>
</svg>
