<svg width="24" height="24" viewBox="0 0 24 24" fill="none" xmlns="http://www.w3.org/2000/svg">
<path fill-rule="evenodd" clip-rule="evenodd" d="M11.5 10.9142L4.87406 17.5402L4.14415 19.7299L4.27012 19.8559L6.45985 19.126L13.0624 12.5234L14.4903 13.9239L7.70713 20.7071C7.59736 20.8169 7.46353 20.8996 7.31626 20.9487L4.31625 21.9487C3.95692 22.0685 3.56075 21.9749 3.29292 21.7071L2.29292 20.7071C2.02509 20.4393 1.93157 20.0431 2.05134 19.6838L3.05134 16.6838C3.10044 16.5365 3.18315 16.4027 3.29292 16.2929L10.0858 9.5L11.5 10.9142Z" fill="black" fill-opacity="0.4"/>
<path d="M18.008 2.22778C17.0144 2.22778 16.0092 2.57079 15.2892 3.28979C14.7541 3.82579 12.2018 6.37778 11.008 7.57177L10.7267 7.28979C10.5315 7.09479 10.2639 7.00879 10.008 7.00879C9.75211 7.00879 9.48451 7.09479 9.28921 7.28979C8.89871 7.68079 8.89871 8.33778 9.28921 8.72778C12.4206 11.8579 14.222 13.6609 15.2892 14.7278C15.6798 15.1188 16.3362 15.1188 16.7267 14.7278C17.1173 14.3368 17.1172 13.6808 16.7267 13.2898L16.4455 13.0088L20.7267 8.72778C22.1666 7.28778 22.1666 4.73079 20.7267 3.28979C20.0068 2.57079 19.0016 2.22778 18.008 2.22778ZM18.008 4.22778C18.4897 4.22778 18.9598 4.39878 19.2892 4.72778C19.9481 5.38678 19.9481 6.63179 19.2892 7.28979L15.008 11.5718L12.4455 9.00879C13.6393 7.81479 16.1916 5.26278 16.7267 4.72778C17.0561 4.39878 17.5263 4.22778 18.008 4.22778Z" fill="black"/>
</svg>
