<svg width="24" height="24" viewBox="0 0 24 24" fill="none" xmlns="http://www.w3.org/2000/svg">
<path d="M7.9978 2C5.7887 2 3.9978 3.7909 3.9978 6V18C3.9978 20.2091 5.7887 22 7.9978 22H15.9978C18.2068 22 19.9978 20.2091 19.9978 18V6C19.9978 3.7909 18.2068 2 15.9978 2H7.9978ZM7.9978 4H15.9978C17.1028 4 17.9978 4.8954 17.9978 6V18C17.9978 19.1046 17.1028 20 15.9978 20H7.9978C6.8932 20 5.9978 19.1046 5.9978 18V6C5.9978 4.8954 6.8932 4 7.9978 4Z" fill="black" fill-opacity="0.4"/>
<path d="M15 8C14.448 8 14 8.448 14 9V15C14 15.552 14.448 16 15 16C15.552 16 16 15.552 16 15V9C16 8.448 15.552 8 15 8ZM12 10C11.448 10 11 10.448 11 11V15C11 15.552 11.448 16 12 16C12.552 16 13 15.552 13 15V11C13 10.448 12.552 10 12 10ZM9 12C8.448 12 8 12.448 8 13V15C8 15.552 8.448 16 9 16C9.552 16 10 15.552 10 15V13C10 12.448 9.552 12 9 12Z" fill="black"/>
</svg>
