<svg width="24" height="24" viewBox="0 0 24 24" fill="none" xmlns="http://www.w3.org/2000/svg">
<path fill-rule="evenodd" clip-rule="evenodd" d="M9 7C9 5.34315 10.3431 4 12 4C13.6569 4 15 5.34315 15 7C15 7.14627 14.9896 7.28965 14.9696 7.42955C14.1862 7.77816 13.5089 8.3223 12.9999 9C13.0002 10 12.9999 11 12.9999 11H14.1709C14.5828 9.83481 15.694 9 17.0002 9C18.6571 9 20.0002 10.3431 20.0002 12C20.0002 13.6569 18.6571 15 17.0002 15C16.8539 15 16.7104 14.9896 16.5704 14.9696C16.2218 14.1862 15.6776 13.509 15 13C14 13.0004 13 13 13 13V14.1711C14.1652 14.5829 15 15.6941 15 17.0004C15 18.6572 13.6569 20.0004 12 20.0004C10.3431 20.0004 9 18.6572 9 17.0004C9 16.854 9.01041 16.7105 9.03043 16.5705C9.81397 16.2219 10.4913 15.6778 11.0004 15C11 14 11.0004 13 11.0004 13H9.82929C9.41746 14.1652 8.30622 15 7 15C5.34315 15 4 13.6569 4 12C4 10.3431 5.34315 9 7 9C7.14623 9 7.28957 9.01039 7.42944 9.03038C7.77804 9.81394 8.32223 10.4913 9 11.0004C10 11 11 11.0004 11 11.0004V9.82929C9.83481 9.41746 9 8.30622 9 7ZM17 17C17 17.0001 17 17.0002 17 17.0004C17 19.7618 14.7614 22.0004 12 22.0004C9.23858 22.0004 7 19.7618 7 17.0004V17C4.23858 17 2 14.7614 2 12C2 9.23858 4.23858 7 7 7C7 4.23858 9.23858 2 12 2C14.7614 2 17 4.23858 17 7C17.0001 7 17.0002 7 17.0002 7C19.7617 7 22.0002 9.23858 22.0002 12C22.0002 14.7614 19.7617 17 17.0002 17C17.0002 17 17.0001 17 17 17Z" fill="black"/>
<path fill-rule="evenodd" clip-rule="evenodd" d="M12 6C12.5523 6 13 6.44772 13 7V11H17C17.5523 11 18 11.4477 18 12C18 12.5523 17.5523 13 17 13H13V17C13 17.5523 12.5523 18 12 18C11.4477 18 11 17.5523 11 17V13H7C6.44772 13 6 12.5523 6 12C6 11.4477 6.44772 11 7 11H11V7C11 6.44772 11.4477 6 12 6ZM12 13C12.5523 13 13 12.5523 13 12C13 11.4477 12.5523 11 12 11C11.4477 11 11 11.4477 11 12C11 12.5523 11.4477 13 12 13Z" fill="black" fill-opacity="0.4"/>
</svg>
