<svg width="24" height="24" viewBox="0 0 24 24" fill="none" xmlns="http://www.w3.org/2000/svg">
<path d="M11.9945 5.00488C10.8275 5.00488 9.64753 6.18429 9.91653 7.33829C10.0295 7.82659 10.3095 8.48608 10.8275 9.37988C11.0795 9.81418 10.5295 10.1439 10.2805 9.70808C9.77853 8.82778 9.36953 8.22819 9.00453 7.88509C8.11453 7.04729 6.52554 7.49458 5.94254 8.50488C5.35954 9.51528 5.79353 11.1139 6.92653 11.4579C7.40653 11.6039 8.08053 11.6789 9.11453 11.6769C9.62553 11.6759 9.64152 12.2989 9.15053 12.2969C8.13753 12.2909 7.44253 12.3709 6.96353 12.5149C5.79253 12.8679 5.35954 14.4579 5.94254 15.4689C6.52554 16.4789 8.10353 16.9339 8.96853 16.1249C9.33453 15.7819 9.76653 15.1979 10.2805 14.3019C10.5295 13.8699 11.0765 14.2049 10.8275 14.6299C10.3165 15.5049 10.0315 16.1479 9.91653 16.6349C9.63653 17.8249 10.8275 19.0049 11.9945 19.0049C13.1615 19.0049 14.3045 17.8259 14.0365 16.6719C13.9225 16.1829 13.6435 15.5239 13.1245 14.6299C12.8545 14.1649 13.4445 13.8389 13.7085 14.3019C14.2105 15.1819 14.6195 15.7449 14.9845 16.0879C15.8745 16.9259 17.4635 16.5149 18.0465 15.5049C18.6295 14.4949 18.1955 12.8959 17.0625 12.5519C16.5825 12.4059 15.8715 12.3309 14.8385 12.3329C14.3175 12.3339 14.3275 11.6739 14.8385 11.6769C15.8515 11.6819 16.5825 11.6019 17.0625 11.4579C18.2335 11.1059 18.6295 9.51528 18.0465 8.50488C17.4635 7.49458 15.8855 7.07569 15.0205 7.88509C14.6545 8.22769 14.2225 8.77549 13.7085 9.67159C13.4445 10.1309 12.8625 9.82828 13.1245 9.37988C13.6355 8.50498 13.9215 7.86209 14.0365 7.37469C14.3165 6.18449 13.1615 5.00488 11.9945 5.00488Z" fill="black"/>
</svg>
