<svg width="24" height="24" viewBox="0 0 24 24" fill="none" xmlns="http://www.w3.org/2000/svg">
<path d="M13.9356 4.02729C13.1671 4.04928 12.4795 4.32728 11.9938 4.78319C11.6011 4.43213 11.0904 4.16284 10.5617 4.05858C10.103 3.96792 9.62531 3.97082 9.12563 4.12106C7.77847 4.5261 6.95499 5.66224 6.89403 6.89015C6.7771 6.89205 6.77311 6.88635 6.65818 6.90154C5.75175 7.02079 4.9013 7.54679 4.40861 8.46372C3.73903 9.70912 3.95289 11.0759 4.79136 11.9875C4.15676 12.6433 3.78599 13.7628 4.12778 14.8994C4.53252 16.2468 5.75876 17.0315 6.89604 17.0965C6.92003 18.0361 7.4437 19.0337 8.46906 19.5855C9.71727 20.2572 11.0804 20.0223 11.9918 19.1876C12.6504 19.8544 13.7467 20.2052 14.872 19.8674C16.2202 19.4615 17.0267 18.187 17.0976 17.0945C17.1836 17.0935 17.1606 17.0945 17.2465 17.0865C18.2329 16.9915 19.0964 16.4397 19.589 15.5241C20.2586 14.2786 19.9878 12.8442 19.1983 11.9975C19.8339 11.3118 20.2097 10.2502 19.8699 9.11975C19.4701 7.78879 18.3029 6.95712 17.0936 6.88126C17.0976 6.03579 16.553 4.95362 15.5286 4.40224C15.0159 4.12635 14.4573 4.0124 13.9356 4.02729ZM9.68527 6.0273C10.3628 5.82348 10.9984 6.37486 10.9994 7.08907C11.0024 7.36506 11.3212 8.06218 11.9988 8.05748C12.5145 8.05398 12.9992 7.64115 12.9982 7.08907C12.9982 7.07868 12.9982 7.06818 12.9982 7.05778C12.9902 6.24111 13.8247 5.7559 14.5602 6.15174C14.915 6.34257 15.0959 6.67753 15.0909 7.05778C15.0879 7.32198 14.983 7.57688 14.8101 7.7764C14.7991 7.78719 14.7901 7.79649 14.7791 7.80758C14.3923 8.20182 14.3843 8.82698 14.7791 9.21352C15.0469 9.47622 15.4037 9.56218 15.7375 9.46771C15.8944 9.43303 16.0553 9.32388 16.1842 9.21352C16.7558 8.63055 17.6933 8.88155 17.9331 9.68213C18.133 10.3452 17.7012 10.9709 17.0127 11.0009C17.0017 11.0009 16.9137 10.9939 16.9027 10.9939C16.3511 10.9999 15.9294 11.4417 15.9344 11.9945C15.9374 12.2704 16.0353 12.5313 16.2152 12.7122C16.397 12.9061 16.7009 13.0061 16.9867 13.0051C17.7922 13.0091 18.2329 13.8248 17.8401 14.5555C17.6682 14.8744 17.3904 15.0553 17.0587 15.0873C16.7389 15.1173 16.4181 15.0023 16.1842 14.7744C15.9873 14.5815 15.7215 14.4905 15.4656 14.4935C15.2098 14.4955 14.972 14.5775 14.7791 14.7744C14.5782 14.9793 14.4912 15.2532 14.4972 15.5241C14.4962 15.778 14.5812 16.0189 14.7791 16.2118C15.3617 16.7836 15.1099 17.7202 14.3104 17.9611C13.6358 18.164 13.0042 17.6413 12.9982 16.9305C12.9952 16.6437 12.6934 15.893 11.9678 15.9309C11.4302 15.9519 10.9944 16.3888 10.9994 16.9305C11.0074 17.7472 10.173 18.232 9.43744 17.8362C8.82183 17.5053 8.73389 16.6836 9.21858 16.1808C9.57536 15.81 9.6713 15.2082 9.21858 14.7744C8.76687 14.3406 8.24819 14.3556 7.77549 14.7924C7.14889 15.3722 6.27644 15.1123 6.03959 14.3226C5.83671 13.6458 6.33738 12.9911 7.04994 12.9881C7.33576 12.9851 7.60759 12.8732 7.78248 12.6812C7.94937 12.5003 8.05131 12.2584 8.06331 11.9945C8.0763 11.7116 7.96236 11.4487 7.78248 11.2758C7.60159 11.0939 7.33976 10.9919 7.06393 10.9939C6.24745 11.0019 5.76274 10.1692 6.15749 9.43213C6.52626 8.74381 7.30678 8.71312 7.81346 9.21352C8.20721 9.60007 8.81284 9.58767 9.21858 9.21352C9.64432 8.82098 9.59135 8.19803 9.21858 7.80758C8.63595 7.23581 8.88477 6.2678 9.68527 6.0273Z" fill="black"/>
<circle cx="12" cy="12" r="2" fill="black" fill-opacity="0.4"/>
</svg>
