<svg width="24" height="24" viewBox="0 0 24 24" fill="none" xmlns="http://www.w3.org/2000/svg">
<path fill-rule="evenodd" clip-rule="evenodd" d="M6 5C5.44772 5 5 5.44772 5 6V7H11.8694C11.5908 6.55923 11.3494 6.1027 11.1567 5.70772C10.938 5.25929 10.52 5 10.114 5H6ZM14.5158 7H20C20.5523 7 21 7.44772 21 8V17C21 19.2091 19.2091 21 17 21H7C4.79086 21 3 19.2091 3 17V7V6C3 4.34315 4.34315 3 6 3H10.114C11.3753 3 12.442 3.78071 12.9543 4.83086C13.2282 5.39246 13.5686 6.00122 13.9262 6.45495C14.1051 6.68184 14.2621 6.83611 14.3877 6.92656C14.4602 6.9788 14.5019 6.99541 14.5158 7Z" fill="black" fill-opacity="0.4"/>
<path d="M13.6213 11.0771C13.2741 11.2214 12.9977 11.5679 12.9977 12.0109C12.9977 12.1353 12.9977 12.649 12.9977 13.0064C11.0492 13.0064 8.54295 14.0288 7.29183 15.2772C6.90272 15.6665 6.90272 16.3196 7.29183 16.7088C7.68193 17.0971 8.33642 17.0971 8.72652 16.7088C9.6035 15.8327 11.579 14.9975 12.9977 14.9975C12.9977 15.3549 12.9977 15.8686 12.9977 15.993C12.9977 16.88 14.0842 17.336 14.7128 16.7088L16.7082 14.7177C17.0973 14.3285 17.0973 13.6754 16.7082 13.2862L14.7128 11.2951C14.3985 10.9815 13.9685 10.9337 13.6213 11.0771Z" fill="black"/>
</svg>
