<svg width="24" height="24" viewBox="0 0 24 24" fill="none" xmlns="http://www.w3.org/2000/svg">
<path d="M8.99829 3C6.78929 3 4.99829 4.791 4.99829 7H3.99829C3.44629 7 2.99829 7.448 2.99829 8V11H20.9983V8C20.9983 7.448 20.5503 7 19.9983 7H18.9983C18.9983 4.791 17.2073 3 14.9983 3C13.7873 3 12.7323 3.55601 11.9983 4.40601C11.2643 3.55601 10.2093 3 8.99829 3ZM8.99829 5C10.1033 5 10.9983 5.895 10.9983 7H6.99829C6.99829 5.895 7.89329 5 8.99829 5ZM14.9983 5C16.1033 5 16.9983 5.895 16.9983 7H12.9983C12.9983 5.895 13.8933 5 14.9983 5Z" fill="black"/>
<path d="M4 13V17C4 19.209 5.791 21 8 21H11V13H4ZM13 13V21H16C18.209 21 20 19.209 20 17V13H13Z" fill="black" fill-opacity="0.4"/>
</svg>
