<svg width="24" height="24" viewBox="0 0 24 24" fill="none" xmlns="http://www.w3.org/2000/svg">
<circle cx="12" cy="12" r="10" fill="black" fill-opacity="0.4"/>
<path d="M11.9983 2.01416C10.7053 2.01416 9.2473 5.96416 9.0603 11.0142H14.9363C14.7493 5.96516 13.2913 2.01416 11.9983 2.01416ZM8.84229 2.51416C5.15529 3.74316 2.3793 7.11516 2.0293 11.0142H7.0603C7.1713 7.57516 7.79228 4.52516 8.84229 2.51416ZM15.1543 2.51416C16.2043 4.52516 16.8253 7.57516 16.9363 11.0142H21.9363C21.5743 7.06916 18.8773 3.76516 15.1543 2.51416ZM2.0603 13.0142C2.4203 17.0212 5.20229 20.3042 8.87329 21.5142C7.82429 19.5032 7.1713 16.4532 7.0603 13.0142H2.0603ZM9.0603 13.0142C9.2473 18.0632 10.7053 22.0142 11.9983 22.0142C13.2913 22.0142 14.7493 18.0642 14.9363 13.0142H9.0603ZM16.9363 13.0142C16.8253 16.4532 16.1723 19.5032 15.1233 21.5142C18.8943 20.2312 21.5683 16.8942 21.9363 13.0142H16.9363Z" fill="black"/>
</svg>
