<svg width="24" height="24" viewBox="0 0 24 24" fill="none" xmlns="http://www.w3.org/2000/svg">
<path d="M11.999 2C6.47622 2 1.99902 6.47701 1.99902 12C1.99902 17.523 6.47622 22.0001 11.999 22.0001C17.522 22.0001 21.999 17.523 21.999 12C21.999 11.448 21.551 11 20.999 11H12.999C12.447 11 11.999 11.448 11.999 12V16C9.78993 16 7.99903 14.209 7.99903 12C7.99903 9.79102 9.78993 8.00002 11.999 8.00002C13.077 8.00002 14.102 8.44105 14.848 9.18905C15.238 9.58005 15.819 9.56701 16.191 9.20101C17.554 7.85901 18.885 6.54201 19.061 6.37501C19.47 5.98801 19.49 5.336 19.093 4.938C17.229 3.06799 14.692 2 11.999 2ZM11.999 4.00001C13.801 4.00001 15.535 4.61598 16.917 5.68599C16.558 6.04099 16.029 6.55601 15.48 7.10701C14.481 6.40301 13.261 6.00001 11.999 6.00001C8.68533 6.00001 5.99902 8.68602 5.99902 12C5.99902 15.314 8.68533 17.991 11.999 18C15.163 18.0091 16.824 15.69 17.197 15C17.013 15.007 15.024 15 14.999 15H13.999V13H19.999C19.489 16.927 16.065 20.0001 11.999 20.0001C7.58073 20.0001 3.99902 16.418 3.99902 12C3.99902 7.58202 7.58073 4.00001 11.999 4.00001Z" fill="black"/>
</svg>
