<svg width="24" height="24" viewBox="0 0 24 24" fill="none" xmlns="http://www.w3.org/2000/svg">
<path fill-rule="evenodd" clip-rule="evenodd" d="M4 3C4.55228 3 5 3.44772 5 4V17C5 18.1046 5.89543 19 7 19H20C20.5523 19 21 19.4477 21 20C21 20.5523 20.5523 21 20 21H7C4.79086 21 3 19.2091 3 17V4C3 3.44772 3.44772 3 4 3Z" fill="black" fill-opacity="0.4"/>
<path d="M8.01083 5C7.75515 5 7.48777 5.08601 7.29263 5.28101C6.90246 5.67201 6.90246 6.32799 7.29263 6.71899L10.7897 10.219C11.2551 10.685 12.0674 11 12.7257 11H14.2868C14.415 11 14.6958 11.128 14.7864 11.219L17.5654 14H14.0058V16H20.0008C20.5527 16 21 15.552 21 15V9H19.0017V12.562L16.2228 9.78101C15.7574 9.31501 14.945 9 14.2868 9H12.7257C12.5975 9 12.3167 8.87201 12.2261 8.78101L8.72903 5.28101C8.5339 5.08601 8.26652 5 8.01083 5Z" fill="black"/>
</svg>
