<svg width="24" height="24" viewBox="0 0 24 24" fill="none" xmlns="http://www.w3.org/2000/svg">
<path d="M5 19H18V20C18 21.1046 17.1046 22 16 22H7C5.89543 22 5 21.1046 5 20V19Z" fill="black" fill-opacity="0.4"/>
<path d="M13.9952 2.00001C12.8956 2.00391 12.0063 2.89675 12.0063 3.99679V9.00998C12.0063 9.00998 12.0063 10.0104 11.0057 10.0104C11.0016 9.01998 11.0022 8.95596 11.0057 8.00956C11.009 7.1442 10.4962 6.01573 9.00472 6.00873C7.51332 6.00173 7.00242 7.28126 7.00372 8.00956C7.00702 9.86934 7.00372 11.0108 7.00372 11.0108C7.00372 11.0108 6.00322 11.0108 6.00322 10.0104C6.00322 9.76516 6.00322 9.78425 6.00322 9.0096C6.00322 8.34984 5.5 7.99542 5 7.99542C4 7.99542 3 9.49604 3.00024 12.0282V13.0287C3.00024 14.7058 4.00015 17.4994 5.00283 19H18.0003C20 16.499 21 15.4985 22.0003 12.9956C22.0327 11.7441 21.0104 11.0108 20.0099 11.0108C19.2329 11.0108 18.5757 11.5427 18.0003 12.1576C17.2121 12.9999 17.0002 13.9979 15.9982 13.9979C15.9982 12.9984 15.9982 4.05126 15.9982 4.00158L15.9982 3.99906C15.9995 2.89277 15.1013 1.99609 13.9952 2.00001Z" fill="black"/>
</svg>
