<svg width="24" height="24" viewBox="0 0 24 24" fill="none" xmlns="http://www.w3.org/2000/svg">
<path fill-rule="evenodd" clip-rule="evenodd" d="M11.9778 5.20974C12.0935 4.66971 11.7495 4.13812 11.2095 4.0224C10.6695 3.90668 10.1379 4.25065 10.0222 4.79068L7.02216 18.7907C6.90644 19.3307 7.25041 19.8623 7.79043 19.978C8.33046 20.0937 8.86205 19.7498 8.97777 19.2097L11.9778 5.20974ZM16.9778 5.20974C17.0935 4.66971 16.7495 4.13812 16.2095 4.0224C15.6695 3.90668 15.1379 4.25065 15.0222 4.79068L12.0222 18.7907C11.9064 19.3307 12.2504 19.8623 12.7904 19.978C13.3305 20.0937 13.862 19.7498 13.9778 19.2097L16.9778 5.20974Z" fill="black"/>
<path fill-rule="evenodd" clip-rule="evenodd" d="M11.3801 8.00024H14.3347L13.9061 10.0002H10.9515L11.3801 8.00024ZM18 10.0002H15.9515L16.3801 8.00024H18C18.5523 8.00024 19 8.44796 19 9.00024C19 9.55253 18.5523 10.0002 18 10.0002ZM9.33469 8.00024H7C6.44772 8.00024 6 8.44796 6 9.00024C6 9.55253 6.44772 10.0002 7 10.0002H8.90612L9.33469 8.00024ZM10.0944 14.0002H13.049L12.6204 16.0002H9.66581L10.0944 14.0002ZM17 16.0002H14.6658L15.0944 14.0002H17C17.5523 14.0002 18 14.448 18 15.0002C18 15.5525 17.5523 16.0002 17 16.0002ZM8.04898 14.0002H6C5.44772 14.0002 5 14.448 5 15.0002C5 15.5525 5.44772 16.0002 6 16.0002H7.62041L8.04898 14.0002Z" fill="black" fill-opacity="0.4"/>
</svg>
