<svg width="24" height="24" viewBox="0 0 24 24" fill="none" xmlns="http://www.w3.org/2000/svg">
<path fill-rule="evenodd" clip-rule="evenodd" d="M7 11C5.34315 11 4 12.3431 4 14V18C4 19.6569 5.34315 21 7 21C8.65685 21 10 19.6569 10 18V14C10 12.3431 8.65685 11 7 11ZM6 14C6 13.4477 6.44772 13 7 13C7.55228 13 8 13.4477 8 14V18C8 18.5523 7.55228 19 7 19C6.44772 19 6 18.5523 6 18V14ZM17 11C15.3431 11 14 12.3431 14 14V18C14 19.6569 15.3431 21 17 21C18.6569 21 20 19.6569 20 18V14C20 12.3431 18.6569 11 17 11ZM16 14C16 13.4477 16.4477 13 17 13C17.5523 13 18 13.4477 18 14V18C18 18.5523 17.5523 19 17 19C16.4477 19 16 18.5523 16 18V14Z" fill="black"/>
<path fill-rule="evenodd" clip-rule="evenodd" d="M12 4C7.58172 4 4 7.58172 4 12C4 12.9478 4 16 4 17H3C2.44772 17 2 16.5523 2 16V12C2 6.47715 6.47715 2 12 2C17.5228 2 22 6.47715 22 12V16C22 16.5523 21.5523 17 21 17H20C20 16 20 13.326 20 12C20 7.58172 16.4183 4 12 4Z" fill="black" fill-opacity="0.4"/>
</svg>
