<svg width="24" height="24" viewBox="0 0 24 24" fill="none" xmlns="http://www.w3.org/2000/svg">
<path d="M7.48192 3C4.45376 3 1.99902 5.46201 1.99902 8.50001C1.99902 11.684 3.80688 14.688 6.79655 17.438C7.81697 18.376 8.91564 19.199 10.0052 19.938C10.3872 20.196 10.7443 20.43 11.0645 20.625C11.2597 20.744 11.3884 20.83 11.4695 20.875C11.6203 20.9592 11.7946 21.0012 11.9689 21.001C11.9689 19.938 11.999 6.00928 11.999 5.31202C10.9694 3.91601 9.29616 3 7.48192 3Z" fill="black"/>
<path d="M16.5171 3C19.5453 3 22 5.46201 22 8.50001C22 11.684 20.1921 14.688 17.2025 17.438C16.1821 18.376 15.0834 19.199 13.9938 19.938C13.6119 20.196 13.2547 20.43 12.9345 20.625C12.7393 20.744 12.6106 20.83 12.5295 20.875C12.3787 20.9592 12.2044 21.0012 12.0301 21.001C12.0301 19.938 12 6.00928 12 5.31202C13.0296 3.91601 14.7029 3 16.5171 3Z" fill="black" fill-opacity="0.4"/>
</svg>
