<svg width="24" height="24" viewBox="0 0 24 24" fill="none" xmlns="http://www.w3.org/2000/svg">
<path d="M10.9075 2.24365L5.37645 4.96357C4.72645 5.28468 4.15945 6.03694 4.00145 6.74518L2.62645 12.9033C2.46945 13.6075 2.65244 14.5228 3.09544 15.092L6.93945 19.9997C7.38745 20.5769 8.23844 21 8.97044 21H12.0329C12 19.9918 12 2.98605 12 2C11.6129 2.0043 11.2275 2.08552 10.9075 2.24365Z" fill="black"/>
<path d="M13.0925 2.24365L18.6236 4.96357C19.2736 5.28468 19.8406 6.03694 19.9986 6.74518L21.3736 12.9033C21.5306 13.6075 21.3476 14.5228 20.9046 15.092L17.0605 19.9997C16.6125 20.5769 15.7616 21 15.0296 21H11.9671C12 19.9918 12 2.98605 12 2C12.3871 2.0043 12.7725 2.08552 13.0925 2.24365Z" fill="black" fill-opacity="0.4"/>
</svg>
