<svg width="24" height="24" viewBox="0 0 24 24" fill="none" xmlns="http://www.w3.org/2000/svg">
<path d="M8.03122 22C5.72052 22 4.00922 20.446 4.00002 18C3.99762 17.35 4.19442 16.675 4.56252 15.938C4.85072 15.36 5.23032 14.765 5.68752 14.156C6.03502 13.694 6.41092 13.254 6.78122 12.844C6.87992 12.734 6.92182 12.677 7.00002 12.594V11.406C6.92182 11.323 6.87992 11.266 6.78122 11.156C6.41092 10.746 6.03502 10.306 5.68752 9.84399C5.23032 9.23499 4.85072 8.64001 4.56252 8.06201C4.19442 7.32501 3.99762 6.65 4.00002 6C4.00922 3.554 5.72052 2 8.03122 2H16.0312C18.3388 2 20.0092 3.549 20 6C19.9976 6.647 19.8056 7.32701 19.4375 8.06201C19.1502 8.63601 18.7656 9.23799 18.3125 9.84399C17.9651 10.308 17.5889 10.744 17.2188 11.156C17.1202 11.266 17.0781 11.323 17 11.406V12.594C17.0781 12.677 17.1202 12.734 17.2188 12.844C17.5889 13.256 17.9651 13.692 18.3125 14.156C18.7656 14.762 19.1502 15.364 19.4375 15.938C19.8056 16.673 19.9976 17.353 20 18C20.0092 20.451 18.3388 22 16.0312 22H8.03122ZM8.03122 20H16.0312C17.2646 20 18.0049 19.308 18 18C17.9989 17.71 17.8671 17.296 17.625 16.812C17.3972 16.357 17.0746 15.861 16.6875 15.344C16.3787 14.931 16.0517 14.527 15.7188 14.156C15.5202 13.935 15.3633 13.801 15.2812 13.719C15.0943 13.531 15 13.265 15 13V11C15 10.735 15.0943 10.469 15.2812 10.281C15.3633 10.199 15.5202 10.065 15.7188 9.84399C16.0517 9.47299 16.3787 9.06901 16.6875 8.65601C17.0746 8.13901 17.3972 7.64299 17.625 7.18799C17.8671 6.70399 17.9989 6.29 18 6C18.0049 4.692 17.2646 4 16.0312 4H8.03122C6.78232 4 6.00492 4.7 6.00002 6C5.99892 6.288 6.13452 6.70599 6.37502 7.18799C6.60292 7.64399 6.92252 8.13701 7.31252 8.65601C7.62122 9.06701 7.94852 9.47499 8.28122 9.84399C8.47972 10.064 8.63682 10.2 8.71882 10.281C8.90682 10.469 9.00002 10.734 9.00002 11V13C9.00002 13.266 8.90682 13.531 8.71882 13.719C8.63682 13.8 8.47972 13.936 8.28122 14.156C7.94852 14.525 7.62122 14.933 7.31252 15.344C6.92252 15.863 6.60292 16.356 6.37502 16.812C6.13452 17.294 5.99892 17.712 6.00002 18C6.00492 19.3 6.78232 20 8.03122 20Z" fill="black" fill-opacity="0.4"/>
<path fill-rule="evenodd" clip-rule="evenodd" d="M9 7C9 7.55228 9.44772 8 10 8H14C14.5523 8 15 7.55228 15 7C15 6.44772 14.5523 6 14 6H10C9.44772 6 9 6.44772 9 7Z" fill="black"/>
</svg>
