<svg width="24" height="24" viewBox="0 0 24 24" fill="none" xmlns="http://www.w3.org/2000/svg">
<path d="M16.5706 6C16.0217 7.21509 14.9818 8.18307 13.656 8.65601C13.258 8.79801 13 9.171 13 9.594L13 18L16.5706 18C16.848 18.6142 17 19.2915 17 20H7C7 19.2915 7.15197 18.6142 7.4294 18L11 18V9.594C11 9.171 10.742 8.79801 10.344 8.65601C9.01817 8.18307 7.97826 7.21509 7.4294 6C8 6.00005 16 5.99994 16.5706 6Z" fill="black" fill-opacity="0.4"/>
<path d="M4.9978 2C4.4458 2 3.9978 2.448 3.9978 3C3.9978 3.552 4.4458 4 4.9978 4C4.9978 6.717 6.59981 9.10699 8.9948 10.253L9.0028 13.742C6.6078 14.888 4.9978 17.283 4.9978 20C4.4458 20 3.9978 20.448 3.9978 21C3.9978 21.552 4.4458 22 4.9978 22H18.9978C19.5498 22 19.9978 21.552 19.9978 21C19.9978 20.448 19.5498 20 18.9978 20C18.9978 17.283 17.4058 14.902 15.0098 13.756L14.9918 10.255C17.3868 9.109 18.9978 6.717 18.9978 4C19.5498 4 19.9978 3.552 19.9978 3C19.9978 2.448 19.5498 2 18.9978 2H4.9978ZM6.9978 4H16.9978C16.9978 6.11 15.6498 7.94401 13.6538 8.65601C13.2558 8.79801 12.9978 9.17099 12.9978 9.59399V14.406C12.9978 14.829 13.2558 15.202 13.6538 15.344C15.6498 16.056 16.9978 17.89 16.9978 20H6.9978C6.9978 17.89 8.34579 16.056 10.3418 15.344C10.7398 15.202 10.9978 14.829 10.9978 14.406V9.59399C10.9978 9.17099 10.7398 8.79801 10.3418 8.65601C8.34579 7.94401 6.9978 6.11 6.9978 4Z" fill="black"/>
</svg>
