<svg width="24" height="24" viewBox="0 0 24 24" fill="none" xmlns="http://www.w3.org/2000/svg">
<path d="M2.99829 15V17C2.99829 19.209 4.78929 21 6.99829 21H16.9983C19.2073 21 20.9983 19.209 20.9983 17V15C19.8693 15 17.4983 15 16.4983 15C15.7093 16.767 14.0063 18 11.9983 18C9.98829 18 8.28629 16.769 7.49829 15C6.47729 15.003 4.08029 15.001 2.99829 15Z" fill="black"/>
<path d="M7 3C4.791 3 3 4.791 3 7V13C4.308 12.999 8.13101 12.996 8.90601 12.969C9.19401 14.973 10.375 16.001 12 16C13.712 15.998 14.832 14.79 15.062 13C15.854 12.993 19.634 13 21 13V7C21 4.791 19.209 3 17 3H7Z" fill="black" fill-opacity="0.4"/>
</svg>
