<svg width="24" height="24" viewBox="0 0 24 24" fill="none" xmlns="http://www.w3.org/2000/svg">
<path d="M1.99902 13.9978V15.9978C1.99902 18.2068 3.79002 19.9978 5.99902 19.9978H17.999C20.208 19.9978 21.999 18.2068 21.999 15.9978V13.9978C20.87 13.9978 17.499 13.9978 16.499 13.9978C15.71 15.7648 14.007 16.9978 11.999 16.9978C9.98902 16.9978 8.28702 15.7668 7.49902 13.9978C6.47802 14.0008 3.08102 13.9988 1.99902 13.9978Z" fill="black"/>
<path d="M6 4L2 12C2 12 8.13101 11.996 8.90601 11.969C9.19401 13.973 10.375 15.001 12 15C13.712 14.998 14.832 13.79 15.062 12C15.854 11.993 22 12 22 12L18 4H6Z" fill="black" fill-opacity="0.4"/>
</svg>
