<svg width="24" height="24" viewBox="0 0 24 24" fill="none" xmlns="http://www.w3.org/2000/svg">
<path fill-rule="evenodd" clip-rule="evenodd" d="M2.00003 12.0001C2 11.4478 2.44773 11 3.00006 11H9C9.55228 11 10 11.4477 10 12C10 13.1046 10.8954 14 12 14C13.1046 14 14 13.1046 14 12C14 11.4477 14.4477 11 15 11H21C21.5523 11 22 11.4477 22 12C22 13.3333 22 14.6667 22 16C22 18.2091 20.2091 20 18 20H6C3.79086 20 2 18.2091 2 16C2 14.6667 2.00008 13.3334 2.00003 12.0001ZM4 13V16C4 17.1046 4.89543 18 6 18H18C19.1046 18 20 17.1046 20 16V13H15.874C15.4299 14.7252 13.8638 16 12 16C10.1362 16 8.57006 14.7252 8.12602 13H4Z" fill="black"/>
<path fill-rule="evenodd" clip-rule="evenodd" d="M6.00001 4C5.59998 4 5.23845 4.23772 5.08087 4.60437L2.08901 11.5656C2.24622 11.2203 2.59501 10.9802 3.00006 10.9802H4.51655L6.65941 5.99435H17.3406L19.4835 10.9802H21C21.4047 10.9802 21.7533 11.2199 21.9106 11.5648L18.9192 4.60437C18.7616 4.23772 18.4 4 18 4H6.00001ZM21.9791 11.7738C21.9928 11.8395 22 11.9076 22 11.9774V11.9999C22.0017 11.925 21.995 11.8491 21.9791 11.7738ZM2.00003 12L2.00003 11.9775C2.00002 11.9047 2.00783 11.8338 2.02267 11.7654C2.00555 11.8435 1.99821 11.9222 2.00003 12Z" fill="black" fill-opacity="0.4"/>
</svg>
