<svg width="24" height="24" viewBox="0 0 24 24" fill="none" xmlns="http://www.w3.org/2000/svg">
<path fill-rule="evenodd" clip-rule="evenodd" d="M8 3C6.34315 3 5 4.34315 5 6V18C5 19.6569 6.34315 21 8 21H18C19.6569 21 21 19.6569 21 18V6.99702C21 6.99354 21 6.99006 21 6.98658V10.9902C21 11.8801 19.911 12.3376 19.281 11.7083L18 10.4289C17.5975 10.8302 17.1585 11.269 16.9011 11.5263C16.8202 11.6072 16.7572 11.6701 16.719 11.7083C16.089 12.3376 15 11.8801 15 10.9902V3H8Z" fill="black" fill-opacity="0.4"/>
<path fill-rule="evenodd" clip-rule="evenodd" d="M15 10.9902V3H18C18.828 3 19.582 3.33159 20.125 3.87393C20.668 4.41627 21 5.16934 21 5.99633V10.9902C21 11.8801 19.911 12.3376 19.281 11.7083L18 10.4289C17.5975 10.8302 17.1585 11.269 16.9011 11.5263C16.8202 11.6072 16.7572 11.6701 16.719 11.7083C16.089 12.3376 15 11.8801 15 10.9902ZM5 6C5 5.64936 5.06015 5.31278 5.17071 5H4C3.44772 5 3 5.44772 3 6C3 6.55228 3.44772 7 4 7H5V6ZM5 18V17H4C3.44772 17 3 17.4477 3 18C3 18.5523 3.44772 19 4 19H5.17071C5.06015 18.6872 5 18.3506 5 18ZM4 15H5V13H4C3.44772 13 3 13.4477 3 14C3 14.5523 3.44772 15 4 15ZM5 11V9H4C3.44772 9 3 9.44772 3 10C3 10.5523 3.44772 11 4 11H5Z" fill="black"/>
</svg>
