<svg width="24" height="24" viewBox="0 0 24 24" fill="none" xmlns="http://www.w3.org/2000/svg">
<path fill-rule="evenodd" clip-rule="evenodd" d="M5 6C5 4.34315 6.34315 3 8 3H18C19.6569 3 21 4.34315 21 6V18C21 19.6569 19.6569 21 18 21H8C6.34315 21 5 19.6569 5 18V6Z" fill="black" fill-opacity="0.4"/>
<path fill-rule="evenodd" clip-rule="evenodd" d="M5 6C5 5.64936 5.06015 5.31278 5.17071 5H4C3.44772 5 3 5.44772 3 6C3 6.55228 3.44772 7 4 7H5V6ZM5 18V17H4C3.44772 17 3 17.4477 3 18C3 18.5523 3.44772 19 4 19H5.17071C5.06015 18.6872 5 18.3506 5 18ZM4 15H5V13H4C3.44772 13 3 13.4477 3 14C3 14.5523 3.44772 15 4 15ZM5 11V9H4C3.44772 9 3 9.44772 3 10C3 10.5523 3.44772 11 4 11H5ZM11.4472 9.10558C11.9412 9.35257 12.1414 9.95324 11.8944 10.4472L11.118 12L11.8944 13.5528C12.1414 14.0468 11.9412 14.6474 11.4472 14.8944C10.9532 15.1414 10.3526 14.9412 10.1056 14.4472L9.10557 12.4472C8.96481 12.1657 8.96481 11.8343 9.10557 11.5528L10.1056 9.55279C10.3526 9.05881 10.9532 8.85859 11.4472 9.10558ZM14.553 9.10579C14.0591 9.35278 13.8588 9.95345 14.1058 10.4474L14.8822 12.0002L14.1058 13.553C13.8588 14.047 14.0591 14.6477 14.553 14.8946C15.047 15.1416 15.6477 14.9414 15.8947 14.4474L16.8947 12.4474C17.0354 12.1659 17.0354 11.8345 16.8947 11.553L15.8947 9.55301C15.6477 9.05903 15.047 8.8588 14.553 9.10579Z" fill="black"/>
</svg>
