<svg width="24" height="24" viewBox="0 0 24 24" fill="none" xmlns="http://www.w3.org/2000/svg">
<path fill-rule="evenodd" clip-rule="evenodd" d="M9.50712 9.12842L3.57237 12.0958C3.23401 12.2561 3 12.6007 3 13V17C3 17.3788 3.214 17.725 3.55279 17.8944L11.5528 21.8944C11.8343 22.0352 12.1657 22.0352 12.4472 21.8944L20.4472 17.8944C20.786 17.725 21 17.3788 21 17V13C21 12.6018 20.7682 12.2571 20.4276 12.0958L14.4929 9.12842C14.3376 9.25232 14.1729 9.3649 14 9.46491V11.118L17.7639 13L12 15.882L6.23607 13L10 11.118V9.46491C9.82711 9.3649 9.6624 9.25232 9.50712 9.12842Z" fill="black" fill-opacity="0.4"/>
<path fill-rule="evenodd" clip-rule="evenodd" d="M8 6C8 3.79086 9.79086 2 12 2C14.2091 2 16 3.79086 16 6C16 7.48168 15.1948 8.77343 14 9.46457V12.001C14 13.1069 13.1032 14 12 14C10.8968 14 10 13.1069 10 12.001L10 9.46457C8.8052 8.77343 8 7.48168 8 6ZM11.9995 12.0003L12.0005 12.0002Z" fill="black"/>
</svg>
