<svg width="24" height="24" viewBox="0 0 24 24" fill="none" xmlns="http://www.w3.org/2000/svg">
<path d="M5.9989 4C3.7898 4 1.9989 5.791 1.9989 8V16C1.9989 18.209 3.7898 20 5.9989 20H17.9989C20.208 20 21.9989 18.209 21.9989 16V8C21.9989 5.791 20.208 4 17.9989 4H5.9989ZM5.9989 6H17.9989C19.1035 6 19.9989 6.895 19.9989 8V16C19.9989 17.105 19.1035 18 17.9989 18H5.9989C4.8943 18 3.9989 17.105 3.9989 16V8C3.9989 6.895 4.8943 6 5.9989 6Z" fill="black" fill-opacity="0.4"/>
<path d="M7 8C5.8954 8 5 8.895 5 10V13C5 14.105 5.8954 15 7 15C8.1046 15 9 14.105 9 13V10C9 8.895 8.1046 8 7 8ZM12 8C10.8954 8 10 8.895 10 10V11C10 12.105 10.8954 13 12 13C13.1046 13 14 12.105 14 11V10C14 8.895 13.1046 8 12 8ZM17 8C15.8954 8 15 8.895 15 10V14C15 15.105 15.8954 16 17 16C18.1046 16 19 15.105 19 14V10C19 8.895 18.1046 8 17 8Z" fill="black"/>
</svg>
