<svg width="24" height="24" viewBox="0 0 24 24" fill="none" xmlns="http://www.w3.org/2000/svg">
<path d="M11.8695 3.00014C11.1126 3.00614 10.3394 3.2092 9.74454 3.62533L2.43221 8.65787C1.85533 9.05499 1.85653 9.91624 2.43221 10.3144L9.74454 15.3789C10.9439 16.1942 12.7916 16.2052 13.9944 15.4099L21.5568 10.3144C22.1472 9.91824 22.1482 9.05399 21.5568 8.65787L13.9632 3.59431C13.3663 3.18819 12.6264 2.99413 11.8695 3.00014Z" fill="black"/>
<path d="M2.80706 13.5344C2.55533 13.5804 2.33929 13.7134 2.18224 13.9415C1.86792 14.3956 1.97829 15.0018 2.43217 15.3159L9.74261 20.3805C10.9392 21.1937 12.7856 21.2087 13.9914 20.4115L21.5518 15.3479C22.0106 15.0408 22.1402 14.3996 21.833 13.9415C21.5258 13.4824 20.8858 13.3833 20.4271 13.6914L12.8667 18.755C12.3366 19.1051 11.3804 19.1041 10.8673 18.755L3.55685 13.6914C3.32991 13.5334 3.05879 13.4884 2.80706 13.5344Z" fill="black" fill-opacity="0.4"/>
</svg>
