<svg width="24" height="24" viewBox="0 0 24 24" fill="none" xmlns="http://www.w3.org/2000/svg">
<path fill-rule="evenodd" clip-rule="evenodd" d="M9 3H17C19.2091 3 21 4.79086 21 8V17C21 19.2091 19.2091 21 17 21H9V19H17C18.1046 19 19 18.1046 19 17V8C19 5.89543 18.1046 5 17 5H9V3Z" fill="black" fill-opacity="0.4"/>
<path fill-rule="evenodd" clip-rule="evenodd" d="M7 3C4.79086 3 3 4.79086 3 7V17C3 19.2091 4.79086 21 7 21H9V3H7ZM5 7C5 5.89543 5.89543 5 7 5V19C5.89543 19 5 18.1046 5 17V7ZM16 7C16.5523 7 17 7.44772 17 8C17 8.55228 16.5523 9 16 9H12C11.4477 9 11 8.55228 11 8C11 7.44772 11.4477 7 12 7H16ZM17 12C17 11.4477 16.5523 11 16 11H12C11.4477 11 11 11.4477 11 12C11 12.5523 11.4477 13 12 13H16C16.5523 13 17 12.5523 17 12ZM16 15C16.5523 15 17 15.4477 17 16C17 16.5523 16.5523 17 16 17H12C11.4477 17 11 16.5523 11 16C11 15.4477 11.4477 15 12 15H16Z" fill="black"/>
</svg>
