<svg width="24" height="24" viewBox="0 0 24 24" fill="none" xmlns="http://www.w3.org/2000/svg">
<path d="M17 11.25C16.236 11.993 11.219 17 11.219 17H15C15 16 15.528 14.626 16 14C16.587 13.222 16.952 12.287 17 11.25ZM9 19C9 20.657 10.343 22 12 22C13.657 22 15 20.657 15 19H9Z" fill="black" fill-opacity="0.4"/>
<path d="M11.9978 2C8.1374 2 5.008 5.132 5.008 8.99553C5.008 10.9533 5.5525 12.1195 6.7554 13.5236C6.8117 13.5896 7.0178 13.8404 7.0675 13.8984C7.4319 14.3241 7.5995 14.525 7.736 14.8238L4.2903 18.2706C3.9003 18.6614 3.9003 19.3169 4.2903 19.7077C4.6802 20.0974 5.3357 20.0974 5.7257 19.7077L19.7053 5.71662C20.0953 5.32587 20.0953 4.6703 19.7053 4.27955C19.5104 4.08467 19.2432 3.99872 18.9876 3.99872C18.7321 3.99872 18.4474 4.12165 18.2524 4.31752L17.6805 4.91813C16.3847 3.13527 14.279 2 11.9978 2ZM11.9978 3.99872C13.7399 3.99872 15.341 4.91914 16.2453 6.35123L9.1895 13.3877C9.0094 13.1109 8.8981 12.96 8.6225 12.6382C8.5684 12.5753 8.3051 12.2724 8.2533 12.2125C7.3342 11.1392 7.0051 10.4106 7.0051 8.99553C7.0051 6.2363 9.2404 3.99872 11.9978 3.99872ZM11.9978 5.99745C10.3434 5.99745 9.0022 7.33959 9.0022 8.99553C9.0022 9.54718 9.4492 9.99489 10.0007 9.99489C10.5522 9.99489 10.9993 9.54718 10.9993 8.99553C10.9993 8.44389 11.4463 7.99617 11.9978 7.99617C12.5493 7.99617 12.9963 7.54846 12.9963 6.99681C12.9963 6.44516 12.5493 5.99745 11.9978 5.99745Z" fill="black"/>
</svg>
