<svg width="24" height="24" viewBox="0 0 24 24" fill="none" xmlns="http://www.w3.org/2000/svg">
<path d="M6.9978 9C5.3408 9 3.9978 10.343 3.9978 12V19C3.9978 20.657 5.3408 22 6.9978 22H16.9978C18.6548 22 19.9978 20.657 19.9978 19V12C19.9978 10.343 18.6548 9 16.9978 9C16 9.00003 8 9.00002 6.9978 9ZM11.9978 12C13.1028 12 13.9978 12.895 13.9978 14C13.9978 14.71 13.5548 15.208 12.9978 15.562V18C12.9978 18.552 12.5498 19 11.9978 19C11.4458 19 10.9978 18.552 10.9978 18V15.562C10.4408 15.207 9.9978 14.71 9.9978 14C9.9978 12.895 10.8928 12 11.9978 12Z" fill="black"/>
<path fill-rule="evenodd" clip-rule="evenodd" d="M12 4C10.3431 4 9 5.34315 9 7V9H7V7C7 4.23858 9.23858 2 12 2C14.7614 2 17 4.23858 17 7V9H15V7C15 5.34315 13.6569 4 12 4Z" fill="black" fill-opacity="0.4"/>
</svg>
