<svg width="24" height="24" viewBox="0 0 24 24" fill="none" xmlns="http://www.w3.org/2000/svg">
<path d="M5 10C4.4477 10 4 10.448 4 11C4 11.625 4 15.375 4 16C4 16.172 4 16.171 4 18C4 20.209 5.7909 22 8 22H16C18.2091 22 20 20.209 20 18C20 16.172 20 16.171 20 16C20 15.828 20 15.829 20 14C20 11.791 18.2091 10 16 10H5ZM6 12H16C17.1046 12 18 12.895 18 14C18 14.914 18 14.75 18 15H6C6 14.025 6 12.975 6 12ZM6 17H18C18 17.25 18 17.086 18 18C18 19.105 17.1046 20 16 20H8C6.8954 20 6 19.105 6 18C6 17.086 6 17.25 6 17Z" fill="black" fill-opacity="0.4"/>
<path d="M6 2C4.8954 2 4 2.895 4 4V7C4 7.552 4.4477 8 5 8H9C10.1046 8 11 7.105 11 6V4C11 2.895 10.1046 2 9 2H6ZM6 4H9V6H6C6 5.111 6 4 6 4Z" fill="black"/>
</svg>
