<svg width="24" height="24" viewBox="0 0 24 24" fill="none" xmlns="http://www.w3.org/2000/svg">
<path d="M15.0293 2.48972C14.1564 2.21472 13.4103 3.16871 13.873 3.95871C14.604 5.20471 14.998 6.61072 14.998 8.02072C14.998 12.4387 11.4163 16.0207 6.99799 16.0207C6.16609 16.0207 5.32469 15.8857 4.56049 15.6457C3.68759 15.3707 2.91019 16.3247 3.37299 17.1147C5.15049 20.1467 8.39919 22.0207 11.998 22.0207C17.5208 22.0207 21.998 17.5437 21.998 12.0207C21.998 7.61972 19.1575 3.78772 15.0293 2.48972ZM16.623 5.48972C18.6871 6.94871 19.998 9.35371 19.998 12.0207C19.998 16.4387 16.4163 20.0207 11.998 20.0207C9.96989 20.0207 8.11609 19.2407 6.68549 17.9587C6.79219 17.9617 6.89169 18.0207 6.99799 18.0207C12.5209 18.0207 16.998 13.5437 16.998 8.02072C16.998 7.16372 16.846 6.31571 16.623 5.48972Z" fill="black"/>
</svg>
