<svg width="24" height="24" viewBox="0 0 24 24" fill="none" xmlns="http://www.w3.org/2000/svg">
<path fill-rule="evenodd" clip-rule="evenodd" d="M5 8.65601C5.235 4.93001 8.297 2 12 2C15.703 2 18.766 4.89901 18.969 8.65601C18.969 8.7996 18.9758 8.96358 18.9831 9.1406C18.9934 9.38765 19.0046 9.6601 19 9.93799C16.84 11.382 14.412 12 12 12C9.402 12 6.689 11.174 5 9.93799V8.65601ZM13 6C13 5.448 12.552 5 12 5C11.448 5 11 5.448 11 6V8C11 8.552 11.448 9 12 9C12.552 9 13 8.552 13 8V6ZM5 15V12.281C7.098 13.36 9.283 14 12 14C14.717 14 16.874 13.381 19 12.281V15C19 18.866 15.866 22 12 22C8.134 22 5 18.866 5 15Z" fill="black" fill-opacity="0.4"/>
<path d="M12 5C12.552 5 13 5.448 13 6V8C13 8.552 12.552 9 12 9C11.448 9 11 8.552 11 8V6C11 5.448 11.448 5 12 5Z" fill="black"/>
</svg>
