<svg width="24" height="24" viewBox="0 0 24 24" fill="none" xmlns="http://www.w3.org/2000/svg">
<path d="M12 2.19727C11.557 2.19727 11.111 2.29827 10.75 2.47827L4.34302 5.66626C3.56302 6.05626 3 6.98127 3 7.85327V16.0723C3 16.9453 3.56302 17.8692 4.34302 18.2602L10.75 21.4473C11.473 21.8092 12.526 21.8092 13.25 21.4473L19.656 18.2602C20.436 17.8692 21 16.9453 21 16.0723V7.85327C21 6.98127 20.436 6.05626 19.656 5.66626L13.25 2.47827C12.888 2.29827 12.442 2.19727 12 2.19727ZM11.656 4.26025C11.816 4.18025 12.183 4.17925 12.343 4.26025L18.75 7.44726C18.853 7.49926 19 7.73827 19 7.85327V16.0723C19 16.1873 18.853 16.4273 18.75 16.4783L12.343 19.6662C12.183 19.7462 11.816 19.7462 11.656 19.6662L5.25 16.4783C5.147 16.4273 5 16.1873 5 16.0723V7.85327C5 7.73827 5.147 7.49926 5.25 7.44726L11.656 4.26025Z" fill="black" fill-opacity="0.4"/>
<path fill-rule="evenodd" clip-rule="evenodd" d="M12 9C10.3431 9 9 10.3431 9 12C9 13.6569 10.3431 15 12 15C13.6569 15 15 13.6569 15 12C15 10.3431 13.6569 9 12 9ZM7 12C7 9.23858 9.23858 7 12 7C14.7614 7 17 9.23858 17 12C17 14.7614 14.7614 17 12 17C9.23858 17 7 14.7614 7 12Z" fill="black"/>
</svg>
