<svg width="24" height="24" viewBox="0 0 24 24" fill="none" xmlns="http://www.w3.org/2000/svg">
<path d="M6 4C3.7909 4 2 5.791 2 8V16C2 18.209 3.7909 20 6 20H18C20.209 20 22 18.209 22 16V8C22 5.791 20.209 4 18 4H6ZM6 6H18C19.105 6 20 6.895 20 8V16C20 17.105 19.105 18 18 18H6C4.8954 18 4 17.105 4 16V8C4 6.895 4.8954 6 6 6Z" fill="black" fill-opacity="0.4"/>
<path fill-rule="evenodd" clip-rule="evenodd" d="M11 9C11 8.44772 10.5523 8 10 8C9.44772 8 9 8.44772 9 9V15C9 15.5523 9.44772 16 10 16C10.5523 16 11 15.5523 11 15V9ZM15 9C15 8.44772 14.5523 8 14 8C13.4477 8 13 8.44772 13 9V15C13 15.5523 13.4477 16 14 16C14.5523 16 15 15.5523 15 15V9Z" fill="black"/>
</svg>
