<svg width="24" height="24" viewBox="0 0 24 24" fill="none" xmlns="http://www.w3.org/2000/svg">
<path d="M6 4C3.7909 4 2 5.791 2 8V16C2 18.209 3.7909 20 6 20H18C20.209 20 22 18.209 22 16V8C22 5.791 20.209 4 18 4H6Z" fill="black" fill-opacity="0.4"/>
<path d="M9 8H10C10.552 8 11 8.448 11 9V15C11 15.552 10.552 16 10 16H9C8.448 16 8 15.552 8 15V9C8 8.448 8.448 8 9 8ZM14 8H15C15.552 8 16 8.448 16 9V15C16 15.552 15.552 16 15 16H14C13.448 16 13 15.552 13 15V9C13 8.448 13.448 8 14 8Z" fill="black"/>
</svg>
