<svg width="24" height="24" viewBox="0 0 24 24" fill="none" xmlns="http://www.w3.org/2000/svg">
<path fill-rule="evenodd" clip-rule="evenodd" d="M20 9.43845L12.7587 16.679C11.1231 18.3145 8.7304 19.6301 6.82151 20.5208C5.85388 20.9723 4.98399 21.3267 4.35534 21.5684C3.99888 21.7055 3.63983 21.8323 3.27888 21.9565C2.95553 22.0678 2.57054 21.954 2.3444 21.7451C2.22742 21.637 2.13053 21.5452 2.04938 21.3025C1.96823 21.0598 1.99344 20.8464 2.0789 20.5963C2.12861 20.452 2.24738 20.1142 2.42893 19.6422C2.67072 19.0136 3.0251 18.1438 3.47666 17.1763C4.36748 15.2676 5.68321 12.8752 7.31886 11.2397L14.5592 4L20 9.43845Z" fill="black"/>
<path fill-rule="evenodd" clip-rule="evenodd" d="M16.9802 2C17.4235 2.00133 17.871 2.05804 18.3048 2.14442C18.9916 2.28116 19.9857 2.58035 20.7014 3.29289C21.4171 4.00543 21.7176 4.99519 21.8549 5.67888C21.9417 6.11079 21.9986 6.5563 22 6.99767L22 6.99893V7C22 7.26522 21.8942 7.51957 21.7058 7.70711L19.905 9.5L18.4836 8.08537L19.967 6.60343L19.954 6.52561L19.954 6.52559C19.8514 5.90888 19.7228 5.13576 19.3011 4.71911C18.8613 4.28473 17.9341 4.11717 17.3733 4.02121L15.886 5.5L14.4659 4.08666L16.2676 2.29289C16.4554 2.10592 16.7147 1.99973 16.9802 2ZM3 22H16.977C17.5318 22 17.9815 21.5523 17.9815 21C17.9815 20.4477 17.5318 20 16.977 20H7.82435C7.44856 20.1909 7.08142 20.3682 6.73062 20.5312C5.76329 20.9806 4.89367 21.3333 4.26521 21.574C3.90886 21.7104 3.54992 21.8366 3.18909 21.9603C3.12777 21.9813 3.06424 21.9942 3 22ZM11.5997 4.76779C11.7958 4.57252 12.1138 4.57252 12.31 4.76778L13.0454 5.5L14.4659 4.0858L13.7304 3.35357C12.7498 2.37726 11.1599 2.37726 10.1792 3.35357L5.21802 8.29291C4.82576 8.68344 4.82576 9.3166 5.21802 9.70712C5.61027 10.0976 6.24624 10.0976 6.6385 9.70712L11.5997 4.76779Z" fill="black" fill-opacity="0.4"/>
</svg>
