<svg width="24" height="24" viewBox="0 0 24 24" fill="none" xmlns="http://www.w3.org/2000/svg">
<path fill-rule="evenodd" clip-rule="evenodd" d="M21.7071 9.70711C22.0976 9.31658 22.0976 8.68342 21.7071 8.29289C21.3166 7.90237 20.6834 7.90237 20.2929 8.29289L19 9.58579L17.7071 8.29289C17.3166 7.90237 16.6834 7.90237 16.2929 8.29289C15.9024 8.68342 15.9024 9.31658 16.2929 9.70711L17.5858 11L16.2929 12.2929C15.9024 12.6834 15.9024 13.3166 16.2929 13.7071C16.6834 14.0976 17.3166 14.0976 17.7071 13.7071L19 12.4142L20.2929 13.7071C20.6834 14.0976 21.3166 14.0976 21.7071 13.7071C22.0976 13.3166 22.0976 12.6834 21.7071 12.2929L20.4142 11L21.7071 9.70711Z" fill="black"/>
<path fill-rule="evenodd" clip-rule="evenodd" d="M4 7.5C4 5.0147 6.0147 3 8.5 3C10.9853 3 13 5.0147 13 7.5C13 9.9853 10.9853 12 8.5 12C6.0147 12 4 9.9853 4 7.5Z" fill="black" fill-opacity="0.4"/>
<path fill-rule="evenodd" clip-rule="evenodd" d="M2 18C2 15.9561 3.2284 14.1006 5.0625 13.3438C5.3183 13.2385 5.5919 13.2604 5.8438 13.375C6.7598 13.792 7.6248 14 8.5 14C9.3782 13.9998 10.2402 13.8028 11.125 13.4062C11.3806 13.292 11.6803 13.2954 11.9375 13.4062C13.7648 14.1937 15 16.0042 15 18V20C15 20.5523 14.5523 21 14 21H3C2.4477 21 2 20.5523 2 20V18Z" fill="black" fill-opacity="0.4"/>
</svg>
