<svg width="24" height="24" viewBox="0 0 24 24" fill="none" xmlns="http://www.w3.org/2000/svg">
<path d="M8.00488 2C6.34798 2 5.00488 3.3431 5.00488 5V19C5.00488 20.6569 6.34798 22 8.00488 22H16.0049C17.6619 22 19.0049 20.6569 19.0049 19V5C19.0049 3.3431 17.6619 2 16.0049 2H8.00488ZM8.00488 4H16.0049C16.5569 4 17.0049 4.4477 17.0049 5V19C17.0049 19.5523 16.5569 20 16.0049 20H8.00488C7.45258 20 7.00488 19.5523 7.00488 19V5C7.00488 4.4477 7.45258 4 8.00488 4Z" fill="black"/>
<path d="M13 17C13 17.5523 12.5523 18 12 18C11.4477 18 11 17.5523 11 17C11 16.4477 11.4477 16 12 16C12.5523 16 13 16.4477 13 17Z" fill="black" fill-opacity="0.4"/>
</svg>
