<svg width="24" height="24" viewBox="0 0 24 24" fill="none" xmlns="http://www.w3.org/2000/svg">
<path d="M2 15.9951C2 17.652 3.3431 18.9951 5 18.9951H19C20.6569 18.9951 22 17.652 22 15.9951V7.99512C22 6.33812 20.6569 4.99512 19 4.99512L5 4.99512C3.3431 4.99512 2 6.33812 2 7.99512L2 15.9951ZM4 15.9951L4 7.99512C4 7.44312 4.4477 6.99512 5 6.99512L19 6.99512C19.5523 6.99512 20 7.44312 20 7.99512V15.9951C20 16.5474 19.5523 16.9951 19 16.9951H5C4.4477 16.9951 4 16.5474 4 15.9951Z" fill="black"/>
<path d="M17 11C17.5523 11 18 11.4477 18 12C18 12.5523 17.5523 13 17 13C16.4477 13 16 12.5523 16 12C16 11.4477 16.4477 11 17 11Z" fill="black" fill-opacity="0.4"/>
</svg>
