<svg width="24" height="24" viewBox="0 0 24 24" fill="none" xmlns="http://www.w3.org/2000/svg">
<path fill-rule="evenodd" clip-rule="evenodd" d="M13 17V21C13 21.5523 12.5523 22 12 22C11.4477 22 11 21.5523 11 21V17H13Z" fill="black"/>
<path d="M12 2C10.711 2 9.6 2.2086 8.6562 2.5625C8.0634 2.7848 7.6462 3.0076 7.4062 3.1875C7.1544 3.3764 7.0044 3.6374 7 4C6.9874 5.0395 6.8674 6.6058 8.9667 7.6711C8.8346 8.9166 8.4493 9.6673 7.375 10.562C7.2957 10.629 7.0082 10.868 7 10.875C5.6021 12.029 5 12.938 5 14.656V14.688C5 15.969 6.0312 17 7.3125 17C13.5186 17 11.1322 17 16.688 17C17.969 17 19 15.969 19 14.688V14.656C19 12.938 18.398 12.029 17 10.875C16.992 10.868 16.704 10.629 16.625 10.562C15.552 9.6686 15.161 8.948 15.027 7.6615C16.691 6.8441 17 5.8184 17 4C17 3.6852 16.846 3.3763 16.594 3.1875C16.354 3.0075 15.937 2.7848 15.344 2.5625C14.4 2.2086 13.289 2 12 2ZM12 4C13.045 4 13.933 4.1664 14.656 4.4375C14.806 4.4935 14.886 4.5427 14.993 4.5926C14.961 5.4534 14.663 5.7375 13.688 6.0625C13.279 6.1986 13 6.5696 13 7C13 9.439 13.752 10.741 15.375 12.094C15.461 12.165 15.747 12.404 15.75 12.406C16.733 13.218 17 13.651 17 14.656V14.688C17 14.864 16.864 15 16.688 15H7.3125C7.1358 15 7 14.864 7 14.688V14.656C7 13.651 7.2669 13.218 8.25 12.406C8.2532 12.404 8.539 12.165 8.625 12.094C10.248 10.741 11 9.4389 11 7C11 6.5696 10.721 6.1986 10.312 6.0625C9.3374 5.7375 9.0045 5.4278 9.0045 4.5848C9.1116 4.5349 9.1944 4.4935 9.3438 4.4375C10.067 4.1664 10.955 4 12 4Z" fill="black" fill-opacity="0.4"/>
</svg>
