<svg width="24" height="24" viewBox="0 0 24 24" fill="none" xmlns="http://www.w3.org/2000/svg">
<path d="M6 4C3.791 4 2 5.7909 2 8V16C2 18.209 3.791 20 6 20H18C20.209 20 22 18.209 22 16V8C22 5.7909 20.209 4 18 4H6ZM14 12H18C19.105 12 20 12.895 20 14V16C20 17.105 19.105 18 18 18H14C12.895 18 12 17.105 12 16V14C12 12.895 12.895 12 14 12Z" fill="black" fill-opacity="0.4"/>
<path d="M12 14C12 12.8954 12.8954 12 14 12H18C19.1046 12 20 12.8954 20 14V16C20 17.1046 19.1046 18 18 18H14C12.8954 18 12 17.1046 12 16V14Z" fill="black"/>
</svg>
