<svg width="24" height="24" viewBox="0 0 24 24" fill="none" xmlns="http://www.w3.org/2000/svg">
<path d="M6 4C3.791 4 2 5.7909 2 8V16C2 18.209 3.791 20 6 20H18C20.209 20 22 18.209 22 16V8C22 5.7909 20.209 4 18 4H6ZM6 6H18C19.105 6 20 6.8954 20 8V16C20 17.105 19.105 18 18 18H6C4.895 18 4 17.105 4 16V8C4 6.8954 4.895 6 6 6Z" fill="black" fill-opacity="0.4"/>
<path d="M12 13C12 12.4477 12.4477 12 13 12H17C17.5523 12 18 12.4477 18 13V15C18 15.5523 17.5523 16 17 16H13C12.4477 16 12 15.5523 12 15V13Z" fill="black"/>
</svg>
