<svg width="24" height="24" viewBox="0 0 24 24" fill="none" xmlns="http://www.w3.org/2000/svg">
<path fill-rule="evenodd" clip-rule="evenodd" d="M7 3C4.79086 3 3 4.79086 3 7V17C3 19.2091 4.79086 21 7 21H17C19.2091 21 21 19.2091 21 17V7C21 4.79086 19.2091 3 17 3H7Z" fill="black" fill-opacity="0.4"/>
<path d="M9.62645 8.15053C9.25659 8.34873 9 8.71983 9 9.24433V14.7443C9 15.7933 10.0464 16.2963 10.9104 15.8063L14.9828 13.4943C16.364 12.6393 16.3139 11.3193 14.9828 10.4943L10.9104 8.18183C10.4784 7.93693 9.9963 7.95243 9.62645 8.15053Z" fill="black"/>
</svg>
