<svg width="24" height="24" viewBox="0 0 24 24" fill="none" xmlns="http://www.w3.org/2000/svg">
<path fill-rule="evenodd" clip-rule="evenodd" d="M8 2C8.55228 2 9 2.44772 9 3V6H15V3C15 2.44772 15.4477 2 16 2C16.5523 2 17 2.44772 17 3V6H18C18.5523 6 19 6.44772 19 7V10C19 12.2091 17.2091 14 15 14H9C6.79086 14 5 12.2091 5 10V7C5 6.44772 5.44772 6 6 6H7V3C7 2.44772 7.44772 2 8 2ZM7 10V8H17V10C17 11.1046 16.1046 12 15 12H9C7.89543 12 7 11.1046 7 10Z" fill="black"/>
<path fill-rule="evenodd" clip-rule="evenodd" d="M14.3819 14H15C15.6644 14 16.2909 13.838 16.8423 13.5514L14.8944 17.4472C14.725 17.786 14.3787 18 14 18H13V18.5C13 20.433 11.433 22 9.5 22H7C6.44772 22 6 21.5523 6 21C6 20.4477 6.44772 20 7 20H9.5C10.3284 20 11 19.3284 11 18.5V18H9.99997C9.6212 18 9.27494 17.786 9.10555 17.4472L7.15765 13.5514C7.70904 13.838 8.3356 14 9 14H9.61802L10.618 16H13.3819L14.3819 14Z" fill="black" fill-opacity="0.4"/>
</svg>
