<svg width="24" height="24" viewBox="0 0 24 24" fill="none" xmlns="http://www.w3.org/2000/svg">
<path d="M6.5 3C5.948 3 5.5 3.448 5.5 4C5.5 4.552 5.948 5 6.5 5H7C7.552 5 8 4.552 8 4C8 3.448 7.552 3 7 3H6.5ZM10 3C9.448 3 9 3.448 9 4C9 4.552 9.448 5 10 5H10.5C11.052 5 11.5 4.552 11.5 4C11.5 3.448 11.052 3 10.5 3H10ZM13.5 3C12.948 3 12.5 3.448 12.5 4C12.5 4.552 12.948 5 13.5 5H14C14.552 5 15 4.552 15 4C15 3.448 14.552 3 14 3H13.5ZM17 3C16.448 3 16 3.448 16 4C16 4.552 16.448 5 17 5H17.5C18.052 5 18.5 4.552 18.5 4C18.5 3.448 18.052 3 17.5 3H17ZM3.84399 4.562C3.60599 4.657 3.39101 4.83999 3.28101 5.09399C3.18801 5.30799 3.111 5.55101 3.062 5.78101C2.949 6.32201 3.30299 6.85499 3.84399 6.96899C4.38399 7.08199 4.91801 6.728 5.03101 6.188C5.05201 6.09 5.085 5.99801 5.125 5.90601C5.345 5.40001 5.10099 4.81299 4.59399 4.59399C4.33999 4.48399 4.08199 4.468 3.84399 4.562ZM19.5 4.688C18.982 4.878 18.716 5.44999 18.906 5.96899C18.941 6.06199 18.954 6.18201 18.969 6.28101C19.052 6.82701 19.579 7.208 20.125 7.125C20.671 7.042 21.052 6.51499 20.969 5.96899C20.933 5.73599 20.862 5.50101 20.781 5.28101C20.591 4.76301 20.018 4.497 19.5 4.688ZM4 7.96899C3.448 7.96899 3 8.41599 3 8.96899V9.46899C3 10.021 3.448 10.469 4 10.469C4.552 10.469 5 10.021 5 9.46899V8.96899C5 8.41599 4.552 7.96899 4 7.96899ZM20 8.188C19.448 8.188 19 8.635 19 9.188V9.688C19 10.24 19.448 10.688 20 10.688C20.552 10.688 21 10.24 21 9.688V9.188C21 8.635 20.552 8.187 20 8.188ZM4 11.469C3.448 11.469 3 11.916 3 12.469V12.969C3 13.521 3.448 13.969 4 13.969C4.552 13.969 5 13.521 5 12.969V12.469C5 11.916 4.552 11.469 4 11.469ZM20 11.688C19.448 11.688 19 12.135 19 12.688V13.188C19 13.74 19.448 14.188 20 14.188C20.552 14.188 21 13.74 21 13.188V12.688C21 12.135 20.552 11.687 20 11.688ZM4 14.969C3.448 14.969 3 15.416 3 15.969V16.469C3 17.021 3.448 17.469 4 17.469C4.552 17.469 5 17.021 5 16.469V15.969C5 15.416 4.552 14.969 4 14.969ZM20 15.188C19.448 15.188 19 15.635 19 16.188V16.688C19 17.24 19.448 17.688 20 17.688C20.552 17.688 21 17.24 21 16.688V16.188C21 15.635 20.552 15.187 20 15.188ZM4.75 18.344C4.494 18.354 4.25 18.453 4.062 18.656C3.688 19.062 3.719 19.688 4.125 20.062C4.297 20.221 4.488 20.379 4.688 20.5C5.159 20.787 5.776 20.628 6.062 20.156C6.349 19.684 6.19099 19.068 5.71899 18.781C5.63299 18.729 5.54299 18.662 5.46899 18.594C5.26599 18.406 5.006 18.334 4.75 18.344ZM19.156 18.469C18.902 18.44 18.654 18.516 18.438 18.688C18.359 18.75 18.277 18.798 18.188 18.844C17.696 19.095 17.499 19.696 17.75 20.188C18.001 20.679 18.602 20.876 19.094 20.625C19.302 20.519 19.505 20.396 19.688 20.25C20.12 19.906 20.188 19.276 19.844 18.844C19.672 18.628 19.411 18.498 19.156 18.469ZM8.15601 19C7.60401 19 7.15601 19.448 7.15601 20C7.15601 20.552 7.60401 21 8.15601 21H8.65601C9.20901 21 9.65601 20.552 9.65601 20C9.65601 19.448 9.20901 19 8.65601 19H8.15601ZM11.656 19C11.104 19 10.656 19.448 10.656 20C10.656 20.552 11.104 21 11.656 21H12.156C12.709 21 13.156 20.552 13.156 20C13.156 19.448 12.709 19 12.156 19H11.656ZM15.156 19C14.604 19 14.156 19.448 14.156 20C14.156 20.552 14.604 21 15.156 21H15.656C16.209 21 16.656 20.552 16.656 20C16.656 19.448 16.209 19 15.656 19H15.156Z" fill="black" fill-opacity="0.4"/>
<path fill-rule="evenodd" clip-rule="evenodd" d="M13 8C13 7.44772 12.5523 7 12 7C11.4477 7 11 7.44772 11 8V11H8C7.44772 11 7 11.4477 7 12C7 12.5523 7.44772 13 8 13H11V16C11 16.5523 11.4477 17 12 17C12.5523 17 13 16.5523 13 16V13H16C16.5523 13 17 12.5523 17 12C17 11.4477 16.5523 11 16 11H13V8Z" fill="black"/>
</svg>
