<svg width="24" height="24" viewBox="0 0 24 24" fill="none" xmlns="http://www.w3.org/2000/svg">
<path d="M11.9382 2.00355C11.3862 2.00655 10.9356 2.45142 10.9386 3.00325C10.9416 3.55509 11.4174 4.00595 11.9695 4.00295C11.9909 4.00295 12.273 3.99596 12.4068 4.00295C12.9583 4.02994 13.4104 3.61707 13.4377 3.06523C13.465 2.5144 13.0519 2.03055 12.5005 2.00355C12.3338 1.99556 11.9649 2.00355 11.9382 2.00355ZM8.75195 2.5344C8.57661 2.59538 8.39238 2.68335 8.22094 2.75333C7.70974 2.96227 7.48122 3.5231 7.68985 4.03395C7.89847 4.5458 8.45945 4.80471 8.97066 4.59677C9.10761 4.54079 9.26795 4.48881 9.4079 4.44082C9.93 4.26088 10.1811 3.68106 10.0015 3.15921C9.82184 2.63737 9.27395 2.35545 8.75195 2.5344ZM14.9996 2.72233C14.7693 2.8243 14.5726 3.02825 14.4686 3.28418C14.2606 3.79602 14.4882 4.38883 14.9996 4.59677C15.1367 4.65275 15.2719 4.68975 15.4056 4.75273C15.9047 4.98866 16.5127 4.78272 16.7489 4.28387C16.9851 3.78502 16.7793 3.20819 16.2803 2.97226C16.113 2.89228 15.921 2.79231 15.7493 2.72233C15.4936 2.61836 15.2299 2.61936 14.9996 2.72233ZM6.03417 4.31486C5.77877 4.30186 5.52086 4.38084 5.31574 4.56478C5.17819 4.68874 5.04014 4.80871 4.90959 4.94067C4.52034 5.33156 4.51824 5.98736 4.90959 6.37724C5.30105 6.76612 5.92611 6.73712 6.31536 6.34624C6.41992 6.24127 6.54878 6.1643 6.65893 6.06433C7.06928 5.69544 7.09077 5.03764 6.72151 4.62776C6.53678 4.42283 6.28967 4.32885 6.03417 4.31486ZM18.3108 4.59677C18.055 4.59877 17.7859 4.68075 17.5924 4.87769C17.2052 5.27157 17.2301 5.92737 17.6236 6.31425C17.7293 6.41922 17.8049 6.5172 17.9047 6.62716C18.2764 7.03504 18.9334 7.06104 19.3418 6.69015C19.75 6.31826 19.7758 5.69245 19.4041 5.28357C19.2796 5.14662 19.13 5.00765 18.9981 4.87769C18.8014 4.68375 18.5666 4.59477 18.3108 4.59677ZM3.5664 7.15801C3.32499 7.24298 3.09238 7.44092 2.97292 7.68985C2.89265 7.8568 2.82498 8.01775 2.7542 8.1897C2.54338 8.69954 2.775 9.29036 3.28521 9.5013C3.79551 9.71224 4.38649 9.44932 4.59731 8.93947C4.65379 8.80251 4.72066 8.66656 4.78464 8.5326C5.02365 8.03475 4.81383 7.45991 4.31612 7.22098C4.06731 7.10102 3.80781 7.07304 3.5664 7.15801ZM19.9352 7.62686C19.4252 7.8388 19.1927 8.42863 19.4041 8.93947C19.4608 9.07543 19.5114 9.20538 19.5604 9.34534C19.7429 9.86618 20.2889 10.1521 20.8099 9.97015C21.3309 9.78721 21.6173 9.21039 21.4347 8.68955C21.3734 8.5136 21.3181 8.36065 21.2472 8.1897C21.0358 7.67885 20.4452 7.41493 19.9352 7.62686ZM3.06659 10.501C2.51529 10.471 2.03468 10.8869 2.00449 11.4387C1.99439 11.6227 2.00449 11.8156 2.00449 12.0005C2.00449 12.0715 2.00299 12.1475 2.00449 12.2195C2.01628 12.7713 2.48341 13.1992 3.0353 13.1882C3.58729 13.1762 4.01553 12.7403 4.00373 12.1885C4.00253 12.1305 4.00373 12.0575 4.00373 12.0005C4.00373 11.8516 3.99564 11.7106 4.00373 11.5627C4.03392 11.0118 3.61788 10.531 3.06659 10.501ZM20.9973 10.9069C20.4452 10.9129 19.9918 11.3547 19.9977 11.9066C19.9981 11.9496 20.003 12.2245 19.9977 12.3444C19.9734 12.8953 20.3833 13.3821 20.9349 13.4061C21.4863 13.4311 21.9727 12.9893 21.997 12.4384C22.0036 12.2885 21.9975 11.9606 21.997 11.9066C21.9911 11.3547 21.5494 10.9009 20.9973 10.9069ZM3.19154 14.1249C2.67264 14.3139 2.40953 14.8867 2.59806 15.4055C2.66134 15.5805 2.74381 15.7664 2.81668 15.9374C3.0339 16.4442 3.62108 16.6851 4.12869 16.4682C4.6363 16.2503 4.87691 15.6635 4.65969 15.1556C4.60151 15.0196 4.52284 14.8577 4.47236 14.7187C4.28383 14.1999 3.71044 13.936 3.19154 14.1249ZM19.9665 14.4058C19.736 14.5078 19.538 14.7117 19.4354 14.9686C19.3804 15.1056 19.3106 15.2406 19.248 15.3745C19.0145 15.8744 19.2475 16.4842 19.7478 16.7181C20.2481 16.9511 20.8263 16.7181 21.0598 16.2183C21.1381 16.0503 21.2097 15.8904 21.2784 15.7184C21.4836 15.2056 21.2287 14.6108 20.7162 14.4058C20.4599 14.3039 20.1969 14.3039 19.9665 14.4058ZM5.44069 17.124C5.18499 17.115 4.92439 17.217 4.72226 17.4049C4.31792 17.7808 4.31502 18.4066 4.69097 18.8105C4.81693 18.9465 4.93258 19.0884 5.06583 19.2174C5.46358 19.6003 6.08865 19.5833 6.4716 19.1864C6.85446 18.7885 6.83807 18.1317 6.44032 17.7488C6.33356 17.6458 6.2289 17.5449 6.12793 17.4369C5.9399 17.234 5.6964 17.133 5.44069 17.124ZM18.4358 17.28C18.18 17.284 17.9098 17.3949 17.7174 17.5929C17.614 17.6988 17.5139 17.7738 17.4049 17.8738C16.9986 18.2477 16.9686 18.9045 17.3425 19.3103C17.7163 19.7172 18.3731 19.7472 18.7794 19.3733C18.9155 19.2484 19.0253 19.0994 19.1542 18.9674C19.5393 18.5716 19.5499 17.9468 19.1542 17.5609C18.9565 17.3689 18.6916 17.277 18.4358 17.28ZM7.90846 19.2484C7.66855 19.3373 7.46163 19.4973 7.34627 19.7482C7.11546 20.2501 7.31329 20.8609 7.8148 21.0918C7.98303 21.1688 8.17346 21.2428 8.3459 21.3097C8.8595 21.5127 9.42429 21.2618 9.62662 20.7479C9.82894 20.2341 9.57803 19.6383 9.06433 19.4363C8.92658 19.3813 8.79263 19.3413 8.65818 19.2794C8.40748 19.1644 8.14847 19.1594 7.90846 19.2484ZM15.0934 19.3733C14.957 19.4303 14.8267 19.4793 14.6872 19.5293C14.1672 19.7152 13.9082 20.2901 14.0937 20.8099C14.2792 21.3307 14.8544 21.5897 15.3744 21.4037C15.5491 21.3417 15.7036 21.2887 15.8743 21.2168C16.3831 21.0018 16.6196 20.413 16.4053 19.9042C16.191 19.3953 15.6021 19.1594 15.0934 19.3733ZM11.6883 19.9981C11.1366 19.9771 10.6789 20.415 10.6574 20.9668C10.636 21.5187 11.043 21.9765 11.5947 21.9975C11.7261 22.0025 12.0768 21.9985 12.1569 21.9975C12.709 21.9885 13.1654 21.5187 13.1565 20.9668C13.1477 20.415 12.6777 19.9891 12.1257 19.9981C12.0613 19.9991 11.7939 20.0021 11.6883 19.9981Z" fill="black" fill-opacity="0.4"/>
<path fill-rule="evenodd" clip-rule="evenodd" d="M13 8C13 7.44772 12.5523 7 12 7C11.4477 7 11 7.44772 11 8V11H8C7.44772 11 7 11.4477 7 12C7 12.5523 7.44772 13 8 13H11V16C11 16.5523 11.4477 17 12 17C12.5523 17 13 16.5523 13 16V13H16C16.5523 13 17 12.5523 17 12C17 11.4477 16.5523 11 16 11H13V8Z" fill="black"/>
</svg>
