<svg width="24" height="24" viewBox="0 0 24 24" fill="none" xmlns="http://www.w3.org/2000/svg">
<path fill-rule="evenodd" clip-rule="evenodd" d="M9 3C7.89543 3 7 3.89543 7 5V7H9V5H15V7H17V5C17 3.89543 16.1046 3 15 3H9ZM17 19V13C17.5523 13 18 12.5523 18 12C18 11.4477 17.5523 11 17 11H7C6.44772 11 6 11.4477 6 12C6 12.5523 6.44772 13 7 13V19C7 20.1046 7.89543 21 9 21H15C16.1046 21 17 20.1046 17 19Z" fill="black"/>
<path d="M2 10C2 8.34315 3.34315 7 5 7H19C20.6569 7 22 8.34315 22 10V15C22 16.6569 20.6569 18 19 18H17V13C17.5523 13 18 12.5523 18 12C18 11.4477 17.5523 11 17 11H7C6.44772 11 6 11.4477 6 12C6 12.5523 6.44772 13 7 13V18H5C3.34315 18 2 16.6569 2 15V10Z" fill="black" fill-opacity="0.4"/>
</svg>
