<svg width="24" height="24" viewBox="0 0 24 24" fill="none" xmlns="http://www.w3.org/2000/svg">
<path d="M13 2C11.343 2 10 3.343 10 5H8.0312C6.3617 5 5 6.36201 5 8.03101V10C3.3431 10 2 11.343 2 13C2 14.657 3.3431 16 5 16V17.969C5 19.638 6.3618 21 8.0312 21H11C11.552 21 12 20.552 12 20V19C12 18.448 12.448 18 13 18C13.552 18 14 18.448 14 19V20C14 20.552 14.448 21 15 21H17.969C19.638 21 21 19.638 21 17.969V15C21 14.448 20.552 14 20 14H19C18.448 14 18 13.552 18 13C18 12.448 18.448 12 19 12H20C20.552 12 21 11.552 21 11V8.03101C21 6.36201 19.638 5 17.969 5H16C16 3.343 14.657 2 13 2ZM13 4C13.552 4 14 4.448 14 5V6C14 6.552 14.448 7 15 7H17.969C18.534 7 19 7.46601 19 8.03101V10C17.343 10 16 11.343 16 13C16 14.657 17.343 16 19 16V17.969C19 18.534 18.534 19 17.969 19H16C16 17.343 14.657 16 13 16C11.343 16 10 17.343 10 19H8.0312C7.4663 19 7 18.534 7 17.969V15C7 14.448 6.5523 14 6 14H5C4.4477 14 4 13.552 4 13C4 12.448 4.4477 12 5 12H6C6.5523 12 7 11.552 7 11V8.03101C7 7.46601 7.4663 7 8.0312 7H11C11.552 7 12 6.552 12 6V5C12 4.448 12.448 4 13 4Z" fill="black"/>
</svg>
