<svg width="24" height="24" viewBox="0 0 24 24" fill="none" xmlns="http://www.w3.org/2000/svg">
<path fill-rule="evenodd" clip-rule="evenodd" d="M3 7C3 4.791 4.7909 3 7 3H20C20.5523 3 21 3.448 21 4V10H16V7C16 6.44772 15.5523 6 15 6C14.4477 6 14 6.44772 14 7V10H12V7C12 6.44772 11.5523 6 11 6C10.4477 6 10 6.44772 10 7V10H7C6.44772 10 6 10.4477 6 11C6 11.5523 6.44772 12 7 12H10V14H7C6.44772 14 6 14.4477 6 15C6 15.5523 6.44772 16 7 16H10V21H4C3.4477 21 3 20.552 3 20V7Z" fill="black" fill-opacity="0.4"/>
<path fill-rule="evenodd" clip-rule="evenodd" d="M15 6C15.5523 6 16 6.44772 16 7V10H21V12H12V21H10V16H7C6.44772 16 6 15.5523 6 15C6 14.4477 6.44772 14 7 14H10V12H7C6.44772 12 6 11.5523 6 11C6 10.4477 6.44772 10 7 10H10V7C10 6.44772 10.4477 6 11 6C11.5523 6 12 6.44772 12 7V10H14V7C14 6.44772 14.4477 6 15 6Z" fill="black"/>
</svg>
