<svg width="24" height="24" viewBox="0 0 24 24" fill="none" xmlns="http://www.w3.org/2000/svg">
<path fill-rule="evenodd" clip-rule="evenodd" d="M12 7C12 6.44772 11.5523 6 11 6C10.4477 6 10 6.44772 10 7V8H9C8.44772 8 8 8.44772 8 9C8 9.55228 8.44772 10 9 10H10V12H9C8.44772 12 8 12.4477 8 13C8 13.5523 8.44772 14 9 14H10V16H9C8.44772 16 8 16.4477 8 17C8 17.5523 8.44772 18 9 18H10V22H12V10H20V8H16V7C16 6.44772 15.5523 6 15 6C14.4477 6 14 6.44772 14 7V8H12V7Z" fill="black"/>
<path fill-rule="evenodd" clip-rule="evenodd" d="M8 4C6.89543 4 6 4.89543 6 6V20H10V22H5C4.44772 22 4 21.5523 4 21V6C4 3.79086 5.79086 2 8 2H19C19.5523 2 20 2.44772 20 3V8H18V4H8Z" fill="black" fill-opacity="0.4"/>
</svg>
