<svg width="24" height="24" viewBox="0 0 24 24" fill="none" xmlns="http://www.w3.org/2000/svg">
<path fill-rule="evenodd" clip-rule="evenodd" d="M9.94004 11.8703L8.53137 10.6964C9.82772 10.1587 10.7801 8.95895 10.9666 7.51894L13.0826 9.28227L17.7286 5.4562C18.5812 4.75401 19.8417 4.87599 20.5438 5.72864C21.246 6.58129 21.124 7.84173 20.2714 8.54392L16.2101 11.8885L20.2803 15.2804C21.1289 15.9875 21.2435 17.2486 20.5364 18.0972C19.8293 18.9457 18.5682 19.0604 17.7196 18.3533L13.0675 14.4765L10.9276 16.2388C10.6555 14.826 9.63997 13.6779 8.3042 13.2174L9.94004 11.8703ZM13 13C13.5523 13 14 12.5523 14 12C14 11.4477 13.5523 11 13 11C12.4477 11 12 11.4477 12 12C12 12.5523 12.4477 13 13 13Z" fill="black" fill-opacity="0.4"/>
<path fill-rule="evenodd" clip-rule="evenodd" d="M9 7C9 8.10457 8.10457 9 7 9C5.89543 9 5 8.10457 5 7C5 5.89543 5.89543 5 7 5C8.10457 5 9 5.89543 9 7ZM11 7C11 9.20914 9.20914 11 7 11C4.79086 11 3 9.20914 3 7C3 4.79086 4.79086 3 7 3C9.20914 3 11 4.79086 11 7ZM9 17C9 18.1046 8.10457 19 7 19C5.89543 19 5 18.1046 5 17C5 15.8954 5.89543 15 7 15C8.10457 15 9 15.8954 9 17ZM11 17C11 19.2091 9.20914 21 7 21C4.79086 21 3 19.2091 3 17C3 14.7909 4.79086 13 7 13C9.20914 13 11 14.7909 11 17Z" fill="black"/>
</svg>
