<svg width="24" height="24" viewBox="0 0 24 24" fill="none" xmlns="http://www.w3.org/2000/svg">
<path fill-rule="evenodd" clip-rule="evenodd" d="M16.7782 2.89592C17.9727 1.70136 19.9095 1.70136 21.1041 2.89592C22.2986 4.09049 22.2986 6.02726 21.1041 7.22183L17.2218 11.1041C16.0273 12.2986 14.0905 12.2986 12.8959 11.1041C11.7014 9.90951 11.7014 7.97274 12.8959 6.77817L16.7782 2.89592Z" fill="black" fill-opacity="0.4"/>
<path fill-rule="evenodd" clip-rule="evenodd" d="M12.3048 10.274L12.2776 10.301L7.57459 14.9922H6.01209C5.69739 14.9922 5.38849 15.1461 5.19959 15.3979L2.19959 19.3955C1.90109 19.7933 1.94149 20.3559 2.29339 20.7077L3.29339 21.7071C3.64529 22.0589 4.20779 22.0989 4.60589 21.8L8.60589 18.8019C8.85769 18.614 9.01209 18.3052 9.01209 17.9904L8.99489 16.4053L13.7052 11.7062L13.7193 11.6921C13.4219 11.5472 13.143 11.3512 12.8959 11.1041C12.647 10.8552 12.4499 10.574 12.3048 10.274Z" fill="black"/>
</svg>
