<svg width="24" height="24" viewBox="0 0 24 24" fill="none" xmlns="http://www.w3.org/2000/svg">
<path d="M11.625 2.081C10.746 2.456 5.47199 4.70701 4.59399 5.082C4.22499 5.239 4 5.58701 4 5.98801C4 10.368 4.17499 12.328 4.96899 14.585C6.00799 17.54 8.048 19.895 11.5 21.868C11.807 22.044 12.193 22.044 12.5 21.868C15.983 19.877 18.032 17.53 19.062 14.585C19.846 12.344 20 10.48 20 5.98801C20 5.58901 19.773 5.24 19.406 5.082L12.438 2.081C12.186 1.973 11.877 1.973 11.625 2.081Z" fill="black" fill-opacity="0.4"/>
<path fill-rule="evenodd" clip-rule="evenodd" d="M11 13C11 13.5523 11.4477 14 12 14C12.5523 14 13 13.5523 13 13V12H14C14.5523 12 15 11.5523 15 11C15 10.4477 14.5523 10 14 10H13V9C13 8.44772 12.5523 8 12 8C11.4477 8 11 8.44772 11 9V10H10C9.44772 10 9 10.4477 9 11C9 11.5523 9.44772 12 10 12H11V13Z" fill="black"/>
</svg>
