<svg width="24" height="24" viewBox="0 0 24 24" fill="none" xmlns="http://www.w3.org/2000/svg">
<path d="M11.625 2.081C10.746 2.456 5.47199 4.70701 4.59399 5.082C4.22499 5.239 4 5.58701 4 5.98801C4 10.368 4.17499 12.328 4.96899 14.585C6.00799 17.54 8.048 19.895 11.5 21.868C11.807 22.044 12.193 22.044 12.5 21.868C15.983 19.877 18.032 17.53 19.062 14.585C19.846 12.344 20 10.48 20 5.98801C20 5.58901 19.773 5.24 19.406 5.082L12.438 2.081C12.186 1.973 11.877 1.973 11.625 2.081Z" fill="black" fill-opacity="0.4"/>
<path d="M10.0076 8C9.75261 8 9.48564 8.08584 9.29138 8.28047C8.90287 8.67072 8.90287 9.32545 9.29138 9.71571L10.5675 10.9943L9.29138 12.2728C8.90287 12.6631 8.90287 13.3178 9.29138 13.7081C9.68089 14.0973 10.3344 14.0973 10.7239 13.7081L12 12.4295L13.2761 13.7081C13.6656 14.0973 14.3191 14.0973 14.7086 13.7081C15.0971 13.3178 15.0971 12.6631 14.7086 12.2728L13.4325 10.9943L14.7086 9.71571C15.0971 9.32545 15.0971 8.67072 14.7086 8.28047C14.5134 8.08584 14.2474 8 13.9924 8C13.7373 8 13.4714 8.08584 13.2761 8.28047L12 9.55902L10.7239 8.28047C10.5286 8.08584 10.2627 8 10.0076 8Z" fill="black"/>
</svg>
