<svg width="24" height="24" viewBox="0 0 24 24" fill="none" xmlns="http://www.w3.org/2000/svg">
<path fill-rule="evenodd" clip-rule="evenodd" d="M4 10.1614V18.9999C3.44772 18.9999 3 19.4476 3 19.9999C3 20.5522 3.44772 20.9999 4 20.9999H20C20.5523 20.9999 21 20.5522 21 19.9999C21 19.4476 20.5523 18.9999 20 18.9999V10.1614C19.4895 10.6381 18.7824 10.9999 18 10.9999V18.9999H6V10.9999C5.21763 10.9999 4.51049 10.6381 4 10.1614Z" fill="black" fill-opacity="0.4"/>
<path fill-rule="evenodd" clip-rule="evenodd" d="M5.10557 3.55279C5.27496 3.214 5.62123 3 6 3H18C18.3788 3 18.725 3.214 18.8944 3.55279L20.8944 7.55279C20.9639 7.69164 21 7.84476 21 8C21 8.82523 20.5975 9.56676 20.0821 10.0821C19.5668 10.5975 18.8252 11 18 11C17.2176 11 16.5105 10.6382 16 10.1614C15.4895 10.6382 14.7824 11 14 11C13.2176 11 12.5105 10.6382 12 10.1614C11.4895 10.6382 10.7824 11 10 11C9.21763 11 8.51049 10.6382 8 10.1614C7.48951 10.6382 6.78237 11 6 11C5.17477 11 4.43324 10.5975 3.91789 10.0821C3.40255 9.56676 3 8.82523 3 8C3 7.84476 3.03615 7.69164 3.10557 7.55279L5.10557 3.55279ZM9 8C9 8.17477 9.09745 8.43324 9.33211 8.66789C9.56676 8.90255 9.82523 9 10 9C10.1748 9 10.4332 8.90255 10.6679 8.66789C10.9025 8.43324 11 8.17477 11 8C11 7.44772 11.4477 7 12 7C12.5523 7 13 7.44772 13 8C13 8.17477 13.0975 8.43324 13.3321 8.66789C13.5668 8.90255 13.8252 9 14 9C14.1748 9 14.4332 8.90255 14.6679 8.66789C14.9025 8.43324 15 8.17477 15 8C15 7.44772 15.4477 7 16 7C16.5523 7 17 7.44772 17 8C17 8.17477 17.0975 8.43324 17.3321 8.66789C17.5668 8.90255 17.8252 9 18 9C18.1748 9 18.4332 8.90255 18.6679 8.66789C18.8312 8.50462 18.928 8.32983 18.9718 8.17972L17.382 5H6.61803L5.02818 8.17972C5.07199 8.32983 5.16884 8.50462 5.33211 8.66789C5.56676 8.90255 5.82523 9 6 9C6.17477 9 6.43324 8.90255 6.66789 8.66789C6.90255 8.43324 7 8.17477 7 8C7 7.44772 7.44772 7 8 7C8.55228 7 9 7.44772 9 8ZM11 15C10.4477 15 10 15.4477 10 16V19H8V16C8 14.3431 9.34315 13 11 13C12.6569 13 14 14.3431 14 16V19H12V16C12 15.4477 11.5523 15 11 15ZM16 14C16.5523 14 17 13.5523 17 13C17 12.4477 16.5523 12 16 12C15.4477 12 15 12.4477 15 13C15 13.5523 15.4477 14 16 14Z" fill="black"/>
</svg>
