<svg width="24" height="24" viewBox="0 0 24 24" fill="none" xmlns="http://www.w3.org/2000/svg">
<path d="M7.99583 17C7.44354 17 6.99998 16.5536 7.00007 16.0013C7.00031 14.6377 7.00111 12.3118 7.00376 11.8763C6.67936 11.9546 6.34451 12 6 12C5.292 12 4.618 11.832 4 11.562C4 14.433 4 17.477 4 19H12H20V11.562C19.379 11.836 18.708 12 18 12C17.6566 12 17.3232 11.9544 17 11.8763C17 12.3356 17 14.6261 17 16.0012C17 16.5535 16.556 17 16.0037 17C14.0614 17 9.90473 17 7.99583 17Z" fill="black" fill-opacity="0.4"/>
<path fill-rule="evenodd" clip-rule="evenodd" d="M6 3C5.621 3 5.26299 3.22401 5.09399 3.56201L3 7C3.036 8.886 4.525 10 6 10C6.778 10 7.467 9.70499 8 9.21899C8.533 9.70499 9.222 10 10 10C10.778 10 11.467 9.70499 12 9.21899C12.533 9.70499 13.222 10 14 10C14.778 10 15.467 9.736 16 9.25C16.533 9.736 17.222 10 18 10C19.475 10 20.991 8.848 21 7L18.906 3.56201C18.737 3.22401 18.379 3 18 3H6ZM3 20C3 19.4477 3.44772 19 4 19H20C20.5523 19 21 19.4477 21 20C21 20.5523 20.5523 21 20 21H4C3.44772 21 3 20.5523 3 20ZM7.00379 11.8763C7.34796 11.7932 8.00003 11.531 8.00003 11.531C8.00003 11.531 9.29003 12 10 12C10.71 12 11.374 11.806 12 11.531C12.62 11.806 13.29 12 14 12C14.711 12 15.377 11.805 16 11.531C16.3217 11.6725 16.655 11.7929 17 11.8763V16.0013C17 16.5536 16.5523 17 16 17H8.00074C7.44817 17 7.00033 16.5518 7.00074 15.9993L7.00379 11.8763Z" fill="black"/>
</svg>
