<svg width="24" height="24" viewBox="0 0 24 24" fill="none" xmlns="http://www.w3.org/2000/svg">
<path fill-rule="evenodd" clip-rule="evenodd" d="M12 2C10.8954 2 10 2.89543 10 4H14C14 2.89543 13.1046 2 12 2ZM12 22C10.8954 22 10 21.1046 10 20V14H14V20C14 21.1046 13.1046 22 12 22Z" fill="black" fill-opacity="0.4"/>
<path fill-rule="evenodd" clip-rule="evenodd" d="M17 4H10V8H7C6.73478 8 6.48043 8.10536 6.29289 8.29289L4.29289 10.2929C3.90237 10.6834 3.90237 11.3166 4.29289 11.7071L6.29289 13.7071C6.48043 13.8946 6.73478 14 7 14H14V10H17C17.2652 10 17.5196 9.89464 17.7071 9.70711L19.7071 7.70711C20.0976 7.31658 20.0976 6.68342 19.7071 6.29289L17.7071 4.29289C17.5196 4.10536 17.2652 4 17 4ZM12 10H10H7.41421L6.41421 11L7.41421 12H12V10ZM14 8H16.5858L17.5858 7L16.5858 6H12V8H14Z" fill="black"/>
</svg>
