<svg width="24" height="24" viewBox="0 0 24 24" fill="none" xmlns="http://www.w3.org/2000/svg">
<path fill-rule="evenodd" clip-rule="evenodd" d="M12 2C10.8954 2 10 2.89543 10 4V6H14V4C14 2.89543 13.1046 2 12 2ZM12 22C10.8954 22 10 21.1046 10 20V14H14V20C14 21.1046 13.1046 22 12 22Z" fill="black" fill-opacity="0.4"/>
<path fill-rule="evenodd" clip-rule="evenodd" d="M4 8C4 6.89543 4.89543 6 6 6H17C17.2652 6 17.5196 6.10536 17.7071 6.29289L20.7071 9.29289C21.0976 9.68342 21.0976 10.3166 20.7071 10.7071L17.7071 13.7071C17.5196 13.8946 17.2652 14 17 14H6C4.89543 14 4 13.1046 4 12V8ZM16.5858 8H6V12H16.5858L18.5858 10L16.5858 8Z" fill="black"/>
</svg>
