<svg width="24" height="24" viewBox="0 0 24 24" fill="none" xmlns="http://www.w3.org/2000/svg">
<path d="M11.9998 2C10.8948 2 9.99976 2.90116 9.99976 4H13.9998C13.9998 2.90116 13.1048 2 11.9998 2ZM9.99976 14V19.6361C9.99976 20.8852 10.8138 22 11.9998 22C13.1858 22 13.9998 20.8852 13.9998 19.6361V14H9.99976Z" fill="black" fill-opacity="0.4"/>
<path fill-rule="evenodd" clip-rule="evenodd" d="M7 4H18L20 6L18 8H7C6.44772 8 6 7.55228 6 7V5C6 4.44772 6.44772 4 7 4ZM17 10H6L4 12L6 14H17C17.5523 14 18 13.5523 18 13V11C18 10.4477 17.5523 10 17 10Z" fill="black"/>
</svg>
