<svg width="24" height="24" viewBox="0 0 24 24" fill="none" xmlns="http://www.w3.org/2000/svg">
<path d="M7.15601 2C5.40701 2 4 3.40701 4 5.15601V18.844C4 20.593 5.40701 22 7.15601 22H16.844C18.593 22 20 20.593 20 18.844V7C20 6.735 19.906 6.46901 19.719 6.28101L15.719 2.28101C15.531 2.09401 15.265 2 15 2H7.15601ZM7.15601 4H14.562L18 7.43799V18.844C18 19.488 17.489 20 16.844 20H7.15601C6.51201 20 6 19.488 6 18.844V5.15601C6 4.51201 6.51101 4 7.15601 4Z" fill="black" fill-opacity="0.4"/>
<path d="M9 10C8.44772 10 8 10.4467 8 10.999C8 12.8418 8 16.6233 8 17C8 17.552 8.448 18 9 18H15C15.552 18 16 17.552 16 17V11C16 10.4477 15.5523 10 15 10H9ZM10 12H14V16H10C10 15.477 10 12.714 10 12Z" fill="black"/>
</svg>
