<svg width="24" height="24" viewBox="0 0 24 24" fill="none" xmlns="http://www.w3.org/2000/svg">
<path fill-rule="evenodd" clip-rule="evenodd" d="M21 4C20.4477 4 20 4.44772 20 5V19C20 19.5523 20.4477 20 21 20C21.5523 20 22 19.5523 22 19V5C22 4.44772 21.5523 4 21 4Z" fill="black"/>
<path d="M20 13.313L12.719 19.7191C12.719 19.7191 12.462 20.0031 12 20.0001C11.456 19.9971 11 19.5251 11 19.0001C11 18.8681 11 16.0041 11 13.313L3.71898 19.7191C3.71898 19.7191 3.46199 20.0031 2.99999 20.0001C2.45599 19.9971 1.99999 19.5251 1.99999 19.0001C1.99999 18.6741 1.99999 5.26901 1.99999 5.00001C2.02399 4.44801 2.40399 4.001 2.99999 4C3.43099 3.999 3.71898 4.28101 3.71898 4.28101L11 10.688C11 8.00001 11 5.10901 11 5.00001C11.024 4.44801 11.404 4.001 12 4C12.431 3.999 12.719 4.28101 12.719 4.28101L20 10.688V13.313Z" fill="black" fill-opacity="0.4"/>
</svg>
