<svg width="24" height="24" viewBox="0 0 24 24" fill="none" xmlns="http://www.w3.org/2000/svg">
<path d="M18 4C20.209 4 22 5.791 22 8V16C22 18.209 20.209 20 18 20H6C3.791 20 2 18.209 2 16V8C2 5.791 3.791 4 6 4H18Z" fill="black" fill-opacity="0.4"/>
<path d="M17 8.00561C17.552 8.00561 18 8.45298 18 9.0042V14.9958C18 15.547 17.552 15.9944 17 15.9944C16.448 15.9944 16 15.547 16 14.9958V12.718L11.719 15.8696C11.325 16.1572 11 15.9504 11 15.4332V12.718L6.71899 15.8696C6.32499 16.1572 6 15.9504 6 15.4332V8.56683C6 8.04956 6.32499 7.84283 6.71899 8.13043L11 11.282V8.56683C11 8.04956 11.325 7.84283 11.719 8.13043L16 11.282V9.0042C16 8.45298 16.448 8.00561 17 8.00561Z" fill="black"/>
</svg>
