<svg width="24" height="24" viewBox="0 0 24 24" fill="none" xmlns="http://www.w3.org/2000/svg">
<path opacity="0.996154" d="M21 4C21.552 4 22 4.448 22 5.00001V19.0001C22 19.5521 21.552 20.0001 21 20.0001C20.448 20.0001 20 19.5521 20 19.0001V5.00001C20 4.448 20.448 4 21 4Z" fill="black" fill-opacity="0.4"/>
<path opacity="0.996154" d="M12.0202 4C12.4521 3.999 12.7406 4.28101 12.7406 4.28101L18.7528 11.3121C19.0824 11.6961 19.0824 12.305 18.7528 12.688L12.7406 19.7191C12.7406 19.7191 12.4831 20.0031 12.0202 20.0001C11.4751 19.9971 11.0182 19.5251 11.0182 19.0001C11.0182 18.6741 11.0182 5.26901 11.0182 5.00001C11.0422 4.44801 11.423 4.001 12.0202 4ZM3.00202 4C3.43389 3.999 3.72246 4.28101 3.72246 4.28101L9.73458 11.3121C10.0642 11.6961 10.0642 12.305 9.73458 12.688L3.72246 19.7191C3.72246 19.7191 3.46495 20.0031 3.00202 20.0001C2.45692 19.9971 2 19.5251 2 19.0001C2 18.6741 2 5.26901 2 5.00001C2.02405 4.44801 2.40481 4.001 3.00202 4Z" fill="black"/>
</svg>
