<svg width="24" height="24" viewBox="0 0 24 24" fill="none" xmlns="http://www.w3.org/2000/svg">
<path d="M12 2C6.477 2 2 6.477 2 12C2 17.523 6.477 22 12 22C17.523 22 22 17.523 22 12C22 6.477 17.523 2 12 2ZM12 4C16.418 4 20 7.582 20 12C20 16.418 16.418 20 12 20C7.582 20 4 16.418 4 12C4 7.582 7.582 4 12 4Z" fill="black" fill-opacity="0.4"/>
<path d="M8 9.00773C7.448 9.00773 7 9.45457 7 10.0052V13.9948C7 14.5454 7.448 14.9923 8 14.9923C8.552 14.9923 9 14.5454 9 13.9948V12.6543L12.406 14.8985C12.734 15.114 13 14.9753 13 14.5873V12.6543L16.406 14.8985C16.734 15.114 17 14.9753 17 14.5873V9.41269C17 9.02469 16.734 8.88604 16.406 9.10148L13 11.3457V9.41269C13 9.02469 12.734 8.88604 12.406 9.10148L9 11.3457V10.0052C9 9.45457 8.552 9.00773 8 9.00773Z" fill="black"/>
</svg>
