<svg width="24" height="24" viewBox="0 0 24 24" fill="none" xmlns="http://www.w3.org/2000/svg">
<path d="M12 2C17.523 2 22 6.477 22 12C22 17.523 17.523 22 12 22C6.477 22 2 17.523 2 12C2 6.477 6.477 2 12 2Z" fill="black" fill-opacity="0.4"/>
<path d="M16 9.00773C16.552 9.00773 17 9.45457 17 10.0052V13.9948C17 14.5454 16.552 14.9923 16 14.9923C15.448 14.9923 15 14.5454 15 13.9948V12.6543L11.594 14.8985C11.266 15.114 11 14.9753 11 14.5873V12.6543L7.59399 14.8985C7.26599 15.114 7 14.9753 7 14.5873V9.41269C7 9.02469 7.26599 8.88604 7.59399 9.10148L11 11.3457V9.41269C11 9.02469 11.266 8.88604 11.594 9.10148L15 11.3457V10.0052C15 9.45457 15.448 9.00773 16 9.00773Z" fill="black"/>
</svg>
