<svg width="24" height="24" viewBox="0 0 24 24" fill="none" xmlns="http://www.w3.org/2000/svg">
<path d="M10 2C8.8954 2 8 2.895 8 4C8 5.105 8.8954 6 10 6C10.5647 6 12 6 12 6C12 6 12 4.54 12 4C12 2.895 11.1046 2 10 2ZM20 8C18.8954 8 18 8.895 18 10C18 10.565 18 12 18 12C18 12 19.4601 12 20 12C21.1046 12 22 11.105 22 10C22 8.895 21.1046 8 20 8ZM4 12C2.8954 12 2 12.895 2 14C2 15.105 2.8954 16 4 16C5.1046 16 6 15.105 6 14C6 13.435 6 12 6 12C6 12 4.5399 12 4 12ZM12 18C12 18 12 19.435 12 20C12 21.105 12.8954 22 14 22C15.1046 22 16 21.105 16 20C16 18.895 15.1046 18 14 18C13.4601 18 12 18 12 18Z" fill="black" fill-opacity="0.4"/>
<path d="M15 2C13.8954 2 13 2.895 13 4V10C13 11.105 13.8954 12 15 12C16.1046 12 17 11.105 17 10V4C17 2.895 16.1046 2 15 2ZM4 7C2.8954 7 2 7.895 2 9C2 10.105 2.8954 11 4 11H10C11.1046 11 12 10.105 12 9C12 7.895 11.1046 7 10 7H4ZM9 12C7.8954 12 7 12.895 7 14V20C7 21.105 7.8954 22 9 22C10.1046 22 11 21.105 11 20V14C11 12.895 10.1046 12 9 12ZM14 13C12.8954 13 12 13.895 12 15C12 16.105 12.8954 17 14 17H20C21.1046 17 22 16.105 22 15C22 13.895 21.1046 13 20 13H14Z" fill="black"/>
</svg>
