<svg width="24" height="24" viewBox="0 0 24 24" fill="none" xmlns="http://www.w3.org/2000/svg">
<path fill-rule="evenodd" clip-rule="evenodd" d="M9.5 7C8.67157 7 8 6.32843 8 5.5C8 4.67157 8.67157 4 9.5 4C10.3284 4 11 4.67157 11 5.5V7H9.5ZM13 5.5V9H9.5C7.567 9 6 7.433 6 5.5C6 3.567 7.567 2 9.5 2C11.433 2 13 3.567 13 5.5ZM7 14.5C7 15.3284 6.32843 16 5.5 16C4.67157 16 4 15.3284 4 14.5C4 13.6716 4.67157 13 5.5 13H7V14.5ZM5.5 11H9V14.5C9 16.433 7.433 18 5.5 18C3.567 18 2 16.433 2 14.5C2 12.567 3.567 11 5.5 11ZM20 9.5C20 10.3284 19.3284 11 18.5 11H17V9.5C17 8.67157 17.6716 8 18.5 8C19.3284 8 20 8.67157 20 9.5ZM15 13V9.5C15 7.567 16.567 6 18.5 6C20.433 6 22 7.567 22 9.5C22 11.433 20.433 13 18.5 13H15ZM14.5 17C15.3284 17 16 17.6716 16 18.5C16 19.3284 15.3284 20 14.5 20C13.6716 20 13 19.3284 13 18.5V17H14.5ZM11 18.5V15H14.5C16.433 15 18 16.567 18 18.5C18 20.433 16.433 22 14.5 22C12.567 22 11 20.433 11 18.5Z" fill="black" fill-opacity="0.4"/>
<path fill-rule="evenodd" clip-rule="evenodd" d="M15 10V5C15 4.44772 14.5523 4 14 4C13.4477 4 13 4.44772 13 5V10C13 10.5516 13.4466 10.9989 13.998 11H14.002C14.5533 10.9989 15 10.5516 15 10ZM17 11H19C20.6569 11 22 12.3431 22 14C22 15.6569 20.6569 17 19 17H13V19C13 20.6569 11.6569 22 10 22C8.34314 22 7 20.6569 7 19V13H5C3.34315 13 2 11.6569 2 10C2 8.34314 3.34315 7 5 7H11V5C11 3.34315 12.3431 2 14 2C15.6569 2 17 3.34315 17 5V11ZM11 9.99802V10.002C10.9989 10.5533 10.5516 11 10 11H5C4.44772 11 4 10.5523 4 10C4 9.44771 4.44772 9 5 9H10C10.5516 9 10.9989 9.44665 11 9.99802ZM13 13.998V14.002C13.0011 14.5533 13.4484 15 14 15H19C19.5523 15 20 14.5523 20 14C20 13.4477 19.5523 13 19 13H14C13.4484 13 13.0011 13.4466 13 13.998ZM9 14C9 13.4484 9.44665 13.0011 9.99802 13H10.002C10.5533 13.0011 11 13.4484 11 14V19C11 19.5523 10.5523 20 10 20C9.44771 20 9 19.5523 9 19V14Z" fill="black"/>
</svg>
