<svg width="24" height="24" viewBox="0 0 24 24" fill="none" xmlns="http://www.w3.org/2000/svg">
<path d="M13 19C12.448 19 12 18.552 12 18C12 17.448 12.448 17 13 17H21C21.552 17 22 17.448 22 18C22 18.552 21.552 19 21 19H13ZM13 15C12.448 15 12 14.552 12 14C12 13.448 12.448 13 13 13H19C19.552 13 20 13.448 20 14C20 14.552 19.552 15 19 15H13ZM13 11C12.448 11 12 10.552 12 9.99998C12 9.44798 12.448 8.99998 13 8.99998H17C17.552 8.99998 18 9.44798 18 9.99998C18 10.552 17.552 11 17 11H13ZM13 6.99998C12.448 6.99998 12 6.55197 12 5.99997C12 5.44797 12.448 4.99997 13 4.99997H15C15.552 4.99997 16 5.44797 16 5.99997C16 6.55197 15.552 6.99998 15 6.99998H13Z" fill="black" fill-opacity="0.4"/>
<path d="M6.40601 20C5.85401 20 5.40601 19.5523 5.40601 19.0007V7.4473L3.40601 9.41386L2 8.0089L5.68701 4.29266C6.07801 3.90295 6.734 3.90195 7.125 4.29266L10.812 8.0089L9.40601 9.41386L7.40601 7.4473V19.0007C7.40601 19.5523 6.95801 20 6.40601 20Z" fill="black"/>
</svg>
