<svg width="24" height="24" viewBox="0 0 24 24" fill="none" xmlns="http://www.w3.org/2000/svg">
<path d="M12 10.0143C12 9.45439 12.4474 9 12.9986 9H16.9932C17.5444 9 17.9918 9.45439 17.9918 10.0143C17.9918 10.5741 17.5444 11.0285 16.9932 11.0285H12.9986C12.4474 11.0285 12 10.5741 12 10.0143Z" fill="black" fill-opacity="0.4"/>
<path d="M12.0137 14.0143C12.0137 13.4544 12.461 13 13.0123 13H19.0041C19.5553 13 20.0027 13.4544 20.0027 14.0143C20.0027 14.5741 19.5553 15.0285 19.0041 15.0285H13.0123C12.461 15.0285 12.0137 14.5741 12.0137 14.0143Z" fill="black" fill-opacity="0.4"/>
<path d="M12.0137 17.9857C12.0137 17.4259 12.4488 17 13 17H21C21.5512 17 22 17.4259 22 17.9857C22 18.5456 21.5526 19 21.0014 19H13.0123C12.461 19 12.0137 18.5456 12.0137 17.9857Z" fill="black" fill-opacity="0.4"/>
<path d="M12.9986 5C12.4471 5 12 5.4541 12 6.01426C12 6.57442 12.4471 7.02852 12.9986 7.02852H14.9959C15.5474 7.02852 15.9945 6.57442 15.9945 6.01426C15.9945 5.4541 15.5474 5 14.9959 5H12.9986Z" fill="black" fill-opacity="0.4"/>
<path d="M5 5C5 4.448 5.448 4 6 4C6.552 4 7 4.448 7 5V16H10L6 19.9999L2 16H5V5Z" fill="black"/>
</svg>
