<svg width="24" height="24" viewBox="0 0 24 24" fill="none" xmlns="http://www.w3.org/2000/svg">
<path fill-rule="evenodd" clip-rule="evenodd" d="M17.5 4.75C17.0858 4.75 16.75 5.08579 16.75 5.5C16.75 5.91421 17.0858 6.25 17.5 6.25C17.9133 6.25 18.2486 5.91564 18.25 5.50263V5.5H18.25C18.25 5.08579 17.9142 4.75 17.5 4.75ZM17.5 7.75C17.763 7.75 18.0154 7.70489 18.25 7.62197V8.5C18.25 8.91421 17.9142 9.25 17.5 9.25C17.1746 9.25 16.8958 9.04237 16.7925 8.75007C16.6544 8.35953 16.226 8.15483 15.8354 8.29287C15.4449 8.43091 15.2402 8.8594 15.3782 9.24993C15.6867 10.1228 16.5192 10.75 17.5 10.75C18.7426 10.75 19.75 9.74264 19.75 8.5V5.50444L19.75 5.5C19.75 4.25736 18.7426 3.25 17.5 3.25C16.2574 3.25 15.25 4.25736 15.25 5.5C15.25 6.74264 16.2574 7.75 17.5 7.75ZM18.75 14C18.75 13.6967 18.5673 13.4232 18.287 13.3071C18.0068 13.191 17.6842 13.2552 17.4697 13.4697L15.4697 15.4697C15.1768 15.7626 15.1768 16.2375 15.4697 16.5304C15.7626 16.8232 16.2374 16.8232 16.5303 16.5304L17.25 15.8107V20C17.25 20.4142 17.5858 20.75 18 20.75C18.4142 20.75 18.75 20.4142 18.75 20V14Z" fill="black" fill-opacity="0.4"/>
<path fill-rule="evenodd" clip-rule="evenodd" d="M9 3C9 2.44772 8.55228 2 8 2C7.44772 2 7 2.44772 7 3V18H4L8 22L12 18H9V3Z" fill="black"/>
</svg>
