<svg width="24" height="24" viewBox="0 0 24 24" fill="none" xmlns="http://www.w3.org/2000/svg">
<path fill-rule="evenodd" clip-rule="evenodd" d="M18.287 3.30711C18.5673 3.4232 18.75 3.69668 18.75 4.00002V10C18.75 10.4142 18.4142 10.75 18 10.75C17.5858 10.75 17.25 10.4142 17.25 10V5.81068L16.5303 6.53035C16.2374 6.82325 15.7626 6.82325 15.4697 6.53035C15.1768 6.23746 15.1768 5.76259 15.4697 5.46969L17.4697 3.46969C17.6842 3.25519 18.0068 3.19103 18.287 3.30711ZM17.5 14.75C17.0858 14.75 16.75 15.0858 16.75 15.5C16.75 15.9142 17.0858 16.25 17.5 16.25C17.9142 16.25 18.25 15.9142 18.25 15.5C18.25 15.0858 17.9142 14.75 17.5 14.75ZM15.25 15.5C15.25 14.2574 16.2574 13.25 17.5 13.25C18.7426 13.25 19.75 14.2574 19.75 15.5L19.75 18.5C19.75 19.7426 18.7426 20.75 17.5 20.75C16.5192 20.75 15.6867 20.1228 15.3782 19.2499C15.2402 18.8594 15.4449 18.4309 15.8354 18.2929C16.226 18.1548 16.6545 18.3595 16.7925 18.7501C16.8958 19.0424 17.1746 19.25 17.5 19.25C17.9142 19.25 18.25 18.9142 18.25 18.5V17.622C18.0154 17.7049 17.763 17.75 17.5 17.75C16.2574 17.75 15.25 16.7426 15.25 15.5Z" fill="black" fill-opacity="0.4"/>
<path fill-rule="evenodd" clip-rule="evenodd" d="M9.00003 3C9.00003 2.44772 8.55232 2 8.00003 2C7.44775 2 7.00003 2.44772 7.00003 3V18.5858L5.00003 16.5858L3.58582 18L7.29292 21.7071C7.68345 22.0977 8.31661 22.0977 8.70714 21.7071L12.4142 18L11 16.5858L9.00003 18.5858V3Z" fill="black"/>
</svg>
