<svg width="24" height="24" viewBox="0 0 24 24" fill="none" xmlns="http://www.w3.org/2000/svg">
<path d="M12 9.99998C12 9.44798 12.448 8.99998 13 8.99998H17C17.552 8.99998 18 9.44798 18 9.99998C18 10.552 17.552 11 17 11H13C12.448 11 12 10.552 12 9.99998Z" fill="black" fill-opacity="0.4"/>
<path d="M12 14C12 13.448 12.448 13 13 13H19C19.552 13 20 13.448 20 14C20 14.552 19.552 15 19 15H13C12.448 15 12 14.552 12 14Z" fill="black" fill-opacity="0.4"/>
<path d="M12 17.9999C12 17.4479 12.448 17 13 17H21C21.552 17 22 17.4479 22 17.9999C22 18.5519 21.552 18.9999 21 18.9999H13C12.448 18.9999 12 18.5519 12 17.9999Z" fill="black" fill-opacity="0.4"/>
<path d="M13 5C12.4477 5 12 5.44772 12 6C12 6.55228 12.4477 7 13 7H15C15.5523 7 16 6.55228 16 6C16 5.44772 15.5523 5 15 5H13Z" fill="black" fill-opacity="0.4"/>
<path d="M5 19C5 19.552 5.448 20 6 20C6.552 20 7 19.552 7 19V8.00005H10L6 4.00006L2 8.00005H5V19Z" fill="black"/>
</svg>
