<svg width="24" height="24" viewBox="0 0 24 24" fill="none" xmlns="http://www.w3.org/2000/svg">
<path fill-rule="evenodd" clip-rule="evenodd" d="M17 3.25C17.3228 3.25 17.6094 3.45657 17.7115 3.76283L19.7115 9.76283C19.8425 10.1558 19.6301 10.5805 19.2371 10.7115C18.8442 10.8425 18.4194 10.6301 18.2884 10.2372L18.1261 9.75H15.8739L15.7115 10.2372C15.5805 10.6301 15.1557 10.8425 14.7628 10.7115C14.3698 10.5805 14.1575 10.1558 14.2884 9.76283L16.2884 3.76283C16.3905 3.45657 16.6771 3.25 17 3.25ZM16.3739 8.25H17.6261L17 6.37171L16.3739 8.25ZM14.25 14C14.25 13.5858 14.5858 13.25 15 13.25H19C19.2766 13.25 19.5307 13.4022 19.6613 13.6461C19.7918 13.89 19.7775 14.1859 19.624 14.416L16.4014 19.25H19C19.4142 19.25 19.75 19.5858 19.75 20C19.75 20.4142 19.4142 20.75 19 20.75H15C14.7234 20.75 14.4693 20.5978 14.3387 20.3539C14.2082 20.11 14.2225 19.8141 14.376 19.584L17.5986 14.75H15C14.5858 14.75 14.25 14.4142 14.25 14Z" fill="black" fill-opacity="0.4"/>
<path fill-rule="evenodd" clip-rule="evenodd" d="M8 2L4 6H7V21C7 21.5523 7.44772 22 8 22C8.55228 22 9 21.5523 9 21V6H12L8 2Z" fill="black"/>
</svg>
