<svg width="24" height="24" viewBox="0 0 24 24" fill="none" xmlns="http://www.w3.org/2000/svg">
<path d="M12.013 2C6.49043 2 2.01353 6.4476 2.00003 11.9704C1.98653 17.4862 6.41043 21.9898 12.001 21.9958C17.504 22.0017 22.007 17.4976 21.998 12.0045C21.988 6.4816 17.536 2 12.013 2ZM12 3.9972C16.418 3.9972 20 7.5789 20 11.9972C20 14.272 19.033 16.2951 17.606 17.7142C15.982 16.5977 14.003 15.9972 12 15.9972C9.99303 15.9972 8.06973 16.586 6.40603 17.7163C4.89493 16.1993 4.00003 14.2783 4.00003 11.9972C4.00003 7.5789 7.58183 3.9972 12 3.9972ZM12 17.9972C13.316 17.9972 14.753 18.3469 15.869 18.9947C14.698 19.6722 13.339 19.9972 12 19.9972C10.661 19.9972 9.28463 19.6358 8.11273 19.0008C9.26753 18.3531 10.692 17.9972 12 17.9972Z" fill="black" fill-opacity="0.4"/>
<path d="M12 5.99719C11.448 5.99719 11 6.44489 11 6.99719C11 7.54939 11.448 7.99719 12 7.99719C12.552 7.99719 13 7.54939 13 6.99719C13 6.44489 12.552 5.99719 12 5.99719ZM8.4688 7.40339C7.9165 7.40339 7.4688 7.85109 7.4688 8.40339C7.4688 8.95569 7.9165 9.40339 8.4688 9.40339C9.0211 9.40339 9.4688 8.95569 9.4688 8.40339C9.4688 7.85109 9.0211 7.40339 8.4688 7.40339ZM15.688 7.49719C15.469 7.46559 15.227 7.50499 15 7.65339C14.855 7.74849 13.192 8.85559 12.688 9.21589C12.566 9.30299 12.459 9.38209 12.344 9.46589C10.53 10.7861 10 11.2424 10 11.9972C10 13.1017 10.895 13.9972 12 13.9972C12.751 13.9972 13.204 13.4879 14.531 11.6847C14.615 11.5709 15.51 10.2834 15.875 9.74719C16.094 9.42549 16.279 9.17319 16.375 9.02839C16.824 8.34919 16.344 7.59199 15.688 7.49719ZM7 10.9972C6.4477 10.9972 6 11.4449 6 11.9972C6 12.5494 6.4477 12.9972 7 12.9972C7.5523 12.9972 8 12.5494 8 11.9972C8 11.4449 7.5523 10.9972 7 10.9972ZM17 10.9972C16.448 10.9972 16 11.4449 16 11.9972C16 12.5494 16.448 12.9972 17 12.9972C17.552 12.9972 18 12.5494 18 11.9972C18 11.4449 17.552 10.9972 17 10.9972Z" fill="black"/>
</svg>
