<svg width="24" height="24" viewBox="0 0 24 24" fill="none" xmlns="http://www.w3.org/2000/svg">
<path d="M8.34352 5V12.808H9.84336V12.0584C10.0445 12.3408 10.2025 12.5388 10.3746 12.6518C10.6638 12.8424 11.055 12.9329 11.5313 12.9329C12.2887 12.9329 12.89 12.6479 13.3123 12.0584C13.7345 11.4689 13.9376 10.7375 13.9376 9.8409C13.9376 8.9761 13.7405 8.2643 13.3123 7.7172C12.884 7.17 12.2887 6.9051 11.5313 6.9051C11.1121 6.9051 10.7709 6.9785 10.4997 7.155C10.2706 7.2962 10.0335 7.5114 9.84336 7.7796V5H8.34352ZM4.65647 6.8739C3.68794 6.8739 2.99155 7.1464 2.59333 7.6547C2.34319 7.9795 2.21912 8.3992 2.1871 8.904H3.6249C3.65991 8.6816 3.73797 8.5036 3.84403 8.373C3.99211 8.1965 4.23824 8.092 4.59344 8.092C4.91061 8.092 5.14875 8.1581 5.31284 8.2481C5.47593 8.3381 5.56198 8.4801 5.56198 8.7166C5.56198 8.9107 5.46492 9.0621 5.24981 9.1538C5.12974 9.2068 4.93463 9.2435 4.65647 9.2788L4.12517 9.3412C3.54385 9.4154 3.11161 9.543 2.81245 9.716C2.26614 10.0337 2 10.5368 2 11.2464C2 11.7935 2.16009 12.2286 2.50028 12.5269C2.83947 12.8251 3.29072 12.9641 3.81201 12.9641C4.22124 12.9641 4.58243 12.8701 4.90661 12.683C5.17776 12.5242 5.4169 12.3468 5.62501 12.1209C5.63602 12.2515 5.63903 12.362 5.65604 12.4644C5.67405 12.5668 5.70406 12.6915 5.75008 12.808H7.406V12.5581C7.30695 12.5122 7.23691 12.4725 7.18689 12.4019C7.13786 12.3313 7.10384 12.1936 7.09383 11.9959C7.08683 11.7347 7.06281 11.5236 7.06281 11.3401V8.6854C7.06281 7.99 6.83369 7.4993 6.34341 7.2487C5.85414 6.9981 5.28682 6.8739 4.65647 6.8739ZM17.4056 6.8739C16.5571 6.8739 15.8887 7.1665 15.4054 7.7172C14.9232 8.2678 14.687 9.0364 14.687 10.0283C14.687 10.9073 14.9062 11.6327 15.3434 12.1833C15.5845 12.488 15.9207 12.6719 16.3119 12.808L17.4056 11.7148C16.9253 11.7053 16.5821 11.4668 16.406 10.9965C16.3069 10.7388 16.2499 10.4207 16.2499 9.9971C16.2499 9.5523 16.3069 9.1723 16.406 8.904C16.5921 8.3992 16.9613 8.1544 17.4686 8.1544C17.8238 8.1544 18.0809 8.265 18.25 8.498C18.3661 8.6709 18.4401 8.8761 18.4681 9.0914H20C19.915 8.2689 19.6468 7.6984 19.1875 7.3736C18.7273 7.0489 18.128 6.8739 17.4056 6.8739ZM11.093 8.2169C11.6323 8.2169 11.9866 8.4581 12.1877 8.9664C12.2927 9.2347 12.3748 9.5876 12.3748 9.9971C12.3748 10.5089 12.2457 10.9322 12.0306 11.2464C11.8164 11.5605 11.5123 11.7148 11.1251 11.7148C10.6778 11.7148 10.3436 11.5399 10.1245 11.2151C9.90638 10.8904 9.81234 10.4913 9.81234 9.9971C9.81234 9.577 9.86337 9.2312 9.96843 8.9664C10.1725 8.4687 10.5477 8.2169 11.093 8.2169ZM5.56198 9.9971V10.5593C5.55197 11.0641 5.42891 11.3993 5.15576 11.5899C4.88361 11.7805 4.57442 11.871 4.25024 11.871C4.04613 11.871 3.86104 11.8296 3.71896 11.7148C3.57588 11.6001 3.49983 11.4104 3.49983 11.1527C3.49983 10.8632 3.64291 10.6345 3.87503 10.4968C4.01211 10.4156 4.21423 10.3659 4.5314 10.3094L4.8746 10.2469C5.04369 10.2152 5.18478 10.1591 5.28083 10.122C5.37788 10.085 5.46692 10.0571 5.56198 9.9971Z" fill="black" fill-opacity="0.4"/>
<path d="M20.9902 9.99707C20.7345 9.99707 20.4679 10.0829 20.2732 10.278L14.0039 16.5511L11.7271 14.2728C11.3376 13.8828 10.6825 13.8828 10.2921 14.2728C9.90264 14.6627 9.90264 15.3184 10.2921 15.7084L13.2869 18.7046C13.6764 19.0946 14.3315 19.0946 14.7209 18.7046L21.7072 11.7135C22.0976 11.3235 22.0976 10.668 21.7072 10.278C21.5124 10.0829 21.2458 9.99707 20.9902 9.99707Z" fill="black"/>
</svg>
