<svg width="24" height="24" viewBox="0 0 24 24" fill="none" xmlns="http://www.w3.org/2000/svg">
<path d="M6.99999 3C4.791 3 3 4.7909 3 7V17C3 19.2091 4.791 21 6.99999 21H17C19.209 21 21 19.2091 21 17V7C21 4.7909 19.209 3 17 3H6.99999ZM6.99999 5H17C18.105 5 19 5.8954 19 7V17C19 18.1046 18.105 19 17 19H6.99999C5.895 19 5 18.1046 5 17V7C5 5.8954 5.895 5 6.99999 5Z" fill="black"/>
<path d="M7 5H17C18.105 5 19 5.8954 19 7V17C19 18.1046 18.105 19 17 19H7C5.895 19 5 18.1046 5 17V7C5 5.8954 5.895 5 7 5Z" fill="black" fill-opacity="0.4"/>
</svg>
