<svg width="24" height="24" viewBox="0 0 24 24" fill="none" xmlns="http://www.w3.org/2000/svg">
<path d="M6 4C3.7909 4 2 5.791 2 8V16C2 18.209 3.7909 20 6 20H18C20.2091 20 22 18.209 22 16V8C22 5.791 20.2091 4 18 4H6ZM6 6H18C19.1046 6 20 6.895 20 8V16C20 17.105 19.1046 18 18 18H6C4.8954 18 4 17.105 4 16V8C4 6.895 4.8954 6 6 6Z" fill="black" fill-opacity="0.4"/>
<path d="M10 8C8.8954 8 8 8.895 8 10V14C8 15.105 8.8954 16 10 16H14C15.1046 16 16 15.105 16 14V10C16 8.895 15.1046 8 14 8H10Z" fill="black"/>
</svg>
