<svg width="24" height="24" viewBox="0 0 24 24" fill="none" xmlns="http://www.w3.org/2000/svg">
<path d="M10.0031 2C8.1491 2 6.54009 3.293 6.13109 5.004L5.00909 5C4.12009 5 3.6621 6.08899 4.2921 6.71899L6.00809 8.438V10H5.00909C4.12009 10 3.6621 11.089 4.2921 11.719L6.00809 13.438V15H5.00909C4.12009 15 3.6621 16.089 4.2921 16.719L6.01909 18.428C6.25409 20.492 7.9961 22 10.0031 22H13.9971C16.0061 22 17.7661 20.472 17.9781 18.433L19.7081 16.719C20.3371 16.089 19.8801 15 18.9911 15H17.9921V13.438L19.7081 11.719C20.3371 11.089 19.8801 10 18.9911 10H17.9921V8.438L19.7081 6.71899C20.3371 6.08899 19.8801 5 18.9911 5L17.8701 4.994C17.4541 3.286 15.8511 2 13.9971 2H10.0031ZM10.0031 4H13.9971C15.1001 4 15.9951 4.895 15.9951 6C15.9951 6.25 15.9951 7.75 15.9951 8V11C15.9951 11.25 15.9951 12.75 15.9951 13V18C15.9951 19.105 15.1001 20 13.9971 20H10.0031C8.9001 20 8.0051 19.105 8.0051 18C8.0051 17.75 8.0051 16.25 8.0051 16V13C8.0051 12.75 8.0051 11.25 8.0051 11V8C8.0051 7.75 8.0051 6.25 8.0051 6C8.0051 4.895 8.9001 4 10.0031 4Z" fill="black" fill-opacity="0.4"/>
<path fill-rule="evenodd" clip-rule="evenodd" d="M13 7C13 7.55228 12.5523 8 12 8C11.4477 8 11 7.55228 11 7C11 6.44772 11.4477 6 12 6C12.5523 6 13 6.44772 13 7ZM14 12C14 13.1046 13.1046 14 12 14C10.8954 14 10 13.1046 10 12C10 10.8954 10.8954 10 12 10C13.1046 10 14 10.8954 14 12ZM12 18C12.5523 18 13 17.5523 13 17C13 16.4477 12.5523 16 12 16C11.4477 16 11 16.4477 11 17C11 17.5523 11.4477 18 12 18Z" fill="black"/>
</svg>
