<svg width="24" height="24" viewBox="0 0 24 24" fill="none" xmlns="http://www.w3.org/2000/svg">
<path d="M12 2C11.448 2 11 2.448 11 3V5C11 5.552 11.448 6 12 6C12.552 6 13 5.552 13 5V3C13 2.448 12.552 2 12 2ZM5.625 4.625C5.369 4.625 5.133 4.74201 4.938 4.93801C4.547 5.32801 4.547 5.954 4.938 6.344L6.281 7.719C6.672 8.109 7.32899 8.11 7.71899 7.719C8.10899 7.328 8.10999 6.67101 7.71899 6.28101L6.34399 4.93801C6.14799 4.74201 5.881 4.625 5.625 4.625ZM18.344 4.65601C18.088 4.65601 17.852 4.74201 17.656 4.93801L16.281 6.28101C15.891 6.67201 15.891 7.328 16.281 7.719C16.672 8.109 17.328 8.109 17.719 7.719L19.062 6.344C19.453 5.953 19.453 5.32801 19.062 4.93801C18.867 4.74201 18.6 4.65601 18.344 4.65601ZM3 11C2.448 11 2 11.448 2 12C2 12.552 2.448 13 3 13H5C5.552 13 6 12.552 6 12C6 11.448 5.552 11 5 11H3ZM19 11C18.448 11 18 11.448 18 12C18 12.552 18.448 13 19 13H21C21.552 13 22 12.552 22 12C22 11.448 21.552 11 21 11H19ZM7 16C6.744 15.999 6.477 16.086 6.281 16.281L4.906 17.656C4.515 18.046 4.517 18.671 4.906 19.062C5.296 19.454 5.95199 19.452 6.34399 19.062L7.71899 17.719C8.10999 17.329 8.10799 16.673 7.71899 16.281C7.52399 16.086 7.256 16.001 7 16ZM17 16C16.744 16 16.476 16.086 16.281 16.281C15.891 16.672 15.89 17.329 16.281 17.719L17.688 19.094C18.078 19.484 18.704 19.485 19.094 19.094C19.484 18.703 19.485 18.046 19.094 17.656L17.719 16.281C17.523 16.086 17.256 16 17 16ZM12 18C11.448 18 11 18.448 11 19V21C11 21.552 11.448 22 12 22C12.552 22 13 21.552 13 21V19C13 18.448 12.552 18 12 18Z" fill="black" fill-opacity="0.4"/>
<path fill-rule="evenodd" clip-rule="evenodd" d="M12 15C13.6569 15 15 13.6569 15 12C15 10.3431 13.6569 9 12 9C10.3431 9 9 10.3431 9 12C9 13.6569 10.3431 15 12 15ZM12 17C14.7614 17 17 14.7614 17 12C17 9.23858 14.7614 7 12 7C9.23858 7 7 9.23858 7 12C7 14.7614 9.23858 17 12 17Z" fill="black"/>
</svg>
