<svg width="24" height="24" viewBox="0 0 24 24" fill="none" xmlns="http://www.w3.org/2000/svg">
<path fill-rule="evenodd" clip-rule="evenodd" d="M11 12C11 11.4477 11.4477 11 12 11C12.5523 11 13 11.4477 13 12C13 11.0994 13.2976 10.2683 13.7999 9.59972C13.2985 9.22314 12.6753 9 12 9C11.3247 9 10.7015 9.22314 10.2001 9.59972C10.7024 10.2683 11 11.0994 11 12ZM3.12602 11C3.04375 11.3196 3 11.6547 3 12C3 12.3453 3.04375 12.6804 3.12602 13H3C2.44772 13 2 12.5523 2 12C2 11.4477 2.44772 11 3 11H3.12602ZM21 12C21 12.3453 20.9562 12.6804 20.874 13H21C21.5523 13 22 12.5523 22 12C22 11.4477 21.5523 11 21 11H20.874C20.9562 11.3196 21 11.6547 21 12Z" fill="black" fill-opacity="0.4"/>
<path fill-rule="evenodd" clip-rule="evenodd" d="M7 16C9.20914 16 11 14.2091 11 12C11 9.79086 9.20914 8 7 8C4.79086 8 3 9.79086 3 12C3 14.2091 4.79086 16 7 16ZM7 10.5C6.17157 10.5 5.5 11.1716 5.5 12C5.5 12.2761 5.27614 12.5 5 12.5C4.72386 12.5 4.5 12.2761 4.5 12C4.5 10.6193 5.61929 9.5 7 9.5C7.27614 9.5 7.5 9.72386 7.5 10C7.5 10.2761 7.27614 10.5 7 10.5ZM17 16C19.2091 16 21 14.2091 21 12C21 9.79086 19.2091 8 17 8C14.7909 8 13 9.79086 13 12C13 14.2091 14.7909 16 17 16ZM17 10.5C16.1716 10.5 15.5 11.1716 15.5 12C15.5 12.2761 15.2761 12.5 15 12.5C14.7239 12.5 14.5 12.2761 14.5 12C14.5 10.6193 15.6193 9.5 17 9.5C17.2761 9.5 17.5 9.72386 17.5 10C17.5 10.2761 17.2761 10.5 17 10.5Z" fill="black"/>
</svg>
