<svg width="24" height="24" viewBox="0 0 24 24" fill="none" xmlns="http://www.w3.org/2000/svg">
<path d="M13 19C13 19.5523 13.448 20 14 20C14.722 20 19.059 20 19.781 20C21.608 20 22.52 18.4145 21.688 16.7812L15.812 5.219C14.828 3.288 13 3.75799 13 5.90599V19ZM15 18V8.094L19.906 17.6875C20.074 18.0172 20.082 18 19.781 18C19.184 18 16.452 18 15 18Z" fill="black"/>
<path d="M2.00006 17.9688C1.99206 19.1072 2.84905 20 4.21905 20C4.94105 20 9.27805 20 10.0001 20C10.5521 20 11.0001 19.5523 11.0001 19V5.90599C11.0001 3.75799 9.17204 3.288 8.18804 5.219L2.31205 16.7812C2.10405 17.1896 2.00306 17.5892 2.00006 17.9688Z" fill="black" fill-opacity="0.4"/>
</svg>
