<svg width="24" height="24" viewBox="0 0 24 24" fill="none" xmlns="http://www.w3.org/2000/svg">
<path fill-rule="evenodd" clip-rule="evenodd" d="M17 2C18.6569 2 20 3.34315 20 5V18V19C20 20.6569 18.6569 22 17 22H7C5.34314 22 4 20.6569 4 19V18L4 5C4 3.34315 5.34314 2 7 2L17 2ZM18 5V18H6L6 5C6 4.44772 6.44772 4 7 4L17 4C17.5523 4 18 4.44772 18 5ZM11 20C11 20.5523 11.4477 21 12 21C12.5523 21 13 20.5523 13 20C13 19.4477 12.5523 19 12 19C11.4477 19 11 19.4477 11 20Z" fill="black"/>
<path d="M6 5C6 4.44772 6.44772 4 7 4H17C17.5523 4 18 4.44772 18 5V18H6V5Z" fill="black" fill-opacity="0.4"/>
</svg>
