<svg width="24" height="24" viewBox="0 0 24 24" fill="none" xmlns="http://www.w3.org/2000/svg">
<path d="M6.08649 3C4.37864 3 3 4.37864 3 6.08649V10.014C3 10.819 3.42896 11.8146 3.99757 12.3832C4.95126 13.3369 11.6041 20.0206 11.6041 20.0206C12.9099 21.3265 15.0367 21.3265 16.3426 20.0206L20.0206 16.3426C21.3265 15.0367 21.3265 12.9099 20.0206 11.6041L12.3832 3.99757C11.8146 3.42896 10.819 3 10.014 3H6.08649ZM8.98545 6.9903C10.0878 6.9903 10.9806 7.88313 10.9806 8.98545C10.9806 10.0878 10.0878 10.9806 8.98545 10.9806C7.88313 10.9806 6.9903 10.0878 6.9903 8.98545C6.9903 7.88313 7.88313 6.9903 8.98545 6.9903Z" fill="black" fill-opacity="0.4"/>
<circle cx="9" cy="9" r="2" fill="black"/>
</svg>
