<svg width="24" height="24" viewBox="0 0 24 24" fill="none" xmlns="http://www.w3.org/2000/svg">
<path d="M6.08599 3C4.378 3 3 4.378 3 6.08599V10.014C3 10.818 3.429 11.814 3.998 12.383C4.951 13.337 11.604 20.021 11.604 20.021C12.91 21.326 15.036 21.326 16.342 20.021L20.021 16.342C21.326 15.037 21.326 12.91 20.021 11.604L12.383 3.99798C11.814 3.42899 10.819 3 10.014 3H6.08599ZM6.08599 4.99499H10.014C10.289 4.99499 10.786 5.20599 10.98 5.39999L18.587 13.038C19.113 13.564 19.113 14.413 18.587 14.939L14.939 18.587C14.413 19.113 13.533 19.113 13.007 18.587C13.007 18.587 6.35399 11.934 5.39999 10.98C5.20599 10.786 4.99499 10.289 4.99499 10.014V6.08599C4.99499 5.48 5.48 4.99499 6.08599 4.99499Z" fill="black" fill-opacity="0.4"/>
<circle cx="9" cy="9" r="2" fill="black"/>
</svg>
