<svg width="24" height="24" viewBox="0 0 24 24" fill="none" xmlns="http://www.w3.org/2000/svg">
<path d="M6.5 3.99597C4.4477 3.99597 2 6.44397 2 8.49596C2 10.678 4.0391 14.4719 6.2812 16.7149C6.487 16.9199 7.0756 17.5089 7.2812 17.7149C9.5234 19.9569 13.3177 21.9959 15.5 21.9959C17.5523 21.9959 20 19.5479 20 17.496C20 15.444 17.5523 12.996 15.5 12.996C15.0898 12.996 14.6679 13.159 13.875 13.527C13.8018 13.561 13.1922 13.8599 13.0312 13.9339C11.9146 13.6269 10.4027 12.0939 10.0625 10.9339C10.1394 10.7639 10.4395 10.183 10.4688 10.121C10.8524 9.30896 11 8.91096 11 8.49596C11 6.44397 8.5523 3.99597 6.5 3.99597ZM6.5 5.99597C7.4477 5.99597 9 7.54797 9 8.49596C9 8.47096 8.8663 8.83297 8.6562 9.27697C8.628 9.33697 8.2956 9.98097 8.2188 10.152C7.9827 10.68 7.9539 10.846 8.0312 11.215C8.4507 13.216 10.8305 15.6069 12.8125 15.9649C13.1694 16.0289 13.257 15.998 13.8125 15.746C13.9675 15.676 14.6487 15.3719 14.7188 15.3399C15.1591 15.1349 15.5212 14.996 15.5 14.996C16.4477 14.996 18 16.548 18 17.496C18 18.4439 16.4477 19.9959 15.5 19.9959C13.9384 19.9959 10.6211 18.18 8.7188 16.277C8.513 16.072 7.9244 15.483 7.7188 15.277C5.8164 13.375 4 10.058 4 8.49596C4 7.54797 5.5523 5.99597 6.5 5.99597Z" fill="black" fill-opacity="0.4"/>
<path d="M15.0118 9.99597C15.2677 9.99597 15.504 9.91097 15.6993 9.71497L18.9659 6.43796L18.9971 8.99997H20.9971L20.9971 4.03098C20.9972 3.47899 20.5181 2.99998 19.9659 2.99998L15.0001 3L14.9971 4.99998L17.5596 5.03098L14.293 8.30896C13.9025 8.69996 13.9025 9.32497 14.293 9.71497C14.4883 9.90997 14.7558 9.99597 15.0118 9.99597Z" fill="black"/>
</svg>
