<svg width="24" height="24" viewBox="0 0 24 24" fill="none" xmlns="http://www.w3.org/2000/svg">
<path d="M5.93799 4C4.24999 4 2 6.24999 2 7.93799C2 10.112 4.25 14.125 6.5 16.375C6.742 16.617 7.383 17.258 7.625 17.5C9.875 19.75 13.888 22 16.062 22C17.75 22 20 19.75 20 18.062C20 16.375 17.75 14.125 16.062 14.125C15.5 14.125 13.465 15.289 13.25 15.25C11.456 14.926 9.125 12.537 8.75 10.75C8.698 10.501 9.875 8.49999 9.875 7.93799C9.875 6.24999 7.62499 4 5.93799 4Z" fill="black" fill-opacity="0.4"/>
<path d="M15.01 10C15.2655 10 15.5326 9.91399 15.7276 9.71899L18.8785 6.53101L21 8.65601V3H15.3532L17.4747 5.125L14.2924 8.28101C13.9025 8.67201 13.9025 9.32799 14.2924 9.71899C14.4874 9.91399 14.7545 10 15.01 10Z" fill="black"/>
</svg>
