<svg width="24" height="24" viewBox="0 0 24 24" fill="none" xmlns="http://www.w3.org/2000/svg">
<path d="M3 13C2.448 13 2 13.448 2 14C2 14.552 2.448 15 3 15H21C21.552 15 22 14.552 22 14C22 13.448 21.552 13 21 13H3ZM3 17C2.448 17 2 17.448 2 18C2 18.552 2.448 19 3 19H15C15.552 19 16 18.552 16 18C16 17.448 15.552 17 15 17H3Z" fill="black" fill-opacity="0.4"/>
<path d="M9 5C8.448 5 8 5.448 8 6C8 6.552 8.448 7 9 7H21C21.552 7 22 6.552 22 6C22 5.448 21.552 5 21 5H9ZM3 9.00001C2.448 9.00001 2 9.44801 2 10C2 10.552 2.448 11 3 11H21C21.552 11 22 10.552 22 10C22 9.44801 21.552 9.00001 21 9.00001H3Z" fill="black"/>
</svg>
