<svg width="24" height="24" viewBox="0 0 24 24" fill="none" xmlns="http://www.w3.org/2000/svg">
<path fill-rule="evenodd" clip-rule="evenodd" d="M15 3C15 2.448 15.448 2 16 2C16.386 2 16.782 2.02199 17.156 2.09399C17.699 2.19799 18.042 2.73901 17.938 3.28101C17.85 3.73201 17.44 4.06099 17 4.09399V6.28101L18.875 5.18799C18.663 4.78199 18.739 4.24999 19.094 3.93799C19.301 3.75499 19.588 3.70199 19.844 3.71899C20.099 3.73499 20.309 3.83101 20.5 4.03101C20.945 4.49801 21.477 5.47999 21.688 6.09399C21.883 6.66399 21.587 7.201 21.062 7.375C20.608 7.526 20.113 7.30001 19.875 6.90601L18 8L19.875 9.09399C20.133 8.66499 20.624 8.50801 21.062 8.65601C21.586 8.83301 21.81 9.337 21.688 9.875C21.542 10.512 20.793 11.675 20.469 12C20.04 12.429 19.474 12.43 19.062 12.062C18.704 11.743 18.642 11.213 18.875 10.812L17 9.75V11.875C17.466 11.873 17.901 12.214 18 12.688C18.113 13.228 17.791 13.762 17.25 13.875C16.846 13.96 16.419 14 16 14C15.448 14 15 13.552 15 13V3ZM7.99999 13.9992C7.99999 13.4469 8.44771 13 8.99999 13C9.55228 13 9.99999 13.4469 9.99999 13.9992C9.99999 15.1479 10 15.1603 10 15.2004C10 15.2117 10 15.2253 10 15.2674C10.5979 15.6131 11 16.2594 11 17C11 18.105 10.105 19 9 19C7.895 19 7 18.105 7 17C7 16.2594 7.40209 15.6131 7.99999 15.2674V13.9992Z" fill="black" fill-opacity="0.4"/>
<path d="M9 2C6.791 2 5 3.791 5 6V14.062C4.352 14.902 4 15.959 4 17C4 19.761 6.239 22 9 22C11.761 22 14 19.761 14 17C14 15.959 13.638 14.879 13 14.062V6C13 3.791 11.209 2 9 2ZM9 4C10.105 4 11 4.895 11 6V14.406C11 14.646 11.093 14.881 11.25 15.062C11.738 15.628 12 16.297 12 17C12 18.657 10.657 20 9 20C7.343 20 6 18.657 6 17C6 16.297 6.262 15.628 6.75 15.062C6.907 14.881 7 14.646 7 14.406V6C7 4.895 7.895 4 9 4Z" fill="black"/>
</svg>
