<svg width="24" height="24" viewBox="0 0 24 24" fill="none" xmlns="http://www.w3.org/2000/svg">
<path fill-rule="evenodd" clip-rule="evenodd" d="M9 7C9 8.10457 8.10457 9 7 9C5.89543 9 5 8.10457 5 7C5 5.89543 5.89543 5 7 5C8.10457 5 9 5.89543 9 7ZM11 7C11 9.20914 9.20914 11 7 11C4.79086 11 3 9.20914 3 7C3 4.79086 4.79086 3 7 3C9.20914 3 11 4.79086 11 7ZM15 17C15 18.1046 15.8954 19 17 19C18.1046 19 19 18.1046 19 17C19 15.8954 18.1046 15 17 15C15.8954 15 15 15.8954 15 17ZM13 17C13 19.2091 14.7909 21 17 21C19.2091 21 21 19.2091 21 17C21 14.7909 19.2091 13 17 13C14.7909 13 13 14.7909 13 17Z" fill="black"/>
<path fill-rule="evenodd" clip-rule="evenodd" d="M7 3C8.48056 3 9.77325 3.8044 10.4649 5H17C18.1046 5 19 5.89543 19 7C19 8.10457 18.1046 9 17 9H10.4649C9.77325 10.1956 8.48056 11 7 11H17C19.2091 11 21 9.20914 21 7C21 4.79086 19.2091 3 17 3H7ZM17 13H7C4.79086 13 3 14.7909 3 17C3 19.2091 4.79086 21 7 21H17C14.7909 21 13 19.2091 13 17C13 14.7909 14.7909 13 17 13Z" fill="black" fill-opacity="0.4"/>
</svg>
