<svg width="24" height="24" viewBox="0 0 24 24" fill="none" xmlns="http://www.w3.org/2000/svg">
<path fill-rule="evenodd" clip-rule="evenodd" d="M9.64581 4C10.2362 4.5211 10.6716 5.21378 10.874 6H18C18.5523 6 19 6.44772 19 7C19 7.55228 18.5523 8 18 8H10.874C10.6716 8.78622 10.2362 9.4789 9.64581 10H18C19.6568 10 21 8.65685 21 7C21 5.34315 19.6568 4 18 4H9.64581ZM13 17C13 18.1947 13.5238 19.2671 14.3542 20H6C4.34315 20 3 18.6569 3 17C3 15.3431 4.34315 14 6 14H14.3542C13.5238 14.7329 13 15.8053 13 17Z" fill="black" fill-opacity="0.4"/>
<path fill-rule="evenodd" clip-rule="evenodd" d="M9 7C9 8.10457 8.10457 9 7 9C5.89543 9 5 8.10457 5 7C5 5.89543 5.89543 5 7 5C8.10457 5 9 5.89543 9 7ZM11 7C11 9.20914 9.20914 11 7 11C4.79086 11 3 9.20914 3 7C3 4.79086 4.79086 3 7 3C9.20914 3 11 4.79086 11 7ZM19 17C19 18.1046 18.1046 19 17 19C15.8954 19 15 18.1046 15 17C15 15.8954 15.8954 15 17 15C18.1046 15 19 15.8954 19 17ZM21 17C21 19.2091 19.2091 21 17 21C14.7909 21 13 19.2091 13 17C13 14.7909 14.7909 13 17 13C19.2091 13 21 14.7909 21 17Z" fill="black"/>
</svg>
