<svg width="24" height="24" viewBox="0 0 24 24" fill="none" xmlns="http://www.w3.org/2000/svg">
<path d="M10 4.00001C5.582 4.00701 2 7.58202 2 12C2 12.552 2.448 13 3 13C3.552 13 4 12.552 4 12C4 8.68602 6.686 6.00002 10 6.00002C10.353 6.00002 10.679 6.01804 11.015 6.07704C8.19402 6.56704 6.013 9.03902 6 12C5.978 17.026 10.244 20.0031 14 20.0001C18.418 19.9961 22 16.418 22 12C22 11.448 21.552 11 21 11C20.448 11 20 11.448 20 12C20 15.314 17.314 18.0001 14 18.0001C13.647 18.0001 13.354 17.971 13.018 17.912C15.839 17.422 17.996 15.02 18 12C18.007 7.00102 13.762 3.99401 10 4.00001ZM12 8.00002C14.209 8.00002 16 9.79103 16 12C16 14.209 14.209 16 12 16C9.79101 16 8 14.209 8 12C8 9.79103 9.79101 8.00002 12 8.00002Z" fill="black" fill-opacity="0.4"/>
<circle cx="12" cy="12" r="2" fill="black"/>
</svg>
