<svg width="24" height="24" viewBox="0 0 24 24" fill="none" xmlns="http://www.w3.org/2000/svg">
<path fill-rule="evenodd" clip-rule="evenodd" d="M8 17C8 17.5523 7.55228 18 7 18C6.44772 18 6 17.5523 6 17C6 16.4477 6.44772 16 7 16C7.55228 16 8 16.4477 8 17ZM10 17C10 18.6569 8.65685 20 7 20C5.34315 20 4 18.6569 4 17C4 15.3431 5.34315 14 7 14C8.65685 14 10 15.3431 10 17ZM17 17C17 17.5523 16.5523 18 16 18C15.4477 18 15 17.5523 15 17C15 16.4477 15.4477 16 16 16C16.5523 16 17 16.4477 17 17ZM19 17C19 18.6569 17.6569 20 16 20C14.3431 20 13 18.6569 13 17C13 15.3431 14.3431 14 16 14C17.6569 14 19 15.3431 19 17Z" fill="black"/>
<path fill-rule="evenodd" clip-rule="evenodd" d="M6 6H13C14.1046 6 15 6.89543 15 8V14.1707C15.3128 14.0602 15.6494 14 16 14C16.3506 14 16.6872 14.0602 17 14.1707V10C18.6569 10 20 11.3431 20 13V14C20 14.8316 19.4924 15.5447 18.7702 15.8463C18.9182 16.2015 19 16.5912 19 17C19 17.3162 18.9511 17.621 18.8604 17.9072C20.656 17.5136 22 15.9138 22 14V13C22 10.2386 19.7614 8 17 8C17 5.79086 15.2091 4 13 4H6C3.79086 4 2 5.79086 2 8V14C2 15.4968 2.8221 16.8015 4.03939 17.4874C4.01348 17.3287 4 17.1659 4 17C4 16.3822 4.18677 15.8079 4.50693 15.3307C4.19162 14.9772 4 14.511 4 14V8C4 6.89543 4.89543 6 6 6ZM9.82929 16H13.1707C13.0602 16.3128 13 16.6494 13 17C13 17.3506 13.0602 17.6872 13.1707 18H9.82929C9.93985 17.6872 10 17.3506 10 17C10 16.6494 9.93985 16.3128 9.82929 16Z" fill="black" fill-opacity="0.4"/>
</svg>
