<svg width="24" height="24" viewBox="0 0 24 24" fill="none" xmlns="http://www.w3.org/2000/svg">
<path fill-rule="evenodd" clip-rule="evenodd" d="M3 16V18C3.0151 19.978 4.716 21.003 6 21C7.0391 20.998 7.7913 20.4899 8.1875 20.0939L8.2188 20.0629C8.6484 19.6329 9.3518 19.6329 9.7813 20.0629L9.8125 20.0939C11.0236 21.3049 12.9766 21.3049 14.1876 20.0939L14.2186 20.0629C14.6486 19.6329 15.3516 19.6329 15.7816 20.0629L15.8126 20.0939C16.2076 20.4889 17.0046 20.999 17.9996 21C19.6566 21.002 20.9996 19.657 20.9996 18V16H19.0026L18.9996 18C18.9996 18.553 18.5526 19 17.9996 19C17.7136 19 17.4316 18.8999 17.2186 18.6879L17.1876 18.656C15.9766 17.446 14.0236 17.446 12.8126 18.656L12.7816 18.6879C12.3516 19.1169 11.6486 19.1169 11.2186 18.6879L11.1876 18.656C10.5826 18.051 9.7934 17.75 9 17.75C8.2067 17.75 7.4179 18.051 6.8125 18.656L6.7813 18.6879C6.5718 18.8969 6.2902 19 6 19C5.4478 19 5 18.553 5 18L4.99326 16H3Z" fill="black" fill-opacity="0.4"/>
<path fill-rule="evenodd" clip-rule="evenodd" d="M6.31294 8.74998C7.30654 5.37399 10.428 3 14 3C16.762 3 19 5.23899 19 7.99999C19 9.60698 17.695 10.993 16.017 10.998C15.851 12.661 17.501 13.983 19.219 14C19.4893 14.0026 19.8974 14.0006 20.0055 14.0001C20.0206 14 20.0298 14 20.032 14C20.306 14.009 20.543 14.127 20.719 14.313C20.894 14.5 21.006 14.755 21 15.031V16H19.003L19.003 15.993C16.154 15.881 13.454 13.362 14.1 10.322C13.745 10.044 13.418 9.57498 13.218 9.16698C12.579 9.42298 12 10.093 12 11C12 11.553 11.553 12 11 12C10.448 12 10 11.553 10 11C10 8.79098 11.791 6.99999 14 6.99999C14.553 6.99999 15 7.44799 15 7.99999C15 8.55299 15.448 8.99998 16 8.99998C16.553 8.99998 17 8.55299 17 7.99999C17 6.34299 15.657 4.99999 14 4.99999C11.321 4.99999 8.99514 6.78198 8.25044 9.31297C8.24875 9.3186 8.24039 9.34718 8.22724 9.39209C8.16101 9.61827 7.97349 10.2587 7.90675 10.469C7.68425 11.171 7.43925 11.83 7.15675 12.469C6.55965 13.82 5.84355 14.933 4.99225 15.57L4.9937 16H3.00044V15C2.98534 14.523 3.36054 14.199 3.56294 14.094C4.14644 13.79 4.75024 12.93 5.31294 11.656C5.56304 11.091 5.79834 10.482 6.00044 9.84398C6.05886 9.65979 6.21125 9.11382 6.27961 8.86892C6.29773 8.80401 6.30995 8.76025 6.31294 8.74998Z" fill="black"/>
</svg>
