<svg width="24" height="24" viewBox="0 0 24 24" fill="none" xmlns="http://www.w3.org/2000/svg">
<path fill-rule="evenodd" clip-rule="evenodd" d="M11 4C10.4477 4 10 4.44772 10 5C10 5.55228 10.4477 6 11 6H17C17.5523 6 18 5.55228 18 5C18 4.44772 17.5523 4 17 4H11ZM7 18C6.44772 18 6 18.4477 6 19C6 19.5523 6.44772 20 7 20H13C13.5523 20 14 19.5523 14 19C14 18.4477 13.5523 18 13 18H7Z" fill="black" fill-opacity="0.4"/>
<path fill-rule="evenodd" clip-rule="evenodd" d="M12.6742 6H14.7542L11.3256 18H9.24561L12.6742 6Z" fill="black"/>
</svg>
