<svg width="24" height="24" viewBox="0 0 24 24" fill="none" xmlns="http://www.w3.org/2000/svg">
<path d="M8 18C7.448 18 7 18.448 7 19C7 19.552 7.448 20 8 20H16C16.552 20 17 19.552 17 19C17 18.448 16.552 18 16 18H8Z" fill="black" fill-opacity="0.4"/>
<path d="M8 4C7.448 4 7 4.448 7 5V11C7 13.761 9.23899 16 12 16C14.761 16 17 13.761 17 11V5C17 4.448 16.552 4 16 4C15.448 4 15 4.448 15 5V11C15 12.657 13.657 14 12 14C10.343 14 8.99999 12.657 8.99999 11V5C8.99999 4.448 8.552 4 8 4Z" fill="black"/>
</svg>
