<svg width="24" height="24" viewBox="0 0 24 24" fill="none" xmlns="http://www.w3.org/2000/svg">
<path d="M18 4C15.791 4 14 5.79099 14 7.99998C14 8.55198 14.448 8.99998 15 8.99998C15.552 8.99998 16 8.55198 16 7.99998C16 6.89499 16.895 5.99999 18 5.99999C19.105 5.99999 20 6.89499 20 7.99998C20 9.24298 19.247 10.257 17.562 11.094C17.168 11.29 17.008 11.705 16.999 12.003C16.99 12.302 17.12 12.678 17.562 12.906C19.235 13.768 20 14.757 20 16C20 17.105 19.105 17.9999 18 17.9999C16.895 17.9999 16 17.105 16 16C16 15.448 15.552 15 15 15C14.448 15 14 15.448 14 16C14 18.2089 15.791 19.9999 18 19.9999C20.209 19.9999 22 18.2089 22 16C22 14.373 21.252 13.0459 19.905 11.9959C21.213 11.0209 22 9.62698 22 7.99998C22 5.79099 20.209 4 18 4Z" fill="black" fill-opacity="0.4"/>
<path d="M3 4C2.448 4 2 4.448 2 5V18.9999C2 19.5519 2.448 19.9999 3 19.9999C3.552 19.9999 4 19.5519 4 18.9999V13H10V18.9999C10 19.5519 10.448 19.9999 11 19.9999C11.552 19.9999 12 19.5519 12 18.9999V5C12 4.448 11.552 4 11 4C10.448 4 10 4.448 10 5V11H4V5C4 4.448 3.552 4 3 4Z" fill="black"/>
</svg>
