<svg width="24" height="24" viewBox="0 0 24 24" fill="none" xmlns="http://www.w3.org/2000/svg">
<path fill-rule="evenodd" clip-rule="evenodd" d="M5 12C5 11.4477 5.44772 11 6 11H18C18.5523 11 19 11.4477 19 12C19 12.5523 18.5523 13 18 13H6C5.44772 13 5 12.5523 5 12Z" fill="black"/>
<path fill-rule="evenodd" clip-rule="evenodd" d="M8 7.99998C8 5.79099 9.791 4 12 4C14.209 4 16 5.79099 16 7.99998C16 8.55198 15.552 8.99998 15 8.99998C14.448 8.99998 14 8.55198 14 7.99998C14 6.89499 13.105 5.99999 12 5.99999C10.895 5.99999 10 6.89499 10 7.99998C10 8.31798 10.08 8.62999 10.219 8.90599C10.296 9.05999 10.506 9.30998 10.812 9.62498C10.844 9.65767 10.8763 9.691 10.9092 9.72485C11.0239 9.84323 11.1449 9.96799 11.281 10.094C11.4982 10.2931 11.7243 10.481 11.9503 10.669C12.0821 10.7786 12.2139 10.8882 12.344 11L9.34403 11C8.92503 10.567 8.623 10.18 8.438 9.81199C8.158 9.25799 8 8.63198 8 7.99998ZM11.661 13C12.0248 13.3049 12.4114 13.6216 12.75 13.937C12.957 14.131 13.119 14.294 13.281 14.469C13.569 14.779 13.778 15.068 13.844 15.219C13.952 15.467 14 15.721 14 16C14 17.1049 13.105 17.9999 12 17.9999C10.895 17.9999 10 17.1049 10 16C10 15.448 9.552 15 9 15C8.448 15 8 15.448 8 16C8 18.2089 9.791 19.9999 12 19.9999C14.209 19.9999 16 18.2089 16 16C16 15.446 15.873 14.905 15.656 14.406C15.481 14.002 15.179 13.587 14.75 13.125C14.713 13.085 14.664 13.041 14.625 13H11.661Z" fill="black" fill-opacity="0.4"/>
</svg>
