<svg width="24" height="24" viewBox="0 0 24 24" fill="none" xmlns="http://www.w3.org/2000/svg">
<path d="M12 13C11.4477 13 11 13.448 11 14V19C11 19.552 10.5523 20 10 20C9.4477 20 9 19.552 9 19C9 18.448 8.5523 18 8 18C7.4477 18 7 18.448 7 19C7 20.657 8.3432 22 10 22C11.6569 22 13 20.657 13 19V14C13 13.448 12.5523 13 12 13Z" fill="black" fill-opacity="0.4"/>
<path d="M12 2C11.4477 2 11 2.448 11 3L11.0013 3.04998C5.7838 3.48898 2.0136 7.28498 2 11C1.9996 11.106 2.0463 11.371 2.1875 11.562C2.2905 11.702 2.4983 11.992 3 12C3.2757 12.005 3.5004 11.882 3.5938 11.812C3.7096 11.726 3.9745 11.562 4.3125 11.406C4.8695 11.15 5.4352 11 6 11C6.5648 11 7.1305 11.15 7.6875 11.406C7.962 11.533 8.1439 11.628 8.2813 11.719C8.313 11.74 8.3845 11.797 8.4063 11.812C8.4714 11.861 8.7031 12 9 12C9.2969 12 9.5286 11.861 9.5938 11.812C9.6155 11.796 9.687 11.74 9.7188 11.719C9.8562 11.627 10.038 11.533 10.3125 11.406C10.8695 11.15 11.4352 11 12 11C12.5648 11 13.1305 11.15 13.6875 11.406C13.962 11.533 14.1439 11.628 14.2813 11.719C14.313 11.74 14.3845 11.797 14.4063 11.812C14.4714 11.861 14.7031 12 15 12C15.2969 12 15.5286 11.861 15.5938 11.812C15.6155 11.796 15.687 11.74 15.7188 11.719C15.8562 11.627 16.038 11.533 16.3125 11.406C16.8695 11.15 17.4352 11 18 11C18.5648 11 19.1306 11.15 19.6875 11.406C20.1654 11.627 20.4936 11.993 21 12C21.6144 12.008 22.0274 11.43 22 11C21.7551 7.16098 18.2452 3.485 12.9993 3.039L13 3C13 2.448 12.5523 2 12 2Z" fill="black"/>
</svg>
