<svg width="24" height="24" viewBox="0 0 24 24" fill="none" xmlns="http://www.w3.org/2000/svg">
<path fill-rule="evenodd" clip-rule="evenodd" d="M9 14C9.55228 14 10 14.4477 10 15V18.156C10 18.6165 10.3835 19 10.844 19H18.156C18.6164 19 19 18.6164 19 18.156V10.844C19 10.3836 18.6164 10 18.156 10H15C14.4477 10 14 9.55228 14 9V5.84399C14 5.38357 13.6164 5 13.156 5H5.8438C5.38366 5 5 5.38348 5 5.84399V13.156C5 13.6166 5.3836 14 5.8438 14H9ZM3 5.84399C3 4.27899 4.279 3 5.8438 3H13.156C14.721 3 16 4.27899 16 5.84399V8H18.156C19.721 8 21 9.27899 21 10.844V18.156C21 19.721 19.721 21 18.156 21H10.844C9.2789 21 8 19.721 8 18.156V16H5.8438C4.2789 16 3 14.721 3 13.156V5.84399Z" fill="black"/>
<path fill-rule="evenodd" clip-rule="evenodd" d="M9 14C9.55228 14 10 14.4477 10 15V18.156C10 18.6165 10.3835 19 10.844 19H18.156C18.6164 19 19 18.6164 19 18.156V10.844C19 10.3836 18.6164 10 18.156 10H15C14.4477 10 14 9.55228 14 9V5.84399C14 5.38357 13.6164 5 13.156 5H5.8438C5.38366 5 5 5.38348 5 5.84399V13.156C5 13.6166 5.3836 14 5.8438 14H9Z" fill="black" fill-opacity="0.4"/>
</svg>
