<svg width="24" height="24" viewBox="0 0 24 24" fill="none" xmlns="http://www.w3.org/2000/svg">
<path d="M17.5 2C15.015 2 13 4.01499 13 6.49999V8.99998H5C3.343 8.99998 2 10.343 2 12V18.9999C2 20.6569 3.343 21.9999 5 21.9999H15C16.657 21.9999 18 20.6569 18 18.9999V12C18 10.343 16.657 8.99998 15 8.99998V6.49999C15 5.11899 16.119 3.99999 17.5 3.99999C18.881 3.99999 20 5.11899 20 6.49999V7.99998C20 8.55198 20.448 8.99998 21 8.99998C21.552 8.99998 22 8.55198 22 7.99998V6.49999C22 4.01499 19.985 2 17.5 2ZM5 11H15C15.552 11 16 11.448 16 12V18.9999C16 19.5519 15.552 19.9999 15 19.9999H5C4.448 19.9999 4 19.5519 4 18.9999V12C4 11.448 4.448 11 5 11Z" fill="black" fill-opacity="0.4"/>
<path d="M10 12C8.343 12 7 13.343 7 15V16C7 17.657 8.343 19 10 19C11.657 19 13 17.657 13 16V15C13 13.343 11.657 12 10 12ZM10 14C10.552 14 11 14.448 11 15V16C11 16.552 10.552 17 10 17C9.448 17 9 16.552 9 16V15C9 14.448 9.448 14 10 14Z" fill="black"/>
</svg>
