<svg width="24" height="24" viewBox="0 0 24 24" fill="none" xmlns="http://www.w3.org/2000/svg">
<path d="M5.99999 3C4.343 3 3 4.343 3 6V9C3 9.552 3.448 10 4 10C4.552 10 5 9.552 5 9V6C5 5.448 5.448 5 5.99999 5H8.99999C9.55199 5 9.99999 4.552 9.99999 4C9.99999 3.448 9.55199 3 8.99999 3H5.99999ZM15 3C14.448 3 14 3.448 14 4C14 4.552 14.448 5 15 5H18C18.552 5 19 5.448 19 6V9C19 9.552 19.448 10 20 10C20.552 10 21 9.552 21 9V6C21 4.343 19.657 3 18 3H15ZM4 14C3.448 14 3 14.448 3 15V18C3 19.657 4.343 21 5.99999 21H8.99999C9.55199 21 9.99999 20.552 9.99999 20C9.99999 19.448 9.55199 19 8.99999 19H5.99999C5.448 19 5 18.552 5 18V15C5 14.448 4.552 14 4 14ZM20 14C19.448 14 19 14.448 19 15V18C19 18.552 18.552 19 18 19H15C14.448 19 14 19.448 14 20C14 20.552 14.448 21 15 21H18C19.657 21 21 19.657 21 18V15C21 14.448 20.552 14 20 14Z" fill="black" fill-opacity="0.4"/>
<path d="M7 8V16H8V8H7ZM9 8V16H10V8H9ZM11 8V16H12V8H11ZM13 8V16H15V8H13ZM16 8V16H17V8H16Z" fill="black"/>
</svg>
