<svg width="24" height="24" viewBox="0 0 24 24" fill="none" xmlns="http://www.w3.org/2000/svg">
<path fill-rule="evenodd" clip-rule="evenodd" d="M5.8458 16.74L10.0677 12.518C10.0236 12.3528 10 12.1792 10 12C10 10.8954 10.8954 10 12 10C13.1046 10 14 10.8954 14 12C14 13.1046 13.1046 14 12 14C11.8208 14 11.6472 13.9764 11.482 13.9323L7.25998 18.1542L15.5533 16.0809C17.0461 14.88 17.8658 12.9944 17.9849 11.3991L12.601 6.01515C11.0056 6.1342 9.12002 6.9539 7.91912 8.44671L5.8458 16.74ZM6.20002 7.4C7.90966 5.12048 10.7216 4 13 4C13.2652 4 13.5196 4.10536 13.7071 4.29289L19.7071 10.2929C19.8947 10.4804 20 10.7348 20 11C20 13.2784 18.8795 16.0904 16.6 17.8C16.4934 17.88 16.3719 17.9378 16.2426 17.9701L4.24256 20.9701C3.90178 21.0553 3.54129 20.9555 3.29291 20.7071C3.04453 20.4587 2.94468 20.0982 3.02988 19.7575L6.02988 7.75746C6.0622 7.62816 6.12005 7.50663 6.20002 7.4Z" fill="black"/>
<path fill-rule="evenodd" clip-rule="evenodd" d="M14.9449 4.44261C15.535 3.85246 16.4918 3.85246 17.082 4.44261L19.5574 6.91807C20.1476 7.50821 20.1476 8.46502 19.5574 9.05516L19.009 9.60356L19.7072 10.3017C19.8947 10.4892 20.0001 10.7436 20.0001 11.0088C20.0001 11.1554 19.9954 11.3043 19.9861 11.4549L20.9717 10.4694C22.3428 9.09818 22.3428 6.87504 20.9717 5.50385L18.4962 3.02839C17.125 1.6572 14.9019 1.6572 13.5307 3.02839L12.5352 4.02391C12.6922 4.01382 12.8473 4.00879 13.0001 4.00879C13.2653 4.00879 13.5196 4.11415 13.7072 4.30168L14.3965 4.991L14.9449 4.44261Z" fill="black" fill-opacity="0.4"/>
</svg>
