<svg width="24" height="24" viewBox="0 0 24 24" fill="none" xmlns="http://www.w3.org/2000/svg">
<path fill-rule="evenodd" clip-rule="evenodd" d="M4 3C3.44772 3 3 3.44772 3 4C3 4.55228 3.44772 5 4 5H20C20.5523 5 21 4.55228 21 4C21 3.44772 20.5523 3 20 3H4ZM4 19C3.44772 19 3 19.4477 3 20C3 20.5523 3.44772 21 4 21H20C20.5523 21 21 20.5523 21 20C21 19.4477 20.5523 19 20 19H4Z" fill="black" fill-opacity="0.4"/>
<path d="M6 7C4.343 7 3 8.343 3 10V14C3 15.657 4.343 17 6 17H18C19.657 17 21 15.657 21 14V10C21 8.343 19.657 7 18 7H6Z" fill="black"/>
</svg>
