<svg width="24" height="24" viewBox="0 0 24 24" fill="none" xmlns="http://www.w3.org/2000/svg">
<path d="M12 5C10.1385 5 8.394 5.72 7.0938 7C6.7001 7.387 6.7063 8.04399 7.0938 8.43799C7.4812 8.83099 8.1063 8.82499 8.5 8.43799C9.4298 7.52199 10.6689 7 12 7C14.7614 7 17 9.239 17 12C17 12.552 17.4477 13 18 13C18.5523 13 19 12.552 19 12C19 8.134 15.866 5 12 5ZM12 8C11.0208 8 10.0981 8.369 9.375 9C8.9589 9.363 8.9181 9.99001 9.2813 10.406C9.6444 10.822 10.2714 10.863 10.6875 10.5C11.0496 10.184 11.509 10 12 10C12.9762 10 13.804 10.706 13.9688 11.656C14.0631 12.2 14.5808 12.563 15.125 12.469C15.6692 12.374 16.0319 11.856 15.9375 11.313C15.6073 9.40799 13.953 8 12 8ZM6 11C5.4477 11 5 11.448 5 12C5 15.866 8.134 19 12 19C13.876 19 15.6347 18.266 16.9375 16.969C17.3288 16.579 17.3272 15.923 16.9375 15.531C16.5478 15.14 15.9225 15.141 15.5313 15.531C14.5996 16.459 13.3416 17 12 17C9.2386 17 7 14.761 7 12C7 11.448 6.5523 11 6 11ZM8.875 11.594C8.3326 11.698 7.9582 12.208 8.0625 12.75C8.4221 14.621 10.0737 16 12 16C12.9565 16 13.8776 15.667 14.5938 15.063C15.0157 14.706 15.0438 14.078 14.6875 13.656C14.3312 13.234 13.7032 13.175 13.2813 13.531C12.9227 13.834 12.4796 14 12 14C11.0371 14 10.2106 13.308 10.0313 12.375C9.927 11.833 9.4174 11.489 8.875 11.594Z" fill="black" fill-opacity="0.4"/>
<path d="M12 2C6.4772 2 2 6.477 2 12C2 17.523 6.4772 22 12 22C17.5228 22 22 17.523 22 12C22 6.477 17.5228 2 12 2ZM12 4C16.4183 4 20 7.582 20 12C20 16.418 16.4183 20 12 20C7.5817 20 4 16.418 4 12C4 7.582 7.5817 4 12 4ZM12 11C11.4477 11 11 11.448 11 12C11 12.552 11.4477 13 12 13C12.5523 13 13 12.552 13 12C13 11.448 12.5523 11 12 11Z" fill="black"/>
</svg>
