<svg width="24" height="24" viewBox="0 0 24 24" fill="none" xmlns="http://www.w3.org/2000/svg">
<path d="M19.1289 8.01002C18.876 7.97489 18.6315 8.03088 18.4117 8.19715C17.9722 8.52968 17.8609 9.16102 18.1934 9.60064C18.7107 10.2846 19.0042 11.116 19.0042 12.002C19.0042 12.8785 18.7086 13.7173 18.1934 14.4034C17.8625 14.8442 17.971 15.476 18.4117 15.8069C18.8524 16.1379 19.4841 16.0294 19.815 15.5887C20.5875 14.5598 21 13.3147 21 12.002C21 10.6792 20.5932 9.44445 19.815 8.41541C19.6488 8.19565 19.3819 8.04515 19.1289 8.01002Z" fill="black"/>
<path d="M14.0312 3C13.6411 3.0009 13.2274 3.13011 12.9688 3.28121C12.5108 3.54891 9 6.00001 9 6.00001C9 6.00001 6.3262 5.99801 6 6.00001C4.9195 6.00681 4.0079 6.93271 4 8.00001V16C4.0118 17.1138 4.8674 18.0105 6 18C6.2827 17.9974 9 18 9 18C9 18 12.5792 20.4756 13.0312 20.75C13.2934 20.9091 13.5908 21.0047 14 21C15.1177 20.9871 16.0131 20.06 16 18.9688V5.00001C15.9989 3.87711 15.112 2.9976 14.0312 3Z" fill="black" fill-opacity="0.4"/>
</svg>
