<svg width="24" height="24" viewBox="0 0 24 24" fill="none" xmlns="http://www.w3.org/2000/svg">
<path d="M18.9088 5.08615C18.654 5.06645 18.4002 5.12525 18.1914 5.30485C17.7718 5.66415 17.7378 6.32295 18.0975 6.74235C19.3294 8.18185 20.0018 9.99435 20.0018 11.9298C20.0018 13.8618 19.3254 15.679 18.0975 17.1173C17.7388 17.5372 17.7718 18.1648 18.1914 18.5236C18.61 18.8823 19.2375 18.8497 19.5962 18.4298C21.1298 16.6326 22 14.3426 22 11.9298C22 9.51255 21.1358 7.22845 19.5962 5.42985C19.4163 5.22015 19.1636 5.10585 18.9088 5.08615ZM16.1303 7.92985C15.8775 7.89475 15.6317 7.95085 15.4119 8.11735C14.9723 8.45055 14.8604 9.08315 15.1941 9.52365C15.7117 10.209 16.0054 11.042 16.0054 11.9298C16.0054 12.808 15.7097 13.6485 15.1941 14.3361C14.8624 14.7777 14.9713 15.4107 15.4119 15.7423C15.8535 16.074 16.486 15.9652 16.8167 15.5236C17.591 14.4927 18.0036 13.2451 18.0036 11.9298C18.0036 10.6043 17.596 9.36715 16.8167 8.33615C16.6508 8.11585 16.3831 7.96505 16.1303 7.92985Z" fill="black"/>
<path d="M11.03 2.92981C10.64 2.93071 10.226 3.05992 9.96802 3.21112C9.51002 3.47872 5.99902 5.92982 5.99902 5.92982C5.99902 5.92982 4.32502 5.92781 3.99902 5.92982C2.91802 5.93661 2.00702 6.86251 1.99902 7.92981V15.9298C2.01102 17.0436 2.86602 17.9403 3.99902 17.9298C4.28202 17.9272 5.99902 17.9298 5.99902 17.9298C5.99902 17.9298 9.57803 20.4055 10.03 20.6798C10.292 20.8389 10.59 20.9345 10.999 20.9298C12.117 20.9169 13.012 19.9898 12.999 18.8986V4.92981C12.998 3.80691 12.111 2.92741 11.03 2.92981Z" fill="black" fill-opacity="0.4"/>
</svg>
