<svg width="24" height="24" viewBox="0 0 24 24" fill="none" xmlns="http://www.w3.org/2000/svg">
<path d="M7 4C4.791 4 3 5.7909 3 8V16C3 18.2091 4.791 20 7 20H8C8.552 20 9 19.5523 9 19C9 18.4477 8.552 18 8 18H7C5.895 18 5 17.1046 5 16V8C5 6.8954 5.895 6 7 6H8C8.552 6 9 5.5523 9 5C9 4.4477 8.552 4 8 4H7ZM16 4C15.448 4 15 4.4477 15 5C15 5.5523 15.448 6 16 6H17C18.105 6 19 6.8954 19 8V16C19 17.1046 18.105 18 17 18H16C15.448 18 15 18.4477 15 19C15 19.5523 15.448 20 16 20H17C19.209 20 21 18.2091 21 16V8C21 5.7909 19.209 4 17 4H16Z" fill="black" fill-opacity="0.4"/>
<path d="M12 2C11.448 2 11 2.4477 11 3V21C11 21.5523 11.448 22 12 22C12.552 22 13 21.5523 13 21V3C13 2.4477 12.552 2 12 2Z" fill="black"/>
</svg>
