<svg width="24" height="24" viewBox="0 0 24 24" fill="none" xmlns="http://www.w3.org/2000/svg">
<path d="M14 8C13.4477 8 13 8.4477 13 9V15C13 15.5523 13.4477 16 14 16H20C20.5523 16 21 15.5523 21 15V9C21 8.4477 20.5523 8 20 8H14ZM17 11C17.5523 11 18 11.4477 18 12C18 12.5523 17.5523 13 17 13C16.4477 13 16 12.5523 16 12C16 11.4477 16.4477 11 17 11Z" fill="black" fill-opacity="0.4"/>
<path fill-rule="evenodd" clip-rule="evenodd" d="M3 7C2.9998 4.7909 4.79089 3 7 3H17C18.5523 3 20 4.4477 20 6H14C12.3432 6 11 7.3431 11 9V15C11 16.6569 12.3431 18 14 18H20C20 19.5523 18.5523 21 17 21H7C4.7907 21 3 19.2091 3 17V7ZM17 13C17.5523 13 18 12.5523 18 12C18 11.4477 17.5523 11 17 11C16.4477 11 16 11.4477 16 12C16 12.5523 16.4477 13 17 13Z" fill="black"/>
</svg>
