<svg width="24" height="24" viewBox="0 0 24 24" fill="none" xmlns="http://www.w3.org/2000/svg">
<path fill-rule="evenodd" clip-rule="evenodd" d="M7 4C7 2.89543 7.89543 2 9 2H15C16.1046 2 17 2.89543 17 4V4.12602C18.7252 4.57006 20 6.13616 20 8V16C20 17.8638 18.7252 19.4299 17 19.874V20C17 21.1046 16.1046 22 15 22H9C7.89543 22 7 21.1046 7 20V19.874C5.27477 19.4299 4 17.8638 4 16V8C4 6.13616 5.27477 4.57006 7 4.12602V4ZM16 6H8C6.89543 6 6 6.89543 6 8V16C6 17.1046 6.89543 18 8 18H16C17.1046 18 18 17.1046 18 16V8C18 6.89543 17.1046 6 16 6Z" fill="black" fill-opacity="0.4"/>
<path fill-rule="evenodd" clip-rule="evenodd" d="M13 9C13 8.44772 12.5523 8 12 8C11.4477 8 11 8.44772 11 9V11H9C8.44772 11 8 11.4477 8 12C8 12.5523 8.44772 13 9 13H12C12.5523 13 13 12.5523 13 12V9ZM21 10C21 9.44772 20.5523 9 20 9V15C20.5523 15 21 14.5523 21 14V10Z" fill="black"/>
</svg>
