<svg width="24" height="24" viewBox="0 0 24 24" fill="none" xmlns="http://www.w3.org/2000/svg">
<path d="M2.91189 5.01227C2.65989 5.05743 2.4339 5.14505 2.2559 5.35565C1.8999 5.77695 1.8919 6.34491 2.3809 6.82305C3.3819 7.80222 4.46489 8.00943 5.28689 8.00943C5.97789 8.00943 6.8259 7.8226 7.5059 7.35375C7.7139 7.21019 8.0859 7.01447 8.5059 7.01037C8.9409 7.00608 9.43289 7.07771 9.72489 7.29131C10.3439 7.74488 11.1789 8.00703 11.9749 8.00943C12.8349 8.01192 13.6959 7.76226 14.2249 7.35375C14.5829 7.07701 15.0399 7.01037 15.4749 7.01037C15.9089 7.01037 16.1269 7.0911 16.6619 7.41619C17.3119 7.81101 18.0019 8.01362 18.7559 8.00943C20.0389 8.00213 20.8739 7.56055 21.7249 6.69817C22.1119 6.30544 22.0939 5.70322 21.6929 5.32448C21.2919 4.94574 20.6979 4.89329 20.3179 5.29321C20.2659 5.34865 20.0229 5.55755 20.0059 5.57424C19.7099 5.86316 19.2089 6.01842 18.7559 6.01132C18.3409 6.00473 17.9769 5.88704 17.6929 5.69912C16.8539 5.14235 16.1479 5.01217 15.2869 5.01227C14.7079 5.01227 13.8379 5.19959 13.2559 5.60541C12.5199 6.11862 11.5439 6.10543 10.9119 5.66785C10.2019 5.17632 9.3439 4.9828 8.5059 5.01227C7.6379 5.04274 6.96289 5.3019 6.34989 5.73029C5.82289 6.09794 4.7709 6.10503 4.1929 5.69912L3.6309 5.26204C3.3449 5.06222 3.18289 4.96362 2.91189 5.01227ZM2.91189 15.0028C2.65989 15.0479 2.4339 15.1355 2.2559 15.3462C1.8999 15.7675 1.92289 16.3354 2.41189 16.8136C3.41389 17.7927 4.46489 17.9999 5.28689 17.9999C5.97789 17.9999 6.8259 17.8131 7.5059 17.3443C7.7139 17.2007 8.0859 17.005 8.5059 17.0009C8.9409 16.9966 9.43289 17.0682 9.72489 17.2818C10.3439 17.7354 11.1789 17.9975 11.9749 17.9999C12.8349 18.0024 13.6959 17.7528 14.2249 17.3443C14.5829 17.0675 15.0399 17.0009 15.4749 17.0009C15.9089 17.0009 16.1269 17.0816 16.6619 17.4067C17.3119 17.8015 18.0019 18.0041 18.7559 17.9999C20.0389 17.9926 20.8739 17.5511 21.7249 16.6887C22.1119 16.296 22.0939 15.6936 21.6929 15.315C21.2919 14.9362 20.6979 14.8838 20.3179 15.2837C20.2659 15.3392 20.0229 15.5481 20.0059 15.5647C19.7099 15.8537 19.2089 16.0089 18.7559 16.0018C18.3409 15.9952 17.9769 15.8776 17.6929 15.6896C16.8539 15.1329 16.1479 15.0028 15.2869 15.0028C14.7079 15.0028 13.8379 15.1901 13.2559 15.5959C12.5199 16.1091 11.5439 16.0959 10.9119 15.6584C10.2019 15.1668 9.3439 14.9733 8.5059 15.0028C7.6379 15.0333 6.96289 15.2924 6.34989 15.7208C5.82289 16.0885 4.7709 16.0955 4.1929 15.6896L3.6309 15.2525C3.3449 15.0527 3.18289 14.9541 2.91189 15.0028Z" fill="black" fill-opacity="0.4"/>
<path d="M2.91189 10.0122C2.65989 10.0572 2.4339 10.1446 2.2559 10.3545C1.8999 10.7745 1.8919 11.3407 2.3809 11.8173C3.3819 12.7934 4.46489 12.9999 5.28689 12.9999C5.97789 12.9999 6.8259 12.8137 7.5059 12.3463C7.7139 12.2032 8.0859 12.0081 8.5059 12.004C8.9409 11.9998 9.43289 12.0712 9.72489 12.2841C10.3439 12.7362 11.1789 12.9975 11.9749 12.9999C12.8349 13.0024 13.6959 12.7536 14.2249 12.3463C14.5829 12.0705 15.0399 12.004 15.4749 12.004C15.9089 12.004 16.1269 12.0845 16.6619 12.4086C17.3119 12.8022 18.0019 13.0041 18.7559 12.9999C20.0389 12.9927 20.8739 12.5525 21.7249 11.6928C22.1119 11.3013 22.0939 10.701 21.6929 10.3235C21.2919 9.94591 20.6979 9.89362 20.3179 10.2923C20.2659 10.3476 20.0229 10.5558 20.0059 10.5724C19.7099 10.8604 19.2089 11.0152 18.7559 11.0081C18.3409 11.0016 17.9769 10.8842 17.6929 10.6969C16.8539 10.1419 16.1479 10.0121 15.2869 10.0122C14.7079 10.0122 13.8379 10.199 13.2559 10.6035C12.5199 11.1151 11.5439 11.1019 10.9119 10.6657C10.2019 10.1758 9.3439 9.98285 8.5059 10.0122C7.6379 10.0426 6.96289 10.3009 6.34989 10.728C5.82289 11.0945 4.7709 11.1016 4.1929 10.6969L3.6309 10.2612C3.3449 10.062 3.18289 9.96373 2.91189 10.0122Z" fill="black"/>
</svg>
