<svg width="24" height="24" viewBox="0 0 24 24" fill="none" xmlns="http://www.w3.org/2000/svg">
<path d="M11.9979 16C11.756 16 11.5262 16.1 11.3417 16.281C11.3417 16.281 9.8592 17.742 9.2791 18.312C8.6991 18.883 9.0636 20.003 9.9979 20H13.9979C14.9164 20.003 15.3039 18.859 14.7167 18.281C14.1294 17.703 12.6854 16.281 12.6854 16.281C12.5008 16.1 12.2398 16 11.9979 16Z" fill="black" fill-opacity="0.4"/>
<path d="M12.0291 8C9.38911 8 6.94611 9.1399 5.24791 11.094C4.88561 11.511 4.92481 12.138 5.34171 12.5C5.75851 12.862 6.38561 12.823 6.74791 12.406C8.07021 10.885 9.97432 10 12.0291 10C14.0476 10 15.9274 10.869 17.2479 12.344C17.6163 12.755 18.2426 12.775 18.6541 12.406C19.0656 12.038 19.1164 11.411 18.7479 11C17.0518 9.1057 14.6224 8 12.0291 8ZM12.0291 12C10.5601 12 9.19111 12.63 8.24791 13.719C7.88621 14.136 7.92421 14.763 8.34171 15.125C8.75901 15.487 9.38621 15.449 9.74791 15.031C10.3151 14.377 11.1464 14 12.0291 14C12.8924 14 13.6817 14.37 14.2479 15C14.6172 15.411 15.2748 15.432 15.6854 15.062C16.0961 14.693 16.1172 14.067 15.7479 13.656C14.8062 12.609 13.4656 12 12.0291 12Z" fill="black"/>
</svg>
