<svg width="24" height="24" viewBox="0 0 24 24" fill="none" xmlns="http://www.w3.org/2000/svg">
<path d="M8 3C7.469 3 6.951 3.1462 6.5 3.4062C6.021 3.6819 5.849 4.2714 6.125 4.75C6.401 5.2286 7.021 5.4006 7.5 5.125C7.65 5.0387 7.822 5 8 5C8.552 5 9 5.4477 9 6C9 6.5523 8.552 7 8 7C7.353 7 4.505 7 4 7C3.448 7 3 7.4477 3 8C3 8.5523 3.448 9 4 9C4.505 9 7.353 9 8 9C9.657 9 11 7.6569 11 6C11 4.3431 9.657 3 8 3ZM4 15C3.448 15 3 15.448 3 16C3 16.552 3.448 17 4 17C5.252 17 13.569 17 14 17C14.552 17 15 17.448 15 18C15 18.552 14.552 19 14 19C13.822 19 13.65 18.961 13.5 18.875C13.021 18.599 12.401 18.771 12.125 19.25C11.849 19.729 12.021 20.318 12.5 20.594C12.951 20.854 13.469 21 14 21C15.657 21 17 19.657 17 18C17 16.343 15.657 15 14 15C13.569 15 5.252 15 4 15Z" fill="black" fill-opacity="0.4"/>
<path d="M16.5 4C14.269 4 12.395 5.6273 12.062 7.8125C11.979 8.3585 12.329 8.8857 12.875 8.9688C13.421 9.0518 13.948 8.671 14.031 8.125C14.216 6.9135 15.261 6 16.5 6C17.881 6 19 7.1193 19 8.5C19 9.8807 17.881 11 16.5 11C15.97 11 5.565 11 4 11C3.448 11 3 11.448 3 12C3 12.552 3.448 13 4 13C5.565 13 15.97 13 16.5 13C18.985 13 21 10.985 21 8.5C21 6.0147 18.985 4 16.5 4Z" fill="black"/>
</svg>
