<svg width="24" height="24" viewBox="0 0 24 24" fill="none" xmlns="http://www.w3.org/2000/svg">
<path fill-rule="evenodd" clip-rule="evenodd" d="M12 10C12 8.34315 13.3431 7 15 7H19C20.6569 7 22 8.34315 22 10V14C22 15.6569 20.6569 17 19 17H15C13.3431 17 12 15.6569 12 14V10ZM15 9C14.4477 9 14 9.44772 14 10V14C14 14.5523 14.4477 15 15 15H19C19.5523 15 20 14.5523 20 14V10C20 9.44772 19.5523 9 19 9H15Z" fill="black" fill-opacity="0.4"/>
<path fill-rule="evenodd" clip-rule="evenodd" d="M3 7C3 4.79086 4.79086 3 7 3H17C18.6569 3 20 4.34315 20 6V7.17071C19.6872 7.06016 19.3506 7 19 7H18V6C18 5.44772 17.5523 5 17 5H7C5.89543 5 5 5.89543 5 7V17C5 18.1046 5.89543 19 7 19H17C17.5523 19 18 18.5523 18 18V17H19C19.3506 17 19.6872 16.9398 20 16.8293V18C20 19.6569 18.6569 21 17 21H7C4.79086 21 3 19.2091 3 17V7ZM17 13C17.5523 13 18 12.5523 18 12C18 11.4477 17.5523 11 17 11C16.4477 11 16 11.4477 16 12C16 12.5523 16.4477 13 17 13Z" fill="black"/>
</svg>
