<svg width="24" height="24" viewBox="0 0 24 24" fill="none" xmlns="http://www.w3.org/2000/svg">
<path d="M20.3419 7.34386C20.0859 7.34756 19.8469 7.45826 19.6539 7.65626C19.2699 8.05246 19.2889 8.67776 19.6859 9.06256C19.9169 9.28706 20.1099 9.49995 20.2479 9.65625C20.6129 10.0711 21.2399 10.1151 21.6539 9.75006C22.0689 9.38486 22.1129 8.75816 21.7479 8.34386C21.5699 8.14236 21.3259 7.88246 21.0609 7.62506C20.8619 7.43266 20.5979 7.34006 20.3419 7.34386ZM17.3419 10.3441C17.0859 10.3521 16.8119 10.4551 16.6229 10.6561C16.2449 11.0581 16.2829 11.6841 16.6859 12.0621C16.9469 12.3081 17.1159 12.4971 17.2169 12.6251C17.5589 13.0581 18.1899 13.1231 18.6229 12.7811C19.0569 12.4391 19.1219 11.8081 18.7789 11.3751C18.5999 11.1481 18.3899 10.9351 18.0609 10.6251C17.8589 10.4361 17.5979 10.3361 17.3419 10.3441ZM14.4039 13.4061C14.1489 13.4191 13.8709 13.5451 13.6859 13.7501C13.3149 14.1591 13.3699 14.7851 13.7789 15.1561C13.9949 15.3511 14.1269 15.4761 14.1859 15.5621C14.4949 16.0201 15.1029 16.1221 15.5609 15.8121C16.0179 15.5031 16.1199 14.8951 15.8109 14.4381C15.6369 14.1811 15.4509 13.9531 15.1229 13.6561C14.9179 13.4711 14.6599 13.3941 14.4039 13.4061ZM11.9979 16.0001C11.7559 16.0001 11.5259 16.1001 11.3419 16.2811C11.3419 16.2811 9.85917 17.7421 9.27917 18.3121C8.69907 18.8831 9.06358 20.0031 9.99788 20.0001H13.9979C14.9159 20.0031 15.3039 18.8591 14.7169 18.2811C14.1299 17.7031 12.6859 16.2811 12.6859 16.2811C12.5009 16.1001 12.2399 16.0001 11.9979 16.0001Z" fill="black" fill-opacity="0.4"/>
<path d="M11.998 4C8.23612 4 4.68911 5.61196 2.24801 8.33964C1.87991 8.75095 1.93011 9.37675 2.34181 9.74449C2.75351 10.1121 3.37991 10.0622 3.74801 9.65078C5.81161 7.34489 8.80842 5.99808 11.998 5.99808C13.336 5.99808 14.699 6.24025 15.908 6.68003L14.269 8.30557C13.554 8.11206 12.752 7.99617 11.998 7.99617C9.35422 7.99617 6.90051 9.23888 5.21681 11.3679C4.87441 11.8005 4.93962 12.4309 5.37301 12.7726C5.80642 13.1153 6.43691 13.0493 6.77931 12.6167C8.09201 10.9563 9.98082 9.99426 11.998 9.99426C12.16 9.99426 12.4 10.0162 12.56 10.0302L8.27931 14.2712C7.88881 14.6618 7.88871 15.3172 8.27931 15.7078C8.66981 16.0974 9.32631 16.0974 9.71681 15.7078L19.688 5.71795C20.079 5.32782 20.113 4.69044 19.722 4.30021C19.527 4.1052 19.254 4 18.998 4C18.742 4 18.452 4.12648 18.256 4.32159L17.417 5.15599C15.752 4.412 13.891 4 11.998 4Z" fill="black"/>
</svg>
