<svg width="24" height="24" viewBox="0 0 24 24" fill="none" xmlns="http://www.w3.org/2000/svg">
<path d="M11.9979 16C11.756 16 11.5262 16.1 11.3417 16.281C11.3417 16.281 9.8592 17.742 9.2791 18.312C8.6991 18.883 9.0636 20.003 9.9979 20H13.9979C14.9164 20.003 15.3039 18.859 14.7167 18.281C14.1294 17.703 12.6854 16.281 12.6854 16.281C12.5008 16.1 12.2398 16 11.9979 16Z" fill="black" fill-opacity="0.4"/>
<path d="M12.0292 4C8.2488 4 4.6818 5.6118 2.248 8.3438C1.8806 8.7561 1.9293 9.3827 2.3418 9.75C2.7541 10.117 3.3806 10.069 3.748 9.65619C5.8028 7.3497 8.8201 6 12.0292 6C15.2286 6 18.1838 7.3354 20.248 9.65619C20.615 10.069 21.2415 10.117 21.6542 9.75C22.0669 9.383 22.1151 8.7564 21.748 8.3438C19.3063 5.5985 15.8029 4 12.0292 4ZM12.0292 8C9.3892 8 6.9462 9.1399 5.248 11.094C4.8857 11.511 4.9249 12.138 5.3418 12.5C5.7586 12.862 6.3857 12.823 6.748 12.406C8.0703 10.885 9.9744 10 12.0292 10C14.0477 10 15.9275 10.869 17.248 12.344C17.6164 12.755 18.2427 12.775 18.6542 12.406C19.0657 12.038 19.1165 11.411 18.748 11C17.0519 9.1057 14.6225 8 12.0292 8ZM12.0292 12C10.5602 12 9.1912 12.63 8.248 13.719C7.8863 14.136 7.9243 14.763 8.3418 15.125C8.7591 15.487 9.3863 15.449 9.748 15.031C10.3152 14.377 11.1465 14 12.0292 14C12.8925 14 13.6818 14.37 14.248 15C14.6173 15.411 15.2749 15.432 15.6855 15.062C16.0962 14.693 16.1173 14.067 15.748 13.656C14.8063 12.609 13.4657 12 12.0292 12Z" fill="black"/>
</svg>
