<svg width="24" height="24" viewBox="0 0 24 24" fill="none" xmlns="http://www.w3.org/2000/svg">
<path d="M7.9978 2C5.7887 2 3.9978 3.7909 3.9978 6V18C3.9978 20.2091 5.7887 22 7.9978 22H15.9978C18.2068 22 19.9978 20.2091 19.9978 18V6C19.9978 3.7909 18.2068 2 15.9978 2H7.9978ZM7.9978 4H15.9978C17.1028 4 17.9978 4.8954 17.9978 6V18C17.9978 19.1046 17.1028 20 15.9978 20H7.9978C6.8932 20 5.9978 19.1046 5.9978 18V6C5.9978 4.8954 6.8932 4 7.9978 4Z" fill="black" fill-opacity="0.4"/>
<path d="M14.9914 9C14.7362 9 14.4699 9.08584 14.2745 9.28047L11.003 12.5552L9.72548 11.2766C9.33601 10.8874 8.6815 10.8874 8.29203 11.2766C7.90266 11.6669 7.90266 12.3216 8.29203 12.7119L10.2861 14.7081C10.6759 15.0973 11.33 15.0973 11.7199 14.7081L15.7083 10.7157C16.0972 10.3255 16.0972 9.67072 15.7083 9.28047C15.5129 9.08584 15.2467 9 14.9914 9Z" fill="black"/>
</svg>
