<svg width="24" height="24" viewBox="0 0 24 24" fill="none" xmlns="http://www.w3.org/2000/svg">
<path d="M7.9978 2C5.7887 2 3.9978 3.7909 3.9978 6V18C3.9978 20.2091 5.7887 22 7.9978 22H15.9978C18.2068 22 19.9978 20.2091 19.9978 18V6C19.9978 3.7909 18.2068 2 15.9978 2H7.9978ZM7.9978 4H15.9978C17.1028 4 17.9978 4.8954 17.9978 6V18C17.9978 19.1046 17.1028 20 15.9978 20H7.9978C6.8932 20 5.9978 19.1046 5.9978 18V6C5.9978 4.8954 6.8932 4 7.9978 4Z" fill="black" fill-opacity="0.4"/>
<path d="M10.031 13C8.73601 13 8 13.946 8 15.344V15.656C8 17.054 8.697 18 10 18C11.349 18 12.031 16.987 12.031 15.656V15.344C12.031 13.939 11.334 13 10.031 13ZM13.906 13.094C13.702 13.193 12.853 13.713 12.656 13.844V14.75C12.837 14.634 13.705 14.102 13.844 14.031H13.906V17.906H15V13.094H13.906ZM10.031 13.844C10.579 13.844 10.937 14.342 10.938 15.344V15.656C10.938 16.658 10.579 17.156 10.031 17.156C9.48401 17.156 9.125 16.662 9.125 15.656V15.344C9.125 14.338 9.48401 13.844 10.031 13.844Z" fill="black"/>
</svg>
