<svg width="24" height="24" viewBox="0 0 24 24" fill="none" xmlns="http://www.w3.org/2000/svg">
<path d="M5.99798 2.71875C5.73123 2.86574 5.48189 3.03309 5.25 3.21872C4.798 3.58042 4.28299 4.17442 4.09399 4.56242C4.02599 4.70192 4 4.84462 4 4.99992C4 6.37492 4 14.6249 4 15.9999V20.9999C4 21.5522 4.448 21.9999 5 21.9999C5.552 21.9999 6 21.5522 6 20.9999C6 18 6 4.56246 5.99798 2.71875Z" fill="black" fill-opacity="0.4"/>
<path d="M11.1129 2.56668L11.1135 2.5669L11.1243 2.57129C11.729 2.81276 12.2053 3.00001 13.0002 3C13.814 3 14.4283 2.8 15.0011 2.57129C15.0822 2.5389 15.1715 2.50187 15.2648 2.46338C15.4731 2.3774 15.7011 2.28337 15.9013 2.21289C16.2133 2.10307 16.5867 2 17.0002 2C17.8254 2 18.567 2.40238 19.0823 2.91773C19.5977 3.43307 20.0002 4.17477 20.0002 5V10.4998C20.0002 13.6205 17.4814 16 14.0002 16C12.5855 16 11.7089 15.7089 10.9682 15.4399L10.8678 15.4033C10.2245 15.169 9.75989 15 9.00021 15C8.22678 15 7.39082 15.2976 6.69742 15.6443C6.42244 15.7818 6.18447 15.9196 6.00002 16.0339L6 2.77466C6.66277 2.35968 7.51733 1.99974 8.50023 1.99976C9.69331 1.99978 10.4666 2.30856 11.1129 2.56668Z" fill="black"/>
</svg>
