<svg width="24" height="24" viewBox="0 0 24 24" fill="none" xmlns="http://www.w3.org/2000/svg">
<path d="M11.9993 2.00023C9.43425 2.02503 7.99925 3.92913 7.99925 6.00023C7.99925 7.88313 9.28435 9.41873 10.9993 9.87523V7.00023C11.0005 6.44793 11.447 5.99903 11.9993 6.00023C12.5516 6.00143 13.0005 6.44793 12.9993 7.00023V8.71904C13.5861 7.64744 15.0704 6.44094 16.9993 6.09404C16.4779 3.61054 14.3309 1.97763 11.9993 2.00023ZM6.09305 7.00023C3.60955 7.52163 1.97666 9.66873 1.99926 12.0002C2.02406 14.5652 3.92815 16.0002 5.99925 16.0002C7.88215 16.0002 9.41775 14.7152 9.87425 13.0002H6.99925C6.44695 12.9992 5.99805 12.5522 5.99925 12.0002C6.00045 11.4482 6.44695 10.9992 6.99925 11.0002H8.71805C7.64645 10.4132 6.43995 8.92903 6.09305 7.00023ZM17.9993 8.00023C16.1164 8.00023 14.5808 9.28533 14.1243 11.0002H16.9993C17.5516 11.0012 18.0005 11.4482 17.9993 12.0002C17.9981 12.5522 17.5516 13.0012 16.9993 13.0002H15.2804C16.352 13.5872 17.5585 15.0712 17.9054 17.0002C20.389 16.4792 22.0219 14.3322 21.9993 12.0002C21.9745 9.43523 20.0704 8.00023 17.9993 8.00023ZM12.9993 14.1252V17.0002C12.9981 17.5522 12.5516 18.0012 11.9993 18.0002C11.447 17.9992 10.9981 17.5522 10.9993 17.0002V15.2812C10.4125 16.3532 8.92815 17.5592 6.99925 17.9062C7.52065 20.3902 9.66765 22.0232 11.9993 22.0002C14.5643 21.9752 15.9993 20.0712 15.9993 18.0002C15.9993 16.1172 14.7142 14.5822 12.9993 14.1252Z" fill="black"/>
<circle cx="12" cy="12" r="1" fill="black" fill-opacity="0.4"/>
</svg>
