<svg width="24" height="24" viewBox="0 0 24 24" fill="none" xmlns="http://www.w3.org/2000/svg">
<path d="M13.9363 4.02731C13.1673 4.04931 12.4423 4.35061 11.9043 4.87111C11.5123 4.51991 11.0893 4.16281 10.5603 4.05861C10.1013 3.96791 9.62326 3.97081 9.12326 4.12111C7.77527 4.52621 7.05927 5.70541 6.99827 6.93361C6.88127 6.93551 6.77027 6.88711 6.65427 6.90231C5.74827 7.02151 4.89728 7.54771 4.40428 8.46481C3.73428 9.71061 4.06628 11.0528 4.90428 11.9648C4.17028 12.7078 3.78127 13.7648 4.12327 14.9028C4.52827 16.2508 5.70727 16.9748 6.93627 17.0278C6.95727 18.0488 7.44026 19.0378 8.46726 19.5898C9.71626 20.2618 11.0553 19.9248 11.9673 19.0898C12.7013 19.8148 13.7473 20.2098 14.8733 19.8708C16.2213 19.4658 16.9373 18.2868 16.9983 17.0588C17.0843 17.0578 17.1623 17.0978 17.2483 17.0898C18.2352 16.9958 19.0992 16.4438 19.5922 15.5278C20.2622 14.2818 19.9302 12.9388 19.0922 12.0278C19.8162 11.2838 20.2132 10.2518 19.8732 9.12111C19.4732 7.78971 18.3022 7.19701 17.0922 7.12111C17.0922 7.11111 17.0922 7.09981 17.0922 7.08981C17.1072 5.97851 16.5543 4.95381 15.5293 4.40231C15.0163 4.12641 14.4573 4.01241 13.9363 4.02731ZM11.9983 7.99611C14.2073 7.99611 15.9983 9.78661 15.9983 11.9958C15.9983 14.2058 14.2073 15.9958 11.9983 15.9958C9.78926 15.9958 7.99826 14.2058 7.99826 11.9958C7.99826 9.78661 9.78926 7.99611 11.9983 7.99611Z" fill="black"/>
<circle cx="12" cy="12" r="2" fill="black" fill-opacity="0.4"/>
</svg>
