<svg width="24" height="24" viewBox="0 0 24 24" fill="none" xmlns="http://www.w3.org/2000/svg">
<path d="M14.3361 2.53151C13.4158 2.55729 12.5583 2.94951 11.9335 3.59324C10.7976 2.49684 9.47908 2.31847 8.5029 2.65642C6.89289 3.21332 6.06043 4.6294 6.10135 6.12261C4.90058 6.09973 3.67184 6.49205 2.91924 7.84017C2.09378 9.3198 2.54595 10.9597 3.60599 11.9934C2.69667 12.8416 2.20159 14.1088 2.60784 15.4597C3.09793 17.0925 4.57817 17.9271 6.0694 17.8954C6.01051 19.1505 6.53153 20.4052 7.7852 21.0806C9.29141 21.8915 10.9354 21.4261 11.9655 20.3311C12.8209 21.249 14.0695 21.77 15.427 21.3616C17.058 20.8709 17.8695 19.4106 17.8296 17.9266C17.9973 17.9347 18.16 18.0052 18.3286 17.989C19.4555 17.881 20.4477 17.2581 21.0106 16.2091C21.8211 14.7014 21.378 13.0551 20.293 12.0246C21.2143 11.1771 21.7313 9.91877 21.3231 8.55835C20.843 6.95981 19.4146 6.06735 17.9543 6.06016C17.9543 6.05027 17.9533 6.03887 17.9543 6.02898C17.9713 4.7571 17.3175 3.60004 16.1447 2.9687C15.5578 2.65243 14.9329 2.51472 14.3361 2.53151ZM11.9335 6.99698C14.6914 6.99698 16.9242 9.23147 16.9242 11.9934C16.9242 14.7553 14.6914 16.9897 11.9335 16.9897C9.17662 16.9897 6.94277 14.7553 6.94277 11.9934C6.94277 9.23147 9.17662 6.99698 11.9335 6.99698Z" fill="black"/>
<circle cx="12" cy="12" r="3" fill="black" fill-opacity="0.4"/>
</svg>
