<svg width="24" height="24" viewBox="0 0 24 24" fill="none" xmlns="http://www.w3.org/2000/svg">
<path fill-rule="evenodd" clip-rule="evenodd" d="M3 7H10.4296C11.4327 7 12.3694 7.5013 12.9258 8.3359L13.7383 9.5547C13.9238 9.8329 14.236 10 14.5704 10H21V17C21 19.2091 19.2091 21 17 21H7C4.79086 21 3 19.2091 3 17V7ZM5 9V17C5 18.1046 5.89543 19 7 19H17C18.1046 19 19 18.1046 19 17V12H14.5704C13.5673 12 12.6306 11.4987 12.0742 10.6641L11.2617 9.4453C11.0762 9.1671 10.764 9 10.4296 9H5Z" fill="black"/>
<path fill-rule="evenodd" clip-rule="evenodd" d="M3 6C3 4.34315 4.34315 3 6 3H12.4296C13.4327 3 14.3694 3.5013 14.9258 4.3359L15.7383 5.5547C15.9238 5.8329 16.236 6 16.5704 6H18C19.6569 6 21 7.34315 21 9V10H19V9C19 8.44771 18.5523 8 18 8H16.5704C15.5673 8 14.6306 7.4987 14.0742 6.6641L13.2617 5.4453C13.0762 5.1671 12.764 5 12.4296 5H6C5.44772 5 5 5.44772 5 6V7H3V6Z" fill="black" fill-opacity="0.4"/>
</svg>
