<svg width="24" height="24" viewBox="0 0 24 24" fill="none" xmlns="http://www.w3.org/2000/svg">
<path fill-rule="evenodd" clip-rule="evenodd" d="M6 5C5.44772 5 5 5.44772 5 6V7H11.8694C11.5908 6.55923 11.3494 6.1027 11.1567 5.70772C10.938 5.25929 10.52 5 10.114 5H6ZM14.5158 7H20C20.5523 7 21 7.44772 21 8V17C21 19.2091 19.2091 21 17 21H7C4.79086 21 3 19.2091 3 17V7V6C3 4.34315 4.34315 3 6 3H10.114C11.3753 3 12.442 3.78071 12.9543 4.83086C13.2282 5.39246 13.5686 6.00122 13.9262 6.45495C14.1051 6.68184 14.2621 6.83611 14.3877 6.92656C14.4602 6.9788 14.5019 6.99541 14.5158 7Z" fill="black" fill-opacity="0.4"/>
<path d="M14.9914 11C14.7361 11 14.4699 11.0858 14.2745 11.2805L11.0029 14.5552L9.72553 13.2766C9.33565 12.8874 8.68154 12.8874 8.29166 13.2766C7.90278 13.6669 7.90278 14.3216 8.29166 14.7119L10.2859 16.7081C10.6758 17.0973 11.3299 17.0973 11.7198 16.7081L15.7083 12.7157C16.0972 12.3255 16.0972 11.6707 15.7083 11.2805C15.5129 11.0858 15.2467 11 14.9914 11Z" fill="black"/>
</svg>
