<svg width="24" height="24" viewBox="0 0 24 24" fill="none" xmlns="http://www.w3.org/2000/svg">
<path fill-rule="evenodd" clip-rule="evenodd" d="M3 7C3 4.79086 4.79086 3 7 3H9C10.259 3 11.4446 3.59278 12.2 4.6L13.4 6.2C13.7777 6.70361 14.3705 7 15 7H21V17C21 19.2091 19.2091 21 17 21H7C4.79086 21 3 19.2091 3 17V7Z" fill="black"/>
<path fill-rule="evenodd" clip-rule="evenodd" d="M19 7H21C21 4.79086 19.2091 3 17 3H9C10.259 3 11.4446 3.59278 12.2 4.6L12.5 5H17C18.1046 5 19 5.89543 19 7Z" fill="black" fill-opacity="0.4"/>
</svg>
