<svg width="24" height="24" viewBox="0 0 24 24" fill="none" xmlns="http://www.w3.org/2000/svg">
<path d="M5.99731 3.9978C5.44531 3.9978 4.99731 4.4458 4.99731 4.9978V6.9978C4.99731 7.5498 5.44531 7.9978 5.99731 7.9978C6.54931 7.9978 6.99731 7.5498 6.99731 6.9978V5.9978H10.9973V17.9978H9.9973C9.4453 17.9978 8.99731 18.4458 8.99731 18.9978C8.99731 19.5498 9.4453 19.9978 9.9973 19.9978H13.9973C14.5493 19.9978 14.9973 19.5498 14.9973 18.9978C14.9973 18.4458 14.5493 17.9978 13.9973 17.9978H12.9973V5.9978H16.9973V6.9978C16.9973 7.5498 17.4453 7.9978 17.9973 7.9978C18.5493 7.9978 18.9973 7.5498 18.9973 6.9978V4.9978C18.9973 4.4458 18.5493 3.9978 17.9973 3.9978H5.99731Z" fill="black"/>
</svg>
