<svg width="24" height="24" viewBox="0 0 24 24" fill="none" xmlns="http://www.w3.org/2000/svg">
<path fill-rule="evenodd" clip-rule="evenodd" d="M14 5C14.5523 5 15 5.44772 15 6V9C15 9.55228 14.5523 10 14 10H4V14H14C14.5523 14 15 14.4477 15 15V18C15 18.5523 14.5523 19 14 19C13.4477 19 13 18.5523 13 18V16H3C2.44772 16 2 15.5523 2 15V9C2 8.44772 2.44772 8 3 8H13V6C13 5.44772 13.4477 5 14 5Z" fill="black" fill-opacity="0.4"/>
<path fill-rule="evenodd" clip-rule="evenodd" d="M13.2408 5.34923C13.6002 4.9299 14.2315 4.88134 14.6508 5.24076L21.6508 11.2408C21.8725 11.4307 22 11.7081 22 12C22 12.2919 21.8725 12.5693 21.6508 12.7593L14.6508 18.7593C14.2315 19.1187 13.6002 19.0701 13.2408 18.6508C12.8813 18.2315 12.9299 17.6002 13.3492 17.2408L19.4634 12L13.3492 6.75927C12.9299 6.39985 12.8813 5.76855 13.2408 5.34923Z" fill="black"/>
</svg>
