<svg width="24" height="24" viewBox="0 0 24 24" fill="none" xmlns="http://www.w3.org/2000/svg">
<path fill-rule="evenodd" clip-rule="evenodd" d="M13 16H3C2.44772 16 2 15.5523 2 15V9C2 8.44772 2.44772 8 3 8H13V16Z" fill="black" fill-opacity="0.4"/>
<path fill-rule="evenodd" clip-rule="evenodd" d="M13.2408 5.34923C13.6002 4.9299 14.2315 4.88134 14.6508 5.24076L21.6508 11.2408C21.8725 11.4307 22 11.7081 22 12C22 12.2919 21.8725 12.5693 21.6508 12.7593L14.6508 18.7593C14.2315 19.1187 13.6002 19.0701 13.2408 18.6508C13.079 18.4621 12.9999 18.2305 13 18C13.0019 14.0359 12.9996 9.79047 13 5.99944C13 5.76917 13.0792 5.53777 13.2408 5.34923Z" fill="black"/>
</svg>
