<svg width="24" height="24" viewBox="0 0 24 24" fill="none" xmlns="http://www.w3.org/2000/svg">
<path fill-rule="evenodd" clip-rule="evenodd" d="M12 2C9.79086 2 8 3.79086 8 6H5C3.89543 6 3 6.89543 3 8V18C3 20.2091 4.79086 22 7 22H17C19.2091 22 21 20.2091 21 18V8C21 6.89543 20.1046 6 19 6H16C16 3.79086 14.2091 2 12 2ZM14 6C14 4.89543 13.1046 4 12 4C10.8954 4 10 4.89543 10 6H14Z" fill="black" fill-opacity="0.4"/>
<path fill-rule="evenodd" clip-rule="evenodd" d="M14.7071 12.7071C15.0976 12.3166 15.0976 11.6834 14.7071 11.2929C14.3166 10.9024 13.6834 10.9024 13.2929 11.2929L12 12.5858L10.7071 11.2929C10.3166 10.9024 9.68342 10.9024 9.29289 11.2929C8.90237 11.6834 8.90237 12.3166 9.29289 12.7071L10.5858 14L9.29289 15.2929C8.90237 15.6834 8.90237 16.3166 9.29289 16.7071C9.68342 17.0976 10.3166 17.0976 10.7071 16.7071L12 15.4142L13.2929 16.7071C13.6834 17.0976 14.3166 17.0976 14.7071 16.7071C15.0976 16.3166 15.0976 15.6834 14.7071 15.2929L13.4142 14L14.7071 12.7071Z" fill="black"/>
</svg>
