<svg width="24" height="24" viewBox="0 0 24 24" fill="none" xmlns="http://www.w3.org/2000/svg">
<path fill-rule="evenodd" clip-rule="evenodd" d="M2 19C2 18.4477 2.44772 18 3 18H21C21.5523 18 22 18.4477 22 19C22 19.5523 21.5523 20 21 20H3C2.44772 20 2 19.5523 2 19Z" fill="black"/>
<path fill-rule="evenodd" clip-rule="evenodd" d="M16 6C16 4.89543 16.8954 4 18 4H20C21.1046 4 22 4.89543 22 6V19C22 18.4477 21.5523 18 21 18H16V6ZM15 18V10C15 8.89543 14.1046 8 13 8H11C9.89543 8 9 8.89543 9 10V18H15ZM8 18V14C8 12.8954 7.10457 12 6 12H4C2.89543 12 2 12.8954 2 14V19C2 18.4477 2.44772 18 3 18H8Z" fill="black" fill-opacity="0.4"/>
</svg>
