<svg width="24" height="24" viewBox="0 0 24 24" fill="none" xmlns="http://www.w3.org/2000/svg">
<path fill-rule="evenodd" clip-rule="evenodd" d="M8.78734 7.11154C8.96869 7.17006 9.12138 7.2485 9.25321 7.33927C9.55235 7.54523 9.81345 7.86296 10.0431 8.32222C10.5242 9.28454 10.7558 10.6175 11.0136 12.1644L11.0289 12.2558C11.2672 13.687 11.5377 15.3115 12.1682 16.5722C12.2408 16.7174 12.3193 16.8605 12.4045 17H10.7324C10.3866 16.4022 9.74028 16 9 16C7.89543 16 7 16.8954 7 18C7 19.1046 7.89543 20 9 20C9.74028 20 10.3866 19.5978 10.7324 19H15.1707C15.0602 18.6872 15 18.3506 15 18C15 17.6073 15.0755 17.2322 15.2127 16.8884C15.0314 16.8299 14.8787 16.7515 14.7469 16.6607C14.4478 16.4548 14.1866 16.137 13.957 15.6778C13.4758 14.7154 13.2442 13.3825 12.9864 11.8356L12.9712 11.7441C12.7328 10.3129 12.4623 8.68852 11.8319 7.42778C11.7593 7.28258 11.6808 7.13955 11.5956 7H13.2676C13.6134 7.5978 14.2597 8 15 8C16.1046 8 17 7.10457 17 6C17 4.89543 16.1046 4 15 4C14.2597 4 13.6134 4.4022 13.2676 5H8.82929C8.93985 5.31278 9 5.64936 9 6C9 6.3927 8.92455 6.76779 8.78734 7.11154Z" fill="black" fill-opacity="0.4"/>
<path fill-rule="evenodd" clip-rule="evenodd" d="M6 9C7.65685 9 9 7.65685 9 6C9 4.34315 7.65685 3 6 3C4.34315 3 3 4.34315 3 6C3 7.65685 4.34315 9 6 9ZM18 21C19.6569 21 21 19.6569 21 18C21 16.3431 19.6569 15 18 15C16.3431 15 15 16.3431 15 18C15 19.6569 16.3431 21 18 21Z" fill="black"/>
</svg>
