<svg width="24" height="24" viewBox="0 0 24 24" fill="none" xmlns="http://www.w3.org/2000/svg">
<path fill-rule="evenodd" clip-rule="evenodd" d="M10 15C10 17.2091 8.20914 19 6 19C3.79086 19 2 17.2091 2 15C2 12.7909 3.79086 11 6 11C8.20914 11 10 12.7909 10 15ZM12 15C12 18.3137 9.31371 21 6 21C2.68629 21 0 18.3137 0 15C0 11.6863 2.68629 9 6 9C9.31371 9 12 11.6863 12 15ZM12 15C12 18.3137 14.6863 21 18 21C21.3137 21 24 18.3137 24 15C24 11.6863 21.3137 9 18 9C14.6863 9 12 11.6863 12 15ZM22 15C22 17.2091 20.2091 19 18 19C15.7909 19 14 17.2091 14 15C14 12.7909 15.7909 11 18 11C20.2091 11 22 12.7909 22 15Z" fill="black" fill-opacity="0.4"/>
<path fill-rule="evenodd" clip-rule="evenodd" d="M14.4911 6.47885C14.1276 5.81248 14.6099 5 15.369 5H17.4999C18.0522 5 18.4999 4.55228 18.4999 4C18.4999 3.44772 18.0522 3 17.4999 3H15.369C13.0918 3 11.6449 5.43743 12.7353 7.43655L13.5881 9H9.53518L8.86852 8H9C9.55228 8 10 7.55228 10 7C10 6.44771 9.55228 6 9 6H7.01367C7.00395 5.99986 6.99422 5.99986 6.98449 6H5C4.44772 6 4 6.44771 4 7C4 7.55228 4.44772 8 5 8H6.46482L7.81692 10.0282L5.14251 14.4855C4.95715 14.7944 4.95229 15.1792 5.1298 15.4927C5.30731 15.8062 5.63973 16 6 16H12C12.3513 16 12.6768 15.8157 12.8575 15.5145L15.1015 11.7745L17.122 15.4789C17.3865 15.9637 17.9939 16.1424 18.4788 15.8779C18.9636 15.6134 19.1423 15.006 18.8778 14.5211L14.4911 6.47885ZM9.56619 11L7.76619 14H11.4338L13.2338 11H9.56619Z" fill="black"/>
</svg>
