<svg width="24" height="24" viewBox="0 0 24 24" fill="none" xmlns="http://www.w3.org/2000/svg">
<path fill-rule="evenodd" clip-rule="evenodd" d="M3 7C3 4.79086 4.79086 3 7 3H17C19.2091 3 21 4.79086 21 7V17C21 19.2091 19.2091 21 17 21H7C4.79086 21 3 19.2091 3 17V7ZM7 5C5.89543 5 5 5.89543 5 7V17C5 18.1046 5.89543 19 7 19H17C18.1046 19 19 18.1046 19 17V7C19 5.89543 18.1046 5 17 5H7Z" fill="black" fill-opacity="0.4"/>
<path d="M9 7C8.448 7 8 7.4477 8 8C8 8.5 8 11.5 8 12C8 12.5 8 15.5 8 16C8 16.5523 8.448 17 9 17H13C14.657 17 16 15.6569 16 14C16 12.8683 15.375 11.848 14.625 11.4688C14.864 11.0469 15 10.6109 15 10C15 8.3431 13.657 7 12 7H9ZM10 9H12C12.552 9 13 9.4477 13 10C13 10.5523 12.552 11 12 11H10C10 10.2812 10 9.7188 10 9ZM10 13H13C13.552 13 14 13.4477 14 14C14 14.5523 13.552 15 13 15H10C10 14.2812 10 13.7188 10 13Z" fill="black"/>
</svg>
