<svg width="24" height="24" viewBox="0 0 24 24" fill="none" xmlns="http://www.w3.org/2000/svg">
<path d="M7 3C4.791 3 3 4.7909 3 7V17C3 19.2091 4.791 21 7 21H17C19.209 21 21 19.2091 21 17V7C21 4.7909 19.209 3 17 3H7Z" fill="black" fill-opacity="0.4"/>
<path d="M9 7C8.448 7 8 7.4477 8 8C8 8.5 8 11.5 8 12C8 12.5 8 15.5 8 16C8 16.5523 8.448 17 9 17H13C14.657 17 16 15.6569 16 14C16 12.8683 15.375 11.848 14.625 11.4688C14.864 11.0469 15 10.6109 15 10C15 8.3431 13.657 7 12 7H9ZM10 9H12C12.552 9 13 9.4477 13 10C13 10.5523 12.552 11 12 11H10C10 10.2812 10 9.7188 10 9ZM10 13H13C13.552 13 14 13.4477 14 14C14 14.5523 13.552 15 13 15H10C10 14.2812 10 13.7188 10 13Z" fill="black"/>
</svg>
