<svg width="24" height="24" viewBox="0 0 24 24" fill="none" xmlns="http://www.w3.org/2000/svg">
<path d="M11.9951 3C7.02722 3 3 7.0294 3 12C3 16.971 7.02722 21 11.9951 21C13.602 21 15.1637 20.572 16.5239 19.781C17.0011 19.504 17.1449 18.884 16.8675 18.406C16.5902 17.929 15.9705 17.785 15.4932 18.062C14.4361 18.677 13.2468 19 11.9951 19C8.13123 19 4.99892 15.866 4.99892 12C4.99892 8.134 8.13123 5 11.9951 5C15.859 5 18.9914 8.134 18.9914 12H17.9919C17.1015 12 16.6439 13.089 17.2735 13.719C17.5234 13.969 19.0225 15.469 19.2724 15.719C19.6628 16.109 20.3188 16.109 20.7092 15.719L22.7081 13.719C23.3377 13.089 22.8802 12 21.9897 12H20.9903C20.9903 7.0294 16.9631 3 11.9951 3Z" fill="black" fill-opacity="0.4"/>
<path d="M9.99806 8C9.44683 8 9 8.4477 9 9C9 9.5 9 12.5 9 13V15C9 15.552 9.44683 16 9.99806 16C10.5493 16 10.9961 15.552 10.9961 15V14H11.5888L13.3354 15.719C13.7251 16.109 14.3179 16.078 14.7077 15.688C15.0974 15.297 15.0974 14.672 14.7077 14.281L13.8032 13.375C14.5352 12.828 14.9883 11.985 14.9883 11C14.9883 9.3431 13.6479 8 11.9942 8H9.99806ZM10.9961 10H11.9942C12.5454 10 12.9922 10.448 12.9922 11C12.9922 11.552 12.5454 12 11.9942 12H10.9961C10.9961 11.281 10.9961 10.719 10.9961 10Z" fill="black"/>
</svg>
