<svg width="24" height="24" viewBox="0 0 24 24" fill="none" xmlns="http://www.w3.org/2000/svg">
<path fill-rule="evenodd" clip-rule="evenodd" d="M7 3C4.79086 3 3 4.79086 3 7V11H5V7C5 5.89543 5.89543 5 7 5H11V3H7ZM13 3V5H17C18.1046 5 19 5.89543 19 7V11H21V7C21 4.79086 19.2091 3 17 3H13ZM21 13H19V17C19 18.1046 18.1046 19 17 19H13V21H17C19.2091 21 21 19.2091 21 17V13ZM11 21V19H7C5.89543 19 5 18.1046 5 17V13H3V17C3 19.2091 4.79086 21 7 21H11Z" fill="black" fill-opacity="0.4"/>
<path fill-rule="evenodd" clip-rule="evenodd" d="M11 13V21H13V13H21V11H13V3H11V11H3V13H11Z" fill="black"/>
</svg>
