<svg width="24" height="24" viewBox="0 0 24 24" fill="none" xmlns="http://www.w3.org/2000/svg">
<path fill-rule="evenodd" clip-rule="evenodd" d="M6 7.82929C5.68722 7.93985 5.35064 8 5 8C4.64936 8 4.31278 7.93985 4 7.82929V16.1707C4.31278 16.0602 4.64936 16 5 16C5.35064 16 5.68722 16.0602 6 16.1707V7.82929ZM7.82929 6H16.1707C16.0602 5.68722 16 5.35064 16 5C16 4.64936 16.0602 4.31278 16.1707 4H7.82929C7.93985 4.31278 8 4.64936 8 5C8 5.35064 7.93985 5.68722 7.82929 6ZM18 7.82929C18.3128 7.93985 18.6494 8 19 8C19.3506 8 19.6872 7.93985 20 7.82929V16.1707C19.6872 16.0602 19.3506 16 19 16C18.6494 16 18.3128 16.0602 18 16.1707V7.82929ZM16.1707 18H7.82929C7.93985 18.3128 8 18.6494 8 19C8 19.3506 7.93985 19.6872 7.82929 20H16.1707C16.0602 19.6872 16 19.3506 16 19C16 18.6494 16.0602 18.3128 16.1707 18Z" fill="black" fill-opacity="0.4"/>
<path fill-rule="evenodd" clip-rule="evenodd" d="M5 8C6.65685 8 8 6.65685 8 5C8 3.34315 6.65685 2 5 2C3.34315 2 2 3.34315 2 5C2 6.65685 3.34315 8 5 8ZM19 8C20.6569 8 22 6.65685 22 5C22 3.34315 20.6569 2 19 2C17.3431 2 16 3.34315 16 5C16 6.65685 17.3431 8 19 8ZM8 19C8 20.6569 6.65685 22 5 22C3.34315 22 2 20.6569 2 19C2 17.3431 3.34315 16 5 16C6.65685 16 8 17.3431 8 19ZM19 22C20.6569 22 22 20.6569 22 19C22 17.3431 20.6569 16 19 16C17.3431 16 16 17.3431 16 19C16 20.6569 17.3431 22 19 22Z" fill="black"/>
</svg>
