<svg width="24" height="24" viewBox="0 0 24 24" fill="none" xmlns="http://www.w3.org/2000/svg">
<path d="M11.999 9C9.23762 9 6.99902 11.239 6.99902 14C6.99902 14.552 7.44672 15 7.99902 15C8.99902 15 14.999 15 15.999 15C16.551 15 16.999 14.552 16.999 14C16.999 11.239 14.76 9 11.999 9ZM11.999 11C13.267 11 14.433 11.799 14.85 13.004C13.262 13.004 10.762 12.999 9.17403 12.999C9.59613 11.768 10.731 11 11.999 11Z" fill="black"/>
<path d="M12 4C11.448 4 11 4.448 11 5V7C11 7.552 11.448 8 12 8C12.552 8 13 7.552 13 7V5C13 4.448 12.552 4 12 4ZM5.5938 6.59399C5.3378 6.59399 5.0702 6.68 4.875 6.875C4.4845 7.266 4.4845 7.89101 4.875 8.28101L6.2812 9.71899C6.6718 10.109 7.3282 10.109 7.7188 9.71899C8.1093 9.32799 8.1093 8.67201 7.7188 8.28101L6.2812 6.875C6.086 6.68 5.8497 6.59399 5.5938 6.59399ZM18.406 6.59399C18.15 6.59399 17.914 6.68 17.719 6.875L16.281 8.28101C15.891 8.67201 15.891 9.32799 16.281 9.71899C16.672 10.109 17.328 10.109 17.719 9.71899L19.125 8.28101C19.516 7.89101 19.516 7.266 19.125 6.875C18.93 6.68 18.662 6.59399 18.406 6.59399ZM3 13C2.4477 13 2 13.448 2 14C2 14.552 2.4477 15 3 15H5C5.5523 15 6 14.552 6 14C6 13.448 5.5523 13 5 13H3ZM19 13C18.448 13 18 13.448 18 14C18 14.552 18.448 15 19 15H21C21.552 15 22 14.552 22 14C22 13.448 21.552 13 21 13H19Z" fill="black" fill-opacity="0.4"/>
</svg>
