<svg width="24" height="24" viewBox="0 0 24 24" fill="none" xmlns="http://www.w3.org/2000/svg">
<path d="M12 8.00488C8.686 8.00488 6 10.6909 6 14.0049C6 14.5569 6.448 15.0049 7 15.0049C9.125 15.0049 16.437 15.0049 17 15.0049C17.552 15.0049 18 14.5569 18 14.0049C18 10.6909 15.314 8.00488 12 8.00488Z" fill="black"/>
<path d="M12 5C11.448 5 11 5.448 11 6C11 6.552 11.448 7 12 7C12.552 7 13 6.552 13 6C13 5.448 12.552 5 12 5ZM6 7C5.448 7 5 7.448 5 8C5 8.552 5.448 9 6 9C6.552 9 7 8.552 7 8C7 7.448 6.552 7 6 7ZM18 7C17.448 7 17 7.448 17 8C17 8.552 17.448 9 18 9C18.552 9 19 8.552 19 8C19 7.448 18.552 7 18 7ZM4 13C3.448 13 3 13.448 3 14C3 14.552 3.448 15 4 15C4.552 15 5 14.552 5 14C5 13.448 4.552 13 4 13ZM20 13C19.448 13 19 13.448 19 14C19 14.552 19.448 15 20 15C20.552 15 21 14.552 21 14C21 13.448 20.552 13 20 13Z" fill="black" fill-opacity="0.4"/>
</svg>
