<svg width="24" height="24" viewBox="0 0 24 24" fill="none" xmlns="http://www.w3.org/2000/svg">
<path d="M4.99607 8.01415C4.34707 8.01415 3.87207 8.63342 4.02707 9.26268C4.33707 10.5202 6.18609 18.0553 6.49609 19.3129C6.91009 20.8341 8.44309 21.9977 9.9961 21.9977H13.9961C15.5481 21.9977 17.0871 20.841 17.4961 19.3448L19.9641 9.26268C20.1201 8.63342 19.6451 8.01415 18.9961 8.01415C16.4369 8.01173 10.4614 7.97833 4.99607 8.01415ZM6.27706 10.0118H17.7141L15.5581 18.8454C15.3931 19.4487 14.6471 20 13.9961 20H9.9961C9.34509 20 8.60407 19.4407 8.43307 18.8134C8.16707 17.7337 6.84406 12.3121 6.27706 10.0118Z" fill="black"/>
<path fill-rule="evenodd" clip-rule="evenodd" d="M12 3.99309C10.1669 3.99309 8.42235 5.58095 8.03144 8H6.00019C5.99915 7.94773 6.00229 7.8947 6.00987 7.84127C6.4599 4.67032 8.84987 2 12 2C15.1501 2 17.5401 4.67032 17.9901 7.84127C17.9977 7.89428 18.0008 7.9469 17.9998 7.99876H15.9684C15.5771 5.58041 13.8328 3.99309 12 3.99309Z" fill="black" fill-opacity="0.4"/>
</svg>
