<svg width="24" height="24" viewBox="0 0 24 24" fill="none" xmlns="http://www.w3.org/2000/svg">
<path d="M11.999 2C6.47602 2 1.99902 6.477 1.99902 12C1.99902 17.523 6.47602 22 11.999 22C17.522 22 21.999 17.523 21.999 12C21.999 6.477 17.522 2 11.999 2ZM11.999 4C16.417 4 19.999 7.582 19.999 12C19.999 16.418 16.417 20 11.999 20C7.58102 20 3.99902 16.418 3.99902 12C3.99902 7.582 7.58102 4 11.999 4ZM11.999 10C10.894 10 9.99902 10.895 9.99902 12C9.99902 13.105 10.894 14 11.999 14C13.104 14 13.999 13.105 13.999 12C13.999 10.895 13.104 10 11.999 10Z" fill="black"/>
<path d="M12 6C8.686 6 6 8.686 6 12C6 15.314 8.686 18 12 18C15.314 18 18 15.314 18 12C18 8.686 15.314 6 12 6ZM12 8C14.209 8 16 9.791 16 12C16 14.209 14.209 16 12 16C9.791 16 8 14.209 8 12C8 9.791 9.791 8 12 8Z" fill="black" fill-opacity="0.4"/>
</svg>
