<svg width="24" height="24" viewBox="0 0 24 24" fill="none" xmlns="http://www.w3.org/2000/svg">
<path d="M20 5C20 3.343 18.657 2 17 2H7C5.343 2 4 3.343 4 5V19C4 20.657 5.343 22 7 22H17C18.657 22 20 20.657 20 19V5ZM18 5V19C18 19.552 17.552 20 17 20H7C6.448 20 6 19.552 6 19V5C6 4.448 6.448 4 7 4H17C17.552 4 18 4.448 18 5Z" fill="black"/>
<path fill-rule="evenodd" clip-rule="evenodd" d="M18 19V5C18 4.448 17.552 4 17 4H7C6.448 4 6 4.448 6 5V19C6 19.552 6.448 20 7 20H17C17.552 20 18 19.552 18 19ZM12 19C12.5523 19 13 18.5523 13 18C13 17.4477 12.5523 17 12 17C11.4477 17 11 17.4477 11 18C11 18.5523 11.4477 19 12 19Z" fill="black" fill-opacity="0.4"/>
</svg>
