<svg width="24" height="24" viewBox="0 0 24 24" fill="none" xmlns="http://www.w3.org/2000/svg">
<path fill-rule="evenodd" clip-rule="evenodd" d="M2 7C2 5.34314 3.34315 4 5 4H18H19C20.6569 4 22 5.34314 22 7V17C22 18.6569 20.6569 20 19 20H18H5C3.34315 20 2 18.6569 2 17V7ZM5 6H18V18H5C4.44772 18 4 17.5523 4 17V7C4 6.44771 4.44772 6 5 6ZM20 13C20.5523 13 21 12.5523 21 12C21 11.4477 20.5523 11 20 11C19.4477 11 19 11.4477 19 12C19 12.5523 19.4477 13 20 13Z" fill="black"/>
<path d="M5 18C4.44772 18 4 17.5523 4 17L4 7C4 6.44772 4.44772 6 5 6H18V18H5Z" fill="black" fill-opacity="0.4"/>
</svg>
