<svg width="24" height="24" viewBox="0 0 24 24" fill="none" xmlns="http://www.w3.org/2000/svg">
<path fill-rule="evenodd" clip-rule="evenodd" d="M6.17071 5C6.06015 5.31278 6 5.64936 6 6V7H5C4.44772 7 4 7.44772 4 8V11.1716C4 11.4368 4.10536 11.6911 4.29289 11.8787L11.2929 18.8787C11.6834 19.2692 12.3166 19.2692 12.7071 18.8787L13.5858 18L13.8787 18.2929C14.2904 18.7046 14.792 18.9716 15.3202 19.094L14.1213 20.2929C12.9497 21.4645 11.0503 21.4645 9.87868 20.2929L2.87868 13.2929C2.31607 12.7303 2 11.9672 2 11.1716V8C2 6.34315 3.34315 5 5 5H6.17071Z" fill="black" fill-opacity="0.4"/>
<path fill-rule="evenodd" clip-rule="evenodd" d="M8 6C8 5.44772 8.44772 5 9 5H12.1716C12.4368 5 12.6911 5.10536 12.8787 5.29289L19.8787 12.2929C20.2692 12.6834 20.2692 13.3166 19.8787 13.7071L16.7071 16.8787C16.3166 17.2692 15.6834 17.2692 15.2929 16.8787L8.29289 9.87868C8.10536 9.69114 8 9.43679 8 9.17157V6ZM9 3C7.34315 3 6 4.34315 6 6V9.17157C6 9.96722 6.31607 10.7303 6.87868 11.2929L13.8787 18.2929C15.0503 19.4645 16.9497 19.4645 18.1213 18.2929L21.2929 15.1213C22.4645 13.9497 22.4645 12.0503 21.2929 10.8787L14.2929 3.87868C13.7303 3.31607 12.9672 3 12.1716 3H9ZM11 9C11.5523 9 12 8.55228 12 8C12 7.44772 11.5523 7 11 7C10.4477 7 10 7.44772 10 8C10 8.55228 10.4477 9 11 9Z" fill="black"/>
</svg>
