<svg width="24" height="24" viewBox="0 0 24 24" fill="none" xmlns="http://www.w3.org/2000/svg">
<path d="M5.93799 4C4.24999 4 2 6.24999 2 7.93799C2 10.112 4.25 14.125 6.5 16.375C6.742 16.617 7.383 17.258 7.625 17.5C9.875 19.75 13.888 22 16.062 22C17.75 22 20 19.75 20 18.062C20 16.375 17.75 14.125 16.062 14.125C15.5 14.125 13.465 15.289 13.25 15.25C11.456 14.926 9.125 12.537 8.75 10.75C8.698 10.501 9.875 8.49999 9.875 7.93799C9.875 6.24999 7.62499 4 5.93799 4Z" fill="black" fill-opacity="0.4"/>
<path d="M18 3V6H14C13.448 6 13 6.448 13 7C13 7.552 13.448 8 14 8H18V11L22 7L18 3Z" fill="black"/>
</svg>
