<svg width="24" height="24" viewBox="0 0 24 24" fill="none" xmlns="http://www.w3.org/2000/svg">
<path d="M5.93799 4C4.24999 4 2 6.24999 2 7.93799C2 10.112 4.25 14.125 6.5 16.375C6.742 16.617 7.383 17.258 7.625 17.5C9.875 19.75 13.888 22 16.062 22C17.75 22 20 19.75 20 18.062C20 16.375 17.75 14.125 16.062 14.125C15.5 14.125 13.465 15.289 13.25 15.25C11.456 14.926 9.125 12.537 8.75 10.75C8.698 10.501 9.875 8.49999 9.875 7.93799C9.875 6.24999 7.62499 4 5.93799 4Z" fill="black" fill-opacity="0.4"/>
<path fill-rule="evenodd" clip-rule="evenodd" d="M20.7071 4.70711C21.0976 4.31658 21.0976 3.68342 20.7071 3.29289C20.3166 2.90237 19.6834 2.90237 19.2929 3.29289L18.5 4.08579L17.7071 3.29289C17.3166 2.90237 16.6834 2.90237 16.2929 3.29289C15.9024 3.68342 15.9024 4.31658 16.2929 4.70711L17.0858 5.5L16.2929 6.29289C15.9024 6.68342 15.9024 7.31658 16.2929 7.70711C16.6834 8.09763 17.3166 8.09763 17.7071 7.70711L18.5 6.91421L19.2929 7.70711C19.6834 8.09763 20.3166 8.09763 20.7071 7.70711C21.0976 7.31658 21.0976 6.68342 20.7071 6.29289L19.9142 5.5L20.7071 4.70711Z" fill="black"/>
</svg>
