<svg width="24" height="24" viewBox="0 0 24 24" fill="none" xmlns="http://www.w3.org/2000/svg">
<path d="M5.93799 4C4.24999 4 2 6.24999 2 7.93799C2 10.112 4.25 14.125 6.5 16.375C6.742 16.617 7.383 17.258 7.625 17.5C9.875 19.75 13.888 22 16.062 22C17.75 22 20 19.75 20 18.062C20 16.375 17.75 14.125 16.062 14.125C15.5 14.125 13.465 15.289 13.25 15.25C11.456 14.926 9.125 12.537 8.75 10.75C8.698 10.501 9.875 8.49999 9.875 7.93799C9.875 6.24999 7.62499 4 5.93799 4Z" fill="black" fill-opacity="0.4"/>
<path d="M19.99 3C19.7345 3 19.4674 3.08601 19.2724 3.28101L16.1215 6.46899L14 4.34399V10H19.6468L17.5253 7.875L20.7076 4.71899C21.0975 4.32799 21.0975 3.67201 20.7076 3.28101C20.5126 3.08601 20.2455 3 19.99 3Z" fill="black"/>
</svg>
