<svg width="24" height="24" viewBox="0 0 24 24" fill="none" xmlns="http://www.w3.org/2000/svg">
<path fill-rule="evenodd" clip-rule="evenodd" d="M20.3205 3.12778C20.0756 3.04492 19.8139 2.99983 19.544 3C19.2796 3.00017 19.0117 3.04378 18.7491 3.13377C13.751 4.82229 8.68951 6.44579 3.68647 8.13618C2.70915 8.46639 2 9.37977 2 10.5041C2 11.6517 2.77232 12.522 3.65812 12.8513L9.63603 14.0345L9.41063 13.7713C9.23675 13.5682 9.1514 13.304 9.17364 13.0376C9.19587 12.7712 9.32385 12.5248 9.529 12.3534L9.89386 12.0488L4.35502 10.9766C4.13648 10.8954 4 10.6985 4 10.5041C4 10.2625 4.13823 10.0946 4.32666 10.031C8.71001 8.54994 13.1488 7.11719 17.5691 5.64002L20.4885 3.20228C20.4358 3.17286 20.3797 3.14782 20.3205 3.12778Z" fill="black" fill-opacity="0.4"/>
<path fill-rule="evenodd" clip-rule="evenodd" d="M21.2788 3.72546C21.8017 4.25028 22.0976 5.01855 21.971 5.84988L21.9698 5.85836C21.3027 10.0014 20.6454 14.1461 19.9871 18.2906C19.8453 19.8106 18.5626 20.9935 17.0122 20.9994C16.1791 21.0158 15.3478 20.6803 14.7313 19.9839L14.7205 19.9715L9.41063 13.7713C9.23675 13.5682 9.1514 13.304 9.17363 13.0376C9.19587 12.7712 9.32385 12.5248 9.529 12.3534L20.4922 3.19922C20.4922 3.19922 20.658 3.24752 20.9102 3.42188C21.1623 3.59623 21.2788 3.72546 21.2788 3.72546ZM19.8699 6.3197L11.5881 13.2392L16.2335 18.6634C16.4543 18.91 16.7198 19.0058 16.9767 18.9997L17.0004 18.9995C17.5291 18.9995 17.9575 18.5925 17.997 18.0903C18.6166 14.166 19.2402 10.2424 19.8699 6.3197Z" fill="black"/>
</svg>
