<svg width="24" height="24" viewBox="0 0 24 24" fill="none" xmlns="http://www.w3.org/2000/svg">
<path d="M6 4C3.7909 4 2 5.791 2 8V16C2 18.209 3.7909 20 6 20H18C20.209 20 22 18.209 22 16V8C22 5.791 20.209 4 18 4H6ZM6 6H18C19.105 6 20 6.895 20 8V16C20 17.105 19.105 18 18 18H6C4.8954 18 4 17.105 4 16V8C4 6.895 4.8954 6 6 6Z" fill="black" fill-opacity="0.4"/>
<path d="M7.0105 8C6.7549 8 6.48761 8.08584 6.29253 8.28047C5.90249 8.67072 5.90249 9.32546 6.29253 9.71571L7.57234 10.9943L6.29253 12.2728C5.90249 12.6631 5.90249 13.3178 6.29253 13.7081C6.68268 14.0973 7.33832 14.0973 7.72846 13.7081L9.72613 11.7119C10.1159 11.3216 10.1159 10.6669 9.72613 10.2766L7.72846 8.28047C7.53339 8.08584 7.2661 8 7.0105 8ZM12.0047 11.9924C11.4533 11.9924 11.0058 12.4395 11.0058 12.9904C11.0058 13.5414 11.4533 13.9885 12.0047 13.9885H15.0012C15.5525 13.9885 16 13.5414 16 12.9904C16 12.4395 15.5525 11.9924 15.0012 11.9924H12.0047Z" fill="black"/>
</svg>
