<svg width="24" height="24" viewBox="0 0 24 24" fill="none" xmlns="http://www.w3.org/2000/svg">
<path d="M7.3438 3C5.5182 3 4 4.39001 4 6.15601C4 6.15601 4.0173 9.02799 4 9.18799C2.8183 9.58999 2 10.682 2 12C2 13.318 2.8183 14.41 4 14.812C3.9872 14.928 4 17.844 4 17.844C4 19.61 5.5182 21 7.3438 21H16.656C18.482 21 20 19.61 20 17.844C20 17.844 19.997 15.002 20 14.844C21.182 14.441 22 13.318 22 12C22 10.682 21.182 9.58999 20 9.18799C20.01 9.01999 20 6.15601 20 6.15601C20 4.39001 18.482 3 16.656 3H7.3438ZM7.3438 5H16.656C17.409 5 18 5.52901 18 6.15601C18 6.15601 17.99 9.02099 17.969 9.18799C16.829 9.58399 16 10.682 16 12C16 13.318 16.818 14.441 18 14.844C17.995 14.98 18 17.844 18 17.844C18 18.471 17.409 19 16.656 19H7.3438C6.5911 19 6 18.471 6 17.844C6 17.844 5.9872 14.919 6 14.812C7.1817 14.41 8 13.318 8 12C8 10.682 7.1817 9.55901 6 9.15601C5.9957 9.04401 6 6.15601 6 6.15601C6 5.52901 6.5911 5 7.3438 5ZM5 11C5.5523 11 6 11.448 6 12C6 12.552 5.5523 13 5 13C4.4477 13 4 12.552 4 12C4 11.448 4.4477 11 5 11ZM19 11C19.552 11 20 11.448 20 12C20 12.552 19.552 13 19 13C18.448 13 18 12.552 18 12C18 11.448 18.448 11 19 11Z" fill="black" fill-opacity="0.4"/>
<path d="M9 7C8.4477 7 8 7.448 8 8C8 8.552 8.4477 9 9 9H11V16C11 16.552 11.448 17 12 17C12.552 17 13 16.552 13 16V9H15C15.552 9 16 8.552 16 8C16 7.448 15.552 7 15 7H9Z" fill="black"/>
</svg>
