<svg width="24" height="24" viewBox="0 0 24 24" fill="none" xmlns="http://www.w3.org/2000/svg">
<path d="M21 13C21.552 13 22 13.448 22 14C22 14.552 21.552 15 21 15H3.00002C2.44802 15 2.00002 14.552 2.00002 14C2.00002 13.448 2.44802 13 3.00002 13H21ZM21 17C21.552 17 22 17.448 22 18C22 18.552 21.552 19 21 19H9.00001C8.44801 19 8.00001 18.552 8.00001 18C8.00001 17.448 8.44801 17 9.00001 17H21Z" fill="black" fill-opacity="0.4"/>
<path d="M21 5C21.552 5 22 5.448 22 6C22 6.552 21.552 7 21 7H3.00002C2.44802 7 2.00002 6.552 2.00002 6C2.00002 5.448 2.44802 5 3.00002 5H21ZM21 9.00001C21.552 9.00001 22 9.44801 22 10C22 10.552 21.552 11 21 11H9.00001C8.44801 11 8.00001 10.552 8.00001 10C8.00001 9.44801 8.44801 9.00001 9.00001 9.00001H21Z" fill="black"/>
</svg>
