<svg width="24" height="24" viewBox="0 0 24 24" fill="none" xmlns="http://www.w3.org/2000/svg">
<path fill-rule="evenodd" clip-rule="evenodd" d="M7 5C6.44772 5 6 5.44772 6 6V9.17071C5.68722 9.06015 5.35064 9 5 9C4.64936 9 4.31278 9.06015 4 9.17071V6C4 4.34315 5.34315 3 7 3H17C18.6569 3 20 4.34315 20 6V9.17071C19.6872 9.06015 19.3506 9 19 9C18.6494 9 18.3128 9.06015 18 9.17071V6C18 5.44772 17.5523 5 17 5H7ZM18 14.8293V18C18 18.5523 17.5523 19 17 19H7C6.44772 19 6 18.5523 6 18V14.8293C5.68722 14.9398 5.35064 15 5 15C4.64936 15 4.31278 14.9398 4 14.8293V18C4 19.6569 5.34315 21 7 21H17C18.6569 21 20 19.6569 20 18V14.8293C19.6872 14.9398 19.3506 15 19 15C18.6494 15 18.3128 14.9398 18 14.8293Z" fill="black" fill-opacity="0.4"/>
<path fill-rule="evenodd" clip-rule="evenodd" d="M6 12C6 12.5523 5.55228 13 5 13C4.44772 13 4 12.5523 4 12C4 11.4477 4.44772 11 5 11C5.55228 11 6 11.4477 6 12ZM8 12C8 13.6569 6.65685 15 5 15C3.34315 15 2 13.6569 2 12C2 10.3431 3.34315 9 5 9C6.65685 9 8 10.3431 8 12ZM20 12C20 12.5523 19.5523 13 19 13C18.4477 13 18 12.5523 18 12C18 11.4477 18.4477 11 19 11C19.5523 11 20 11.4477 20 12ZM22 12C22 13.6569 20.6569 15 19 15C17.3431 15 16 13.6569 16 12C16 10.3431 17.3431 9 19 9C20.6569 9 22 10.3431 22 12Z" fill="black"/>
</svg>
