<svg width="24" height="24" viewBox="0 0 24 24" fill="none" xmlns="http://www.w3.org/2000/svg">
<path fill-rule="evenodd" clip-rule="evenodd" d="M15.0079 3C15.0079 2.448 15.4553 2 16.0067 2C16.5581 2 17.0056 2.448 17.0056 3C17.0056 3.552 16.5581 4 16.0067 4C15.4553 4 15.0079 3.552 15.0079 3ZM18.5349 4.46899C18.5349 3.91599 18.9824 3.46899 19.5338 3.46899C20.0862 3.46899 20.5327 3.91599 20.5327 4.46899C20.5327 5.02099 20.0862 5.46899 19.5338 5.46899C18.9824 5.46899 18.5349 5.02099 18.5349 4.46899ZM15.0079 6C15.0079 5.448 15.4553 5 16.0067 5C17.6619 5 19.0034 6.343 19.0034 8C19.0034 9.657 17.6619 11 16.0067 11C15.4553 11 15.0079 10.552 15.0079 10V6ZM20.0022 8C20.0022 7.448 20.4497 7 21.0011 7C21.5525 7 22 7.448 22 8C22 8.552 21.5525 9 21.0011 9C20.4497 9 20.0022 8.552 20.0022 8ZM18.5349 11.531C18.5349 10.979 18.9824 10.531 19.5338 10.531C20.0862 10.531 20.5327 10.979 20.5327 11.531C20.5327 12.084 20.0862 12.531 19.5338 12.531C18.9824 12.531 18.5349 12.084 18.5349 11.531ZM15.0079 13C15.0079 12.448 15.4553 12 16.0067 12C16.5581 12 17.0056 12.448 17.0056 13C17.0056 13.552 16.5581 14 16.0067 14C15.4553 14 15.0079 13.552 15.0079 13ZM7.99887 5.99919C7.99887 5.44691 8.44608 5 8.99775 5C9.54941 5 9.99663 5.44691 9.99663 5.99919L9.99665 15.2674C10.5939 15.6131 10.9955 16.2594 10.9955 17C10.9955 18.105 10.1015 19 8.99776 19C7.894 19 7 18.105 7 17C7 16.2594 7.40164 15.6131 7.99887 15.2674V5.99919Z" fill="black" fill-opacity="0.4"/>
<path d="M9 2C6.791 2 5 3.791 5 6V14.062C4.352 14.902 4 15.959 4 17C4 19.761 6.239 22 9 22C11.761 22 14 19.761 14 17C14 15.959 13.638 14.879 13 14.062V6C13 3.791 11.209 2 9 2ZM9 4C10.105 4 11 4.895 11 6V14.406C11 14.646 11.093 14.881 11.25 15.062C11.738 15.628 12 16.297 12 17C12 18.657 10.657 20 9 20C7.343 20 6 18.657 6 17C6 16.297 6.262 15.628 6.75 15.062C6.907 14.881 7 14.646 7 14.406V6C7 4.895 7.895 4 9 4Z" fill="black"/>
</svg>
