<svg width="24" height="24" viewBox="0 0 24 24" fill="none" xmlns="http://www.w3.org/2000/svg">
<path fill-rule="evenodd" clip-rule="evenodd" d="M22 12C22 8.13401 18.866 5 15 5H9C5.134 5 2 8.13401 2 12C2 15.866 5.134 19 9 19H15C18.866 19 22 15.866 22 12ZM15 16C17.2091 16 19 14.2091 19 12C19 9.79086 17.2091 8 15 8C12.7909 8 11 9.79086 11 12C11 14.2091 12.7909 16 15 16Z" fill="black" fill-opacity="0.4"/>
<path fill-rule="evenodd" clip-rule="evenodd" d="M15 14C13.8954 14 13 13.1046 13 12C13 10.8954 13.8954 10 15 10C16.1046 10 17 10.8954 17 12C17 13.1046 16.1046 14 15 14ZM15 16C12.7909 16 11 14.2091 11 12C11 9.79086 12.7909 8 15 8C17.2091 8 19 9.79086 19 12C19 14.2091 17.2091 16 15 16Z" fill="black"/>
</svg>
