<svg width="24" height="24" viewBox="0 0 24 24" fill="none" xmlns="http://www.w3.org/2000/svg">
<path fill-rule="evenodd" clip-rule="evenodd" d="M13.6585 10C13.3951 9.25476 12.9887 8.5771 12.4722 8H18C20.2091 8 22 9.79086 22 12C22 14.2091 20.2091 16 18 16H12.4722C12.9887 15.4229 13.3951 14.7452 13.6585 14H18C19.1045 14 20 13.1046 20 12C20 10.8954 19.1045 10 18 10H13.6585Z" fill="black" fill-opacity="0.4"/>
<path fill-rule="evenodd" clip-rule="evenodd" d="M8 18C11.3137 18 14 15.3137 14 12C14 8.68629 11.3137 6 8 6C4.68629 6 2 8.68629 2 12C2 15.3137 4.68629 18 8 18Z" fill="black"/>
</svg>
