<svg width="24" height="24" viewBox="0 0 24 24" fill="none" xmlns="http://www.w3.org/2000/svg">
<path d="M9 5C5.134 5 2 8.13401 2 12C2 15.866 5.134 19 9 19H15C18.866 19 22 15.866 22 12C22 8.13401 18.866 5 15 5H9ZM9 7H15C17.761 7 20 9.23901 20 12C20 14.761 17.761 17 15 17H9C6.2386 17 4 14.761 4 12C4 9.23901 6.2386 7 9 7Z" fill="black" fill-opacity="0.4"/>
<path fill-rule="evenodd" clip-rule="evenodd" d="M9 14C10.1046 14 11 13.1046 11 12C11 10.8954 10.1046 10 9 10C7.89543 10 7 10.8954 7 12C7 13.1046 7.89543 14 9 14ZM9 16C11.2091 16 13 14.2091 13 12C13 9.79086 11.2091 8 9 8C6.79086 8 5 9.79086 5 12C5 14.2091 6.79086 16 9 16Z" fill="black"/>
</svg>
