<svg width="24" height="24" viewBox="0 0 24 24" fill="none" xmlns="http://www.w3.org/2000/svg">
<path d="M8 2C5.791 2 4 3.79099 4 5.99999C4 7.34798 4.676 8.53598 5.599 9.20298C5.234 9.70998 5 10.308 5 11C5 12.657 6.343 14 8 14L8.16901 13.995C8.06701 14.348 8 14.611 8 15C8 16.657 9.343 18 11 18C12 20.9999 16 21.9999 18 21.9999C19 21.9999 19 21.9999 20 21.9999C19 20.9999 17.866 18.02 17.653 17.613C17.389 17.108 17.002 16.7069 16.595 16.4809C16.799 16.0779 17 15.611 17 15C17 14.222 16.714 13.544 16.228 13.011C16.714 12.478 17 11.778 17 11C17 10.571 16.956 10.296 16.793 9.92698C18.449 9.59798 20 8.02198 20 5.99999C20 3.79099 18.209 2 16 2H8Z" fill="black" fill-opacity="0.4"/>
<path fill-rule="evenodd" clip-rule="evenodd" d="M12 2C9.791 2 8 3.79099 8 5.99999C8 7.34798 8.676 8.53598 9.599 9.20298C9.234 9.70998 9 10.308 9 11C9 12.657 10.343 14 12 14L12.169 13.995C12.067 14.348 12 14.611 12 15C12 16.657 13.343 18 15 18C15.6644 19.9933 18.1534 21.4793 20 22L19.7281 21.6859C19.0122 20.7562 18.2768 19.0456 17.8914 18.1493C17.7792 17.8884 17.6967 17.6965 17.653 17.613C17.389 17.108 17.002 16.7069 16.595 16.4809C16.799 16.0779 17 15.611 17 15C17 14.222 16.714 13.544 16.228 13.011C16.714 12.478 17 11.778 17 11C17 10.571 16.956 10.296 16.793 9.92698C18.449 9.59798 20 8.02198 20 5.99999C20 3.79099 18.209 2 16 2H12Z" fill="black"/>
</svg>
