<svg width="24" height="24" viewBox="0 0 24 24" fill="none" xmlns="http://www.w3.org/2000/svg">
<path fill-rule="evenodd" clip-rule="evenodd" d="M7 8V18C7 19.1046 7.89543 20 9 20H15C16.1046 20 17 19.1046 17 18V8H19V18C19 20.2091 17.2091 22 15 22H9C6.79086 22 5 20.2091 5 18V8H7Z" fill="black" fill-opacity="0.4"/>
<path fill-rule="evenodd" clip-rule="evenodd" d="M4 6C4 3.79086 5.79086 2 8 2H16C18.2091 2 20 3.79086 20 6V7C20 7.55228 19.5523 8 19 8H5C4.44772 8 4 7.55228 4 7V6ZM8 4C6.89543 4 6 4.89543 6 6H18C18 4.89543 17.1046 4 16 4H8ZM10 10C10.5523 10 11 10.4477 11 11V17C11 17.5523 10.5523 18 10 18C9.44772 18 9 17.5523 9 17V11C9 10.4477 9.44772 10 10 10ZM15 11C15 10.4477 14.5523 10 14 10C13.4477 10 13 10.4477 13 11V17C13 17.5523 13.4477 18 14 18C14.5523 18 15 17.5523 15 17V11Z" fill="black"/>
</svg>
