<svg width="24" height="24" viewBox="0 0 24 24" fill="none" xmlns="http://www.w3.org/2000/svg">
<path d="M8 2C5.8198 2 4 3.97898 4 6.18798V6.99998H20V5.96898C20 3.77599 18.2238 2 16.0312 2H8Z" fill="black"/>
<path d="M5 9V18C5 20.19 6.8048 21.969 9 21.969L15.0312 22C17.2263 22 19 20.195 19 18V9H5ZM10 12C10.5523 12 11 12.448 11 13V18C11 18.552 10.5523 19 10 19C9.4477 19 9 18.552 9 18V13C9 12.448 9.4477 12 10 12ZM14 12C14.5523 12 15 12.448 15 13V18C15 18.552 14.5523 19 14 19C13.4477 19 13 18.552 13 18V13C13 12.448 13.4477 12 14 12Z" fill="black" fill-opacity="0.4"/>
</svg>
