<svg width="24" height="24" viewBox="0 0 24 24" fill="none" xmlns="http://www.w3.org/2000/svg">
<path d="M12 2.00002C7.571 2.00602 4 3.00002 4 5.00003C4 5.04803 4 5.12503 4 5.12503L5.81199 18.5311C6.20399 20.4991 8.052 22.0001 9.99999 22.0001H14C15.948 22.0001 17.775 20.4991 18.156 18.594L20 5.12503C20 5.12503 20 5.04803 20 5.00003C20 3.00002 16.429 1.99502 12 2.00002ZM12 4.00002C13.794 4.00002 15.479 4.21701 16.688 4.56301C17.161 4.69801 17.462 4.85102 17.719 5.00003C17.462 5.14903 17.161 5.30201 16.688 5.43801C15.479 5.78302 13.794 6.00003 12 6.00003C10.206 6.00003 8.52101 5.78302 7.31201 5.43801C6.83901 5.30201 6.532 5.14903 6.281 5.00003C6.538 4.85102 6.83901 4.69801 7.31201 4.56301C8.52101 4.21701 10.206 4.00002 12 4.00002ZM6.31201 7.25003C7.75401 7.75103 9.76499 8.00003 12 8.00003C14.235 8.00003 16.246 7.75103 17.688 7.25003L16.188 18.2811C16.005 19.1861 14.999 20.0001 14 20.0001H9.99999C9.001 20.0001 7.975 19.1861 7.781 18.219L6.31201 7.25003Z" fill="black"/>
<path d="M12 4C13.794 4 15.479 4.21699 16.688 4.56299C17.161 4.69799 17.462 4.851 17.719 5C17.462 5.149 17.161 5.30199 16.688 5.43799C15.479 5.78299 13.794 6 12 6C10.206 6 8.52101 5.78299 7.31201 5.43799C6.83901 5.30199 6.53201 5.149 6.28101 5C6.53801 4.851 6.83901 4.69799 7.31201 4.56299C8.52101 4.21699 10.206 4 12 4Z" fill="black" fill-opacity="0.4"/>
</svg>
