<svg width="24" height="24" viewBox="0 0 24 24" fill="none" xmlns="http://www.w3.org/2000/svg">
<path fill-rule="evenodd" clip-rule="evenodd" d="M10 19.9999H12.5C15.5376 19.9999 18 17.6819 18 14.8239C18 13.2099 17.2071 11.78 16.0309 10.87C16.6663 10.139 17 9.25296 17 8.23497C17 5.89598 14.9852 4 12.5 4H10V6.82396H12.5C13.3284 6.82396 14 7.45597 14 8.23497C14 9.01497 13.3284 9.64695 12.5 9.64695H10V12.471H12.5C13.8807 12.471 15 13.5239 15 14.8239C15 16.1229 13.8807 17.176 12.5 17.176H10V19.9999Z" fill="black" fill-opacity="0.4"/>
<path d="M7 5.5C7 4.67157 7.67157 4 8.5 4H10V20H8.5C7.67157 20 7 19.3284 7 18.5V5.5Z" fill="black"/>
</svg>
