<svg width="24" height="24" viewBox="0 0 24 24" fill="none" xmlns="http://www.w3.org/2000/svg">
<path fill-rule="evenodd" clip-rule="evenodd" d="M3 20C3.55228 20 4 19.5523 4 19L4 5C4 4.44771 3.55228 4 3 4C2.44772 4 2 4.44771 2 5L2 19C2 19.5523 2.44772 20 3 20Z" fill="black" fill-opacity="0.4"/>
<path fill-rule="evenodd" clip-rule="evenodd" d="M22 14.5C22 15.3284 21.3284 16 20.5 16H7.5C6.67157 16 6 15.3284 6 14.5C6 13.6716 6.67157 13 7.5 13H20.5C21.3284 13 22 13.6716 22 14.5ZM16 9.5C16 10.3284 15.3284 11 14.5 11H7.5C6.67157 11 6 10.3284 6 9.5C6 8.67157 6.67157 8 7.5 8H14.5C15.3284 8 16 8.67157 16 9.5Z" fill="black"/>
</svg>
