<svg width="24" height="24" viewBox="0 0 24 24" fill="none" xmlns="http://www.w3.org/2000/svg">
<path fill-rule="evenodd" clip-rule="evenodd" d="M2 12C2 12.5523 2.44772 13 3 13H6C6.55228 13 7 12.5523 7 12C7 11.4477 6.55228 11 6 11H3C2.44772 11 2 11.4477 2 12ZM17 12C17 12.5523 17.4477 13 18 13H21C21.5523 13 22 12.5523 22 12C22 11.4477 21.5523 11 21 11L18 11C17.4477 11 17 11.4477 17 12Z" fill="black" fill-opacity="0.4"/>
<path fill-rule="evenodd" clip-rule="evenodd" d="M9 16C9 16.5523 9.44772 17 10 17C10.5523 17 11 16.5523 11 16V8C11 7.44771 10.5523 7 10 7C9.44772 7 9 7.44772 9 8V16ZM13 19C13 19.5523 13.4477 20 14 20C14.5523 20 15 19.5523 15 19V5C15 4.44771 14.5523 4 14 4C13.4477 4 13 4.44771 13 5V19Z" fill="black"/>
</svg>
