<svg width="24" height="24" viewBox="0 0 24 24" fill="none" xmlns="http://www.w3.org/2000/svg">
<path fill-rule="evenodd" clip-rule="evenodd" d="M12 2C11.4477 2 11 2.44771 11 3V5H13V3C13 2.44771 12.5523 2 12 2ZM13 21V19H11V21C11 21.5523 11.4477 22 12 22C12.5523 22 13 21.5523 13 21Z" fill="black" fill-opacity="0.4"/>
<path fill-rule="evenodd" clip-rule="evenodd" d="M10 5C8.34315 5 7 6.34315 7 8C7 9.65685 8.34315 11 10 11H14C15.6569 11 17 9.65685 17 8C17 6.34315 15.6569 5 14 5H10ZM7 13C5.34315 13 4 14.3431 4 16C4 17.6569 5.34315 19 7 19H17C18.6569 19 20 17.6569 20 16C20 14.3431 18.6569 13 17 13H7Z" fill="black"/>
</svg>
