<svg width="24" height="24" viewBox="0 0 24 24" fill="none" xmlns="http://www.w3.org/2000/svg">
<path fill-rule="evenodd" clip-rule="evenodd" d="M2 12C2 12.5523 2.44772 13 3 13H6C6.55228 13 7 12.5523 7 12C7 11.4477 6.55228 11 6 11H3C2.44772 11 2 11.4477 2 12ZM17 12C17 12.5523 17.4477 13 18 13H21C21.5523 13 22 12.5523 22 12C22 11.4477 21.5523 11 21 11L18 11C17.4477 11 17 11.4477 17 12Z" fill="black" fill-opacity="0.4"/>
<path fill-rule="evenodd" clip-rule="evenodd" d="M8 15.5C8 16.3284 8.67157 17 9.5 17C10.3284 17 11 16.3284 11 15.5V8.5C11 7.67157 10.3284 7 9.5 7C8.67157 7 8 7.67157 8 8.5V15.5ZM13 18.5C13 19.3284 13.6716 20 14.5 20C15.3284 20 16 19.3284 16 18.5V5.5C16 4.67157 15.3284 4 14.5 4C13.6716 4 13 4.67157 13 5.5V18.5Z" fill="black"/>
</svg>
