<svg width="24" height="24" viewBox="0 0 24 24" fill="none" xmlns="http://www.w3.org/2000/svg">
<path fill-rule="evenodd" clip-rule="evenodd" d="M20 21C20.5523 21 21 20.5523 21 20V4C21 3.44772 20.5523 3 20 3C19.4477 3 19 3.44772 19 4V20C19 20.5523 19.4477 21 20 21Z" fill="black" fill-opacity="0.4"/>
<path fill-rule="evenodd" clip-rule="evenodd" d="M16 11C16.5523 11 17 11.4477 17 12C17 12.5523 16.5523 13 16 13H6.41434L10.4142 16.9998L8.99997 18.4141L3.30228 12.7164C3.26519 12.6802 3.23089 12.6412 3.19975 12.5998C3.15935 12.546 3.12507 12.4891 3.09693 12.43C3.04319 12.3174 3.00991 12.1931 3.00189 12.062C2.99857 12.0084 2.99955 11.9545 3.00484 11.901C3.01113 11.837 3.02347 11.7747 3.04127 11.7148C3.08706 11.5603 3.17092 11.4147 3.29286 11.2927L8.99997 5.58564L10.4142 6.99985L6.41403 11H16Z" fill="black"/>
</svg>
