<svg width="24" height="24" viewBox="0 0 24 24" fill="none" xmlns="http://www.w3.org/2000/svg">
<path d="M12.0003 2C10.9443 2 9.89525 2.41497 9.09025 3.21997L3.20825 9.09901C1.59725 10.708 1.59725 13.305 3.20825 14.915L9.09025 20.793C10.7002 22.403 13.2993 22.403 14.9093 20.793L20.7923 14.915C22.4023 13.305 22.4023 10.708 20.7923 9.09901L14.9093 3.21997C14.1043 2.41497 13.0553 2 12.0003 2ZM12.0003 4.00196C12.5433 4.00196 13.0873 4.21296 13.5023 4.62696L19.3843 10.506C20.2123 11.334 20.2123 12.68 19.3843 13.508L13.5023 19.386C12.6733 20.214 11.3263 20.214 10.4983 19.386L4.61626 13.508C3.78726 12.68 3.78726 11.334 4.61626 10.506L10.4983 4.62696C10.9123 4.21296 11.4573 4.00196 12.0003 4.00196Z" fill="black"/>
<path d="M12.0004 4.00195C12.543 4.00195 13.0867 4.21289 13.5014 4.62676L19.3794 10.5039C20.2069 11.3317 20.2069 12.6773 19.3794 13.505L13.5014 19.3811C12.6729 20.2089 11.3268 20.2089 10.4994 19.3811L4.62133 13.505C3.79289 12.6773 3.79289 11.3317 4.62133 10.5039L10.4994 4.62676C10.9131 4.21289 11.4577 4.00195 12.0004 4.00195Z" fill="black" fill-opacity="0.4"/>
</svg>
