<svg width="24" height="24" viewBox="0 0 24 24" fill="none" xmlns="http://www.w3.org/2000/svg">
<path d="M1.9989 13C1.9989 14.105 2.8943 15 3.9989 15L19.9989 15C21.1035 15 21.9989 14.105 21.9989 13V11C21.9989 9.895 21.1035 9 19.9989 9H3.9989C2.8943 9 1.9989 9.895 1.9989 11V13Z" fill="black"/>
<path fill-rule="evenodd" clip-rule="evenodd" d="M3 18C2.44772 18 2 18.4477 2 19C2 19.5523 2.44772 20 3 20H21C21.5523 20 22 19.5523 22 19C22 18.4477 21.5523 18 21 18H3ZM3 4C2.44772 4 2 4.44771 2 5C2 5.55229 2.44772 6 3 6L21 6C21.5523 6 22 5.55229 22 5C22 4.44771 21.5523 4 21 4L3 4Z" fill="black" fill-opacity="0.4"/>
</svg>
