<svg width="24" height="24" viewBox="0 0 24 24" fill="none" xmlns="http://www.w3.org/2000/svg">
<path d="M12 2C10.641 2 9.431 2.55801 8.5 3.53101C7.209 3.52701 5.85901 3.95301 4.90601 4.90601C3.95301 5.85901 3.47901 7.22199 3.53101 8.46899C2.55801 9.39999 2 10.641 2 12C2 13.359 2.589 14.6 3.562 15.531C3.532 16.886 3.95301 18.141 4.90601 19.094C5.85901 20.047 7.11399 20.456 8.46899 20.469C9.39999 21.442 10.641 22 12 22C13.359 22 14.569 21.442 15.5 20.469C16.813 20.464 18.141 20.047 19.094 19.094C20.047 18.141 20.507 16.815 20.469 15.531C21.442 14.6 22 13.359 22 12C22 10.641 21.442 9.431 20.469 8.5C20.499 7.146 20.047 5.85901 19.094 4.90601C18.141 3.95301 16.777 3.48401 15.531 3.53101C14.6 2.55801 13.359 2 12 2ZM12 4C12.898 4 13.721 4.43599 14.312 5.18799C14.527 5.45999 14.875 5.60101 15.219 5.56201C16.183 5.45401 17.038 5.72599 17.656 6.34399C18.274 6.96199 18.546 7.81701 18.438 8.78101C18.399 9.12501 18.541 9.47299 18.812 9.68799C19.564 10.279 20 11.102 20 12C20 12.898 19.564 13.721 18.812 14.312C18.54 14.527 18.399 14.875 18.438 15.219C18.546 16.183 18.274 17.038 17.656 17.656C17.038 18.274 16.183 18.546 15.219 18.438C14.875 18.399 14.527 18.54 14.312 18.812C13.721 19.564 12.898 20 12 20C11.102 20 10.279 19.564 9.688 18.812C9.473 18.54 9.12501 18.399 8.78101 18.438C7.81701 18.546 6.96199 18.274 6.34399 17.656C5.72599 17.038 5.454 16.183 5.562 15.219C5.601 14.875 5.459 14.527 5.188 14.312C4.436 13.721 4 12.898 4 12C4 11.102 4.436 10.279 5.188 9.68799C5.46 9.47299 5.601 9.12501 5.562 8.78101C5.454 7.81701 5.72599 6.96199 6.34399 6.34399C6.96199 5.72599 7.81701 5.45401 8.78101 5.56201C9.12501 5.60101 9.473 5.45999 9.688 5.18799C10.279 4.43599 11.102 4 12 4Z" fill="black" fill-opacity="0.4"/>
<path d="M9 11C8.448 11 8 11.448 8 12C8 12.552 8.448 13 9 13H15C15.552 13 16 12.552 16 12C16 11.448 15.552 11 15 11H9Z" fill="black"/>
</svg>
