<svg width="24" height="24" viewBox="0 0 24 24" fill="none" xmlns="http://www.w3.org/2000/svg">
<path fill-rule="evenodd" clip-rule="evenodd" d="M19.4898 11.0385L13.048 4.5966L11.6277 6.01692L18.0695 12.4588L19.4898 11.0385ZM10.9526 19.5752L4.51077 13.1333L2.29415 15.3499C2.10581 15.5383 2 15.7937 2 16.0601V21.0817C2 21.6363 2.44964 22.086 3.00431 22.086H8.02585C8.2922 22.086 8.54765 21.9802 8.736 21.7918L10.9526 19.5752ZM4.00862 20.0774V16.4761L4.51077 15.9739L8.112 19.5752L7.60985 20.0774H4.00862Z" fill="black"/>
<path fill-rule="evenodd" clip-rule="evenodd" d="M14.4677 6.01704L16.3892 4.09549C16.9872 4.09916 17.5139 4.1171 17.9914 4.20392C18.5557 4.30653 18.9693 4.49283 19.2812 4.80474C19.5931 5.11663 19.7794 5.53018 19.882 6.09452C19.9688 6.57201 19.9868 7.0987 19.9904 7.69675L18.0689 9.6183L19.4892 11.0386L21.7058 8.82198C21.8942 8.63364 22 8.37819 22 8.11183L22 8.06835C22 7.3454 22.0001 6.51547 21.8582 5.73521C21.7098 4.91861 21.3939 4.07678 20.7015 3.3844C20.0091 2.69204 19.1673 2.37617 18.3507 2.22769C17.5704 2.08581 16.7404 2.08588 16.0174 2.08594L15.9741 2.08594C15.7078 2.08594 15.4523 2.19176 15.264 2.3801L13.0474 4.59673L14.4677 6.01704ZM5.93129 14.5576L13.0478 7.4372L11.6274 6.01689L4.51099 13.1373L5.93129 14.5576ZM10.948 19.5751L18.0723 12.4587L16.652 11.0383L9.53174 18.155L10.948 19.5751ZM15.5604 9.9459L8.44594 17.0723L7.02563 15.652L14.1401 8.52559L15.5604 9.9459Z" fill="black" fill-opacity="0.4"/>
</svg>
