<svg width="24" height="24" viewBox="0 0 24 24" fill="none" xmlns="http://www.w3.org/2000/svg">
<path fill-rule="evenodd" clip-rule="evenodd" d="M18.3219 2.14442C17.89 2.05804 17.4445 2.00133 17.0031 2C16.7388 1.99973 16.4807 2.10592 16.2937 2.29289L13.9937 4.6225L13.9923 4.62109L3.29297 15.293L8.70703 20.707L19.4051 10.0361L19.4068 10.0378L21.7079 7.70711C21.8954 7.51957 22.0008 7.26522 22.0008 7V6.99893L22.0008 6.99767C21.9994 6.5563 21.9428 6.11079 21.8564 5.67888C21.7196 4.99519 21.4205 4.00544 20.7079 3.29289C19.9954 2.58035 19.0056 2.28116 18.3219 2.14442ZM17.9933 8.62155L19.9768 6.60343C19.9725 6.57779 19.9682 6.55184 19.9638 6.5256C19.8617 5.90888 19.7337 5.13576 19.3138 4.71911C18.876 4.28473 17.9529 4.11717 17.3945 4.02121L15.4073 6.03595L17.9933 8.62155Z" fill="black" fill-opacity="0.4"/>
<path fill-rule="evenodd" clip-rule="evenodd" d="M8.70712 20.7071C8.56752 20.8467 8.38972 20.9419 8.19613 20.9806L3.19613 21.9806C2.86827 22.0462 2.52933 21.9436 2.29291 21.7071C2.05649 21.4707 1.95386 21.1318 2.01944 20.8039L3.01944 15.8039C3.05815 15.6103 3.15331 15.4325 3.29291 15.2929L8.70712 20.7071Z" fill="black"/>
</svg>
