<svg width="24" height="24" viewBox="0 0 24 24" fill="none" xmlns="http://www.w3.org/2000/svg">
<path d="M12 2C11.3755 2 10.7469 2.18101 10.2513 2.53101L3.22561 7.46899C2.22137 8.17699 1.74973 9.61601 2.13244 10.781L4.81743 18.969C5.19814 20.127 6.4362 21 7.65928 21H16.3407C17.5638 21 18.8019 20.127 19.1826 18.969L21.8676 10.781C22.2503 9.61601 21.7786 8.17699 20.7744 7.46899L13.7487 2.53101C13.2531 2.18201 12.6245 2 12 2ZM11.4065 4.15601C11.7072 3.94401 12.2928 3.94401 12.5935 4.15601L19.6193 9.125C19.907 9.328 20.0699 9.82901 19.963 10.156L17.277 18.344C17.1671 18.678 16.7034 19 16.3407 19H7.65928C7.29655 19 6.83289 18.678 6.72297 18.344L4.03701 10.156C3.92909 9.82801 4.09296 9.328 4.38075 9.125L11.4065 4.15601Z" fill="black"/>
<path d="M11.41 4.15595C11.7109 3.94395 12.2967 3.94395 12.5976 4.15595L19.6267 9.12494C19.9146 9.32794 20.0775 9.82895 19.9706 10.1559L17.2833 18.3439C17.1734 18.6779 16.7095 18.9999 16.3466 18.9999H7.66101C7.29811 18.9999 6.83423 18.6779 6.72426 18.3439L4.03702 10.1559C3.92905 9.82795 4.093 9.32794 4.38092 9.12494L11.41 4.15595Z" fill="black" fill-opacity="0.4"/>
</svg>
