<svg width="24" height="24" viewBox="0 0 24 24" fill="none" xmlns="http://www.w3.org/2000/svg">
<path d="M12 2C12.6245 2 13.2531 2.18101 13.7487 2.53101L20.7744 7.46899C21.7786 8.17699 22.2503 9.61601 21.8676 10.781L19.1826 18.969C18.8019 20.127 17.5638 21 16.3407 21H12C12 19.5 12 4 12 2Z" fill="black" fill-opacity="0.4"/>
<path d="M12 2C11.3755 2 10.7469 2.18101 10.2513 2.53101L3.22561 7.46899C2.22137 8.17699 1.74973 9.61601 2.13244 10.781L4.81743 18.969C5.19814 20.127 6.4362 21 7.65928 21H12C12 19.5 12 4 12 2Z" fill="black"/>
</svg>
