<svg width="24" height="24" viewBox="0 0 24 24" fill="none" xmlns="http://www.w3.org/2000/svg">
<path fill-rule="evenodd" clip-rule="evenodd" d="M16 12C16 11.4477 16.4477 11 17 11H21C21.5523 11 22 11.4477 22 12C22 12.5523 21.5523 13 21 13H17C16.4477 13 16 12.5523 16 12Z" fill="black"/>
<path fill-rule="evenodd" clip-rule="evenodd" d="M4 7.5C4 5.0147 6.0147 3 8.5 3C10.9853 3 13 5.0147 13 7.5C13 9.9853 10.9853 12 8.5 12C6.0147 12 4 9.9853 4 7.5Z" fill="black" fill-opacity="0.4"/>
<path fill-rule="evenodd" clip-rule="evenodd" d="M2 18C2 15.9561 3.2284 14.1006 5.0625 13.3438C5.3183 13.2385 5.5919 13.2604 5.8438 13.375C6.7598 13.792 7.6248 14 8.5 14C9.3782 13.9998 10.2402 13.8028 11.125 13.4062C11.3806 13.292 11.6803 13.2954 11.9375 13.4062C13.7648 14.1937 15 16.0042 15 18V20C15 20.5523 14.5523 21 14 21H3C2.4477 21 2 20.5523 2 20V18Z" fill="black" fill-opacity="0.4"/>
</svg>
