<svg width="24" height="24" viewBox="0 0 24 24" fill="none" xmlns="http://www.w3.org/2000/svg">
<path d="M14.2388 2.0258C13.6169 1.88148 13.0271 2.36106 13.0181 3.00559C13.0091 3.71981 12.987 9.60335 12.987 10.6855C12.991 11.0868 13.0291 11.3109 13.5819 11.6021C13.652 11.642 16.8025 13.1749 17.4625 13.4984C17.6007 13.5662 19.6486 14.6234 20.2475 14.9521C20.8293 15.2717 21.5704 14.9408 21.7186 14.2884C21.8948 13.5134 22 12.6318 22 11.8865C22 7.1488 18.7523 3.07265 14.2388 2.0258ZM11.547 13.2455C11.4929 13.2726 4.59296 16.7033 4.50583 16.7536C3.96906 17.0636 3.83386 17.7864 4.22442 18.2706C6.11414 20.6145 8.9342 22 11.9856 22C15.047 22 17.8891 20.5963 19.7778 18.239C20.1744 17.7448 20.0211 17.0206 19.4653 16.722C19.3302 16.6494 12.4783 13.2725 12.4242 13.2455C12.1458 13.1083 11.8254 13.1073 11.547 13.2455Z" fill="black" fill-opacity="0.4"/>
<path d="M9.75 2.02563C5.241 3.06463 2 7.11803 2 11.8313C2 12.5635 2.10801 13.4542 2.28101 14.2198C2.42801 14.867 3.13699 15.1929 3.71899 14.8798C4.12499 14.6615 5.27999 14.0748 6.93799 13.2455C6.95999 13.2341 10.384 11.5123 10.438 11.4855C10.779 11.316 11 10.9576 11 10.5742C11 10.5108 10.976 3.6581 10.969 2.99996C10.962 2.35812 10.372 1.88232 9.75 2.02563Z" fill="black"/>
</svg>
