<svg width="24" height="24" viewBox="0 0 24 24" fill="none" xmlns="http://www.w3.org/2000/svg">
<path d="M7.125 4.74993C6.871 4.72093 6.62201 4.79692 6.40601 4.96892C4.27601 6.66492 3 9.22293 3 11.9999C3 16.9709 7.029 20.9999 12 20.9999C16.971 20.9999 21 16.9709 21 11.9999C21 9.23893 19.735 6.66592 17.625 4.96892C17.195 4.62292 16.565 4.69493 16.219 5.12493C15.873 5.55493 15.945 6.18493 16.375 6.53093C18.018 7.85293 19 9.85093 19 11.9999C19 15.8659 15.866 18.9999 12 18.9999C8.134 18.9999 5 15.8659 5 11.9999C5 9.83893 5.99701 7.85193 7.65601 6.53093C8.08801 6.18693 8.15702 5.55693 7.81202 5.12493C7.64002 4.90893 7.379 4.77893 7.125 4.74993Z" fill="black" fill-opacity="0.4"/>
<path fill-rule="evenodd" clip-rule="evenodd" d="M12 2C12.5523 2 13 2.44772 13 3V12C13 12.5523 12.5523 13 12 13C11.4477 13 11 12.5523 11 12V3C11 2.44772 11.4477 2 12 2Z" fill="black"/>
</svg>
