<svg width="24" height="24" viewBox="0 0 24 24" fill="none" xmlns="http://www.w3.org/2000/svg">
<path fill-rule="evenodd" clip-rule="evenodd" d="M5 6C3.34315 6 2 7.34315 2 9V15C2 16.6569 3.34315 18 5 18H7V14C6.44772 14 6 13.5523 6 13C6 12.4477 6.44772 12 7 12H17C17.5523 12 18 12.4477 18 13C18 13.5523 17.5523 14 17 14V18H19C20.6569 18 22 16.6569 22 15V10C22 8.34315 20.6569 7 19 7H9.23607L7.44721 6.10557C7.30836 6.03615 7.15525 6 7 6H5ZM6 11C6.55228 11 7 10.5523 7 10C7 9.44772 6.55228 9 6 9C5.44772 9 5 9.44772 5 10C5 10.5523 5.44772 11 6 11Z" fill="black" fill-opacity="0.4"/>
<path fill-rule="evenodd" clip-rule="evenodd" d="M7 5C7 3.89543 7.89543 3 9 3H15C16.1046 3 17 3.89543 17 5V7H15V5H9V6.88197L7.44721 6.10557C7.30836 6.03615 7.15525 6 7 6V5ZM17 16V18V19C17 20.1046 16.1046 21 15 21H9C7.89543 21 7 20.1046 7 19V18V16V14C6.44772 14 6 13.5523 6 13C6 12.4477 6.44772 12 7 12H17C17.5523 12 18 12.4477 18 13C18 13.5523 17.5523 14 17 14V16ZM7 10C7 10.5523 6.55228 11 6 11C5.44772 11 5 10.5523 5 10C5 9.44772 5.44772 9 6 9C6.55228 9 7 9.44772 7 10Z" fill="black"/>
</svg>
