<svg width="24" height="24" viewBox="0 0 24 24" fill="none" xmlns="http://www.w3.org/2000/svg">
<path d="M14.427 5.08144C14.079 4.90814 13.584 5.00633 13.051 5.42506L7.798 10.4609C6.734 11.2994 6.734 12.6878 7.798 13.5263L13.051 18.5622C14.116 19.4007 14.99 18.989 14.99 17.6246V15.9977H16.992C18.993 15.9977 20.994 16.9985 21.995 19C21.995 19 21.995 16.6258 21.995 16.6228C21.995 13.0926 21.991 7.99056 16.992 7.99056H14.99V6.3637C14.99 5.6805 14.776 5.25374 14.427 5.08144Z" fill="black" stroke="black" stroke-width="0.002" stroke-linecap="round" stroke-linejoin="round"/>
<path d="M7.99112 5C7.73412 5 7.46712 5.08601 7.27112 5.28101L3.01813 9.52701C1.66112 10.883 1.66012 13.105 3.01813 14.461L7.27112 18.707C7.66212 19.098 8.31913 19.098 8.71013 18.707C9.10113 18.317 9.10113 17.661 8.71013 17.271L4.45712 13.025C3.88112 12.449 3.88012 11.539 4.45712 10.964L8.71013 6.71701C9.10113 6.32701 9.10113 5.67101 8.71013 5.28101C8.51413 5.08601 8.24712 5 7.99112 5Z" fill="black" fill-opacity="0.4" stroke="black" stroke-width="0.002" stroke-linecap="round" stroke-linejoin="round"/>
</svg>
