<svg width="24" height="24" viewBox="0 0 24 24" fill="none" xmlns="http://www.w3.org/2000/svg">
<path d="M7 3C4.791 3 3 4.791 3 7V17C3 19.209 4.791 21 7 21H17C19.209 21 21 19.209 21 17V7C21 4.791 19.209 3 17 3H7Z" fill="black" fill-opacity="0.4"/>
<path d="M8 7C7.448 7 7 7.448 7 8C7 8.552 7.448 9 8 9C11.866 9 15 12.134 15 16C15 16.552 15.448 17 16 17C16.552 17 17 16.552 17 16C17 11.029 12.97 7 8 7ZM8 11C7.448 11 7 11.448 7 12C7 12.552 7.448 13 8 13C9.657 13 11 14.343 11 16C11 16.552 11.448 17 12 17C12.552 17 13 16.552 13 16C13 13.239 10.761 11 8 11ZM8 15C7.448 15 7 15.448 7 16C7 16.552 7.448 17 8 17C8.552 17 9 16.552 9 16C9 15.448 8.552 15 8 15Z" fill="black"/>
</svg>
