<svg width="24" height="24" viewBox="0 0 24 24" fill="none" xmlns="http://www.w3.org/2000/svg">
<path d="M13.8999 2.15118C13.5959 2.09718 13.2699 2.18918 13.0249 2.43218C12.9649 2.49218 12.8249 2.60019 12.6499 2.71319C12.3989 2.87619 12.1829 2.99419 12.0249 2.99519C12.0129 2.99519 11.9759 2.99619 11.9619 2.99519C11.7899 2.98119 11.5649 2.86919 11.3059 2.71319C11.1119 2.59619 10.9719 2.49618 10.8999 2.43218C10.3879 1.97718 9.57293 2.14618 9.30593 2.77618C9.25593 2.89318 9.12392 3.10018 8.96192 3.30718C8.81592 3.49418 8.67293 3.63319 8.55593 3.68219C8.49193 3.70919 8.41993 3.73819 8.30593 3.74519C8.09593 3.75719 7.83892 3.71018 7.58692 3.65118C7.45992 3.62118 7.34493 3.60219 7.30593 3.58819C6.65593 3.35519 5.99593 3.83518 5.99293 4.52618C5.99293 4.69418 5.93792 4.99618 5.83692 5.27618C5.77992 5.43418 5.71792 5.55119 5.64992 5.62019C5.57492 5.69519 5.42693 5.76919 5.24293 5.83819C4.94393 5.95119 4.64492 6.0152 4.46192 6.0262C3.77592 6.0652 3.32592 6.7652 3.58692 7.4012C3.60092 7.4352 3.61792 7.5302 3.64992 7.6512C3.71492 7.8952 3.75893 8.14118 3.74293 8.33818C3.73593 8.42518 3.73392 8.4722 3.71192 8.5262C3.66092 8.6512 3.50693 8.82719 3.30593 8.99519C3.08993 9.17419 2.86893 9.30819 2.74293 9.37019C2.12693 9.67019 1.97792 10.4772 2.46192 10.9632C2.52192 11.0232 2.65992 11.1632 2.77492 11.3382C2.93792 11.5892 3.02392 11.8372 3.02492 11.9952C3.02492 12.0062 3.02592 12.0122 3.02492 12.0262C3.01192 12.1972 2.89993 12.4242 2.74293 12.6822C2.62593 12.8762 2.52692 13.0472 2.46192 13.1202C2.00492 13.6312 2.17393 14.4462 2.80593 14.7132C2.92093 14.7622 3.13292 14.8652 3.33692 15.0262C3.52092 15.1712 3.66292 15.3142 3.71192 15.4322C3.73992 15.4982 3.73593 15.5952 3.74293 15.7132C3.75693 15.9262 3.73793 16.1782 3.68093 16.4322C3.65193 16.5592 3.63193 16.6442 3.61793 16.6822C3.39193 17.3322 3.86793 18.0262 4.55593 18.0262C4.55593 18.0262 5.02593 18.0512 5.30593 18.1512C5.44693 18.2012 5.54793 18.2472 5.61793 18.3072C5.62693 18.3142 5.64192 18.3312 5.64992 18.3382C5.66592 18.3552 5.66493 18.3852 5.68093 18.4012C5.74493 18.4822 5.80993 18.5882 5.86793 18.7452C5.97993 19.0442 6.04593 19.3742 6.05593 19.5572C6.09493 20.2472 6.79393 20.6682 7.43093 20.4012C7.46593 20.3862 7.55793 20.3722 7.68093 20.3382C7.92293 20.2722 8.17292 20.2302 8.36792 20.2452C8.43792 20.2502 8.48292 20.2562 8.52492 20.2762C8.53492 20.2812 8.54493 20.3032 8.55593 20.3072C8.67993 20.3582 8.85792 20.4792 9.02492 20.6822C9.20392 20.9002 9.33892 21.1182 9.39992 21.2452C9.69792 21.8652 10.5059 22.0122 10.9929 21.5262C11.0539 21.4662 11.1929 21.3592 11.3679 21.2452C11.6189 21.0802 11.8679 20.9952 12.0249 20.9952C12.0349 20.9952 12.0449 20.9952 12.0559 20.9952C12.2259 21.0072 12.4539 21.0882 12.7119 21.2452C12.9059 21.3622 13.0779 21.4922 13.1499 21.5572C13.6619 22.0172 14.4779 21.8182 14.7429 21.1822C14.7909 21.0682 14.8969 20.8542 15.0559 20.6512C15.1989 20.4682 15.3449 20.3562 15.4619 20.3072C15.4779 20.3002 15.5059 20.2822 15.5249 20.2762C15.5859 20.2552 15.6509 20.2502 15.7429 20.2452C15.9569 20.2322 16.2079 20.2502 16.4619 20.3072C16.5899 20.3362 16.6729 20.3872 16.7119 20.4012C17.3599 20.6252 18.0519 20.1482 18.0559 19.4632C18.0569 19.2922 18.0799 18.9662 18.1809 18.6822C18.2239 18.5592 18.2879 18.5002 18.3369 18.4322C18.3789 18.3922 18.4219 18.3482 18.4619 18.3072C18.5449 18.2482 18.6329 18.1722 18.7749 18.1202C19.0709 18.0112 19.3759 17.9712 19.5559 17.9632C20.2459 17.9332 20.7219 17.2282 20.4619 16.5882C20.4479 16.5542 20.3999 16.4602 20.3679 16.3382C20.3039 16.0932 20.2899 15.8492 20.3059 15.6512C20.3129 15.5622 20.3149 15.4872 20.3369 15.4322C20.3889 15.3072 20.5119 15.1302 20.7119 14.9632C20.9279 14.7842 21.1499 14.6492 21.2749 14.5882C21.8909 14.2892 22.0379 13.4822 21.5559 12.9952C21.4969 12.9352 21.3869 12.7932 21.2749 12.6202C21.1129 12.3702 21.0249 12.1542 21.0249 11.9952C21.0249 11.9732 21.0249 11.9532 21.0249 11.9322C21.0389 11.7582 21.1519 11.5342 21.3059 11.2762C21.4219 11.0802 21.5229 10.9112 21.5869 10.8382C22.0369 10.3252 21.8419 9.5402 21.2119 9.2762C21.0959 9.2272 20.8869 9.0932 20.6809 8.9322C20.4949 8.7872 20.3859 8.6432 20.3369 8.5262C20.3099 8.4612 20.2819 8.3922 20.2749 8.2762C20.2619 8.0652 20.2789 7.8092 20.3369 7.5572C20.3669 7.4292 20.4169 7.3152 20.4309 7.2762C20.6619 6.6262 20.1829 5.96619 19.4929 5.96319C19.3249 5.96319 18.9929 5.90819 18.7119 5.80719C18.5819 5.76019 18.5009 5.70518 18.4309 5.65118C18.4219 5.64418 18.4079 5.62719 18.3999 5.62019C18.3939 5.61319 18.3749 5.62619 18.3679 5.62019C18.3619 5.61319 18.3439 5.59619 18.3369 5.58819C18.2689 5.50819 18.2119 5.37919 18.1499 5.21319C18.0379 4.91519 18.0039 4.61419 17.9929 4.43219C17.9549 3.74519 17.2549 3.29618 16.6179 3.55718C16.5819 3.57218 16.4609 3.58619 16.3369 3.62019C16.0929 3.68519 15.8779 3.72719 15.6809 3.71319C15.5899 3.70719 15.5169 3.70419 15.4619 3.68219C15.3389 3.63218 15.1569 3.47618 14.9929 3.27618C14.8169 3.06018 14.7089 2.83919 14.6499 2.71319C14.5019 2.40119 14.2039 2.20418 13.8999 2.15118ZM12.0249 4.99519C12.9679 4.99519 13.8599 5.18818 14.6809 5.52618C14.7009 5.53418 14.7229 5.54819 14.7429 5.55719C17.2559 6.62019 19.0249 9.09519 19.0249 11.9952C19.0249 13.9282 18.2289 15.6652 16.9619 16.9322C16.3289 17.5652 15.5809 18.0782 14.7429 18.4322C14.7229 18.4402 14.7019 18.4552 14.6809 18.4632C13.8599 18.8012 12.9679 18.9952 12.0249 18.9952C12.0139 18.9952 12.0039 18.9952 11.9929 18.9952C11.0489 18.9902 10.1579 18.7752 9.33692 18.4322C9.32792 18.4282 9.31493 18.4362 9.30593 18.4322C9.29693 18.4282 9.28392 18.4362 9.27492 18.4322C7.61092 17.7212 6.29192 16.3802 5.58692 14.7132C5.57892 14.6932 5.56393 14.6712 5.55593 14.6512C5.21793 13.8302 5.02492 12.9382 5.02492 11.9952C5.02592 11.9852 5.02492 11.9732 5.02492 11.9632C5.04192 8.11218 8.16892 4.99519 12.0249 4.99519Z" fill="black"/>
</svg>
