<svg width="24" height="24" viewBox="0 0 24 24" fill="none" xmlns="http://www.w3.org/2000/svg">
<path d="M7.6562 13.688C5.4405 14.463 4 15.819 4 17.5C4 20.174 7.6526 22 12 22C16.347 22 20 20.174 20 17.5C20 15.815 18.535 14.462 16.312 13.688C15.791 13.506 15.244 13.791 15.062 14.312C14.881 14.834 15.135 15.381 15.656 15.562C17.167 16.089 18 16.866 18 17.5C18 18.692 15.385 20 12 20C8.6154 20 6 18.692 6 17.5C6 16.868 6.808 16.089 8.3125 15.562C8.8338 15.38 9.1199 14.834 8.9375 14.312C8.7551 13.791 8.1775 13.505 7.6562 13.688Z" fill="black" fill-opacity="0.4"/>
<path fill-rule="evenodd" clip-rule="evenodd" d="M6.9978 7C6.9978 4.239 9.2364 2 11.9978 2C14.7588 2 16.9978 4.239 16.9978 7C16.9978 7.936 16.5558 9.08699 15.7478 10.469C15.5543 10.7998 15.3267 11.1276 15.0899 11.4686C14.9974 11.6017 14.9036 11.7369 14.8098 11.875C14.3598 12.539 13.8848 13.224 13.4038 13.844C13.3377 13.9288 13.2578 14.0338 13.1724 14.146C13.1158 14.2204 13.0568 14.298 12.9978 14.375V17C12.9978 17.552 12.5498 18 11.9978 18C11.4458 18 10.9978 17.552 10.9978 17V14.375C10.9388 14.298 10.8798 14.2205 10.8232 14.146C10.7378 14.0338 10.6579 13.9288 10.5918 13.844C10.1108 13.223 9.6357 12.539 9.1853 11.875C9.0924 11.7381 8.99946 11.6042 8.9079 11.4723C8.67032 11.13 8.44205 10.801 8.2478 10.469C7.4399 9.08699 6.9978 7.936 6.9978 7ZM12 7.98584C12.5523 7.98584 13 7.53812 13 6.98584C13 6.43356 12.5523 5.98584 12 5.98584C11.4477 5.98584 11 6.43356 11 6.98584C11 7.53812 11.4477 7.98584 12 7.98584Z" fill="black"/>
</svg>
