<svg width="24" height="24" viewBox="0 0 24 24" fill="none" xmlns="http://www.w3.org/2000/svg">
<circle cx="12" cy="12" r="10" fill="black" fill-opacity="0.4"/>
<path d="M11.999 2.01416C11.551 2.01416 10.77 3.08415 10.124 4.98315C9.83404 5.83715 9.56004 6.89316 9.37403 7.88916C10.237 7.97116 11.171 8.01416 11.999 8.01416C12.827 8.01416 13.761 7.97116 14.624 7.88916C14.438 6.89316 14.164 5.83715 13.874 4.98315C13.228 3.08415 12.447 2.01416 11.999 2.01416ZM9.03004 2.45215C6.72204 3.12115 4.81204 4.74517 3.56104 6.67017C4.40104 6.97717 6.13403 7.43715 7.37403 7.60815C7.71203 5.66915 8.25304 3.86015 9.03004 2.45215ZM14.968 2.48315C15.673 3.82215 16.286 5.70016 16.624 7.63916C17.893 7.42916 19.455 7.01717 20.437 6.67017C19.179 4.66517 17.202 3.18715 14.968 2.48315ZM2.65503 8.45215C2.21603 9.62315 1.99902 10.6992 1.99902 12.0142C1.99902 13.3292 2.20003 14.4012 2.65503 15.5762C4.01503 15.0502 5.45103 14.6822 7.12403 14.4202C7.05103 13.6282 6.99903 12.8152 6.99903 12.0142C6.99903 11.2132 7.05103 10.4002 7.12403 9.60815C5.37803 9.33115 4.01903 8.98015 2.65503 8.45215ZM21.343 8.45215C20.012 8.99115 18.62 9.36316 16.874 9.63916C16.947 10.4322 16.999 11.2132 16.999 12.0142C16.999 12.8152 16.947 13.6282 16.874 14.4202C18.655 14.7032 20 15.0612 21.343 15.5762C21.782 14.4692 21.9991 13.3292 21.9991 12.0142C21.9991 10.6992 21.795 9.64815 21.343 8.45215ZM9.09303 9.88916C9.01703 10.6372 8.99903 11.2942 8.99903 12.0142C8.99903 12.7342 9.01703 13.3912 9.09303 14.1392C10.027 14.0532 11.05 14.0142 11.999 14.0142C12.948 14.0142 13.971 14.0532 14.905 14.1392C14.981 13.3912 14.999 12.7342 14.999 12.0142C14.999 11.2942 14.981 10.6372 14.905 9.88916C13.971 9.97516 12.948 10.0142 11.999 10.0142C11.05 10.0142 10.027 9.97516 9.09303 9.88916ZM11.999 16.0142C11.171 16.0142 10.237 16.0572 9.37403 16.1392C9.56004 17.1352 9.83404 18.1912 10.124 19.0452C10.77 20.9442 11.551 22.0142 11.999 22.0142C12.447 22.0142 13.228 20.9442 13.874 19.0452C14.164 18.1912 14.407 17.1662 14.593 16.1702C13.73 16.0882 12.827 16.0142 11.999 16.0142ZM7.37403 16.3892C6.19403 16.5982 4.42504 17.0372 3.56104 17.3582C4.81204 19.2832 6.62904 20.8042 9.03004 21.5762C8.28404 20.2022 7.71203 18.3282 7.37403 16.3892ZM16.624 16.3892C16.286 18.3282 15.673 20.2372 14.968 21.5762C17.287 20.8692 19.235 19.2632 20.437 17.3582C19.601 17.0422 17.792 16.5892 16.624 16.3892Z" fill="black"/>
</svg>
