<svg width="24" height="24" viewBox="0 0 24 24" fill="none" xmlns="http://www.w3.org/2000/svg">
<path d="M7 3C4.736 3.003 3.009 4.764 3 7V11H21L21 7C21.003 4.791 19.241 3 17 3H7ZM5.27901 5.99699C5.63401 5.99599 7.154 6.001 8 6V9H5V7C5 6.605 5.08101 6.30699 5.27901 5.99699ZM10 6C11.672 6 12.274 5.999 14 6V9H10V6ZM16 6C16.915 6.001 18.256 5.988 18.725 5.989C18.922 6.299 19 6.605 19 7V9H16V6Z" fill="black"/>
<path fill-rule="evenodd" clip-rule="evenodd" d="M5 17V16H8V19H7C5.89543 19 5 18.1046 5 17ZM8 14H5V11H3V17C3 19.2091 4.79086 21 7 21H17C19.2091 21 21 19.2091 21 17V11H19V14H16V11H14V14H10V11H8V14ZM14 16H10V19H14V16ZM16 19H17C18.1046 19 19 18.1046 19 17V16H16V19Z" fill="black" fill-opacity="0.4"/>
</svg>
