<svg width="24" height="24" viewBox="0 0 24 24" fill="none" xmlns="http://www.w3.org/2000/svg">
<path fill-rule="evenodd" clip-rule="evenodd" d="M16 4H8C6.89543 4 6 4.89543 6 6H18C18 4.89543 17.1046 4 16 4ZM8 2C5.79086 2 4 3.79086 4 6V8H20V6C20 3.79086 18.2091 2 16 2H8Z" fill="black"/>
<path fill-rule="evenodd" clip-rule="evenodd" d="M6 15V18C6 19.1046 6.89543 20 8 20H11V15H6ZM6 13H11V8H13V13H18V8H20V18C20 20.2091 18.2091 22 16 22H8C5.79086 22 4 20.2091 4 18V8H6V13ZM18 15H13V20H16C17.1046 20 18 19.1046 18 18V15Z" fill="black" fill-opacity="0.4"/>
</svg>
