<svg width="24" height="24" viewBox="0 0 24 24" fill="none" xmlns="http://www.w3.org/2000/svg">
<path d="M5 4.00002C3.343 4.00002 2 5.34301 2 7.00001L2 17C2 18.657 3.343 20 5 20H19C20.657 20 22 18.657 22 17V7.00001C22 5.34301 20.657 4.00002 19 4.00002L5 4.00002ZM5 6.00001L19 6.00001C19.552 6.00001 20 6.44801 20 7.00001V17C20 17.552 19.552 18 19 18H5C4.448 18 4 17.552 4 17L4 7.00001C4 6.44801 4.448 6.00001 5 6.00001Z" fill="black"/>
<path fill-rule="evenodd" clip-rule="evenodd" d="M19 6.00001L5 6.00001C4.448 6.00001 4 6.44801 4 7.00001L4 17C4 17.552 4.448 18 5 18H19C19.552 18 20 17.552 20 17V7.00001C20 6.44801 19.552 6.00001 19 6.00001ZM19 12C19 11.4477 18.5523 11 18 11C17.4477 11 17 11.4477 17 12C17 12.5523 17.4477 13 18 13C18.5523 13 19 12.5523 19 12Z" fill="black" fill-opacity="0.4"/>
</svg>
