<svg width="24" height="24" viewBox="0 0 24 24" fill="none" xmlns="http://www.w3.org/2000/svg">
<path d="M6.5 4C4.448 4 2 6.448 2 8.5C2 10.682 4.03901 14.477 6.28101 16.719C6.48701 16.924 7.07601 17.513 7.28101 17.719C9.52301 19.961 13.317 22 15.5 22C17.552 22 20 19.552 20 17.5C20 15.448 17.552 13 15.5 13C15.09 13 14.668 13.163 13.875 13.531C13.802 13.565 13.192 13.864 13.031 13.938C11.915 13.631 10.403 12.098 10.062 10.938C10.139 10.768 10.44 10.187 10.469 10.125C10.852 9.313 11 8.915 11 8.5C11 6.448 8.552 4 6.5 4ZM6.5 6C7.448 6 9 7.552 9 8.5C9 8.475 8.86601 8.83701 8.65601 9.28101C8.62801 9.34101 8.296 9.98401 8.219 10.156C7.983 10.684 7.95401 10.85 8.03101 11.219C8.45101 13.22 10.83 15.611 12.812 15.969C13.169 16.033 13.257 16.002 13.812 15.75C13.968 15.68 14.649 15.376 14.719 15.344C15.159 15.139 15.521 15 15.5 15C16.448 15 18 16.552 18 17.5C18 18.448 16.448 20 15.5 20C13.938 20 10.621 18.184 8.719 16.281C8.513 16.076 7.924 15.487 7.719 15.281C5.816 13.379 4 10.062 4 8.5C4 7.552 5.552 6 6.5 6Z" fill="black" fill-opacity="0.4"/>
<path fill-rule="evenodd" clip-rule="evenodd" d="M20.7071 4.70711C21.0976 4.31658 21.0976 3.68342 20.7071 3.29289C20.3166 2.90237 19.6834 2.90237 19.2929 3.29289L18.5 4.08579L17.7071 3.29289C17.3166 2.90237 16.6834 2.90237 16.2929 3.29289C15.9024 3.68342 15.9024 4.31658 16.2929 4.70711L17.0858 5.5L16.2929 6.29289C15.9024 6.68342 15.9024 7.31658 16.2929 7.70711C16.6834 8.09763 17.3166 8.09763 17.7071 7.70711L18.5 6.91421L19.2929 7.70711C19.6834 8.09763 20.3166 8.09763 20.7071 7.70711C21.0976 7.31658 21.0976 6.68342 20.7071 6.29289L19.9142 5.5L20.7071 4.70711Z" fill="black"/>
</svg>
