<svg width="24" height="24" viewBox="0 0 24 24" fill="none" xmlns="http://www.w3.org/2000/svg">
<path d="M5.00356 20.9624C4.50556 20.8734 4.04756 20.6204 3.69056 20.2444C3.02156 19.5404 2.84856 18.4924 3.12856 17.6214C3.22156 17.3294 4.59056 13.0904 4.94056 12.0014C4.94056 12.0014 5.5 11 6.5 11C7 11 21.0091 11.0006 21.7213 11C21.8964 11.2813 21.9957 11.6052 22.0036 11.9704C22.0236 13.0134 21.3776 13.6234 20.4406 14.0624C20.2836 14.1364 6.90856 20.5654 6.47156 20.7754C6.02756 20.9834 5.50056 21.0514 5.00356 20.9624ZM5.62856 18.9644C6.00856 18.7814 15.5536 14.1924 18.0346 13.0004H6.72156C6.27156 14.3974 5.12157 17.9424 5.03457 18.2144C4.96157 18.4404 5.01156 18.7474 5.12856 18.8704C5.23256 18.9804 5.50756 19.0204 5.62856 18.9644Z" fill="black"/>
<path fill-rule="evenodd" clip-rule="evenodd" d="M3.69056 3.75625C4.04756 3.38025 4.50556 3.12723 5.00356 3.03823C5.50056 2.94923 6.02756 3.01724 6.47156 3.22524C6.53691 3.25664 6.89151 3.42709 7.44794 3.69453C10.6128 5.21574 20.307 9.87528 20.4406 9.93822C20.9376 10.1711 21.5 10.5 21.7213 11C19.9751 11.0015 18.0346 11.0002 18.0346 11.0002C15.5536 9.80823 6.00856 5.21925 5.62856 5.03625C5.50756 4.98025 5.23256 5.02024 5.12856 5.13024C5.01156 5.25324 4.96157 5.56025 5.03457 5.78624C5.06923 5.89461 5.27262 6.52249 5.53324 7.32707C5.92675 8.54188 6.45075 10.1595 6.72149 11C6.60491 11 6.52928 11 6.5 11C5.52676 11 4.97082 11.9485 4.94176 11.9993L4.94056 11.9992C4.76041 11.4387 4.31032 10.0437 3.90321 8.78195C3.51935 7.59224 3.17369 6.52094 3.12856 6.37923C2.84856 5.50823 3.02156 4.46025 3.69056 3.75625Z" fill="black" fill-opacity="0.4"/>
</svg>
