<svg width="24" height="24" viewBox="0 0 24 24" fill="none" xmlns="http://www.w3.org/2000/svg">
<path d="M3.4089 20.5348C3.84777 20.997 4.59355 21.1101 5.05242 20.895C5.05242 20.895 19.6362 13.3502 20.0111 13.1741C20.386 12.998 21.013 12.6333 21 12C20.0113 12 13 12 12.5 12C12.483 12.3192 12.2154 12.4787 12.0174 12.4948L5.00444 12.996C4.64755 13.024 4.1257 13.2431 3.98074 14.0005C3.7638 15.1281 3.27994 17.5713 3.01502 19.3212C2.94204 19.8084 3.14498 20.2557 3.4089 20.5348Z" fill="black"/>
<path d="M3.4089 3.46519C3.84777 3.00296 4.59355 2.88992 5.05242 3.10503C5.05242 3.10503 19.6362 10.6498 20.0111 10.8259C20.386 11.002 21.013 11.3667 21 12C20.0113 12 13 12 12.5 12C12.483 11.6808 12.2154 11.5213 12.0174 11.5052L5.00444 11.004C4.64755 10.976 4.1257 10.7569 3.98074 9.99949C3.7638 8.87192 3.27994 6.4287 3.01502 4.67882C2.94204 4.19157 3.14498 3.74433 3.4089 3.46519Z" fill="black" fill-opacity="0.4"/>
</svg>
