<svg width="24" height="24" viewBox="0 0 24 24" fill="none" xmlns="http://www.w3.org/2000/svg">
<path d="M6.5 4C4.448 4 2 6.448 2 8.5C2 10.682 4.03901 14.477 6.28101 16.719C6.48701 16.924 7.07601 17.513 7.28101 17.719C9.52301 19.961 13.317 22 15.5 22C17.552 22 20 19.552 20 17.5C20 15.448 17.552 13 15.5 13C15.09 13 14.668 13.163 13.875 13.531C13.802 13.565 13.192 13.864 13.031 13.938C11.915 13.631 10.403 12.098 10.062 10.938C10.139 10.768 10.44 10.187 10.469 10.125C10.852 9.313 11 8.915 11 8.5C11 6.448 8.552 4 6.5 4ZM6.5 6C7.448 6 9 7.552 9 8.5C9 8.475 8.86601 8.83701 8.65601 9.28101C8.62801 9.34101 8.296 9.98401 8.219 10.156C7.983 10.684 7.95401 10.85 8.03101 11.219C8.45101 13.22 10.83 15.611 12.812 15.969C13.169 16.033 13.257 16.002 13.812 15.75C13.968 15.68 14.649 15.376 14.719 15.344C15.159 15.139 15.521 15 15.5 15C16.448 15 18 16.552 18 17.5C18 18.448 16.448 20 15.5 20C13.938 20 10.621 18.184 8.719 16.281C8.513 16.076 7.924 15.487 7.719 15.281C5.816 13.379 4 10.062 4 8.5C4 7.552 5.552 6 6.5 6Z" fill="black" fill-opacity="0.4"/>
<path d="M15.3761 2.5017C14.8564 2.31537 14.2819 2.57543 14.0949 3.09356C13.9078 3.6107 14.2002 4.18364 14.7199 4.36997C16.9839 5.18204 18.7715 6.99452 19.5636 9.25837C19.7454 9.77849 20.3233 10.0316 20.8449 9.85023C21.3664 9.66888 21.6204 9.12385 21.4386 8.60472C20.4479 5.77291 18.2077 3.51704 15.3761 2.5017Z" fill="black"/>
<path d="M13.6184 6.4101C13.3801 6.50277 13.1978 6.68711 13.0872 6.93921C12.8657 7.44339 13.0812 8.02628 13.5872 8.24748C14.5253 8.65601 15.2833 9.39335 15.6809 10.334C15.8953 10.8401 16.4844 11.0763 16.9934 10.8631C17.5024 10.6488 17.7391 10.0928 17.5246 9.58665C16.928 8.17474 15.8072 7.02389 14.3996 6.4101C14.1467 6.2995 13.8567 6.31744 13.6184 6.4101Z" fill="black"/>
</svg>
