<svg width="24" height="24" viewBox="0 0 24 24" fill="none" xmlns="http://www.w3.org/2000/svg">
<path d="M5.93799 4C4.24999 4 2 6.24999 2 7.93799C2 10.112 4.25 14.125 6.5 16.375C6.742 16.617 7.383 17.258 7.625 17.5C9.875 19.75 13.888 22 16.062 22C17.75 22 20 19.75 20 18.062C20 16.375 17.75 14.125 16.062 14.125C15.5 14.125 13.465 15.289 13.25 15.25C11.456 14.926 9.125 12.537 8.75 10.75C8.698 10.501 9.875 8.49999 9.875 7.93799C9.875 6.24999 7.62499 4 5.93799 4Z" fill="black" fill-opacity="0.4"/>
<path fill-rule="evenodd" clip-rule="evenodd" d="M17 8C17 8.55228 17.4477 9 18 9C18.5523 9 19 8.55228 19 8V7H20C20.5523 7 21 6.55228 21 6C21 5.44772 20.5523 5 20 5H19V4C19 3.44772 18.5523 3 18 3C17.4477 3 17 3.44772 17 4V5H16C15.4477 5 15 5.44772 15 6C15 6.55228 15.4477 7 16 7H17V8Z" fill="black"/>
</svg>
