<svg width="24" height="24" viewBox="0 0 24 24" fill="none" xmlns="http://www.w3.org/2000/svg">
<path d="M6 4C3.7909 4 2 5.791 2 8V16C2 18.209 3.7909 20 6 20H18C20.2091 20 22 18.209 22 16V8C22 5.791 20.2091 4 18 4H6ZM6 6H18C19.1046 6 20 6.895 20 8V16C20 17.105 19.1046 18 18 18H6C4.8954 18 4 17.105 4 16V8C4 6.895 4.8954 6 6 6Z" fill="black" fill-opacity="0.4"/>
<path fill-rule="evenodd" clip-rule="evenodd" d="M17.7071 9.70711C18.0976 9.31658 18.0976 8.68342 17.7071 8.29289C17.3166 7.90237 16.6834 7.90237 16.2929 8.29289L10.2929 14.2929C9.90237 14.6834 9.90237 15.3166 10.2929 15.7071C10.6834 16.0976 11.3166 16.0976 11.7071 15.7071L17.7071 9.70711ZM17.7071 14.7071C18.0976 14.3166 18.0976 13.6834 17.7071 13.2929C17.3166 12.9024 16.6834 12.9024 16.2929 13.2929L15.2929 14.2929C14.9024 14.6834 14.9024 15.3166 15.2929 15.7071C15.6834 16.0976 16.3166 16.0976 16.7071 15.7071L17.7071 14.7071Z" fill="black"/>
</svg>
