<svg width="24" height="24" viewBox="0 0 24 24" fill="none" xmlns="http://www.w3.org/2000/svg">
<path fill-rule="evenodd" clip-rule="evenodd" d="M9.80157 12.7843L6.99993 15.586L6.99735 15.5834L6.66667 15.2653C6.44253 15.0422 6.16014 14.9782 5.87369 15.0062C5.58624 15.0342 5.35506 15.1612 5.17917 15.4243L4.81989 15.9606L4.81832 15.9629C4.27936 16.7673 3.36027 18.1391 3.16902 18.4254C2.90268 18.8215 2.95595 19.3697 3.29466 19.7068L4.29973 20.7071C4.63844 21.0443 5.15706 21.0963 5.55608 20.8322L8.5713 18.8315C9.09897 18.4814 9.12912 17.6901 8.71905 17.299L8.40849 17.0058L11.2173 14.197C10.4215 13.3919 10.3457 13.3178 10.1294 13.1061C10.0516 13.0301 9.95565 12.9363 9.80157 12.7843ZM15.2016 12.2012C15.4909 11.9669 15.7904 11.7239 16.0924 11.4786C16.9791 10.7581 17.8883 10.0155 18.6177 9.41126C19.3229 8.82706 19.9158 8.32693 20.1214 8.12132C21.293 6.94975 21.293 5.05025 20.1214 3.87868C18.9498 2.70711 17.0503 2.70711 15.8787 3.87868C15.4403 4.31714 13.8714 6.2318 12.4733 7.95594C12.2424 8.24069 12.0141 8.52286 11.7936 8.7958C12.2634 9.27453 12.7359 9.75067 13.2101 10.225C13.4724 9.90014 13.7477 9.55973 14.0268 9.2156C15.4764 7.42792 16.9504 5.63548 17.293 5.29289C17.6835 4.90237 18.3167 4.90237 18.7072 5.29289C19.0977 5.68342 19.0977 6.31658 18.7072 6.70711C18.5856 6.82868 18.0881 7.25286 17.3418 7.87108C16.6197 8.46928 15.7162 9.20723 14.8312 9.92638C14.4702 10.2197 14.1125 10.5097 13.7719 10.7854C14.2473 11.2585 14.7242 11.7301 15.2016 12.2012Z" fill="black" fill-opacity="0.4"/>
<path d="M7.0129 3C5.99003 3 4.95815 3.37976 4.17724 4.16025C2.61443 5.72124 2.60444 8.25857 4.16626 9.81956C5.16714 10.8189 6.54898 11.1857 7.90782 10.9009C11.7627 14.7496 8.59906 11.5446 13.0902 16.0934C12.9502 16.705 12.9522 17.4146 13.1272 18.0622C13.6841 20.1278 15.9159 21.433 17.9876 20.8604L15.002 17.9912L15.5119 15.5228L18.0116 14.9922L20.8703 18.0002C21.0412 17.3506 21.0482 16.6581 20.8613 15.9626C20.4333 14.3636 19.1185 13.2393 17.5747 13.0245C17.1097 12.9605 16.5828 12.9785 16.0998 13.0864C14.3528 11.3655 12.6055 9.64349 10.9014 7.87981C11.1824 6.59365 10.8195 5.16258 9.81857 4.16224C9.03766 3.38175 8.03678 3 7.0129 3ZM6.35701 4.59295L8.76172 5.23353L9.40562 7.64297L7.62886 9.4168L5.23312 8.77022L4.58122 6.38079L6.35701 4.59295Z" fill="black"/>
</svg>
