<svg width="24" height="24" viewBox="0 0 24 24" fill="none" xmlns="http://www.w3.org/2000/svg">
<path d="M10 4C5.582 4 2 7.582 2 12C2 12.552 2.448 13 3 13C3.552 13 4 12.552 4 12C4 8.686 6.686 6 10 6C13.314 6 16 8.686 16 12C16 14.209 14.209 16 12 16C10.343 16 8.92001 14.998 8.31201 13.562C8.11001 13.084 8 12.552 8 12C8 10.918 8.43499 9.903 9.18799 9.156C9.57999 8.767 9.57599 8.142 9.18799 7.75C8.99299 7.554 8.72499 7.43898 8.46899 7.43798C8.21299 7.43598 7.97701 7.555 7.78101 7.75C6.65401 8.869 5.986 10.38 6 12C6.041 16.85 9.984 19.972 14 20C18.418 20.031 22 16.418 22 12C22 11.448 21.552 11 21 11C20.448 11 20 11.448 20 12C20 15.314 17.314 18 14 18C13.647 18 13.351 17.973 13.015 17.915C15.836 17.425 18 14.961 18 12C18 7.582 14.418 4 10 4Z" fill="black"/>
<circle cx="12" cy="12" r="2" fill="black" fill-opacity="0.4"/>
</svg>
