<svg width="24" height="24" viewBox="0 0 24 24" fill="none" xmlns="http://www.w3.org/2000/svg">
<path d="M18 4C15.791 4 14 5.79099 14 7.99998C14 8.55198 14.448 8.99998 15 8.99998C15.552 8.99998 16 8.55198 16 7.99998C16 6.89499 16.895 5.99999 18 5.99999C19.105 5.99999 20 6.89499 20 7.99998C20 9.73398 19.355 10.708 17.281 12.781C14.855 15.208 14 16.567 14 18.9999C14 19.5519 14.448 19.9999 15 19.9999C16.111 19.9999 20.111 19.9999 21 19.9999C21.552 19.9999 22 19.5519 22 18.9999C22 18.4479 21.552 17.9999 21 17.9999C20.296 17.9999 17.876 17.9999 16.25 17.9999C16.497 16.834 17.1 15.8369 18.719 14.219C21.145 11.792 22 10.433 22 7.99998C22 5.79099 20.209 4 18 4Z" fill="black" fill-opacity="0.4"/>
<path d="M3 4C2.4477 4 2 4.448 2 5V19C2 19.552 2.4477 20 3 20C3.5523 20 4 19.552 4 19V13H10V19C10 19.552 10.4477 20 11 20C11.5523 20 12 19.552 12 19V5C12 4.448 11.5523 4 11 4C10.4477 4 10 4.448 10 5V11H4V5C4 4.448 3.5523 4 3 4Z" fill="black"/>
</svg>
