<svg width="24" height="24" viewBox="0 0 24 24" fill="none" xmlns="http://www.w3.org/2000/svg">
<path fill-rule="evenodd" clip-rule="evenodd" d="M5 6C5 4.34315 6.34315 3 8 3H18C19.6569 3 21 4.34315 21 6V18C21 19.6569 19.6569 21 18 21H8C6.34315 21 5 19.6569 5 18V6ZM8 5C7.44772 5 7 5.44772 7 6V18C7 18.5523 7.44772 19 8 19H18C18.5523 19 19 18.5523 19 18V6C19 5.44772 18.5523 5 18 5H8Z" fill="black" fill-opacity="0.4"/>
<path fill-rule="evenodd" clip-rule="evenodd" d="M4.99725 6C4.99725 5.64936 5.05732 5.31278 5.16772 5H3.99862C3.4471 5 3 5.44772 3 6C3 6.55228 3.4471 7 3.99862 7H4.99725V6ZM4.99725 18V17H3.99862C3.4471 17 3 17.4477 3 18C3 18.5523 3.4471 19 3.99862 19H5.16772C5.05732 18.6872 4.99725 18.3506 4.99725 18ZM3.99862 15H4.99725V13H3.99862C3.4471 13 3 13.4477 3 14C3 14.5523 3.4471 15 3.99862 15ZM4.99725 11V9H3.99862C3.4471 9 3 9.44772 3 10C3 10.5523 3.4471 11 3.99862 11H4.99725ZM14.993 8.00182C14.993 7.44851 15.4404 7 15.9917 7C16.5429 7 16.9903 7.44851 16.9903 8.00182C16.9903 8.55512 16.5429 9.00363 15.9917 9.00363C15.4404 9.00363 14.993 8.55512 14.993 8.00182ZM11.2792 9.28534C11.4739 9.09029 11.7425 9.00363 11.9972 9.00363C12.2518 9.00363 12.5204 9.09029 12.7152 9.28534C12.7987 9.36955 13.0027 9.57412 13.2539 9.82605C13.4803 10.053 13.745 10.3185 13.9944 10.569L14.275 10.2872C14.6645 9.89705 15.3216 9.89705 15.7111 10.2872L16.7097 11.289C17.3368 11.9184 16.8794 13.0109 15.9917 13.0109H9.99992C9.11264 13.0109 8.65477 11.9184 9.2821 11.289L11.2792 9.28534ZM9.00129 16.0163C9.00129 15.4631 9.44848 15.0145 9.99992 15.0145H15.9917C16.5429 15.0145 16.9903 15.4631 16.9903 16.0163C16.9903 16.5695 16.5429 17.0182 15.9917 17.0182H9.99992C9.44848 17.0182 9.00129 16.5695 9.00129 16.0163Z" fill="black"/>
</svg>
