<svg width="24" height="24" viewBox="0 0 24 24" fill="none" xmlns="http://www.w3.org/2000/svg">
<path fill-rule="evenodd" clip-rule="evenodd" d="M21 20C20.4477 20 20 19.5523 20 19V5C20 4.44771 20.4477 4 21 4C21.5523 4 22 4.44771 22 5V19C22 19.5523 21.5523 20 21 20Z" fill="black" fill-opacity="0.4"/>
<path fill-rule="evenodd" clip-rule="evenodd" d="M3 13C2.44772 13 2 13.4477 2 14C2 14.5523 2.44772 15 3 15L17 15C17.5523 15 18 14.5523 18 14C18 13.4477 17.5523 13 17 13H3ZM9 9C8.44772 9 8 9.44772 8 10C8 10.5523 8.44772 11 9 11H17C17.5523 11 18 10.5523 18 10C18 9.44772 17.5523 9 17 9H9Z" fill="black"/>
</svg>
