<svg width="24" height="24" viewBox="0 0 24 24" fill="none" xmlns="http://www.w3.org/2000/svg">
<path d="M21 20C20.4477 20 20 19.5523 20 19V5C20 4.44771 20.4477 4 21 4C21.5523 4 22 4.44771 22 5V19C22 19.5523 21.5523 20 21 20Z" fill="black" fill-opacity="0.4"/>
<path fill-rule="evenodd" clip-rule="evenodd" d="M2 16C2 17.6569 3.34315 19 5 19H15C16.6569 19 18 17.6569 18 16C18 14.3431 16.6569 13 15 13H5C3.34315 13 2 14.3431 2 16ZM5 17C4.44772 17 4 16.5523 4 16C4 15.4477 4.44772 15 5 15H15C15.5523 15 16 15.4477 16 16C16 16.5523 15.5523 17 15 17H5ZM7 8C7 9.65685 8.34315 11 10 11H15C16.6569 11 18 9.65685 18 8C18 6.34315 16.6569 5 15 5H10C8.34315 5 7 6.34315 7 8ZM10 9C9.44772 9 9 8.55229 9 8C9 7.44772 9.44772 7 10 7H15C15.5523 7 16 7.44772 16 8C16 8.55228 15.5523 9 15 9H10Z" fill="black"/>
</svg>
