<svg width="24" height="24" viewBox="0 0 24 24" fill="none" xmlns="http://www.w3.org/2000/svg">
<path fill-rule="evenodd" clip-rule="evenodd" d="M2 12C2 12.5523 2.44771 13 3 13H5V11H3C2.44771 11 2 11.4477 2 12ZM21 11H19V13H21C21.5523 13 22 12.5523 22 12C22 11.4477 21.5523 11 21 11Z" fill="black" fill-opacity="0.4"/>
<path fill-rule="evenodd" clip-rule="evenodd" d="M5 14C5 15.6569 6.34315 17 8 17C9.65685 17 11 15.6569 11 14V10C11 8.34315 9.65685 7 8 7C6.34315 7 5 8.34315 5 10L5 14ZM8 15C7.44772 15 7 14.5523 7 14V10C7 9.44772 7.44772 9 8 9C8.55228 9 9 9.44772 9 10V14C9 14.5523 8.55228 15 8 15ZM13 17C13 18.6569 14.3431 20 16 20C17.6569 20 19 18.6569 19 17V7C19 5.34315 17.6569 4 16 4C14.3431 4 13 5.34315 13 7V17ZM16 18C15.4477 18 15 17.5523 15 17V7C15 6.44771 15.4477 6 16 6C16.5523 6 17 6.44772 17 7V17C17 17.5523 16.5523 18 16 18Z" fill="black"/>
</svg>
