<svg width="24" height="24" viewBox="0 0 24 24" fill="none" xmlns="http://www.w3.org/2000/svg">
<path fill-rule="evenodd" clip-rule="evenodd" d="M3 4C3 3.44772 3.44772 3 4 3H20C20.5523 3 21 3.44772 21 4C21 4.55228 20.5523 5 20 5H4C3.44772 5 3 4.55228 3 4Z" fill="black" fill-opacity="0.4"/>
<path fill-rule="evenodd" clip-rule="evenodd" d="M13 8C13 7.44772 12.5523 7 12 7C11.4477 7 11 7.44772 11 8V17.5857L7.00015 13.5858L5.58594 15L11.2836 20.6977C11.3198 20.7348 11.3588 20.7691 11.4002 20.8003C11.454 20.8407 11.5109 20.8749 11.57 20.9031C11.6826 20.9568 11.8069 20.9901 11.938 20.9981C11.9916 21.0014 12.0455 21.0004 12.099 20.9952C12.163 20.9889 12.2253 20.9765 12.2852 20.9587C12.4397 20.9129 12.5853 20.8291 12.7073 20.7071L18.4144 15L17.0002 13.5858L13 17.586V8Z" fill="black"/>
</svg>
