<svg width="24" height="24" viewBox="0 0 24 24" fill="none" xmlns="http://www.w3.org/2000/svg">
<path fill-rule="evenodd" clip-rule="evenodd" d="M3 9C3 11.2091 4.79086 13 7 13L17.5859 13C18.5898 12 18.5898 12 18.5898 12C18.5898 12 18.5898 12 17.5857 11H7C5.89543 11 5 10.1046 5 9V4C5 3.44772 4.55228 3 4 3C3.44772 3 3 3.44772 3 4L3 9Z" fill="black" fill-opacity="0.4"/>
<path fill-rule="evenodd" clip-rule="evenodd" d="M13.5859 17.0001L18.5859 12.0001L13.5859 7.00009L15.0002 5.58588L20.7073 11.293C21.0978 11.6835 21.0978 12.3167 20.7073 12.7072L15.0002 18.4143L13.5859 17.0001Z" fill="black"/>
</svg>
