<svg width="24" height="24" viewBox="0 0 24 24" fill="none" xmlns="http://www.w3.org/2000/svg">
<path fill-rule="evenodd" clip-rule="evenodd" d="M12 21C9.79086 21 8 19.2091 8 17V6.41409C9 5.41016 9 5.41016 9 5.41016C9 5.41016 9 5.41016 10 6.41428V17C10 18.1046 10.8954 19 12 19H20C20.5523 19 21 19.4477 21 20C21 20.5523 20.5523 21 20 21H12Z" fill="black" fill-opacity="0.4"/>
<path fill-rule="evenodd" clip-rule="evenodd" d="M4.00015 10.4142L9.00015 5.41418L14.0002 10.4142L15.4144 8.99997L9.70726 3.29286C9.31673 2.90234 8.68357 2.90234 8.29304 3.29286L2.58594 8.99997L4.00015 10.4142Z" fill="black"/>
</svg>
