<svg width="24" height="24" viewBox="0 0 24 24" fill="none" xmlns="http://www.w3.org/2000/svg">
<path fill-rule="evenodd" clip-rule="evenodd" d="M21 12C21 9.79086 19.2091 8 17 8L6.41409 8C5.41016 9 5.41016 9 5.41016 9C5.41016 9 5.41016 9 6.41428 10H17C18.1046 10 19 10.8954 19 12V20C19 20.5523 19.4477 21 20 21C20.5523 21 21 20.5523 21 20V12Z" fill="black" fill-opacity="0.4"/>
<path fill-rule="evenodd" clip-rule="evenodd" d="M10.4141 3.99991L5.41406 8.99991L10.4141 13.9999L8.99985 15.4141L3.29274 9.70701C2.90222 9.31649 2.90222 8.68332 3.29274 8.2928L8.99985 2.58569L10.4141 3.99991Z" fill="black"/>
</svg>
