<svg width="24" height="24" viewBox="0 0 24 24" fill="none" xmlns="http://www.w3.org/2000/svg">
<path fill-rule="evenodd" clip-rule="evenodd" d="M3 12C3 9.79086 4.79086 8 7 8L17.5859 8C18.5898 9 18.5898 9 18.5898 9C18.5898 9 18.5898 9 17.5857 10H7C5.89543 10 5 10.8954 5 12L5 20C5 20.5523 4.55228 21 4 21C3.44772 21 3 20.5523 3 20L3 12Z" fill="black" fill-opacity="0.4"/>
<path fill-rule="evenodd" clip-rule="evenodd" d="M13.5859 3.99991L18.5859 8.99991L13.5859 13.9999L15.0002 15.4141L20.7073 9.70701C21.0978 9.31649 21.0978 8.68332 20.7073 8.2928L15.0002 2.58569L13.5859 3.99991Z" fill="black"/>
</svg>
