<svg width="24" height="24" viewBox="0 0 24 24" fill="none" xmlns="http://www.w3.org/2000/svg">
<path d="M14 3C13.448 3 13 3.448 13 4V6C13 6.552 13.448 7 14 7H20C20.552 7 21 6.552 21 6V4C21 3.448 20.552 3 20 3H14ZM14 9C13.448 9 13 9.448 13 10C13 10.552 13.448 11 14 11H18C18.552 11 19 10.552 19 10C19 9.448 18.552 9 18 9H14ZM14 13C13.448 13 13 13.448 13 14V16C13 16.552 13.448 17 14 17H20C20.552 17 21 16.552 21 16V14C21 13.448 20.552 13 20 13H14ZM14 19C13.448 19 13 19.448 13 20C13 20.552 13.448 21 14 21H18C18.552 21 19 20.552 19 20C19 19.448 18.552 19 18 19H14Z" fill="black" fill-opacity="0.4"/>
<path d="M5.46899 3C4.09899 3 3 4.09899 3 5.46899V8.53101C3 9.90101 4.09899 11 5.46899 11H8.53101C9.90101 11 11 9.90101 11 8.53101V5.46899C11 4.09899 9.90101 3 8.53101 3H5.46899ZM8.15601 5.65601C8.35201 5.46001 8.64799 5.46001 8.84399 5.65601C9.03999 5.85301 9.03999 6.14799 8.84399 6.34399L6.84399 8.34399C6.64799 8.53999 6.35201 8.53999 6.15601 8.34399L5.15601 7.34399C4.96001 7.14699 4.96001 6.85201 5.15601 6.65601C5.35201 6.46001 5.64799 6.46001 5.84399 6.65601L6.5 7.31201L8.15601 5.65601ZM5.46899 13C4.09899 13 3 14.099 3 15.469V18.531C3 19.901 4.09899 21 5.46899 21H8.53101C9.90101 21 11 19.901 11 18.531V15.469C11 14.099 9.90101 13 8.53101 13H5.46899ZM8.15601 15.656C8.35201 15.46 8.64799 15.46 8.84399 15.656C9.03999 15.853 9.03999 16.148 8.84399 16.344L6.84399 18.344C6.64799 18.54 6.35201 18.54 6.15601 18.344L5.15601 17.344C4.96001 17.147 4.96001 16.852 5.15601 16.656C5.35201 16.46 5.64799 16.46 5.84399 16.656L6.5 17.312L8.15601 15.656Z" fill="black"/>
</svg>
