<svg width="24" height="24" viewBox="0 0 24 24" fill="none" xmlns="http://www.w3.org/2000/svg">
<path d="M5 9C3.343 9 2 10.343 2 12V19C2 20.657 3.343 22 5 22H15C16.657 22 18 20.657 18 19V12C18 10.343 16.657 9 15 9C14 9 6 9 5 9ZM10 12C11.105 12 12 12.895 12 14C12 14.71 11.557 15.208 11 15.563V18C11 18.552 10.552 19 10 19C9.448 19 9 18.552 9 18V15.563C8.443 15.207 8 14.71 8 14C8 12.895 8.895 12 10 12Z" fill="black"/>
<path fill-rule="evenodd" clip-rule="evenodd" d="M17.5 4C16.1193 4 15 5.11929 15 6.5V9H13V6.5C13 4.01472 15.0147 2 17.5 2C19.9853 2 22 4.01472 22 6.5V8C22 8.55228 21.5523 9 21 9C20.4477 9 20 8.55228 20 8V6.5C20 5.11929 18.8807 4 17.5 4Z" fill="black" fill-opacity="0.4"/>
</svg>
