<svg width="24" height="24" viewBox="0 0 24 24" fill="none" xmlns="http://www.w3.org/2000/svg">
<path d="M12 8C8.134 8 5 11.134 5 15V16C5 16.552 5.4477 17 6 17C6.5523 17 7 16.552 7 16V15C7 12.239 9.2386 10 12 10C14.761 10 17 12.239 17 15V16C17 16.552 17.448 17 18 17C18.552 17 19 16.552 19 16V15C19 11.134 15.866 8 12 8Z" fill="black" fill-opacity="0.4"/>
<path d="M12 4C5.9249 4 1 8.90366 1 14.9523V15.948C1 16.4976 1.4477 16.9437 2 16.9437C2.5523 16.9437 3 16.4976 3 15.948V14.9523C3 10.0029 7.0294 5.99133 12 5.99133C16.971 5.99133 21 10.0029 21 14.9523V15.948C21 16.4976 21.448 16.9437 22 16.9437C22.552 16.9437 23 16.4976 23 15.948V14.9523C23 8.90366 18.075 4 12 4Z" fill="black"/>
<path d="M11.9956 12.0217C10.3386 12.0217 8.99564 13.3588 8.99564 15.0087V16.0043C8.99564 16.5539 9.44334 17 9.99564 17C10.5476 17 10.9956 16.5539 10.9956 16.0043V15.0087C10.9956 14.4591 11.4436 14.013 11.9956 14.013C12.5476 14.013 12.9956 14.4591 12.9956 15.0087V16.0043C12.9956 16.5539 13.4436 17 13.9956 17C14.5476 17 14.9956 16.5539 14.9956 16.0043V15.0087C14.9956 13.3588 13.6526 12.0217 11.9956 12.0217Z" fill="black"/>
</svg>
