<svg width="24" height="24" viewBox="0 0 24 24" fill="none" xmlns="http://www.w3.org/2000/svg">
<path d="M18.5 4C18.224 4 18 4.224 18 4.5V19.5C18 19.776 18.224 20 18.5 20H20.5C20.776 20 21 19.776 21 19.5V4.5C21 4.224 20.776 4 20.5 4H18.5ZM13.5 8C13.224 8 13 8.224 13 8.5V19.5C13 19.776 13.224 20 13.5 20H15.5C15.776 20 16 19.776 16 19.5V8.5C16 8.224 15.776 8 15.5 8H13.5ZM8.5 12C8.2239 12 8 12.224 8 12.5V19.5C8 19.776 8.2239 20 8.5 20H10.5C10.776 20 11 19.776 11 19.5V12.5C11 12.224 10.776 12 10.5 12H8.5ZM3.5 16C3.2239 16 3 16.224 3 16.5V19.5C3 19.776 3.2239 20 3.5 20H5.5C5.7761 20 6 19.776 6 19.5V16.5C6 16.224 5.7761 16 5.5 16H3.5Z" fill="black"/>
</svg>
