<svg width="24" height="24" viewBox="0 0 24 24" fill="none" xmlns="http://www.w3.org/2000/svg">
<path fill-rule="evenodd" clip-rule="evenodd" d="M8 8.00011C8 7.4486 8.448 7 9 7H12C12.552 7 13 7.4486 13 8.00011C13 8.55261 12.552 9.00018 12 9.00018H9C8.448 9.00018 8 8.55261 8 8.00011ZM14 8.00011C14 7.4486 14.448 7 15 7C15.552 7 16 7.4486 16 8.00011C16 8.55261 15.552 9.00018 15 9.00018C14.448 9.00018 14 8.55261 14 8.00011ZM8 12.0005C8 11.448 8.448 11.0004 9 11.0004H12C12.552 11.0004 13 11.448 13 12.0005C13 12.552 12.552 12.9996 12 12.9996H9C8.448 12.9996 8 12.552 8 12.0005ZM14 12.0005C14 11.448 14.448 11.0004 15 11.0004C15.552 11.0004 16 11.448 16 12.0005C16 12.552 15.552 12.9996 15 12.9996C14.448 12.9996 14 12.552 14 12.0005ZM8 15.9999C8 15.4474 8.448 14.9998 9 14.9998H12C12.552 14.9998 13 15.4474 13 15.9999C13 16.5524 12.552 17 12 17H9C8.448 17 8 16.5524 8 15.9999ZM14 15.9999C14 15.4474 14.448 14.9998 15 14.9998C15.552 14.9998 16 15.4474 16 15.9999C16 16.5524 15.552 17 15 17C14.448 17 14 16.5524 14 15.9999ZM4 19C3.44772 19 3 19.4477 3 20C3 20.5523 3.44772 21 4 21H20C20.5523 21 21 20.5523 21 20C21 19.4477 20.5523 19 20 19H4Z" fill="black"/>
<path fill-rule="evenodd" clip-rule="evenodd" d="M4.47427 2.14935C4.76909 1.96714 5.13723 1.95058 5.44721 2.10557L7 2.88197L8.55279 2.10557C8.83431 1.96481 9.16569 1.96481 9.44721 2.10557L11 2.88197L12.5528 2.10557C12.8343 1.96481 13.1657 1.96481 13.4472 2.10557L15 2.88197L16.5528 2.10557C16.8343 1.96481 17.1657 1.96481 17.4472 2.10557L19.4472 3.10557C19.786 3.27497 20 3.62123 20 4V19H18V4.61803L17 4.11803L15.4472 4.89443C15.1657 5.03519 14.8343 5.03519 14.5528 4.89443L13 4.11803L11.4472 4.89443C11.1657 5.03519 10.8343 5.03519 10.5528 4.89443L9 4.11804L7.44721 4.89443C7.16569 5.03519 6.83431 5.03519 6.55279 4.89443L6 4.61804V19H4V3C4 2.65342 4.17945 2.33156 4.47427 2.14935Z" fill="black" fill-opacity="0.4"/>
</svg>
