<svg width="24" height="24" viewBox="0 0 24 24" fill="none" xmlns="http://www.w3.org/2000/svg">
<path fill-rule="evenodd" clip-rule="evenodd" d="M9.77954 4.44631C11.0774 3.38852 13 4.32991 13 6.0232V10H11V6L4.16817 11.6058C3.9202 11.8079 3.9202 12.1921 4.16817 12.3942L11 18.0026V14H13V17.9768C13 19.6701 11.0774 20.6115 9.77954 19.5537L2.92991 13.9711C1.69003 12.9606 1.69003 11.0394 2.92991 10.0289L9.77954 4.44631Z" fill="black"/>
<path fill-rule="evenodd" clip-rule="evenodd" d="M13 8H15C18.866 8 22 11.134 22 15V18C22 18.421 21.7363 18.7969 21.3404 18.9403C20.9449 19.0835 20.5021 18.9638 20.2325 18.641L20.2318 18.6402L20.2296 18.6376L20.2135 18.6188C20.1983 18.6011 20.1742 18.5734 20.1418 18.5371C20.0768 18.4644 19.9791 18.3577 19.8533 18.2283C19.6006 17.9684 19.241 17.6234 18.8128 17.2809C17.9123 16.5604 16.892 16 16 16H13V14H16C17.5741 14 19.0254 14.9004 20 15.6697V15C20 12.2386 17.7614 10 15 10H13V8Z" fill="black" fill-opacity="0.4"/>
</svg>
