<svg width="24" height="24" viewBox="0 0 24 24" fill="none" xmlns="http://www.w3.org/2000/svg">
<path d="M12 8.01243C12.3827 8.01243 14.6392 7.98446 15 8.01243C20.9434 8.46891 22 13.0068 22 18.0011V19C20.1332 17.0872 19 16.0034 15 16.0034C14.2544 16.0034 12.9054 16.0034 12 16.0034V8.01243Z" fill="black" fill-opacity="0.4" stroke="black" stroke-width="0.002" stroke-linecap="round" stroke-linejoin="round"/>
<path d="M12 18.5738C12 19.9938 11.1206 20.4258 10.036 19.5388L2.83345 13.6458C1.72218 12.7368 1.72218 11.2628 2.83345 10.3538L10.036 4.46082C11.1206 3.57382 12 4.00582 12 5.42582C12 6 12 17.9085 12 18.5738Z" fill="black" stroke="black" stroke-width="0.002" stroke-linecap="round" stroke-linejoin="round"/>
</svg>
