<svg width="24" height="24" viewBox="0 0 24 24" fill="none" xmlns="http://www.w3.org/2000/svg">
<path d="M11.999 2C6.47622 2 1.99902 6.44801 1.99902 12C1.99902 17.552 6.47622 22.0001 11.999 22.0001C16.7933 22.0001 21.9885 18.193 21.999 11.938V10H11.999V14H17.5928C16.7645 16.322 14.6054 18 11.999 18C8.68533 18 5.99902 15.314 5.99902 12C5.99902 8.68602 8.68533 6.00001 11.999 6.00001C13.4043 6.00001 14.7079 6.47103 15.7145 7.29103C16.0421 6.96403 17.999 5.00003 18.6328 4.49403C16.8693 2.91402 14.5634 2 11.999 2Z" fill="black"/>
</svg>
