<svg width="24" height="24" viewBox="0 0 24 24" fill="none" xmlns="http://www.w3.org/2000/svg">
<path d="M8 1.9989C5.7909 1.9989 4 3.7899 4 5.99891V17.9989C4 20.2079 5.7909 21.9989 8 21.9989H16C18.209 21.9989 20 20.2079 20 17.9989V5.99891C20 3.7899 18.209 1.9989 16 1.9989H8ZM8 3.9989H16C17.105 3.9989 18 4.89391 18 5.99891V17.9989C18 19.1039 17.105 19.9989 16 19.9989H8C6.8954 19.9989 6 19.1039 6 17.9989V5.99891C6 4.89391 6.8954 3.9989 8 3.9989Z" fill="black" fill-opacity="0.4"/>
<path d="M16 13L12 17L8 13H11V8C11 7.44772 11.4477 7 12 7C12.5523 7 13 7.44772 13 8V13H16Z" fill="black"/>
</svg>
