<svg width="24" height="24" viewBox="0 0 24 24" fill="none" xmlns="http://www.w3.org/2000/svg">
<path d="M14.4024 2.50209C13.4754 2.52809 12.6125 2.86619 11.9857 3.51779C11.5023 3.02439 10.9043 2.6694 10.2149 2.5334C9.68861 2.4295 9.13111 2.45509 8.55861 2.62709C6.93611 3.11469 5.98221 4.51369 6.00011 5.99709C5.79991 5.98759 5.63851 6.00969 5.44101 6.03559C4.40241 6.17179 3.47461 6.79239 2.90991 7.84239C2.09831 9.35119 2.52221 11.0159 3.51091 12.0009C2.64581 12.8019 2.21961 14.1099 2.62841 15.4699C3.11601 17.0929 4.63581 18.0269 5.98671 17.9889C5.94781 19.2339 6.59321 20.4039 7.83921 21.0739C9.33291 21.8769 11.0252 21.4209 11.9887 20.4699C12.8376 21.3769 14.1135 21.7519 15.4649 21.3459C17.0874 20.8579 17.9894 19.3819 17.9723 17.9839C18.1326 17.9909 18.2093 17.9859 18.3711 17.9709C19.5007 17.8629 20.5447 17.1769 21.0518 16.1929C21.8285 14.6849 21.5421 13.0269 20.4713 11.9919C21.2895 11.1909 21.7433 9.88469 21.3368 8.53209C20.8527 6.92099 19.4381 5.99589 17.9706 6.00209C17.9778 4.70449 17.3275 3.56389 16.1527 2.93199C15.5643 2.61549 15.0006 2.48529 14.4024 2.50209ZM9.12111 4.5334C10.0895 4.2424 11.0058 4.97759 11.0072 5.98729C11.0099 6.26339 11.2351 6.99409 11.9959 7.00149C12.4348 7.00579 12.9888 6.6563 12.9845 5.9532C12.9775 4.7917 14.2079 4.13119 15.2461 4.68959C15.7503 4.96079 16.0034 5.4292 15.9961 5.9709C15.9911 6.3437 15.8605 6.6574 15.5274 7.0334C15.1034 7.5118 15.1538 8.07039 15.5619 8.48629C15.9701 8.90229 16.6808 8.72579 16.9649 8.43959C17.798 7.60029 19.1069 8.01359 19.4462 9.14259C19.7324 10.0949 19.1121 10.9949 18.01 10.9989C17.6668 11.0009 16.9814 11.2419 16.9961 12.0019C17.0108 12.7619 17.6955 13.0139 18.0014 13.0109C19.2107 12.9979 19.8589 14.1979 19.3086 15.2209C19.0656 15.6729 18.6581 15.9259 18.1836 15.9709C17.7542 16.0119 17.4319 15.9839 16.9802 15.5709C16.6705 15.2879 16.0171 15.0299 15.5356 15.5199C15.054 16.0099 15.216 16.6069 15.5586 16.9709C16.34 17.8019 16.0199 19.1039 14.9024 19.4399C13.9531 19.7249 13.0143 19.1339 12.9888 18.0179C12.9806 17.6629 12.7586 16.9989 12.0101 16.9999C11.2615 16.9999 10.986 17.5569 10.9961 18.0329C11.02 19.1599 9.80171 19.8639 8.77851 19.3129C7.90841 18.8449 7.71411 17.7629 8.43361 16.9709C8.73181 16.6429 8.98361 16.0749 8.48681 15.5259C7.99011 14.9769 7.33371 15.1909 6.97771 15.5779C6.14431 16.3289 4.87331 16.0009 4.54091 14.8939C4.25041 13.9279 4.95551 13.0109 5.96341 13.0069C6.51571 13.0019 6.97931 12.6439 6.98781 11.9869C6.99641 11.3289 6.28211 10.9959 6.00601 10.9959C4.74841 10.9959 4.13931 9.78559 4.69771 8.74749C5.16321 7.88199 6.29841 7.7703 7.02741 8.4084C7.40501 8.7389 7.94651 8.9692 8.47941 8.4149C9.01241 7.8607 8.59891 7.2338 8.41501 7.0278C7.62651 6.1443 7.99221 4.8726 9.12111 4.5334Z" fill="black"/>
<path fill-rule="evenodd" clip-rule="evenodd" d="M12 11C11.4477 11 11 11.4477 11 12C11 12.5523 11.4477 13 12 13C12.5523 13 13 12.5523 13 12C13 11.4477 12.5523 11 12 11ZM9 12C9 10.3431 10.3431 9 12 9C13.6569 9 15 10.3431 15 12C15 13.6569 13.6569 15 12 15C10.3431 15 9 13.6569 9 12Z" fill="black" fill-opacity="0.4"/>
</svg>
