<svg width="24" height="24" viewBox="0 0 24 24" fill="none" xmlns="http://www.w3.org/2000/svg">
<path fill-rule="evenodd" clip-rule="evenodd" d="M3 7H21V17C21 19.2091 19.2091 21 17 21H7C4.79086 21 3 19.2091 3 17V7ZM5 9V17C5 18.1046 5.89543 19 7 19H17C18.1046 19 19 18.1046 19 17V9H5Z" fill="black"/>
<path fill-rule="evenodd" clip-rule="evenodd" d="M5 6C5 5.44772 5.44772 5 6 5H10.114C10.52 5 10.938 5.25929 11.1567 5.70772C11.3494 6.1027 11.5908 6.55923 11.8694 7H14.5158C14.5019 6.99541 14.4602 6.9788 14.3877 6.92656C14.2621 6.83611 14.1051 6.68184 13.9262 6.45495C13.5686 6.00122 13.2282 5.39246 12.9543 4.83086C12.442 3.78071 11.3753 3 10.114 3H6C4.34315 3 3 4.34315 3 6V7H5V6Z" fill="black" fill-opacity="0.4"/>
</svg>
