<svg width="24" height="24" viewBox="0 0 24 24" fill="none" xmlns="http://www.w3.org/2000/svg">
<path d="M3 16.8125C3 19.1067 4.778 21 7 21H15V9H3L3 16.8125Z" fill="black" fill-opacity="0.4"/>
<path fill-rule="evenodd" clip-rule="evenodd" d="M3 7H21C21 4.7058 19.222 3 17 3H7C4.778 3 3 4.7058 3 7ZM17 21C19.222 21 21 19.1067 21 16.8125V9H17V21ZM12 17C12 17.5523 11.5523 18 11 18H7C6.44772 18 6 17.5523 6 17C6 16.4477 6.44772 16 7 16H11C11.5523 16 12 16.4477 12 17ZM12 13C12 13.5523 11.5523 14 11 14H7C6.44772 14 6 13.5523 6 13C6 12.4477 6.44772 12 7 12H11C11.5523 12 12 12.4477 12 13Z" fill="black"/>
</svg>
