<svg width="24" height="24" viewBox="0 0 24 24" fill="none" xmlns="http://www.w3.org/2000/svg">
<path d="M6.18811 4C3.89411 4 2.0011 5.778 2.0011 8V16C2.0011 18.222 3.89411 20 6.18811 20H17.8131C20.1081 20 22.0011 18.222 22.0011 16V8C22.0011 5.778 20.1081 4 17.8131 4H6.18811ZM6.18811 6H17.8131C19.0281 6 20.0011 6.909 20.0011 8V16C20.0011 17.091 19.0281 18 17.8131 18H6.18811C4.97411 18 4.0011 17.091 4.0011 16V8C4.0011 6.909 4.97411 6 6.18811 6Z" fill="black" fill-opacity="0.4"/>
<path d="M18 9C18 8.44772 17.5523 8 17 8H15C14.4477 8 14 8.44772 14 9V15C14 15.5523 14.4477 16 15 16H17C17.5523 16 18 15.5523 18 15V9Z" fill="black"/>
</svg>
