<svg width="24" height="24" viewBox="0 0 24 24" fill="none" xmlns="http://www.w3.org/2000/svg">
<path fill-rule="evenodd" clip-rule="evenodd" d="M13 3C12.9972 3.17853 12.9466 3.35854 12.8437 3.52022L11 6.4174V9.98334C11 10.5356 11.4477 10.9833 12 10.9833H17.1783L13 17.5493V20.9833C13 21.1749 12.9461 21.3539 12.8527 21.506L19.8437 10.5202C20.0396 10.2123 20.0522 9.82208 19.8766 9.50213C19.701 9.18219 19.365 8.98334 19 8.98334H13V3Z" fill="black" fill-opacity="0.4"/>
<path fill-rule="evenodd" clip-rule="evenodd" d="M12.5369 2.15634C13.0028 2.45285 13.1402 3.07094 12.8437 3.53688L6.82167 13H12C12.5523 13 13 13.4477 13 14V21C13 21.5523 12.5523 22 12 22C11.4477 22 11 21.5523 11 21V15H5C4.63502 15 4.29903 14.8012 4.12339 14.4812C3.94776 14.1613 3.96039 13.771 4.15634 13.4631L11.1563 2.46313C11.4528 1.99719 12.0709 1.85983 12.5369 2.15634Z" fill="black"/>
</svg>
