<svg width="24" height="24" viewBox="0 0 24 24" fill="none" xmlns="http://www.w3.org/2000/svg">
<path d="M20 11C19.448 11 19 11.448 19 12C19 12.552 19.448 13 20 13C20.552 13 21 12.552 21 12C21 11.448 20.552 11 20 11ZM17 11.25C16.236 11.993 11.219 17 11.219 17H15C15 16 15.528 14.626 16 14C16.587 13.222 16.952 12.287 17 11.25ZM9 19C9 20.657 10.343 22 12 22C13.657 22 15 20.657 15 19H9Z" fill="black" fill-opacity="0.4"/>
<path d="M11.9935 2C11.4419 2 10.9943 2.4477 10.9943 2.99932C10.9943 3.55095 11.4419 3.99865 11.9935 3.99865C12.5451 3.99865 12.9928 3.55095 12.9928 2.99932C12.9928 2.4477 12.5451 2 11.9935 2ZM5.99785 4.99797C5.44624 4.99797 4.99856 5.44567 4.99856 5.9973C4.99856 6.54892 5.44624 6.99662 5.99785 6.99662C6.54945 6.99662 6.99713 6.54892 6.99713 5.9973C6.99713 5.44567 6.54945 4.99797 5.99785 4.99797ZM17.9892 4.99797C17.7334 4.99797 17.4666 5.08392 17.2708 5.27879L15.3012 7.27744C14.4208 6.50396 13.2576 5.9973 11.9935 5.9973C9.23452 5.9973 6.99713 8.23479 6.99713 10.9939C6.99713 12.1102 7.37786 13.1285 7.99641 13.9609C8.10134 14.1018 8.13031 14.2047 8.21525 14.3357L5.27937 17.2707C4.88965 17.6614 4.88965 18.317 5.27937 18.7077C5.67009 19.0974 6.32561 19.0974 6.71632 18.7077L18.7077 6.71581C19.0974 6.32507 19.0974 5.66952 18.7077 5.27879C18.5119 5.08392 18.245 4.99797 17.9892 4.99797ZM3.99928 10.9939C3.44768 10.9939 3 11.4416 3 11.9932C3 12.5449 3.44768 12.9926 3.99928 12.9926C4.55089 12.9926 4.99856 12.5449 4.99856 11.9932C4.99856 11.4416 4.55089 10.9939 3.99928 10.9939Z" fill="black"/>
</svg>
