<svg width="24" height="24" viewBox="0 0 24 24" fill="none" xmlns="http://www.w3.org/2000/svg">
<path d="M8 18C8 20.209 9.791 22 12 22C14.209 22 16 20.209 16 18H8Z" fill="black" fill-opacity="0.4"/>
<path d="M11.9973 2C8.13131 2 4.99731 5.134 4.99731 9C4.99731 10.238 5.3313 11.417 5.9353 12.469C5.9463 12.489 7.82931 15.448 7.99731 16H15.9973C16.1623 15.451 18.0393 12.513 18.0283 12.531C18.6513 11.468 18.9973 10.258 18.9973 9C18.9973 5.134 15.8633 2 11.9973 2ZM11.9973 6C12.5493 6 12.9973 6.448 12.9973 7C12.9973 7.552 12.5493 8 11.9973 8C11.4453 8 10.9973 8.448 10.9973 9C10.9973 9.552 10.5493 10 9.99731 10C9.44531 10 8.99731 9.552 8.99731 9C8.99731 7.343 10.3403 6 11.9973 6Z" fill="black"/>
</svg>
