<svg width="24" height="24" viewBox="0 0 24 24" fill="none" xmlns="http://www.w3.org/2000/svg">
<path d="M14 7C12.579 7 11.422 7.40201 10.562 8.15601C9.508 9.08101 9 10.451 9 12C9 12.129 9 12.296 9 13C9 13.552 9.448 14 10 14C10.552 14 11 13.552 11 13C11 12.296 11 12.129 11 12C11 10.983 11.301 10.16 11.875 9.65601C12.35 9.23901 13.043 9 14 9H17C19.07 9 20 10.116 20 12C20 13.884 19.07 15 17 15H16C15.448 15 15 15.448 15 16C15 16.552 15.448 17 16 17H17C20.263 17 22 14.916 22 12C22 9.084 20.263 7 17 7H14Z" fill="black" fill-opacity="0.4"/>
<path d="M7 7C4.084 7 2 8.737 2 12C2 15.263 4.084 17 7 17H10C12.916 17 15 15.263 15 12C15 11.904 15 11.124 15 11C15 9.667 13 9.667 13 11C13 11.132 13 12.063 13 12.063C12.975 14.083 11.863 15 10 15H7C5.116 15 4 14.07 4 12C4 9.93 5.116 9 7 9H8C8.552 9 9 8.552 9 8C9 7.448 8.552 7 8 7H7Z" fill="black"/>
</svg>
