<svg width="24" height="24" viewBox="0 0 24 24" fill="none" xmlns="http://www.w3.org/2000/svg">
<path d="M8 6C7.4477 6 7 6.448 7 7C7 7.552 7.4477 8 8 8H21C21.5523 8 22 7.552 22 7C22 6.448 21.5523 6 21 6H8ZM8 11C7.4477 11 7 11.448 7 12C7 12.552 7.4477 13 8 13H21C21.5523 13 22 12.552 22 12C22 11.448 21.5523 11 21 11H8ZM8 16C7.4477 16 7 16.448 7 17C7 17.552 7.4477 18 8 18H21C21.5523 18 22 17.552 22 17C22 16.448 21.5523 16 21 16H8Z" fill="black" fill-opacity="0.4"/>
<path d="M4.21881 5.08801L3.09381 6.21349C2.98241 6.32454 2.98241 6.53964 3.09381 6.65069C3.20511 6.76274 3.38871 6.76274 3.50001 6.65069L4.15631 5.9944V8.71457C4.15631 8.87163 4.28011 8.99569 4.43751 8.99569C4.59491 8.99569 4.71881 8.87163 4.71881 8.71457V5.2751C4.71881 5.02099 4.39831 4.90793 4.21881 5.08801ZM4.12501 9.99612C3.49531 9.99612 3.00001 10.5174 3.00001 11.1526C3.00001 11.3117 3.12381 11.4337 3.28131 11.4347C3.43871 11.4347 3.56251 11.3117 3.56251 11.1526C3.56251 10.8355 3.81021 10.5584 4.12501 10.5584C4.44091 10.5584 4.72131 10.8385 4.71881 11.1526C4.71611 11.4828 4.55751 11.6208 4.12501 11.903C4.04831 11.953 4.08041 11.944 4.00001 11.997C3.32461 12.4422 2.99831 12.8623 3.00001 13.6857C3.00031 13.8448 3.12361 13.9988 3.28131 13.9978H5.00001C5.15741 13.9968 5.28191 13.8758 5.28131 13.7167C5.28061 13.5577 5.15741 13.4346 5.00001 13.4356L3.75001 13.4036C3.82731 13.0564 3.88101 12.7923 4.28131 12.5282C4.35771 12.4782 4.39011 12.4542 4.46881 12.4032C5.04661 12.026 5.27661 11.7279 5.28131 11.1526C5.28641 10.5174 4.75621 9.99612 4.12501 9.99612ZM4.15631 14.9983C3.66431 14.9983 3.21971 15.3214 3.06251 15.7796C3.02181 15.8987 3.00001 16.0277 3.00001 16.1548C3.00001 16.3128 3.12351 16.4359 3.28131 16.4369C3.43901 16.4369 3.56251 16.3128 3.56251 16.1548C3.56251 16.0908 3.57351 16.0267 3.59381 15.9677C3.67231 15.7386 3.91021 15.5605 4.15631 15.5605C4.47181 15.5605 4.71881 15.8396 4.71881 16.1548C4.71881 16.4709 4.47181 16.718 4.15631 16.718C3.99851 16.718 3.84381 16.8411 3.84381 16.9991C3.84381 17.1572 3.99841 17.2803 4.15631 17.2803C4.47181 17.2803 4.71881 17.5274 4.71881 17.8435C4.71881 18.1586 4.47181 18.4377 4.15631 18.4377C3.84071 18.4377 3.56251 18.1586 3.56251 17.8435C3.56251 17.6854 3.43911 17.5624 3.28131 17.5614C3.12351 17.5614 3.00001 17.6854 3.00001 17.8435C3.00001 18.4748 3.52501 19 4.15631 19C4.78741 19 5.28131 18.4748 5.28131 17.8435C5.28131 17.4873 5.09891 17.2092 4.84381 16.9991C5.09891 16.789 5.28131 16.5109 5.28131 16.1548C5.28131 15.5235 4.78741 14.9983 4.15631 14.9983Z" fill="black"/>
</svg>
