<svg width="24" height="24" viewBox="0 0 24 24" fill="none" xmlns="http://www.w3.org/2000/svg">
<path d="M9 6C8.4477 6 8 6.448 8 7C8 7.552 8.4477 8 9 8H21C21.552 8 22 7.552 22 7C22 6.448 21.552 6 21 6H9ZM9 11C8.4477 11 8 11.448 8 12C8 12.552 8.4477 13 9 13H21C21.552 13 22 12.552 22 12C22 11.448 21.552 11 21 11H9ZM9 16C8.4477 16 8 16.448 8 17C8 17.552 8.4477 18 9 18H21C21.552 18 22 17.552 22 17C22 16.448 21.552 16 21 16H9Z" fill="black" fill-opacity="0.4"/>
<path d="M2.5 5C2.2239 5 2 5.224 2 5.5C2 5.875 2 8.125 2 8.5C2 8.776 2.2239 9 2.5 9H5.5C5.7761 9 6 8.776 6 8.5V5.5C6 5.224 5.7761 5 5.5 5H2.5ZM3 6H5V8H3C3 7.403 3 6.597 3 6ZM2.5 10C2.2239 10 2 10.224 2 10.5C2 10.875 2 13.125 2 13.5C2 13.776 2.2239 14 2.5 14H5.5C5.7761 14 6 13.776 6 13.5V10.5C6 10.224 5.7761 10 5.5 10H2.5ZM3 11H5V13H3C3 12.403 3 11.597 3 11ZM2.5 15C2.2239 15 2 15.224 2 15.5C2 15.875 2 18.125 2 18.5C2 18.776 2.2239 19 2.5 19H5.5C5.7761 19 6 18.776 6 18.5V15.5C6 15.224 5.7761 15 5.5 15H2.5ZM3 16H5V18H3C3 17.403 3 16.597 3 16Z" fill="black"/>
</svg>
