<svg width="24" height="24" viewBox="0 0 24 24" fill="none" xmlns="http://www.w3.org/2000/svg">
<path d="M9 5.99902C8.4477 5.99902 8 6.44702 8 6.99902C8 7.55102 8.4477 7.99902 9 7.99902H21C21.5523 7.99902 22 7.55102 22 6.99902C22 6.44702 21.5523 5.99902 21 5.99902H9ZM9 10.999C8.4477 10.999 8 11.447 8 11.999C8 12.551 8.4477 12.999 9 12.999H21C21.5523 12.999 22 12.551 22 11.999C22 11.447 21.5523 10.999 21 10.999H9ZM9 15.999C8.4477 15.999 8 16.447 8 16.999C8 17.551 8.4477 17.999 9 17.999H21C21.5523 17.999 22 17.551 22 16.999C22 16.447 21.5523 15.999 21 15.999H9Z" fill="black" fill-opacity="0.4"/>
<path d="M4.00095 5C3.88973 5 3.77464 5.11789 3.68981 5.37465L3.37866 6.31078H2.44524C1.93198 6.31478 1.85262 6.58752 2.25855 6.90422L3.03646 7.49766L2.75638 8.49672C2.61291 9.00824 2.83593 9.16409 3.25421 8.84039L4.00095 8.24696L4.74769 8.84039C5.16835 9.16409 5.41269 8.98126 5.27668 8.46574L4.9966 7.4357L5.74335 6.87324C6.14788 6.56154 6.06574 6.31378 5.55666 6.31078H4.62323L4.31209 5.37465C4.22726 5.11789 4.11216 5 4.00095 5ZM4.00095 9.99532C3.88973 9.99532 3.77464 10.1132 3.68981 10.37L3.37866 11.3061H2.44524C1.93198 11.3101 1.85262 11.5828 2.25855 11.8995L3.03646 12.493L2.75638 13.492C2.61291 14.0036 2.83593 14.1594 3.25421 13.8357L4.00095 13.2423L4.74769 13.8357C5.16835 14.1594 5.41269 13.9766 5.27668 13.4611L4.9966 12.431L5.74335 11.8686C6.14788 11.5569 6.06574 11.3091 5.55666 11.3061H4.62323L4.31209 10.37C4.22726 10.1132 4.11216 9.99532 4.00095 9.99532ZM4.00095 14.9906C3.88973 14.9906 3.77464 15.1085 3.68981 15.3653L3.37866 16.3014H2.44524C1.93198 16.3054 1.85262 16.5781 2.25855 16.8949L3.03646 17.4883L2.75638 18.4874C2.61291 18.9989 2.83593 19.1547 3.25421 18.831L4.00095 18.2376L4.74769 18.831C5.16835 19.1547 5.41269 18.9719 5.27668 18.4564L4.9966 17.4263L5.74335 16.8639C6.14788 16.5522 6.06574 16.3044 5.55666 16.3014H4.62323L4.31209 15.3653C4.22726 15.1085 4.11216 14.9906 4.00095 14.9906Z" fill="black"/>
</svg>
