<svg width="24" height="24" viewBox="0 0 24 24" fill="none" xmlns="http://www.w3.org/2000/svg">
<path d="M19.1631 4.02128C18.7411 3.96028 18.3441 4.03928 18.0381 4.14628C17.6861 4.26828 17.3111 4.63729 17.1321 4.83329C17.2821 5.24629 18.0391 6.11728 18.4451 6.52128C18.9381 7.01328 19.6541 7.61229 20.0381 7.95829C20.2561 7.74129 20.6641 7.41129 20.8511 6.95829C21.1411 6.25529 21.0141 5.30329 20.4761 4.73929C20.0511 4.29429 19.5851 4.08228 19.1631 4.02128ZM10.5071 12.3023C9.9411 12.3023 9.3651 12.5083 8.9761 12.8963L3.63211 18.3333C2.80111 19.1623 2.78811 20.4613 3.60111 21.2713L3.63211 21.3023C4.45411 22.1223 5.81011 22.1223 6.63211 21.3023L12.0381 15.9273C12.8601 15.1083 12.8601 13.7773 12.0381 12.9583L12.0071 12.9273C11.6061 12.5273 11.0631 12.3023 10.5071 12.3023Z" fill="black" fill-opacity="0.4"/>
<path d="M13.1539 1.99148C12.8619 1.95548 12.5409 2.04249 12.3099 2.27249L6.27888 8.27249C5.79488 8.75549 5.94787 9.59249 6.55987 9.89749L8.71686 10.9915C9.33786 10.4615 10.4979 10.3665 10.4979 10.3665C11.5889 10.3665 12.6289 10.8125 13.4039 11.5855L13.4359 11.6165C14.7439 12.9205 14.9169 15.0095 14.0919 16.5535C17.1399 17.4305 20.0289 15.3485 20.0289 11.9915C20.0289 11.7595 20.0618 11.0605 19.5598 10.3975C18.9138 9.54249 17.5069 8.60948 16.4979 7.46048C14.7979 5.52348 14.0579 2.79948 13.8729 2.49148C13.7049 2.21248 13.4469 2.02748 13.1539 1.99148Z" fill="black"/>
</svg>
