<svg width="24" height="24" viewBox="0 0 24 24" fill="none" xmlns="http://www.w3.org/2000/svg">
<path d="M18.8492 4.00146C18.2952 4.00246 17.7461 4.22747 17.3471 4.62747L17.0652 4.90845C18.3092 6.64145 18.3562 6.59647 19.5702 8.44147L20.3842 7.65945C21.2052 6.83945 21.2052 5.47945 20.3842 4.65845L20.3521 4.62747C19.9531 4.22847 19.4042 4.00146 18.8492 4.00146ZM10.4582 12.3495C9.90418 12.3495 9.35516 12.5755 8.95516 12.9745L3.63217 18.3524C2.80717 19.1754 2.78219 20.5355 3.60119 21.3535C3.60519 21.3575 3.62817 21.3805 3.63217 21.3845C4.45416 22.2055 5.84718 22.2065 6.66918 21.3845L11.9922 16.0074C12.8142 15.1864 12.8142 13.8265 11.9922 13.0065L11.9612 12.9745C11.5612 12.5755 11.0132 12.3495 10.4582 12.3495Z" fill="black" fill-opacity="0.4"/>
<path d="M11.9579 2.00045C11.4178 2.01645 11.2015 2.37546 10.5538 3.00146C9.28317 4.23046 6.85755 6.68646 5.53015 8.06646C5.00198 8.61546 5.002 8.58846 5 9.16046C4.99901 9.38546 5.1684 9.64044 5.62382 9.97344C6.17093 10.3724 6.89642 10.8525 7.6518 11.4115C9.09381 10.0535 11.7377 9.95446 13.3311 11.5365C14.6336 12.8295 14.9097 14.9984 13.955 16.6324C14.4014 17.0724 15.112 17.8844 15.8903 18.7584C17.8266 17.7714 18.8161 15.7705 18.9786 13.8815C19.0882 12.6115 18.7853 11.1224 17.8864 9.62945C17.0642 8.26345 14.6008 5.09246 13.1747 3.00146C12.6954 2.29746 12.4562 1.98645 11.9579 2.00045Z" fill="black"/>
</svg>
