<svg width="24" height="24" viewBox="0 0 24 24" fill="none" xmlns="http://www.w3.org/2000/svg">
<path d="M5 19H19V20C19 21.1046 18.1046 22 17 22H7C5.89543 22 5 21.1046 5 20V19Z" fill="black" fill-opacity="0.4"/>
<path d="M13.9809 2.00055C12.5403 1.97252 12.0201 3.02541 12.0201 4.02424C12.0201 5.02407 12.0201 9.0224 12.0201 9.0224C12.0201 9.0224 12.0061 10.0062 11.0036 10.0062C10.9996 9.01639 11.0146 8.96937 11.0186 8.02358C11.0216 7.15886 10.5084 6.0309 9.01477 6.02389C7.52113 6.01689 7.00891 7.29597 7.00991 8.02358C7.01391 9.88213 7.00191 11.0071 7.00191 11.0071C7.00191 11.0071 6.00148 11.0061 6.00148 10.0062C6.00148 9.58687 6.01349 9.77803 6.00849 9.0234C6.00148 7.98053 5.3232 8.0646 5.01507 8.14266C3.28933 8.57603 3.00019 10.1494 3.00019 12.0229V13.0227C2.97725 15.8987 5.00236 19 5.00236 19C8.49243 19 18.0079 19 19.0083 19C20.0087 17.4987 20.9869 16.0997 20.9999 13.9965C21.0152 11.524 19.0083 9.9925 17.0075 10.9933V13.0086C17.0075 13.556 16.5679 14.0019 16.0207 14.0094L16.0058 14.0096L16.0288 4.02424C16.0288 3.02541 15.4225 2.02757 13.9809 2.00055Z" fill="black"/>
</svg>
