<svg width="24" height="24" viewBox="0 0 24 24" fill="none" xmlns="http://www.w3.org/2000/svg">
<path d="M12 1.99997C13.9891 1.99997 14.9933 2.99997 15 4.99997C15.0067 6.99997 13.9891 9.02232 13.9891 9.02232L17.6151 9.02431C18.6141 9.02431 19.9791 9.92432 19.9981 11.2323C20.0131 12.2803 19.5101 12.9493 19.0241 13.4863C19.8591 14.2293 19.9981 15.0023 19.9981 15.8063C19.9981 16.6233 19.5581 17.4663 18.9621 18.0263C18.9921 19.8423 18.0601 21.0343 16.4281 21.5783C15.3481 21.9393 14.5 22 13 22C11.0768 22 7.00005 21 7.00005 21C7.00013 20 6.9999 10.9215 7.00005 7.99997C11 6.49997 10.991 3.69197 11 2.99997C11.006 2.48697 11.31 1.96097 12 1.99997Z" fill="black"/>
<path d="M7 21V7.99997H6C4.89543 7.99997 4 8.8954 4 9.99997V19C4 20.1045 4.89543 21 6 21H7Z" fill="black" fill-opacity="0.4"/>
</svg>
