<svg width="24" height="24" viewBox="0 0 24 24" fill="none" xmlns="http://www.w3.org/2000/svg">
<path d="M4 21C4 20.4477 4.44772 20 5 20H17C17.5523 20 18 20.4477 18 21C18 21.5523 17.5523 22 17 22H5C4.44772 22 4 21.5523 4 21Z" fill="black" fill-opacity="0.4"/>
<path d="M14.0049 3.15219C13.4671 3.04719 13.0116 3.28119 13.0035 4.01419C12.9953 4.74719 13.0035 9.01419 13.0035 9.01419C13.0035 9.01419 13.0035 10.0142 12.0029 10.0142C11.9988 9.02419 11.9994 4.96019 12.0029 4.01419C12.0062 3.14919 11.4934 2.02119 10.0019 2.01419C8.51049 2.00719 7.99959 3.28619 8.00089 4.01419C8.00419 5.87319 8.00089 10.0142 8.00089 10.0142C8.00089 10.0142 7.00039 10.0142 7.00039 9.01419C7.00039 8.59419 7.00159 5.76919 7.00039 5.01419C6.99909 4.23419 6.31629 4.05518 6.00829 4.13318C4.28579 4.56718 2.99819 6.14019 2.99829 8.01419L2.99829 12C2.99829 15.9858 5 20 5 20C9.18736 20 13.5 20 16.9707 20C18.3244 18.647 21.3314 14.8602 21.9975 12.9982C22.0299 11.7472 21.0076 11.0142 20.0071 11.0142C18.1656 11.0142 17.008 12.9982 17.008 12.9982V7.02118C17.0002 4.83218 15.2746 3.40119 14.0049 3.15219Z" fill="black"/>
</svg>
