<svg width="24" height="24" viewBox="0 0 24 24" fill="none" xmlns="http://www.w3.org/2000/svg">
<path d="M7.99348 7H7.96249C6.27749 7 4.78649 8.08699 4.23848 9.68799C4.09648 10.102 3.94147 10.872 3.76947 12C3.68947 12.526 3.60547 13.129 3.51947 13.781C3.39947 14.684 3.04947 17.844 3.04947 17.844C2.69847 20.09 4.18948 22 6.39748 22H17.5995C19.8075 22 21.2985 20.09 20.9475 17.844C20.9505 17.848 20.9625 17.732 20.9475 17.562C20.9215 17.28 20.6495 14.686 20.5405 13.781C20.3165 11.918 20.1095 10.575 19.8835 9.875C19.8505 9.772 19.7965 9.68 19.7585 9.594C19.0695 8.028 17.7535 7.027 16.0345 7H16.0035C15 6.99997 9 7.00007 7.99348 7ZM7.96249 9H16.0035C16.8765 9.014 17.5545 9.52101 17.9435 10.406C17.9515 10.425 17.9605 10.457 17.9745 10.5C18.1455 11.029 18.3615 12.308 18.5695 14.031C18.6765 14.919 18.9195 17.472 18.9445 17.75C18.9595 17.916 18.9705 18.031 18.9765 18.094C19.1515 19.231 18.5415 20 17.5995 20H6.39748C5.45548 20 4.85448 19.223 5.02048 18.156C5.02048 18.156 5.40348 14.922 5.52148 14.031C5.60648 13.392 5.69348 12.824 5.77148 12.312C5.92448 11.311 6.05848 10.603 6.14748 10.344C6.41848 9.551 7.13749 9 7.96249 9Z" fill="black"/>
<path fill-rule="evenodd" clip-rule="evenodd" d="M12 4C10.8954 4 10 4.89543 10 6V7H8V6C8 3.79086 9.79086 2 12 2C14.2091 2 16 3.79086 16 6V7H14V6C14 4.89543 13.1046 4 12 4Z" fill="black" fill-opacity="0.4"/>
</svg>
