<svg width="24" height="24" viewBox="0 0 24 24" fill="none" xmlns="http://www.w3.org/2000/svg">
<path d="M5 19H18V20C18 21.1046 17.1046 22 16 22H7C5.89543 22 5 21.1046 5 20V19Z" fill="black" fill-opacity="0.4"/>
<path d="M13.9603 2.00055C12.5213 1.97253 12.0033 3.02338 12.0033 4.02121C12.0033 4.02121 12.0163 8.00855 12.0033 8.70113C11.2263 8.21072 10.5713 8.03755 9.79429 8.04155C8.79429 8.04555 7.8133 8.54298 7.4173 9.04339C5.8773 8.68109 4.9133 9.18451 4.4993 9.45273C3.4983 10.0993 2.99829 11.3093 2.99829 12.0339V13.0317C3 14.4962 4 17.4987 5 19C6 19 17 19 18 19C19.4502 17.3809 21.1889 15.0271 21.9973 13.0157C22.0303 11.7667 21.0073 11.0351 20.0073 11.0351C19.2073 11.0351 18.0663 11.7567 17.3723 13.0397C16.7533 14.1867 16.0053 14.0045 16.0053 14.0045V4.02121C16.0053 3.02338 15.3993 2.02757 13.9603 2.00055Z" fill="black"/>
</svg>
