<svg width="24" height="24" viewBox="0 0 24 24" fill="none" xmlns="http://www.w3.org/2000/svg">
<path d="M5.49903 11.9978C3.56603 11.9978 1.99902 13.5648 1.99902 15.4978V16.4978C1.99902 18.4308 3.56603 19.9978 5.49903 19.9978H18.499C20.4321 19.9978 21.9991 18.4308 21.9991 16.4978V15.4978C21.9991 13.5648 20.4321 11.9978 18.499 11.9978H5.49903ZM5.99903 14.9978C6.55103 14.9978 6.99903 15.4458 6.99903 15.9978C6.99903 16.5498 6.55103 16.9978 5.99903 16.9978C5.44703 16.9978 4.99903 16.5498 4.99903 15.9978C4.99903 15.4458 5.44703 14.9978 5.99903 14.9978ZM8.99903 14.9978C9.55103 14.9978 9.99904 15.4458 9.99904 15.9978C9.99904 16.5498 9.55103 16.9978 8.99903 16.9978C8.44703 16.9978 7.99903 16.5498 7.99903 15.9978C7.99903 15.4458 8.44703 14.9978 8.99903 14.9978Z" fill="black"/>
<path d="M7.25001 4C5.172 4 3.26999 5.71099 2.93799 7.84399L2.5 11C3.373 10.418 4.372 10 5.5 10C7.12501 10 16.875 10 18.5 10C19.603 10 20.577 10.41 21.438 10.969L21 7.875C20.665 5.726 18.797 4 16.719 4H7.25001Z" fill="black" fill-opacity="0.4"/>
</svg>
