<svg width="24" height="24" viewBox="0 0 24 24" fill="none" xmlns="http://www.w3.org/2000/svg">
<path d="M5.49902 3.9978C3.56602 3.9978 1.99902 5.5648 1.99902 7.49779V8.49779C1.99902 10.4308 3.56602 11.9978 5.49902 11.9978C12.1487 11.9978 11.4463 11.9978 18.499 11.9978C20.432 11.9978 21.999 10.4308 21.999 8.49779V7.49779C21.999 5.5648 20.432 3.9978 18.499 3.9978H5.49902ZM5.49902 5.9978H18.499C19.3274 5.9978 19.999 6.66979 19.999 7.49779V8.49779C19.999 9.32578 19.3274 9.99778 18.499 9.99778H5.49902C4.67062 9.99778 3.99902 9.32578 3.99902 8.49779V7.49779C3.99902 6.66979 4.67062 5.9978 5.49902 5.9978ZM5.99902 6.99779C5.44672 6.99779 4.99902 7.44579 4.99902 7.99779C4.99902 8.54979 5.44672 8.99778 5.99902 8.99778C6.55132 8.99778 6.99902 8.54979 6.99902 7.99779C6.99902 7.44579 6.55132 6.99779 5.99902 6.99779ZM8.99903 6.99779C8.44672 6.99779 7.99902 7.44579 7.99902 7.99779C7.99902 8.54979 8.44672 8.99778 8.99903 8.99778C9.55133 8.99778 9.99903 8.54979 9.99903 7.99779C9.99903 7.44579 9.55133 6.99779 8.99903 6.99779Z" fill="black"/>
<path d="M11 12L10.996 14.191C10.1438 14.464 9.47 15.13 9.1675 16.004L3 16C2.4477 16 2 16.448 2 17C2 17.552 2.4477 18 3 18L9.1839 17.996C9.5717 19.176 10.7322 20 12 20C13.2678 20 14.3444 19.228 14.826 18.009L21 18C21.5523 18 22 17.552 22 17C22 16.448 21.5523 16 21 16L14.8285 16.003C14.5174 15.13 13.8228 14.461 13.0046 14.179L13 12C34.3988 12 -5.09561 12 11 12ZM12 16C12.5523 16 13 16.448 13 17C13 17.552 12.5523 18 12 18C11.4477 18 11 17.552 11 17C11 16.448 11.4477 16 12 16Z" fill="black" fill-opacity="0.4"/>
</svg>
