<svg width="24" height="24" viewBox="0 0 24 24" fill="none" xmlns="http://www.w3.org/2000/svg">
<path d="M10.9075 2.24375L5.37645 4.96274C4.72645 5.28374 4.15945 6.03574 4.00145 6.74374L2.62645 12.8997C2.46945 13.6037 2.65244 14.5187 3.09544 15.0877L6.93945 19.9937C7.38745 20.5707 8.23844 20.9937 8.97044 20.9937H15.0954C15.8264 20.9937 16.6775 20.5707 17.1265 19.9937L20.9395 15.0877C21.3815 14.5187 21.5955 13.6037 21.4395 12.8997L20.0634 6.74374C19.9064 6.03574 19.3395 5.28374 18.6895 4.96274L13.1575 2.24375C12.4995 1.91875 11.5655 1.91875 10.9075 2.24375ZM11.7825 4.02475C11.8825 3.97575 12.1825 3.97575 12.2825 4.02475L17.7825 6.74374C17.8905 6.79674 18.0694 7.03275 18.0954 7.14975L19.4704 13.3377C19.4974 13.4587 19.4535 13.7387 19.3765 13.8377L15.5325 18.7747C15.4625 18.8647 15.2094 18.9937 15.0954 18.9937H8.97044C8.85644 18.9937 8.60245 18.8647 8.53245 18.7747L4.68945 13.8377C4.61245 13.7387 4.53644 13.4587 4.56344 13.3377L5.93945 7.14975C5.96545 7.03275 6.14345 6.79674 6.25145 6.74374L11.7825 4.02475Z" fill="black"/>
</svg>
