<svg width="25" height="25" viewBox="0 0 25 25" fill="none" xmlns="http://www.w3.org/2000/svg">
<path fill-rule="evenodd" clip-rule="evenodd" d="M19.7212 11.2813C20.167 11.7195 19.9868 12.2438 19.8141 12.7464C19.7855 12.8295 19.7572 12.9121 19.7319 12.9935C19.6424 13.2817 19.5429 13.6299 19.4571 13.9971C19.1521 15.3014 19.0192 17.4921 19.0192 17.4921V17.9745C19.0206 18.0511 19.0131 18.1264 18.9976 18.1993C18.9614 18.3707 18.8813 18.5259 18.7695 18.6526C18.6898 18.7431 18.5933 18.8198 18.4836 18.8773C18.398 18.9222 18.3051 18.9552 18.2071 18.9739L4.42 22.0006L11.4923 14.9284C11.6583 14.973 11.8327 14.9967 12.0127 14.9967C13.1183 14.9967 14.0146 14.1013 14.0146 12.9967C14.0146 11.8921 13.1183 10.9967 12.0127 10.9967C10.9072 10.9967 10.0109 11.8921 10.0109 12.9967C10.0109 13.1752 10.0343 13.3482 10.0782 13.5128L3.00073 20.5826L6.02585 6.80255C6.04032 6.72861 6.06295 6.65759 6.09277 6.59045C6.25525 6.22303 6.62617 5.98681 7.02919 5.99573H7.50862C7.50862 5.99573 9.70204 5.86295 11.0079 5.55836C11.6662 5.40481 12.2637 5.20773 12.5641 5.10221C12.8352 4.96611 13.1641 4.96844 13.4192 5.08149C13.5314 5.13112 13.6375 5.20359 13.7272 5.29463L19.7212 11.2813Z" fill="black"/>
<path fill-rule="evenodd" clip-rule="evenodd" d="M13.7174 5.30047C13.6278 5.20942 13.5218 5.13696 13.4097 5.08733C13.2872 5.03301 13.1477 5.00425 13.0058 5.00413C12.8524 5.00399 12.6961 5.03734 12.5554 5.10804C12.5219 5.11982 12.4847 5.13274 12.4441 5.14661L13.5994 3.99171C14.9264 2.66504 17.0781 2.66503 18.4052 3.99171L21.0092 6.59486C22.3362 7.92154 22.3362 10.0725 21.0092 11.3992L19.8709 12.5371C20.0098 12.1025 20.0881 11.6631 19.7059 11.2872C18.2966 9.87829 16.2335 7.81583 13.7174 5.30047Z" fill="black" fill-opacity="0.4"/>
</svg>
