<svg width="24" height="24" viewBox="0 0 24 24" fill="none" xmlns="http://www.w3.org/2000/svg">
<path d="M5.99999 3C4.343 3 3 4.343 3 6V8C3 9.657 4.343 11 5.99999 11H18C19.657 11 21 9.657 21 8V6C21 4.343 19.657 3 18 3H5.99999ZM5.99999 5H18C18.552 5 19 5.448 19 6V8C19 8.552 18.552 9 18 9H5.99999C5.448 9 5 8.552 5 8V6C5 5.448 5.448 5 5.99999 5Z" fill="black"/>
<path d="M5.99999 13C4.343 13 3 14.343 3 16V18C3 19.657 4.343 21 5.99999 21H18C19.657 21 21 19.657 21 18V16C21 14.343 19.657 13 18 13H5.99999ZM5.99999 15H18C18.552 15 19 15.448 19 16V18C19 18.552 18.552 19 18 19H5.99999C5.448 19 5 18.552 5 18V16C5 15.448 5.448 15 5.99999 15Z" fill="black" fill-opacity="0.4"/>
</svg>
