<svg width="24" height="24" viewBox="0 0 24 24" fill="none" xmlns="http://www.w3.org/2000/svg">
<path d="M15 3.00001C14.459 3.00121 13.972 3.14871 13.531 3.40631C13.252 3.56911 12.729 4.02461 11.875 4.81251C11.84 4.84481 11.035 5.61341 10.625 6.00001C10.377 5.99981 9.117 5.99931 9 6.00001C7.375 6.01021 6.012 7.38181 6 9.00001V15C6.018 16.6835 7.321 18.0155 9 18C9.076 17.9993 10.34 17.9996 10.594 18C10.992 18.3784 11.81 19.1567 11.844 19.1875C12.683 19.9676 13.199 20.3989 13.469 20.5625C13.922 20.8376 14.432 21.0066 15 21C16.665 20.9808 18.02 19.6494 18 18L17.969 12L18 6.00001C17.998 4.32911 16.645 2.99641 15 3.00001ZM15 5.00001C15.544 4.99881 15.999 5.44501 16 6.00001L15.969 12L16 18C16.006 18.5412 15.571 18.9934 15 19C14.823 19.002 14.647 18.9643 14.5 18.875C14.407 18.8191 13.893 18.3458 13.219 17.7188C13.179 17.6818 11.775 16.3658 11.687 16.2813C11.501 16.1015 11.259 16 11 16C10.911 16 9.138 15.9987 9 16C8.44 16.0052 8.006 15.5846 8 15V9.00001C8.004 8.48031 8.472 8.00331 9 8.00001C9.18 7.99891 10.83 7.99991 11 8.00001C11.258 8.00001 11.501 7.89751 11.687 7.71881C11.776 7.63411 13.176 6.32041 13.219 6.28131C13.896 5.65631 14.443 5.17631 14.531 5.12501C14.681 5.03761 14.83 5.00041 15 5.00001Z" fill="black"/>
</svg>
