<svg width="24" height="24" viewBox="0 0 24 24" fill="none" xmlns="http://www.w3.org/2000/svg">
<path d="M16.031 3C15.641 3.0009 15.227 3.1301 14.969 3.2813C14.511 3.5489 11 6.00001 11 6.00001C11 6.00001 8.326 5.99801 8 6.00001C6.919 6.00681 6.008 6.93271 6 8.00001V16C6.012 17.1138 6.867 18.0105 8 18C8.283 17.9974 11 18 11 18C11 18 14.579 20.4757 15.031 20.75C15.293 20.9091 15.591 21.0047 16 21C17.118 20.9871 18.013 20.06 18 18.9688V5.00001C17.999 3.87711 17.112 2.9976 16.031 3Z" fill="black"/>
</svg>
