<svg width="24" height="24" viewBox="0 0 24 24" fill="none" xmlns="http://www.w3.org/2000/svg">
<path d="M5 15C3.895 15 3 15.895 3 17V19C3 20.105 3.895 21 5 21H19C20.105 21 21 20.105 21 19V17C21 15.895 20.105 15 19 15H5ZM5 17H19V19H5V17Z" fill="black" fill-opacity="0.4"/>
<path d="M11.9748 2.99941C11.487 3.01541 10.9991 3.2214 10.6003 3.5934L3.66439 9.53042C2.34879 10.7294 3.08556 12.9994 5.00797 12.9994H19.0037C20.9541 12.9914 21.6789 10.6514 20.2533 9.40542L13.3494 3.49941C12.9635 3.13841 12.4627 2.98341 11.9748 2.99941ZM12.0058 4.99941L18.9417 10.9054C19.0267 10.9804 19.0247 10.9994 19.0037 10.9994H5.00797L11.9438 5.06141C12.0318 4.98141 11.9998 4.99341 12.0058 4.99941Z" fill="black"/>
</svg>
