<svg width="24" height="24" viewBox="0 0 24 24" fill="none" xmlns="http://www.w3.org/2000/svg">
<path d="M5 15C3.895 15 3 15.895 3 17V19C3 20.105 3.895 21 5 21H19C20.105 21 21 20.105 21 19V17C21 15.895 20.105 15 19 15H5Z" fill="black" fill-opacity="0.4"/>
<path d="M11.9776 2.99941C11.4896 3.01541 11.0016 3.2214 10.6026 3.5934L3.66459 9.53042C2.34859 10.7294 3.08559 12.9994 5.00859 12.9994H19.0086C20.9596 12.9914 21.6846 10.6514 20.2586 9.40542L13.3526 3.49941C12.9666 3.13841 12.4656 2.98341 11.9776 2.99941Z" fill="black"/>
</svg>
