<svg width="24" height="24" viewBox="0 0 24 24" fill="none" xmlns="http://www.w3.org/2000/svg">
<path fill-rule="evenodd" clip-rule="evenodd" d="M2 15C2 14.4477 2.44772 14 3 14H21C21.5523 14 22 14.4477 22 15V17C22 18.6569 20.6569 20 19 20H5C3.34315 20 2 18.6569 2 17V15ZM4 16V17C4 17.5523 4.44772 18 5 18H19C19.5523 18 20 17.5523 20 17V16H4Z" fill="black"/>
<path fill-rule="evenodd" clip-rule="evenodd" d="M3 14V7C3 5.34315 4.34315 4 6 4H18C19.6569 4 21 5.34315 21 7V14C19.5 14 5 14 3 14Z" fill="black" fill-opacity="0.4"/>
</svg>
