<svg width="24" height="24" viewBox="0 0 24 24" fill="none" xmlns="http://www.w3.org/2000/svg">
<path fill-rule="evenodd" clip-rule="evenodd" d="M22 8C22 5.79086 20.2091 4 18 4H14V20H18C20.2091 20 22 18.2091 22 16V8ZM18 6C19.1046 6 20 6.89543 20 8V16C20 17.1046 19.1046 18 18 18H16V6H18Z" fill="black"/>
<path fill-rule="evenodd" clip-rule="evenodd" d="M14 4H6C3.79086 4 2 5.79086 2 8V16C2 18.2091 3.79086 20 6 20H14V18H6C4.89543 18 4 17.1046 4 16V8C4 6.89543 4.89543 6 6 6H14V4Z" fill="black" fill-opacity="0.4"/>
</svg>
