<svg width="24" height="24" viewBox="0 0 24 24" fill="none" xmlns="http://www.w3.org/2000/svg">
<path fill-rule="evenodd" clip-rule="evenodd" d="M21 17V9H19V17C19 18.1046 18.1046 19 16 19H9V21H16C19.2091 21 21 19.2091 21 17ZM11 16C11 16.5523 11.4477 17 12 17H16C16.5523 17 17 16.5523 17 16C17 15.4477 16.5523 15 16 15H12C11.4477 15 11 15.4477 11 16ZM11 12C11 12.5523 11.4477 13 12 13H16C16.5523 13 17 12.5523 17 12C17 11.4477 16.5523 11 16 11H12C11.4477 11 11 11.4477 11 12Z" fill="black" fill-opacity="0.4"/>
<path fill-rule="evenodd" clip-rule="evenodd" d="M21 7C21 4.79086 19.2091 3 17 3H7C4.79086 3 3 4.79086 3 7V9V17C3 19.2091 4.79086 21 7 21H9V9H21V7ZM7 9V19C5.89543 19 5 18.1046 5 17V9H7ZM17 5C18.1046 5 19 5.89543 19 7H5C5 5.89543 5.89543 5 7 5H17Z" fill="black"/>
</svg>
