<svg width="24" height="24" viewBox="0 0 24 24" fill="none" xmlns="http://www.w3.org/2000/svg">
<path fill-rule="evenodd" clip-rule="evenodd" d="M12 6C11.6593 6 11.3252 6.0284 11 6.08296V2.04938C11.3289 2.01672 11.6625 2 12 2C12.3375 2 12.6711 2.01672 13 2.04938V6.08296C12.6748 6.0284 12.3407 6 12 6ZM12 18C11.6593 18 11.3252 17.9716 11 17.917V21.9506C11.3289 21.9833 11.6625 22 12 22C12.3375 22 12.6711 21.9833 13 21.9506V17.917C12.6748 17.9716 12.3407 18 12 18ZM17.917 13C17.9716 12.6748 18 12.3407 18 12C18 11.6593 17.9716 11.3252 17.917 11H21.9506C21.9833 11.3289 22 11.6625 22 12C22 12.3375 21.9833 12.6711 21.9506 13H17.917ZM6 12C6 12.3407 6.0284 12.6748 6.08296 13H2.04938C2.01672 12.6711 2 12.3375 2 12C2 11.6625 2.01672 11.3289 2.04938 11H6.08296C6.0284 11.3252 6 11.6593 6 12Z" fill="black" fill-opacity="0.4"/>
<path fill-rule="evenodd" clip-rule="evenodd" d="M12.9999 6.0829C15.5124 6.50442 17.4955 8.48744 17.917 10.9999H21.9506C21.4815 6.27553 17.7244 2.51839 12.9999 2.04932V6.0829ZM21.9506 12.9999H17.917C17.4955 15.5124 15.5124 17.4955 12.9999 17.917V21.9506C17.7244 21.4815 21.4815 17.7244 21.9506 12.9999ZM10.9999 21.9506V17.917C8.48743 17.4955 6.50442 15.5124 6.0829 12.9999H2.04932C2.51839 17.7244 6.27553 21.4815 10.9999 21.9506ZM2.04932 10.9999H6.0829C6.50442 8.48744 8.48744 6.50442 10.9999 6.0829V2.04932C6.27553 2.51839 2.51839 6.27553 2.04932 10.9999Z" fill="black"/>
</svg>
