<svg width="24" height="24" viewBox="0 0 24 24" fill="none" xmlns="http://www.w3.org/2000/svg">
<path d="M17 11.25C16.236 11.993 11.219 17 11.219 17H15C15 16 15.528 14.626 16 14C16.587 13.222 16.952 12.287 17 11.25ZM9 19C9 20.657 10.343 22 12 22C13.657 22 15 20.657 15 19H9Z" fill="black" fill-opacity="0.4"/>
<path d="M11.9978 2C8.1374 2 5.008 5.13204 5.008 8.99563C5.008 10.9534 5.5525 12.1197 6.7554 13.5238C6.8117 13.5898 7.0178 13.8406 7.0675 13.8986C7.4161 14.3053 7.5823 14.5582 7.7228 14.835L4.2903 18.2708C3.9003 18.6606 3.9003 19.3172 4.2903 19.7069C4.6802 20.0977 5.3357 20.0977 5.7257 19.7069L19.7053 5.71568C20.0953 5.32592 20.0953 4.66934 19.7053 4.27958C19.5104 4.0847 19.2432 3.99875 18.9876 3.99875C18.7321 3.99875 18.4569 4.12368 18.2619 4.31856L17.6725 4.92717C16.3697 3.13529 14.2652 2 11.9978 2ZM11.9978 4.99813C12.5493 4.99813 12.9963 5.44485 12.9963 5.9975C12.9963 6.54916 12.5493 6.99688 11.9978 6.99688C10.8948 6.99688 10.0007 7.89132 10.0007 8.99563C10.0007 9.54728 9.5536 9.995 9.0022 9.995C8.4507 9.995 8.0036 9.54728 8.0036 8.99563C8.0036 6.78801 9.7919 4.99813 11.9978 4.99813Z" fill="black"/>
</svg>
