<svg width="24" height="24" viewBox="0 0 24 24" fill="none" xmlns="http://www.w3.org/2000/svg">
<path d="M3 16C2.448 16 2 16.448 2 17C2 17.552 2.448 18 3 18H21C21.552 18 22 17.552 22 17C22 16.448 21.552 16 21 16H3Z" fill="black" fill-opacity="0.4"/>
<path d="M2.9989 6C2.4469 6 1.9989 6.45472 1.9989 7.01501C1.9989 7.5753 2.4469 8.03002 2.9989 8.03002H20.9989C21.5509 8.03002 21.9989 7.5753 21.9989 7.01501C21.9989 6.45472 21.5509 6 20.9989 6H2.9989ZM2.9989 10.97C2.4469 10.97 1.9989 11.4247 1.9989 11.985C1.9989 12.5453 2.4469 13 2.9989 13H20.9989C21.5509 13 21.9989 12.5453 21.9989 11.985C21.9989 11.4247 21.5509 10.97 20.9989 10.97H2.9989Z" fill="black"/>
</svg>
