<svg width="24" height="24" viewBox="0 0 24 24" fill="none" xmlns="http://www.w3.org/2000/svg">
<path d="M2 6.00005V17C2 19 3 20 5 20H19C21 20 22 19 22 17V8.99997C22 8.44767 21.552 7.99997 21 7.99997C15.3333 7.99997 9.66667 7.99963 4 7.99992C2.89546 7.99998 2 7.10459 2 6.00005ZM17 12C17.552 12 18 12.4477 18 13C18 13.5523 17.552 14 17 14C16.448 14 16 13.5523 16 13C16 12.4477 16.448 12 17 12Z" fill="black"/>
<path fill-rule="evenodd" clip-rule="evenodd" d="M4 4C2.89543 4 2 4.89543 2 6C2 7.10457 2.89543 8 4 8C9.33333 8 14.6667 8 20 8V5C20 4.44772 19.5523 4 19 4H4Z" fill="black" fill-opacity="0.4"/>
</svg>
