<svg width="24" height="24" viewBox="0 0 24 24" fill="none" xmlns="http://www.w3.org/2000/svg">
<path d="M11.9979 16C11.756 16 11.5262 16.1 11.3417 16.281C11.3417 16.281 9.8592 17.742 9.2791 18.312C8.6991 18.883 9.0636 20.003 9.9979 20H13.9979C14.9164 20.003 15.3039 18.859 14.7167 18.281C14.1294 17.703 12.6854 16.281 12.6854 16.281C12.5008 16.1 12.2398 16 11.9979 16Z" fill="black" fill-opacity="0.4"/>
<path d="M12.0291 12C10.5601 12 9.19108 12.63 8.24788 13.719C7.88618 14.136 7.92418 14.763 8.34168 15.125C8.75898 15.487 9.38618 15.449 9.74788 15.031C10.3151 14.377 11.1464 14 12.0291 14C12.8924 14 13.6817 14.37 14.2479 15C14.6172 15.411 15.2748 15.432 15.6854 15.062C16.0961 14.693 16.1172 14.067 15.7479 13.656C14.8062 12.609 13.4656 12 12.0291 12Z" fill="black"/>
</svg>
