<svg width="24" height="24" viewBox="0 0 24 24" fill="none" xmlns="http://www.w3.org/2000/svg">
<path fill-rule="evenodd" clip-rule="evenodd" d="M3 6C3 4.34315 4.34315 3 6 3H18C19.6569 3 21 4.34315 21 6V18C21 19.6569 19.6569 21 18 21H6C4.34315 21 3 19.6569 3 18V6ZM6 5C5.44772 5 5 5.44772 5 6V18C5 18.5523 5.44772 19 6 19H18C18.5523 19 19 18.5523 19 18V6C19 5.44772 18.5523 5 18 5H6Z" fill="black" fill-opacity="0.4"/>
<path fill-rule="evenodd" clip-rule="evenodd" d="M8 7C8 7.55229 7.55228 8 7 8C6.44772 8 6 7.55229 6 7C6 6.44771 6.44772 6 7 6C7.55228 6 8 6.44771 8 7ZM5 9H19V11H11V19H9V11H5V9ZM10 8C10.5523 8 11 7.55229 11 7C11 6.44771 10.5523 6 10 6C9.44772 6 9 6.44771 9 7C9 7.55229 9.44772 8 10 8Z" fill="black"/>
</svg>
