<svg width="24" height="24" viewBox="0 0 24 24" fill="none" xmlns="http://www.w3.org/2000/svg">
<path d="M3 11V17.844C3 19.594 4.40601 21 6.15601 21H8V11H3ZM10 11V21H17.844C19.594 21 21 19.595 21 17.844V11H10Z" fill="black" fill-opacity="0.4"/>
<path d="M6.15601 3C4.40601 3 3 4.4055 3 6.1562V9H21V6.1562C21 4.4055 19.595 3 17.844 3H6.15601ZM6 5C6.552 5 7 5.4477 7 6C7 6.5523 6.552 7 6 7C5.448 7 5 6.5523 5 6C5 5.4477 5.448 5 6 5ZM9 5C9.552 5 10 5.4477 10 6C10 6.5523 9.552 7 9 7C8.448 7 8 6.5523 8 6C8 5.4477 8.448 5 9 5Z" fill="black"/>
</svg>
