<svg width="24" height="24" viewBox="0 0 24 24" fill="none" xmlns="http://www.w3.org/2000/svg">
<path fill-rule="evenodd" clip-rule="evenodd" d="M5.07798 21.8932C5.37398 21.9631 5.68266 22 5.99998 22C8.20912 22 9.99998 20.2091 9.99998 18C9.99998 15.7909 8.20912 14 5.99998 14C4.30087 14 2.84907 15.0594 2.26934 16.5537C2.21739 16.6881 2.17213 16.8267 2.13407 16.969C2.04742 17.2947 2.00089 17.6368 2 17.9896C2.0009 18.3331 2.04758 18.6707 2.13407 19L4.00647 17L5.00507 16L7.50167 16.531L8.00097 19L7.00237 20L5.00507 21.875C5.02937 21.8813 5.05367 21.8874 5.07798 21.8932Z" fill="black"/>
<path fill-rule="evenodd" clip-rule="evenodd" d="M17.99 2C16.9677 2 15.9613 2.37501 15.1814 3.15601C14.1891 4.15001 13.7939 5.57 14.0875 6.899L6.91193 14.088C6.9075 14.0924 6.90317 14.0969 6.89893 14.1014C8.38311 14.4423 9.55208 15.6089 9.89638 17.0917C9.89864 17.0895 9.90089 17.0873 9.90313 17.085L17.1017 9.888C18.3741 10.208 19.8306 9.81299 20.8299 8.812C22.39 7.251 22.3899 4.71801 20.8299 3.15601C20.0499 2.37501 19.0123 2 17.99 2ZM18.6454 3.59399L20.393 5.34399L19.7688 7.75L17.3659 8.406L15.5871 6.625L16.2424 4.21899L18.6454 3.59399Z" fill="black" fill-opacity="0.4"/>
</svg>
