<svg width="24" height="24" viewBox="0 0 24 24" fill="none" xmlns="http://www.w3.org/2000/svg">
<path d="M5.9989 4C3.7898 4 1.9989 5.791 1.9989 8V16C1.9989 18.209 3.7898 20 5.9989 20H17.9989C20.208 20 21.9989 18.209 21.9989 16V8C21.9989 5.791 20.208 4 17.9989 4H5.9989Z" fill="black" fill-opacity="0.4"/>
<path d="M6 6C4.8954 6 4 6.895 4 8V13C4 14.105 4.8954 15 6 15C7.1046 15 8 14.105 8 13V8C8 6.895 7.1046 6 6 6ZM12 6C10.8954 6 10 6.895 10 8V11C10 12.105 10.8954 13 12 13C13.1046 13 14 12.105 14 11V8C14 6.895 13.1046 6 12 6ZM18 6C16.8954 6 16 6.895 16 8V16C16 17.105 16.8954 18 18 18C19.1046 18 20 17.105 20 16V8C20 6.895 19.1046 6 18 6Z" fill="black"/>
</svg>
