<svg width="24" height="24" viewBox="0 0 24 24" fill="none" xmlns="http://www.w3.org/2000/svg">
<path d="M8 6C4.686 6 2 8.686 2 12C2 15.314 4.686 18 8 18C10.123 18 12.028 16.903 13.188 15.001L16.375 15L17.094 16.438C17.263 16.776 17.621 17 18 17H21C21.552 17 22 16.552 22 16V10C22 9.448 21.552 9 21 9L13.185 8.99201C12.102 7.15701 10.123 6 8 6ZM8 8C9.593 8 11.018 8.95601 11.656 10.406C11.816 10.769 12.166 11 12.562 11H20V15H18.625L17.906 13.562C17.737 13.224 17.379 13 17 13H12.562C12.166 13 11.816 13.231 11.656 13.594C11.018 15.044 9.593 16 8 16C5.791 16 4 14.209 4 12C4 9.791 5.791 8 8 8Z" fill="black"/>
<circle cx="8" cy="12" r="1" fill="black" fill-opacity="0.4"/>
</svg>
