<svg width="24" height="24" viewBox="0 0 24 24" fill="none" xmlns="http://www.w3.org/2000/svg">
<path fill-rule="evenodd" clip-rule="evenodd" d="M6 8.64582C4.75527 7.94069 4 7.01445 4 6V12V18C4 18.7524 4.36003 19.3855 4.83835 19.8702C5.31243 20.3505 5.94885 20.7373 6.65633 21.0405C8.07486 21.6484 9.96482 22 12 22C14.0352 22 15.9251 21.6484 17.3437 21.0405C18.0512 20.7373 18.6876 20.3505 19.1617 19.8702C19.64 19.3855 20 18.7524 20 18V12V6C20 7.01445 19.2447 7.94069 18 8.64582V12C18 12.076 17.9683 12.2321 17.7382 12.4653C17.5038 12.7028 17.1151 12.9625 16.5558 13.2022C15.4409 13.68 13.8308 14 12 14C10.1692 14 8.55915 13.68 7.44417 13.2022C6.8849 12.9625 6.4962 12.7028 6.26184 12.4653C6.03173 12.2321 6 12.076 6 12V8.64582ZM6 18V14.7223C6.20944 14.8372 6.42923 14.9431 6.65633 15.0405C8.07486 15.6484 9.96482 16 12 16C14.0352 16 15.9251 15.6484 17.3437 15.0405C17.5708 14.9431 17.7906 14.8372 18 14.7223V18C18 18.076 17.9683 18.2321 17.7382 18.4653C17.5038 18.7028 17.1151 18.9625 16.5558 19.2022C15.4409 19.68 13.8308 20 12 20C10.1692 20 8.55915 19.68 7.44417 19.2022C6.8849 18.9625 6.4962 18.7028 6.26184 18.4653C6.03173 18.2321 6 18.076 6 18Z" fill="black" fill-opacity="0.4"/>
<path fill-rule="evenodd" clip-rule="evenodd" d="M17.8444 5.7347C17.662 5.51906 17.3196 5.23902 16.7624 4.96043C15.6469 4.40269 13.966 4 12 4C10.034 4 8.35305 4.40269 7.23757 4.96043C6.68039 5.23902 6.33804 5.51906 6.15562 5.7347C5.98401 5.93757 6 5.99118 6 6C6 6.00882 5.98401 6.06243 6.15562 6.2653C6.33804 6.48094 6.68039 6.76098 7.23757 7.03957C8.35305 7.59731 10.034 8 12 8C13.966 8 15.6469 7.59731 16.7624 7.03957C17.3196 6.76098 17.662 6.48094 17.8444 6.2653C17.9319 6.16189 17.9999 6.08055 18 6C18.0001 5.91818 17.9311 5.83718 17.8444 5.7347ZM12 10C16.4183 10 20 8.20914 20 6C20 3.79086 16.4183 2 12 2C7.58172 2 4 3.79086 4 6C4 8.20914 7.58172 10 12 10Z" fill="black"/>
</svg>
