<svg width="24" height="24" viewBox="0 0 24 24" fill="none" xmlns="http://www.w3.org/2000/svg">
<path d="M12.375 2.08055C13.254 2.45555 18.528 4.70655 19.406 5.08155C19.775 5.23855 20 5.58656 20 5.98756C20 10.3676 19.825 12.3275 19.031 14.5845C17.992 17.5395 15.952 19.8945 12.5 21.8675C12.3465 21.9555 12.1733 21.9995 12 21.9995C12 14.738 12 3.71902 12 2C12.1297 2.00374 12.2584 2.03059 12.375 2.08055Z" fill="black" fill-opacity="0.4"/>
<path d="M11.625 2.08103C10.746 2.45603 5.47199 4.70704 4.59399 5.08204C4.22499 5.23904 4 5.58704 4 5.98804C4 10.368 4.17499 12.328 4.96899 14.585C6.00799 17.54 8.048 19.895 11.5 21.868C11.6535 21.956 11.8267 22 12 22C12 14.7385 12 3.71951 12 2.00049C11.8703 2.00423 11.7416 2.03108 11.625 2.08103Z" fill="black"/>
</svg>
