<svg width="24" height="24" viewBox="0 0 24 24" fill="none" xmlns="http://www.w3.org/2000/svg">
<path d="M11.625 2.081C10.746 2.456 5.47199 4.70701 4.59399 5.082C4.22499 5.239 4 5.58701 4 5.98801C4 10.368 4.17499 12.328 4.96899 14.585C6.00799 17.54 8.048 19.895 11.5 21.868C11.807 22.044 12.193 22.044 12.5 21.868C15.983 19.877 18.032 17.53 19.062 14.585C19.846 12.344 20 10.48 20 5.98801C20 5.58901 19.773 5.24 19.406 5.082L12.438 2.081C12.186 1.973 11.877 1.973 11.625 2.081Z" fill="black" fill-opacity="0.4"/>
<path d="M12 8C10.8954 8 10 8.895 10 10C10 10.71 10.4428 11.207 11 11.562V14C11 14.552 11.4477 15 12 15C12.5523 15 13 14.552 13 14V11.562C13.5573 11.208 14 10.71 14 10C14 8.895 13.1046 8 12 8Z" fill="black"/>
</svg>
