<svg width="24" height="24" viewBox="0 0 24 24" fill="none" xmlns="http://www.w3.org/2000/svg">
<path fill-rule="evenodd" clip-rule="evenodd" d="M4 10.1614V18.9999C3.44772 18.9999 3 19.4476 3 19.9999C3 20.5522 3.44772 20.9999 4 20.9999H20C20.5523 20.9999 21 20.5522 21 19.9999C21 19.4476 20.5523 18.9999 20 18.9999V10.1614C19.4895 10.6381 18.7824 10.9999 18 10.9999V18.9999H6V10.9999C5.21763 10.9999 4.51049 10.6381 4 10.1614Z" fill="black" fill-opacity="0.4"/>
<path fill-rule="evenodd" clip-rule="evenodd" d="M6 3C5.62123 3 5.27496 3.214 5.10557 3.55279L3.10557 7.55279C3.03615 7.69164 3 7.84476 3 8C3 8.82523 3.40255 9.56676 3.91789 10.0821C4.43324 10.5975 5.17477 11 6 11C6.78237 11 7.48951 10.6382 8 10.1614C8.51049 10.6382 9.21763 11 10 11C10.7824 11 11.4895 10.6382 12 10.1614C12.5105 10.6382 13.2176 11 14 11C14.7824 11 15.4895 10.6382 16 10.1614C16.5105 10.6382 17.2176 11 18 11C18.8252 11 19.5668 10.5975 20.0821 10.0821C20.5975 9.56676 21 8.82523 21 8C21 7.84476 20.9639 7.69164 20.8944 7.55279L18.8944 3.55279C18.725 3.214 18.3788 3 18 3H6ZM9.33211 8.66789C9.09745 8.43324 9 8.17477 9 8C9 7.44772 8.55228 7 8 7C7.44772 7 7 7.44772 7 8C7 8.17477 6.90255 8.43324 6.66789 8.66789C6.43324 8.90255 6.17477 9 6 9C5.82523 9 5.56676 8.90255 5.33211 8.66789C5.16884 8.50462 5.07199 8.32983 5.02818 8.17972L6.61803 5H17.382L18.9718 8.17972C18.928 8.32983 18.8312 8.50462 18.6679 8.66789C18.4332 8.90255 18.1748 9 18 9C17.8252 9 17.5668 8.90255 17.3321 8.66789C17.0975 8.43324 17 8.17477 17 8C17 7.44772 16.5523 7 16 7C15.4477 7 15 7.44772 15 8C15 8.17477 14.9025 8.43324 14.6679 8.66789C14.4332 8.90255 14.1748 9 14 9C13.8252 9 13.5668 8.90255 13.3321 8.66789C13.0975 8.43324 13 8.17477 13 8C13 7.44772 12.5523 7 12 7C11.4477 7 11 7.44772 11 8C11 8.17477 10.9025 8.43324 10.6679 8.66789C10.4332 8.90255 10.1748 9 10 9C9.82523 9 9.56676 8.90255 9.33211 8.66789ZM10 13C10 12.4477 9.55228 12 9 12C8.44772 12 8 12.4477 8 13V16C8 16.5523 8.44772 17 9 17H15C15.5523 17 16 16.5523 16 16V13C16 12.4477 15.5523 12 15 12C14.4477 12 14 12.4477 14 13V15H10V13Z" fill="black"/>
</svg>
