<svg width="24" height="24" viewBox="0 0 24 24" fill="none" xmlns="http://www.w3.org/2000/svg">
<path fill-rule="evenodd" clip-rule="evenodd" d="M4 5.15601C4 3.40701 5.40701 2 7.15601 2H15C15.265 2 15.531 2.09401 15.719 2.28101L19.719 6.28101C19.906 6.46901 20 6.735 20 7V18.844C20 20.593 18.593 22 16.844 22H7.15601C5.40701 22 4 20.593 4 18.844V5.15601ZM13 10H10V12H14V11L13 10ZM13 14H10V16H14V14H13Z" fill="black" fill-opacity="0.4"/>
<path d="M9 8C8.448 8 8 8.448 8 9C8 9.5 8 11.25 8 13C8 14.75 8 16.5 8 17C8 17.552 8.448 18 9 18H15C15.552 18 16 17.552 16 17V11C16 10.735 15.906 10.469 15.719 10.281L13.719 8.28101C13.531 8.09401 13.265 8 13 8H9ZM10 10H12.562L14 11.438V12H10C10 11.286 10 10.523 10 10ZM10 14H14V16H10C10 15.477 10 14.714 10 14Z" fill="black"/>
</svg>
