<svg width="24" height="24" viewBox="0 0 24 24" fill="none" xmlns="http://www.w3.org/2000/svg">
<path d="M12 2C6.4772 2 2 6.477 2 12C2 17.523 6.4772 22 12 22C17.523 22 22 17.523 22 12C22 6.477 17.523 2 12 2Z" fill="black" fill-opacity="0.4"/>
<path d="M15 8.00561C14.448 8.00561 14 8.45298 14 9.0042V11.3759L8.7188 8.13043C8.3252 7.84283 8 8.04956 8 8.56683V15.4332C8 15.9504 8.3253 16.1572 8.7188 15.8696L14 12.6241V14.9958C14 15.547 14.448 15.9944 15 15.9944C15.552 15.9944 16 15.547 16 14.9958V9.0042C16 8.45298 15.552 8.00561 15 8.00561Z" fill="black"/>
</svg>
