<svg width="24" height="24" viewBox="0 0 24 24" fill="none" xmlns="http://www.w3.org/2000/svg">
<path d="M6 4C3.7909 4 2 5.79099 2 7.99998V16C2 18.2089 3.7909 19.9999 6 19.9999H18C20.2091 19.9999 22 18.2089 22 16V7.99998C22 5.79099 20.2091 4 18 4H6Z" fill="black" fill-opacity="0.4"/>
<path d="M15 8.00561C14.4477 8.00561 14 8.45298 14 9.0042V11.3759L8.7188 8.13043C8.3252 7.84283 8 8.04956 8 8.56683V15.4332C8 15.9504 8.3253 16.1572 8.7188 15.8696L14 12.6241V14.9958C14 15.547 14.4477 15.9944 15 15.9944C15.5523 15.9944 16 15.547 16 14.9958V9.0042C16 8.45298 15.5523 8.00561 15 8.00561Z" fill="black"/>
</svg>
