<svg width="24" height="24" viewBox="0 0 24 24" fill="none" xmlns="http://www.w3.org/2000/svg">
<path d="M20 13.8121L14.562 19.2501C14.562 19.2501 14.413 19.4251 14.281 19.5311C13.939 19.8091 13.49 19.9971 13 20.0001C11.913 20.0071 11.008 19.1151 11 18.0001C10.999 17.8861 11 15.6801 11 13.8121L5.562 19.2501C5.562 19.2501 5.41301 19.4251 5.28101 19.5311C4.93901 19.8091 4.49 19.9971 4 20.0001C2.913 20.0071 2.008 19.1151 2 18.0001C1.998 17.6741 2 6.26909 2 6.00009C1.988 4.90109 2.883 4.01009 4 4.00009C4.429 3.99609 4.806 4.12608 5.125 4.34408C5.27 4.44208 5.382 4.53009 5.469 4.62509L11 10.1871C11 8.3251 11 6.09409 11 6.00009C10.988 4.90109 11.883 4.01009 13 4.00009C13.429 3.99609 13.806 4.12608 14.125 4.34408C14.27 4.44208 14.382 4.53009 14.469 4.62509L20 10.1871V13.8121ZM13 6.00009V18.0001L19 12.0001L13 6.00009ZM4 6.00009V18.0001L10 12.0001L4 6.00009Z" fill="black" fill-opacity="0.4"/>
<path fill-rule="evenodd" clip-rule="evenodd" d="M21 4C20.4477 4 20 4.44772 20 5V19C20 19.5523 20.4477 20 21 20C21.5523 20 22 19.5523 22 19V5C22 4.44772 21.5523 4 21 4Z" fill="black"/>
</svg>
