<svg width="24" height="24" viewBox="0 0 24 24" fill="none" xmlns="http://www.w3.org/2000/svg">
<path fill-rule="evenodd" clip-rule="evenodd" d="M17.7324 7C17.9026 6.70583 18 6.36429 18 6C18 5.63571 17.9026 5.29417 17.7324 5H21C21.5523 5 22 5.44772 22 6C22 6.55228 21.5523 7 21 7H17.7324ZM6.26756 11H3C2.44772 11 2 11.4477 2 12C2 12.5523 2.44772 13 3 13H6.26756C6.09739 12.7058 6 12.3643 6 12C6 11.6357 6.09739 11.2942 6.26756 11ZM17.7324 19H21C21.5523 19 22 18.5523 22 18C22 17.4477 21.5523 17 21 17H17.7324C17.9026 17.2942 18 17.6357 18 18C18 18.3643 17.9026 18.7058 17.7324 19ZM3 5C2.44772 5 2 5.44772 2 6C2 6.55228 2.44772 7 3 7H11C11.5523 7 12 6.55228 12 6C12 5.44772 11.5523 5 11 5H3ZM12 12C12 11.4477 12.4477 11 13 11H21C21.5523 11 22 11.4477 22 12C22 12.5523 21.5523 13 21 13H13C12.4477 13 12 12.5523 12 12ZM2 18C2 17.4477 2.44772 17 3 17H11C11.5523 17 12 17.4477 12 18C12 18.5523 11.5523 19 11 19H3C2.44772 19 2 18.5523 2 18Z" fill="black" fill-opacity="0.4"/>
<path fill-rule="evenodd" clip-rule="evenodd" d="M18 6C18 7.10457 17.1046 8 16 8C14.8954 8 14 7.10457 14 6C14 4.89543 14.8954 4 16 4C17.1046 4 18 4.89543 18 6ZM10 12C10 13.1046 9.10457 14 8 14C6.89543 14 6 13.1046 6 12C6 10.8954 6.89543 10 8 10C9.10457 10 10 10.8954 10 12ZM16 20C17.1046 20 18 19.1046 18 18C18 16.8954 17.1046 16 16 16C14.8954 16 14 16.8954 14 18C14 19.1046 14.8954 20 16 20Z" fill="black"/>
</svg>
