<svg width="24" height="24" viewBox="0 0 24 24" fill="none" xmlns="http://www.w3.org/2000/svg">
<path fill-rule="evenodd" clip-rule="evenodd" d="M17 3.25003C17.3228 3.25003 17.6094 3.4566 17.7115 3.76286L19.7115 9.76286C19.8425 10.1558 19.6301 10.5806 19.2371 10.7115C18.8442 10.8425 18.4194 10.6302 18.2884 10.2372L18.1261 9.75003H15.8739L15.7115 10.2372C15.5805 10.6302 15.1557 10.8425 14.7628 10.7115C14.3698 10.5806 14.1575 10.1558 14.2884 9.76286L16.2884 3.76286C16.3905 3.4566 16.6771 3.25003 17 3.25003ZM17 6.37174L17.6261 8.25003H16.3739L17 6.37174ZM15 13.25C14.5858 13.25 14.25 13.5858 14.25 14C14.25 14.4142 14.5858 14.75 15 14.75H17.5986L14.3759 19.584C14.2225 19.8141 14.2082 20.1101 14.3387 20.3539C14.4692 20.5978 14.7234 20.75 15 20.75H19C19.4142 20.75 19.75 20.4142 19.75 20C19.75 19.5858 19.4142 19.25 19 19.25H16.4014L19.624 14.4161C19.7774 14.1859 19.7917 13.89 19.6612 13.6461C19.5307 13.4023 19.2766 13.25 19 13.25H15Z" fill="black" fill-opacity="0.4"/>
<path fill-rule="evenodd" clip-rule="evenodd" d="M7.00003 5.41424L5.00003 7.41424L3.58582 6.00003L7.29292 2.29292C7.39767 2.18818 7.51987 2.11152 7.65017 2.06297C7.73682 2.0306 7.82916 2.00991 7.92528 2.00281C8.06914 1.99209 8.21487 2.01236 8.35164 2.06362C8.48128 2.11221 8.60286 2.18864 8.70714 2.29292L12.4142 6.00003L11 7.41424L9.00003 5.41425V21.0001C9.00003 21.5523 8.55232 22.0001 8.00003 22.0001C7.44775 22.0001 7.00003 21.5523 7.00003 21.0001V5.41424Z" fill="black"/>
</svg>
