<svg width="24" height="24" viewBox="0 0 24 24" fill="none" xmlns="http://www.w3.org/2000/svg">
<path fill-rule="evenodd" clip-rule="evenodd" d="M17 3C17.3228 3 17.6094 3.20657 17.7115 3.51283L19.7115 9.51283C19.8425 9.90579 19.6301 10.3305 19.2371 10.4615C18.8442 10.5925 18.4194 10.3801 18.2884 9.98717L18.2094 9.75H15.7905L15.7115 9.98717C15.5805 10.3801 15.1557 10.5925 14.7628 10.4615C14.3698 10.3305 14.1575 9.90579 14.2884 9.51283L16.2884 3.51283C16.3905 3.20657 16.6771 3 17 3ZM17 6.12171L17.7094 8.25H16.2905L17 6.12171ZM15 13.25C14.5857 13.25 14.25 13.5858 14.25 14C14.25 14.4142 14.5857 14.75 15 14.75H17.5986L14.3759 19.584C14.2225 19.8141 14.2082 20.11 14.3387 20.3539C14.4692 20.5978 14.7234 20.75 15 20.75H19C19.4142 20.75 19.75 20.4142 19.75 20C19.75 19.5858 19.4142 19.25 19 19.25H16.4013L19.624 14.416C19.7774 14.1859 19.7917 13.89 19.6612 13.6461C19.5307 13.4022 19.2766 13.25 19 13.25H15Z" fill="black" fill-opacity="0.4"/>
<path fill-rule="evenodd" clip-rule="evenodd" d="M9.00003 3C9.00003 2.44772 8.55232 2 8.00003 2C7.44775 2 7.00003 2.44772 7.00003 3V18.5858L5.00003 16.5858L3.58582 18L7.29292 21.7071C7.39796 21.8122 7.52056 21.889 7.65127 21.9375C7.73769 21.9697 7.82977 21.9902 7.9256 21.9973C7.97514 22.0009 8.02492 22.0009 8.07446 21.9973C8.17107 21.9902 8.26386 21.9693 8.35089 21.9367C8.48081 21.8881 8.60266 21.8116 8.70714 21.7071L12.4142 18L11 16.5858L9.00003 18.5858V3Z" fill="black"/>
</svg>
