<svg width="24" height="24" viewBox="0 0 24 24" fill="none" xmlns="http://www.w3.org/2000/svg">
<path d="M12.0137 14C12.0137 14.552 12.4617 15 13.0137 15H17.0137C17.5657 15 18.0137 14.552 18.0137 14C18.0137 13.448 17.5657 13 17.0137 13H13.0137C12.4617 13 12.0137 13.448 12.0137 14Z" fill="black" fill-opacity="0.4"/>
<path d="M12.0137 10C12.0137 10.552 12.4617 11 13.0137 11H19.0137C19.5657 11 20.0137 10.552 20.0137 10C20.0137 9.448 19.5657 9 19.0137 9H13.0137C12.4617 9 12.0137 9.448 12.0137 10Z" fill="black" fill-opacity="0.4"/>
<path d="M12 6C12 6.552 12.448 7 13 7H21C21.552 7 22 6.552 22 6C22 5.44801 21.552 5.00001 21 5.00001H13C12.448 5.00001 12 5.44801 12 6Z" fill="black" fill-opacity="0.4"/>
<path d="M13 19C12.4477 19 12 18.5523 12 18C12 17.4477 12.4477 17 13 17H15C15.5523 17 16 17.4477 16 18C16 18.5523 15.5523 19 15 19H13Z" fill="black" fill-opacity="0.4"/>
<path d="M5 5C5 4.448 5.448 4 6 4C6.552 4 7 4.448 7 5V16H10L6 19.9999L2 16H5V5Z" fill="black"/>
</svg>
