<svg width="24" height="24" viewBox="0 0 24 24" fill="none" xmlns="http://www.w3.org/2000/svg">
<path fill-rule="evenodd" clip-rule="evenodd" d="M15 3.25C14.5857 3.25 14.25 3.58579 14.25 4C14.25 4.41421 14.5857 4.75 15 4.75H17.5986L14.3759 9.58397C14.2225 9.81412 14.2082 10.11 14.3387 10.3539C14.4692 10.5978 14.7234 10.75 15 10.75H19C19.4142 10.75 19.75 10.4142 19.75 10C19.75 9.58579 19.4142 9.25 19 9.25H16.4013L19.624 4.41603C19.7774 4.18588 19.7917 3.88997 19.6612 3.64611C19.5307 3.40224 19.2766 3.25 19 3.25H15ZM17 13.25C17.3228 13.25 17.6094 13.4566 17.7115 13.7628L19.7115 19.7628C19.8425 20.1558 19.6301 20.5805 19.2371 20.7115C18.8442 20.8425 18.4194 20.6301 18.2884 20.2372L18.1261 19.75H15.8739L15.7115 20.2372C15.5805 20.6301 15.1557 20.8425 14.7628 20.7115C14.3698 20.5805 14.1575 20.1558 14.2884 19.7628L16.2884 13.7628C16.3905 13.4566 16.6771 13.25 17 13.25ZM17 16.3717L17.6261 18.25H16.3739L17 16.3717Z" fill="black" fill-opacity="0.4"/>
<path fill-rule="evenodd" clip-rule="evenodd" d="M9.00003 3C9.00003 2.44772 8.55232 2 8.00003 2C7.44775 2 7.00003 2.44772 7.00003 3V18.5858L5.00003 16.5858L3.58582 18L7.29292 21.7071C7.39796 21.8122 7.52056 21.889 7.65127 21.9375C7.73769 21.9697 7.82977 21.9902 7.9256 21.9973C7.97514 22.0009 8.02492 22.0009 8.07446 21.9973C8.17107 21.9902 8.26386 21.9693 8.35089 21.9367C8.48081 21.8881 8.60266 21.8116 8.70714 21.7071L12.4142 18L11 16.5858L9.00003 18.5858V3Z" fill="black"/>
</svg>
