<svg width="24" height="24" viewBox="0 0 24 24" fill="none" xmlns="http://www.w3.org/2000/svg">
<path fill-rule="evenodd" clip-rule="evenodd" d="M18.75 4.00002C18.75 3.69668 18.5673 3.4232 18.287 3.30711C18.0068 3.19103 17.6842 3.25519 17.4697 3.46969L15.4697 5.46969C15.1768 5.76259 15.1768 6.23746 15.4697 6.53035C15.7626 6.82325 16.2374 6.82325 16.5303 6.53035L17.25 5.81068V10C17.25 10.4142 17.5858 10.75 18 10.75C18.4142 10.75 18.75 10.4142 18.75 10V4.00002ZM17.5 14.75C17.0858 14.75 16.75 15.0858 16.75 15.5C16.75 15.9142 17.0858 16.25 17.5 16.25C17.9133 16.25 18.2486 15.9156 18.25 15.5026L16.75 15.5H18.25C18.25 15.0858 17.9142 14.75 17.5 14.75ZM19.75 15.5L19.75 15.5044V18.5C19.75 19.7426 18.7426 20.75 17.5 20.75C16.5192 20.75 15.6867 20.1228 15.3782 19.2499C15.2402 18.8594 15.4449 18.4309 15.8354 18.2929C16.226 18.1548 16.6544 18.3595 16.7925 18.7501C16.8958 19.0424 17.1746 19.25 17.5 19.25C17.9142 19.25 18.25 18.9142 18.25 18.5V17.622C18.0154 17.7049 17.763 17.75 17.5 17.75C16.2574 17.75 15.25 16.7426 15.25 15.5C15.25 14.2574 16.2574 13.25 17.5 13.25C18.7426 13.25 19.75 14.2574 19.75 15.5Z" fill="black" fill-opacity="0.4"/>
<path fill-rule="evenodd" clip-rule="evenodd" d="M8 2L4 6H7V21C7 21.5523 7.44772 22 8 22C8.55228 22 9 21.5523 9 21V6H12L8 2Z" fill="black"/>
</svg>
