<svg width="24" height="24" viewBox="0 0 24 24" fill="none" xmlns="http://www.w3.org/2000/svg">
<path fill-rule="evenodd" clip-rule="evenodd" d="M14.2499 4C14.2499 3.58579 14.5857 3.25 14.9999 3.25H18.9999C19.2765 3.25 19.5307 3.40224 19.6612 3.64611C19.7917 3.88997 19.7774 4.18588 19.624 4.41603L16.4013 9.25H18.9999C19.4142 9.25 19.7499 9.58579 19.7499 10C19.7499 10.4142 19.4142 10.75 18.9999 10.75H14.9999C14.7233 10.75 14.4692 10.5978 14.3387 10.3539C14.2082 10.11 14.2225 9.81412 14.3759 9.58397L17.5986 4.75H14.9999C14.5857 4.75 14.2499 4.41421 14.2499 4ZM17 13.25C17.3228 13.25 17.6094 13.4566 17.7115 13.7628L19.7115 19.7628C19.8425 20.1558 19.6301 20.5805 19.2371 20.7115C18.8442 20.8425 18.4194 20.6301 18.2884 20.2372L18.1261 19.75H15.8739L15.7115 20.2372C15.5805 20.6301 15.1557 20.8425 14.7628 20.7115C14.3698 20.5805 14.1575 20.1558 14.2884 19.7628L16.2884 13.7628C16.3905 13.4566 16.6771 13.25 17 13.25ZM16.3739 18.25H17.6261L17 16.3717L16.3739 18.25Z" fill="black" fill-opacity="0.4"/>
<path fill-rule="evenodd" clip-rule="evenodd" d="M9 3C9 2.44772 8.55228 2 8 2C7.44772 2 7 2.44772 7 3V18H4L8 22L12 18H9V3Z" fill="black"/>
</svg>
