<svg width="24" height="24" viewBox="0 0 24 24" fill="none" xmlns="http://www.w3.org/2000/svg">
<path d="M8 2C5.7909 2 4 3.7909 4 6V18C4 20.2091 5.7909 22 8 22H16C18.2091 22 20 20.2091 20 18V6C20 3.7909 18.2091 2 16 2H8ZM12 7C12.5523 7 13 7.4477 13 8C13 8.5523 12.5523 9 12 9C11.4477 9 11 8.5523 11 8C11 7.4477 11.4477 7 12 7ZM12 11C14.2091 11 16 12.7909 16 15C16 17.2091 14.2091 19 12 19C9.7909 19 8 17.2091 8 15C8 12.7909 9.7909 11 12 11Z" fill="black" fill-opacity="0.4"/>
<path fill-rule="evenodd" clip-rule="evenodd" d="M12 9C12.5523 9 13 8.55228 13 8C13 7.44772 12.5523 7 12 7C11.4477 7 11 7.44772 11 8C11 8.55228 11.4477 9 12 9ZM12 17C13.1046 17 14 16.1046 14 15C14 13.8954 13.1046 13 12 13C10.8954 13 10 13.8954 10 15C10 16.1046 10.8954 17 12 17Z" fill="black"/>
</svg>
