<svg width="24" height="24" viewBox="0 0 24 24" fill="none" xmlns="http://www.w3.org/2000/svg">
<path d="M12.0096 2.44141C11.4387 2.44121 10.8557 2.79641 10.5104 3.50341L8.38646 7.87611L3.54525 8.56321C1.98835 8.77981 1.48395 10.3072 2.60825 11.4052L6.10636 14.8102L5.29435 19.5892C5.02695 21.1362 6.31005 22.0712 7.69935 21.3382C8.23616 21.0542 10.9963 19.6242 12.0096 19.0892L16.3198 21.3382C17.7107 22.0712 18.9978 21.1372 18.7248 19.5892L17.8815 14.8102L21.3797 11.4052C22.5093 10.3112 22.0309 8.78421 20.4739 8.56321L15.6015 7.87611L13.5088 3.50341C13.164 2.79611 12.5805 2.44171 12.0096 2.44141ZM12.0096 5.03381L14.071 9.25041C14.2164 9.54871 14.4921 9.73481 14.8206 9.78141L19.5057 10.4682L16.1012 13.7482C15.8629 13.9792 15.7625 14.2962 15.8201 14.6222L16.6322 19.2452L12.4781 17.0592C12.1863 16.9052 11.8328 16.9052 11.5411 17.0592C11.0228 17.3322 8.48956 18.6632 7.38696 19.2452L8.16786 14.6542C8.22375 14.3292 8.12206 13.9782 7.88676 13.7482L4.51345 10.4682L9.16726 9.81261C9.49666 9.76681 9.80216 9.54921 9.94816 9.25041L12.0096 5.03381Z" fill="black"/>
</svg>
