<svg width="24" height="24" viewBox="0 0 24 24" fill="none" xmlns="http://www.w3.org/2000/svg">
<path fill-rule="evenodd" clip-rule="evenodd" d="M11 2C8.79086 2 7 3.79083 7 6V16C7 18.2092 8.79086 20 11 20V21C11 21.5523 11.4477 22 12 22C12.5523 22 13 21.5523 13 21V20C15.2091 20 17 18.2092 17 16V6C17 3.79083 15.2091 2 13 2H11Z" fill="black" fill-opacity="0.4"/>
<path fill-rule="evenodd" clip-rule="evenodd" d="M6 7C6 6.44772 6.44772 6 7 6V8C6.44772 8 6 7.55228 6 7ZM6 11C6 10.4477 6.44772 10 7 10V12C6.44772 12 6 11.5523 6 11ZM7 14C6.44772 14 6 14.4477 6 15C6 15.5523 6.44772 16 7 16V14ZM18 7C18 6.44772 17.5523 6 17 6V8C17.5523 8 18 7.55228 18 7ZM17 10C17.5523 10 18 10.4477 18 11C18 11.5523 17.5523 12 17 12V10ZM18 15C18 14.4477 17.5523 14 17 14V16C17.5523 16 18 15.5523 18 15ZM12 8C12.5523 8 13 7.55228 13 7C13 6.44772 12.5523 6 12 6C11.4477 6 11 6.44772 11 7C11 7.55228 11.4477 8 12 8ZM13 11C13 11.5523 12.5523 12 12 12C11.4477 12 11 11.5523 11 11C11 10.4477 11.4477 10 12 10C12.5523 10 13 10.4477 13 11ZM12 16C12.5523 16 13 15.5523 13 15C13 14.4477 12.5523 14 12 14C11.4477 14 11 14.4477 11 15C11 15.5523 11.4477 16 12 16Z" fill="black"/>
</svg>
