<svg width="24" height="24" viewBox="0 0 24 24" fill="none" xmlns="http://www.w3.org/2000/svg">
<path fill-rule="evenodd" clip-rule="evenodd" d="M5.97352 5H7V8.5L5.28651 6.7215C4.67446 6.08622 5.10794 5 5.97352 5ZM18.0265 5H17V8.5L18.7135 6.7215C19.3255 6.08622 18.8921 5 18.0265 5ZM7 10H5.97352C5.10794 10 4.67446 11.0862 5.28651 11.7215L7 13.5V10ZM18.0265 10H17V13.5L18.7135 11.7215C19.3255 11.0862 18.8921 10 18.0265 10ZM7 15H5.97352C5.10794 15 4.67446 16.0862 5.28651 16.7215L7 18.5V15ZM18.0265 15H17V18.5L18.7135 16.7215C19.3255 16.0862 18.8921 15 18.0265 15ZM12 8C12.5523 8 13 7.55228 13 7C13 6.44772 12.5523 6 12 6C11.4477 6 11 6.44772 11 7C11 7.55228 11.4477 8 12 8ZM12 18C12.5523 18 13 17.5523 13 17C13 16.4477 12.5523 16 12 16C11.4477 16 11 16.4477 11 17C11 17.5523 11.4477 18 12 18ZM14 12C14 13.1046 13.1046 14 12 14C10.8954 14 10 13.1046 10 12C10 10.8954 10.8954 10 12 10C13.1046 10 14 10.8954 14 12Z" fill="black"/>
<path d="M7 5C7 3.34315 8.34315 2 10 2H14C15.6569 2 17 3.34315 17 5V19C17 20.6569 15.6569 22 14 22H10C8.34315 22 7 20.6569 7 19V5Z" fill="black" fill-opacity="0.4"/>
</svg>
