<svg width="24" height="24" viewBox="0 0 24 24" fill="none" xmlns="http://www.w3.org/2000/svg">
<path d="M12 3C9.23899 3 6.99999 5.239 6.99999 8C6.99999 8.063 6.998 8.04001 7.001 8.09801C4.721 8.56301 3 10.583 3 13C3 15.761 5.239 18 7.99999 18C8.24099 18 8.486 17.975 8.717 17.931C8.662 18.135 8.632 18.231 8.562 18.438C8.461 18.739 8.35799 18.997 8.24999 19.25C8.18699 19.398 8.11699 19.515 8.09399 19.562C7.76599 20.227 8.25899 21 8.99999 21H15C15.752 21 16.225 20.197 15.875 19.531C15.853 19.49 15.811 19.387 15.75 19.25C15.644 19.013 15.537 18.759 15.438 18.469C15.365 18.256 15.333 18.144 15.276 17.932C15.506 17.981 15.774 18 16 18C18.761 18 21 15.761 21 13C21 10.583 19.283 8.557 17.003 8.092C17.006 8.034 17 8.063 17 8C17 5.239 14.761 3 12 3ZM12 5C13.657 5 15 6.343 15 8C15 8.111 14.964 8.23001 14.875 8.53101C14.866 8.56201 14.827 8.72701 14.812 8.78101C14.633 9.44001 15.162 10.07 15.844 10.031C15.903 10.028 15.952 10.008 16 10C17.657 10 19 11.343 19 13C19 14.657 17.657 16 16 16C15.585 16 15.066 15.754 14.812 15.406C14.246 14.627 13.009 15.036 13 16C12.991 16.996 13.195 18.021 13.523 19.014L10.461 18.995C10.755 18.105 10.959 17.229 11 16.375C11.006 16.253 11.001 16.12 11 16C10.995 15.034 9.75598 14.625 9.18798 15.406C8.89098 15.813 8.49499 16 7.99999 16C6.34299 16 5 14.657 5 13C5 11.354 6.32599 10.017 7.96899 10C8.01599 10.009 8.086 10.027 8.156 10.031C8.838 10.07 9.36698 9.44001 9.18798 8.78101C9.17298 8.72701 9.13399 8.56201 9.12499 8.53101C9.03599 8.23001 8.99999 8.111 8.99999 8C8.99999 6.343 10.343 5 12 5Z" fill="black"/>
</svg>
