<svg width="24" height="24" viewBox="0 0 24 24" fill="none" xmlns="http://www.w3.org/2000/svg">
<path d="M12 2C11.1626 2 10.3293 2.399 9.71528 3.188L4.83235 9.469C3.72255 10.893 3.72255 13.107 4.83235 14.531L9.71528 20.812C10.9443 22.39 13.0557 22.39 14.2847 20.812L19.1676 14.531C20.2775 13.107 20.2775 10.893 19.1676 9.469L14.2847 3.188C13.6707 2.399 12.8374 2 12 2ZM12 4C12.2474 4 12.5068 4.13201 12.7202 4.40601L17.6031 10.688C18.149 11.389 18.149 12.611 17.6031 13.312L12.7202 19.594C12.2935 20.142 11.7065 20.142 11.2798 19.594L6.3969 13.312C5.85102 12.611 5.85102 11.389 6.3969 10.688L11.2798 4.40601C11.4932 4.13201 11.7526 4 12 4Z" fill="black"/>
<path d="M12.0001 4C12.2475 4 12.5069 4.13201 12.7202 4.40601L17.6032 10.688C18.149 11.389 18.149 12.611 17.6032 13.312L12.7202 19.594C12.2935 20.142 11.7066 20.142 11.2799 19.594L6.39696 13.312C5.85108 12.611 5.85108 11.389 6.39696 10.688L11.2799 4.40601C11.4932 4.13201 11.7527 4 12.0001 4Z" fill="black" fill-opacity="0.4"/>
</svg>
