<svg width="24" height="24" viewBox="0 0 24 24" fill="none" xmlns="http://www.w3.org/2000/svg">
<path d="M5.625 6.58948C5.369 6.58948 5.13299 6.6757 4.93799 6.87118C4.54699 7.26314 4.54699 7.92176 4.93799 8.31272L6.28101 9.66005C6.67201 10.051 7.32899 10.051 7.71899 9.66005C8.10899 9.26809 8.10999 8.64054 7.71899 8.24958L6.34399 6.87118C6.14799 6.6757 5.881 6.58948 5.625 6.58948ZM18.344 6.58948C18.088 6.58948 17.852 6.70677 17.656 6.90325L16.281 8.24958C15.891 8.64154 15.891 9.26809 16.281 9.66005C16.672 10.051 17.328 10.051 17.719 9.66005L19.062 8.31272C19.453 7.92075 19.453 7.29422 19.062 6.90325C18.867 6.70677 18.6 6.58948 18.344 6.58948ZM3 12.9802C2.448 12.9802 2 13.4293 2 13.9827C2 14.5361 2.448 14.9852 3 14.9852H5C5.552 14.9852 6 14.5361 6 13.9827C6 13.4293 5.552 12.9802 5 12.9802H3ZM19 12.9802C18.448 12.9802 18 13.4293 18 13.9827C18 14.5361 18.448 14.9852 19 14.9852H21C21.552 14.9852 22 14.5361 22 13.9827C22 13.4293 21.552 12.9802 21 12.9802H19ZM9 18.9951C8.448 18.9951 8 19.4442 8 19.9975C8 20.5509 8.448 21 9 21H15C15.552 21 16 20.5509 16 19.9975C16 19.4442 15.552 18.9951 15 18.9951H9Z" fill="black" fill-opacity="0.4"/>
<path d="M11.9859 2C11.9859 2 11.6819 2.30575 11.4859 2.50124L8.9859 5.00741C9.28101 5.00741 9.4859 5.00741 9.9859 5.00741C10.4054 5.00741 10.4859 5.00741 10.9859 5.00741L11 5.39954V6.9654C11 7.51876 11.448 7.96787 12 7.96787C12.552 7.96787 13 7.51876 13 6.9654V5.00741H13.9859C13.9859 5.00741 14.9859 5.00741 15 5.00741C15 5.00741 14.8759 4.89815 14.4859 4.50618L12.9859 3.00247C12.7899 2.80699 12.4859 2.50124 11.9859 2ZM12 8.97034C9.239 8.97034 7 11.2149 7 13.9827C7 14.8789 7.24699 15.73 7.68799 16.4889C7.86799 16.7996 8.17301 16.9921 8.53101 16.9901C9.84101 16.9821 13.764 16.9851 15.469 16.9901C15.826 16.9911 16.133 16.7986 16.312 16.4889C16.751 15.732 17 14.8759 17 13.9827C17 11.2149 14.761 8.97034 12 8.97034ZM12 10.9753C13.657 10.9753 15 12.3216 15 13.9827C15 14.3426 14.957 14.6644 14.837 14.9912C13.168 14.9892 10.609 14.9892 9.18201 14.9942C9.06201 14.6654 9 14.3426 9 13.9827C9 12.3216 10.343 10.9753 12 10.9753Z" fill="black"/>
</svg>
