<svg width="24" height="24" viewBox="0 0 24 24" fill="none" xmlns="http://www.w3.org/2000/svg">
<path d="M5.625 6.58948C5.369 6.58948 5.13299 6.6757 4.93799 6.87118C4.54699 7.26314 4.54699 7.92176 4.93799 8.31272L6.28101 9.66005C6.67201 10.051 7.32899 10.051 7.71899 9.66005C8.10899 9.26809 8.10999 8.64054 7.71899 8.24958L6.34399 6.87118C6.14799 6.6757 5.881 6.58948 5.625 6.58948ZM18.344 6.58948C18.088 6.58948 17.852 6.70677 17.656 6.90325L16.281 8.24958C15.891 8.64154 15.891 9.26809 16.281 9.66005C16.672 10.051 17.328 10.051 17.719 9.66005L19.062 8.31272C19.453 7.92075 19.453 7.29422 19.062 6.90325C18.867 6.70677 18.6 6.58948 18.344 6.58948ZM3 12.9802C2.448 12.9802 2 13.4293 2 13.9827C2 14.5361 2.448 14.9852 3 14.9852H5C5.552 14.9852 6 14.5361 6 13.9827C6 13.4293 5.552 12.9802 5 12.9802H3ZM19 12.9802C18.448 12.9802 18 13.4293 18 13.9827C18 14.5361 18.448 14.9852 19 14.9852H21C21.552 14.9852 22 14.5361 22 13.9827C22 13.4293 21.552 12.9802 21 12.9802H19ZM9 18.9951C8.448 18.9951 8 19.4442 8 19.9975C8 20.5509 8.448 21 9 21H15C15.552 21 16 20.5509 16 19.9975C16 19.4442 15.552 18.9951 15 18.9951H9Z" fill="black" fill-opacity="0.4"/>
<path d="M11.9859 7.9718C10.9876 6.96703 9.9859 5.96553 8.9859 4.9624C9.65257 4.9624 10.3192 4.9624 10.9859 4.9624L11 3.00313C11 2.4494 11.448 2 12 2C12.552 2 13 2.4494 13 3.00313V4.9624C13.6667 4.9624 14.3333 4.9624 15 4.9624C13.9378 5.89825 12.9857 6.96887 11.9859 7.9718ZM12 8.97493C9.239 8.97493 7 11.2209 7 13.9906C7 14.8874 7.24699 15.739 7.68799 16.4984C7.86799 16.8094 8.17301 17.002 8.53101 17C9.84101 16.992 13.764 16.995 15.469 17C15.826 17.001 16.133 16.8084 16.312 16.4984C16.751 15.7411 17 14.8844 17 13.9906C17 11.2209 14.761 8.97493 12 8.97493Z" fill="black"/>
</svg>
