<svg width="24" height="24" viewBox="0 0 24 24" fill="none" xmlns="http://www.w3.org/2000/svg">
<path d="M12 2C6.477 2 2 6.477 2 12C2 17.523 6.477 22 12 22C17.523 22 22 17.523 22 12C22 6.477 17.523 2 12 2ZM12 4C16.418 4 20 7.582 20 12C20 16.418 16.418 20 12 20C7.582 20 4 16.418 4 12C4 7.582 7.582 4 12 4Z" fill="black" fill-opacity="0.4"/>
<path d="M11.9691 7C10.585 7 9.38177 7.91199 9.03322 9.21899C8.89077 9.75299 9.22013 10.328 9.75861 10.469C10.2981 10.61 10.8477 10.284 10.9902 9.75C11.1063 9.316 11.5074 9 11.9691 9C12.5258 9 12.9774 9.444 12.9794 10C12.9814 10.478 12.7147 10.978 12.1904 11.5C12.055 11.634 11.8863 11.765 11.7165 11.906C11.6317 11.977 11.3842 12.18 11.3377 12.219C10.9114 12.575 10.8517 13.234 11.2114 13.656C11.5711 14.079 12.2055 14.106 12.6319 13.75C12.6622 13.725 12.942 13.522 13.042 13.438C13.2542 13.261 13.429 13.087 13.6108 12.906C14.4787 12.044 15.004 11.109 15 10C14.9939 8.344 13.6411 7 11.9691 7ZM11.9691 15C11.4114 15 10.9588 15.448 10.9588 16C10.9588 16.552 11.4114 17 11.9691 17C12.5268 17 12.9794 16.552 12.9794 16C12.9794 15.448 12.5268 15 11.9691 15Z" fill="black"/>
</svg>
