<svg width="24" height="24" viewBox="0 0 24 24" fill="none" xmlns="http://www.w3.org/2000/svg">
<path d="M12 2L9.15632 2.01569C8.37702 2.0197 7.42362 2.43201 6.87502 2.98543L2.93752 6.92644C2.38892 7.47986 1.99662 8.46062 2.00002 9.24022L2.03132 14.8385C2.03472 15.6181 2.44662 16.5718 3.00002 17.1212L6.93752 21.0623C7.49092 21.6107 8.47082 22.003 9.25002 22H12V2Z" fill="black"/>
<path d="M12 2L14.8437 2.01569C15.623 2.0197 16.5764 2.43201 17.125 2.98543L21.0625 6.92644C21.6111 7.47986 22.0034 8.46062 22 9.24022L21.9687 14.8385C21.9653 15.6181 21.5534 16.5718 21 17.1212L17.0625 21.0623C16.5091 21.6107 15.5292 22.003 14.75 22H12V2Z" fill="black" fill-opacity="0.4"/>
</svg>
