<svg width="24" height="24" viewBox="0 0 24 24" fill="none" xmlns="http://www.w3.org/2000/svg">
<path fill-rule="evenodd" clip-rule="evenodd" d="M12 2C9.79086 2 8 3.79086 8 6H5C3.89543 6 3 6.89543 3 8V18C3 20.2091 4.79086 22 7 22H17C19.2091 22 21 20.2091 21 18V8C21 6.89543 20.1046 6 19 6H16C16 3.79086 14.2091 2 12 2ZM14 6C14 4.89543 13.1046 4 12 4C10.8954 4 10 4.89543 10 6H14Z" fill="black" fill-opacity="0.4"/>
<path fill-rule="evenodd" clip-rule="evenodd" d="M15.7071 11.2929C16.0976 11.6834 16.0976 12.3166 15.7071 12.7071L11.7072 16.7071C11.3166 17.0976 10.6835 17.0976 10.293 16.7071L8.2929 14.7071C7.90237 14.3166 7.90236 13.6834 8.29288 13.2929C8.6834 12.9024 9.31657 12.9024 9.7071 13.2929L11 14.5858L14.2929 11.2929C14.6834 10.9024 15.3166 10.9024 15.7071 11.2929Z" fill="black"/>
</svg>
