<svg width="24" height="24" viewBox="0 0 24 24" fill="none" xmlns="http://www.w3.org/2000/svg">
<path fill-rule="evenodd" clip-rule="evenodd" d="M5 2C5.55228 2 6 2.44772 6 3V21C6 21.5523 5.55228 22 5 22C4.44772 22 4 21.5523 4 21V3C4 2.44772 4.44772 2 5 2Z" fill="black" fill-opacity="0.4"/>
<path d="M8.9978 3C8.4455 3 7.9978 3.448 7.9978 4C7.9978 4.553 8.4455 5.00101 8.9978 5.00001H12.9978C13.5501 5.00001 13.9978 4.553 13.9978 4C13.9978 3.448 13.5501 3 12.9978 3H8.9978ZM9.9978 8.00002C9.4455 8.00002 8.9978 8.44802 8.9978 9.00002C8.9978 9.55302 9.4455 10.001 9.9978 10C11.0595 10 15.2262 10 15.9978 10C16.5501 10 16.9978 9.55302 16.9978 9.00002C16.9978 8.44802 16.5501 8.00002 15.9978 8.00002C15.2262 8.00002 11.0595 8.00002 9.9978 8.00002ZM10.9978 13C10.4455 13 9.9978 13.448 9.9978 14C9.9978 14.553 10.4455 15.001 10.9978 15C11.9162 15 15.3447 15 15.9978 15C16.5501 15 16.9978 14.553 16.9978 14C16.9978 13.448 16.5501 13 15.9978 13C15.3447 13 11.9162 13 10.9978 13ZM11.9978 18C11.4455 18 10.9978 18.448 10.9978 19C10.9978 19.5531 11.4455 20.0011 11.9978 20.0001H18.9978C19.5501 20.0001 19.9978 19.5531 19.9978 19C19.9978 18.448 19.5501 18 18.9978 18H11.9978Z" fill="black"/>
</svg>
