<svg width="24" height="24" viewBox="0 0 24 24" fill="none" xmlns="http://www.w3.org/2000/svg">
<path fill-rule="evenodd" clip-rule="evenodd" d="M2 19C2 18.4477 2.44772 18 3 18L21 18C21.5523 18 22 18.4477 22 19C22 19.5523 21.5523 20 21 20L3 20C2.44772 20 2 19.5523 2 19Z" fill="black"/>
<path fill-rule="evenodd" clip-rule="evenodd" d="M16 6C16 4.89543 16.8954 4 18 4H20C21.1046 4 22 4.89543 22 6V19C22 18.4477 21.5523 18 21 18H20V6L18 6V18H16V6ZM15 18V9C15 7.89543 14.1046 7 13 7H11C9.89543 7 9 7.89543 9 9V18H11V9H13V18H15ZM8 18V13C8 11.8954 7.10457 11 6 11H4C2.89543 11 2 11.8954 2 13V19C2 18.4477 2.44772 18 3 18H4V13H6V18H8Z" fill="black" fill-opacity="0.4"/>
</svg>
