<svg width="24" height="24" viewBox="0 0 24 24" fill="none" xmlns="http://www.w3.org/2000/svg">
<path fill-rule="evenodd" clip-rule="evenodd" d="M5 2C5.55228 2 6 2.44772 6 3V21C6 21.5523 5.55228 22 5 22C4.44772 22 4 21.5523 4 21V3C4 2.44772 4.44772 2 5 2Z" fill="black" fill-opacity="0.4"/>
<path d="M9.4978 2.9989C8.6694 2.9989 7.9978 3.6709 7.9978 4.49891C7.9978 5.32691 8.6694 5.99891 9.4978 5.99891H12.4978C13.3262 5.99891 13.9978 5.32691 13.9978 4.49891C13.9978 3.6709 13.3262 2.9989 12.4978 2.9989H9.4978ZM10.4978 7.99892C9.6694 7.99892 8.9978 8.67092 8.9978 9.49892C8.9978 10.3269 9.6694 10.9989 10.4978 10.9989H15.4978C16.3262 10.9989 16.9978 10.3269 16.9978 9.49892C16.9978 8.67092 16.3262 7.99892 15.4978 7.99892H10.4978ZM11.4978 12.9989C10.6694 12.9989 9.9978 13.6709 9.9978 14.4989C9.9978 15.3269 10.6694 15.9989 11.4978 15.9989H15.4978C16.3262 15.9989 16.9978 15.3269 16.9978 14.4989C16.9978 13.6709 16.3262 12.9989 15.4978 12.9989H11.4978ZM12.4978 17.9989C11.6694 17.9989 10.9978 18.6709 10.9978 19.499C10.9978 20.327 11.6694 20.999 12.4978 20.999H18.4978C19.3262 20.999 19.9978 20.327 19.9978 19.499C19.9978 18.6709 19.3262 17.9989 18.4978 17.9989H12.4978Z" fill="black"/>
</svg>
