<svg width="24" height="24" viewBox="0 0 24 24" fill="none" xmlns="http://www.w3.org/2000/svg">
<path fill-rule="evenodd" clip-rule="evenodd" d="M7.50239 3.10579C7.99637 3.35278 8.19659 3.95345 7.9496 4.44743L6.67332 7H17.3819L16.1056 4.44743C15.8586 3.95345 16.0588 3.35278 16.5528 3.10579C17.0468 2.8588 17.6474 3.05903 17.8944 3.55301L19.6536 7.07141C20.9962 7.36973 22 8.56764 22 10C22 10.8885 21.6137 11.6868 21 12.2361V17.0002C21 19.2094 19.2091 21.0002 17 21.0002H7C4.79086 21.0002 3 19.2094 3 17.0002V12.2361C2.38625 11.6868 2 10.8885 2 10C2 8.54578 3.0347 7.33323 4.40806 7.05839L6.16075 3.55301C6.40774 3.05903 7.00841 2.8588 7.50239 3.10579ZM19.6421 7.06887C19.5917 7.04842 19.5108 7.03404 19.3807 7.02393C19.4691 7.03512 19.5563 7.05016 19.6421 7.06887ZM5 13H19V17.0002C19 18.1048 18.1046 19.0002 17 19.0002H7C5.89543 19.0002 5 18.1048 5 17.0002V13ZM5 9C4.44772 9 4 9.44772 4 10C4 10.5523 4.44772 11 5 11H19C19.5523 11 20 10.5523 20 10C20 9.44772 19.5523 9 19 9H5Z" fill="black" fill-opacity="0.4"/>
<path fill-rule="evenodd" clip-rule="evenodd" d="M8 14C8.55228 14 9 14.4477 9 15V17C9 17.5523 8.55228 18 8 18C7.44772 18 7 17.5523 7 17V15C7 14.4477 7.44772 14 8 14ZM12 14C12.5523 14 13 14.4477 13 15V17C13 17.5523 12.5523 18 12 18C11.4477 18 11 17.5523 11 17V15C11 14.4477 11.4477 14 12 14ZM17 15C17 14.4477 16.5523 14 16 14C15.4477 14 15 14.4477 15 15V17C15 17.5523 15.4477 18 16 18C16.5523 18 17 17.5523 17 17V15Z" fill="black"/>
</svg>
