<svg width="24" height="24" viewBox="0 0 24 24" fill="none" xmlns="http://www.w3.org/2000/svg">
<path d="M3 13C4 18 4.375 18.719 4.375 18.719C4.926 20.005 6.41401 21 7.81201 21H16.188C17.586 21 19.074 20.004 19.625 18.719C19.625 18.719 20 18 21 13C20.722 13 17.77 13 16 13V16C16 16.552 15.552 17 15 17C14.448 17 14 16.552 14 16V13C12.337 13 11.761 13 10 13V16C10 16.552 9.552 17 9 17C8.448 17 8 16.552 8 16V13C5.984 13 3.833 13 3 13Z" fill="black" fill-opacity="0.4"/>
<path fill-rule="evenodd" clip-rule="evenodd" d="M7.44719 3.10579C7.94117 3.35278 8.14139 3.95345 7.8944 4.44743L6.618 7.00024H17.382L16.1055 4.44743C15.8586 3.95345 16.0588 3.35278 16.5528 3.10579C17.0467 2.8588 17.6474 3.05903 17.8944 3.55301L19.618 7.00024H20C21.1046 7.00024 22 7.89568 22 9.00024V11.0002H2V9.00024C2 7.89568 2.89543 7.00024 4 7.00024H4.38193L6.10555 3.55301C6.35254 3.05903 6.95321 2.8588 7.44719 3.10579Z" fill="black"/>
</svg>
