<svg width="24" height="24" viewBox="0 0 24 24" fill="none" xmlns="http://www.w3.org/2000/svg">
<path fill-rule="evenodd" clip-rule="evenodd" d="M12 7C11.4477 7 11 7.44772 11 8C11 8.55228 11.4477 9 12 9C12.5523 9 13 8.55228 13 8C13 7.44772 12.5523 7 12 7ZM9 8C9 6.34315 10.3431 5 12 5C13.6569 5 15 6.34315 15 8C15 9.65685 13.6569 11 12 11C10.3431 11 9 9.65685 9 8ZM5 16C4.44772 16 4 16.4477 4 17C4 17.5523 4.44772 18 5 18C5.55228 18 6 17.5523 6 17C6 16.4477 5.55228 16 5 16ZM2 17C2 15.3431 3.34315 14 5 14C6.65685 14 8 15.3431 8 17C8 18.6569 6.65685 20 5 20C3.34315 20 2 18.6569 2 17ZM18 17C18 16.4477 18.4477 16 19 16C19.5523 16 20 16.4477 20 17C20 17.5523 19.5523 18 19 18C18.4477 18 18 17.5523 18 17ZM19 14C17.3431 14 16 15.3431 16 17C16 18.6569 17.3431 20 19 20C20.6569 20 22 18.6569 22 17C22 15.3431 20.6569 14 19 14Z" fill="black"/>
<path fill-rule="evenodd" clip-rule="evenodd" d="M14.8293 7C14.9398 7.31278 15 7.64936 15 8C15 8.57564 14.8379 9.11341 14.5568 9.57014C16.3594 10.4204 17.6695 12.1421 17.9458 14.1904C18.2738 14.0673 18.629 14 19 14C19.3342 14 19.6557 14.0547 19.956 14.1555C19.7412 12.1077 18.754 10.2906 17.2914 9H18.2676C18.6134 9.5978 19.2597 10 20 10C21.1046 10 22 9.10457 22 8C22 6.89543 21.1046 6 20 6C19.2597 6 18.6134 6.4022 18.2676 7H14.8293ZM9.44321 9.57014C9.16213 9.11341 9 8.57564 9 8C9 7.64936 9.06015 7.31278 9.17071 7H5.73244C5.38663 6.4022 4.74028 6 4 6C2.89543 6 2 6.89543 2 8C2 9.10457 2.89543 10 4 10C4.74028 10 5.38663 9.5978 5.73244 9H6.70862C5.24605 10.2906 4.25882 12.1077 4.04403 14.1555C4.34429 14.0547 4.66576 14 5 14C5.37097 14 5.72621 14.0673 6.05417 14.1904C6.33049 12.1421 7.64062 10.4204 9.44321 9.57014Z" fill="black" fill-opacity="0.4"/>
</svg>
