<svg width="24" height="24" viewBox="0 0 24 24" fill="none" xmlns="http://www.w3.org/2000/svg">
<path fill-rule="evenodd" clip-rule="evenodd" d="M8 2C5.79086 2 4 3.79086 4 6V20.9784C4.00842 20.5986 4.23409 20.2403 4.60609 20.0809L6 19.4835V6C6 4.89543 6.89543 4 8 4H16C17.1046 4 18 4.89543 18 6V19.4835L19.3939 20.0809C19.7656 20.2401 19.9912 20.5979 20 20.9774V6C20 3.79086 18.2091 2 16 2H8Z" fill="black" fill-opacity="0.4"/>
<path fill-rule="evenodd" clip-rule="evenodd" d="M11.6061 17.0809C11.8576 16.973 12.1424 16.973 12.3939 17.0809L19.3939 20.0809C19.9016 20.2984 20.1367 20.8863 19.9192 21.3939C19.7016 21.9015 19.1137 22.1367 18.6061 21.9191L12 19.088L5.39393 21.9191C4.8863 22.1367 4.29842 21.9015 4.08087 21.3939C3.86331 20.8863 4.09846 20.2984 4.60609 20.0809L11.6061 17.0809Z" fill="black"/>
</svg>
