<svg width="24" height="24" viewBox="0 0 24 24" fill="none" xmlns="http://www.w3.org/2000/svg">
<path fill-rule="evenodd" clip-rule="evenodd" d="M3 7C3 4.79086 4.79086 3 7 3H12H17C19.2091 3 21 4.79086 21 7V11H19V7C19 5.89543 18.1046 5 17 5H13V11H11V5H7C5.89543 5 5 5.89543 5 7V11H3V7ZM3 13V17C3 19.2091 4.79086 21 7 21H12H17C19.2091 21 21 19.2091 21 17V13H19V17C19 18.1046 18.1046 19 17 19H13V13H11V19H7C5.89543 19 5 18.1046 5 17V13H3Z" fill="black" fill-opacity="0.4"/>
<path fill-rule="evenodd" clip-rule="evenodd" d="M3 11H21V13H3V11Z" fill="black"/>
</svg>
