<svg width="24" height="24" viewBox="0 0 24 24" fill="none" xmlns="http://www.w3.org/2000/svg">
<path fill-rule="evenodd" clip-rule="evenodd" d="M7 21C4.79086 21 3 19.2091 3 17V12L3 7C3 4.79086 4.79086 3 7 3H11V5H7C5.89543 5 5 5.89543 5 7L5 11H11V13H5V17C5 18.1046 5.89543 19 7 19H11V21H7ZM13 21H17C19.2091 21 21 19.2091 21 17V12V7C21 4.79086 19.2091 3 17 3H13V5H17C18.1046 5 19 5.89543 19 7V11L13 11V13H19V17C19 18.1046 18.1046 19 17 19H13V21Z" fill="black" fill-opacity="0.4"/>
<path fill-rule="evenodd" clip-rule="evenodd" d="M11 21L11 3H13V21H11Z" fill="black"/>
</svg>
