<svg width="24" height="24" viewBox="0 0 24 24" fill="none" xmlns="http://www.w3.org/2000/svg">
<path fill-rule="evenodd" clip-rule="evenodd" d="M13 19.3564C13.116 19.3154 13.2301 19.267 13.3416 19.2112L17.8944 16.9348C18.572 16.596 19 15.9035 19 15.146V9.61806L20.4472 8.89446C20.786 8.72507 21 8.3788 21 8.00003V15.146C21 16.6611 20.144 18.0461 18.7889 18.7237L14.2361 21.0001C12.8284 21.7039 11.1716 21.7039 9.76393 21.0001L5.21115 18.7237C3.85601 18.0461 3 16.6611 3 15.146V8.00007C3.00002 8.37883 3.21402 8.72507 3.55279 8.89446L5 9.61806V15.146C5 15.9035 5.428 16.596 6.10557 16.9348L10.6584 19.2112C10.7699 19.267 10.884 19.3154 11 19.3564V20.5C11 21.0523 11.4477 21.5 12 21.5C12.5523 21.5 13 21.0523 13 20.5V19.3564Z" fill="black" fill-opacity="0.4"/>
<path fill-rule="evenodd" clip-rule="evenodd" d="M10.6584 5.78531C11.5029 5.36367 12.4971 5.36367 13.3416 5.78531L17.7639 7.99304L13.3416 10.2008C12.4971 10.6224 11.5029 10.6224 10.6584 10.2008L6.23607 7.99304L10.6584 5.78531ZM14.2361 3.99922C12.8284 3.29649 11.1716 3.29648 9.76393 3.99922L3.55279 7.1C3.214 7.26913 3 7.61485 3 7.99304C3 8.37123 3.214 8.71696 3.55279 8.88609L9.76393 11.9869C10.1599 12.1846 10.5757 12.3266 11 12.4131V20.4737C11 21.0251 11.4477 21.4722 12 21.4722C12.5523 21.4722 13 21.0251 13 20.4737V12.4131C13.4243 12.3266 13.8401 12.1846 14.2361 11.9869L20.4472 8.88609C20.786 8.71696 21 8.37123 21 7.99304C21 7.61485 20.786 7.26913 20.4472 7.1L14.2361 3.99922Z" fill="black"/>
</svg>
