<svg width="24" height="24" viewBox="0 0 24 24" fill="none" xmlns="http://www.w3.org/2000/svg">
<path d="M12 9.00488C8.686 9.00488 6 11.6909 6 15.0049C6 15.5569 6.448 16.0049 7 16.0049C7.5 16.0049 16.426 16.0049 17 16.0049C17.552 16.0049 18 15.5569 18 15.0049C18 11.6909 15.314 9.00488 12 9.00488ZM12 11.0049C13.857 11.0049 15.424 12.2899 15.875 14.0049C14.105 14.0049 9.852 14.0049 8.125 14.0049C8.576 12.2899 10.143 11.0049 12 11.0049Z" fill="black"/>
<path d="M12 6C11.448 6 11 6.448 11 7C11 7.552 11.448 8 12 8C12.552 8 13 7.552 13 7C13 6.448 12.552 6 12 6ZM6 8C5.448 8 5 8.448 5 9C5 9.552 5.448 10 6 10C6.552 10 7 9.552 7 9C7 8.448 6.552 8 6 8ZM18 8C17.448 8 17 8.448 17 9C17 9.552 17.448 10 18 10C18.552 10 19 9.552 19 9C19 8.448 18.552 8 18 8ZM4 14C3.448 14 3 14.448 3 15C3 15.552 3.448 16 4 16C4.552 16 5 15.552 5 15C5 14.448 4.552 14 4 14ZM20 14C19.448 14 19 14.448 19 15C19 15.552 19.448 16 20 16C20.552 16 21 15.552 21 15C21 14.448 20.552 14 20 14Z" fill="black" fill-opacity="0.4"/>
</svg>
