<svg width="24" height="24" viewBox="0 0 24 24" fill="none" xmlns="http://www.w3.org/2000/svg">
<path fill-rule="evenodd" clip-rule="evenodd" d="M3 7C3 4.791 4.7909 3 7 3H17C19.209 3 21 4.791 21 7V17C21 19.209 19.209 21 17 21H7C4.7909 21 3 19.209 3 17V7ZM17 5H7C5.8954 5 5 5.895 5 7V17C5 18.105 5.8954 19 7 19H17C18.105 19 19 18.105 19 17V7C19 5.895 18.105 5 17 5ZM8 6.99998C7.44772 6.99998 7 7.4477 7 7.99998C7 8.55227 7.44772 8.99998 8 8.99998H16C16.5523 8.99998 17 8.55227 17 7.99998C17 7.4477 16.5523 6.99998 16 6.99998H8Z" fill="black" fill-opacity="0.4"/>
<path fill-rule="evenodd" clip-rule="evenodd" d="M9 2.99923C9 2.44737 8.55228 2 8 2C7.44772 2 7 2.44737 7 2.99923V3.99847C7 4.55033 7.44772 4.9977 8 4.9977C8.55228 4.9977 9 4.55033 9 3.99847V2.99923ZM17 2.99923C17 2.44737 16.5523 2 16 2C15.4477 2 15 2.44737 15 2.99923V3.99847C15 4.55033 15.4477 4.9977 16 4.9977C16.5523 4.9977 17 4.55033 17 3.99847V2.99923ZM9.2925 11.2739C9.4875 11.079 9.75549 10.9931 10.0115 10.9931C10.2675 10.9931 10.5345 11.079 10.7305 11.2739L12.0115 12.5539L13.2925 11.2739C13.4875 11.079 13.7555 10.9931 14.0115 10.9931C14.2675 10.9931 14.5345 11.079 14.7305 11.2739C15.1205 11.6646 15.1205 12.3201 14.7305 12.7108L13.4495 13.9908L14.7305 15.2708C15.1205 15.6615 15.1205 16.317 14.7305 16.7077C14.3395 17.0974 13.6835 17.0974 13.2925 16.7077L12.0115 15.4277L10.7305 16.7077C10.3395 17.0974 9.6835 17.0974 9.2925 16.7077C8.9025 16.317 8.9025 15.6615 9.2925 15.2708L10.5735 13.9908L9.2925 12.7108C8.9025 12.3201 8.9025 11.6646 9.2925 11.2739Z" fill="black"/>
</svg>
