<svg width="24" height="24" viewBox="0 0 24 24" fill="none" xmlns="http://www.w3.org/2000/svg">
<path d="M7 3.00003C4.7909 3.00003 2.9999 4.79103 3 7.00003L3 8L21 8.00003V7.00003C21 4.79103 19.2091 3.00003 17 3.00003C16.1646 3.00004 10.4434 3.00004 8 3.00003C7.51869 3.00003 7.16456 3.00003 7 3.00003Z" fill="black" fill-opacity="0.4"/>
<path fill-rule="evenodd" clip-rule="evenodd" d="M8 2C8.55228 2 9 2.44772 9 3V5C9 5.55228 8.55228 6 8 6C7.44772 6 7 5.55228 7 5V3C7 2.44772 7.44772 2 8 2ZM16 2C16.5523 2 17 2.44772 17 3V5C17 5.55228 16.5523 6 16 6C15.4477 6 15 5.55228 15 5V3C15 2.44772 15.4477 2 16 2ZM3 10V17C3 19.209 4.791 21 7 21H17C19.209 21 21 19.209 21 17V10H3ZM11.2071 12.2929C10.8166 11.9024 10.1834 11.9024 9.79289 12.2929C9.40237 12.6834 9.40237 13.3166 9.79289 13.7071L10.5858 14.5L9.79289 15.2929C9.40237 15.6834 9.40237 16.3166 9.79289 16.7071C10.1834 17.0976 10.8166 17.0976 11.2071 16.7071L12 15.9142L12.7929 16.7071C13.1834 17.0976 13.8166 17.0976 14.2071 16.7071C14.5976 16.3166 14.5976 15.6834 14.2071 15.2929L13.4142 14.5L14.2071 13.7071C14.5976 13.3166 14.5976 12.6834 14.2071 12.2929C13.8166 11.9024 13.1834 11.9024 12.7929 12.2929L12 13.0858L11.2071 12.2929Z" fill="black"/>
</svg>
