<svg width="24" height="24" viewBox="0 0 24 24" fill="none" xmlns="http://www.w3.org/2000/svg">
<path fill-rule="evenodd" clip-rule="evenodd" d="M3 7C3 4.791 4.7909 3 7 3H17C19.209 3 21 4.791 21 7V17C21 19.209 19.209 21 17 21H7C4.7909 21 3 19.209 3 17V7ZM17 5H7C5.8954 5 5 5.895 5 7V17C5 18.105 5.8954 19 7 19H17C18.105 19 19 18.105 19 17V7C19 5.895 18.105 5 17 5ZM8 6.99998C7.44772 6.99998 7 7.4477 7 7.99998C7 8.55227 7.44772 8.99998 8 8.99998H16C16.5523 8.99998 17 8.55227 17 7.99998C17 7.4477 16.5523 6.99998 16 6.99998H8Z" fill="black" fill-opacity="0.4"/>
<path fill-rule="evenodd" clip-rule="evenodd" d="M8 2C8.55228 2 9 2.44772 9 3V4C9 4.55228 8.55228 5 8 5C7.44772 5 7 4.55228 7 4V3C7 2.44772 7.44772 2 8 2ZM16 2C16.5523 2 17 2.44772 17 3V4C17 4.55228 16.5523 5 16 5C15.4477 5 15 4.55228 15 4V3C15 2.44772 15.4477 2 16 2ZM15.812 11.062C15.916 11.03 16.039 11 16.156 11C16.274 11 16.396 11.03 16.5 11.062C16.604 11.095 16.671 11.13 16.75 11.188C16.828 11.245 16.893 11.299 16.938 11.375C16.982 11.451 17 11.539 17 11.625C17 11.711 16.982 11.799 16.938 11.875C16.893 11.951 16.828 12.005 16.75 12.062C16.734 12.0739 16.7184 12.0862 16.7028 12.0984C16.6425 12.1457 16.5826 12.1928 16.5 12.219C16.4016 12.2502 16.2871 12.2501 16.1751 12.25C16.1687 12.25 16.1624 12.25 16.156 12.25C16.1497 12.25 16.1434 12.25 16.1371 12.25C16.0258 12.2501 15.9104 12.2502 15.812 12.219C15.7312 12.1931 15.672 12.1469 15.612 12.1002C15.5956 12.0874 15.579 12.0745 15.562 12.062C15.484 12.005 15.42 11.951 15.375 11.875C15.33 11.799 15.281 11.711 15.281 11.625C15.281 11.539 15.33 11.451 15.375 11.375C15.42 11.299 15.484 11.245 15.562 11.188C15.641 11.13 15.709 11.095 15.812 11.062ZM7 16V11.344H10.656V12.375H8.65601V13.156H10.469V14.188H8.65601V16H7ZM13.594 12.938C13.829 12.837 14.124 12.781 14.438 12.781H14.562C14.5776 12.781 14.593 12.7802 14.6089 12.7793C14.642 12.7775 14.6771 12.7756 14.719 12.781V13.844C14.517 13.77 14.298 13.75 14.062 13.75C13.709 13.75 13.458 13.815 13.281 13.969C13.105 14.123 13 14.361 13 14.656V16H11.5V12.844H13V13.344C13.163 13.155 13.358 13.038 13.594 12.938ZM15.406 16V12.844H16.906V16H15.406Z" fill="black"/>
</svg>
