<svg width="24" height="24" viewBox="0 0 24 24" fill="none" xmlns="http://www.w3.org/2000/svg">
<path fill-rule="evenodd" clip-rule="evenodd" d="M7 3C4.7909 3 3 4.791 3 7V17C3 19.209 4.7909 21 7 21H17C19.209 21 21 19.209 21 17V7C21 4.791 19.209 3 17 3H7ZM8 7C7.44772 7 7 7.44772 7 8C7 8.55228 7.44772 9 8 9H16C16.5523 9 17 8.55228 17 8C17 7.44772 16.5523 7 16 7H8Z" fill="black" fill-opacity="0.4"/>
<path fill-rule="evenodd" clip-rule="evenodd" d="M8.99858 3C8.99858 2.44772 8.55118 2 7.99929 2C7.4474 2 7 2.44772 7 3V4C7 4.55228 7.4474 5 7.99929 5C8.55118 5 8.99858 4.55228 8.99858 4V3ZM16.9929 3C16.9929 2.44772 16.5455 2 15.9936 2C15.4417 2 14.9943 2.44772 14.9943 3V4C14.9943 4.55228 15.4417 5 15.9936 5C16.5455 5 16.9929 4.55228 16.9929 4V3ZM7 15.719L8.37402 12H9.4043L10.7473 15.719H9.77903L9.56019 15.062H8.21813L7.99929 15.719H7ZM9.31037 14.344L8.87367 13.094L8.46795 14.344H9.31037ZM14.9323 13.219C15.0822 13.148 15.2222 13.125 15.4 13.125C15.6888 13.125 15.9526 13.245 16.1495 13.469V13.188H16.9929V15.562C16.9929 15.6114 16.9948 15.6583 16.9967 15.7032C17.0001 15.7876 17.0033 15.8649 16.9929 15.938C16.982 16.0134 16.9559 16.0764 16.9312 16.136C16.9196 16.1641 16.9082 16.1915 16.899 16.219L16.8952 16.2297C16.8585 16.3343 16.8213 16.4401 16.7431 16.531C16.6621 16.625 16.5452 16.712 16.4313 16.781C16.3164 16.85 16.2005 16.898 16.0556 16.938C15.9117 16.977 15.7558 17 15.5879 17C15.397 17 15.2152 16.987 15.0563 16.938C14.8984 16.888 14.7695 16.806 14.6506 16.719C14.5317 16.631 14.4147 16.523 14.3388 16.406C14.2628 16.289 14.2388 16.17 14.2139 16.031H15.1822C15.2421 16.199 15.375 16.281 15.5879 16.281C15.7688 16.281 15.8967 16.23 15.9936 16.125C16.0905 16.02 16.1495 15.875 16.1495 15.688V15.438C16.0865 15.5 16.0206 15.553 15.9626 15.594C15.914 15.6278 15.8593 15.6514 15.8074 15.6738C15.7964 15.6785 15.7855 15.6832 15.7748 15.688C15.7148 15.714 15.6538 15.738 15.5879 15.75C15.5729 15.7527 15.5577 15.7557 15.5421 15.7588C15.488 15.7695 15.4303 15.781 15.369 15.781C15.1942 15.781 15.0463 15.75 14.9004 15.688C14.7545 15.625 14.6326 15.518 14.5257 15.406C14.4197 15.294 14.3348 15.188 14.2758 15.031C14.2179 14.875 14.1829 14.691 14.1829 14.5C14.1829 14.306 14.2129 14.135 14.2758 13.969C14.3398 13.802 14.4167 13.655 14.5257 13.531C14.6356 13.408 14.7815 13.29 14.9323 13.219ZM11.0911 14.781V13.188H11.9655V14.625C11.9655 14.938 12.1104 15.094 12.4022 15.094C12.694 15.094 12.8398 14.938 12.8398 14.625V13.188H13.6832V14.781C13.6832 15.124 13.5873 15.391 13.3705 15.562C13.1536 15.734 12.8339 15.812 12.4022 15.812C11.9715 15.812 11.6207 15.734 11.4029 15.562C11.186 15.391 11.0911 15.124 11.0911 14.781ZM15.8377 13.906C15.7688 13.877 15.6918 13.875 15.6189 13.875C15.5429 13.875 15.467 13.875 15.4 13.906C15.3391 13.9356 15.3012 13.9737 15.2556 14.0195C15.2518 14.0233 15.248 14.0271 15.2441 14.031C15.1932 14.082 15.1492 14.15 15.1192 14.219C15.118 14.2219 15.1167 14.2248 15.1154 14.2277C15.0866 14.2939 15.0572 14.3614 15.0563 14.438C15.0563 14.52 15.0902 14.617 15.1192 14.688C15.1482 14.758 15.1952 14.822 15.2441 14.875C15.2858 14.9201 15.3202 14.9348 15.3714 14.9566C15.3804 14.9604 15.3899 14.9645 15.4 14.969C15.4056 14.9713 15.4111 14.9737 15.4166 14.976C15.4804 15.0031 15.5462 15.031 15.6189 15.031C15.6908 15.031 15.7609 15.0014 15.8266 14.9737C15.8303 14.9721 15.834 14.9705 15.8377 14.969C15.8571 14.9605 15.8766 14.9534 15.8957 14.9466C15.9438 14.9293 15.9896 14.9129 16.0246 14.875C16.0736 14.822 16.1195 14.758 16.1495 14.688C16.1795 14.617 16.1815 14.517 16.1815 14.438C16.1815 14.355 16.1795 14.288 16.1495 14.219C16.1195 14.15 16.0756 14.084 16.0246 14.031C15.9736 13.979 15.9057 13.936 15.8377 13.906Z" fill="black"/>
</svg>
