<svg width="24" height="24" viewBox="0 0 24 24" fill="none" xmlns="http://www.w3.org/2000/svg">
<path d="M7.02407 3C4.81688 3 3 4.793 3 7V9L3.03095 17C3.03095 19.206 4.81887 21 7.02407 21H17.0069C19.2121 21 21 19.209 21 17L20.969 9V7C20.969 4.789 19.2101 3 17.0069 3C15.9718 3 8.00405 3.00002 7.02407 3ZM7.02407 5C7.98555 5 15.9718 4.98582 17.0069 5C18.102 5 18.9725 5.888 18.9725 7V8C17.0518 8 6.91725 8 4.99656 8V7C4.99656 5.903 5.91399 5 7.02407 5ZM4.99656 10C6.91725 10 17.0518 10 18.9725 10L19.0034 17C19.0034 18.101 18.11 19 17.0069 19H7.02407C5.92197 19 5.02751 18.105 5.02751 17L4.99656 10Z" fill="black" fill-opacity="0.4"/>
<path fill-rule="evenodd" clip-rule="evenodd" d="M8 2C8.55228 2 9 2.44772 9 3V5C9 5.55228 8.55228 6 8 6C7.44772 6 7 5.55228 7 5V3C7 2.44772 7.44772 2 8 2ZM16 2C16.5523 2 17 2.44772 17 3V5C17 5.55228 16.5523 6 16 6C15.4477 6 15 5.55228 15 5V3C15 2.44772 15.4477 2 16 2ZM15.7071 13.7071C16.0976 13.3166 16.0976 12.6834 15.7071 12.2929C15.3166 11.9024 14.6834 11.9024 14.2929 12.2929L12 14.5858L10.7071 13.2929C10.3166 12.9024 9.68342 12.9024 9.29289 13.2929C8.90237 13.6834 8.90237 14.3166 9.29289 14.7071L11.2929 16.7071C11.6834 17.0976 12.3166 17.0976 12.7071 16.7071L15.7071 13.7071Z" fill="black"/>
</svg>
