<svg width="24" height="24" viewBox="0 0 24 24" fill="none" xmlns="http://www.w3.org/2000/svg">
<path d="M7.02993 3C4.82274 3 3.00586 4.793 3.00586 7V9L3.03681 17C3.03681 19.206 4.82473 21 7.02993 21H17.0127C19.2179 21 21.0059 19.209 21.0059 17L20.9749 9V7C20.9749 4.789 19.2159 3 17.0127 3C15.9777 3 8.00991 3.00002 7.02993 3ZM7.02993 5C7.99141 5 15.9777 4.98582 17.0127 5C18.1079 5 18.9783 5.888 18.9783 7V8C17.0577 8 6.92311 8 5.00242 8V7C5.00242 5.903 5.91985 5 7.02993 5ZM5.00242 10C6.92311 10 17.0577 10 18.9783 10L19.0093 17C19.0093 18.101 18.1158 19 17.0127 19H7.02993C5.92783 19 5.03337 18.105 5.03337 17L5.00242 10Z" fill="black" fill-opacity="0.4"/>
<path fill-rule="evenodd" clip-rule="evenodd" d="M9 3C9 2.44772 8.55229 2 8 2C7.44771 2 7 2.44772 7 3V5C7 5.55228 7.44771 6 8 6C8.55229 6 9 5.55228 9 5V3ZM17 3C17 2.44772 16.5523 2 16 2C15.4477 2 15 2.44772 15 3V5C15 5.55228 15.4477 6 16 6C16.5523 6 17 5.55228 17 5V3ZM9 13C9 13.5523 8.55229 14 8 14C7.44771 14 7 13.5523 7 13C7 12.4477 7.44771 12 8 12C8.55229 12 9 12.4477 9 13ZM8 17C8.55229 17 9 16.5523 9 16C9 15.4477 8.55229 15 8 15C7.44771 15 7 15.4477 7 16C7 16.5523 7.44771 17 8 17ZM13 13C13 13.5523 12.5523 14 12 14C11.4477 14 11 13.5523 11 13C11 12.4477 11.4477 12 12 12C12.5523 12 13 12.4477 13 13ZM12 17C12.5523 17 13 16.5523 13 16C13 15.4477 12.5523 15 12 15C11.4477 15 11 15.4477 11 16C11 16.5523 11.4477 17 12 17ZM17 13C17 13.5523 16.5523 14 16 14C15.4477 14 15 13.5523 15 13C15 12.4477 15.4477 12 16 12C16.5523 12 17 12.4477 17 13ZM16 17C16.5523 17 17 16.5523 17 16C17 15.4477 16.5523 15 16 15C15.4477 15 15 15.4477 15 16C15 16.5523 15.4477 17 16 17Z" fill="black"/>
</svg>
