<svg width="24" height="24" viewBox="0 0 24 24" fill="none" xmlns="http://www.w3.org/2000/svg">
<path d="M7.02407 3C4.81688 3 3 4.793 3 7V9L3.03095 17C3.03095 19.206 4.81887 21 7.02407 21H17.0069C19.2121 21 21 19.209 21 17L20.969 9V7C20.969 4.789 19.2101 3 17.0069 3C15.9718 3 8.00405 3.00002 7.02407 3ZM7.02407 5C7.98555 5 15.9718 4.98582 17.0069 5C18.102 5 18.9725 5.888 18.9725 7V8C17.0518 8 6.91725 8 4.99656 8V7C4.99656 5.903 5.91399 5 7.02407 5ZM4.99656 10C6.91725 10 17.0518 10 18.9725 10L19.0034 17C19.0034 18.101 18.11 19 17.0069 19H7.02407C5.92197 19 5.02751 18.105 5.02751 17L4.99656 10Z" fill="black" fill-opacity="0.4"/>
<path fill-rule="evenodd" clip-rule="evenodd" d="M8 2C8.55228 2 9 2.44772 9 3V5C9 5.55228 8.55228 6 8 6C7.44772 6 7 5.55228 7 5V3C7 2.44772 7.44772 2 8 2ZM16 2C16.5523 2 17 2.44772 17 3V5C17 5.55228 16.5523 6 16 6C15.4477 6 15 5.55228 15 5V3C15 2.44772 15.4477 2 16 2ZM12.938 12.156C13.203 12.062 13.51 12 13.844 12C14.182 12 14.484 12.062 14.75 12.156C15.016 12.251 15.251 12.368 15.438 12.531C15.624 12.695 15.745 12.876 15.844 13.094C15.943 13.311 16 13.536 16 13.781C16 14.057 15.941 14.367 15.812 14.688C15.684 15.008 15.485 15.315 15.219 15.625L14.031 17H12.5L13.938 15.406H13.906C13.78 15.479 13.675 15.516 13.594 15.531C13.5683 15.5358 13.5463 15.5407 13.5263 15.5452C13.4832 15.555 13.449 15.5627 13.406 15.562C13.159 15.562 12.928 15.528 12.719 15.438C12.509 15.347 12.307 15.219 12.156 15.062C12.005 14.906 11.898 14.711 11.812 14.5C11.727 14.289 11.687 14.085 11.688 13.844C11.688 13.586 11.745 13.346 11.844 13.125C11.943 12.903 12.063 12.697 12.25 12.531C12.437 12.366 12.672 12.251 12.938 12.156ZM8 13.219V12.125H10.062V17H8.75V13.219H8ZM14.188 13.062C14.086 13.019 13.961 13 13.844 13C13.727 13 13.633 13.019 13.531 13.062C13.43 13.106 13.327 13.177 13.25 13.25C13.173 13.323 13.108 13.403 13.062 13.5C13.017 13.597 13 13.701 13 13.812C13 13.924 13.017 14.028 13.062 14.125C13.108 14.222 13.173 14.302 13.25 14.375C13.327 14.448 13.43 14.519 13.531 14.562C13.633 14.606 13.727 14.625 13.844 14.625C13.961 14.625 14.086 14.605 14.188 14.562C14.2842 14.521 14.3541 14.4547 14.4271 14.3853C14.4307 14.3819 14.4344 14.3785 14.438 14.375C14.514 14.302 14.58 14.222 14.625 14.125C14.67 14.028 14.687 13.924 14.688 13.812C14.688 13.701 14.67 13.597 14.625 13.5C14.58 13.403 14.514 13.323 14.438 13.25C14.4332 13.2455 14.4285 13.2409 14.4237 13.2364C14.352 13.1682 14.2827 13.1023 14.188 13.062Z" fill="black"/>
</svg>
