<svg width="24" height="24" viewBox="0 0 24 24" fill="none" xmlns="http://www.w3.org/2000/svg">
<path fill-rule="evenodd" clip-rule="evenodd" d="M7 3C4.7909 3 3 4.791 3 7V17C3 19.209 4.7909 21 7 21H17C19.209 21 21 19.209 21 17V7C21 4.791 19.209 3 17 3H7ZM8 7C7.44772 7 7 7.44772 7 8C7 8.55228 7.44772 9 8 9H16C16.5523 9 17 8.55228 17 8C17 7.44772 16.5523 7 16 7H8Z" fill="black" fill-opacity="0.4"/>
<path fill-rule="evenodd" clip-rule="evenodd" d="M8 2C8.55228 2 9 2.44772 9 3V4C9 4.55228 8.55228 5 8 5C7.44772 5 7 4.55228 7 4V3C7 2.44772 7.44772 2 8 2ZM13.844 12C13.51 12 13.203 12.062 12.938 12.156C12.672 12.251 12.468 12.366 12.281 12.531C12.094 12.697 11.943 12.903 11.844 13.125C11.745 13.347 11.688 13.586 11.688 13.844C11.687 14.085 11.727 14.289 11.812 14.5C11.898 14.711 12.037 14.906 12.188 15.062C12.338 15.219 12.509 15.347 12.719 15.438C12.928 15.528 13.159 15.562 13.406 15.562C13.4585 15.5628 13.5192 15.5512 13.5849 15.5386L13.5849 15.5386L13.625 15.531C13.706 15.516 13.811 15.479 13.938 15.406H13.969L12.5 17H14.031L15.219 15.625C15.485 15.315 15.684 15.008 15.812 14.688C15.941 14.367 16 14.057 16 13.781C16 13.536 15.974 13.311 15.875 13.094C15.776 12.877 15.624 12.695 15.438 12.531C15.251 12.368 15.016 12.251 14.75 12.156C14.484 12.062 14.182 12 13.844 12ZM8 12.125V13.219H8.75V17H10.062V12.125H8ZM13.844 13C13.961 13 14.086 13.019 14.188 13.062C14.2827 13.1023 14.3519 13.1682 14.4237 13.2364L14.438 13.25C14.514 13.323 14.58 13.403 14.625 13.5C14.67 13.597 14.688 13.701 14.688 13.812C14.687 13.924 14.67 14.028 14.625 14.125C14.58 14.222 14.514 14.302 14.438 14.375L14.4271 14.3853C14.3541 14.4547 14.2842 14.521 14.188 14.562C14.086 14.605 13.961 14.625 13.844 14.625C13.727 14.625 13.633 14.606 13.531 14.562C13.43 14.519 13.327 14.448 13.25 14.375C13.173 14.302 13.108 14.222 13.062 14.125C13.017 14.028 13 13.924 13 13.812C13 13.701 13.017 13.597 13.062 13.5C13.108 13.403 13.173 13.323 13.25 13.25C13.327 13.177 13.43 13.106 13.531 13.062C13.633 13.019 13.727 13 13.844 13ZM17 3C17 2.44772 16.5523 2 16 2C15.4477 2 15 2.44772 15 3V4C15 4.55228 15.4477 5 16 5C16.5523 5 17 4.55228 17 4V3Z" fill="black"/>
</svg>
