<svg width="24" height="24" viewBox="0 0 24 24" fill="none" xmlns="http://www.w3.org/2000/svg">
<path fill-rule="evenodd" clip-rule="evenodd" d="M3 7C3 4.791 4.7909 3 7 3H17C19.209 3 21 4.791 21 7V17C21 19.209 19.209 21 17 21H7C4.7909 21 3 19.209 3 17V7ZM17 5H7C5.8954 5 5 5.895 5 7V17C5 18.105 5.8954 19 7 19H17C18.105 19 19 18.105 19 17V7C19 5.895 18.105 5 17 5Z" fill="black" fill-opacity="0.4"/>
<path fill-rule="evenodd" clip-rule="evenodd" d="M9 3C9 2.44772 8.55228 2 8 2C7.44772 2 7 2.44772 7 3V5C7 5.55228 7.44772 6 8 6C8.55228 6 9 5.55228 9 5V3ZM16 2C16.5523 2 17 2.44772 17 3V5C17 5.55228 16.5523 6 16 6C15.4477 6 15 5.55228 15 5V3C15 2.44772 15.4477 2 16 2ZM12.938 9.18721C13.203 9.07441 13.51 9 13.844 9C14.182 9 14.484 9.07441 14.75 9.18721C15.016 9.30121 15.251 9.44161 15.438 9.63721C15.624 9.83401 15.776 10.0524 15.875 10.3128C15.974 10.5732 16 10.8432 16 11.1372C16 11.4684 15.941 11.8404 15.812 12.2256C15.684 12.6096 15.485 12.978 15.219 13.35L14.031 15H12.5L13.969 13.0872H13.938C13.811 13.1748 13.706 13.2192 13.625 13.2372L13.5849 13.2463C13.5192 13.2614 13.4585 13.2754 13.406 13.2744C13.159 13.2744 12.928 13.2336 12.719 13.1256C12.509 13.0164 12.338 12.8628 12.188 12.6744C12.037 12.4872 11.898 12.2532 11.812 12C11.727 11.7468 11.687 11.502 11.688 11.2128C11.688 10.9032 11.745 10.6164 11.844 10.35C11.943 10.0836 12.094 9.83641 12.281 9.63721C12.468 9.43921 12.672 9.30121 12.938 9.18721ZM8 10.4628V9.15H10.062V15H8.75V10.4628H8ZM14.188 10.2744C14.086 10.2228 13.961 10.2 13.844 10.2C13.727 10.2 13.633 10.2228 13.531 10.2744C13.43 10.3272 13.327 10.4124 13.25 10.5C13.173 10.5876 13.108 10.6836 13.062 10.8C13.017 10.9164 13 11.0412 13 11.1744C13 11.3088 13.017 11.4336 13.062 11.55C13.108 11.6664 13.173 11.7624 13.25 11.85C13.327 11.9376 13.43 12.0228 13.531 12.0744C13.633 12.1272 13.727 12.15 13.844 12.15C13.961 12.15 14.086 12.126 14.188 12.0744C14.2842 12.0253 14.3541 11.9456 14.4271 11.8624L14.438 11.85C14.514 11.7624 14.58 11.6664 14.625 11.55C14.67 11.4336 14.687 11.3088 14.688 11.1744C14.688 11.0412 14.67 10.9164 14.625 10.8C14.58 10.6836 14.514 10.5876 14.438 10.5L14.4237 10.4837L14.4237 10.4837C14.3519 10.4018 14.2827 10.3228 14.188 10.2744Z" fill="black"/>
</svg>
