<svg width="24" height="24" viewBox="0 0 24 24" fill="none" xmlns="http://www.w3.org/2000/svg">
<path d="M7 3.00003C4.7909 3.00003 2.9999 4.79103 3 7.00003L3 8.00003H21V7.00003C21 4.79103 19.2091 3.00003 17 3.00003C16.1646 3.00004 10.4434 3.00004 8 3.00003C7.51869 3.00003 7.16456 3.00003 7 3.00003Z" fill="black" fill-opacity="0.4"/>
<path fill-rule="evenodd" clip-rule="evenodd" d="M8 2C8.55228 2 9 2.44772 9 3V5C9 5.55228 8.55228 6 8 6C7.44772 6 7 5.55228 7 5V3C7 2.44772 7.44772 2 8 2ZM3 10V17C3 19.209 4.7909 21 7 21H17C19.2091 21 21.0001 19.209 21 17V10H3ZM13.8438 12C14.1816 12 14.4842 12.062 14.75 12.156C15.0158 12.251 15.2506 12.368 15.4375 12.531C15.6244 12.695 15.7447 12.876 15.8438 13.094C15.9428 13.311 16 13.536 16 13.781C16 14.057 15.9409 14.367 15.8125 14.688C15.6841 15.008 15.4845 15.315 15.2188 15.625L14.0312 17H12.5L13.9375 15.406H13.9062C13.7801 15.479 13.6748 15.516 13.5938 15.531C13.5679 15.5358 13.5458 15.5408 13.5258 15.5453C13.483 15.555 13.4491 15.5627 13.4062 15.562C13.1585 15.562 12.9282 15.528 12.7188 15.438C12.5093 15.347 12.3072 15.219 12.1562 15.062C12.0053 14.906 11.8981 14.711 11.8125 14.5C11.7269 14.289 11.6875 14.085 11.6875 13.844C11.6875 13.586 11.7447 13.347 11.8438 13.125C11.9428 12.903 12.063 12.697 12.25 12.531C12.4369 12.366 12.6718 12.251 12.9375 12.156C13.2033 12.062 13.5104 12 13.8438 12ZM8 12.125H10.0625V17H8.75V13.219H8V12.125ZM13.8438 13C13.7266 13 13.6326 13.019 13.5312 13.062C13.4299 13.106 13.3266 13.177 13.25 13.25C13.1734 13.323 13.1076 13.403 13.0625 13.5C13.0175 13.597 13 13.701 13 13.812C13 13.924 13.0175 14.028 13.0625 14.125C13.1075 14.222 13.1734 14.302 13.25 14.375C13.3266 14.448 13.4299 14.519 13.5312 14.562C13.6326 14.606 13.7266 14.625 13.8438 14.625C13.9609 14.625 14.0862 14.605 14.1875 14.562C14.2847 14.5208 14.3549 14.4538 14.4281 14.384L14.4375 14.375C14.5141 14.302 14.58 14.222 14.625 14.125C14.67 14.028 14.6875 13.924 14.6875 13.812C14.6875 13.701 14.67 13.597 14.625 13.5C14.58 13.403 14.5141 13.323 14.4375 13.25L14.4247 13.2378C14.3527 13.169 14.2832 13.1026 14.1875 13.062C14.0861 13.019 13.9609 13 13.8438 13ZM17 3C17 2.44772 16.5523 2 16 2C15.4477 2 15 2.44772 15 3V5C15 5.55228 15.4477 6 16 6C16.5523 6 17 5.55228 17 5V3Z" fill="black"/>
</svg>
