<svg width="24" height="24" viewBox="0 0 24 24" fill="none" xmlns="http://www.w3.org/2000/svg">
<path fill-rule="evenodd" clip-rule="evenodd" d="M7 3C4.7909 3 3 4.791 3 7V17C3 19.209 4.7909 21 7 21H17C19.209 21 21 19.209 21 17V7C21 4.791 19.209 3 17 3H7ZM8 7C7.44772 7 7 7.44772 7 8C7 8.55228 7.44772 9 8 9H16C16.5523 9 17 8.55228 17 8C17 7.44772 16.5523 7 16 7H8Z" fill="black" fill-opacity="0.4"/>
<path fill-rule="evenodd" clip-rule="evenodd" d="M9 3C9 2.44772 8.55228 2 8 2C7.44772 2 7 2.44772 7 3V4C7 4.55228 7.44772 5 8 5C8.55228 5 9 4.55228 9 4V3ZM17 3C17 2.44772 16.5523 2 16 2C15.4477 2 15 2.44772 15 3V4C15 4.55228 15.4477 5 16 5C16.5523 5 17 4.55228 17 4V3ZM12 12C12 11.4477 12.4477 11 13 11H16C16.5523 11 17 11.4477 17 12C17 12.5523 16.5523 13 16 13H13C12.4477 13 12 12.5523 12 12ZM7 16C7 15.4477 7.44772 15 8 15H11C11.5523 15 12 15.4477 12 16C12 16.5523 11.5523 17 11 17H8C7.44772 17 7 16.5523 7 16Z" fill="black"/>
</svg>
