<svg width="24" height="24" viewBox="0 0 24 24" fill="none" xmlns="http://www.w3.org/2000/svg">
<path fill-rule="evenodd" clip-rule="evenodd" d="M17 14.4142L20.2929 17.7071C20.5789 17.9931 21.009 18.0787 21.3827 17.9239C21.7564 17.7691 22 17.4045 22 17V7.00003C22 6.59557 21.7564 6.23093 21.3827 6.07615C21.009 5.92137 20.5789 6.00692 20.2929 6.29292L17 9.58582V14.4142ZM20 14.5858L17.4142 12L20 9.41424V14.5858Z" fill="black" fill-opacity="0.4"/>
<path fill-rule="evenodd" clip-rule="evenodd" d="M2 9C2 6.79086 3.79086 5 6 5H13C15.2091 5 17 6.79086 17 9V15C17 17.2091 15.2091 19 13 19H6C3.79086 19 2 17.2091 2 15V9ZM6 7C4.89543 7 4 7.89543 4 9V15C4 16.1046 4.89543 17 6 17H13C14.1046 17 15 16.1046 15 15V9C15 7.89543 14.1046 7 13 7H6Z" fill="black"/>
</svg>
