<svg width="24" height="24" viewBox="0 0 24 24" fill="none" xmlns="http://www.w3.org/2000/svg">
<path d="M2.00003 1.99893C1.44803 1.99443 1.00403 2.44663 1.00003 2.99893C0.996026 3.55123 1.44803 3.99443 2.00003 3.99893C2.73802 4.00493 3.28903 4.51863 3.78103 5.43643C4.26203 6.33333 4.32902 7.03673 4.34402 7.12393L5.53103 14.7801C5.89503 16.6034 7.62301 17.9989 9.438 17.9989H16.562C18.377 17.9989 20.113 16.5905 20.469 14.8114C20.469 14.8114 22 5.37063 22 4.99893C22 4.44663 21.552 3.99893 21 3.99893C20.689 3.99893 6.54502 3.99433 5.25002 3.99893C4.47502 2.74203 3.38302 2.01013 2.00003 1.99893ZM16 7.99893C16.256 7.99893 16.523 8.08493 16.719 8.28013C17.109 8.67073 17.109 9.32713 16.719 9.71773L13.719 12.7177C13.328 13.1082 12.672 13.1082 12.281 12.7177L10.281 10.7177C9.89102 10.3271 9.89102 9.67073 10.281 9.28013C10.672 8.88963 11.328 8.88963 11.719 9.28013L13 10.5614L15.281 8.28013C15.477 8.08493 15.744 7.99893 16 7.99893Z" fill="black"/>
<path fill-rule="evenodd" clip-rule="evenodd" d="M8.5 22C9.32843 22 10 21.3284 10 20.5C10 19.6716 9.32843 19 8.5 19C7.67157 19 7 19.6716 7 20.5C7 21.3284 7.67157 22 8.5 22ZM17.5 22C18.3284 22 19 21.3284 19 20.5C19 19.6716 18.3284 19 17.5 19C16.6716 19 16 19.6716 16 20.5C16 21.3284 16.6716 22 17.5 22Z" fill="black" fill-opacity="0.4"/>
</svg>
