<svg width="24" height="24" viewBox="0 0 24 24" fill="none" xmlns="http://www.w3.org/2000/svg">
<path d="M3 1.9989C2.448 1.9983 2.001 2.4466 2 2.9989C1.999 3.5512 2.448 3.9983 3 3.9989C3.748 3.9997 4.21399 4.3446 4.59399 4.9677C4.77399 5.2642 4.99399 5.9916 5.18799 6.9989C5.47999 8.5228 6.53101 13.8114 6.53101 13.8114C6.88701 15.5905 8.59301 16.9989 10.406 16.9989H16.563C18.376 16.9989 20.082 15.5905 20.438 13.8114L21.656 7.7177C21.948 6.2566 20.927 4.9989 19.438 4.9989C19.438 4.9989 7.00801 5.0075 6.78101 4.9989C6.72801 4.8158 6.57199 4.3669 6.34399 3.9677C5.65099 2.755 4.53 2.0006 3 1.9989ZM7.21899 6.9989H19.438C19.665 6.9989 19.763 7.1192 19.719 7.3427L18.5 13.4364C18.331 14.2807 17.423 14.9989 16.563 14.9989H10.406C9.54601 14.9989 8.669 14.2807 8.5 13.4364L7.96899 10.8114L7.21899 6.9989Z" fill="black"/>
<path fill-rule="evenodd" clip-rule="evenodd" d="M9.5 22C10.3284 22 11 21.3284 11 20.5C11 19.6716 10.3284 19 9.5 19C8.67157 19 8 19.6716 8 20.5C8 21.3284 8.67157 22 9.5 22ZM17.5 22C18.3284 22 19 21.3284 19 20.5C19 19.6716 18.3284 19 17.5 19C16.6716 19 16 19.6716 16 20.5C16 21.3284 16.6716 22 17.5 22Z" fill="black" fill-opacity="0.4"/>
</svg>
