<svg width="24" height="24" viewBox="0 0 24 24" fill="none" xmlns="http://www.w3.org/2000/svg">
<path fill-rule="evenodd" clip-rule="evenodd" d="M8.23557 12.4075L7.90813 11.6737C7.22955 12.1289 6.69072 12.7925 6.39085 13.5955L6.12861 14.2977C5.64035 15.6053 6.60287 17 7.99344 17H19.0042C19.5542 17 20 16.5523 20 16C20 15.4477 19.5542 15 19.0042 15H7.99344L8.25568 14.2977C8.54718 13.5171 9.2903 13 10.1205 13H11.0376L11.0612 12.9997L9.14887 12.9999C8.75419 13 8.39641 12.7679 8.23557 12.4075ZM9 20.5C9 21.3284 8.32843 22 7.5 22C6.67157 22 6 21.3284 6 20.5C6 19.6716 6.67157 19 7.5 19C8.32843 19 9 19.6716 9 20.5ZM20 20.5C20 21.3284 19.3284 22 18.5 22C17.6716 22 17 21.3284 17 20.5C17 19.6716 17.6716 19 18.5 19C19.3284 19 20 19.6716 20 20.5Z" fill="black" fill-opacity="0.4"/>
<path d="M3.00057 1.99898C2.44828 2.00438 1.99504 2.44668 2.00004 2.99898C2.00504 3.55128 2.44828 4.00438 3.00057 3.99898H4.47034L8.22478 12.4076C8.38566 12.768 8.74339 13 9.138 12.9999L18.0085 12.999C18.4087 12.999 18.7579 12.7729 18.915 12.4052L21.9166 5.40518C22.1997 4.74538 21.7285 3.99898 21.0101 3.99898H6.65851L6.31433 3.18648C6.01618 2.49048 5.22774 1.99158 4.47034 1.99898H3.00057Z" fill="black"/>
</svg>
