<svg width="24" height="24" viewBox="0 0 24 24" fill="none" xmlns="http://www.w3.org/2000/svg">
<path d="M2.01284 1.99893C1.45377 1.99443 1.00408 2.44663 1.00003 2.99893C0.995975 3.55123 1.45377 3.99443 2.01284 3.99893C2.76029 4.00493 3.35785 4.49883 3.81665 5.43643C4.24609 6.31293 4.37166 7.03423 4.38685 7.12393L5.58907 14.7801C5.95773 16.6034 7.70785 17.9989 9.5461 17.9989H16.7614C18.5996 17.9989 20.3578 16.5905 20.7184 14.8114L21.953 6.68643C22.2396 5.27263 21.1823 3.99893 19.6742 3.99893H5.33587C4.57424 2.76003 3.41355 2.01013 2.01284 1.99893ZM6.22208 5.99893H19.6742C19.9041 5.99893 20.0034 6.11923 19.9588 6.34273L18.7242 14.4677C18.5611 15.2647 17.6344 15.9989 16.7614 15.9989H9.5461C8.67407 15.9989 7.75445 15.2807 7.58329 14.4364L6.41247 6.81143C6.37702 6.59873 6.295 6.26163 6.22208 5.99893ZM8.51921 19C7.68061 19 7 19.6716 7 20.5C7 21.3284 7.68061 22 8.51921 22C9.35782 22 10.0384 21.3284 10.0384 20.5C10.0384 19.6716 9.35782 19 8.51921 19ZM17.5192 19C16.6806 19 16 19.6716 16 20.5C16 21.3284 16.6806 22 17.5192 22C18.3578 22 19.0384 21.3284 19.0384 20.5C19.0384 19.6716 18.3578 19 17.5192 19Z" fill="black" fill-opacity="0.4"/>
<path fill-rule="evenodd" clip-rule="evenodd" d="M11.7071 8.29289C11.3166 7.90237 10.6834 7.90237 10.2929 8.29289C9.90237 8.68342 9.90237 9.31658 10.2929 9.70711L11.5858 11L10.2929 12.2929C9.90237 12.6834 9.90237 13.3166 10.2929 13.7071C10.6834 14.0976 11.3166 14.0976 11.7071 13.7071L13 12.4142L14.2929 13.7071C14.6834 14.0976 15.3166 14.0976 15.7071 13.7071C16.0976 13.3166 16.0976 12.6834 15.7071 12.2929L14.4142 11L15.7071 9.70711C16.0976 9.31658 16.0976 8.68342 15.7071 8.29289C15.3166 7.90237 14.6834 7.90237 14.2929 8.29289L13 9.58579L11.7071 8.29289Z" fill="black"/>
</svg>
