<svg width="24" height="24" viewBox="0 0 24 24" fill="none" xmlns="http://www.w3.org/2000/svg">
<path d="M5.01416 3.9978C3.35726 3.9978 2.01416 5.3408 2.01416 6.9978V14.9978C2.01416 16.6548 3.35726 17.9978 5.01416 17.9978H6.07666C6.62896 17.9978 7.07666 17.5498 7.07666 16.9978C7.07666 16.4458 6.62896 15.9978 6.07666 15.9978H5.01416C4.46186 15.9978 4.01416 15.5498 4.01416 14.9978V6.9978C4.01416 6.4458 4.46186 5.9978 5.01416 5.9978H19.0142C19.5662 5.9978 20.0142 6.4458 20.0142 6.9978V14.9978C20.0142 15.5498 19.5662 15.9978 19.0142 15.9978H18.0142C17.4622 15.9978 17.0142 16.4458 17.0142 16.9978C17.0142 17.5498 17.4622 17.9978 18.0142 17.9978H19.0142C20.6712 17.9978 22.0142 16.6548 22.0142 14.9978V6.9978C22.0142 5.3408 20.6712 3.9978 19.0142 3.9978H5.01416Z" fill="black" fill-opacity="0.4"/>
<path d="M11.9999 15C11.7445 15 11.478 15.086 11.2825 15.281L7.29138 19.281C6.66285 19.911 7.11965 21 8.00861 21H15.9912C16.8802 21 17.3372 19.911 16.7086 19.281C16.2097 18.781 13.2162 15.781 12.7173 15.281C12.5218 15.086 12.2553 15 11.9999 15Z" fill="black"/>
</svg>
