<svg width="24" height="24" viewBox="0 0 24 24" fill="none" xmlns="http://www.w3.org/2000/svg">
<path d="M5.01416 3.9978C3.35726 3.9978 2.01416 5.3408 2.01416 6.9978V14.9978C2.01416 16.6548 3.35726 17.9978 5.01416 17.9978H6.82666C6.86086 17.9598 9.88916 14.8728 9.88916 14.8728C10.4686 14.2938 11.2331 13.9978 12.0142 13.9978C12.7953 13.9978 13.5598 14.2938 14.1392 14.8728C14.6548 15.3888 17.1675 17.9598 17.2017 17.9978H19.0142C20.6711 17.9978 22.0142 16.6548 22.0142 14.9978V6.9978C22.0142 5.3408 20.6711 3.9978 19.0142 3.9978H5.01416Z" fill="black" fill-opacity="0.4"/>
<path d="M12 16C11.7448 16 11.4779 16.086 11.2831 16.281L8.29123 19.281C7.66302 19.911 8.11959 21 9.00809 21H14.9919C15.8804 21 16.337 19.911 15.7088 19.281C15.3347 18.906 13.0908 16.656 12.7169 16.281C12.5221 16.086 12.2552 16 12 16Z" fill="black"/>
</svg>
