<svg width="24" height="24" viewBox="0 0 24 24" fill="none" xmlns="http://www.w3.org/2000/svg">
<path d="M6 3.9978C3.7909 3.9978 2 5.78755 2 7.99501V13.9908C2 16.1983 3.7909 17.988 6 17.988H8.5625L11.281 20.7051C11.671 21.0959 12.296 21.0949 12.688 20.7051L15.438 17.988H18C20.209 17.988 22 16.1983 22 13.9908V7.99501C22 5.78755 20.209 3.9978 18 3.9978H6ZM6 5.99641H18C19.105 5.99641 20 6.89078 20 7.99501V13.9908C20 15.0951 19.105 15.9894 18 15.9894H15C14.735 15.9894 14.469 16.0834 14.281 16.2702L12 18.5497L9.7188 16.2702C9.5311 16.0824 9.2656 15.9894 9 15.9894H6C4.8954 15.9894 4 15.0951 4 13.9908V7.99501C4 6.89078 4.8954 5.99641 6 5.99641Z" fill="black"/>
<path d="M6 6.00012H18C19.105 6.00012 20 6.89512 20 8.00012V14.0001C20 15.1051 19.105 16.0001 18 16.0001H15C14.735 16.0001 14.469 16.0941 14.281 16.2811L12 18.5621L9.7188 16.2811C9.5311 16.0931 9.2656 16.0001 9 16.0001H6C4.8954 16.0001 4 15.1051 4 14.0001V8.00012C4 6.89512 4.8954 6.00012 6 6.00012Z" fill="black" fill-opacity="0.4"/>
</svg>
