<svg width="24" height="24" viewBox="0 0 24 24" fill="none" xmlns="http://www.w3.org/2000/svg">
<path d="M18 3.9978C20.209 3.9978 22 5.7902 22 8.00092V20.0103C22 20.8349 21.066 21.2873 20.406 20.7919L16.688 18.0087H6C3.791 18.0087 2 16.2163 2 14.0056V8.00092C2 5.7902 3.791 3.9978 6 3.9978H18ZM18 5.99936H6C4.895 5.99936 4 6.89506 4 8.00092V14.0056C4 15.1114 4.895 16.0071 6 16.0071H17C17.216 16.0071 17.421 16.0652 17.594 16.1953L20 18.0087V8.00092C20 6.89506 19.105 5.99936 18 5.99936Z" fill="black"/>
<path d="M18 6.00146H6C4.895 6.00146 4 6.89646 4 8.00146V14.0015C4 15.1065 4.895 16.0015 6 16.0015H17C17.216 16.0015 17.421 16.0595 17.594 16.1895L20 18.0015V8.00146C20 6.89646 19.105 6.00146 18 6.00146Z" fill="black" fill-opacity="0.4"/>
</svg>
