<svg width="24" height="24" viewBox="0 0 24 24" fill="none" xmlns="http://www.w3.org/2000/svg">
<path d="M8.0444 21.1784C8.0944 21.4284 8.22142 21.6804 8.44942 21.8334C8.90642 22.1394 9.5474 22.0114 9.8524 21.5524L15.8364 12.5624C16.0594 12.2264 16.0594 11.7734 15.8364 11.4384L9.8524 2.44732C9.5474 1.98831 8.90642 1.86034 8.44942 2.16634C7.99243 2.47234 7.8644 3.11234 8.1694 3.57134L13.7794 12.0003L8.1694 20.4284C8.0164 20.6584 7.9944 20.9274 8.0444 21.1784Z" fill="black" fill-opacity="0.4"/>
<path d="M13.7612 15.7266L15.8335 12.5618C16.0565 12.2258 16.0565 11.7728 15.8335 11.4378L13.7612 8.38425V15.7266Z" fill="black"/>
</svg>
