<svg width="24" height="24" viewBox="0 0 24 24" fill="none" xmlns="http://www.w3.org/2000/svg">
<path fill-rule="evenodd" clip-rule="evenodd" d="M16 19C15.4477 19 15 18.5523 15 18V6C15 5.44771 15.4477 5 16 5C16.5523 5 17 5.44771 17 6V18C17 18.5523 16.5523 19 16 19Z" fill="black" fill-opacity="0.4"/>
<path d="M7.0405 18.1721C7.09032 18.4223 7.21786 18.6755 7.44607 18.8287C7.90148 19.1349 8.54326 19.0058 8.8472 18.5464L12.8333 12.5737C13.0556 12.2375 13.0556 11.7831 12.8333 11.4478L8.8472 5.44311C8.54326 4.98375 7.90148 4.85564 7.44607 5.16188C6.98965 5.46712 6.86112 6.10964 7.16506 6.569L10.7775 12.0103L7.16506 17.4215C7.01359 17.6507 6.99067 17.9209 7.0405 18.1721Z" fill="black"/>
</svg>
