<svg width="24" height="24" viewBox="0 0 24 24" fill="none" xmlns="http://www.w3.org/2000/svg">
<path d="M2.82163 8.04427C2.57163 8.09427 2.31963 8.2213 2.16663 8.4493C1.86063 8.9063 1.98864 9.54728 2.44764 9.85228L11.4376 15.8363C11.7736 16.0593 12.2266 16.0593 12.5616 15.8363L21.5527 9.85228C22.0117 9.54728 22.1397 8.9063 21.8337 8.4493C21.5277 7.9923 20.8877 7.86428 20.4287 8.16927L11.9997 13.7793L3.57164 8.16927C3.34163 8.01627 3.07263 7.99427 2.82163 8.04427Z" fill="black" fill-opacity="0.4"/>
<path d="M8.27344 13.7611L11.4382 15.8334C11.7742 16.0564 12.2272 16.0564 12.5622 15.8334L15.6158 13.7611H8.27344Z" fill="black"/>
</svg>
