<svg width="24" height="24" viewBox="0 0 24 24" fill="none" xmlns="http://www.w3.org/2000/svg">
<path fill-rule="evenodd" clip-rule="evenodd" d="M3 7C3 4.79086 4.79086 3 7 3H17C19.2091 3 21 4.79086 21 7V17C21 19.2091 19.2091 21 17 21H7C4.79086 21 3 19.2091 3 17V7Z" fill="black" fill-opacity="0.4"/>
<path fill-rule="evenodd" clip-rule="evenodd" d="M9 3C9 2.44772 8.55228 2 8 2C7.44772 2 7 2.44772 7 3V5C7 6.65685 8.34315 8 10 8H14C15.6569 8 17 6.65685 17 5V3C17 2.44772 16.5523 2 16 2C15.4477 2 15 2.44772 15 3V5C15 5.55228 14.5523 6 14 6H10C9.44772 6 9 5.55228 9 5V3ZM12 17C11.4477 17 11 16.5523 11 16V15H10C9.44772 15 9 14.5523 9 14C9 13.4477 9.44772 13 10 13H11V12C11 11.4477 11.4477 11 12 11C12.5523 11 13 11.4477 13 12V13H14C14.5523 13 15 13.4477 15 14C15 14.5523 14.5523 15 14 15H13V16C13 16.5523 12.5523 17 12 17Z" fill="black"/>
</svg>
