<svg width="24" height="24" viewBox="0 0 24 24" fill="none" xmlns="http://www.w3.org/2000/svg">
<path d="M7.00352 17.7678C6.41197 17.7678 6.06512 17.8608 5.56832 18.1108C5.07781 18.3578 4.85506 18.9609 5.10037 19.4539C5.34558 19.9479 5.95141 20.1379 6.44192 19.8909C6.68693 19.7679 6.7686 19.7349 7.00352 19.7349C7.23874 19.7349 7.31862 19.7669 7.56512 19.8909C8.05573 20.1379 8.66156 19.9479 8.90667 19.4539C9.15188 18.9599 8.97985 18.3888 8.43872 18.1108C7.94242 17.8568 7.59577 17.7678 7.00352 17.7678ZM16.9875 17.7678C16.396 17.7678 16.0491 17.8608 15.5523 18.1108C15.0618 18.3578 14.8391 18.9609 15.0844 19.4539C15.3296 19.9479 15.9354 20.1379 16.4259 19.8909C16.6709 19.7679 16.7526 19.7349 16.9875 19.7349C17.2227 19.7349 17.3026 19.7669 17.5491 19.8909C18.0397 20.1379 18.6456 19.9479 18.8907 19.4539C19.1359 18.9599 18.9638 18.3888 18.4227 18.1108C17.9264 17.8568 17.5798 17.7678 16.9875 17.7678ZM10.6851 17.7988C10.4435 17.8778 10.215 18.0518 10.0924 18.2988C9.84706 18.7918 10.0698 19.3949 10.5603 19.6409C11.0571 19.8909 11.404 19.9849 11.9955 19.9849C12.5878 19.9849 12.9344 19.8959 13.4307 19.6409C13.9718 19.3639 14.1126 18.7918 13.8675 18.2988C13.6224 17.8048 13.0477 17.6148 12.5571 17.8618C12.3106 17.9858 12.2307 18.0178 11.9955 18.0178C11.7606 18.0178 11.6789 17.9848 11.4339 17.8618C11.1886 17.7378 10.9267 17.7208 10.6851 17.7988Z" fill="black" fill-opacity="0.4"/>
<path d="M12.5 2C9.9685 2 7.9369 3.69302 7.25 6.05902C4.8891 6.19702 3 8.09998 3 10.493C3 12.977 5.0147 14.99 7.5 14.99C9.3078 14.99 16.4923 14.99 17.5 14.99C19.433 14.99 21 13.424 21 11.493C21 9.73598 19.6886 8.33799 18 8.08899C18 7.90599 18 7.63497 18 7.49597C18 4.46097 15.5375 2 12.5 2Z" fill="black"/>
</svg>
