<svg width="24" height="24" viewBox="0 0 24 24" fill="none" xmlns="http://www.w3.org/2000/svg">
<path d="M9.68959 17.0609C9.44706 17.1418 9.21991 17.3135 9.09654 17.5602L8.59709 18.559C8.35035 19.0523 8.57181 19.6545 9.06527 19.9012C9.55873 20.1479 10.1606 19.9272 10.4073 19.4338L10.9068 18.4351C11.1535 17.9417 10.9327 17.3395 10.4393 17.0928C10.1925 16.969 9.93213 16.981 9.68959 17.0609ZM17.1819 17.0609C16.9392 17.1418 16.7114 17.3135 16.5886 17.5602L16.0891 18.559C15.8424 19.0523 16.0641 19.6545 16.5566 19.9012C17.0501 20.1479 17.6524 19.9272 17.8991 19.4338L18.3986 18.4351C18.6453 17.9417 18.4236 17.3395 17.9311 17.0928C17.6844 16.969 17.4237 16.981 17.1819 17.0609ZM5.69395 19.0583C5.45141 19.1392 5.22426 19.311 5.1009 19.5577L4.60144 20.5564C4.35471 21.0498 4.57617 21.652 5.06963 21.8987C5.56309 22.1454 6.16513 21.9246 6.41186 21.4313L6.91132 20.4325C7.15805 19.9392 6.93659 19.3369 6.44313 19.0903C6.1964 18.9664 5.93648 18.9784 5.69395 19.0583ZM13.1863 19.0583C12.9435 19.1392 12.7158 19.311 12.5929 19.5577L12.0935 20.5564C11.8467 21.0498 12.0675 21.652 12.561 21.8987C13.0544 22.1454 13.6568 21.9246 13.9035 21.4313L14.4029 20.4325C14.6497 19.9392 14.4289 19.3369 13.9355 19.0903C13.6887 18.9664 13.428 18.9784 13.1863 19.0583Z" fill="black" fill-opacity="0.4"/>
<path d="M12.5 2C9.9685 2 7.9369 3.69401 7.25 6.06201C4.8891 6.20101 3 8.104 3 10.5C3 12.985 5.0147 15 7.5 15C9.3078 15 16.492 15 17.5 15C19.433 15 21 13.433 21 11.5C21 9.742 19.689 8.34299 18 8.09399C18 7.91099 18 7.639 18 7.5C18 4.462 15.538 2 12.5 2ZM12.5 4C14.433 4 16 5.567 16 7.5C16 7.852 16 8.329 16 9C16 9.552 16.448 10 17 10C17.008 10 17.187 10 17.5 10C18.328 10 19 10.672 19 11.5C19 12.328 18.328 13 17.5 13C16.492 13 9.3078 13 7.5 13C6.1193 13 5 11.881 5 10.5C5 9.119 6.1193 8 7.5 8C7.5793 8 7.9163 8 8 8C8.4976 8 8.9296 7.64901 9 7.15601C9.2612 5.32901 10.7 4 12.5 4Z" fill="black"/>
</svg>
