<svg width="24" height="24" viewBox="0 0 24 24" fill="none" xmlns="http://www.w3.org/2000/svg">
<path fill-rule="evenodd" clip-rule="evenodd" d="M7.25 6.0606C7.937 3.69342 9.969 2 12.5 2C15.537 2 18 4.46114 18 7.49809V8.09187C19.689 8.34079 21 9.73931 21 11.4967C21 13.429 19.433 14.9955 17.5 14.9955H7.5C5.015 14.9955 3 12.9812 3 10.497C3 8.10288 4.889 6.19955 7.25 6.0606ZM16 7.49809C16 5.56576 14.433 3.9993 12.5 3.9993C10.7 3.9993 9.261 5.32785 9 7.15421C8.93 7.64704 8.498 7.99791 8 7.99791H7.5C6.119 7.99791 5 9.11652 5 10.497C5 11.8776 6.119 12.9962 7.5 12.9962H17.5C18.328 12.9962 19 12.3244 19 11.4967C19 10.669 18.328 9.99722 17.5 9.99722H17C16.448 9.99722 16 9.54937 16 8.99756V7.49809ZM6.08467 17.5555C6.20767 17.3086 6.43567 17.1367 6.67867 17.0557C6.92067 16.9757 7.18167 16.9637 7.42867 17.0877C7.92167 17.3346 8.14368 17.9374 7.89668 18.4312L6.89668 20.4305C6.64968 20.9243 6.04667 21.1453 5.55267 20.8984C5.05967 20.6514 4.83767 20.0487 5.08467 19.5548L6.08467 17.5555ZM17.0847 17.5555C17.2077 17.3086 17.4357 17.1367 17.6787 17.0557C17.9207 16.9757 18.1817 16.9637 18.4287 17.0877C18.9217 17.3346 19.1437 17.9374 18.8967 18.4312L17.8967 20.4305C17.6497 20.9243 17.0467 21.1453 16.5527 20.8984C16.0597 20.6514 15.8377 20.0487 16.0847 19.5548L17.0847 17.5555Z" fill="black" fill-opacity="0.4"/>
<path d="M12.5 16C12.35 16 12.217 16.051 12.125 16.156C12.048 16.244 10.185 19.066 10.094 19.188C10.031 19.271 10 19.387 10 19.5C10 19.776 10.224 20 10.5 20H11.531C11.531 20 11 21.388 11 21.5C11 21.776 11.224 22 11.5 22C11.643 22 11.784 21.94 11.875 21.844C11.96 21.754 13.815 18.928 13.906 18.812C13.974 18.727 14 18.618 14 18.5C14 18.224 13.776 18 13.5 18H12.531C12.531 18 13 16.655 13 16.5C13 16.224 12.776 16 12.5 16Z" fill="black"/>
</svg>
