<svg width="24" height="24" viewBox="0 0 24 24" fill="none" xmlns="http://www.w3.org/2000/svg">
<path d="M5.69383 17.0609C5.45107 17.1417 5.22329 17.3144 5.10041 17.56L4.10142 19.5566C3.85466 20.0498 4.07644 20.6518 4.56895 20.8984C5.06245 21.1449 5.66486 20.9243 5.91161 20.4311L6.91061 18.4345C7.15736 17.9413 6.93557 17.3394 6.44306 17.0928C6.19631 16.969 5.93559 16.98 5.69383 17.0609ZM9.68981 17.0609C9.44705 17.1417 9.21928 17.3144 9.09641 17.56L8.09741 19.5566C7.85066 20.0498 8.07245 20.6518 8.56496 20.8984C9.05846 21.1449 9.66085 20.9243 9.9076 20.4311L10.9066 18.4345C11.1534 17.9413 10.9316 17.3394 10.4391 17.0928C10.1923 16.969 9.93156 16.98 9.68981 17.0609ZM13.6858 17.0609C13.443 17.1417 13.2153 17.3144 13.0924 17.56L12.0934 19.5566C11.8466 20.0498 12.0684 20.6518 12.5609 20.8984C13.0545 21.1449 13.6568 20.9243 13.9036 20.4311L14.9026 18.4345C15.1493 17.9413 14.9276 17.3394 14.435 17.0928C14.1883 16.969 13.9276 16.98 13.6858 17.0609ZM17.6818 17.0609C17.439 17.1417 17.2113 17.3144 17.0884 17.56L16.0894 19.5566C15.8426 20.0498 16.0644 20.6518 16.5569 20.8984C17.0504 21.1449 17.6528 20.9243 17.8996 20.4311L18.8986 18.4345C19.1453 17.9413 18.9235 17.3394 18.431 17.0928C18.1843 16.969 17.9235 16.98 17.6818 17.0609Z" fill="black" fill-opacity="0.4"/>
<path d="M12.5 2C9.969 2 7.937 3.69401 7.25 6.06201C4.889 6.20101 3 8.104 3 10.5C3 12.985 5.015 15 7.5 15C9.308 15 16.492 15 17.5 15C19.433 15 21 13.433 21 11.5C21 9.742 19.689 8.34299 18 8.09399C18 7.91099 18 7.639 18 7.5C18 4.462 15.537 2 12.5 2ZM12.5 4C14.433 4 16 5.567 16 7.5C16 7.852 16 8.328 16 9C16 9.552 16.448 10 17 10C17.008 10 17.187 10 17.5 10C18.328 10 19 10.672 19 11.5C19 12.328 18.328 13 17.5 13C16.492 13 9.308 13 7.5 13C6.119 13 5 11.881 5 10.5C5 9.119 6.119 8 7.5 8C7.579 8 7.916 8 8 8C8.498 8 8.93 7.64901 9 7.15601C9.261 5.32901 10.7 4 12.5 4Z" fill="black"/>
</svg>
