<svg width="24" height="24" viewBox="0 0 24 24" fill="none" xmlns="http://www.w3.org/2000/svg">
<path d="M5.99594 17.4989C5.39974 17.4989 5.06121 17.5919 4.55989 17.8429C4.06655 18.0899 3.84585 18.6919 4.09252 19.1869C4.33918 19.6799 4.94037 19.9019 5.43371 19.6549C5.68237 19.5309 5.75926 19.4989 5.99594 19.4989C6.23262 19.4989 6.30953 19.5309 6.55719 19.6549C7.05851 19.9059 7.39704 19.9989 7.99324 19.9989C8.58844 19.9989 8.92799 19.9059 9.42831 19.6549C9.67698 19.5309 9.75386 19.4989 9.99054 19.4989C10.2272 19.4989 10.3041 19.5309 10.5518 19.6549C11.0531 19.9059 11.3917 19.9989 11.9878 19.9989C12.583 19.9989 12.9226 19.9059 13.4229 19.6549C13.6716 19.5309 13.7485 19.4989 13.9851 19.4989C14.2218 19.4989 14.2987 19.5309 14.5464 19.6549C15.0477 19.9059 15.3863 19.9989 15.9825 19.9989C16.5776 19.9989 16.9172 19.9059 17.4175 19.6549C17.6662 19.5309 17.7431 19.4989 17.9798 19.4989C18.2164 19.4989 18.2933 19.5309 18.541 19.6549C19.0343 19.9019 19.6365 19.7119 19.8832 19.2179C20.1299 18.7239 19.9401 18.1209 19.4468 17.8739C19.4348 17.8679 19.4268 17.8489 19.4148 17.8429C18.9145 17.5919 18.575 17.4989 17.9798 17.4989C17.3836 17.4989 17.045 17.5919 16.5437 17.8429C16.296 17.9669 16.2191 17.9989 15.9825 17.9989C15.7458 17.9989 15.6689 17.9669 15.4202 17.8429C14.9199 17.5919 14.5803 17.4989 13.9851 17.4989C13.389 17.4989 13.0504 17.5919 12.5491 17.8429C12.3014 17.9669 12.2245 17.9989 11.9878 17.9989C11.7512 17.9989 11.6743 17.9669 11.4256 17.8429C10.9253 17.5919 10.5857 17.4989 9.99054 17.4989C9.39435 17.4989 9.05582 17.5919 8.55449 17.8429C8.30683 17.9669 8.22992 17.9989 7.99324 17.9989C7.75656 17.9989 7.67968 17.9669 7.43101 17.8429C6.93069 17.5919 6.59113 17.4989 5.99594 17.4989Z" fill="black" fill-opacity="0.4"/>
<path d="M12.5 2C9.969 2 7.937 3.69401 7.25 6.06201C4.889 6.20101 3 8.104 3 10.5C3 12.985 5.015 15 7.5 15C9.308 15 16.492 15 17.5 15C19.433 15 21 13.433 21 11.5C21 9.742 19.689 8.34299 18 8.09399C18 7.91099 18 7.639 18 7.5C18 4.462 15.537 2 12.5 2ZM12.5 4C14.433 4 16 5.567 16 7.5C16 7.852 16 8.329 16 9C16 9.552 16.448 10 17 10C17.008 10 17.187 10 17.5 10C18.328 10 19 10.672 19 11.5C19 12.328 18.328 13 17.5 13C16.492 13 9.308 13 7.5 13C6.119 13 5 11.881 5 10.5C5 9.119 6.119 8 7.5 8C7.579 8 7.916 8 8 8C8.498 8 8.93 7.64901 9 7.15601C9.261 5.32901 10.7 4 12.5 4Z" fill="black"/>
</svg>
