<svg width="24" height="24" viewBox="0 0 24 24" fill="none" xmlns="http://www.w3.org/2000/svg">
<path d="M12 3.99801C8.834 4.02301 5.91701 6.17802 5.15601 9.56002C3.21501 10.377 2 12.192 2 14.373C2 17.383 4.376 19.998 7.312 19.998H17C19.734 19.998 22 18.015 22 15.498C22 13.683 20.749 12.086 19 11.373C19.002 11.194 19 11.024 19 10.998C19.03 7.16201 15.791 3.96801 12 3.99801Z" fill="black" fill-opacity="0.4"/>
<path d="M11.9995 16C11.4496 16 11.0033 15.5526 11.0033 15.0014V11.0069L9 10.9869L12.0294 8L15 10.9989L12.9957 11.0069V15.0014C12.9957 15.5526 12.5494 16 11.9995 16Z" fill="black"/>
</svg>
