<svg width="24" height="24" viewBox="0 0 24 24" fill="none" xmlns="http://www.w3.org/2000/svg">
<path d="M12.5 15.9989C12.35 15.9989 12.217 16.0499 12.125 16.1549C12.048 16.2429 10.185 19.0649 10.094 19.1869C10.031 19.2699 10 19.3859 10 19.4989C10 19.7749 10.224 19.9989 10.5 19.9989H11.531C11.531 19.9989 11 21.3869 11 21.4989C11 21.7749 11.224 21.9989 11.5 21.9989C11.643 21.9989 11.784 21.9389 11.875 21.8429C11.96 21.7529 13.815 18.9269 13.906 18.8109C13.974 18.7259 14 18.6169 14 18.4989C14 18.2229 13.776 17.9989 13.5 17.9989H12.531C12.531 17.9989 13 16.6539 13 16.4989C13 16.2229 12.776 15.9989 12.5 15.9989Z" fill="black"/>
<path d="M12.5 2C9.969 2 7.937 3.69401 7.25 6.06201C4.889 6.20101 3 8.105 3 10.5C3 12.985 5.015 15 7.5 15C9.308 15 16.492 15 17.5 15C19.433 15 21 13.433 21 11.5C21 9.742 19.689 8.34299 18 8.09399C18 7.91099 18 7.639 18 7.5C18 4.462 15.537 2 12.5 2Z" fill="black" fill-opacity="0.4"/>
</svg>
