<svg width="24" height="24" viewBox="0 0 24 24" fill="none" xmlns="http://www.w3.org/2000/svg">
<path fill-rule="evenodd" clip-rule="evenodd" d="M6 2C6.55228 2 7 2.44772 7 3V15C7 16.1046 7.89543 17 9 17H21C21.5523 17 22 17.4477 22 18C22 18.5523 21.5523 19 21 19H9C6.79086 19 5 17.2091 5 15V3C5 2.44772 5.44772 2 6 2Z" fill="black"/>
<path fill-rule="evenodd" clip-rule="evenodd" d="M2 6C2 5.44772 2.44772 5 3 5H5V7H3C2.44772 7 2 6.55228 2 6ZM18 22C17.4477 22 17 21.5523 17 21V19H19V21C19 21.5523 18.5523 22 18 22ZM17 14C17 14.5523 17.4477 15 18 15C18.5523 15 19 14.5523 19 14V9.00006C19 6.79092 17.2091 5.00006 15 5.00006H10C9.44771 5.00006 9 5.44778 9 6.00006C9 6.55235 9.44771 7.00006 10 7.00006H15C16.1046 7.00006 17 7.89549 17 9.00006V14Z" fill="black" fill-opacity="0.4"/>
</svg>
