<svg width="24" height="24" viewBox="0 0 24 24" fill="none" xmlns="http://www.w3.org/2000/svg">
<path d="M3 7C3 4.791 4.791 3 7 3H12.125C11.47 3.846 11 4.847 11 6V13H8L12 17L16 13H13V6C13 4.343 14.343 3 16 3H17C19.209 3 21 4.791 21 7V17C21 19.209 19.209 21 17 21H7C4.791 21 3 19.209 3 17V7Z" fill="black" fill-opacity="0.4"/>
<path fill-rule="evenodd" clip-rule="evenodd" d="M16 3C14.3431 3 13 4.34315 13 6V13H16L12 17L8 13H11V6C11 4.87432 11.3722 3.83569 12 3C13 3.00004 16 3 16 3Z" fill="black"/>
</svg>
