<svg width="24" height="24" viewBox="0 0 24 24" fill="none" xmlns="http://www.w3.org/2000/svg">
<path fill-rule="evenodd" clip-rule="evenodd" d="M9.31091 10.2653L11.361 12L9.31094 13.7347C9.86057 14.1244 10.3075 14.6493 10.6033 15.2611L13.5406 12.7756C13.5498 12.7682 13.5588 12.7606 13.5677 12.7528L20.646 6.76341C21.0676 6.40666 21.1202 5.77569 20.7634 5.35408C20.4067 4.93247 19.7757 4.87989 19.3541 5.23663L12.9091 10.6901L10.6033 8.73896C10.3075 9.35069 9.86054 9.87565 9.31091 10.2653ZM15.2366 13.9695C15.5934 13.5479 16.2244 13.4953 16.646 13.852L20.646 17.2366C21.0676 17.5934 21.1202 18.2244 20.7634 18.646C20.4067 19.0676 19.7757 19.1202 19.3541 18.7634L15.3541 15.3788C14.9325 15.022 14.8799 14.3911 15.2366 13.9695Z" fill="black"/>
<path fill-rule="evenodd" clip-rule="evenodd" d="M9 7C9 8.10457 8.10457 9 7 9C5.89543 9 5 8.10457 5 7C5 5.89543 5.89543 5 7 5C8.10457 5 9 5.89543 9 7ZM11 7C11 9.20914 9.20914 11 7 11C4.79086 11 3 9.20914 3 7C3 4.79086 4.79086 3 7 3C9.20914 3 11 4.79086 11 7ZM9 17C9 18.1046 8.10457 19 7 19C5.89543 19 5 18.1046 5 17C5 15.8954 5.89543 15 7 15C8.10457 15 9 15.8954 9 17ZM11 17C11 19.2091 9.20914 21 7 21C4.79086 21 3 19.2091 3 17C3 14.7909 4.79086 13 7 13C9.20914 13 11 14.7909 11 17Z" fill="black" fill-opacity="0.4"/>
</svg>
