<svg width="24" height="24" viewBox="0 0 24 24" fill="none" xmlns="http://www.w3.org/2000/svg">
<path d="M4 9.625V12C4 14.441 7.638 16 12 16C16.362 16 20 14.441 20 12V9.625C18.186 11.115 15.358 12 12 12C8.642 12 5.814 11.115 4 9.625ZM4 15.625V18C4 20.441 7.638 22 12 22C16.362 22 20 20.441 20 18V15.625C18.186 17.115 15.358 18 12 18C8.642 18 5.814 17.115 4 15.625Z" fill="black" fill-opacity="0.4"/>
<path d="M12 2C7.638 2 4 3.559 4 6C4 8.441 7.638 10 12 10C16.362 10 20 8.441 20 6C20 3.559 16.362 2 12 2Z" fill="black"/>
</svg>
