<svg width="24" height="24" viewBox="0 0 24 24" fill="none" xmlns="http://www.w3.org/2000/svg">
<path d="M11.625 2.081C10.746 2.456 5.47199 4.70701 4.59399 5.082C4.22499 5.239 4 5.58701 4 5.98801C4 10.368 4.17499 12.328 4.96899 14.585C6.00799 17.54 8.048 19.895 11.5 21.868C11.807 22.044 12.193 22.044 12.5 21.868C15.983 19.877 18.032 17.53 19.062 14.585C19.846 12.344 20 10.48 20 5.98801C20 5.58901 19.773 5.24 19.406 5.082L12.438 2.081C12.186 1.973 11.877 1.973 11.625 2.081Z" fill="black" fill-opacity="0.4"/>
<path d="M12 7C11.448 7 11 7.448 11 8V12C11 12.552 11.448 13 12 13C12.552 13 13 12.552 13 12V8C13 7.448 12.552 7 12 7ZM12 14C11.448 14 11 14.448 11 15C11 15.552 11.448 16 12 16C12.552 16 13 15.552 13 15C13 14.448 12.552 14 12 14Z" fill="black"/>
</svg>
