<svg width="24" height="24" viewBox="0 0 24 24" fill="none" xmlns="http://www.w3.org/2000/svg">
<path d="M11.656 2.08102C11.602 2.10403 4.879 4.91188 4.687 4.9879C4.397 5.10394 4 5.30299 4 5.95719C4 11.5259 4.32701 14.0796 5.88901 16.6634L18.062 4.51877L12.437 2.08102C12.187 1.97299 11.907 1.97299 11.656 2.08102ZM20 8.23888L8.50001 19.7113C9.37201 20.4895 10.309 21.1868 11.5 21.868C11.807 22.044 12.193 22.044 12.5 21.868C15.981 19.8764 18.032 17.5297 19.062 14.5848C19.668 12.8533 19.927 10.9067 20 8.23888Z" fill="black" fill-opacity="0.4"/>
<path fill-rule="evenodd" clip-rule="evenodd" d="M19.7071 4.29289C20.0976 4.68342 20.0976 5.31658 19.7071 5.70711L5.70711 19.7071C5.31658 20.0976 4.68342 20.0976 4.29289 19.7071C3.90237 19.3166 3.90237 18.6834 4.29289 18.2929L18.2929 4.29289C18.6834 3.90237 19.3166 3.90237 19.7071 4.29289Z" fill="black"/>
</svg>
