<svg width="24" height="24" viewBox="0 0 24 24" fill="none" xmlns="http://www.w3.org/2000/svg">
<path fill-rule="evenodd" clip-rule="evenodd" d="M9 14V20H15V14H17V21C17 21.5523 16.5523 22 16 22H8C7.44772 22 7 21.5523 7 21V14H9Z" fill="black" fill-opacity="0.4"/>
<path d="M9 14V12H5L10.8012 4.63488C11.4092 3.87193 12.5908 3.87193 13.1988 4.63488L19 12H15V14H18.9712C20.661 14 21.6075 12.0995 20.5635 10.8028L14.3885 3.13292C13.1723 1.62236 10.8277 1.62236 9.61153 3.13292L3.43648 10.8028C2.39252 12.0995 3.33905 14 5.02879 14H9Z" fill="black"/>
</svg>
