<svg width="24" height="24" viewBox="0 0 24 24" fill="none" xmlns="http://www.w3.org/2000/svg">
<path d="M4 13.313L11.281 19.7191C11.281 19.7191 11.538 20.0031 12 20.0001C12.544 19.9971 13 19.5251 13 19.0001C13 18.8681 13 16.0041 13 13.313L20.281 19.7191C20.281 19.7191 20.538 20.0031 21 20.0001C21.544 19.9971 22 19.5251 22 19.0001C22 18.6741 22 5.26901 22 5.00001C21.976 4.44801 21.596 4.001 21 4C20.569 3.999 20.281 4.28101 20.281 4.28101L13 10.688C13 8.00001 13 5.10901 13 5.00001C12.976 4.44801 12.596 4.001 12 4C11.569 3.999 11.281 4.28101 11.281 4.28101L4 10.688V13.313Z" fill="black" fill-opacity="0.4"/>
<path fill-rule="evenodd" clip-rule="evenodd" d="M3 4C3.55228 4 4 4.44772 4 5V19C4 19.5523 3.55228 20 3 20C2.44772 20 2 19.5523 2 19V5C2 4.44772 2.44772 4 3 4Z" fill="black"/>
</svg>
