<svg width="24" height="24" viewBox="0 0 24 24" fill="none" xmlns="http://www.w3.org/2000/svg">
<path d="M4 13.8121L9.438 19.2501C9.438 19.2501 9.58699 19.4251 9.71899 19.5311C10.061 19.8091 10.51 19.9971 11 20.0001C12.087 20.0071 12.992 19.1151 13 18.0001C13.001 17.8861 13 15.6801 13 13.8121L18.438 19.2501C18.438 19.2501 18.587 19.4251 18.719 19.5311C19.061 19.8091 19.51 19.9971 20 20.0001C21.087 20.0071 21.992 19.1151 22 18.0001C22.002 17.6741 22 6.26909 22 6.00009C22.012 4.90109 21.117 4.01009 20 4.00009C19.571 3.99609 19.194 4.12608 18.875 4.34408C18.73 4.44208 18.618 4.53009 18.531 4.62509L13 10.1871C13 8.3251 13 6.09409 13 6.00009C13.012 4.90109 12.117 4.01009 11 4.00009C10.571 3.99609 10.194 4.12608 9.875 4.34408C9.73 4.44208 9.618 4.53009 9.531 4.62509L4 10.1871V13.8121ZM11 6.00009V18.0001L5 12.0001L11 6.00009ZM20 6.00009V18.0001L14 12.0001L20 6.00009Z" fill="black" fill-opacity="0.4"/>
<path fill-rule="evenodd" clip-rule="evenodd" d="M3 4C3.55228 4 4 4.44772 4 5V19C4 19.5523 3.55228 20 3 20C2.44772 20 2 19.5523 2 19V5C2 4.44772 2.44772 4 3 4Z" fill="black"/>
</svg>
