<svg width="24" height="24" viewBox="0 0 24 24" fill="none" xmlns="http://www.w3.org/2000/svg">
<path d="M6 4C3.791 4 2 5.791 2 8V16C2 18.209 3.791 20 6 20H18C20.209 20 22 18.209 22 16V8C22 5.791 20.209 4 18 4H6ZM6 6H18C19.105 6 20 6.895 20 8V16C20 17.105 19.105 18 18 18H6C4.895 18 4 17.105 4 16V8C4 6.895 4.895 6 6 6Z" fill="black" fill-opacity="0.4"/>
<path d="M7 8.00561C6.448 8.00561 6 8.45298 6 9.0042V14.9958C6 15.547 6.448 15.9944 7 15.9944C7.552 15.9944 8 15.547 8 14.9958V12.718L12.281 15.8696C12.675 16.1572 13 15.9504 13 15.4332V12.718L17.281 15.8696C17.675 16.1572 18 15.9504 18 15.4332V8.56683C18 8.04956 17.675 7.84283 17.281 8.13043L13 11.282V8.56683C13 8.04956 12.675 7.84283 12.281 8.13043L8 11.282V9.0042C8 8.45298 7.552 8.00561 7 8.00561Z" fill="black"/>
</svg>
