<svg width="24" height="24" viewBox="0 0 24 24" fill="none" xmlns="http://www.w3.org/2000/svg">
<path opacity="0.996154" d="M3 4C2.448 4 2 4.448 2 5.00001V19.0001C2 19.5521 2.448 20.0001 3 20.0001C3.552 20.0001 4 19.5521 4 19.0001V5.00001C4 4.448 3.552 4 3 4Z" fill="black" fill-opacity="0.4"/>
<path opacity="0.996154" d="M11.9798 4C11.5479 3.999 11.2594 4.28101 11.2594 4.28101L5.24725 11.3121C4.91758 11.6961 4.91758 12.305 5.24725 12.688L11.2594 19.7191C11.2594 19.7191 11.5169 20.0031 11.9798 20.0001C12.5249 19.9971 12.9818 19.5251 12.9818 19.0001C12.9818 18.6741 12.9818 5.26901 12.9818 5.00001C12.9578 4.44801 12.577 4.001 11.9798 4ZM20.998 4C20.5661 3.999 20.2775 4.28101 20.2775 4.28101L14.2654 11.3121C13.9358 11.6961 13.9358 12.305 14.2654 12.688L20.2775 19.7191C20.2775 19.7191 20.535 20.0031 20.998 20.0001C21.5431 19.9971 22 19.5251 22 19.0001C22 18.6741 22 5.26901 22 5.00001C21.976 4.44801 21.5952 4.001 20.998 4Z" fill="black"/>
</svg>
