<svg width="24" height="24" viewBox="0 0 24 24" fill="none" xmlns="http://www.w3.org/2000/svg">
<path d="M12 2C17.5228 2 22 6.477 22 12C22 17.523 17.5228 22 12 22C6.477 22 2 17.523 2 12C2 6.477 6.477 2 12 2Z" fill="black" fill-opacity="0.4"/>
<path d="M9 8.00561C9.552 8.00561 10 8.45298 10 9.0042V11.3759L15.2812 8.13043C15.6748 7.84283 16 8.04956 16 8.56683V15.4332C16 15.9504 15.6747 16.1572 15.2812 15.8696L10 12.6241V14.9958C10 15.547 9.552 15.9944 9 15.9944C8.448 15.9944 8 15.547 8 14.9958V9.0042C8 8.45298 8.448 8.00561 9 8.00561Z" fill="black"/>
</svg>
