<svg width="24" height="24" viewBox="0 0 24 24" fill="none" xmlns="http://www.w3.org/2000/svg">
<path d="M11 4.00009C10.571 3.99609 10.194 4.12708 9.87497 4.34408C9.68717 4.47208 9.56137 4.60208 9.46877 4.71908L5.28116 10.9691L5.21877 11.0941C5.18577 11.1621 5.13037 11.2311 5.09377 11.3441C5.02777 11.5481 4.99787 11.7751 4.99997 12.0001C5.00027 12.0211 4.99937 12.0101 4.99997 12.0311C5.00717 12.2441 5.03647 12.4441 5.09377 12.6251C5.13617 12.7591 5.20467 12.8571 5.24997 12.9381L9.34377 19.0941C9.41527 19.2111 9.54627 19.3971 9.74997 19.5631C10.092 19.8401 10.51 19.9971 11 20.0001C12.087 20.0071 12.992 19.1151 13 18.0001C13.002 17.6751 13 6.26909 13 6.00009C13.012 4.90109 12.117 4.01109 11 4.00009ZM20 4.00009C19.571 3.99609 19.194 4.12708 18.875 4.34408C18.687 4.47208 18.561 4.60208 18.469 4.71908L14.281 10.9691L14.219 11.0941C14.186 11.1621 14.13 11.2311 14.094 11.3441C14.028 11.5481 13.998 11.7751 14 12.0001C14 12.0211 13.999 12.0101 14 12.0311C14.007 12.2441 14.036 12.4441 14.094 12.6251C14.136 12.7591 14.205 12.8571 14.25 12.9381L18.344 19.0941C18.415 19.2111 18.546 19.3981 18.75 19.5631C19.092 19.8401 19.51 19.9971 20 20.0001C21.087 20.0071 21.992 19.1151 22 18.0001C22.002 17.6751 22 6.26909 22 6.00009C22.012 4.90109 21.117 4.01109 20 4.00009ZM11 6.03109C11 6.37009 11.002 17.6541 11 17.9691L6.99997 12.0311C6.99997 12.0311 7.00097 12.0021 6.99997 12.0001V11.9691L11 6.03109ZM20 6.03109C20 6.37009 20.002 17.6541 20 17.9691L16 12.0311C16 12.0311 16.001 12.0021 16 12.0001V11.9691L20 6.03109Z" fill="black"/>
<path d="M3 4.00012C2.4477 4.00012 2 4.44812 2 5.00012V19.0001C2 19.5521 2.4477 20.0001 3 20.0001C3.5523 20.0001 4 19.5521 4 19.0001V5.00012C4 4.44812 3.5523 4.00012 3 4.00012Z" fill="black" fill-opacity="0.4"/>
</svg>
