<svg width="24" height="24" viewBox="0 0 24 24" fill="none" xmlns="http://www.w3.org/2000/svg">
<path d="M8 2C7.448 2 7 2.448 7 3C7 3.552 7.448 4 8 4H16C16.552 4 17 3.552 17 3C17 2.448 16.552 2 16 2H8ZM8 5C6.343 5 5 6.343 5 8V16C5 17.657 6.343 19 8 19H16C17.657 19 19 17.657 19 16C19 13.1727 19 11.2685 19 8C19 6.343 17.657 5 16 5H8ZM12 8C12.552 8 13 8.448 13 9V12C13 12.552 12.552 13 12 13H9C8.448 13 8 12.552 8 12C8 11.448 8.448 11 9 11H11V9C11 8.448 11.448 8 12 8ZM8 20C7.448 20 7 20.448 7 21C7 21.552 7.448 22 8 22H16C16.552 22 17 21.552 17 21C17 20.448 16.552 20 16 20H8Z" fill="black" fill-opacity="0.4"/>
<path fill-rule="evenodd" clip-rule="evenodd" d="M13 9C13 8.44772 12.5523 8 12 8C11.4477 8 11 8.44772 11 9V11H9C8.44772 11 8 11.4477 8 12C8 12.5523 8.44772 13 9 13H12C12.5523 13 13 12.5523 13 12V9ZM20 10C20 9.44772 19.5523 9 19 9V15C19.5523 15 20 14.5523 20 14V10Z" fill="black"/>
</svg>
