<svg width="24" height="24" viewBox="0 0 24 24" fill="none" xmlns="http://www.w3.org/2000/svg">
<path fill-rule="evenodd" clip-rule="evenodd" d="M9.29296 2.29288C9.68349 1.90235 10.3166 1.90235 10.7072 2.29288L12.0001 3.58577L13.293 2.29288C13.6835 1.90235 14.3167 1.90235 14.7072 2.29288C15.0977 2.6834 15.0977 3.31657 14.7072 3.70709L12.7072 5.70709C12.3166 6.09762 11.6835 6.09762 11.293 5.70709L9.29296 3.70709C8.90244 3.31657 8.90244 2.6834 9.29296 2.29288ZM12.7072 18.2929L14.7072 20.2929C15.0977 20.6834 15.0977 21.3166 14.7072 21.7071C14.3167 22.0976 13.6835 22.0976 13.293 21.7071L12.0001 20.4142L10.7072 21.7071C10.3166 22.0976 9.68349 22.0976 9.29296 21.7071C8.90244 21.3166 8.90244 20.6834 9.29296 20.2929L11.293 18.2929C11.6835 17.9024 12.3166 17.9024 12.7072 18.2929ZM19.7602 6.02668C19.9032 5.49322 19.5866 4.94488 19.0531 4.80194C18.5197 4.659 17.9713 4.97558 17.8284 5.50905L17.0963 8.2411C16.9534 8.77456 17.27 9.3229 17.8034 9.46584L20.5355 10.1979C21.069 10.3408 21.6173 10.0243 21.7602 9.49079C21.9032 8.95732 21.5866 8.40898 21.0531 8.26604L19.287 7.79281L19.7602 6.02668ZM6.17179 18.4908L6.90384 15.7587C7.04678 15.2253 6.7302 14.6769 6.19673 14.534L3.46468 13.8019C2.93122 13.659 2.38288 13.9756 2.23994 14.509C2.097 15.0425 2.41358 15.5908 2.94704 15.7338L4.71317 16.207L4.23994 17.9731C4.097 18.5066 4.41358 19.055 4.94704 19.1979C5.48051 19.3408 6.02885 19.0243 6.17179 18.4908ZM2.947 8.26618C2.41353 8.40912 2.09695 8.95746 2.23989 9.49092C2.38283 10.0244 2.93117 10.341 3.46463 10.198L6.19668 9.46598C6.73015 9.32304 7.04673 8.7747 6.90379 8.24123L6.17174 5.50918C6.0288 4.97572 5.48046 4.65913 4.947 4.80208C4.41353 4.94502 4.09695 5.49336 4.23989 6.02682L4.71312 7.79295L2.947 8.26618ZM20.5355 13.8021L17.8034 14.5341C17.2699 14.6771 16.9534 15.2254 17.0963 15.7589L17.8283 18.4909C17.9713 19.0244 18.5196 19.341 19.0531 19.198C19.5866 19.0551 19.9031 18.5068 19.7602 17.9733L19.287 16.2072L21.0531 15.7339C21.5866 15.591 21.9031 15.0426 21.7602 14.5092C21.6173 13.9757 21.0689 13.6591 20.5355 13.8021Z" fill="black"/>
<path fill-rule="evenodd" clip-rule="evenodd" d="M13 4.99998C13 4.4477 12.5523 3.99998 12 3.99998C11.4477 3.99998 11 4.4477 11 4.99998V7.92769L8.99104 9.10802L6.43779 7.6339C5.9595 7.35776 5.34791 7.52163 5.07176 7.99993C4.79562 8.47822 4.9595 9.08981 5.43779 9.36595L7.99999 10.8452V13.1548L5.43783 14.634C4.95953 14.9102 4.79566 15.5218 5.0718 16C5.34794 16.4783 5.95953 16.6422 6.43783 16.3661L9.03132 14.8687L11 16.063V19C11 19.5523 11.4477 20 12 20C12.5523 20 13 19.5523 13 19V16.0647L14.9763 14.873L17.5621 16.366C18.0404 16.6421 18.652 16.4782 18.9282 15.9999C19.2043 15.5216 19.0404 14.91 18.5621 14.6339L16 13.1546V10.8454L18.5622 9.36607C19.0405 9.08993 19.2044 8.47834 18.9282 8.00004C18.6521 7.52175 18.0405 7.35788 17.5622 7.63402L15.0051 9.11033L13 7.92859V4.99998ZM9.99999 13.1171V10.8349L11.9992 9.66027L14 10.8394V13.1263L12.0015 14.3313L9.99999 13.1171Z" fill="black" fill-opacity="0.4"/>
</svg>
