<svg width="24" height="24" viewBox="0 0 24 24" fill="none" xmlns="http://www.w3.org/2000/svg">
<path d="M12 14C12 14.552 12.4474 15 12.9986 15H16.9932C17.5444 15 17.9918 14.552 17.9918 14C17.9918 13.448 17.5444 13 16.9932 13H12.9986C12.4474 13 12 13.448 12 14Z" fill="black" fill-opacity="0.4"/>
<path d="M12.0137 10C12.0137 10.552 12.461 11 13.0123 11H19.0041C19.5553 11 20.0027 10.552 20.0027 10C20.0027 9.44801 19.5553 9.00001 19.0041 9.00001H13.0123C12.461 9.00001 12.0137 9.44801 12.0137 10Z" fill="black" fill-opacity="0.4"/>
<path d="M12.0137 6C12.0137 6.552 12.461 7 13.0123 7H21.0014C21.5526 7 22 6.552 22 6C22 5.44801 21.5526 5.00001 21.0014 5.00001H13.0123C12.461 5.00001 12.0137 5.44801 12.0137 6Z" fill="black" fill-opacity="0.4"/>
<path d="M12.9986 19C12.4471 19 12 18.5523 12 18C12 17.4477 12.4471 17 12.9986 17H14.9959C15.5474 17 15.9945 17.4477 15.9945 18C15.9945 18.5523 15.5474 19 14.9959 19H12.9986Z" fill="black" fill-opacity="0.4"/>
<path d="M5 19C5 19.552 5.448 20 6 20C6.552 20 7 19.552 7 19V8.00005H10L6 4.00006L2 8.00005H5V19Z" fill="black"/>
</svg>
