<svg width="24" height="24" viewBox="0 0 24 24" fill="none" xmlns="http://www.w3.org/2000/svg">
<path d="M8 2C5.7909 2 4 3.7909 4 6V18C4 20.2091 5.7909 22 8 22H16C18.2091 22 20 20.2091 20 18V6C20 3.7909 18.2091 2 16 2H8ZM8 4H16C17.1046 4 18 4.8954 18 6V18C18 19.1046 17.1046 20 16 20H8C6.8954 20 6 19.1046 6 18V6C6 4.8954 6.8954 4 8 4Z" fill="black" fill-opacity="0.4"/>
<path d="M12 6C11.4477 6 11 6.4477 11 7C11 7.5523 11.4477 8 12 8C12.5523 8 13 7.5523 13 7C13 6.4477 12.5523 6 12 6ZM12 10C9.7909 10 8 11.7909 8 14C8 16.2091 9.7909 18 12 18C14.2091 18 16 16.2091 16 14C16 11.7909 14.2091 10 12 10ZM12 12C13.1046 12 14 12.8954 14 14C14 15.1046 13.1046 16 12 16C10.8954 16 10 15.1046 10 14C10 12.8954 10.8954 12 12 12Z" fill="black"/>
</svg>
