<svg width="24" height="24" viewBox="0 0 24 24" fill="none" xmlns="http://www.w3.org/2000/svg">
<path d="M11 2C8.791 2 7 3.791 7 6C6.448 6 6 6.448 6 7C6 7.552 6.448 8 7 8V10C6.448 10 6 10.448 6 11C6 11.552 6.448 12 7 12V14C6.448 14 6 14.448 6 15C6 15.552 6.448 16 7 16C7 18.209 8.791 20 11 20V21C11 21.552 11.448 22 12 22C12.552 22 13 21.552 13 21V20C15.209 20 17 18.209 17 16C17.552 16 18 15.552 18 15C18 14.448 17.552 14 17 14V12C17.552 12 18 11.552 18 11C18 10.448 17.552 10 17 10V8C17.552 8 18 7.552 18 7C18 6.448 17.552 6 17 6C17 3.791 15.209 2 13 2H11ZM11 4H13C14.105 4 15 4.895 15 6V16C15 17.105 14.105 18 13 18H11C9.895 18 9 17.105 9 16V6C9 4.895 9.895 4 11 4Z" fill="black" fill-opacity="0.4"/>
<path fill-rule="evenodd" clip-rule="evenodd" d="M13 7C13 7.55228 12.5523 8 12 8C11.4477 8 11 7.55228 11 7C11 6.44772 11.4477 6 12 6C12.5523 6 13 6.44772 13 7ZM14 11C14 12.1046 13.1046 13 12 13C10.8954 13 10 12.1046 10 11C10 9.89543 10.8954 9 12 9C13.1046 9 14 9.89543 14 11ZM12 16C12.5523 16 13 15.5523 13 15C13 14.4477 12.5523 14 12 14C11.4477 14 11 14.4477 11 15C11 15.5523 11.4477 16 12 16Z" fill="black"/>
</svg>
