<svg width="24" height="24" viewBox="0 0 24 24" fill="none" xmlns="http://www.w3.org/2000/svg">
<path d="M6 4C3.7909 4 2 5.791 2 8V16C2 18.209 3.7909 20 6 20H18C20.2091 20 22 18.209 22 16V8C22 5.791 20.2091 4 18 4H6ZM10 8H14C15.1046 8 16 8.895 16 10V14C16 15.105 15.1046 16 14 16H10C8.8954 16 8 15.105 8 14V10C8 8.895 8.8954 8 10 8Z" fill="black" fill-opacity="0.4"/>
<path d="M8 10C8 8.89543 8.89543 8 10 8H14C15.1046 8 16 8.89543 16 10V14C16 15.1046 15.1046 16 14 16H10C8.89543 16 8 15.1046 8 14V10Z" fill="black"/>
</svg>
