<svg width="24" height="24" viewBox="0 0 24 24" fill="none" xmlns="http://www.w3.org/2000/svg">
<path d="M8 3C5.2386 3 3 5.23767 3 7.99704C3 10.3576 4.3343 12.7922 7.1875 16.5859C9.9285 20.2298 10.5875 20.8424 11.8523 20.9913C11.9371 21.0013 12.0648 21.0043 12.1586 20.9913C13.4125 20.8294 14.1008 20.1978 16.8125 16.5859C19.6611 12.7912 21 10.3486 21 7.99704C21 5.23767 18.7614 3 16 3C14.31 3 12.8288 3.86849 11.9978 4.99682C11.1754 3.86849 9.69 3 8 3ZM8 4.99882C9.6568 4.99882 11 6.34102 11 7.99704C11 9.32925 13 9.32925 13 7.99704C13 6.34102 14.3431 4.99882 16 4.99882C17.6568 4.99882 19 6.34102 19 7.99704C19 9.74101 17.7596 11.9727 15.1875 15.3987C13.0371 18.263 12.4354 18.9386 12.0312 18.9905C12.0228 18.9915 11.976 18.9915 11.9688 18.9905C11.5694 18.9436 10.9765 18.276 8.8125 15.3987C6.2356 11.9727 5 9.75 5 7.99704C5 6.34102 6.3431 4.99882 8 4.99882Z" fill="black"/>
</svg>
