<svg width="24" height="24" viewBox="0 0 24 24" fill="none" xmlns="http://www.w3.org/2000/svg">
<path d="M5 13C4.4477 13 4 13.448 4 14C4 14.722 4 19.059 4 19.781C4 21.608 5.5855 22.52 7.2188 21.688L18.781 15.812C20.712 14.828 20.242 13 18.094 13H5ZM6 15H15.906L6.3125 19.906C5.9828 20.074 6 20.082 6 19.781C6 19.184 6 16.452 6 15Z" fill="black"/>
<path d="M6.0312 2.00006C4.8928 1.99206 4 2.84905 4 4.21905C4 4.94105 4 9.27805 4 10.0001C4 10.5521 4.4477 11.0001 5 11.0001H18.094C20.242 11.0001 20.712 9.17204 18.781 8.18804L7.2188 2.31205C6.8104 2.10405 6.4108 2.00306 6.0312 2.00006Z" fill="black" fill-opacity="0.4"/>
</svg>
