<svg width="24" height="24" viewBox="0 0 24 24" fill="none" xmlns="http://www.w3.org/2000/svg">
<path d="M15 3C13.895 3 13 3.895 13 5V9C13 10.105 13.895 11 15 11H19C20.105 11 21 10.105 21 9V5C21 3.895 20.105 3 19 3H15ZM15 5H19V9H15V5ZM5 13C3.895 13 3 13.895 3 15V19C3 20.105 3.895 21 5 21H8.99999C10.105 21 11 20.105 11 19V15C11 13.895 10.105 13 8.99999 13H5ZM15 13C13.895 13 13 13.895 13 15V19C13 20.105 13.895 21 15 21H19C20.105 21 21 20.105 21 19V15C21 13.895 20.105 13 19 13H15ZM5 15H8.99999V19H5V15ZM15 15H19V19H15V15Z" fill="black" fill-opacity="0.4"/>
<path d="M5.46899 3C4.09899 3 3 4.09899 3 5.46899V8.53101C3 9.90101 4.09899 11 5.46899 11H8.531C9.90099 11 11 9.90101 11 8.53101V5.46899C11 4.09899 9.90099 3 8.531 3H5.46899ZM8.156 5.65601C8.352 5.46001 8.64798 5.46001 8.84398 5.65601C9.03998 5.85301 9.03998 6.14799 8.84398 6.34399L6.84399 8.34399C6.64799 8.53999 6.352 8.53999 6.156 8.34399L5.156 7.34399C4.96 7.14699 4.96 6.85201 5.156 6.65601C5.352 6.46001 5.64799 6.46001 5.84399 6.65601L6.49999 7.31201L8.156 5.65601Z" fill="black"/>
</svg>
