<svg width="24" height="24" viewBox="0 0 24 24" fill="none" xmlns="http://www.w3.org/2000/svg">
<path d="M7 2.99841C4.7909 2.99841 3 4.78941 3 6.99841V16.9984C3 19.2074 4.7909 20.9984 7 20.9984H17C19.2091 20.9984 21 19.2074 21 16.9984V6.99841C21 4.78941 19.2091 2.99841 17 2.99841H7Z" fill="black" fill-opacity="0.4"/>
<path fill-rule="evenodd" clip-rule="evenodd" d="M7 12C7 11.4477 7.44772 11 8 11H16C16.5523 11 17 11.4477 17 12C17 12.5523 16.5523 13 16 13H8C7.44772 13 7 12.5523 7 12Z" fill="black"/>
</svg>
