<svg width="24" height="24" viewBox="0 0 24 24" fill="none" xmlns="http://www.w3.org/2000/svg">
<path fill-rule="evenodd" clip-rule="evenodd" d="M6 3C6 2.44772 5.55228 2 5 2C4.44772 2 4 2.44772 4 3V21C4 21.5523 4.44772 22 5 22C5.55228 22 6 21.5523 6 21V3ZM20 3C20 2.44772 19.5523 2 19 2C18.4477 2 18 2.44772 18 3V21C18 21.5523 18.4477 22 19 22C19.5523 22 20 21.5523 20 21V3Z" fill="black" fill-opacity="0.4"/>
<path d="M11 1.9989C9.895 1.9989 9 2.8943 9 3.9989V19.9989C9 21.1035 9.895 21.9989 11 21.9989H13C14.105 21.9989 15 21.1035 15 19.9989V3.9989C15 2.8943 14.105 1.9989 13 1.9989H11Z" fill="black"/>
</svg>
