<svg width="24" height="24" viewBox="0 0 24 24" fill="none" xmlns="http://www.w3.org/2000/svg">
<path fill-rule="evenodd" clip-rule="evenodd" d="M14 3.00001C14 2.67856 13.8455 2.37672 13.5847 2.18877C13.3239 2.00081 12.9887 1.94967 12.6838 2.05132L6.68377 4.05132C6.27543 4.18744 6 4.56958 6 5.00001V20H8V5.72077L12 4.38743V11C11.4477 11 11 11.4477 11 12C11 12.5523 11.4477 13 12 13V20H14V3.00001Z" fill="black"/>
<path fill-rule="evenodd" clip-rule="evenodd" d="M15 3H14V5H15C15.5523 5 16 5.44772 16 6V20H5C4.44772 20 4 20.4477 4 21C4 21.5523 4.44772 22 5 22H19C19.5523 22 20 21.5523 20 21C20 20.4477 19.5523 20 19 20H18V6C18 4.34315 16.6569 3 15 3Z" fill="black" fill-opacity="0.4"/>
</svg>
