<svg width="24" height="24" viewBox="0 0 24 24" fill="none" xmlns="http://www.w3.org/2000/svg">
<path d="M19 4.00001C17.513 4.00301 16.516 5.10502 16.406 5.18702C15.817 5.63002 15.177 6.03701 14.5 6.37501C13.078 7.08601 11.536 7.52501 10 7.78101C9.462 7.87101 8.97601 7.937 8.53101 7.969C8.27101 7.987 6 8 6 8V12C6.28674 12.002 8 12 8 12C8 12 8 10.5 8 10C10 10 13.675 9.21458 16 7.81641V16.1602C13.664 14.7838 10 14 8 14C8 13.5 8 12 8 12C8 12 6.32817 12 6 12C6 12.5 6 15.4756 6 16C6 16 8.35399 16.0151 8.53101 16.0262C9.68811 16.0989 10.8461 16.2779 12.006 16.659C12.848 16.901 13.71 17.229 14.5 17.625C15.173 17.962 15.82 18.373 16.406 18.812C16.516 18.895 17.63 20.009 19 20C20.642 19.989 22 18.724 22 17.125V6.87501C22 5.27601 20.662 3.99701 19 4.00001ZM19 6.00001C19.567 6.00001 20 6.41201 20 6.87501V17.125C20 17.588 19.567 18 19 18C18.433 18 18 17.588 18 17.125C18 14.597 18 9.40301 18 6.87501C18 6.41201 18.433 6.00001 19 6.00001Z" fill="black"/>
<path fill-rule="evenodd" clip-rule="evenodd" d="M6 16V8C3.79088 8.00002 2 9.79087 2 12C2 14.2091 3.79086 16 6 16V18C6 19.6568 7.34315 21 9 21C10.6569 21 12 19.6568 12 18V16.657C11.3251 16.4357 10.6615 16.2834 10 16.1805V18C10 18.5523 9.55228 19 9 19C8.44772 19 8 18.5523 8 18V16H6Z" fill="black" fill-opacity="0.4"/>
</svg>
