<svg width="24" height="24" viewBox="0 0 24 24" fill="none" xmlns="http://www.w3.org/2000/svg">
<path d="M7 3C4.791 3 3 4.791 3 7V9C3 11.209 4.791 13 7 13H17C19.209 13 21 11.209 21 9V7C21 4.791 19.209 3 17 3H7ZM7 7H12C12.552 7 13 7.448 13 8C13 8.552 12.552 9 12 9H7C6.448 9 6 8.552 6 8C6 7.448 6.448 7 7 7ZM15.5 7H17.5C17.958 7 18.129 7.26999 17.875 7.59399L16.969 8.75C16.715 9.074 16.285 9.074 16.031 8.75L15.125 7.59399C14.871 7.26999 15.042 7 15.5 7Z" fill="black"/>
<path d="M6 15C4.343 15 3 16.343 3 18C3 19.657 4.343 21 6 21H18C19.657 21 21 19.657 21 18C21 16.343 19.657 15 18 15H6ZM6 17H18C18.552 17 19 17.448 19 18C19 18.552 18.552 19 18 19H6C5.448 19 5 18.552 5 18C5 17.448 5.448 17 6 17Z" fill="black" fill-opacity="0.4"/>
</svg>
