<svg width="24" height="24" viewBox="0 0 24 24" fill="none" xmlns="http://www.w3.org/2000/svg">
<path d="M12 2C11.744 2 11.477 2.08601 11.281 2.28101L9.56201 4H8C5.791 4 4 5.791 4 8V18C4 20.209 5.791 22 8 22H16C18.209 22 20 20.209 20 18V8C20 5.791 18.209 4 16 4H14.438L12.719 2.28101C12.523 2.08601 12.256 2 12 2ZM12 4.43799L13.281 5.71899C13.469 5.90599 13.735 6 14 6H16C17.105 6 18 6.895 18 8V12H6V8C6 6.895 6.895 6 8 6H10C10.265 6 10.531 5.90599 10.719 5.71899L12 4.43799ZM6 14H18V18C18 19.105 17.105 20 16 20H8C6.895 20 6 19.105 6 18V14Z" fill="black" fill-opacity="0.4"/>
<path fill-rule="evenodd" clip-rule="evenodd" d="M9 8C8.44772 8 8 8.44772 8 9C8 9.55228 8.44772 10 9 10H15C15.5523 10 16 9.55228 16 9C16 8.44772 15.5523 8 15 8H9ZM9 16C8.44772 16 8 16.4477 8 17C8 17.5523 8.44772 18 9 18H15C15.5523 18 16 17.5523 16 17C16 16.4477 15.5523 16 15 16H9Z" fill="black"/>
</svg>
