<svg width="24" height="24" viewBox="0 0 24 24" fill="none" xmlns="http://www.w3.org/2000/svg">
<path d="M12 22C11.744 22 11.477 21.914 11.281 21.719L9.56201 20H8C5.791 20 4 18.209 4 16V6C4 3.791 5.791 2 8 2H16C18.209 2 20 3.791 20 6V16C20 18.209 18.209 20 16 20H14.438L12.719 21.719C12.523 21.914 12.256 22 12 22ZM12 19.562L13.281 18.281C13.469 18.094 13.735 18 14 18H16C17.105 18 18 17.105 18 16V12H6V16C6 17.105 6.895 18 8 18H10C10.265 18 10.531 18.094 10.719 18.281L12 19.562ZM6 10H18V6C18 4.895 17.105 4 16 4H8C6.895 4 6 4.895 6 6V10Z" fill="black" fill-opacity="0.4"/>
<path fill-rule="evenodd" clip-rule="evenodd" d="M9 16C8.44772 16 8 15.5523 8 15C8 14.4477 8.44772 14 9 14H15C15.5523 14 16 14.4477 16 15C16 15.5523 15.5523 16 15 16H9ZM9 8C8.44772 8 8 7.55229 8 7C8 6.44771 8.44772 6 9 6H15C15.5523 6 16 6.44771 16 7C16 7.55229 15.5523 8 15 8H9Z" fill="black"/>
</svg>
