<svg width="24" height="24" viewBox="0 0 24 24" fill="none" xmlns="http://www.w3.org/2000/svg">
<path d="M4 14V18C4 20.209 5.791 22 8 22H16C18.209 22 20 20.209 20 18V14H4ZM9 17H15C15.552 17 16 17.448 16 18C16 18.552 15.552 19 15 19H9C8.448 19 8 18.552 8 18C8 17.448 8.448 17 9 17Z" fill="black" fill-opacity="0.4"/>
<path d="M11.9978 2C11.7418 2 11.4738 2.08601 11.2788 2.28101L9.55981 4H7.9978C5.7888 4 3.9978 5.791 3.9978 8V12H19.9978V8C19.9978 5.791 18.2068 4 15.9978 4H14.4358L12.7168 2.28101C12.5208 2.08601 12.2538 2 11.9978 2ZM8.9978 7H14.9978C15.5498 7 15.9978 7.448 15.9978 8C15.9978 8.552 15.5498 9 14.9978 9H8.9978C8.4458 9 7.9978 8.552 7.9978 8C7.9978 7.448 8.4458 7 8.9978 7Z" fill="black"/>
</svg>
