<svg width="24" height="24" viewBox="0 0 24 24" fill="none" xmlns="http://www.w3.org/2000/svg">
<path fill-rule="evenodd" clip-rule="evenodd" d="M10.7071 2.29289C11.0977 2.68342 11.0977 3.31658 10.7071 3.70711L7.41424 7H4.58582L9.29292 2.29289C9.68345 1.90237 10.3166 1.90237 10.7071 2.29289ZM13.2929 2.29289C12.9023 2.68342 12.9023 3.31658 13.2929 3.70711L16.5858 7H19.4142L14.7071 2.29289C14.3166 1.90237 13.6834 1.90237 13.2929 2.29289ZM4 18C4 16.9904 4.4987 16.0973 5.2632 15.5536C6.00514 16.4475 7.12165 17 8.34234 17H9.82929C9.93985 17.3128 10 17.6494 10 18C10 19.6569 8.65685 21 7 21C5.34315 21 4 19.6569 4 18ZM14 18C14 17.6494 14.0602 17.3128 14.1707 17H15.6577C16.8784 17 17.9949 16.4475 18.7368 15.5536C19.5013 16.0973 20 16.9904 20 18C20 19.6569 18.6569 21 17 21C15.3431 21 14 19.6569 14 18ZM6 18C6 17.4477 6.44772 17 7 17C7.55228 17 8 17.4477 8 18C8 18.5523 7.55228 19 7 19C6.44772 19 6 18.5523 6 18ZM16 18C16 17.4477 16.4477 17 17 17C17.5523 17 18 17.4477 18 18C18 18.5523 17.5523 19 17 19C16.4477 19 16 18.5523 16 18Z" fill="black" fill-opacity="0.4"/>
<path fill-rule="evenodd" clip-rule="evenodd" d="M3.2118 7.38459C3.40131 7.14187 3.69207 7 4.00001 7H20C20.3079 7 20.5987 7.14187 20.7882 7.38459C20.9777 7.6273 21.0448 7.94379 20.9702 8.24254L19.5382 13.9701C19.0931 15.7508 17.4932 17 15.6577 17H8.34234C6.50687 17 4.90694 15.7508 4.46177 13.9701L3.02987 8.24254C2.95518 7.94379 3.0223 7.6273 3.2118 7.38459ZM5.28079 9L6.40205 13.4851C6.62464 14.3754 7.4246 15 8.34234 15H15.6577C16.5754 15 17.3754 14.3754 17.598 13.4851L18.7192 9H5.28079Z" fill="black"/>
</svg>
