<svg width="24" height="24" viewBox="0 0 24 24" fill="none" xmlns="http://www.w3.org/2000/svg">
<path fill-rule="evenodd" clip-rule="evenodd" d="M12 20H21C21.5523 20 22 19.5523 22 19V9C22 6.23858 19.7614 4 17 4H7C8.63582 4 10.0882 4.78555 11.0004 6H17C18.6569 6 20 7.34315 20 9V18H12V20Z" fill="black" fill-opacity="0.4"/>
<path fill-rule="evenodd" clip-rule="evenodd" d="M7 4C4.23858 4 2 6.23858 2 9V19C2 19.5523 2.44772 20 3 20H12V9C12 6.23858 9.76142 4 7 4ZM4 9C4 7.34315 5.34315 6 7 6C8.65685 6 10 7.34315 10 9V18H4V9ZM14 10H18C18.5523 10 19 10.4477 19 11V13C19 13.5523 18.5523 14 18 14H17.9142C17.649 14 17.3946 13.8946 17.2071 13.7071L15.7929 12.2929C15.6054 12.1054 15.351 12 15.0858 12H14C13.4477 12 13 11.5523 13 11C13 10.4477 13.4477 10 14 10Z" fill="black"/>
</svg>
