<svg width="24" height="24" viewBox="0 0 24 24" fill="none" xmlns="http://www.w3.org/2000/svg">
<path fill-rule="evenodd" clip-rule="evenodd" d="M21.5847 4.18877C21.8455 4.37672 22 4.67856 22 5.00001V17C22 17.4304 21.7246 17.8126 21.3162 17.9487L15.3162 19.9487C15.111 20.0171 14.889 20.0171 14.6838 19.9487L9 18.0541L3.31623 19.9487C3.01128 20.0503 2.67606 19.9992 2.41529 19.8112C2.15452 19.6233 2 19.3215 2 19V7.00001C2 6.56958 2.27543 6.18744 2.68377 6.05132L8.68377 4.05132C8.88904 3.9829 9.11096 3.9829 9.31623 4.05132L15 5.94591L20.6838 4.05132C20.9887 3.94967 21.3239 4.00081 21.5847 4.18877ZM4 7.72077V17.6126L8.68377 16.0513C8.88904 15.9829 9.11096 15.9829 9.31623 16.0513L15 17.9459L20 16.2792V6.38743L15.3162 7.94869C15.111 8.01711 14.889 8.01711 14.6838 7.94869L9 6.0541L4 7.72077Z" fill="black"/>
<path fill-rule="evenodd" clip-rule="evenodd" d="M8 6.38741V16.2792L8.68377 16.0513C8.88904 15.9829 9.11096 15.9829 9.31623 16.0513L10 16.2792V6.38741L9 6.05408L8 6.38741ZM14 7.72074V17.6126L15 17.9459L16 17.6126V7.72074L15.3162 7.94867C15.111 8.01709 14.889 8.01709 14.6838 7.94867L14 7.72074Z" fill="black" fill-opacity="0.4"/>
</svg>
