<svg width="24" height="24" viewBox="0 0 24 24" fill="none" xmlns="http://www.w3.org/2000/svg">
<path d="M11.9978 22C11.7418 22 11.4738 21.914 11.2788 21.719L9.55981 20H7.9978C5.7888 20 3.9978 18.209 3.9978 16V12H19.9978V16C19.9978 18.209 18.2068 20 15.9978 20H14.4358L12.7168 21.719C12.5208 21.914 12.2538 22 11.9978 22ZM8.9978 17H14.9978C15.5498 17 15.9978 16.552 15.9978 16C15.9978 15.448 15.5498 15 14.9978 15H8.9978C8.4458 15 7.9978 15.448 7.9978 16C7.9978 16.552 8.4458 17 8.9978 17Z" fill="black"/>
<path d="M4 10V6C4 3.791 5.791 2 8 2H16C18.209 2 20 3.791 20 6V10H4ZM9 7H15C15.552 7 16 6.552 16 6C16 5.448 15.552 5 15 5H9C8.448 5 8 5.448 8 6C8 6.552 8.448 7 9 7Z" fill="black" fill-opacity="0.4"/>
</svg>
