<svg width="24" height="24" viewBox="0 0 24 24" fill="none" xmlns="http://www.w3.org/2000/svg">
<path d="M7.5 2C5.567 2 4 3.567 4 5.5V6.5C4 8.433 5.567 10 7.5 10H13.5C15.433 10 17 8.433 17 6.5V5.5C17 3.567 15.433 2 13.5 2H7.5ZM11.5 5H13.5C13.958 5 14.129 5.26999 13.875 5.59399L12.969 6.75C12.715 7.074 12.285 7.074 12.031 6.75L11.125 5.59399C10.871 5.26999 11.042 5 11.5 5Z" fill="black"/>
<path d="M8 12C5.791 12 4 13.791 4 16V18C4 20.209 5.791 22 8 22H16C18.209 22 20 20.209 20 18V16C20 13.791 18.209 12 16 12H8ZM8 14H16C17.105 14 18 14.895 18 16H6C6 14.895 6.895 14 8 14ZM6 18H18C18 19.105 17.105 20 16 20H8C6.895 20 6 19.105 6 18Z" fill="black" fill-opacity="0.4"/>
</svg>
