<svg width="24" height="24" viewBox="0 0 24 24" fill="none" xmlns="http://www.w3.org/2000/svg">
<path fill-rule="evenodd" clip-rule="evenodd" d="M11.9998 15.993C11.2888 15.993 10.5008 15.795 9.86975 15.517C9.86975 15.517 10.8282 14.5783 11.4648 13.9453C12.4062 14.1055 13.3313 13.8311 13.9961 13.2266C14.8833 12.4197 15 11.6389 15 10.4163L16.9928 8.435V10.996C16.9928 13.755 14.7568 15.993 11.9998 15.993ZM11.0147 19.938C9.59574 19.815 8.16574 19.228 6.97974 18.419L8.43974 16.975C9.50674 17.612 10.6987 17.985 11.9847 17.989C14.6847 17.996 16.8737 16.639 18.1157 14.494C18.2537 14.255 18.4927 14.091 18.7397 14.025C18.9867 13.959 19.2507 14.012 19.4887 14.15C19.9657 14.427 20.1397 15.015 19.8637 15.493C18.4347 17.959 16.0017 19.564 12.9717 19.942L12.9987 21.002C12.9987 21.554 12.5517 22.001 11.9997 22.001C11.4487 22.001 11.0017 21.554 11.0017 21.002L11.0147 19.938Z" fill="black" fill-opacity="0.4"/>
<path fill-rule="evenodd" clip-rule="evenodd" d="M7 6.997C7 4.23701 9.236 2 11.993 2C13.231 2 14.394 2.44299 15.301 3.24899C15.713 3.61599 15.76 4.273 15.394 4.686C15.028 5.099 14.402 5.11498 13.99 4.74798C13.445 4.26398 12.737 3.99899 11.993 3.99899C10.339 3.99899 8.99699 5.341 8.99699 6.997V10.995C8.99699 11.547 8.54999 11.994 7.99899 11.994C7.44699 11.994 7 11.547 7 10.995V6.997ZM19.7071 5.70711C20.0976 5.31658 20.0976 4.68342 19.7071 4.29289C19.3166 3.90237 18.6834 3.90237 18.2929 4.29289L4.29289 18.2929C3.90237 18.6834 3.90237 19.3166 4.29289 19.7071C4.68342 20.0976 5.31658 20.0976 5.70711 19.7071L19.7071 5.70711Z" fill="black"/>
</svg>
