<svg width="24" height="24" viewBox="0 0 24 24" fill="none" xmlns="http://www.w3.org/2000/svg">
<path fill-rule="evenodd" clip-rule="evenodd" d="M11.9998 15.993C11.2888 15.993 10.5008 15.795 9.86976 15.517C11.5028 13.9176 12.9281 12.493 14.455 10.9668C15.2578 10.1643 16.0888 9.33378 16.9928 8.435V10.996C16.9928 13.755 14.7568 15.993 11.9998 15.993ZM11.0147 19.938C9.59575 19.815 8.16574 19.228 6.97974 18.419L8.43975 16.975C9.50675 17.612 10.6987 17.985 11.9847 17.989C14.6847 17.996 16.8737 16.639 18.1157 14.494C18.2537 14.255 18.4928 14.091 18.7397 14.025C18.9868 13.959 19.2507 14.012 19.4887 14.15C19.9657 14.427 20.1397 15.015 19.8637 15.493C18.4347 17.959 16.0017 19.564 12.9717 19.942L12.9987 21.002C12.9987 21.554 12.5517 22.001 11.9997 22.001C11.4487 22.001 11.0017 21.554 11.0017 21.002L11.0147 19.938Z" fill="black" fill-opacity="0.4"/>
<path fill-rule="evenodd" clip-rule="evenodd" d="M7.00001 6.99999C7.00001 4.239 9.236 2 11.993 2C13.565 2 14.947 2.70599 15.862 3.84399L7.225 12.524C7.07 12.203 7.00001 11.513 7.00001 11V6.99999ZM19.7071 5.70711C20.0976 5.31658 20.0976 4.68342 19.7071 4.29289C19.3166 3.90237 18.6834 3.90237 18.2929 4.29289L4.2929 18.2929C3.90238 18.6834 3.90238 19.3166 4.2929 19.7071C4.68343 20.0976 5.31659 20.0976 5.70711 19.7071L19.7071 5.70711Z" fill="black"/>
</svg>
