<svg width="24" height="24" viewBox="0 0 24 24" fill="none" xmlns="http://www.w3.org/2000/svg">
<path d="M5.29849 14.0405C5.05009 13.973 4.75079 13.9839 4.50899 14.1189C4.02549 14.39 3.85729 15.0075 4.13159 15.485C5.56129 17.9701 8.01739 19.6331 11.0051 19.9597L11 21.0072C11 21.5552 11.4441 22 12 22C12.5559 22 13 21.5552 13 21.0072L12.9958 19.9548C15.8511 19.6361 18.4191 17.9969 19.8588 15.5466C20.1376 15.072 19.9938 14.4873 19.5128 14.2123C19.0319 13.9372 18.4076 14.0792 18.1288 14.5538C16.8764 16.6854 14.5429 18.0287 12 18.0287C9.43389 18.0287 7.12639 16.6774 5.88269 14.5151C5.74559 14.2768 5.54679 14.109 5.29849 14.0405Z" fill="black" fill-opacity="0.4"/>
<path d="M12 2C9.23856 2 7 4.239 7 6.99999V11C7 13.761 9.23856 16 12 16C14.7614 16 17 13.761 17 11V6.99999C17 4.239 14.7614 2 12 2ZM12.013 4C13.6699 4 15.013 5.34299 15.013 6.99999V11C15.013 12.657 13.6699 14 12.013 14C10.3561 14 9.01294 12.657 9.01294 11V6.99999C9.01294 5.34299 10.3561 4 12.013 4Z" fill="black"/>
</svg>
