<svg width="24" height="24" viewBox="0 0 24 24" fill="none" xmlns="http://www.w3.org/2000/svg">
<path fill-rule="evenodd" clip-rule="evenodd" d="M3.00001 4C2.70042 4 2.41661 4.13432 2.22667 4.36601C2.03673 4.5977 1.96067 4.90234 2.01943 5.19612L3.37632 11.9806C3.59957 13.0968 4.18432 14.0637 4.99401 14.7693C5.52548 14.291 6.22875 14 7 14C8.30622 14 9.41746 14.8348 9.82929 16H14.1707C14.5825 14.8348 15.6938 14 17 14C17.7713 14 18.4745 14.291 19.006 14.7693C19.8157 14.0637 20.4004 13.0968 20.6237 11.9806L21.9806 5.19612C22.0393 4.90234 21.9633 4.5977 21.7734 4.36601C21.5834 4.13432 21.2996 4 21 4H3.00001Z" fill="black" fill-opacity="0.4"/>
<path fill-rule="evenodd" clip-rule="evenodd" d="M6 17C6 16.4477 6.44772 16 7 16C7.55228 16 8 16.4477 8 17C8 17.5523 7.55228 18 7 18C6.44772 18 6 17.5523 6 17ZM7 14C5.34315 14 4 15.3431 4 17C4 18.6569 5.34315 20 7 20C8.65685 20 10 18.6569 10 17C10 15.3431 8.65685 14 7 14ZM16 17C16 16.4477 16.4477 16 17 16C17.5523 16 18 16.4477 18 17C18 17.5523 17.5523 18 17 18C16.4477 18 16 17.5523 16 17ZM17 14C15.3431 14 14 15.3431 14 17C14 18.6569 15.3431 20 17 20C18.6569 20 20 18.6569 20 17C20 15.3431 18.6569 14 17 14Z" fill="black"/>
</svg>
