<svg width="24" height="24" viewBox="0 0 24 24" fill="none" xmlns="http://www.w3.org/2000/svg">
<path d="M18 3C17.448 3 17 3.448 17 4C17 4.552 17.448 5 18 5H18.5C19.328 5 20 5.671 20 6.5V7H19C18.448 7 18 7.448 18 8C18 8.552 18.448 9 19 9H20V11H18C17.448 11 17 11.448 17 12C17 12.552 17.448 13 18 13H20V15H19C18.448 15 18 15.448 18 16C18 16.552 18.448 17 19 17H20V17.5C20 18.328 19.329 19 18.5 19H18C17.448 19 17 19.448 17 20C17 20.552 17.448 21 18 21H18.5C20.433 21 22 19.433 22 17.5V6.5C22 4.567 20.433 3 18.5 3H18Z" fill="black" fill-opacity="0.4"/>
<path d="M8.99829 4C8.70829 4 8.41728 4.125 8.21729 4.375C8.17529 4.428 7.6133 5.12601 7.4043 5.40601C6.8073 6.20601 6.2133 7.05401 5.6543 7.90601C5.2633 8.50201 4.91129 9.10001 4.59229 9.65601C3.57229 11.434 2.99829 12.872 2.99829 14C2.99829 17.314 5.68429 20 8.99829 20C12.3123 20 14.9983 17.314 14.9983 14C14.9983 12.872 14.4243 11.434 13.4043 9.65601C13.0853 9.10001 12.7333 8.50201 12.3423 7.90601C11.7833 7.05501 11.1893 6.20601 10.5923 5.40601C10.3833 5.12601 9.8213 4.428 9.7793 4.375C9.5793 4.125 9.28829 4 8.99829 4ZM8.99829 6.65601C9.56429 7.41601 10.1283 8.197 10.6543 9C11.0243 9.564 11.7963 10.864 11.8753 11.009L6.12329 10.994C6.20229 10.85 6.97229 9.564 7.34229 9C7.86929 8.197 8.43229 7.41601 8.99829 6.65601ZM5.1973 13.002L12.8043 12.997C12.8893 13.284 12.9983 13.799 12.9983 14C12.9983 16.209 11.2073 18 8.99829 18C6.78929 18 4.99829 16.209 4.99829 14C4.99829 13.799 5.1123 13.29 5.1973 13.002Z" fill="black"/>
</svg>
