<svg width="24" height="24" viewBox="0 0 24 24" fill="none" xmlns="http://www.w3.org/2000/svg">
<path d="M11.9973 2C8.13131 2 4.99731 5.134 4.99731 9V15C4.99731 18.866 8.13131 22 11.9973 22C15.8633 22 18.9973 18.866 18.9973 15V9C18.9973 5.134 15.8633 2 11.9973 2ZM11.9973 4C14.7583 4 16.9973 6.239 16.9973 9V15C16.9973 17.761 14.7583 20 11.9973 20C9.23631 20 6.99731 17.761 6.99731 15V9C6.99731 6.239 9.23631 4 11.9973 4Z" fill="black" fill-opacity="0.4"/>
<path fill-rule="evenodd" clip-rule="evenodd" d="M12 6C12.5523 6 13 6.44772 13 7V10C13 10.5523 12.5523 11 12 11C11.4477 11 11 10.5523 11 10V7C11 6.44772 11.4477 6 12 6Z" fill="black"/>
</svg>
