<svg width="24" height="24" viewBox="0 0 24 24" fill="none" xmlns="http://www.w3.org/2000/svg">
<path fill-rule="evenodd" clip-rule="evenodd" d="M12 2C8.13401 2 5 5.13401 5 9V12V15C5 18.866 8.13401 22 12 22C15.866 22 19 18.866 19 15V12V9C19 5.13401 15.866 2 12 2ZM17 13.1291C16.9506 13.1485 16.901 13.1676 16.8511 13.1863C15.7465 13.6005 14.1279 14 12 14C9.87214 14 8.25346 13.6005 7.14888 13.1863C7.09813 13.1673 7.04855 13.1484 7 13.1294V15C7 17.7614 9.23858 20 12 20C14.7614 20 17 17.7614 17 15V13.1291ZM7.85112 11.3137C7.48939 11.178 7.20569 11.0443 7 10.9361V9C7 6.23858 9.23858 4 12 4C14.7614 4 17 6.23858 17 9V10.9361C16.7943 11.0443 16.5106 11.178 16.1489 11.3137C15.2535 11.6495 13.8721 12 12 12C10.1279 12 8.74654 11.6495 7.85112 11.3137Z" fill="black" fill-opacity="0.4"/>
<path fill-rule="evenodd" clip-rule="evenodd" d="M12 6C12.5523 6 13 6.44772 13 7V9C13 9.55228 12.5523 10 12 10C11.4477 10 11 9.55228 11 9V7C11 6.44772 11.4477 6 12 6Z" fill="black"/>
</svg>
