<svg width="24" height="24" viewBox="0 0 24 24" fill="none" xmlns="http://www.w3.org/2000/svg">
<path fill-rule="evenodd" clip-rule="evenodd" d="M4 6C4.0001 3.791 5.7909 2 8 2H16C18.2091 2 20 3.791 20 6V18C19.9999 20.209 18.2091 22 16 22H8C5.7909 22 4 20.209 4 18V6ZM15 6H9C8.4477 6 8 6.448 8 7V9C8 9.552 8.4477 10 9 10H15C15.5523 10 16 9.552 16 9V7C16 6.448 15.5523 6 15 6ZM13.375 14.75L11.625 13.562C11.421 13.425 11.281 13.536 11.281 13.781V16.25C11.282 16.495 11.423 16.577 11.625 16.438L13.375 15.25C13.577 15.11 13.579 14.887 13.375 14.75Z" fill="black" fill-opacity="0.4"/>
<path d="M12 12C10.343 12 9 13.343 9 15C9 16.657 10.343 18 12 18C13.657 18 15 16.657 15 15C15 13.343 13.657 12 12 12ZM11.625 13.562L13.375 14.75C13.579 14.887 13.577 15.11 13.375 15.25L11.625 16.438C11.423 16.577 11.282 16.495 11.281 16.25V13.781C11.281 13.536 11.421 13.425 11.625 13.562Z" fill="black"/>
</svg>
