<svg width="24" height="24" viewBox="0 0 24 24" fill="none" xmlns="http://www.w3.org/2000/svg">
<path d="M19.8103 2.02021L14.8103 3.02075C14.3433 3.11481 13.9983 3.51301 13.9983 3.99027C13.9983 5.25696 14.0053 12.0326 14.0053 15.3454C13.5483 15.1263 13.0383 14.9962 12.4983 14.9962C10.5653 14.9962 8.99829 16.5641 8.99829 18.4981C8.99829 20.4322 10.5653 22 12.4983 22C14.4313 22 15.9983 20.4322 15.9983 18.4981C15.9983 18.378 15.9983 18.0579 15.9983 17.9978C15.9983 16.6311 15.9983 11.5874 15.9983 8.80489L20.1853 7.96141C20.2523 7.9474 20.5103 7.89536 20.7363 7.66523C20.9623 7.43411 20.9983 7.13697 20.9983 6.99189V2.98973C20.9983 2.35839 20.4293 1.89615 19.8103 2.02021ZM18.9983 4.20939V6.17847L15.9983 6.77278C15.9983 6.14244 15.9983 5.20394 15.9983 4.80272L18.9983 4.20939ZM12.4983 16.9973C13.3263 16.9973 13.9983 17.6687 13.9983 18.4981C13.9983 19.3266 13.3263 19.9989 12.4983 19.9989C11.6703 19.9989 10.9983 19.3266 10.9983 18.4981C10.9983 17.6687 11.6703 16.9973 12.4983 16.9973Z" fill="black"/>
<path d="M4 7C3.448 7 3 7.448 3 8C3 8.552 3.448 9 4 9H11C11.552 9 12 8.552 12 8C12 7.448 11.552 7 11 7H4ZM4 11C3.448 11 3 11.448 3 12C3 12.552 3.448 13 4 13H11C11.552 13 12 12.552 12 12C12 11.448 11.552 11 11 11H4ZM4 15C3.448 15 3 15.448 3 16C3 16.552 3.448 17 4 17H7C7.552 17 8 16.552 8 16C8 15.448 7.552 15 7 15H4Z" fill="black" fill-opacity="0.4"/>
</svg>
