<svg width="24" height="24" viewBox="0 0 24 24" fill="none" xmlns="http://www.w3.org/2000/svg">
<path fill-rule="evenodd" clip-rule="evenodd" d="M9 21.0001V18.8293C8.68722 18.9399 8.35064 19.0001 8 19.0001C7.64936 19.0001 7.31278 18.9399 7 18.8293V21.0001C7 21.5523 7.44772 22.0001 8 22.0001C8.55228 22.0001 9 21.5523 9 21.0001ZM15 21.0001V18.8293C15.3128 18.9399 15.6494 19.0001 16 19.0001C16.3506 19.0001 16.6872 18.9399 17 18.8293V21.0001C17 21.5523 16.5523 22.0001 16 22.0001C15.4477 22.0001 15 21.5523 15 21.0001Z" fill="black" fill-opacity="0.4"/>
<path fill-rule="evenodd" clip-rule="evenodd" d="M11 8C11 5.23858 8.76142 3 6 3H5.5C3.567 3 2 4.567 2 6.5V10C2 11.6569 3.34315 13 5 13V16C5 17.6569 6.34315 19 8 19C9.65685 19 11 17.6569 11 16V8ZM6 7C6 6.44772 5.55228 6 5 6C4.44772 6 4 6.44772 4 7V9C4 9.55228 4.44772 10 5 10C5.55228 10 6 9.55228 6 9V7ZM13 8C13 5.23858 15.2386 3 18 3H18.5C20.433 3 22 4.567 22 6.5V10C22 11.6569 20.6569 13 19 13V16C19 17.6569 17.6569 19 16 19C14.3431 19 13 17.6569 13 16V8ZM18 7C18 6.44772 18.4477 6 19 6C19.5523 6 20 6.44772 20 7V9C20 9.55228 19.5523 10 19 10C18.4477 10 18 9.55228 18 9V7Z" fill="black"/>
</svg>
