<svg width="24" height="24" viewBox="0 0 24 24" fill="none" xmlns="http://www.w3.org/2000/svg">
<path fill-rule="evenodd" clip-rule="evenodd" d="M4 7C4 5.34315 5.34315 4 7 4H17C18.6569 4 20 5.34315 20 7V14C20 15.6569 18.6569 17 17 17H7C5.34315 17 4 15.6569 4 14V7ZM7 6C6.44772 6 6 6.44772 6 7V14C6 14.5523 6.44772 15 7 15H17C17.5523 15 18 14.5523 18 14V7C18 6.44772 17.5523 6 17 6H7Z" fill="black"/>
<path fill-rule="evenodd" clip-rule="evenodd" d="M12 1.9989C11.5864 1.9989 11.1679 2.22933 11.032 2.71748L10.6894 3.99826L10.6891 3.99936H13.3109L13.3106 3.99826L12.968 2.71748C12.8321 2.22933 12.4136 1.9989 12 1.9989ZM16.933 16.9952H14.8413L16.0267 21.2737C16.1746 21.8056 16.744 22.1095 17.2754 21.9615C17.8068 21.8136 18.1105 21.2438 17.9626 20.7119L16.933 16.9952ZM12.9989 16.9952H11.0011V19.9931C11.0011 20.545 11.4486 20.9928 12 20.9928C12.5514 20.9928 12.9989 20.545 12.9989 19.9931V16.9952ZM9.15873 16.9952H7.06696L6.03735 20.7119C5.88951 21.2438 6.19318 21.8136 6.72461 21.9615C7.25605 22.1095 7.82544 21.8056 7.97328 21.2737L9.15873 16.9952Z" fill="black" fill-opacity="0.4"/>
</svg>
