<svg width="24" height="24" viewBox="0 0 24 24" fill="none" xmlns="http://www.w3.org/2000/svg">
<path fill-rule="evenodd" clip-rule="evenodd" d="M3 7C3 4.791 4.7909 3 7 3H17C19.209 3 21 4.791 21 7V17C21 19.209 19.209 21 17 21H7C4.7909 21 3 19.209 3 17V7ZM17 5H7C5.8954 5 5 5.895 5 7V17C5 18.105 5.8954 19 7 19H17C18.105 19 19 18.105 19 17V7C19 5.895 18.105 5 17 5Z" fill="black" fill-opacity="0.4"/>
<path fill-rule="evenodd" clip-rule="evenodd" d="M9 3C9 2.44772 8.55228 2 8 2C7.44772 2 7 2.44772 7 3V5C7 5.55228 7.44772 6 8 6C8.55228 6 9 5.55228 9 5V3ZM17 3C17 2.44772 16.5523 2 16 2C15.4477 2 15 2.44772 15 3V5C15 5.55228 15.4477 6 16 6C16.5523 6 17 5.55228 17 5V3ZM11 10C11 9.448 11.448 9 12 9C12.552 9 13 9.448 13 10V11H14C14.552 11 15 11.448 15 12C15 12.552 14.552 13 14 13H13V14C13 14.552 12.552 15 12 15C11.448 15 11 14.552 11 14V13H10C9.448 13 9 12.552 9 12C9 11.448 9.448 11 10 11H11V10Z" fill="black"/>
</svg>
