<svg width="24" height="24" viewBox="0 0 24 24" fill="none" xmlns="http://www.w3.org/2000/svg">
<path d="M7 3.00003C4.7909 3.00003 2.9999 4.79103 3 7.00003L3 8.00003H21V7.00003C21 4.79103 19.2091 3.00003 17 3.00003C16.1646 3.00004 10.4434 3.00004 8 3.00003C7.51869 3.00003 7.16456 3.00003 7 3.00003Z" fill="black" fill-opacity="0.4"/>
<path fill-rule="evenodd" clip-rule="evenodd" d="M8 2C8.55228 2 9 2.44772 9 3V5C9 5.55228 8.55228 6 8 6C7.44772 6 7 5.55228 7 5V3C7 2.44772 7.44772 2 8 2ZM16 2C16.5523 2 17 2.44772 17 3V5C17 5.55228 16.5523 6 16 6C15.4477 6 15 5.55228 15 5V3C15 2.44772 15.4477 2 16 2ZM3 17V10H21V17C21.0001 19.209 19.2091 21 17 21H7C4.7909 21 3 19.209 3 17ZM9.375 12H8.375L7 15.719H8L8.2188 15.062H9.5312L9.75 15.719H10.75L9.375 12ZM8.4688 14.344L8.875 13.094L9.2812 14.344H8.4688ZM16.125 13.469C15.9282 13.245 15.6951 13.125 15.4062 13.125C15.2285 13.125 15.057 13.148 14.9062 13.219C14.7555 13.29 14.6408 13.408 14.5312 13.531C14.4217 13.655 14.3447 13.802 14.2812 13.969C14.2178 14.135 14.1562 14.306 14.1562 14.5C14.1562 14.691 14.1913 14.875 14.25 15.031C14.3087 15.188 14.3937 15.294 14.5 15.406C14.6063 15.518 14.729 15.625 14.875 15.688C15.021 15.75 15.2004 15.781 15.375 15.781C15.4368 15.781 15.4945 15.7695 15.5485 15.7587C15.5639 15.7557 15.579 15.7527 15.5938 15.75C15.6604 15.738 15.7209 15.714 15.7812 15.688C15.7928 15.6828 15.8046 15.6777 15.8167 15.6724C15.8674 15.6505 15.9213 15.6271 15.9688 15.594C16.0054 15.5685 16.0323 15.5383 16.0628 15.5042C16.0813 15.4835 16.101 15.4614 16.125 15.438V15.688C16.125 15.875 16.0968 16.02 16 16.125C15.9032 16.23 15.7435 16.281 15.5625 16.281C15.3498 16.281 15.2166 16.199 15.1562 16.031H14.1875C14.2129 16.17 14.2676 16.289 14.3438 16.406C14.42 16.523 14.506 16.631 14.625 16.719C14.7441 16.806 14.9038 16.888 15.0625 16.938C15.2212 16.987 15.4033 17 15.5938 17C15.762 17 15.9181 16.977 16.0625 16.938C16.2069 16.898 16.3232 16.85 16.4375 16.781C16.5518 16.712 16.6378 16.625 16.7188 16.531C16.7997 16.437 16.8682 16.327 16.9062 16.219C16.9348 16.133 16.9529 16.049 16.9688 15.938C16.9846 15.826 17 15.704 17 15.562V13.188H16.125V13.469ZM11.9375 13.188H11.0938V14.781C11.0938 15.124 11.1888 15.391 11.4062 15.562C11.6237 15.734 11.9433 15.812 12.375 15.812C12.8067 15.813 13.1263 15.734 13.3438 15.562C13.5612 15.391 13.6875 15.124 13.6875 14.781V13.188H12.8125V14.625C12.8125 14.938 12.6671 15.094 12.375 15.094C12.0829 15.094 11.9375 14.938 11.9375 14.625V13.188ZM15.4062 13.906C15.4729 13.875 15.5488 13.875 15.625 13.875C15.698 13.875 15.7755 13.877 15.8438 13.906C15.9051 13.933 15.9414 13.9705 15.985 14.0155C15.9899 14.0206 15.9949 14.0258 16 14.031C16.0508 14.084 16.0948 14.15 16.125 14.219C16.1271 14.2239 16.1293 14.2287 16.1314 14.2336C16.1596 14.2975 16.1875 14.3608 16.1875 14.438C16.1875 14.516 16.1552 14.617 16.125 14.688C16.1173 14.7059 16.1106 14.7234 16.1042 14.7404C16.0853 14.79 16.0679 14.8355 16.0312 14.875C15.996 14.9129 15.9501 14.9293 15.9019 14.9466C15.8827 14.9535 15.8632 14.9605 15.8438 14.969C15.841 14.9702 15.8382 14.9714 15.8353 14.9726C15.7694 15.0007 15.6981 15.031 15.625 15.031C15.5513 15.031 15.4847 15.0025 15.4209 14.9753C15.416 14.9732 15.4111 14.9711 15.4062 14.969C15.3868 14.9605 15.3673 14.9535 15.3481 14.9466C15.2999 14.9293 15.254 14.9129 15.2188 14.875C15.1803 14.8335 15.1621 14.7852 15.1423 14.7326C15.1368 14.7181 15.1312 14.7032 15.125 14.688C15.0964 14.617 15.0625 14.52 15.0625 14.438C15.0625 14.3615 15.0921 14.2941 15.1211 14.228C15.1224 14.225 15.1237 14.222 15.125 14.219C15.1334 14.1998 15.1404 14.1807 15.1473 14.1621C15.1652 14.1135 15.1821 14.0678 15.2188 14.031C15.2696 13.98 15.3396 13.938 15.4062 13.906Z" fill="black"/>
</svg>
