<svg width="24" height="24" viewBox="0 0 24 24" fill="none" xmlns="http://www.w3.org/2000/svg">
<path d="M7 3.00003C4.7909 3.00003 2.9999 4.79103 3 7.00003L3 8.00003H21V7.00003C21 4.79103 19.2091 3.00003 17 3.00003C16.1646 3.00004 10.4434 3.00004 8 3.00003C7.51869 3.00003 7.16456 3.00003 7 3.00003Z" fill="black" fill-opacity="0.4"/>
<path fill-rule="evenodd" clip-rule="evenodd" d="M7.99414 2C8.54643 2 8.99414 2.44738 8.99414 2.99926V4.99777C8.99414 5.54964 8.54643 5.99702 7.99414 5.99702C7.44186 5.99702 6.99414 5.54964 6.99414 4.99777V2.99926C6.99414 2.44738 7.44186 2 7.99414 2ZM15.9941 2C16.5464 2 16.9941 2.44738 16.9941 2.99926V4.99777C16.9941 5.54964 16.5464 5.99702 15.9941 5.99702C15.4419 5.99702 14.9941 5.54964 14.9941 4.99777V2.99926C14.9941 2.44738 15.4419 2 15.9941 2ZM3 17.003V10.0082H21V17.003C21.0001 19.2103 19.2091 21 17 21H7C4.7909 21 3 19.2103 3 17.003ZM9 13.006C9 12.4544 8.5523 12.0067 8 12.0067C7.4477 12.0067 7 12.4544 7 13.006C7 13.5575 7.4477 14.0052 8 14.0052C8.5523 14.0052 9 13.5575 9 13.006ZM13 13.006C13 12.4544 12.5523 12.0067 12 12.0067C11.4477 12.0067 11 12.4544 11 13.006C11 13.5575 11.4477 14.0052 12 14.0052C12.5523 14.0052 13 13.5575 13 13.006ZM17 13.006C17 12.4544 16.5523 12.0067 16 12.0067C15.4477 12.0067 15 12.4544 15 13.006C15 13.5575 15.4477 14.0052 16 14.0052C16.5523 14.0052 17 13.5575 17 13.006ZM9 17.003C9 16.4514 8.5523 16.0037 8 16.0037C7.4477 16.0037 7 16.4514 7 17.003C7 17.5546 7.4477 18.0022 8 18.0022C8.5523 18.0022 9 17.5546 9 17.003ZM13 17.003C13 16.4514 12.5523 16.0037 12 16.0037C11.4477 16.0037 11 16.4514 11 17.003C11 17.5546 11.4477 18.0022 12 18.0022C12.5523 18.0022 13 17.5546 13 17.003ZM17 17.003C17 16.4514 16.5523 16.0037 16 16.0037C15.4477 16.0037 15 16.4514 15 17.003C15 17.5546 15.4477 18.0022 16 18.0022C16.5523 18.0022 17 17.5546 17 17.003Z" fill="black"/>
</svg>
