<svg width="24" height="24" viewBox="0 0 24 24" fill="none" xmlns="http://www.w3.org/2000/svg">
<path d="M7.02407 3C4.81688 3 3 4.793 3 7V9L3.03095 17C3.03095 19.206 4.81887 21 7.02407 21H17.0069C19.2121 21 21 19.209 21 17L20.969 9V7C20.969 4.789 19.2101 3 17.0069 3C15.9718 3 8.00405 3.00002 7.02407 3ZM7.02407 5C7.98555 5 15.9718 4.98582 17.0069 5C18.102 5 18.9725 5.888 18.9725 7V8C17.0518 8 6.91725 8 4.99656 8V7C4.99656 5.903 5.91399 5 7.02407 5ZM4.99656 10C6.91725 10 17.0518 10 18.9725 10L19.0034 17C19.0034 18.101 18.11 19 17.0069 19H7.02407C5.92197 19 5.02751 18.105 5.02751 17L4.99656 10Z" fill="black" fill-opacity="0.4"/>
<path fill-rule="evenodd" clip-rule="evenodd" d="M7.99929 2C8.55118 2 8.99858 2.44772 8.99858 3V5C8.99858 5.55228 8.55118 6 7.99929 6C7.4474 6 7 5.55228 7 5V3C7 2.44772 7.4474 2 7.99929 2ZM8.37402 12L7 15.719H7.99929L8.21794 15.062H9.56068L9.77922 15.719H10.7473L9.40449 12H8.37402ZM8.87367 13.094L9.31086 14.344H8.46776L8.87367 13.094ZM15.4 13.125C15.2222 13.125 15.0823 13.148 14.9324 13.219C14.7815 13.29 14.6356 13.408 14.5256 13.531C14.4167 13.655 14.3398 13.802 14.2758 13.969C14.2129 14.135 14.1829 14.306 14.1829 14.5C14.1819 14.691 14.2179 14.875 14.2758 15.031C14.3348 15.188 14.4197 15.294 14.5256 15.406C14.6326 15.518 14.7545 15.625 14.9004 15.688C15.0463 15.75 15.1942 15.781 15.369 15.781C15.4303 15.781 15.488 15.7695 15.5421 15.7588C15.5577 15.7557 15.5729 15.7527 15.5879 15.75C15.6538 15.738 15.7148 15.714 15.7748 15.688L15.8075 15.6738L15.8075 15.6738C15.8593 15.6514 15.914 15.6278 15.9626 15.594C16.0216 15.553 16.0865 15.5 16.1495 15.438V15.688C16.1495 15.875 16.0905 16.02 15.9936 16.125C15.8967 16.23 15.7688 16.281 15.5879 16.281C15.375 16.281 15.2421 16.199 15.1822 16.031H14.2139C14.2389 16.17 14.2628 16.289 14.3388 16.406C14.4147 16.523 14.5316 16.631 14.6506 16.719C14.7695 16.806 14.8984 16.888 15.0563 16.938C15.2152 16.987 15.397 17 15.5879 17C15.7558 17 15.9117 16.977 16.0556 16.938C16.2005 16.898 16.3164 16.85 16.4313 16.781C16.5452 16.712 16.6621 16.625 16.7431 16.531C16.8213 16.4401 16.8585 16.3343 16.8952 16.2298L16.8952 16.2298L16.899 16.219C16.9082 16.1915 16.9196 16.1641 16.9312 16.136L16.9312 16.136C16.9559 16.0764 16.982 16.0134 16.9929 15.938C17.0033 15.8649 17.0001 15.7876 16.9967 15.7032V15.7032C16.9948 15.6583 16.9929 15.6114 16.9929 15.562V13.188H16.1495V13.469C15.9526 13.245 15.6888 13.125 15.4 13.125ZM11.0911 13.188V14.781C11.0911 15.124 11.186 15.391 11.4029 15.562C11.6207 15.734 11.9715 15.812 12.4022 15.812C12.8339 15.813 13.1536 15.734 13.3705 15.562C13.5873 15.391 13.6833 15.124 13.6833 14.781V13.188H12.8398V14.625C12.8398 14.938 12.6939 15.094 12.4022 15.094C12.1104 15.094 11.9655 14.938 11.9655 14.625V13.188H11.0911ZM15.6189 13.875C15.6918 13.875 15.7688 13.877 15.8377 13.906C15.9057 13.936 15.9736 13.979 16.0246 14.031C16.0755 14.084 16.1195 14.15 16.1495 14.219C16.1795 14.288 16.1815 14.355 16.1815 14.438L16.1814 14.4401C16.1805 14.5187 16.1792 14.6176 16.1495 14.688C16.1195 14.758 16.0735 14.822 16.0246 14.875C15.9896 14.9129 15.9438 14.9293 15.8957 14.9466C15.8766 14.9534 15.8571 14.9605 15.8377 14.969L15.8317 14.9716C15.7653 14.9999 15.6926 15.031 15.6189 15.031C15.5462 15.031 15.4804 15.0031 15.4166 14.976L15.4 14.969L15.3714 14.9566C15.3202 14.9348 15.2858 14.9201 15.2441 14.875C15.1952 14.822 15.1482 14.758 15.1192 14.688C15.0902 14.617 15.0563 14.52 15.0563 14.438C15.0563 14.3631 15.0851 14.297 15.1134 14.2323L15.1192 14.219C15.1492 14.15 15.1932 14.082 15.2441 14.031L15.2556 14.0195L15.2556 14.0195C15.3012 13.9737 15.3391 13.9356 15.4 13.906C15.467 13.875 15.5429 13.875 15.6189 13.875ZM16.9929 3C16.9929 2.44772 16.5455 2 15.9936 2C15.4417 2 14.9943 2.44772 14.9943 3V5C14.9943 5.55228 15.4417 6 15.9936 6C16.5455 6 16.9929 5.55228 16.9929 5V3Z" fill="black"/>
</svg>
