<svg width="24" height="24" viewBox="0 0 24 24" fill="none" xmlns="http://www.w3.org/2000/svg">
<path fill-rule="evenodd" clip-rule="evenodd" d="M7 3C4.7909 3 3 4.791 3 7V17C3 19.209 4.7909 21 7 21H17C19.209 21 21 19.209 21 17V7C21 4.791 19.209 3 17 3H7Z" fill="black" fill-opacity="0.4"/>
<path fill-rule="evenodd" clip-rule="evenodd" d="M9 3C9 2.44772 8.55228 2 8 2C7.44772 2 7 2.44772 7 3V5C7 5.55228 7.44772 6 8 6C8.55228 6 9 5.55228 9 5V3ZM17 3C17 2.44772 16.5523 2 16 2C15.4477 2 15 2.44772 15 3V5C15 5.55228 15.4477 6 16 6C16.5523 6 17 5.55228 17 5V3Z" fill="black"/>
</svg>
