<svg width="24" height="24" viewBox="0 0 24 24" fill="none" xmlns="http://www.w3.org/2000/svg">
<path fill-rule="evenodd" clip-rule="evenodd" d="M3 7C3 4.791 4.7909 3 7 3H17C19.209 3 21 4.791 21 7V17C21 19.209 19.209 21 17 21H7C4.7909 21 3 19.209 3 17V7ZM17 5H7C5.8954 5 5 5.895 5 7V17C5 18.105 5.8954 19 7 19H17C18.105 19 19 18.105 19 17V7C19 5.895 18.105 5 17 5Z" fill="black" fill-opacity="0.4"/>
<path fill-rule="evenodd" clip-rule="evenodd" d="M9 2.99912C9 2.44732 8.55228 2 8 2C7.44772 2 7 2.44732 7 2.99912V4.99735C7 5.54915 7.44772 5.99647 8 5.99647C8.55228 5.99647 9 5.54915 9 4.99735V2.99912ZM17 2.99912C17 2.44732 16.5523 2 16 2C15.4477 2 15 2.44732 15 2.99912V4.99735C15 5.54915 15.4477 5.99647 16 5.99647C16.5523 5.99647 17 5.54915 17 4.99735V2.99912ZM9.2925 9.27457C9.4875 9.07975 9.75549 8.99382 10.0115 8.99382C10.2675 8.99382 10.5345 9.07975 10.7305 9.27457L12.0115 10.5544L13.2925 9.27457C13.4875 9.07975 13.7555 8.99382 14.0115 8.99382C14.2675 8.99382 14.5345 9.07975 14.7305 9.27457C15.1205 9.66523 15.1205 10.3206 14.7305 10.7113L13.4495 11.9912L14.7305 13.271C15.1205 13.6617 15.1205 14.3171 14.7305 14.7078C14.3395 15.0974 13.6835 15.0974 13.2925 14.7078L12.0115 13.4279L10.7305 14.7078C10.3395 15.0974 9.6835 15.0974 9.2925 14.7078C8.9025 14.3171 8.9025 13.6617 9.2925 13.271L10.5735 11.9912L9.2925 10.7113C8.9025 10.3206 8.9025 9.66523 9.2925 9.27457Z" fill="black"/>
</svg>
