<svg width="24" height="24" viewBox="0 0 24 24" fill="none" xmlns="http://www.w3.org/2000/svg">
<path fill-rule="evenodd" clip-rule="evenodd" d="M7 3C4.7909 3 3 4.791 3 7V17C3 19.209 4.7909 21 7 21H17C19.209 21 21 19.209 21 17V7C21 4.791 19.209 3 17 3H7Z" fill="black" fill-opacity="0.4"/>
<path fill-rule="evenodd" clip-rule="evenodd" d="M8 2C8.55228 2 9 2.44772 9 3V5C9 5.55228 8.55228 6 8 6C7.44772 6 7 5.55228 7 5V3C7 2.44772 7.44772 2 8 2ZM16 2C16.5523 2 17 2.44772 17 3V5C17 5.55228 16.5523 6 16 6C15.4477 6 15 5.55228 15 5V3C15 2.44772 15.4477 2 16 2ZM15.7071 11.7071C16.0976 11.3166 16.0976 10.6834 15.7071 10.2929C15.3166 9.90237 14.6834 9.90237 14.2929 10.2929L12 12.5858L10.7071 11.2929C10.3166 10.9024 9.68342 10.9024 9.29289 11.2929C8.90237 11.6834 8.90237 12.3166 9.29289 12.7071L11.2929 14.7071C11.6834 15.0976 12.3166 15.0976 12.7071 14.7071L15.7071 11.7071Z" fill="black"/>
</svg>
