<svg width="24" height="24" viewBox="0 0 24 24" fill="none" xmlns="http://www.w3.org/2000/svg">
<path fill-rule="evenodd" clip-rule="evenodd" d="M7 3C4.7909 3 3 4.791 3 7V17C3 19.209 4.7909 21 7 21H17C19.209 21 21 19.209 21 17V7C21 4.791 19.209 3 17 3H7ZM8 7C7.44772 7 7 7.44772 7 8C7 8.55228 7.44772 9 8 9H16C16.5523 9 17 8.55228 17 8C17 7.44772 16.5523 7 16 7H8Z" fill="black" fill-opacity="0.4"/>
<path fill-rule="evenodd" clip-rule="evenodd" d="M9 2.99928C9 2.44739 8.55228 2 8 2C7.44772 2 7 2.44739 7 2.99928V3.99856C7 4.55045 7.44772 4.99785 8 4.99785C8.55228 4.99785 9 4.55045 9 3.99856V2.99928ZM17 2.99928C17 2.44739 16.5523 2 16 2C15.4477 2 15 2.44739 15 2.99928V3.99856C15 4.55045 15.4477 4.99785 16 4.99785C16.5523 4.99785 17 4.55045 17 3.99856V2.99928ZM9.2925 12.2736C9.4875 12.0788 9.75549 11.9928 10.0115 11.9928C10.2675 11.9928 10.5345 12.0788 10.7305 12.2736L12.0115 13.5537L13.2925 12.2736C13.4875 12.0788 13.7555 11.9928 14.0115 11.9928C14.2675 11.9928 14.5345 12.0788 14.7305 12.2736C15.1205 12.6643 15.1205 13.3199 14.7305 13.7106L13.4495 14.9907L14.7305 16.2708C15.1205 16.6615 15.1205 17.317 14.7305 17.7077C14.3395 18.0974 13.6835 18.0974 13.2925 17.7077L12.0115 16.4276L10.7305 17.7077C10.3395 18.0974 9.6835 18.0974 9.2925 17.7077C8.9025 17.317 8.9025 16.6615 9.2925 16.2708L10.5735 14.9907L9.2925 13.7106C8.9025 13.3199 8.9025 12.6643 9.2925 12.2736Z" fill="black"/>
</svg>
