<svg width="24" height="24" viewBox="0 0 24 24" fill="none" xmlns="http://www.w3.org/2000/svg">
<path d="M7 3C4.7909 3 2.9999 4.791 3 7L3 8H21V7C21 4.791 19.2091 3 17 3C16.1646 3.00001 10.4434 3.00001 8 3C7.51869 3 7.16456 3 7 3Z" fill="black" fill-opacity="0.4"/>
<path fill-rule="evenodd" clip-rule="evenodd" d="M8 2C8.55228 2 9 2.44772 9 3V5C9 5.55228 8.55228 6 8 6C7.44772 6 7 5.55228 7 5V3C7 2.44772 7.44772 2 8 2ZM3 10V17C3 19.209 4.791 21 7 21H17C19.209 21 21 19.209 21 17V10H3ZM15 12C15.256 12 15.523 12.086 15.719 12.281C16.109 12.672 16.109 13.328 15.719 13.719L12.719 16.719C12.328 17.109 11.672 17.109 11.281 16.719L9.28101 14.719C8.89101 14.328 8.89101 13.672 9.28101 13.281C9.67201 12.891 10.328 12.891 10.719 13.281L12 14.562L14.281 12.281C14.477 12.086 14.744 12 15 12ZM17 3C17 2.44772 16.5523 2 16 2C15.4477 2 15 2.44772 15 3V5C15 5.55228 15.4477 6 16 6C16.5523 6 17 5.55228 17 5V3Z" fill="black"/>
</svg>
