<svg width="24" height="24" viewBox="0 0 24 24" fill="none" xmlns="http://www.w3.org/2000/svg">
<path fill-rule="evenodd" clip-rule="evenodd" d="M7 3C4.7909 3 3 4.791 3 7V17C3 19.209 4.7909 21 7 21H17C19.209 21 21 19.209 21 17V7C21 4.791 19.209 3 17 3H7Z" fill="black" fill-opacity="0.4"/>
<path fill-rule="evenodd" clip-rule="evenodd" d="M8 2C8.55228 2 9 2.44772 9 3V5C9 5.55228 8.55228 6 8 6C7.44772 6 7 5.55228 7 5V3C7 2.44772 7.44772 2 8 2ZM16 2C16.5523 2 17 2.44772 17 3V5C17 5.55228 16.5523 6 16 6C15.4477 6 15 5.55228 15 5V3C15 2.44772 15.4477 2 16 2ZM15.812 10.062C15.916 10.03 16.039 10 16.156 10C16.274 10 16.396 10.03 16.5 10.062C16.604 10.095 16.671 10.13 16.75 10.188C16.828 10.245 16.893 10.299 16.938 10.375C16.982 10.451 17 10.539 17 10.625C17 10.711 16.982 10.799 16.938 10.875C16.893 10.951 16.828 11.005 16.75 11.062C16.734 11.0739 16.7184 11.0862 16.7028 11.0984C16.6425 11.1457 16.5826 11.1928 16.5 11.219C16.4016 11.2502 16.2871 11.2501 16.1751 11.25C16.1687 11.25 16.1624 11.25 16.156 11.25C16.1497 11.25 16.1434 11.25 16.1371 11.25C16.0258 11.2501 15.9104 11.2502 15.812 11.219C15.7312 11.1931 15.672 11.1469 15.612 11.1002C15.5956 11.0874 15.579 11.0745 15.562 11.062C15.484 11.005 15.42 10.951 15.375 10.875C15.33 10.799 15.281 10.711 15.281 10.625C15.281 10.539 15.33 10.451 15.375 10.375C15.42 10.299 15.484 10.245 15.562 10.188C15.641 10.13 15.709 10.095 15.812 10.062ZM7 15V10.344H10.656V11.375H8.65601V12.156H10.469V13.188H8.65601V15H7ZM13.594 11.938C13.829 11.837 14.124 11.781 14.438 11.781H14.562C14.5776 11.781 14.593 11.7802 14.6089 11.7793C14.642 11.7775 14.6771 11.7756 14.719 11.781V12.844C14.517 12.77 14.298 12.75 14.062 12.75C13.709 12.75 13.458 12.815 13.281 12.969C13.105 13.123 13 13.361 13 13.656V15H11.5V11.844H13V12.344C13.163 12.155 13.358 12.038 13.594 11.938ZM15.406 15V11.844H16.906V15H15.406Z" fill="black"/>
</svg>
