<svg width="24" height="24" viewBox="0 0 24 24" fill="none" xmlns="http://www.w3.org/2000/svg">
<path fill-rule="evenodd" clip-rule="evenodd" d="M3 7C3 4.791 4.7909 3 7 3H17C19.209 3 21 4.791 21 7V17C21 19.209 19.209 21 17 21H7C4.7909 21 3 19.209 3 17V7ZM17 5H7C5.8954 5 5 5.895 5 7V17C5 18.105 5.8954 19 7 19H17C18.105 19 19 18.105 19 17V7C19 5.895 18.105 5 17 5ZM8 6.99998C7.44772 6.99998 7 7.4477 7 7.99998C7 8.55227 7.44772 8.99998 8 8.99998H16C16.5523 8.99998 17 8.55227 17 7.99998C17 7.4477 16.5523 6.99998 16 6.99998H8Z" fill="black" fill-opacity="0.4"/>
<path fill-rule="evenodd" clip-rule="evenodd" d="M8 2C8.55228 2 9 2.44772 9 3V4C9 4.55228 8.55228 5 8 5C7.44772 5 7 4.55228 7 4V3C7 2.44772 7.44772 2 8 2ZM16 2C16.5523 2 17 2.44772 17 3V4C17 4.55228 16.5523 5 16 5C15.4477 5 15 4.55228 15 4V3C15 2.44772 15.4477 2 16 2ZM15.7071 13.7071C16.0976 13.3166 16.0976 12.6834 15.7071 12.2929C15.3166 11.9024 14.6834 11.9024 14.2929 12.2929L12 14.5858L10.7071 13.2929C10.3166 12.9024 9.68342 12.9024 9.29289 13.2929C8.90237 13.6834 8.90237 14.3166 9.29289 14.7071L11.2929 16.7071C11.6834 17.0976 12.3166 17.0976 12.7071 16.7071L15.7071 13.7071Z" fill="black"/>
</svg>
