<svg width="24" height="24" viewBox="0 0 24 24" fill="none" xmlns="http://www.w3.org/2000/svg">
<path fill-rule="evenodd" clip-rule="evenodd" d="M7 3C4.7909 3 3 4.791 3 7V17C3 19.209 4.7909 21 7 21H17C19.209 21 21 19.209 21 17V7C21 4.791 19.209 3 17 3H7Z" fill="black" fill-opacity="0.4"/>
<path fill-rule="evenodd" clip-rule="evenodd" d="M9 3C9 2.44772 8.55228 2 8 2C7.44772 2 7 2.44772 7 3V5C7 5.55228 7.44772 6 8 6C8.55228 6 9 5.55228 9 5V3ZM16 2C16.5523 2 17 2.44772 17 3V5C17 5.55228 16.5523 6 16 6C15.4477 6 15 5.55228 15 5V3C15 2.44772 15.4477 2 16 2ZM12.938 10.1872C13.203 10.0744 13.51 10 13.844 10C14.182 10 14.484 10.0744 14.75 10.1872C15.016 10.3012 15.251 10.4416 15.438 10.6372C15.624 10.834 15.776 11.0524 15.875 11.3128C15.974 11.5732 16 11.8432 16 12.1372C16 12.4684 15.941 12.8404 15.812 13.2256C15.684 13.6096 15.485 13.978 15.219 14.35L14.031 16H12.5L13.969 14.0872H13.938C13.811 14.1748 13.706 14.2192 13.625 14.2372L13.5849 14.2463C13.5192 14.2614 13.4585 14.2754 13.406 14.2744C13.159 14.2744 12.928 14.2336 12.719 14.1256C12.509 14.0164 12.338 13.8628 12.188 13.6744C12.037 13.4872 11.898 13.2532 11.812 13C11.727 12.7468 11.687 12.502 11.688 12.2128C11.688 11.9032 11.745 11.6164 11.844 11.35C11.943 11.0836 12.094 10.8364 12.281 10.6372C12.468 10.4392 12.672 10.3012 12.938 10.1872ZM8 11.4628V10.15H10.062V16H8.75V11.4628H8ZM14.188 11.2744C14.086 11.2228 13.961 11.2 13.844 11.2C13.727 11.2 13.633 11.2228 13.531 11.2744C13.43 11.3272 13.327 11.4124 13.25 11.5C13.173 11.5876 13.108 11.6836 13.062 11.8C13.017 11.9164 13 12.0412 13 12.1744C13 12.3088 13.017 12.4336 13.062 12.55C13.108 12.6664 13.173 12.7624 13.25 12.85C13.327 12.9376 13.43 13.0228 13.531 13.0744C13.633 13.1272 13.727 13.15 13.844 13.15C13.961 13.15 14.086 13.126 14.188 13.0744C14.2842 13.0253 14.3541 12.9456 14.4271 12.8624L14.438 12.85C14.514 12.7624 14.58 12.6664 14.625 12.55C14.67 12.4336 14.687 12.3088 14.688 12.1744C14.688 12.0412 14.67 11.9164 14.625 11.8C14.58 11.6836 14.514 11.5876 14.438 11.5L14.4237 11.4837L14.4237 11.4837C14.3519 11.4018 14.2827 11.3228 14.188 11.2744Z" fill="black"/>
</svg>
