<svg width="24" height="24" viewBox="0 0 24 24" fill="none" xmlns="http://www.w3.org/2000/svg">
<path fill-rule="evenodd" clip-rule="evenodd" d="M7 3C4.7909 3 3 4.791 3 7V17C3 19.209 4.7909 21 7 21H17C19.209 21 21 19.209 21 17V7C21 4.791 19.209 3 17 3H7ZM8 7C7.44772 7 7 7.44772 7 8C7 8.55228 7.44772 9 8 9H16C16.5523 9 17 8.55228 17 8C17 7.44772 16.5523 7 16 7H8Z" fill="black" fill-opacity="0.4"/>
<path fill-rule="evenodd" clip-rule="evenodd" d="M9 3C9 2.44772 8.55228 2 8 2C7.44772 2 7 2.44772 7 3V4C7 4.55228 7.44772 5 8 5C8.55228 5 9 4.55228 9 4V3ZM17 3C17 2.44772 16.5523 2 16 2C15.4477 2 15 2.44772 15 3V4C15 4.55228 15.4477 5 16 5C16.5523 5 17 4.55228 17 4V3ZM11 13C11 12.448 11.448 12 12 12C12.552 12 13 12.448 13 13V14H14C14.552 14 15 14.448 15 15C15 15.552 14.552 16 14 16H13V17C13 17.552 12.552 18 12 18C11.448 18 11 17.552 11 17V16H10C9.448 16 9 15.552 9 15C9 14.448 9.448 14 10 14H11V13Z" fill="black"/>
</svg>
