<svg width="24" height="24" viewBox="0 0 24 24" fill="none" xmlns="http://www.w3.org/2000/svg">
<path d="M7 3C4.7909 3 2.9999 4.76906 3 6.951L3 8H21L21 6.951C21 4.76906 19.2091 3 17 3C16.1646 3.00001 10.4434 3.00001 8 3C7.51869 3 7.16456 3 7 3Z" fill="black" fill-opacity="0.4"/>
<path fill-rule="evenodd" clip-rule="evenodd" d="M8 2C8.55228 2 9 2.44772 9 3V5C9 5.55228 8.55228 6 8 6C7.44772 6 7 5.55228 7 5V3C7 2.44772 7.44772 2 8 2ZM3 10V17C3 19.209 4.791 21 7 21H17C19.209 21 21 19.209 21 17V10H3ZM15.312 12C15.407 12 15.511 12.03 15.594 12.062C15.677 12.095 15.75 12.13 15.812 12.188C15.875 12.245 15.902 12.299 15.938 12.375C15.973 12.451 16 12.539 16 12.625C16 12.711 15.973 12.799 15.938 12.875C15.902 12.951 15.875 13.005 15.812 13.062C15.75 13.12 15.677 13.186 15.594 13.219C15.5155 13.2502 15.4181 13.2501 15.3274 13.25H15.3274L15.312 13.25L15.2968 13.25C15.21 13.2501 15.1405 13.2502 15.062 13.219C14.98 13.186 14.907 13.12 14.844 13.062C14.781 13.005 14.723 12.951 14.688 12.875C14.652 12.799 14.625 12.711 14.625 12.625C14.625 12.539 14.652 12.451 14.688 12.375C14.723 12.299 14.781 12.245 14.844 12.188C14.907 12.13 14.98 12.095 15.062 12.062L15.0736 12.0575C15.1519 12.0273 15.2224 12 15.312 12ZM8 12.344H10.906V13.375H9.312V14.156H10.75V15.188H9.312V17H8V12.344ZM13.938 13.781H14.031C14.0433 13.781 14.0556 13.7802 14.0682 13.7793H14.0682C14.0947 13.7775 14.1228 13.7756 14.156 13.781V14.844C13.995 14.77 13.845 14.75 13.656 14.75C13.374 14.75 13.141 14.815 13 14.969C12.859 15.123 12.812 15.361 12.812 15.656V17H11.594V13.844H12.812V14.344C12.943 14.155 13.093 14.038 13.281 13.938C13.47 13.837 13.686 13.781 13.938 13.781ZM14.719 13.844H15.938V17H14.719V13.844ZM17 3C17 2.44772 16.5523 2 16 2C15.4477 2 15 2.44772 15 3V5C15 5.55228 15.4477 6 16 6C16.5523 6 17 5.55228 17 5V3Z" fill="black"/>
</svg>
