<svg width="24" height="24" viewBox="0 0 24 24" fill="none" xmlns="http://www.w3.org/2000/svg">
<path fill-rule="evenodd" clip-rule="evenodd" d="M10 6C10 5.448 10.448 5 11 5H13C15.209 5 17 6.791 17 9V9.56299L20.281 6.28101C20.596 5.96601 21.027 5.91799 21.375 6.06299C21.723 6.20699 22 6.555 22 7V16C22 16.552 21.552 17 21 17C20.448 17 20 16.552 20 16V9.43799L17.219 12.219C16.83 12.608 16.204 12.605 15.812 12.219L15.344 11.75C15.193 11.619 14.985 11.319 15 11V9C15 7.895 14.105 7 13 7H11C10.448 7 10 6.552 10 6ZM16.1152 17.5093C15.6511 17.0431 15.1763 16.5655 14.6876 16.0738C14.3325 16.6307 13.7094 17 13 17H6C4.89543 17 4 16.1046 4 15V9.00001C4 8.01374 4.71389 7.19422 5.65312 7.02998C5.14861 6.52905 4.62887 6.01376 4.09277 5.48311C2.84619 6.16056 2 7.48146 2 9.00001V15C2 17.2091 3.79086 19 6 19H13C14.2589 19 15.3819 18.4185 16.1152 17.5093Z" fill="black" fill-opacity="0.4"/>
<path d="M3.98479 3C3.72879 3 3.4738 3.10303 3.2788 3.29813C2.8878 3.68934 2.91779 4.3407 3.30779 4.73091C10.1736 11.5203 14.4215 15.8559 18.2538 19.685C18.6448 20.0752 19.3128 20.1182 19.7038 19.728C20.0938 19.3367 20.0938 18.6804 19.7038 18.2892L16.5468 15.1315C16.1848 14.7783 6.78079 5.36027 6.70379 5.28223L4.70379 3.28116C4.50779 3.08605 4.24079 3 3.98479 3Z" fill="black"/>
</svg>
