<svg width="24" height="24" viewBox="0 0 24 24" fill="none" xmlns="http://www.w3.org/2000/svg">
<path fill-rule="evenodd" clip-rule="evenodd" d="M7 20C7 19.4477 7.44772 19 8 19H16C16.5523 19 17 19.4477 17 20C17 20.5523 16.5523 21 16 21H8C7.44772 21 7 20.5523 7 20Z" fill="black" fill-opacity="0.4"/>
<path d="M11.9873 3C11.7314 3 11.4951 3.08601 11.2998 3.28101C10.2998 4.28101 4.2998 10.281 3.2998 11.281C2.6698 11.911 3.0964 13 3.9873 13H6.9873V16C6.9873 16.552 7.435 17 7.9873 17H15.9873C16.5396 17 16.9873 16.552 16.9873 16V13H19.9873C20.8782 13 21.336 11.911 20.7061 11.281L12.7061 3.28101C12.5108 3.08601 12.2432 3 11.9873 3ZM12.0185 5.438L17.5811 11L14.994 10.9995C14.9873 11.4995 14.994 11.4995 14.9873 12V15H8.9873V12C8.9873 11.448 8.9873 11.4995 8.9873 11L6.4248 11C8.2983 9.12702 10.7623 6.694 12.0185 5.438Z" fill="black"/>
</svg>
