<svg width="24" height="24" viewBox="0 0 24 24" fill="none" xmlns="http://www.w3.org/2000/svg">
<path d="M6 4C3.791 4 2 5.791 2 8V16C2 18.209 3.791 20 6 20H18C20.21 20 22 18.209 22 16V8C22 5.791 20.21 4 18 4H6Z" fill="black" fill-opacity="0.4"/>
<path fill-rule="evenodd" clip-rule="evenodd" d="M7.5 8C6.67157 8 6 8.67157 6 9.5C6 10.3284 6.67157 11 7.5 11H16.5C17.3284 11 18 10.3284 18 9.5C18 8.67157 17.3284 8 16.5 8H7.5ZM7 13C6.44772 13 6 13.4477 6 14C6 14.5523 6.44772 15 7 15H15C15.5523 15 16 14.5523 16 14C16 13.4477 15.5523 13 15 13H7Z" fill="black"/>
</svg>
