<svg width="24" height="24" viewBox="0 0 24 24" fill="none" xmlns="http://www.w3.org/2000/svg">
<path d="M2.01284 1.99893C1.45377 1.99443 1.00408 2.44663 1.00003 2.99893C0.995975 3.55123 1.45377 3.99443 2.01284 3.99893C2.76029 4.00493 3.35785 4.49883 3.81665 5.43643C4.24609 6.31293 4.37166 7.03423 4.38685 7.12393L5.58907 14.7801C5.95773 16.6034 7.70785 17.9989 9.5461 17.9989H16.7614C18.5996 17.9989 20.3578 16.5905 20.7184 14.8114L21.953 6.68643C22.2396 5.27263 21.1823 3.99893 19.6742 3.99893H5.33587C4.57424 2.76003 3.41355 2.01013 2.01284 1.99893ZM6.22208 5.99893H19.6742C19.9041 5.99893 20.0034 6.11923 19.9588 6.34273L18.7242 14.4677C18.5611 15.2647 17.6344 15.9989 16.7614 15.9989H9.5461C8.67407 15.9989 7.75445 15.2807 7.58329 14.4364L6.41247 6.81143C6.37702 6.59873 6.295 6.26163 6.22208 5.99893ZM8.59609 18.9989C7.75749 18.9989 7.07688 19.6705 7.07688 20.4989C7.07688 21.3273 7.75749 21.9989 8.59609 21.9989C9.4347 21.9989 10.1153 21.3273 10.1153 20.4989C10.1153 19.6705 9.4347 18.9989 8.59609 18.9989ZM17.7114 18.9989C16.8728 18.9989 16.1922 19.6705 16.1922 20.4989C16.1922 21.3273 16.8718 21.9989 17.7114 21.9989C18.55 21.9989 19.2306 21.3273 19.2306 20.4989C19.2306 19.6705 18.551 18.9989 17.7114 18.9989Z" fill="black" fill-opacity="0.4"/>
<path fill-rule="evenodd" clip-rule="evenodd" d="M15.2929 8.29289C15.6834 7.90237 16.3166 7.90237 16.7071 8.29289C17.0976 8.68342 17.0976 9.31658 16.7071 9.70711L13.7071 12.7071C13.3166 13.0976 12.6834 13.0976 12.2929 12.7071L10.2929 10.7071C9.90237 10.3166 9.90237 9.68342 10.2929 9.29289C10.6834 8.90237 11.3166 8.90237 11.7071 9.29289L13 10.5858L15.2929 8.29289Z" fill="black"/>
</svg>
