<svg width="24" height="24" viewBox="0 0 24 24" fill="none" xmlns="http://www.w3.org/2000/svg">
<path fill-rule="evenodd" clip-rule="evenodd" d="M3 2C2.44772 2 2 2.44772 2 3C2 3.55228 2.44772 4 3 4H4.02204C4.98098 4 5.80496 4.68062 5.98606 5.62231L7.55011 13.7554C7.91229 15.6387 9.56026 17 11.4781 17H19C19.5523 17 20 16.5523 20 16C20 15.4477 19.5523 15 19 15H11.4781C10.5192 15 9.69521 14.3194 9.51412 13.3777L7.95007 5.24461C7.58788 3.36125 5.93991 2 4.02204 2H3ZM12 20.5C12 21.3284 11.3284 22 10.5 22C9.67157 22 9 21.3284 9 20.5C9 19.6716 9.67157 19 10.5 19C11.3284 19 12 19.6716 12 20.5ZM20 20.5C20 21.3284 19.3284 22 18.5 22C17.6716 22 17 21.3284 17 20.5C17 19.6716 17.6716 19 18.5 19C19.3284 19 20 19.6716 20 20.5Z" fill="black" fill-opacity="0.4"/>
<path fill-rule="evenodd" clip-rule="evenodd" d="M6.23195 4.35962C6.42194 4.13174 6.70332 4 7.00001 4H21C21.302 4 21.5878 4.13647 21.7777 4.37132C21.9675 4.60617 22.0411 4.91424 21.9778 5.20953L20.986 9.83811C20.5908 11.6824 18.9609 13 17.0748 13H10.781C8.84928 13 7.19356 11.6195 6.84618 9.71933L6.01631 5.17983C5.96296 4.88798 6.04195 4.5875 6.23195 4.35962ZM8.19939 6L8.81358 9.35966C8.98727 10.3098 9.81513 11 10.781 11H17.0748C18.0178 11 18.8328 10.3412 19.0304 9.41906L19.763 6H8.19939Z" fill="black"/>
</svg>
