<svg width="24" height="24" viewBox="0 0 24 24" fill="none" xmlns="http://www.w3.org/2000/svg">
<path fill-rule="evenodd" clip-rule="evenodd" d="M8.5 22C9.32843 22 10 21.3284 10 20.5C10 19.6716 9.32843 19 8.5 19C7.67157 19 7 19.6716 7 20.5C7 21.3284 7.67157 22 8.5 22ZM17.5 22C18.3284 22 19 21.3284 19 20.5C19 19.6716 18.3284 19 17.5 19C16.6716 19 16 19.6716 16 20.5C16 21.3284 16.6716 22 17.5 22Z" fill="black" fill-opacity="0.4"/>
<path d="M2.00003 1.99893C1.44773 1.99443 1.00453 2.44663 1.00003 2.99893C0.995533 3.55123 1.44753 3.99443 2.00003 3.99893C2.73763 4.00493 3.28883 4.51863 3.78123 5.43643C4.26233 6.33333 4.32923 7.03673 4.34383 7.12393L5.53123 14.7801C5.89493 16.6034 7.62333 17.9989 9.43753 17.9989H16.5625C18.3768 17.9989 20.1127 16.5905 20.4688 14.8114C20.4688 14.8114 22 5.37063 22 4.99893C22 4.44663 21.5523 3.99893 21 3.99893C20.6885 3.99893 6.54473 3.99433 5.25003 3.99893C4.47493 2.74203 3.38323 2.01013 2.00003 1.99893Z" fill="black"/>
</svg>
