<svg width="24" height="24" viewBox="0 0 24 24" fill="none" xmlns="http://www.w3.org/2000/svg">
<path d="M4 4.99731C2.343 4.99731 1 6.34041 1 7.99731V15.9973C1 17.6543 2.343 18.9973 4 18.9973H20C21.657 18.9973 23 17.6543 23 15.9973V7.99731C23 6.34041 21.657 4.99731 20 4.99731H4ZM4 6.99731H20C20.552 6.99731 21 7.44501 21 7.99731V15.9973C21 16.5493 20.552 16.9973 20 16.9973H4C3.448 16.9973 3 16.5493 3 15.9973V7.99731C3 7.44501 3.448 6.99731 4 6.99731Z" fill="black" fill-opacity="0.4"/>
<path d="M5 8C4.448 8 4 8.4477 4 9V10C4 10.552 4.448 11 5 11C5.552 11 6 10.552 6 10H7C7.552 10 8 9.5523 8 9C8 8.4477 7.552 8 7 8H5ZM17 8C16.448 8 16 8.4477 16 9C16 9.5523 16.448 10 17 10H18C18 10.552 18.448 11 19 11C19.552 11 20 10.552 20 10V9C20 8.4477 19.552 8 19 8H17ZM12 9C10.343 9 9 10.343 9 12C9 13.657 10.343 15 12 15C13.657 15 15 13.657 15 12C15 10.343 13.657 9 12 9ZM12 11C12.552 11 13 11.448 13 12C13 12.552 12.552 13 12 13C11.448 13 11 12.552 11 12C11 11.448 11.448 11 12 11ZM5 13C4.448 13 4 13.448 4 14V15C4 15.552 4.448 16 5 16H7C7.552 16 8 15.552 8 15C8 14.448 7.552 14 7 14H6C6 13.448 5.552 13 5 13ZM19 13C18.448 13 18 13.448 18 14H17C16.448 14 16 14.448 16 15C16 15.552 16.448 16 17 16H19C19.552 16 20 15.552 20 15V14C20 13.448 19.552 13 19 13Z" fill="black"/>
</svg>
