<svg width="24" height="24" viewBox="0 0 24 24" fill="none" xmlns="http://www.w3.org/2000/svg">
<path d="M5 4.99731C2.791 4.99731 1 6.78821 1 8.99731V14.9973C1 17.2063 2.791 18.9973 5 18.9973H19C21.209 18.9973 23 17.2063 23 14.9973V8.99731C23 6.78821 21.209 4.99731 19 4.99731H5ZM5.812 6.99731H18.188C18.553 8.38651 19.611 9.44441 21 9.80981V14.1853C19.611 14.5503 18.553 15.6083 18.188 16.9973H5.812C5.447 15.6083 4.389 14.5503 3 14.1853V9.80981C4.389 9.44441 5.447 8.38651 5.812 6.99731Z" fill="black"/>
<path fill-rule="evenodd" clip-rule="evenodd" d="M12 11C11.4477 11 11 11.4477 11 12C11 12.5523 11.4477 13 12 13C12.5523 13 13 12.5523 13 12C13 11.4477 12.5523 11 12 11ZM9 12C9 10.3431 10.3431 9 12 9C13.6569 9 15 10.3431 15 12C15 13.6569 13.6569 15 12 15C10.3431 15 9 13.6569 9 12Z" fill="black" fill-opacity="0.4"/>
</svg>
