<svg width="24" height="24" viewBox="0 0 24 24" fill="none" xmlns="http://www.w3.org/2000/svg">
<path d="M18 3.9978C20.209 3.9978 22 5.7902 22 8.00092V20.0103C22 20.8349 21.066 21.2873 20.406 20.7919L16.688 18.0087H6C3.791 18.0087 2 16.2163 2 14.0056V8.00092C2 5.7902 3.791 3.9978 6 3.9978H18ZM18 5.99936H6C4.895 5.99936 4 6.89506 4 8.00092V14.0056C4 15.1114 4.895 16.0071 6 16.0071H17C17.216 16.0071 17.421 16.0652 17.594 16.1953L20 18.0087V8.00092C20 6.89506 19.105 5.99936 18 5.99936Z" fill="black" fill-opacity="0.4"/>
<path d="M9.48659 9C8.66599 8.999 8 9.67278 8 10.5017C8 11.3307 8.66599 12.0035 9.48659 12.0035C9.62137 12.0035 9.82157 11.9864 10.0128 11.9094C9.88996 12.4169 9.67192 12.7964 9.36271 13.1608C9.18432 13.371 9.21701 13.7004 9.42513 13.8806C9.63226 14.0608 9.93554 14.0348 10.106 13.8175C10.8879 12.8234 11.1981 11.8443 10.9732 10.4397C10.8225 9.49858 10.212 9.001 9.48659 9ZM14.4419 9C13.6213 8.999 12.9553 9.67278 12.9553 10.5017C12.9553 11.3307 13.6213 12.0035 14.4419 12.0035C14.5767 12.0035 14.7769 11.9864 14.9681 11.9094C14.8453 12.4169 14.6272 12.7964 14.318 13.1608C14.1396 13.371 14.1723 13.7004 14.3804 13.8806C14.5876 14.0608 14.8908 14.0348 15.0613 13.8175C15.8432 12.8234 16.1534 11.8443 15.9285 10.4397C15.7778 9.49858 15.1673 9.001 14.4419 9Z" fill="black"/>
</svg>
