<svg width="24" height="24" viewBox="0 0 24 24" fill="none" xmlns="http://www.w3.org/2000/svg">
<path d="M6 3.9978C3.791 3.9978 2 5.7902 2 8.00092V20.0103C2 20.8349 2.93399 21.2873 3.59399 20.7919L7.31201 18.0087H18C20.209 18.0087 22 16.2163 22 14.0056V8.00092C22 5.7902 20.209 3.9978 18 3.9978H6Z" fill="black" fill-opacity="0.4"/>
<path d="M7 8C6.4477 8 6 8.448 6 9C6 9.552 6.4477 10 7 10H17C17.5523 10 18 9.552 18 9C18 8.448 17.5523 8 17 8H7ZM7 12C6.4477 12 6 12.448 6 13C6 13.552 6.4477 14 7 14H14C14.5523 14 15 13.552 15 13C15 12.448 14.5523 12 14 12H7Z" fill="black"/>
</svg>
