<svg width="24" height="24" viewBox="0 0 24 24" fill="none" xmlns="http://www.w3.org/2000/svg">
<path d="M12 3C6.502 3 2 6.99333 2 11.9827C2 13.5517 2.44201 15.0768 3.28101 16.4112C3.73201 17.1289 3.77399 18.1499 3.09399 19.5303C2.78499 20.1571 3.21001 20.8996 3.90601 20.9655C5.26301 21.0942 6.40899 20.8667 7.96899 20.2169C9.21099 20.7 10.616 20.9655 12 20.9655C17.498 20.9655 22 16.9712 22 11.9827C22 6.99333 17.498 3 12 3ZM12 4.99617C16.443 4.99617 20 8.1521 20 11.9827C20 15.8134 16.443 18.9693 12 18.9693C10.721 18.9693 9.487 18.7158 8.375 18.2208C8.118 18.106 7.82001 18.108 7.56201 18.2208C6.64201 18.623 6.12099 18.8426 5.43799 18.9384C5.81599 17.6359 5.53799 16.2565 4.96899 15.3513C4.32699 14.3302 4 13.1705 4 11.9827C4 8.1521 7.557 4.99617 12 4.99617Z" fill="black" fill-opacity="0.4"/>
<path fill-rule="evenodd" clip-rule="evenodd" d="M9 12C9 12.5523 8.55228 13 8 13C7.44772 13 7 12.5523 7 12C7 11.4477 7.44772 11 8 11C8.55228 11 9 11.4477 9 12ZM13 12C13 12.5523 12.5523 13 12 13C11.4477 13 11 12.5523 11 12C11 11.4477 11.4477 11 12 11C12.5523 11 13 11.4477 13 12ZM16 13C16.5523 13 17 12.5523 17 12C17 11.4477 16.5523 11 16 11C15.4477 11 15 11.4477 15 12C15 12.5523 15.4477 13 16 13Z" fill="black"/>
</svg>
