<svg width="24" height="24" viewBox="0 0 24 24" fill="none" xmlns="http://www.w3.org/2000/svg">
<path d="M12 2.99841C6.50204 2.99841 2.00003 6.99941 2.00003 11.9984C2.00003 13.6214 2.48403 15.1934 3.37503 16.5604C3.51703 16.7794 3.64105 17.2744 3.56205 17.7484C3.48205 18.2384 3.22603 18.7174 2.71903 18.9984C2.56103 19.0864 2.00503 19.3304 2.00003 19.9984C1.99503 20.6664 2.57103 20.9954 3.00003 20.9984C4.01504 21.0064 10.253 20.9984 12 20.9984C17.4981 20.9984 22.0001 16.9974 22.0001 11.9984C22.0001 6.99941 17.4981 2.99841 12 2.99841ZM12 4.99841C16.4431 4.99841 20.0001 8.16041 20.0001 11.9984C20.0001 15.8364 16.4431 18.9984 12 18.9984C10.672 18.9984 7.62404 18.9984 5.25004 18.9984C5.70904 18.0454 5.67504 16.5324 5.03104 15.4674C4.38504 14.3974 4.00004 13.2274 4.00004 11.9984C4.00004 8.16041 7.55704 4.99841 12 4.99841Z" fill="black" fill-opacity="0.4"/>
<path d="M9.48656 10C8.66558 9.999 8 10.6728 8 11.5017C8 12.3307 8.66558 13.0035 9.48656 13.0035C9.62134 13.0035 9.82173 12.9864 10.013 12.9094C9.88971 13.4169 9.67198 13.7964 9.36268 14.1608C9.18459 14.371 9.2168 14.7004 9.42462 14.8806C9.63244 15.0608 9.9357 15.0348 10.106 14.8175C10.888 13.8234 11.1985 12.8443 10.9731 11.4397C10.8223 10.4986 10.2119 10.001 9.48656 10ZM14.4417 10C13.6208 9.999 12.9552 10.6728 12.9552 11.5017C12.9552 12.3307 13.6208 13.0035 14.4417 13.0035C14.5765 13.0035 14.7769 12.9864 14.9682 12.9094C14.8449 13.4169 14.6272 13.7964 14.3179 14.1608C14.1398 14.371 14.172 14.7004 14.3798 14.8806C14.5876 15.0608 14.8909 15.0348 15.0611 14.8175C15.8432 13.8234 16.1537 12.8443 15.9283 11.4397C15.7775 10.4986 15.1671 10.001 14.4417 10Z" fill="black"/>
</svg>
