<svg width="24" height="24" viewBox="0 0 24 24" fill="none" xmlns="http://www.w3.org/2000/svg">
<path d="M6 3.9978C3.791 3.9978 2 5.7902 2 8.00092V20.0103C2 20.8349 2.93399 21.2873 3.59399 20.7919L7.31201 18.0087H18C20.209 18.0087 22 16.2163 22 14.0056V8.00092C22 5.7902 20.209 3.9978 18 3.9978H6ZM6 5.99936H18C19.105 5.99936 20 6.89506 20 8.00092V14.0056C20 15.1114 19.105 16.0071 18 16.0071H7C6.784 16.0071 6.57901 16.0652 6.40601 16.1953L4 18.0087V8.00092C4 6.89506 4.895 5.99936 6 5.99936Z" fill="black"/>
</svg>
