<svg width="24" height="24" viewBox="0 0 24 24" fill="none" xmlns="http://www.w3.org/2000/svg">
<path d="M12.0142 2.96777C6.51586 2.96777 2.01416 6.96877 2.01416 11.9678C2.01416 13.5398 2.45606 15.0678 3.29536 16.4048C3.74636 17.1238 3.78836 18.1468 3.10796 19.5298C2.79906 20.1578 3.22376 20.9018 3.92036 20.9678C5.27726 21.0968 6.42336 20.8688 7.98296 20.2178C9.22536 20.7018 10.6297 20.9678 12.0142 20.9678C17.5125 20.9678 22.0142 16.9658 22.0142 11.9678C22.0142 6.96877 17.5125 2.96777 12.0142 2.96777ZM12.0142 4.96777C16.457 4.96777 20.0142 8.12977 20.0142 11.9678C20.0142 15.8058 16.457 18.9678 12.0142 18.9678C10.7356 18.9678 9.50146 18.7138 8.38916 18.2178C8.13186 18.1028 7.83466 18.1048 7.57666 18.2178C6.65636 18.6208 6.13506 18.8408 5.45166 18.9368C5.83046 17.6318 5.55226 16.2498 4.98296 15.3428C4.34076 14.3198 4.01416 13.1578 4.01416 11.9678C4.01416 8.12977 7.57136 4.96777 12.0142 4.96777Z" fill="black" fill-opacity="0.4"/>
<path d="M9.48659 10C8.66559 10 8 10.6728 8 11.5017C8 12.3316 8.66559 13.0034 9.48659 13.0034C9.62137 13.0034 9.82176 12.9874 10.0128 12.9103C9.88975 13.4169 9.67202 13.7963 9.36271 14.1617C9.18461 14.371 9.21682 14.7013 9.42465 14.8805C9.63247 15.0607 9.93574 15.0347 10.106 14.8185C10.8879 13.8243 11.1981 12.8442 10.9732 11.4396C10.8225 10.4986 10.212 10.001 9.48659 10ZM14.4419 10C13.6213 10 12.9553 10.6728 12.9553 11.5017C12.9553 12.3316 13.6213 13.0034 14.4419 13.0034C14.5767 13.0034 14.7769 12.9874 14.9681 12.9103C14.8452 13.4169 14.6272 13.7963 14.318 14.1617C14.1396 14.371 14.1723 14.7013 14.3804 14.8805C14.5876 15.0607 14.8908 15.0347 15.0613 14.8185C15.8432 13.8243 16.1534 12.8442 15.9285 11.4396C15.7778 10.4986 15.1673 10.001 14.4419 10Z" fill="black"/>
</svg>
