<svg width="24" height="24" viewBox="0 0 24 24" fill="none" xmlns="http://www.w3.org/2000/svg">
<path fill-rule="evenodd" clip-rule="evenodd" d="M5 12C5 11.4477 5.44772 11 6 11H18C18.5523 11 19 11.4477 19 12C19 12.5523 18.5523 13 18 13H6C5.44772 13 5 12.5523 5 12Z" fill="black" fill-opacity="0.4"/>
<path d="M11.4437 3.168L5.45278 7.16299C4.99347 7.46899 4.86568 8.10798 5.17122 8.56698C5.47776 9.02598 6.1168 9.15399 6.57511 8.84799L12.0049 5.228L17.4347 8.84799C17.893 9.15399 18.532 9.02598 18.8385 8.56698C19.1441 8.10798 19.0163 7.46899 18.557 7.16299L12.566 3.168C12.2316 2.944 11.7782 2.944 11.4437 3.168ZM18.1835 14.996C17.9279 14.945 17.6633 14.999 17.4347 15.152L12.0049 18.773L6.57511 15.152C6.34645 14.999 6.07686 14.977 5.82624 15.028C5.57662 15.078 5.32399 15.204 5.17122 15.433C4.86568 15.892 4.99347 16.532 5.45278 16.838L11.4437 20.833C11.7782 21.056 12.2316 21.056 12.566 20.833L18.557 16.838C19.0163 16.532 19.1441 15.892 18.8385 15.433C18.6858 15.204 18.4381 15.047 18.1835 14.996Z" fill="black"/>
</svg>
