<svg width="24" height="24" viewBox="0 0 24 24" fill="none" xmlns="http://www.w3.org/2000/svg">
<path d="M5.82787 16.9595C5.57767 16.9097 5.32447 16.7821 5.17135 16.5539C4.86511 16.0985 4.99419 15.4567 5.45355 15.1528L11.4263 11.1667C11.7625 10.9444 12.2169 10.9444 12.5522 11.1667L18.5569 15.1528C19.0163 15.4567 19.1444 16.0985 18.8381 16.5539C18.5329 17.0103 17.8904 17.1389 17.431 16.8349L11.9897 13.2225L6.57846 16.8349C6.34928 16.9864 6.07907 17.0093 5.82787 16.9595Z" fill="black"/>
<path fill-rule="evenodd" clip-rule="evenodd" d="M5 8C5 8.55228 5.44772 9 6 9H18C18.5523 9 19 8.55228 19 8C19 7.44772 18.5523 7 18 7H6C5.44772 7 5 7.44772 5 8Z" fill="black" fill-opacity="0.4"/>
</svg>
