<svg width="24" height="24" viewBox="0 0 24 24" fill="none" xmlns="http://www.w3.org/2000/svg">
<path fill-rule="evenodd" clip-rule="evenodd" d="M5.16658 10.5633C5.31952 10.7927 5.57143 10.9189 5.82134 10.969C6.07224 11.0191 6.34114 10.9971 6.57005 10.8438L11.9971 7.22627L17.4251 10.8438C17.8839 11.1504 18.5227 11.0221 18.8285 10.5633C19.1344 10.1045 19.0065 9.4653 18.5477 9.15975L12.5588 5.16755C12.224 4.94415 11.7711 4.94415 11.4363 5.16755L5.44746 9.15975C4.98863 9.4653 4.86069 10.1045 5.16658 10.5633ZM5.17146 13.4367C5.3244 13.2073 5.57631 13.0811 5.82622 13.031C6.07712 12.9809 6.34602 13.0029 6.57493 13.1562L12.0019 16.7737L17.4299 13.1562C17.8888 12.8497 18.5275 12.9779 18.8334 13.4367C19.1393 13.8955 19.0114 14.5347 18.5525 14.8402L12.5637 18.8324C12.2288 19.0559 11.776 19.0559 11.4411 18.8324L5.45235 14.8402C4.99351 14.5347 4.86557 13.8955 5.17146 13.4367Z" fill="black" fill-opacity="0.4"/>
<path fill-rule="evenodd" clip-rule="evenodd" d="M12.5498 5.16795L15.5498 7.16795L8.44043 7.16795L11.4404 5.16795C11.7763 4.94402 12.2139 4.94402 12.5498 5.16795ZM12.5547 18.832L15.5547 16.832H8.44531L11.4453 18.832C11.7812 19.0559 12.2188 19.0559 12.5547 18.832Z" fill="black"/>
</svg>
