<svg width="24" height="24" viewBox="0 0 24 24" fill="none" xmlns="http://www.w3.org/2000/svg">
<path fill-rule="evenodd" clip-rule="evenodd" d="M5 16C5 15.4477 5.44772 15 6 15H18C18.5523 15 19 15.4477 19 16C19 16.5523 18.5523 17 18 17H6C5.44772 17 5 16.5523 5 16Z" fill="black" fill-opacity="0.4"/>
<path d="M5.82787 7.0405C5.57767 7.09032 5.32447 7.21786 5.17135 7.44607C4.86511 7.90148 4.99419 8.54326 5.45355 8.8472L11.4263 12.8333C11.7625 13.0556 12.2169 13.0556 12.5522 12.8333L18.5569 8.8472C19.0163 8.54326 19.1444 7.90148 18.8381 7.44607C18.5329 6.98965 17.8904 6.86112 17.431 7.16506L11.9897 10.7775L6.57846 7.16506C6.34928 7.01359 6.07907 6.99067 5.82787 7.0405Z" fill="black"/>
</svg>
