<svg width="24" height="24" viewBox="0 0 24 24" fill="none" xmlns="http://www.w3.org/2000/svg">
<path d="M18.9592 2.82171C18.9093 2.57197 18.7827 2.31925 18.5533 2.16641C18.0965 1.86073 17.4562 1.9886 17.151 2.44811L11.1668 11.4386C10.9444 11.7732 10.9444 12.2268 11.1668 12.5614L17.151 21.5519C17.4562 22.0114 18.0965 22.1393 18.5533 21.8336C19.0111 21.5279 19.1387 20.8876 18.8345 20.4291L13.2244 12L18.8345 3.57091C18.9861 3.34216 19.0091 3.07244 18.9592 2.82171Z" fill="black" fill-opacity="0.4"/>
<path d="M12.9592 2.82171C12.9093 2.57197 12.7827 2.31925 12.5533 2.16641C12.0965 1.86073 11.4562 1.9886 11.151 2.44811L5.16681 11.4386C4.9444 11.7732 4.9444 12.2268 5.16681 12.5614L11.151 21.5519C11.4562 22.0114 12.0965 22.1393 12.5533 21.8336C13.0111 21.5279 13.1387 20.8876 12.8345 20.4291L7.22436 12L12.8345 3.57091C12.9861 3.34216 13.0091 3.07244 12.9592 2.82171Z" fill="black"/>
</svg>
