<svg width="24" height="24" viewBox="0 0 24 24" fill="none" xmlns="http://www.w3.org/2000/svg">
<path d="M2.82163 15.9557C2.57163 15.9057 2.31963 15.7787 2.16663 15.5507C1.86063 15.0937 1.98864 14.4527 2.44764 14.1477L11.4376 8.16374C11.7736 7.94074 12.2266 7.94074 12.5616 8.16374L21.5527 14.1477C22.0117 14.4527 22.1397 15.0937 21.8337 15.5507C21.5277 16.0077 20.8877 16.1357 20.4287 15.8307L11.9997 10.2207L3.57164 15.8307C3.34163 15.9837 3.07263 16.0057 2.82163 15.9557Z" fill="black" fill-opacity="0.4"/>
<path d="M8.27344 10.2389L11.4382 8.1666C11.7742 7.9436 12.2272 7.9436 12.5622 8.1666L15.6158 10.2389H8.27344Z" fill="black"/>
</svg>
