<svg width="24" height="24" viewBox="0 0 24 24" fill="none" xmlns="http://www.w3.org/2000/svg">
<path fill-rule="evenodd" clip-rule="evenodd" d="M5.17146 5.44588C5.3244 5.21729 5.57631 5.09152 5.82622 5.04161C6.07712 4.9917 6.34602 5.01366 6.57493 5.16639L12.0019 8.7709L17.4299 5.16639C17.8888 4.86094 18.5275 4.98871 18.8334 5.44588C19.1393 5.90306 19.0114 6.53992 18.5525 6.84437L12.5637 10.8222C12.2288 11.0448 11.776 11.0448 11.4411 10.8222L5.45235 6.84437C4.99351 6.53992 4.86557 5.90306 5.17146 5.44588ZM5.16658 18.5541C5.31952 18.7827 5.57143 18.9085 5.82134 18.9584C6.07224 19.0083 6.34114 18.9863 6.57005 18.8336L11.9971 15.2291L17.4251 18.8336C17.8839 19.1391 18.5227 19.0113 18.8285 18.5541C19.1344 18.0969 19.0065 17.4601 18.5477 17.1556L12.5588 13.1778C12.224 12.9552 11.7711 12.9552 11.4363 13.1778L5.44746 17.1556C4.98863 17.4601 4.86069 18.0969 5.16658 18.5541Z" fill="black" fill-opacity="0.4"/>
<path fill-rule="evenodd" clip-rule="evenodd" d="M12.5547 10.832L15.5547 8.83203H8.44531L11.4453 10.832C11.7812 11.056 12.2188 11.056 12.5547 10.832ZM12.5498 13.168L15.5498 15.168L8.44043 15.168L11.4404 13.168C11.7763 12.944 12.2139 12.944 12.5498 13.168Z" fill="black"/>
</svg>
