<svg width="24" height="24" viewBox="0 0 24 24" fill="none" xmlns="http://www.w3.org/2000/svg">
<path fill-rule="evenodd" clip-rule="evenodd" d="M5 12C5 11.4477 5.44772 11 6 11H18C18.5523 11 19 11.4477 19 12C19 12.5523 18.5523 13 18 13H6C5.44772 13 5 12.5523 5 12Z" fill="black" fill-opacity="0.4"/>
<path d="M18.1835 3.01866C17.9279 2.96766 17.6633 3.02167 17.4347 3.17467L12.0049 6.79366L6.57511 3.17467C6.34645 3.02167 6.07686 2.99967 5.82624 3.04967C5.57662 3.09967 5.32399 3.22568 5.17122 3.45568C4.86568 3.91468 4.99347 4.55367 5.45278 4.85967L11.4437 8.85268C11.7782 9.07668 12.2316 9.07668 12.566 8.85268L18.557 4.85967C19.0163 4.55367 19.1441 3.91468 18.8385 3.45568C18.6858 3.22568 18.4381 3.06966 18.1835 3.01866ZM11.4437 15.1547L5.45278 19.1487C4.99347 19.4547 4.86568 20.0937 5.17122 20.5527C5.47776 21.0117 6.1168 21.1397 6.57511 20.8337L12.0049 17.2147L17.4347 20.8337C17.893 21.1397 18.532 21.0117 18.8385 20.5527C19.1441 20.0937 19.0163 19.4547 18.557 19.1487L12.566 15.1547C12.2316 14.9317 11.7782 14.9317 11.4437 15.1547Z" fill="black"/>
</svg>
