<svg width="24" height="24" viewBox="0 0 24 24" fill="none" xmlns="http://www.w3.org/2000/svg">
<path fill-rule="evenodd" clip-rule="evenodd" d="M3 7C3 4.79086 4.79086 3 7 3H17C19.2091 3 21 4.79086 21 7V17C21 19.2091 19.2091 21 17 21H7C4.79086 21 3 19.2091 3 17V7Z" fill="black" fill-opacity="0.4"/>
<path fill-rule="evenodd" clip-rule="evenodd" d="M9 3C9 2.44772 8.55228 2 8 2C7.44772 2 7 2.44772 7 3V5C7 6.65685 8.34315 8 10 8H14C15.6569 8 17 6.65685 17 5V3C17 2.44772 16.5523 2 16 2C15.4477 2 15 2.44772 15 3V5C15 5.55228 14.5523 6 14 6H10C9.44772 6 9 5.55228 9 5V3ZM16 10C16.5523 10 17 10.4477 17 11V16C17 16.5523 16.5523 17 16 17C15.4477 17 15 16.5523 15 16V11C15 10.4477 15.4477 10 16 10ZM13 13C13 12.4477 12.5523 12 12 12C11.4477 12 11 12.4477 11 13V16C11 16.5523 11.4477 17 12 17C12.5523 17 13 16.5523 13 16V13ZM9 15C9 14.4477 8.55228 14 8 14C7.44772 14 7 14.4477 7 15V16C7 16.5523 7.44772 17 8 17C8.55228 17 9 16.5523 9 16V15Z" fill="black"/>
</svg>
