<svg width="24" height="24" viewBox="0 0 24 24" fill="none" xmlns="http://www.w3.org/2000/svg">
<path d="M12.0057 13.7711C11.4136 13.7711 11.0672 13.8641 10.5699 14.1141C10.0797 14.3611 9.85703 14.9641 10.1027 15.4571C10.3473 15.9511 10.9533 16.1411 11.4436 15.8941C11.6892 15.7711 11.7701 15.7381 12.0057 15.7381C12.2404 15.7381 12.3202 15.7701 12.5669 15.8941C13.0581 16.1411 13.6632 15.9511 13.9088 15.4571C14.1544 14.9631 13.9817 14.3921 13.4405 14.1141C12.9443 13.8601 12.5978 13.7711 12.0057 13.7711Z" fill="black" fill-opacity="0.4"/>
<path d="M13.557 18.1119C14.0533 17.8619 14.4007 17.7689 14.9918 17.7689C15.5849 17.7689 15.9314 17.8579 16.4276 18.1119C16.9688 18.3899 17.1405 18.9609 16.8959 19.4549C16.6503 19.9489 16.0442 20.1389 15.5539 19.8919C15.3073 19.7679 15.2274 19.7359 14.9918 19.7359C14.7572 19.7359 14.6753 19.7689 14.4307 19.8919C13.9394 20.1389 13.3344 19.9489 13.0888 19.4549C12.8431 18.9619 13.0658 18.3589 13.557 18.1119Z" fill="black" fill-opacity="0.4"/>
<path d="M5.69793 13.8107C5.4563 13.8897 5.22766 14.0637 5.10485 14.3107C4.86023 14.8037 5.08288 15.4066 5.57312 15.6536C6.07036 15.9026 6.41682 15.9966 7.00791 15.9966C7.601 15.9966 7.94747 15.9076 8.44371 15.6536C8.98487 15.3756 9.12565 14.8037 8.88003 14.3107C8.63541 13.8167 8.0603 13.6267 7.57005 13.8737C7.32343 13.9977 7.24355 14.0297 7.00791 14.0297C6.77327 14.0297 6.6914 13.9967 6.44678 13.8737C6.20116 13.7497 5.93956 13.7327 5.69793 13.8107Z" fill="black" fill-opacity="0.4"/>
<path d="M8.09097 18.3161C8.21378 18.0691 8.44243 17.8951 8.68405 17.8161C8.92568 17.7381 9.18828 17.7551 9.4329 17.8791C9.67853 18.0021 9.75941 18.0351 9.99504 18.0351C10.2297 18.0351 10.3096 18.0031 10.5562 17.8791C11.0474 17.6321 11.6215 17.8221 11.8672 18.3161C12.1118 18.8091 11.971 19.3811 11.4298 19.6591C10.9336 19.9131 10.5871 20.0021 9.99504 20.0021C9.40295 20.0021 9.05648 19.9081 8.55925 19.6591C8.069 19.4121 7.84635 18.8091 8.09097 18.3161Z" fill="black" fill-opacity="0.4"/>
<path d="M12.5 2C9.969 2 7.937 3.69601 7.25 6.06201C4.889 6.20101 3 8.106 3 10.5C3 11.015 3.09 11.518 3.252 11.987C4 12 12.122 12.004 13 12C14.766 11.992 16.006 13.477 16 15H17.5C19.433 15 21 13.431 21 11.5C21 9.744 19.689 8.34299 18 8.09399V7.5C18 4.465 15.538 2 12.5 2Z" fill="black"/>
</svg>
