<svg width="24" height="24" viewBox="0 0 24 24" fill="none" xmlns="http://www.w3.org/2000/svg">
<path d="M6 15.9989C5.448 15.9989 5 16.4463 5 16.9976C5 17.5489 5.448 17.9963 6 17.9963C6.552 17.9963 7 17.5489 7 16.9976C7 16.4463 6.552 15.9989 6 15.9989ZM12 15.9989C11.448 15.9989 11 16.4463 11 16.9976C11 17.5489 11.448 17.9963 12 17.9963C12.552 17.9963 13 17.5489 13 16.9976C13 16.4463 12.552 15.9989 12 15.9989ZM18 15.9989C17.448 15.9989 17 16.4463 17 16.9976C17 17.5489 17.448 17.9963 18 17.9963C18.552 17.9963 19 17.5489 19 16.9976C19 16.4463 18.552 15.9989 18 15.9989ZM8.68799 18.0583C8.44499 18.1392 8.21699 18.311 8.09399 18.5576L7.09399 20.5551C6.84699 21.0484 7.06901 21.6507 7.56201 21.8973C8.05601 22.144 8.65901 21.9233 8.90601 21.4299L9.90601 19.4325C10.153 18.9391 9.93099 18.3369 9.43799 18.0902C9.19099 17.9664 8.92999 17.9784 8.68799 18.0583ZM14.688 18.0583C14.445 18.1392 14.217 18.311 14.094 18.5576L13.094 20.5551C12.847 21.0484 13.068 21.6507 13.562 21.8973C14.056 22.144 14.659 21.9233 14.906 21.4299L15.906 19.4325C16.153 18.9391 15.932 18.3369 15.438 18.0902C15.191 17.9664 14.93 17.9784 14.688 18.0583Z" fill="black" fill-opacity="0.4"/>
<path d="M12.5 2C9.969 2 7.937 3.69401 7.25 6.06201C4.889 6.20101 3 8.104 3 10.5C3 12.985 5.015 15 7.5 15C9.308 15 16.492 15 17.5 15C19.433 15 21 13.433 21 11.5C21 9.742 19.689 8.34299 18 8.09399C18 7.91099 18 7.639 18 7.5C18 4.462 15.537 2 12.5 2ZM12.5 4C14.433 4 16 5.567 16 7.5C16 7.852 16 8.329 16 9C16 9.552 16.448 10 17 10C17.008 10 17.187 10 17.5 10C18.328 10 19 10.672 19 11.5C19 12.328 18.328 13 17.5 13C16.492 13 9.308 13 7.5 13C6.119 13 5 11.881 5 10.5C5 9.119 6.119 8 7.5 8C7.579 8 7.916 8 8 8C8.498 8 8.93 7.64901 9 7.15601C9.261 5.32901 10.7 4 12.5 4Z" fill="black"/>
</svg>
