<svg width="24" height="24" viewBox="0 0 24 24" fill="none" xmlns="http://www.w3.org/2000/svg">
<path d="M10.005 15.9989C9.45298 15.9989 9.0055 16.4463 9.0055 16.9976C8.45348 16.9976 8.006 17.445 8.006 17.9963C8.006 18.5476 8.45348 18.9951 9.0055 18.9951C9.0055 19.5464 9.45298 19.9938 10.005 19.9938C10.557 19.9938 11.0045 19.5464 11.0045 18.9951C11.5565 18.9951 12.004 18.5476 12.004 17.9963C12.004 17.445 11.5565 16.9976 11.0045 16.9976C11.0045 16.4463 10.557 15.9989 10.005 15.9989ZM18.001 15.9989C17.449 15.9989 17.0015 16.4463 17.0015 16.9976C16.4495 16.9976 16.002 17.445 16.002 17.9963C16.002 18.5476 16.4495 18.9951 17.0015 18.9951C17.0015 19.5464 17.449 19.9938 18.001 19.9938C18.553 19.9938 19.0005 19.5464 19.0005 18.9951C19.5525 18.9951 20 18.5476 20 17.9963C20 17.445 19.5525 16.9976 19.0005 16.9976C19.0005 16.4463 18.553 15.9989 18.001 15.9989ZM5.69466 19.057C5.45198 19.1379 5.22469 19.3097 5.10125 19.5564L4.6015 20.5551C4.35463 21.0484 4.57622 21.6507 5.06997 21.8973C5.56372 22.144 6.16612 21.9233 6.413 21.4299L6.91275 20.4312C7.15962 19.9378 6.93803 19.3356 6.44428 19.0889C6.1974 18.9651 5.93733 18.9761 5.69466 19.057ZM13.6907 19.057C13.448 19.1379 13.2207 19.3097 13.0973 19.5564L12.5975 20.5551C12.3506 21.0484 12.5722 21.6507 13.066 21.8973C13.5597 22.144 14.1621 21.9233 14.409 21.4299L14.9087 20.4312C15.1556 19.9378 14.934 19.3356 14.4403 19.0889C14.1934 18.9651 13.9333 18.9761 13.6907 19.057Z" fill="black" fill-opacity="0.4"/>
<path d="M12.5 2C9.9685 2 7.9369 3.69401 7.25 6.06201C4.8891 6.20101 3 8.104 3 10.5C3 12.985 5.0147 15 7.5 15C9.3078 15 16.4923 15 17.5 15C19.433 15 21 13.433 21 11.5C21 9.742 19.6886 8.34299 18 8.09399C18 7.91099 18 7.639 18 7.5C18 4.462 15.5375 2 12.5 2Z" fill="black"/>
</svg>
