<svg width="24" height="24" viewBox="0 0 24 24" fill="none" xmlns="http://www.w3.org/2000/svg">
<path d="M6.00497 17.4989C5.40877 17.4989 5.07024 17.5919 4.56892 17.8429C4.07559 18.0899 3.85488 18.6919 4.10155 19.1869C4.34822 19.6799 4.94941 19.9019 5.44274 19.6549C5.69141 19.5309 5.76829 19.4989 6.00497 19.4989C6.24165 19.4989 6.31856 19.5309 6.56622 19.6549C7.06755 19.9059 7.40608 19.9989 8.00227 19.9989C8.59747 19.9989 8.93702 19.9059 9.43735 19.6549C9.68601 19.5309 9.7629 19.4989 9.99958 19.4989C10.2363 19.4989 10.3132 19.5309 10.5608 19.6549C11.0622 19.9059 11.4007 19.9989 11.9969 19.9989C12.5921 19.9989 12.9316 19.9059 13.432 19.6549C13.6806 19.5309 13.7575 19.4989 13.9942 19.4989C14.2309 19.4989 14.3078 19.5309 14.5554 19.6549C15.0568 19.9059 15.3953 19.9989 15.9915 19.9989C16.5867 19.9989 16.9262 19.9059 17.4266 19.6549C17.6752 19.5309 17.7521 19.4989 17.9888 19.4989C18.2255 19.4989 18.3024 19.5309 18.55 19.6549C19.0434 19.9019 19.6456 19.7119 19.8922 19.2179C20.1389 18.7239 19.9492 18.1209 19.4558 17.8739C19.4438 17.8679 19.4358 17.8489 19.4239 17.8429C18.9235 17.5919 18.584 17.4989 17.9888 17.4989C17.3926 17.4989 17.0541 17.5919 16.5527 17.8429C16.3051 17.9669 16.2282 17.9989 15.9915 17.9989C15.7548 17.9989 15.6779 17.9669 15.4293 17.8429C14.9289 17.5919 14.5894 17.4989 13.9942 17.4989C13.398 17.4989 13.0595 17.5919 12.5581 17.8429C12.3105 17.9669 12.2336 17.9989 11.9969 17.9989C11.7602 17.9989 11.6833 17.9669 11.4346 17.8429C10.9343 17.5919 10.5948 17.4989 9.99958 17.4989C9.40338 17.4989 9.06485 17.5919 8.56353 17.8429C8.31586 17.9669 8.23895 17.9989 8.00227 17.9989C7.76559 17.9989 7.68871 17.9669 7.44004 17.8429C6.93972 17.5919 6.60017 17.4989 6.00497 17.4989Z" fill="black" fill-opacity="0.4"/>
<path d="M12.5 2C9.969 2 7.937 3.69401 7.25 6.06201C4.889 6.20101 3 8.104 3 10.5C3 12.985 5.015 15 7.5 15C9.308 15 16.492 15 17.5 15C19.433 15 21 13.433 21 11.5C21 9.742 19.689 8.34299 18 8.09399C18 7.91099 18 7.639 18 7.5C18 4.462 15.537 2 12.5 2Z" fill="black"/>
</svg>
