<svg width="24" height="24" viewBox="0 0 24 24" fill="none" xmlns="http://www.w3.org/2000/svg">
<path d="M12 3.99801C8.834 4.02301 5.918 6.165 5.158 9.54799C3.217 10.364 2 12.192 2 14.373C2 14.9338 2.08249 15.481 2.23571 16C3.98584 16 20.4858 16 21.9696 16C21.9897 15.8354 22 15.6679 22 15.498C22 13.683 20.738 12.071 18.989 11.358C18.991 11.18 19 11.024 19 10.998C19.03 7.16201 15.791 3.96801 12 3.99801Z" fill="black"/>
<path d="M2.23511 16.0003C2.90359 18.268 4.92231 20.0005 7.31204 20.0005H17C19.5503 20.0005 21.6933 18.275 21.9699 16.0003C20.5 16 5 16.0002 2.23511 16.0003Z" fill="black" fill-opacity="0.4"/>
</svg>
