<svg width="24" height="24" viewBox="0 0 24 24" fill="none" xmlns="http://www.w3.org/2000/svg">
<path d="M12 3.99801C8.834 4.02301 5.91701 6.17802 5.15601 9.56002C3.21501 10.377 2 12.192 2 14.373C2 17.383 4.37601 19.998 7.31201 19.998H17C19.734 19.998 22 18.015 22 15.498C22 13.683 20.749 12.086 19 11.373C19.002 11.194 19 11.024 19 10.998C19.03 7.16201 15.791 3.96801 12 3.99801Z" fill="black" fill-opacity="0.4"/>
<path fill-rule="evenodd" clip-rule="evenodd" d="M9 13C9 12.4477 9.44772 12 10 12H14C14.5523 12 15 12.4477 15 13C15 13.5523 14.5523 14 14 14H10C9.44772 14 9 13.5523 9 13Z" fill="black"/>
</svg>
