<svg width="24" height="24" viewBox="0 0 24 24" fill="none" xmlns="http://www.w3.org/2000/svg">
<path d="M12.0142 3.99801C8.84816 4.02301 5.93117 6.17802 5.17017 9.56002C3.22917 10.377 2.01416 12.192 2.01416 14.373C2.01416 17.383 4.39017 19.998 7.32617 19.998H17.0142C19.7482 19.998 22.0142 18.015 22.0142 15.498C22.0142 13.683 20.7632 12.086 19.0142 11.373C19.0162 11.194 19.0142 11.024 19.0142 10.998C19.0442 7.16201 15.8052 3.96801 12.0142 3.99801ZM12.0142 5.99801C14.6952 5.97701 17.0352 8.28501 17.0142 10.998C17.0142 11.058 17.0142 11.861 17.0142 12.092C17.0142 12.557 17.3102 12.956 17.7642 13.06C19.0802 13.365 20.0142 14.397 20.0142 15.498C20.0142 16.847 18.6982 17.998 17.0142 17.998H7.32617C5.53917 17.998 4.01416 16.319 4.01416 14.373C4.01416 12.88 4.94815 11.639 6.35815 11.217C6.73115 11.105 6.99017 10.79 7.04517 10.404C7.43117 7.69801 9.60616 6.01701 12.0142 5.99801Z" fill="black" fill-opacity="0.4"/>
<path fill-rule="evenodd" clip-rule="evenodd" d="M9 13C9 12.4477 9.44772 12 10 12H14C14.5523 12 15 12.4477 15 13C15 13.5523 14.5523 14 14 14H10C9.44772 14 9 13.5523 9 13Z" fill="black"/>
</svg>
