<svg width="24" height="24" viewBox="0 0 24 24" fill="none" xmlns="http://www.w3.org/2000/svg">
<path d="M12 1.9991C8.8337 2.02426 5.9166 4.19279 5.1562 7.59705C3.2153 8.41818 2 10.2446 2 12.4393C2 14.8363 3.5133 17.0541 5.6875 17.8169C6.209 18 6.7869 17.7445 6.9688 17.2192C7.1506 16.6949 6.8652 16.1133 6.3438 15.9301C4.9861 15.4531 4 13.994 4 12.4393C4 10.9369 4.9335 9.68812 6.3438 9.26347C6.7174 9.15077 6.9762 8.8338 7.0312 8.44537C7.4172 5.72236 9.5923 4.03079 12 4.01167C14.6808 3.99054 17.021 6.31305 17 9.0431C16.9995 9.10348 17 9.91152 17 10.144C17 10.6129 17.2964 11.0134 17.75 11.1191C19.0659 11.425 20 12.4645 20 13.5714C20 14.6934 19.1016 15.6957 17.7812 15.9925C17.2423 16.1143 16.9107 16.6768 17.0312 17.2192C17.1518 17.7616 17.6798 18.0956 18.2188 17.9739C20.4102 17.4808 22 15.6866 22 13.5714C22 11.746 20.8149 10.145 19 9.42046C19.0018 9.24134 18.9998 9.06926 19 9.0431C19.0297 5.18299 15.7914 1.96992 12 1.9991Z" fill="black" fill-opacity="0.4"/>
<path d="M12 11C11.4499 11 11 11.449 11 12V19H9L12 22L15 19H13V12C13 11.449 12.5502 11 12 11Z" fill="black"/>
</svg>
