<svg width="24" height="24" viewBox="0 0 24 24" fill="none" xmlns="http://www.w3.org/2000/svg">
<path d="M11.938 2.99829C10.981 2.99829 10.035 3.67829 9.75 4.59229L8.375 8.99829H15.625L14.25 4.59229C13.965 3.67829 13.019 2.99829 12.062 2.99829H11.938ZM6.18799 15.9983L5.25 18.9983H4C3.448 18.9983 3 19.4463 3 19.9983C3 20.5503 3.448 20.9983 4 20.9983H20C20.552 20.9983 21 20.5503 21 19.9983C21 19.4463 20.552 18.9983 20 18.9983H18.75L17.812 15.9983H6.18799Z" fill="black"/>
<path d="M7.75 11L6.81201 14H17.188L16.25 11H7.75Z" fill="black" fill-opacity="0.4"/>
</svg>
