<svg width="24" height="24" viewBox="0 0 24 24" fill="none" xmlns="http://www.w3.org/2000/svg">
<path fill-rule="evenodd" clip-rule="evenodd" d="M12.9413 5.99731H7.8725C6.78793 5.99731 5.93485 6.89331 6.00392 7.96631L6.72026 19.1533C6.8262 20.7293 8.21274 21.9973 9.80338 21.9973H14.0076C15.5981 21.9973 16.9853 20.7263 17.091 19.1533L17.9939 7.96631C18.0816 6.88831 17.2165 5.99731 16.1253 5.99731H15.0423L13.9398 9.31625C13.7657 9.8402 13.2013 10.1234 12.6792 9.94871C12.157 9.77406 11.8748 9.20774 12.0489 8.6838L12.9413 5.99731Z" fill="black" fill-opacity="0.4"/>
<path fill-rule="evenodd" clip-rule="evenodd" d="M18.949 1.68404C19.1236 2.20799 18.8404 2.77431 18.3165 2.94895L15.7908 3.79084L13.949 9.3165C13.7743 9.84044 13.208 10.1236 12.684 9.94895C12.1601 9.77431 11.8769 9.20799 12.0516 8.68404L14.2097 2.2097L17.684 1.05159C18.208 0.87694 18.7743 1.1601 18.949 1.68404Z" fill="black"/>
</svg>
