<svg width="24" height="24" viewBox="0 0 24 24" fill="none" xmlns="http://www.w3.org/2000/svg">
<path fill-rule="evenodd" clip-rule="evenodd" d="M3 7C3 6.448 3.448 6 4 6H10C10.552 6 11 6.448 11 7C11 7.55201 11.448 8.00001 12 8.00001C12.552 8.00001 13 7.55201 13 7C13 6.448 13.448 6 14 6H20C20.552 6 21 6.448 21 7V11C21 12.104 20.105 13 19 13H5C3.895 13 3 12.105 3 11V7ZM7.31706 8.00326C6.53104 8.00168 5.69636 8.00001 5 8.00001V11H19V8.00001L14.824 8.00703C14.381 9.20803 13.268 10 12 10C10.732 10 9.615 9.21199 9.168 8.00599C8.67737 8.00599 8.01648 8.00466 7.31706 8.00326ZM3 16.0001C3 15.4481 3.448 15.0001 4 15.0001H10C10.552 15.0001 11 15.4481 11 16.0001C11 16.5521 11.448 17.0001 12 17.0001C12.552 17.0001 13 16.5521 13 16.0001C13 15.4481 13.448 15.0001 14 15.0001H20C20.552 15.0001 21 15.4481 21 16.0001V20.0001C21 21.1041 20.105 22.0001 19 22.0001H5C3.895 22.0001 3 21.1051 3 20.0001V16.0001ZM7.31706 17.0033C6.53104 17.0017 5.69636 17.0001 5 17.0001V20.0001H19V17.0001L14.824 17.0071C14.381 18.2081 13.268 19.0001 12 19.0001C10.732 19.0001 9.615 18.2121 9.168 17.006C8.67737 17.006 8.01648 17.0047 7.31706 17.0033Z" fill="black"/>
<path fill-rule="evenodd" clip-rule="evenodd" d="M6.9999 2C6.68515 2 6.38876 2.14776 6.1999 2.39883L3.1999 6.38718C3.18337 6.40916 3.16789 6.43159 3.15344 6.45443C3.33057 6.17445 3.64354 5.98834 3.99984 5.98834H5.9999L7.4999 3.99417H16.4999L17.9999 5.98834H19.9998C20.5518 5.98834 20.9998 6.43504 20.9998 6.98543V7C21.0031 6.78681 20.9381 6.57095 20.7999 6.38718L17.7999 2.39883C17.611 2.14776 17.3147 2 16.9999 2H6.9999Z" fill="black" fill-opacity="0.4"/>
</svg>
