<svg width="24" height="24" viewBox="0 0 24 24" fill="none" xmlns="http://www.w3.org/2000/svg">
<path fill-rule="evenodd" clip-rule="evenodd" d="M3.00171 11.0027V7H10.0017C10.0017 8.10573 10.8967 9.00133 12.0017 9.00133C13.1067 9.00133 14.0017 8.10573 14.0017 7H21.0017V11.0027C21.0017 12.1084 20.1067 13.004 19.0017 13.004H5.00171C3.89671 13.004 3.00171 12.1084 3.00171 11.0027ZM3 18.9987V14.996H9.99999C9.99999 16.1018 10.895 16.9973 12 16.9973C13.105 16.9973 14 16.1018 14 14.996H21V18.9987C21 20.1044 20.105 21 19 21H5C3.895 21 3 20.1044 3 18.9987Z" fill="black"/>
<path fill-rule="evenodd" clip-rule="evenodd" d="M6.2946 3.29289C6.48214 3.10536 6.73649 3 7.00171 3H17.0017C17.2669 3 17.5213 3.10536 17.7088 3.29289L20.7088 6.29289C20.9043 6.4884 21.002 6.74473 21.0017 7.00098C20.5017 7 19.0017 7 18.5875 7L16.5875 5H7.41592L5.4161 6.99983C5.00171 7 3.50171 7 3.00171 6.99983C3.00175 6.74396 3.09938 6.48811 3.2946 6.29289L6.2946 3.29289Z" fill="black" fill-opacity="0.4"/>
</svg>
