<svg width="24" height="24" viewBox="0 0 24 24" fill="none" xmlns="http://www.w3.org/2000/svg">
<path d="M1.99902 12.9979V15.9979C1.99902 18.2069 3.79002 19.9979 5.99903 19.9979H17.999C20.208 19.9979 21.999 18.2069 21.999 15.9979V12.9979C20.87 12.9979 17.499 12.9979 16.499 12.9979C15.71 14.7649 14.007 15.9979 11.999 15.9979C9.98903 15.9979 8.28703 14.7669 7.49903 12.9979C6.47803 13.0009 3.08102 12.9989 1.99902 12.9979Z" fill="black"/>
<path d="M3.75 4.00002C2.792 3.99602 2 4.79201 2 5.75001V11C3.308 10.999 8.13101 10.995 8.90601 10.969C9.19401 12.973 10.375 14.001 12 14C13.712 13.998 14.832 12.79 15.062 11C15.854 10.993 20.634 11 22 11V5.75001C22 4.79201 21.239 3.99602 20.281 4.00002L15.062 4.03102C14.823 5.80302 13.702 6.99801 12 7.00001C10.398 7.00101 9.24601 5.98102 8.93801 4.03102L3.75 4.00002Z" fill="black" fill-opacity="0.4"/>
</svg>
