<svg width="24" height="24" viewBox="0 0 24 24" fill="none" xmlns="http://www.w3.org/2000/svg">
<path fill-rule="evenodd" clip-rule="evenodd" d="M3 12H9.00005C9.55233 12 10 12.4477 10 13C10 14.1046 10.8955 15 12 15C13.1046 15 14 14.1046 14 13C14 12.4477 14.4478 12 15 12H21C21 13.6667 21 15.3333 21 17C21 19.2091 19.2092 21 17 21H7.00005C4.79091 21 3.00005 19.2091 3.00005 17C3.00005 15.3333 3.00018 13.6667 3 12ZM5.00005 14V17C5.00005 18.1046 5.89548 19 7.00005 19H17C18.1046 19 19 18.1046 19 17V14H15.874C15.43 15.7252 13.8639 17 12 17C10.1362 17 8.57011 15.7252 8.12607 14H5.00005Z" fill="black"/>
<path fill-rule="evenodd" clip-rule="evenodd" d="M7 5C5.89543 5 5 5.89543 5 7V12H3V7C3 4.79086 4.79086 3 7 3H17C19.2091 3 21 4.79086 21 7V12H19V7C19 5.89543 18.1046 5 17 5H7Z" fill="black" fill-opacity="0.4"/>
</svg>
