<svg width="24" height="24" viewBox="0 0 24 24" fill="none" xmlns="http://www.w3.org/2000/svg">
<path d="M22 12C22 17.5228 17.5228 22 12 22C6.47715 22 2 17.5228 2 12C2 6.47715 6.47715 2 12 2C17.5228 2 22 6.47715 22 12Z" fill="black" fill-opacity="0.4"/>
<path fill-rule="evenodd" clip-rule="evenodd" d="M13 2.04938C12.6711 2.01672 12.3375 2 12 2C11.6625 2 11.3289 2.01672 11 2.04938V11.5858L4.29291 18.2929C4.28085 18.3049 4.26918 18.3172 4.25787 18.3297C4.68056 18.8461 5.15392 19.3195 5.6703 19.7421C5.6828 19.7308 5.69507 19.7192 5.70712 19.7071L11 14.4142V21.9506C11.3289 21.9833 11.6625 22 12 22C12.3375 22 12.6711 21.9833 13 21.9506V14.4142L18.2929 19.7071C18.3049 19.7192 18.3172 19.7308 18.3297 19.7421C18.8461 19.3195 19.3194 18.8461 19.7421 18.3297C19.7308 18.3172 19.7192 18.3049 19.7071 18.2929L13 11.5858V2.04938Z" fill="black"/>
</svg>
