<svg width="24" height="24" viewBox="0 0 24 24" fill="none" xmlns="http://www.w3.org/2000/svg">
<path fill-rule="evenodd" clip-rule="evenodd" d="M12 4C7.58172 4 4 7.58172 4 12C4 16.4183 7.58172 20 12 20C16.4183 20 20 16.4183 20 12C20 7.58172 16.4183 4 12 4ZM2 12C2 6.47715 6.47715 2 12 2C17.5228 2 22 6.47715 22 12C22 17.5228 17.5228 22 12 22C6.47715 22 2 17.5228 2 12Z" fill="black" fill-opacity="0.4"/>
<path fill-rule="evenodd" clip-rule="evenodd" d="M11 4.06189C11.3276 4.02104 11.6614 4 12 4C12.3387 4 12.6724 4.02104 13 4.06189V11.5858L18.3199 16.9056C17.9093 17.4339 17.4339 17.9092 16.9057 18.3199L13 14.4142V19.9381C12.6724 19.979 12.3387 20 12 20C11.6614 20 11.3276 19.979 11 19.9381V14.4142L7.09439 18.3199C6.56617 17.9092 6.09079 17.4339 5.68018 16.9056L11 11.5858V4.06189Z" fill="black"/>
</svg>
