<svg width="24" height="24" viewBox="0 0 24 24" fill="none" xmlns="http://www.w3.org/2000/svg">
<path d="M4.27419 14.288C3.70954 14.852 3.252 15.973 2.77145 17.633C2.57021 18.329 2.40904 19.082 2.23885 19.822C2.17978 20.081 2.03059 20.771 2.02058 20.823C1.88041 21.523 2.47711 22.119 3.17792 21.98C3.23098 21.969 3.92079 21.82 4.18009 21.761C4.92095 21.591 5.67482 21.43 6.37162 21.229C8.03355 20.749 9.15685 20.292 9.7205 19.728L18.7049 10.723C19.0974 10.331 19.0994 9.70598 18.7049 9.31598L14.6662 5.346L13.9435 4.625C13.9435 4.625 8.50304 10.0661 4.27419 14.288Z" fill="black"/>
<path fill-rule="evenodd" clip-rule="evenodd" d="M17.2815 2.28029C17.4684 2.09377 17.7343 2 18.0001 2C18.7447 2 19.7602 2.32216 20.7187 3.27874C21.6772 4.23531 22 5.24877 22 5.99188C22 6.25721 21.906 6.52253 21.7191 6.70905L20.7187 7.7075C20.3279 8.09751 19.6722 8.09751 19.2814 7.7075L16.2811 4.71308C15.8903 4.32407 15.8903 3.66875 16.2811 3.27874L17.2815 2.28029ZM8.78098 3.90118C9.39066 3.29272 10.2012 2.99747 10.9998 2.99747C11.7984 2.99647 12.609 3.29272 13.2186 3.90118L13.9508 4.62503L12.5484 6.03128L11.7784 5.30563C11.3406 4.86775 10.625 4.89766 10.1873 5.33455L7.73555 7.66464C7.54765 7.85216 7.26481 7.97586 6.99995 7.97586H5.99947C5.44776 7.97586 5 7.52899 5 6.97839C5 6.42679 5.44776 5.97995 5.99947 5.97995L6.60416 5.96497L8.78098 3.90118Z" fill="black" fill-opacity="0.4"/>
</svg>
