<svg width="24" height="24" viewBox="0 0 24 24" fill="none" xmlns="http://www.w3.org/2000/svg">
<path fill-rule="evenodd" clip-rule="evenodd" d="M17 5H7C5.89543 5 5 5.89543 5 7V17C5 18.1046 5.89543 19 7 19H17C18.1046 19 19 18.1046 19 17V7C19 5.89543 18.1046 5 17 5ZM7 3C4.79086 3 3 4.79086 3 7V17C3 19.2091 4.79086 21 7 21H17C19.2091 21 21 19.2091 21 17V7C21 4.79086 19.2091 3 17 3H7Z" fill="black" fill-opacity="0.4"/>
<path fill-rule="evenodd" clip-rule="evenodd" d="M14.0106 10C14.0106 11.1046 13.1104 12 12 12C10.8896 12 9.98941 11.1046 9.98941 10C9.98941 8.89543 10.8896 8 12 8C13.1104 8 14.0106 8.89543 14.0106 10ZM16.0212 10C16.0212 12.2091 14.2209 14 12 14C9.77916 14 7.97881 12.2091 7.97881 10C7.97881 7.79086 9.77916 6 12 6C14.2209 6 16.0212 7.79086 16.0212 10ZM17.9802 18.6838C17.9876 18.7059 17.9942 18.7281 18 18.7503C17.7116 18.9094 17.3796 19 17.0265 19H15.9663C15.5411 17.8033 14.4028 17 13.1229 17H10.8771C9.5972 17 8.45886 17.8033 8.0337 19H6.97348C6.62032 19 6.28843 18.9094 6 18.7504C6.00579 18.7281 6.01239 18.7059 6.0198 18.6838L6.10857 18.4189C6.79275 16.3772 8.71357 15 10.8771 15H13.1229C15.2864 15 17.2073 16.3772 17.8914 18.4189L17.9802 18.6838Z" fill="black"/>
</svg>
