<svg width="24" height="24" viewBox="0 0 24 24" fill="none" xmlns="http://www.w3.org/2000/svg">
<path d="M2 16C2 17.657 3.3431 19 5 19H19C20.6569 19 22 17.657 22 16V7.99999C22 6.34299 20.6569 4.99998 19 4.99998L5 4.99998C3.3431 4.99998 2 6.34299 2 7.99999L2 16ZM17 12C17 11.448 17.4477 11 18 11C18.5523 11 19 11.448 19 12C19 12.552 18.5523 13 18 13C17.4477 13 17 12.552 17 12Z" fill="black"/>
<path d="M18 11C18.5523 11 19 11.4477 19 12C19 12.5523 18.5523 13 18 13C17.4477 13 17 12.5523 17 12C17 11.4477 17.4477 11 18 11Z" fill="black" fill-opacity="0.4"/>
</svg>
