<svg width="24" height="24" viewBox="0 0 24 24" fill="none" xmlns="http://www.w3.org/2000/svg">
<path fill-rule="evenodd" clip-rule="evenodd" d="M8.50015 16.9142L3.70711 21.7071C3.31658 22.0977 2.68342 22.0977 2.29289 21.7071C1.90237 21.3166 1.90237 20.6834 2.29289 20.2929L7.08594 15.5L8.50015 16.9142Z" fill="black"/>
<path d="M14.9975 2C14.7323 2 14.4596 2.1385 14.2681 2.3218C12.7195 3.8046 12.2453 5.0446 12.8115 6.7432C11.4904 7.75581 10.656 8.00431 9.00681 8.00431C6.75231 8.00431 5.28031 8.2761 4.27871 9.277V9.3082C3.34151 10.245 3.34151 11.745 4.27871 12.681C9.48077 17.9236 5.43285 13.86 11.31 19.708C12.2473 20.645 13.7477 20.645 14.685 19.708H14.7163C15.7183 18.707 15.9975 17.424 15.9975 14.992C15.9975 13.446 16.3148 12.355 17.2755 11.207C19.1244 11.749 20.2001 11.23 21.7163 9.71431C21.9038 9.52681 21.9975 9.26101 21.9975 8.99591C21.9975 8.64421 21.9087 8.10511 21.685 7.43431C21.3247 6.35421 20.7044 5.2675 19.7163 4.2799C18.7281 3.2924 17.6407 2.6724 16.56 2.3123C15.8888 2.0887 15.3494 2 14.9975 2ZM15.3848 4.0546C16.4472 4.2518 17.5169 4.9551 18.2787 5.7166C19.0406 6.478 19.6895 7.4106 19.958 8.6329C19.0035 9.5485 18.4197 9.6209 17.4651 9.1184C17.0843 8.9179 16.6018 8.9888 16.2975 9.293C14.4765 11.113 13.9975 12.764 13.9975 14.992C13.9975 16.932 13.8834 17.653 13.2787 18.303C13.108 18.487 12.8725 18.459 12.7163 18.303L5.68501 11.276C5.52881 11.12 5.53361 10.92 5.65951 10.767C6.01671 10.332 6.81171 9.9941 8.99751 9.9953C11.6105 9.9968 12.9996 9.3239 14.7163 7.7154C15.0206 7.4112 15.0962 6.9446 14.9037 6.5598C14.3895 5.5319 14.4697 4.9901 15.3848 4.0546Z" fill="black" fill-opacity="0.4"/>
</svg>
