<svg width="24" height="24" viewBox="0 0 24 24" fill="none" xmlns="http://www.w3.org/2000/svg">
<path fill-rule="evenodd" clip-rule="evenodd" d="M5 7C5 6.448 5.448 6 6 6H18C18.552 6 19 6.448 19 7V12C19 14.209 17.209 16 15 16H13V18.5C13 20.433 11.433 22 9.5 22H7C6.44772 22 6 21.5523 6 21C6 20.4477 6.44772 20 7 20H9.5C10.3284 20 11 19.3284 11 18.5V16H9C6.791 16 5 14.209 5 12V7ZM17 8H7V12C7 13.105 7.895 14 9 14H15C16.105 14 17 13.105 17 12V8Z" fill="black" fill-opacity="0.4"/>
<path fill-rule="evenodd" clip-rule="evenodd" d="M9 3C9 2.44772 8.55228 2 8 2C7.44772 2 7 2.44772 7 3V6H9V3ZM17 3C17 2.44772 16.5523 2 16 2C15.4477 2 15 2.44772 15 3V6H17V3Z" fill="black"/>
</svg>
