<svg width="24" height="24" viewBox="0 0 24 24" fill="none" xmlns="http://www.w3.org/2000/svg">
<path d="M6 6C5.448 6 5 6.448 5 7V11C5 12.252 5.94199 13.508 7.34399 13.919L9.09399 17.438C9.26299 17.776 9.621 18 10 18H11V18.5C11 19.328 10.329 20 9.5 20H7C6.448 20 6 20.448 6 21C6 21.552 6.448 22 7 22H9.5C11.433 22 13 20.433 13 18.5V18H14C14.379 18 14.737 17.776 14.906 17.438L16.662 13.91C18.086 13.512 19 12.252 19 11V7C19 6.448 18.552 6 18 6C13.046 6 8.05538 6 6 6Z" fill="black" fill-opacity="0.4"/>
<path fill-rule="evenodd" clip-rule="evenodd" d="M9 3C9 2.44772 8.55228 2 8 2C7.44772 2 7 2.44772 7 3V6H9V3ZM17 3C17 2.44772 16.5523 2 16 2C15.4477 2 15 2.44772 15 3V6H17V3Z" fill="black"/>
</svg>
