<svg width="24" height="24" viewBox="0 0 24 24" fill="none" xmlns="http://www.w3.org/2000/svg">
<path fill-rule="evenodd" clip-rule="evenodd" d="M2 11H9.00005C9.55233 11 10 11.4477 10 12C10 13.1046 10.8955 14 12 14C13.1046 14 14 13.1046 14 12C14 11.4477 14.4478 11 15 11H22C22 12.6667 22 14.3333 22 16C22 18.2091 20.2092 20 18 20H6.00005C3.79091 20 2.00005 18.2091 2.00005 16C2.00005 14.3333 2.00018 12.6667 2 11ZM4.00005 13V16C4.00005 17.1046 4.89548 18 6.00005 18H18C19.1046 18 20 17.1046 20 16V13H15.874C15.43 14.7252 13.8639 16 12 16C10.1362 16 8.57011 14.7252 8.12607 13H4.00005Z" fill="black"/>
<path fill-rule="evenodd" clip-rule="evenodd" d="M2 5C2 4.44772 2.44772 4 3 4H9C9.55228 4 10 4.44772 10 5C10 6.10457 10.8954 7 12 7C13.1046 7 14 6.10457 14 5C14 4.44772 14.4477 4 15 4H21C21.5523 4 22 4.44772 22 5V11H20V6H15.874C15.4299 7.72523 13.8638 9 12 9C10.1362 9 8.57006 7.72523 8.12602 6H4V11H2V5Z" fill="black" fill-opacity="0.4"/>
</svg>
